<?xml version="1.0" encoding="utf-8"?>
<!-- Generator: Adobe Illustrator 19.2.0, SVG Export Plug-In . SVG Version: 6.00 Build 0)  -->
<svg version="1.1" id="Layer_1" xmlns="http://www.w3.org/2000/svg" xmlns:xlink="http://www.w3.org/1999/xlink" x="0px" y="0px"
	 viewBox="0 0 600 140" style="enable-background:new 0 0 600 140;" xml:space="preserve">
<g>
	<g>
		<path d="M98.8,103.8c0.2-0.4,0.2-0.6,0.4-1c0.2-0.4,0.4-0.5,0.8-0.3c0.4,0.1,2.8,0.7,5.2-0.7c2.1-1.3,3.4-3.5,2.2-5.6
			c-1-1.8-3.5-2.6-7-0.5c-0.6,0.4-1,0.6-1.6,0.9c-0.3,0.2-0.6,0.2-0.9-0.2c-0.1-0.2-0.2-0.4-0.4-0.6c-0.2-0.4-0.2-0.7,0.3-0.9
			c0.6-0.4,0.9-0.6,1.6-0.9c3.1-1.8,3.7-4.1,2.8-5.8c-1.2-2.1-3.7-2.3-5.7-1.1c-2,1.2-2.6,2.9-2.8,3.9c-0.1,0.3-0.3,0.6-0.7,0.5
			c-0.4,0-0.6,0-1-0.1c-0.3,0-0.5-0.4-0.4-0.7c0,0,0.7-3.5,3.9-5.4c3.5-2.1,7.1-1.7,8.8,1.3c1.1,2,0.4,4.5-0.6,5.8c0,0,0,0,0,0.1
			c1.6-0.3,4.6,0,5.8,2.3c1.6,2.8,0.5,6.4-3.3,8.6c-3.4,2-6,1.3-7,1.1C98.9,104.4,98.7,104.1,98.8,103.8z"/>
		<path d="M122.8,82.2c-3-5.9-2.1-10.7,2.6-13c4.7-2.3,9,0.1,11.8,6.1c2.7,6,1.8,10.7-2.7,12.8S125.8,88.1,122.8,82.2z M135.1,76.3
			c-2.3-4.9-5.5-6.9-8.8-5.3c-3.3,1.6-3.8,5.3-1.4,10.2c2.5,4.9,5.6,6.7,8.8,5.2C136.9,84.9,137.4,81.3,135.1,76.3z"/>
		<path d="M170.4,51.1c-0.1-0.3,0.1-0.6,0.4-0.7c2.8-1,4.2-1.4,7.1-2.3c6.1-2,12.5,1.1,14.1,6.7c1.6,5.6-1.9,11.5-7.7,13.3
			c-2.7,0.9-4,1.3-6.7,2.2c-0.3,0.1-0.6-0.1-0.7-0.4C174.3,62.3,173,58.6,170.4,51.1z M183.2,66.2c5-1.6,7.6-6,6.2-10.8
			c-1.4-4.7-6.2-7-11.3-5.3c-1.9,0.6-2.8,0.9-4.7,1.6c2.2,6.4,3.2,9.6,5.4,16C180.5,67,181.4,66.7,183.2,66.2z"/>
		<path d="M208.6,60.2c1.8-8.8,2.7-13.1,4.9-21.9c0.1-0.2,0.2-0.4,0.5-0.4c0.1,0,0.2,0,0.3-0.1c0.3-0.1,0.5,0,0.6,0.2
			c5.6,7,8.4,10.6,13.6,17.8c0.3,0.3,0.1,0.8-0.4,0.9c-0.5,0.1-0.7,0.1-1.2,0.2c-0.3,0.1-0.5-0.1-0.6-0.2c-1.3-1.8-2-2.6-3.3-4.4
			c-4.4,0.9-6.6,1.4-11,2.4c-0.4,2.1-0.7,3.2-1.1,5.4c0,0.2-0.2,0.4-0.4,0.4c-0.5,0.1-0.7,0.2-1.2,0.3
			C208.9,61,208.5,60.7,208.6,60.2z M221.9,50.7c-2.2-2.9-4.4-5.8-6.7-8.6c-0.1,0-0.2,0-0.3,0.1c-1,4.3-1.5,6.4-2.4,10.6
			C216.3,51.9,218.1,51.5,221.9,50.7z"/>
		<path d="M246,43.4c-3.6-3.5-5.5-5.3-9.3-8.7c-0.3-0.3-0.1-0.9,0.4-0.9c0.6-0.1,0.9-0.1,1.5-0.2c0.2,0,0.4,0.1,0.6,0.2
			c3.2,2.9,4.7,4.4,7.8,7.3c2.1-3.7,3.2-5.5,5.4-9.2c0.1-0.1,0.3-0.3,0.5-0.3c0.6-0.1,0.9-0.1,1.5-0.2c0.5-0.1,0.8,0.4,0.6,0.8
			c-2.7,4.3-4,6.5-6.6,10.9c0.5,3.8,0.8,5.7,1.3,9.5c0,0.3-0.2,0.6-0.5,0.6c-0.5,0.1-0.7,0.1-1.2,0.2c-0.3,0-0.6-0.2-0.7-0.5
			C246.9,49.1,246.6,47.2,246,43.4z"/>
		<path d="M271.6,47.6c0.1-0.2,0.3-0.4,0.4-0.6c0.3-0.4,0.6-0.7,1.1-0.4c0.2,0.2,2.7,2.1,5.5,1.9c2.5-0.2,4.1-1.8,4-3.5
			c-0.1-2.1-2.1-3.2-5.8-4.4c-3.6-1.2-5.8-2.4-6.1-5.8c-0.2-2,1.3-5.5,6.6-5.8c3.2-0.2,5.7,1.2,5.7,1.2c0.2,0.1,0.6,0.4,0.2,1
			c-0.1,0.2-0.2,0.4-0.4,0.6c-0.3,0.4-0.6,0.6-1.1,0.3c-0.2-0.1-2.4-1.3-4.4-1.1c-3.5,0.2-4.4,2.3-4.3,3.6c0.1,2,1.9,3,4.6,3.9
			c4.4,1.4,7.3,2.8,7.4,6.3c0.1,3.1-2.8,5.5-6.5,5.8c-3.7,0.2-6.3-1.6-6.8-2C271.6,48.4,271.3,48.2,271.6,47.6z"/>
		<path d="M333.3,29.3c6.6,0.5,11.3,5.9,10.7,11.8c-0.6,6-6.1,10.2-12.3,9.7c-6.2-0.5-11-5.4-10.7-11.4
			C321.2,33.4,326.7,28.8,333.3,29.3z M331.8,48.8c5,0.4,9.5-3.1,9.9-7.8c0.5-4.7-3.4-9.1-8.6-9.5c-5.2-0.4-9.7,3.4-9.9,8.1
			C323,44.3,326.8,48.4,331.8,48.8z"/>
		<path d="M363.2,33.6c0-0.3,0.3-0.5,0.7-0.5c5.1,0.8,7.7,1.2,12.8,2.2c0.4,0.1,0.6,0.4,0.5,0.7c-0.1,0.3-0.1,0.5-0.2,0.9
			c-0.1,0.3-0.4,0.5-0.7,0.4c-4.3-0.8-6.5-1.2-10.9-1.9c-0.5,3.2-0.8,4.9-1.3,8.1c3.6,0.6,5.5,0.9,9.1,1.5c0.3,0.1,0.6,0.4,0.5,0.7
			c-0.1,0.3-0.1,0.5-0.2,0.9c-0.1,0.3-0.4,0.5-0.7,0.5c-3.6-0.7-5.4-1-9.1-1.5c-0.5,3.2-0.8,4.9-1.3,8.1c0,0.3-0.4,0.5-0.7,0.5
			c-0.5-0.1-0.7-0.1-1.2-0.2c-0.3-0.1-0.5-0.4-0.5-0.7C361.4,45.4,362,41.4,363.2,33.6z"/>
		<path d="M412.8,44.4c0-0.4,0.3-0.7,0.8-0.5c0.5,0.2,0.8,0.2,1.3,0.4c0.3,0.1,0.5,0.3,0.5,0.6c0.1,6.5,0,9.7,0,16.2
			c0,0,0.1,0,0.1,0c3.9-5.5,5.9-8.2,9.9-13.6c0.1-0.2,0.4-0.2,0.6-0.1c0.2,0.1,0.3,0.1,0.6,0.2c0.3,0.1,0.4,0.3,0.4,0.5
			c0.2,6.8,0.3,10.1,0.3,16.9c0,0,0.1,0,0.1,0c3.6-5.3,5.5-8,9.2-13.3c0.1-0.2,0.5-0.3,0.7-0.2c0.5,0.2,0.8,0.3,1.3,0.5
			c0.4,0.2,0.6,0.5,0.3,0.9c-5.1,6.8-7.5,10.2-12.4,17c-0.1,0.2-0.4,0.3-0.7,0.2c-0.2-0.1-0.3-0.1-0.5-0.2c-0.2-0.1-0.4-0.3-0.4-0.5
			c0-6.9-0.1-10.3-0.3-17.2c-0.1,0-0.1,0-0.2,0c-4.1,5.5-6.1,8.3-10,13.9c-0.1,0.1-0.4,0.2-0.6,0.2c-0.2-0.1-0.3-0.1-0.5-0.1
			c-0.2-0.1-0.4-0.3-0.4-0.6C413,57,413,52.8,412.8,44.4z"/>
		<path d="M465.7,62.1c6.2,2.7,9,9.4,6.4,14.8c-2.6,5.4-9.2,7.5-15,5c-5.8-2.5-8.7-8.8-6.5-14.4C452.8,62,459.5,59.5,465.7,62.1z
			 M457.9,80c4.7,2,10.1,0.3,12.1-4.1c2-4.3-0.3-9.8-5.2-11.9c-4.9-2.1-10.4-0.1-12.2,4.3C450.9,72.8,453.3,78,457.9,80z"/>
		<path d="M491.1,75.4c0.1-0.4,0.5-0.6,0.9-0.4c0.5,0.3,0.8,0.4,1.3,0.7c0.2,0.1,0.4,0.4,0.3,0.7c-1.2,6.4-1.9,9.5-3.3,15.9
			c0,0,0.1,0,0.1,0.1c5-4.6,7.5-6.8,12.6-11.2c0.1-0.1,0.4-0.2,0.7,0c0.2,0.1,0.3,0.2,0.5,0.3c0.2,0.1,0.4,0.4,0.3,0.6
			c-1.1,6.7-1.8,10-3.1,16.6c0,0,0.1,0,0.1,0.1c4.7-4.5,7.1-6.7,11.9-11c0.2-0.1,0.5-0.2,0.7,0c0.5,0.3,0.7,0.4,1.2,0.7
			c0.4,0.2,0.5,0.6,0.1,0.9c-6.4,5.5-9.6,8.3-15.8,14c-0.2,0.2-0.5,0.2-0.7,0.1c-0.2-0.1-0.3-0.2-0.4-0.3c-0.2-0.1-0.3-0.4-0.3-0.6
			c1.4-6.7,2-10.1,3.2-16.9c-0.1,0-0.1,0-0.1-0.1c-5.2,4.5-7.7,6.8-12.8,11.5c-0.2,0.1-0.4,0.1-0.6,0c-0.2-0.1-0.3-0.1-0.5-0.2
			c-0.2-0.1-0.4-0.4-0.3-0.6C488.8,87.9,489.6,83.7,491.1,75.4z"/>
	</g>
</g>
</svg>
