<?xml version="1.0" encoding="utf-8"?>
<!-- Generator: Adobe Illustrator 21.0.0, SVG Export Plug-In . SVG Version: 6.00 Build 0)  -->
<svg version="1.1" id="Layer_1" xmlns="http://www.w3.org/2000/svg" xmlns:xlink="http://www.w3.org/1999/xlink" x="0px" y="0px"
	 viewBox="0 0 78.6 90.9" style="enable-background:new 0 0 78.6 90.9;" xml:space="preserve">
<style type="text/css">
	.st0{fill:#FFFFFF;}
</style>
<path class="st0" d="M76.4,78.8c-0.1-0.4-0.5-0.8-0.9-0.8c-1.4-0.3-2.9-0.6-4.3-1c-14.6-4.1-26.1-14.5-31.5-28.6
	c-5.5-14.1-4-29.5,4-42.4c0.8-1.2,1.6-2.5,2.5-3.6c0.3-0.4,0.3-0.8,0.1-1.2c-0.2-0.4-0.6-0.6-1.1-0.6c-4.9,0.2-9.7,1.2-14.3,3
	C7.8,12.4-3.7,38.5,5.2,61.7c9,23.1,35.1,34.7,58.2,25.7C68,85.6,72.3,83.1,76,80C76.4,79.7,76.5,79.2,76.4,78.8z"/>
</svg>
