<svg id="Layer_1" data-name="Layer 1" xmlns="http://www.w3.org/2000/svg" viewBox="0 0 330 44"><defs><style>.cls-1{fill:#020202;fill-rule:evenodd;}.cls-2{fill:#231f20;}</style></defs><title>Artboard 1</title><path class="cls-1" d="M37.25,37.28s.48,1.45-.64,1.45-2.14-1.43-2.14-1.43.52-9.18,1.11-15.45C32.71,21.06,33.41,19,33.41,19a12.58,12.58,0,0,0,2.39.8A73.68,73.68,0,0,1,37.22,11c.9-.52,2.4.94,2.47,1.28s-.07,1-.66,4.22c-.13.72-.28,1.9-.42,3.35,7.47-.53,15.44-4.78,15.44-7.74,0-2-3.65-4.49-7.45-4.49C33.85,7.63,29.8,17.4,29.8,19.21a2.29,2.29,0,0,0,1.5,2.27s-.12.46-.91.46a3,3,0,0,1-2.31-3C28.08,12.48,36.24,6,45.5,6c6.72,0,10.25,3.65,10.25,7.33,0,4.72-10.86,8.77-17.36,8.84C37.81,28.48,37.25,37.28,37.25,37.28Zm64-22.7S100,32.29,92.92,32.29a4.58,4.58,0,0,1-4.77-3.59s-3.35,9.8-7.55,9.8c-2.52,0-3.93-1.57-4.15-4.44a2.91,2.91,0,0,1-.6.05,9.24,9.24,0,0,1-6.06-3.66,10.68,10.68,0,0,1-3.85.87A3.57,3.57,0,0,1,62.34,28c0-1.8,2.2-4.57,2.2-6.1-1.4-.73-2.48-.15-4.12-.86C60.54,23.43,58.85,33,54,33c-2,0-3.32-2.07-3.32-2.07S48,35.09,45.42,35.09s-4.23-1.39-4.23-4.73S42,26.14,42.29,26s1.59.34,1.5,1a18.56,18.56,0,0,0-.51,3.42,10.72,10.72,0,0,0,.49,3s3.46-.84,5.89-6.35c1.45-3.28,1-5,1.63-5.35s2.66.83,2.27,2.67c-.73,3.41-1.25,3.62-1.25,4.88A2.75,2.75,0,0,0,52.86,31c2.26-.55,5.26-6.19,5.26-10.66,0-1.63-.89-2.25-1-2.79a1.73,1.73,0,0,1,.87-.35,6.17,6.17,0,0,0,5.16,2.28A3.7,3.7,0,0,1,65.9,21c.83.85,1.5,1.81,1,3-1,2.19-2.21,5-2.21,5s.15.2,1,.2a6.66,6.66,0,0,0,3.06-.87s-.31.16-.31-1.75S70,21.2,73.1,21.2a1.63,1.63,0,0,1,1.27.55A13.17,13.17,0,0,0,75,23c.69,1.24.69,1.24.69,1.82s-2.32,3.23-4.87,5c0,0,1.46,2.09,5.64,2.71.49-6.24,6.62-21.65,10.9-26.9a5,5,0,0,1,2.16.74S78.94,24.28,78.94,33.87c0,1.35.13,2.77.92,2.77S86.37,30,88.68,16.8a.91.91,0,0,1,.77-.6c.55,0,2.14,1,2.05,1.38A49.86,49.86,0,0,0,90.35,25c0,2.25.29,5.47,1.29,5.47.58,0,6-1.31,7.23-17.47,0,0-1-1.73.54-1A3.87,3.87,0,0,1,101.24,14.57ZM70.79,26.9c1,0,2.26-2.51,2.59-3.17C72.13,23.73,70.79,26.9,70.79,26.9ZM126,19.27a6.26,6.26,0,0,1,1.64,4.11c0,2.89-2.49,5.93-5.4,5.93a3,3,0,0,1-3.13-2.67s-2.81,4.28-5.53,4.28c-.71,0-3.08-.87-3.08-2.51,0-3,2.4-6.23,2.4-7.22A10.24,10.24,0,0,1,108,22.66a5.07,5.07,0,0,1,1,3c0,1.77-.47,6.07-4.54,6.07-1.74,0-4-1.07-4-3.45,0-1.34,1.54-6,3.71-6.63,0,0-1.74-1-1.32-1.42s.58-.56.58-.56A6.33,6.33,0,0,1,106.76,21s3.47-1.21,4.8-1.77,2-.95,2.66-.47c1.27.93,1.54,1.28,1.54,1.9,0,1.64-3.36,7.4-2.89,8.16,0,0,1.33-.47,4.07-3.91S119.42,21,120.12,21L122,23s-2.1,4-.38,4c1.93,0,3.74-2.16,3.74-5a4.06,4.06,0,0,0-2.51-3.74c-.36-.13.45-1.56.9-1.38a4.85,4.85,0,0,1,2,1.15C126,18.32,126,19.08,126,19.27ZM106.56,25c0-.83-.15-1.67-.66-1.67-1.85,0-3.5,5.16-2.49,6.78C106.65,29.68,106.56,25.84,106.56,25Zm23.78.81c-1.27,0-2.08,1.69-2.26,2s1,1.52,1.52,1.52,2.09-1.9,2.13-2.12A1.33,1.33,0,0,0,130.34,25.81Z"/><path class="cls-2" d="M198.69,17.25a6.24,6.24,0,0,0-5.87-4.08c-3.6,0-7,3-7,8.95s3.79,8.9,7,8.9a6.42,6.42,0,0,0,6-4.19l1.1.65c-1.22,2.54-4,3.9-7.12,3.9a9.26,9.26,0,1,1,0-18.51c3.07,0,5.6,1.27,6.91,3.84Z"/><path class="cls-2" d="M218.79,22.12a9.2,9.2,0,1,1-18.4,0,9.2,9.2,0,1,1,18.4,0Zm-15.91,0c0,5.68,3.46,8.9,6.71,8.9s6.71-3.22,6.71-8.9-3.46-8.95-6.71-8.95S202.88,16.44,202.88,22.12Z"/><path class="cls-2" d="M220.08,13.42l6.67,14.83,6.61-14.83h.39l-8,17.85-8-17.85Z"/><path class="cls-2" d="M248.63,30.79V13.42h6.82c4.52,0,6.67,1.49,6.67,4.26s-2.07,4.24-6.67,4.24H255l7.4,8.86h-2.8l-7.33-8.86h-1.38v-.38h3.48c2.49,0,5.64-.93,5.64-3.86s-2.95-3.81-5.64-3.87h-3.48v17Z"/><path class="cls-2" d="M288.41,30.79V13.42h6.82c4.52,0,6.67,1.49,6.67,4.26s-2.07,4.24-6.67,4.24h-.46l7.4,8.86h-2.8l-7.33-8.86h-1.38v-.38h3.48c2.49,0,5.64-.93,5.64-3.86s-2.95-3.84-5.64-3.87h-3.48v17Z"/><path class="cls-2" d="M283.52,30.79V13.42h2.25V30.79Z"/><path class="cls-2" d="M304,30.79V13.42h2.25v17H314v.39Z"/><path class="cls-2" d="M274.48,21.54v.38h4.24V28.7c-.32.74-2.43,2.32-5.09,2.32-3.13,0-6.83-2.92-6.83-8.9s3.31-8.95,6.85-8.95a6.13,6.13,0,0,1,5.76,4.08l1-.54a7.14,7.14,0,0,0-6.78-3.84,9.09,9.09,0,0,0-9.3,9.26,9.09,9.09,0,0,0,9.3,9.26,10.92,10.92,0,0,0,7.29-2.71V21.54Z"/><path class="cls-2" d="M234.85,30.79V13.42H246.7v.39h-9.58v7.73h9.07v.38h-9.07V30.4h10v.39Z"/><path class="cls-2" d="M157.4,23h-4a.53.53,0,0,1-.51-.51V21a.53.53,0,0,1,.51-.51h4V16.38a.51.51,0,0,1,.51-.49h1.51a.51.51,0,0,1,.51.49v4.08H164a.51.51,0,0,1,.49.51v1.51A.51.51,0,0,1,164,23h-4.08v4a.51.51,0,0,1-.51.49h-1.51a.51.51,0,0,1-.51-.49Z"/></svg>