<?xml version="1.0" encoding="UTF-8" standalone="no"?>
<!DOCTYPE svg  PUBLIC '-//W3C//DTD SVG 1.1//EN'  'http://www.w3.org/Graphics/SVG/1.1/DTD/svg11.dtd'>
<svg xmlns="http://www.w3.org/2000/svg">
<defs>
<font id="FreightTextProMedium-Italic" horiz-adv-x="480">
<font-face slope="-12" underline-position="-113" font-weight="500" descent="-200" panose-1="2 0 6 6 6 0 0 9 0 4" units-per-em="1000" unicode-range="U+0020-2265" bbox="-163 -270 1110 864" x-height="464" underline-thickness="20" font-family="FreightTextProMedium" ascent="800" font-style="italic" cap-height="625"/>
<missing-glyph horiz-adv-x="1000"/>
<glyph glyph-name=".notdef" horiz-adv-x="1000"/>
<glyph glyph-name=".null" horiz-adv-x="0"/>
<glyph glyph-name="nonmarkingreturn" horiz-adv-x="333"/>
<glyph glyph-name="space" horiz-adv-x="228" unicode=" "/>
<glyph glyph-name="exclam" horiz-adv-x="284" unicode="!" d="M179 45q0 -25 -16.5 -42.5t-42.5 -17.5t-43.5 18t-17.5 42t17.5 41t43.5 17t42.5 -17t16.5 -41zM239 593l-94 -398q-1 -6 -10 -6q-10 0 -10 7l10 403q2 41 46 41h3q57 0 57 -34q0 -3 -2 -13z"/>
<glyph glyph-name="quotedbl" horiz-adv-x="370" unicode='&quot;' d="M223 618l-151 -215h-38l107 243h2zM385 618l-151 -215h-37l107 243h1z"/>
<glyph glyph-name="numbersign" horiz-adv-x="566" unicode="#" d="M348 218l50 186h-170l-51 -186h171zM576 404h-139l-50 -186h129v-38h-139l-50 -186h-39l50 186h-171l-50 -186h-39l50 186h-128v38h138l50 186h-128v38h138l52 189h39l-51 -189h170l51 189h39l-51 -189h129v-38z"/>
<glyph glyph-name="dollar" horiz-adv-x="510" unicode="$" d="M253 385l56 207q-22 2 -35 2q-42 0 -74 -23.5t-32 -62.5t21 -67t64 -56zM260 267l-63 -237q9 -1 27 -1q63 0 97 30t34 80q0 38 -23.5 67t-71.5 61zM185 -15l-41 -151h-39l41 153q-61 6 -127 27l12 179h41l28 -137q24 -13 59 -21l68 253q-73 41 -109 82.5t-36 105.5 q0 69 63.5 116t144.5 47q22 0 31 -1l27 100h39q-27 -102 -28 -102q32 -4 71 -13l52 12l-26 -192h-44l-13 124q-21 11 -53 19l-60 -222q39 -23 60 -38t47 -39t38 -52.5t12 -63.5q0 -82 -68 -134t-169 -52h-21z"/>
<glyph glyph-name="percent" horiz-adv-x="746" unicode="%" d="M681 158q0 47 -32.5 78t-79.5 31q-54 0 -92 -42t-38 -97q0 -49 31.5 -79t78.5 -30q55 0 93.5 41.5t38.5 97.5zM345 490q0 50 -31.5 81.5t-80.5 31.5q-54 0 -92 -42t-38 -97q0 -49 32 -79t80 -30q55 0 92.5 39.5t37.5 95.5zM729 164q0 -77 -54 -132t-130 -55 q-68 0 -111 40t-43 107q0 78 52.5 132.5t129.5 54.5q66 0 111 -40t45 -107zM734 639l-630 -654h-59l630 654h59zM395 500q0 -78 -53.5 -132.5t-130.5 -54.5q-66 0 -111 41t-45 108q0 76 53.5 130.5t128.5 54.5q67 0 112.5 -40t45.5 -107z"/>
<glyph glyph-name="ampersand" horiz-adv-x="627" unicode="&amp;" d="M349 147l-146 165q-116 -62 -116 -153q0 -46 25.5 -75t60.5 -29q57 0 176 92zM385 499q0 45 -21 74t-63 29q-46 0 -73 -30.5t-27 -74.5q0 -33 8.5 -59t17.5 -39t29 -36q68 32 98.5 62.5t30.5 73.5zM370 124h-1q-61 -71 -113 -105.5t-115 -34.5q-59 0 -98.5 45t-39.5 108 q0 80 53.5 130t128.5 64v1q-67 67 -67 139q0 74 56.5 121t134.5 47q69 0 114 -35.5t45 -93.5q0 -63 -46 -103t-143 -65v-1l131 -143h1l119 102v2q-23 5 -36 20t-13 33q0 23 17 36.5t43 13.5t43.5 -17.5t17.5 -41.5q0 -68 -111 -137l-58 -36l149 -162l-92 -27z"/>
<glyph glyph-name="quotesingle" horiz-adv-x="208" unicode="&apos;" d="M223 618l-151 -215h-38l108 243h1z"/>
<glyph glyph-name="parenleft" horiz-adv-x="395" unicode="(" d="M358 -254q-43 21 -87 61.5t-85.5 97.5t-67.5 137t-26 167t26 167t67.5 137t85.5 97.5t87 61.5l26 -35q-89 -48 -164.5 -164.5t-75.5 -263.5t75.5 -263.5t164.5 -163.5z"/>
<glyph glyph-name="parenright" horiz-adv-x="395" unicode=")" d="M38 -254l-27 35q89 48 164.5 164.5t75.5 263.5t-75.5 263.5t-164.5 164.5l27 35q43 -21 86.5 -61t85 -97.5t67.5 -137.5t26 -167t-26 -167t-67.5 -137.5t-85 -97.5t-86.5 -61z"/>
<glyph glyph-name="asterisk" horiz-adv-x="349" unicode="*" d="M378 463l-53 -30l-92 34l-10 -13l60 -76l-11 -61l-21 -6l-45 43l4 97l-15 4l-52 -78l-62 -10l-14 18l28 58l91 24v18l-91 26l-29 56l13 18l64 -9l52 -81l16 5l-2 97l43 42l22 -7l11 -61l-62 -76l10 -13l92 33l53 -30v-22z"/>
<glyph glyph-name="plus" d="M449 208h-182v-185h-53v185h-183l3 53h180v184h53v-184h179z" unicode="+"/>
<glyph glyph-name="comma" horiz-adv-x="232" unicode="," d="M163 23q0 -97 -169 -191l-24 19q41 22 72 56.5t31 70.5q0 15 -7 29.5t-17 24t-20 16.5t-17 11l-7 4q0 23 21 38.5t48 15.5q35 0 62 -27.5t27 -66.5z"/>
<glyph glyph-name="hyphen" horiz-adv-x="328" unicode="-" d="M297 208h-264l3 53h258z"/>
<glyph glyph-name="period" horiz-adv-x="232" unicode="." d="M161 52q0 -27 -19 -47t-47 -20q-29 0 -48.5 20t-19.5 47t19.5 46t48.5 19t47.5 -19t18.5 -46z"/>
<glyph glyph-name="slash" horiz-adv-x="279" unicode="/" d="M7 -212l215 877h48l-215 -877h-48z"/>
<glyph glyph-name="zero" horiz-adv-x="503" unicode="0" d="M395 269q0 69 -36.5 112t-93.5 43q-54 0 -92.5 -38t-54 -87t-15.5 -100q0 -69 36.5 -112t93.5 -43q54 0 92.5 38t54 87t15.5 100zM460 269q0 -113 -64.5 -198.5t-165.5 -85.5q-85 0 -138.5 57.5t-53.5 156.5q0 113 64.5 198.5t165.5 85.5q85 0 138.5 -57.5t53.5 -156.5z "/>
<glyph glyph-name="one" horiz-adv-x="379" unicode="1" d="M311 0h-285l3 35l75 11q24 3 26 23l46 343l-109 16l7 30l192 19l-55 -408q-2 -20 20 -23l77 -11z"/>
<glyph glyph-name="two" horiz-adv-x="453" unicode="2" d="M10 0l3 62q24 17 65.5 45.5t61.5 42.5t50 36.5t44 36.5t30 32.5t22 35t6 33.5q0 43 -30.5 68t-75.5 25q-65 0 -129 -56l-7 24q36 40 90.5 67.5t105.5 27.5q58 0 99 -33t41 -89q0 -39 -17.5 -72.5t-62 -69t-77 -57t-106.5 -64.5q-24 -14 -37 -22l-1 -5h16q95 0 138.5 4 t65 14.5t36.5 35.5l24 39h43l-52 -161h-346z"/>
<glyph glyph-name="three" horiz-adv-x="418" unicode="3" d="M364 28q0 -92 -86.5 -161t-181.5 -69q-24 0 -52 6t-53.5 23t-25.5 42q0 21 15 36.5t36 15.5q29 0 50.5 -23.5t23.5 -53.5q15 -4 33 -4q62 0 104.5 46t42.5 108q0 55 -33 89t-88 34q-33 0 -70 -15l-10 25q110 64 151 106q46 48 46 93q0 43 -26 67.5t-69 24.5 q-54 0 -137 -56l-7 25q103 94 205 94q57 0 99.5 -32.5t42.5 -88.5q0 -32 -18 -63t-48 -56t-59 -43.5t-61 -33.5v-2q17 3 35 3q60 0 100.5 -38.5t40.5 -98.5z"/>
<glyph glyph-name="four" horiz-adv-x="479" unicode="4" d="M272 88l40 268h-5l-254 -268h219zM454 40h-108l-29 -224h-81l29 224h-278v38l389 410h29l-52 -400h115z"/>
<glyph glyph-name="five" horiz-adv-x="435" unicode="5" d="M416 468l-14 -83h-232l-49 -131q231 -91 231 -236q0 -98 -76 -159t-176 -61q-26 0 -54 5t-54 22t-26 43q0 22 15.5 37t36.5 15q30 0 49.5 -23t21.5 -53q13 -4 32 -4q61 0 106 37t45 96q0 120 -225 217l108 278h261z"/>
<glyph glyph-name="six" horiz-adv-x="517" unicode="6" d="M385 218q0 61 -31.5 103t-72.5 42q-88 0 -143 -105q-11 -48 -11 -68q0 -72 30 -120.5t85 -48.5q59 0 101 58t42 139zM469 228q0 -99 -71 -170.5t-159 -71.5q-86 0 -141 67t-55 168q0 110 74 207.5t187 156t235 69.5l9 -31q-155 -33 -261.5 -115t-159.5 -206h12 q36 49 84 77t91 28q65 0 110 -46.5t45 -132.5z"/>
<glyph glyph-name="seven" horiz-adv-x="452" unicode="7" d="M446 422l-382 -606h-55l365 571l1 5h-110q-54 0 -76 -0.5t-39.5 -3.5t-21.5 -7t-10 -14l-36 -60h-33l42 161h356z"/>
<glyph glyph-name="eight" horiz-adv-x="498" unicode="8" d="M366 127q0 29 -13 55t-39 49t-45 36.5t-51 33.5q-93 -59 -93 -153q0 -58 34.5 -93.5t93.5 -35.5q53 0 83 27.5t30 80.5zM381 485q0 51 -25.5 87t-74.5 36q-46 0 -72 -29t-26 -76q0 -82 123 -157q75 44 75 139zM446 162q0 -86 -60 -131t-149 -45q-77 0 -135.5 46 t-58.5 120q0 119 153 164v3q-93 56 -93 149q0 77 56.5 123.5t136.5 46.5q67 0 116.5 -43t49.5 -112q0 -60 -34.5 -95.5t-97.5 -57.5l1 -3q115 -68 115 -165z"/>
<glyph glyph-name="nine" horiz-adv-x="517" unicode="9" d="M132 249q0 -61 31.5 -103t72.5 -42q88 0 143 105q11 48 11 68q0 72 -30 120.5t-85 48.5q-59 0 -101 -58t-42 -139zM48 239q0 99 71 170.5t159 71.5q86 0 141 -67t55 -168q0 -110 -74 -207.5t-187 -156t-235 -69.5l-9 31q155 33 261.5 115t159.5 206h-12q-36 -49 -84 -77 t-91 -28q-65 0 -110 46.5t-45 132.5z"/>
<glyph glyph-name="colon" horiz-adv-x="232" unicode=":" d="M161 52q0 -27 -19 -47t-47 -20q-29 0 -48.5 20t-19.5 47t19.5 46t48.5 19t47.5 -19t18.5 -46zM202 358q0 -27 -19 -47t-47 -20q-29 0 -48.5 20t-19.5 47t19.5 46t48.5 19t47.5 -19t18.5 -46z"/>
<glyph glyph-name="semicolon" horiz-adv-x="232" unicode=";" d="M163 23q0 -97 -169 -191l-24 19q41 22 72 56.5t31 70.5q0 15 -7 29.5t-17 24t-20 16.5t-17 11l-7 4q0 23 21 38.5t48 15.5q35 0 62 -27.5t27 -66.5zM203 358q0 -27 -19 -47t-47 -20q-29 0 -48.5 20t-19.5 47t19.5 46t48.5 19t47.5 -19t18.5 -46z"/>
<glyph glyph-name="less" d="M430 33l-402 189v26l402 189l13 -49l-324 -151v-3l324 -152z" unicode="&lt;"/>
<glyph glyph-name="equal" d="M439 121h-398l3 53h392zM436 295h-392l-3 53h398z" unicode="="/>
<glyph glyph-name="greater" d="M452 222l-402 -189l-13 49l324 152v3l-324 151l13 49l402 -189v-26z" unicode="&gt;"/>
<glyph glyph-name="question" horiz-adv-x="373" unicode="?" d="M185 45q0 -25 -16.5 -42.5t-42.5 -17.5t-43.5 18t-17.5 42t17.5 41t43.5 17t42.5 -17t16.5 -41zM360 474q0 -34 -10 -58.5t-30 -40t-38 -23.5t-45 -17q-63 -21 -79 -36q-18 -17 -18 -43q0 -33 33 -74l-30 2q-54 57 -54 105q0 27 10.5 48t31.5 34.5t39 21t47 16.5 q70 22 86 38q12 11 12 27q0 33 -47.5 58.5t-113.5 25.5q-23 0 -51 -4q-7 10 -7 25q0 26 20.5 42.5t58.5 16.5q76 0 130.5 -50.5t54.5 -113.5z"/>
<glyph glyph-name="at" horiz-adv-x="834" unicode="@" d="M513 353q-10 21 -39.5 43.5t-59.5 22.5q-24 0 -36 -12q-26 -26 -52 -109.5t-26 -138.5q0 -26 17 -40.5t34 -14.5q18 0 60.5 61.5t85.5 138.5q16 29 16 49zM481 133l27 114h-14q-103 -196 -170 -196q-40 0 -71.5 30.5t-31.5 62.5q0 59 35 143.5t79 128.5q52 52 108 52 q32 0 57.5 -19t35.5 -54h11l22 59h53l-58 -163l-18 -163q-1 -4 -1 -13q0 -39 53 -39q64 0 109.5 57t52.5 150q1 8 1 23q0 124 -89.5 206t-223.5 87h-11q-134 0 -235 -96.5t-110 -232.5q-1 -9 -1 -27q0 -144 92.5 -236.5t224.5 -92.5q57 0 123 19l11 -36q-69 -23 -136 -23 q-150 0 -254.5 103.5t-104.5 264.5q0 19 1 29q10 154 123.5 260.5t265.5 106.5h13q152 -5 253.5 -98t101.5 -234q0 -17 -1 -25q-8 -113 -73.5 -178t-148.5 -65q-106 0 -106 64q0 16 5 31z"/>
<glyph glyph-name="A" horiz-adv-x="591" unicode="A" d="M355 267l-41 274h-5l-114 -274h160zM573 0h-263l3 35l52 9q20 4 20 24q0 2 -0.5 5.5t-0.5 5.5l-22 146h-184l-33 -85q-16 -41 -16 -63q0 -25 23 -31l45 -11l3 -35h-223l3 35l37 12q23 7 35 20t27 45l207 469v33l101 25l98 -560q3 -15 9.5 -22.5t23.5 -10.5l52 -11z"/>
<glyph glyph-name="B" horiz-adv-x="577" unicode="B" d="M445 462q0 60 -42.5 92t-113.5 32h-28l-34 -246h63q67 0 111 32.5t44 89.5zM430 167q0 60 -42 97.5t-105 37.5h-61l-33 -248l68 -15h35q59 0 98.5 36.5t39.5 91.5zM537 177q0 -64 -48 -112q-65 -65 -204 -65h-274l3 35l55 11q23 4 26 24l65 485v5q0 15 -20 19l-51 11 l-3 35h246q111 0 162 -40.5t51 -104.5q0 -58 -44 -99t-109 -59l5 -5q65 -13 102.5 -51t37.5 -89z"/>
<glyph glyph-name="C" horiz-adv-x="618" unicode="C" d="M568 193l-47 -193l-51 9q-72 -24 -135 -24q-139 0 -212 75t-73 205q0 75 29 145.5t81 122.5q106 106 247 106q78 0 140 -20l72 15l-28 -205h-45l-12 132q-58 36 -129 36q-102 0 -177.5 -95t-75.5 -244q0 -119 67 -186q45 -45 120 -45q61 0 117 30l60 136h52z"/>
<glyph glyph-name="D" horiz-adv-x="659" unicode="D" d="M528 359q0 104 -54.5 165.5t-159.5 61.5h-54l-71 -532l69 -15q120 4 195 89t75 231zM632 354q0 -146 -99 -244q-49 -50 -127.5 -80t-173.5 -30h-221l3 35l55 11q23 4 26 24l65 485v5q0 15 -20 19l-51 11l-3 35h249q137 0 217 -74.5t80 -196.5z"/>
<glyph glyph-name="E" horiz-adv-x="578" unicode="E" d="M537 181l-43 -181h-483l3 35l55 11q23 4 26 24l66 485v5q0 15 -20 19l-51 11l-3 35h490l-25 -186h-49l-11 97q-1 13 -3 20t-10.5 13.5t-19 9t-35.5 4.5t-53.5 2.5t-79.5 0.5h-30l-34 -249h21q60 0 77 3.5t25 18.5l32 67h39l-51 -215h-38l5 64q1 10 -5 14.5t-27 7t-64 2.5 h-19l-35 -260h24q105 0 147 3.5t59 13t27 33.5l39 92h54z"/>
<glyph glyph-name="F" horiz-adv-x="563" unicode="F" d="M542 439h-49l-11 97q-5 35 -34 42.5t-168 7.5h-19l-34 -255h32q59 0 76.5 3.5t24.5 18.5l33 67h38l-51 -215h-37l5 64q1 10 -5.5 14.5t-27.5 7t-64 2.5h-30l-30 -223q-3 -19 20 -24l52 -11l3 -35h-255l3 35l55 11q23 4 26 24l66 485v5q0 15 -20 19l-51 11l-3 35h480z"/>
<glyph glyph-name="G" horiz-adv-x="663" unicode="G" d="M634 277l-3 -35l-48 -11q-24 -6 -27 -24l-22 -144l58 -11l2 -28q-148 -39 -263 -39q-138 0 -209.5 76t-71.5 204q0 75 29 145.5t81 122.5q106 106 247 106q78 0 140 -20l72 15l-28 -205h-45l-12 132q-58 36 -129 36q-102 0 -177.5 -95t-75.5 -244q0 -119 67 -186 q45 -45 120 -45q52 0 100 21l23 159v6q0 14 -21 18l-55 11l-3 35h251z"/>
<glyph glyph-name="H" horiz-adv-x="721" unicode="H" d="M650 0h-254l3 35l55 11q23 4 26 24l31 229h-288l-30 -229q-3 -19 20 -24l51 -11l3 -35h-254l3 35l55 11q23 4 26 24l65 485q0 1 0.5 3t0.5 3q0 14 -21 18l-50 11l-3 35h253l-3 -35l-55 -11q-23 -4 -26 -24l-28 -214h287l29 214v6q0 14 -20 18l-51 11l-3 35h254l-4 -35 l-54 -11q-23 -4 -26 -24l-66 -485q-3 -19 20 -24l51 -11z"/>
<glyph glyph-name="I" horiz-adv-x="359" unicode="I" d="M288 0h-274l3 35l65 11q23 4 26 24l66 485v5q0 15 -20 19l-61 11l-3 35h273l-3 -35l-65 -11q-23 -5 -26 -24l-65 -485v-5q0 -15 20 -19l61 -11z"/>
<glyph glyph-name="J" horiz-adv-x="407" unicode="J" d="M432 625l-3 -35l-64 -11q-23 -4 -26 -24l-40 -305q-35 -265 -210 -265q-48 0 -79 18t-31 49q0 20 14 33t37 13q63 0 73 -80h1q38 8 59 50.5t37 168.5l43 318v5q0 15 -20 19l-71 11l-3 35h283z"/>
<glyph glyph-name="K" horiz-adv-x="638" unicode="K" d="M602 0h-227l3 35l35 11q14 4 2 24l-131 236l-70 -59l-23 -177q-3 -19 20 -24l51 -11l3 -35h-254l3 35l55 11q23 4 26 24l66 485v5q0 15 -20 19l-51 11l-3 35h254l-4 -35l-54 -11q-23 -4 -26 -24l-34 -251l183 163q9 8 20.5 19t18.5 17.5t15 14.5t13 13.5t9 11t6 9.5t2 8 q0 16 -29 24l-27 7l-3 35h248l-3 -34l-16 -2q-31 -5 -59 -21t-69 -50l-179 -159l164 -276q14 -25 23.5 -31.5t29.5 -10.5l29 -7z"/>
<glyph glyph-name="L" horiz-adv-x="558" unicode="L" d="M521 200l-48 -200h-462l3 35l55 11q23 4 26 24l64 485q3 20 -20 24l-52 11l-3 35h263l-3 -35l-63 -11q-23 -4 -26 -24l-68 -516h29q89 0 127 3.5t54 13t26 33.5l46 111h52z"/>
<glyph glyph-name="M" horiz-adv-x="797" unicode="M" d="M757 0h-267l3 35l58 12q16 3 24.5 39.5t20.5 152.5l32 312h-5l-256 -531h-71l-80 541h-5l-52 -318q-23 -142 -23 -171q0 -22 14 -25l55 -12l3 -35h-217l3 35l58 12q12 2 19 11.5t18.5 52.5t25.5 132l52 315q3 19 -17 22l-60 10l-3 35h214l71 -489h5l235 489h204l-3 -35 l-64 -11q-24 -4 -26 -24l-32 -316q-10 -91 -10 -135q0 -54 19 -57l54 -12z"/>
<glyph glyph-name="N" horiz-adv-x="716" unicode="N" d="M737 625l-3 -35l-48 -8q-21 -4 -31 -16t-19.5 -52.5t-21.5 -131.5l-53 -391h-54l-289 535h-5l-37 -283q-16 -123 -16 -152q0 -27 7 -36t26 -12l47 -8l3 -35h-233l3 35l48 8q30 5 42 38t29 162l33 246q2 14 2 35q0 25 -7.5 37t-25.5 17l-45 12l-3 35h185l260 -483h5 l33 240q17 125 17 156q0 25 -7 33t-25 11l-48 8l-3 35h234z"/>
<glyph glyph-name="O" horiz-adv-x="695" unicode="O" d="M566 363q0 123 -60 183q-51 51 -133 51q-55 0 -99.5 -33.5t-70 -85t-38.5 -107.5t-13 -108q0 -123 60 -183q51 -51 133 -51q55 0 99.5 33.5t70 85t38.5 107.5t13 108zM668 348q0 -161 -103 -266q-92 -97 -230 -97q-127 0 -206 82t-79 209q0 147 87 250q95 113 246 113 q127 0 206 -82t79 -209z"/>
<glyph glyph-name="P" horiz-adv-x="562" unicode="P" d="M454 455q0 59 -39.5 95.5t-102.5 36.5h-50l-39 -285q38 -10 71 -10q72 0 116 43.5t44 119.5zM555 453q0 -93 -76 -145.5t-182 -52.5q-35 0 -80 7l-26 -192v-5q0 -16 20 -19l72 -11l3 -35h-275l3 35l55 11q23 4 26 24l66 485v5q0 15 -20 19l-51 11l-3 35h244 q102 0 163 -47.5t61 -124.5z"/>
<glyph glyph-name="Q" horiz-adv-x="698" unicode="Q" d="M566 363q0 123 -60 183q-51 51 -133 51q-55 0 -99.5 -33.5t-70 -85t-38.5 -107.5t-13 -108q0 -123 60 -183q51 -51 133 -51q55 0 99.5 33.5t70 85t38.5 107.5t13 108zM631 -179q-46 -12 -116 -12q-113 0 -170 39.5t-108 151.5q-86 29 -136.5 102.5t-50.5 173.5 q0 147 87 250q95 113 246 113q127 0 206 -82t79 -209q0 -161 -103 -266q-82 -87 -205 -96q37 -71 96.5 -101.5t150.5 -30.5h24v-33z"/>
<glyph glyph-name="R" horiz-adv-x="606" unicode="R" d="M452 459q0 59 -38 93t-106 34h-49l-33 -261l71 -14q71 8 113 45.5t42 102.5zM573 0h-148l-136 276l-69 3l-29 -209q-3 -20 20 -24l60 -11l3 -35h-262l3 35l54 11q23 4 26 24l64 485q3 19 -20 24l-51 11l-3 35h265q100 0 154 -41.5t54 -106.5q0 -72 -47.5 -120t-129.5 -69 l104 -188q12 -24 24.5 -37.5t17 -15.5t15.5 -5l28 -7z"/>
<glyph glyph-name="S" horiz-adv-x="502" unicode="S" d="M443 171q0 -82 -68 -134t-169 -52q-98 0 -187 29l12 179h41l28 -137q51 -27 124 -27q62 0 96.5 30t34.5 80q0 24 -9 44.5t-29.5 39.5t-39.5 32t-54 35q-76 46 -108.5 84t-32.5 102q0 69 63.5 116t144.5 47q64 0 140 -16l52 12l-26 -192h-44l-13 124q-59 27 -125 27 q-42 0 -74 -23.5t-32 -61.5q0 -48 31 -80t102 -74q68 -40 105 -81t37 -103z"/>
<glyph glyph-name="T" horiz-adv-x="620" unicode="T" d="M608 429h-46l-12 97q-3 24 -11.5 35t-39 17.5t-95.5 7.5h-2l-68 -516q-3 -20 20 -24l69 -11l3 -35h-292l4 35l74 11q22 3 26 24l67 516h-1q-93 0 -120 -8t-43 -42l-41 -107h-52l42 196h544z"/>
<glyph glyph-name="U" horiz-adv-x="714" unicode="U" d="M737 625l-3 -35l-48 -8q-20 -4 -30 -16.5t-19.5 -52t-22.5 -131.5l-25 -183q-16 -107 -84 -160.5t-173 -53.5q-100 0 -162.5 48t-62.5 142q0 27 4 59l45 321v5q0 15 -20 19l-51 11l-3 35h254l-3 -35l-55 -11q-23 -4 -26 -24l-42 -305q-5 -37 -5 -56q0 -79 44 -116.5 t119 -37.5q154 0 179 170l23 172q17 122 17 154q0 26 -7 34.5t-26 11.5l-47 8l-3 35h233z"/>
<glyph glyph-name="V" horiz-adv-x="590" unicode="V" d="M649 625l-3 -35l-39 -12q-22 -7 -35 -20t-27 -45l-237 -513h-83l-104 546q-2 15 -8.5 22t-24.5 11l-52 11l-3 35h263l-3 -35l-52 -9q-20 -4 -20 -23q0 -8 1 -12l77 -452h5l190 435q5 12 5 20q0 23 -27 30l-43 11l-3 35h223z"/>
<glyph glyph-name="W" horiz-adv-x="866" unicode="W" d="M925 625l-3 -35l-39 -12q-45 -14 -64 -65l-194 -513h-92l-61 397h-5l-175 -397h-90l-81 546q-2 15 -8.5 22t-24.5 11l-52 11l-3 35h263l-3 -35l-52 -9q-20 -4 -20 -24q0 -1 0.5 -5t0.5 -6l57 -458l4 -1l169 391l-11 68q-2 15 -9 22t-25 11l-52 11l-3 35h262l-3 -35 l-52 -9q-21 -4 -21 -24q0 -7 1 -11l69 -456l5 -1l159 440q3 7 3 17q0 26 -27 33l-43 11l-3 35h223z"/>
<glyph glyph-name="X" horiz-adv-x="629" unicode="X" d="M599 0h-258l4 35l41 6q26 4 26 23q0 16 -20 53l-82 160h-4l-145 -181q-12 -14 -12 -26q0 -19 31 -26l38 -9l3 -35h-237l3 35l28 7q56 14 102 70l168 202l-111 199q-18 33 -29.5 46t-32.5 19l-39 12l-2 35h258l-4 -35l-41 -6q-26 -4 -26 -23q0 -16 20 -53l68 -136h5 l125 157q12 13 12 26q0 19 -31 26l-38 9l-3 35h237l-3 -35l-28 -7q-56 -14 -102 -70l-148 -178l124 -223q18 -33 29.5 -46t32.5 -19l39 -12z"/>
<glyph glyph-name="Y" horiz-adv-x="593" unicode="Y" d="M648 625l-3 -35l-28 -7q-31 -8 -52 -22t-44 -48l-166 -245l-26 -198q-3 -20 20 -24l69 -11l3 -35h-292l4 35l74 11q22 3 26 24l26 198l-120 245q-16 31 -29 44.5t-35 20.5l-39 12l-2 35h258l-4 -35l-41 -6q-25 -4 -25 -24q0 -16 19 -56l88 -193h5l143 218q11 18 11 28 q0 17 -30 24l-44 9l-3 35h237z"/>
<glyph glyph-name="Z" horiz-adv-x="563" unicode="Z" d="M525 188l-46 -188h-476l5 36l459 545v5h-109q-82 0 -121 -7.5t-51.5 -19t-28.5 -43.5l-31 -83h-44l25 192h478l-5 -37l-460 -545v-5l105 1q88 1 129.5 7t56.5 17t28 37l35 88h51z"/>
<glyph glyph-name="bracketleft" horiz-adv-x="368" unicode="[" d="M348 -222h-254v873h254v-44h-203v-785h203v-44z"/>
<glyph glyph-name="backslash" horiz-adv-x="279" unicode="\" d="M271 -212h-48l-215 877h48z"/>
<glyph glyph-name="bracketright" horiz-adv-x="368" unicode="]" d="M20 -222v44h203v785h-203v44h254v-873h-254z"/>
<glyph glyph-name="asciicircum" horiz-adv-x="400" unicode="^" d="M345 510h-22l-85 128h-2l-123 -128h-22l107 187h92z"/>
<glyph glyph-name="underscore" horiz-adv-x="470" unicode="_" d="M449 -53h-488l3 53h482z"/>
<glyph glyph-name="grave" horiz-adv-x="400" unicode="`" d="M275 510h-22l-144 187h100z"/>
<glyph glyph-name="a" horiz-adv-x="473" unicode="a" d="M328 335q-19 30 -50.5 56t-61.5 26q-16 0 -33 -17q-25 -25 -54.5 -115.5t-29.5 -155.5q0 -76 51 -76q25 0 57.5 43t104.5 169zM336 395h6l20 69h71l-50 -169l-53 -242l29 -10l79 60l17 -18q-19 -37 -58.5 -68.5t-69.5 -31.5q-19 0 -47 10.5t-28 21.5q0 15 54 185h-8 q-62 -118 -101.5 -167.5t-81.5 -49.5q-40 0 -67.5 33t-27.5 91q0 78 32.5 158.5t79.5 127.5q70 70 135 70q46 0 69 -70z"/>
<glyph glyph-name="b" horiz-adv-x="448" unicode="b" d="M334 300q0 42 -11.5 69t-34.5 27q-25 0 -57.5 -43t-104.5 -169l-22 -98q28 -27 61.5 -46t56.5 -19q14 0 31 17q31 31 56 112t25 150zM413 320q0 -80 -25 -150t-71 -116q-71 -71 -151 -71q-35 0 -84 25.5t-46 37.5l101 527q3 19 -6 23l-63 28l4 25l167 48l-55 -233 l-52 -217h8q62 118 101.5 167.5t81.5 49.5q38 0 64 -41.5t26 -102.5z"/>
<glyph glyph-name="c" horiz-adv-x="383" unicode="c" d="M298 393q-5 7 -33 16.5t-50 9.5q-8 0 -24 -16q-28 -28 -55 -106t-27 -145q0 -49 25 -78t62 -29q36 0 119 59l13 -18q-44 -52 -80 -76.5t-82 -24.5q-59 0 -97.5 45t-38.5 111q0 75 32 149t88.5 124t120.5 50q47 0 79 -25t32 -59q0 -23 -14.5 -40t-34.5 -17q-43 0 -43 40 q0 18 8 30z"/>
<glyph glyph-name="d" horiz-adv-x="473" unicode="d" d="M328 335q-19 30 -50.5 56t-61.5 26q-16 0 -33 -17q-25 -25 -54.5 -115.5t-29.5 -155.5q0 -76 51 -76q25 0 57.5 43t104.5 169zM455 85q-19 -37 -58.5 -68.5t-69.5 -31.5q-19 0 -47 10.5t-28 21.5q0 15 54 185h-8q-62 -118 -101.5 -167.5t-81.5 -49.5q-40 0 -67.5 33 t-27.5 91q0 78 32.5 158.5t79.5 127.5q70 70 135 70q46 0 69 -70h6l34 178q3 19 -6 23l-63 28l4 25l167 48l-98 -413l-50 -231l29 -10l79 60z"/>
<glyph glyph-name="e" horiz-adv-x="378" unicode="e" d="M110 205h2q115 60 152 93.5t37 72.5q0 17 -30 30t-50 13q-23 0 -35 -12q-19 -19 -41 -72.5t-35 -124.5zM109 176v-24q0 -49 25 -78t62 -29q36 0 119 59l13 -18q-44 -52 -80 -76.5t-82 -24.5q-59 0 -97.5 45t-38.5 111q0 119 72 221t163 102q48 0 77.5 -27t29.5 -67 q0 -44 -41.5 -74t-175.5 -97z"/>
<glyph glyph-name="f" horiz-adv-x="269" unicode="f" d="M434 615q0 -23 -14 -39t-35 -16q-25 0 -41.5 19.5t-22.5 51.5l-81 -14q-30 -70 -43 -169h114l4 -48h-127l-54 -286q-46 -249 -105 -312q-45 -48 -114 -48q-33 0 -55.5 17.5t-22.5 45.5q0 24 14 39.5t36 15.5q26 0 41.5 -20t18.5 -50l55 23q18 42 45 189l69 382l-91 4 l3 29l97 23q22 121 80 179q56 56 133 56q43 0 69.5 -21.5t26.5 -50.5z"/>
<glyph glyph-name="g" horiz-adv-x="434" unicode="g" d="M310 -129q0 24 -29 42t-85 38q-77 26 -95 35q-93 -46 -93 -98q0 -39 48 -67t118 -28q54 0 95 21.5t41 56.5zM310 343q0 29 -26 54t-56 25q-28 0 -45 -17q-24 -24 -38.5 -61.5t-14.5 -74.5v-7q3 -58 25 -80q16 -16 35 -16q37 0 72 35q23 24 35.5 63.5t12.5 78.5zM450 371 l-109 24v-10q38 -47 38 -94q0 -64 -53.5 -109.5t-112.5 -45.5q-32 0 -65 12q-22 -4 -36.5 -20t-14.5 -30q0 -18 16.5 -29t65.5 -29l41 -15q37 -13 58.5 -22.5t47 -25.5t37.5 -37t12 -47q0 -54 -68.5 -97t-186.5 -43q-77 0 -129.5 32t-52.5 89q0 41 42 72.5t95 50.5v5 q-50 27 -50 67q0 30 26 53.5t70 36.5v5q-30 20 -47.5 54t-17.5 71q0 78 59 126.5t138 48.5q47 0 118 -19h99z"/>
<glyph glyph-name="h" horiz-adv-x="494" unicode="h" d="M449 85q-19 -37 -58.5 -68.5t-69.5 -31.5q-18 0 -45.5 10.5t-27.5 21.5q0 22 51 186q39 126 39 146q0 16 -14 29.5t-32 13.5q-43 0 -166 -257l-27 -140l-82 5l36 147l84 426q3 19 -6 23l-63 28l4 25l167 48l-56 -234l-65 -280h9q94 201 138 245q36 36 78 36 q26 0 48 -20.5t22 -48.5q0 -48 -41 -184q-33 -114 -47 -159l28 -9l79 60z"/>
<glyph glyph-name="i" horiz-adv-x="253" unicode="i" d="M236 85q-19 -37 -58.5 -68.5t-69.5 -31.5q-18 0 -46 11.5t-26 20.5l99 380l-29 5l-76 -80l-17 18q20 44 57.5 84t66.5 40q11 0 30 -4.5t34 -12.5t13 -15l-103 -379l29 -10l79 60zM270 617q0 -29 -16 -49.5t-38 -20.5q-25 0 -39 15.5t-14 38.5q0 29 16.5 49.5t37.5 20.5 q25 0 39 -15.5t14 -38.5z"/>
<glyph glyph-name="j" horiz-adv-x="252" unicode="j" d="M214 432l-75 -330q-30 -130 -57 -208t-66 -117t-85 -39q-27 0 -48 16.5t-21 42.5q0 22 16 36t37 14q42 0 65 -55l14 3q24 52 68 259l73 343l-29 5l-76 -80l-17 18q20 44 57.5 84t66.5 40q11 0 30 -4.5t34 -12.5t13 -15zM270 617q0 -29 -16 -49.5t-38 -20.5 q-25 0 -39 15.5t-14 38.5q0 29 16.5 49.5t37.5 20.5q25 0 39 -15.5t14 -38.5z"/>
<glyph glyph-name="k" horiz-adv-x="438" unicode="k" d="M413 101q-19 -42 -57 -78.5t-68 -36.5q-9 0 -27 10t-20 15l-70 224l-36 -16l-36 -224l-82 5l36 147l84 426q3 19 -6 23l-63 28l4 25l167 48l-56 -234l-49 -213h7l201 106v9q-44 6 -44 47q0 22 18 39t41 17q25 0 42.5 -18t17.5 -40q0 -13 -1.5 -23.5t-6.5 -20t-9 -16.5 t-15 -15t-18 -12.5t-24.5 -13t-27.5 -13t-34 -15.5t-38 -17l-11 -5l73 -205h22l69 65z"/>
<glyph glyph-name="l" horiz-adv-x="250" unicode="l" d="M225 85q-19 -37 -58.5 -68.5t-69.5 -31.5q-10 0 -28 5.5t-32 13t-13 13.5l110 556q3 19 -6 23l-63 28l4 25l165 48l-134 -644l29 -10l79 60z"/>
<glyph glyph-name="m" horiz-adv-x="737" unicode="m" d="M711 85q-19 -37 -58.5 -68.5t-69.5 -31.5q-18 0 -45.5 10.5t-27.5 21.5q0 22 51 186q39 126 39 146q0 16 -14 29.5t-32 13.5q-43 0 -166 -257l-33 -140l-82 5l58 203q3 12 15.5 52t18 61t5.5 33q0 16 -14 29.5t-32 13.5q-43 0 -166 -257l-27 -140l-82 5l35 147l51 250 l-29 5l-76 -80l-17 18q20 44 57.5 84t66.5 40q19 0 47 -10.5t28 -21.5q0 -20 -62 -249h9q94 201 138 245q36 36 78 36q25 0 41 -20.5t16 -52.5q0 -28 -52 -208h9q94 201 138 245q36 36 78 36q26 0 48 -20.5t22 -48.5q0 -48 -41 -184q-33 -114 -48 -158l29 -10l79 60z"/>
<glyph glyph-name="n" horiz-adv-x="507" unicode="n" d="M481 85q-19 -37 -58.5 -68.5t-69.5 -31.5q-18 0 -45.5 10.5t-27.5 21.5q0 22 51 186q39 126 39 146q0 16 -14 29.5t-32 13.5q-43 0 -166 -257l-27 -140l-82 5l35 147l51 245l-28 5l-78 -75l-16 18q20 44 57 84t66 40q19 0 47.5 -10.5t28.5 -21.5q0 -20 -62 -249h9 q94 201 138 245q36 36 78 36q26 0 48 -20.5t22 -48.5q0 -48 -41 -184q-6 -21 -17 -57t-18.5 -61.5t-12.5 -39.5l29 -10l79 60z"/>
<glyph glyph-name="o" horiz-adv-x="440" unicode="o" d="M328 305q0 52 -19 89t-55 37q-31 0 -61 -34.5t-46 -71t-25 -69.5q-13 -52 -13 -103q0 -53 19.5 -94t55.5 -41q33 0 63 36t45.5 73.5t23.5 72.5q12 57 12 105zM406 268q0 -104 -66.5 -193.5t-155.5 -89.5q-75 0 -113.5 53.5t-38.5 142.5q0 104 66.5 193.5t155.5 89.5 q75 0 113.5 -53.5t38.5 -142.5z"/>
<glyph glyph-name="p" horiz-adv-x="476" unicode="p" d="M136 96q66 -75 104 -75q14 0 31 17q32 32 62.5 114t30.5 148q0 42 -11.5 69t-34.5 27q-25 0 -57.5 -43t-104.5 -169zM123 23h-1l-39 -199v-5q0 -15 19 -19l67 -11l4 -35h-251l2 35l56 11q22 4 27 24l129 571l-30 7l-76 -80l-17 18q20 44 57.5 84t66.5 40q19 0 49 -10.5 t30 -21.5q0 -15 -54 -185h8q62 118 101.5 167.5t81.5 49.5q38 0 64 -41.5t26 -102.5q0 -78 -30 -150.5t-77 -119.5q-66 -66 -135 -66q-46 0 -78 39z"/>
<glyph glyph-name="q" horiz-adv-x="443" unicode="q" d="M328 335q-19 30 -50.5 56t-61.5 26q-16 0 -33 -17q-25 -25 -54.5 -115.5t-29.5 -155.5q0 -76 51 -76q25 0 57.5 43t104.5 169zM298 202q-62 -118 -101.5 -167.5t-81.5 -49.5q-40 0 -67.5 33t-27.5 91q0 78 32.5 158.5t79.5 127.5q70 70 135 70q46 0 69 -70h6l20 69h71 l-50 -169l-100 -471q0 -1 -0.5 -3t-0.5 -3q0 -13 20 -18l57 -11l3 -35h-245l3 35l56 11q22 4 27 24l57 229l46 149h-8z"/>
<glyph glyph-name="r" horiz-adv-x="393" unicode="r" d="M322 399q-1 1 -2.5 2t-5 3t-4.5 0q-47 -40 -152 -274l-27 -135l-82 5l35 147l51 250l-29 5l-76 -80l-17 18q20 44 57.5 84t66.5 40q19 0 47 -10.5t28 -21.5q0 -17 -25 -112t-39 -137h15q72 198 130 256q25 25 63 25q26 0 43 -17t17 -43q0 -27 -14.5 -45t-35.5 -18t-33 12 t-12 34q0 8 1 12z"/>
<glyph glyph-name="s" horiz-adv-x="347" unicode="s" d="M340 389q0 -22 -13.5 -36t-35.5 -14q-17 0 -27 12t-10 29q0 10 6 22q-45 21 -82 23q-14 -5 -31 -26t-18 -38v-5q0 -7 2 -15t7 -16.5t9 -14.5t13 -16t13 -14t15 -15.5t14 -14.5q59 -61 75 -95q10 -22 10 -41v-6q-5 -56 -55.5 -89.5t-101.5 -33.5q-136 0 -136 77 q0 21 14 35t36 14q17 0 27 -12t10 -29q0 -10 -7 -22q56 -23 92 -25q15 7 33 29t20 38q1 17 -12.5 39t-23.5 32.5t-38 37.5q-85 82 -85 136v7q6 57 55 89.5t101 32.5q124 0 124 -75z"/>
<glyph glyph-name="t" horiz-adv-x="303" unicode="t" d="M129 464l23 122h75l-28 -138h126l3 -48h-138l-74 -347l29 -10l79 60l17 -18q-19 -37 -58.5 -68.5t-69.5 -31.5q-19 0 -47 8.5t-26 17.5l78 384l-81 5l3 30q6 2 15 5.5t28.5 11.5t32.5 13z"/>
<glyph glyph-name="u" horiz-adv-x="507" unicode="u" d="M28 340q20 44 57.5 84t66.5 40q18 0 46.5 -10.5t28.5 -21.5q0 -22 -51 -186q-39 -126 -39 -146q0 -16 14 -29.5t32 -13.5q43 0 166 257l27 140l82 -5l-35 -147q-41 -217 -52 -249l29 -10l79 60l17 -18q-19 -37 -58.5 -68.5t-69.5 -31.5q-18 0 -45.5 10.5t-27.5 21.5 q0 20 62 249h-9q-94 -201 -138 -245q-36 -36 -78 -36q-26 0 -48 20.5t-22 48.5q0 48 41 184q8 26 24.5 83t22.5 76l-29 5l-76 -80z"/>
<glyph glyph-name="v" horiz-adv-x="432" unicode="v" d="M316 174l-116 -170l-85 -19l3 412l-29 5l-76 -80l-17 18q20 44 57.5 84t66.5 40q19 0 48 -10.5t29 -21.5l-9 -379h8l120 192q38 58 38 96q0 20 -16.5 34.5t-44.5 20.5q5 34 24 51.5t45 17.5q29 0 49 -19t19 -56q0 -37 -27 -85.5t-87 -130.5z"/>
<glyph glyph-name="w" horiz-adv-x="668" unicode="w" d="M354 294h-3l-148 -290l-85 -19v412l-29 5l-76 -80l-17 18q20 44 57.5 84t66.5 40q19 0 48 -10.5t29 -21.5l-3 -379h5l153 316l-1 95l33 -8l40 -8l11 -395h5l107 192q38 66 38 96q0 20 -16.5 34.5t-44.5 20.5q5 34 24 51.5t45 17.5q29 0 49 -19t19 -56q0 -9 -1.5 -18 t-5.5 -20t-7.5 -19.5t-11.5 -22.5t-12.5 -22.5t-16.5 -26t-17.5 -26t-20.5 -30t-21 -31.5l-108 -170l-85 -19v309z"/>
<glyph glyph-name="x" horiz-adv-x="473" unicode="x" d="M435 341q-45 0 -45 48q0 1 0.5 4.5t0.5 5.5l-29 4l-93 -164l76 -190h22l53 70l15 -18q-59 -115 -104 -115q-9 0 -32.5 10t-24.5 15l-53 172h-5q-46 -95 -70.5 -135t-38.5 -51t-37 -11q-33 0 -56.5 17t-23.5 42v1q1 28 15 45.5t35 17.5q22 0 34 -12.5t12 -35.5 q0 -2 -0.5 -5.5t-0.5 -4.5l28 -5l95 170l-74 186h-23l-52 -70l-15 18q56 115 103 115q9 0 32.5 -10t25.5 -15l52 -172h2q54 122 83.5 159t62.5 37t57 -17t24 -42q0 -28 -15 -46t-36 -18z"/>
<glyph glyph-name="y" horiz-adv-x="429" unicode="y" d="M434 397q0 -25 -21 -67t-37 -66.5t-49 -72.5l-101 -144l-59 -112q-51 -96 -98 -143.5t-99 -47.5q-31 0 -54.5 19t-23.5 48q0 23 17 39t36 16q25 0 44.5 -19.5t18.5 -46.5l17 2l135 191l-49 13l7 391l-29 5l-76 -80l-17 18q20 44 57.5 84t66.5 40q19 0 48 -10.5t29 -21.5 l-12 -379h11l169 282v10q-52 20 -52 59q0 26 15.5 44t39.5 18q31 0 48.5 -18.5t17.5 -50.5z"/>
<glyph glyph-name="z" horiz-adv-x="406" unicode="z" d="M309 332q-27 7 -94.5 48t-72.5 43l-20 -16q20 -27 20 -44q0 -19 -12 -30.5t-31 -11.5q-23 0 -35 12.5t-12 30.5q0 37 35 67t94 32q23 0 42 -6t31 -13t23.5 -21t16 -21.5t12.5 -24t9 -18.5h10l25 105q27 0 46 -16t19 -36q0 -26 -17.5 -44.5t-55.5 -43.5l-235 -201 q25 -7 95.5 -53t80.5 -50l21 17q-25 27 -25 48q0 17 13 28.5t34 11.5q20 0 31.5 -12t11.5 -31q0 -36 -32 -66.5t-88 -35.5q-61 0 -94.5 31.5t-53.5 84.5h-10l-27 -111q-27 0 -46 16t-19 36q0 27 16 46t52 42z"/>
<glyph glyph-name="braceleft" horiz-adv-x="336" unicode="{" d="M302 -235q-92 5 -143.5 44.5t-51.5 106.5q0 44 29.5 102.5t29.5 90.5q0 71 -131 77l-11 29l11 28q131 4 131 77q0 32 -29.5 90.5t-29.5 103.5q0 67 51 106.5t144 44.5v-35q-57 -5 -90 -31t-33 -62q0 -32 29.5 -91t29.5 -104q0 -48 -42 -84.5t-86 -37.5v-12q44 -2 86 -38 t42 -84q0 -44 -29.5 -102t-29.5 -90q0 -36 33 -63.5t90 -32.5v-33z"/>
<glyph glyph-name="bar" horiz-adv-x="276" unicode="|" d="M115 -187v877h46v-877h-46z"/>
<glyph glyph-name="braceright" horiz-adv-x="336" unicode="}" d="M302 215l-11 -29q-131 -6 -131 -77q0 -32 29.5 -90.5t29.5 -102.5q0 -67 -51.5 -106.5t-143.5 -44.5v33q57 5 90 32.5t33 63.5q0 32 -29.5 90t-29.5 102q0 48 42 84t86 38v12q-44 1 -86 37.5t-42 84.5q0 45 29.5 104t29.5 91q0 36 -33 62t-90 31v35q93 -5 144 -44.5 t51 -106.5q0 -45 -29.5 -103.5t-29.5 -90.5q0 -73 131 -77z"/>
<glyph glyph-name="asciitilde" horiz-adv-x="368" unicode="~" d="M269 223q14 0 27 14t32 51h26q-18 -59 -45 -86t-68 -27q-36 0 -82 36.5t-62 36.5q-14 0 -27 -14t-32 -51h-26q18 59 45 86t68 27q28 0 55.5 -18t50 -36.5t38.5 -18.5z"/>
<glyph glyph-name="nbspace" horiz-adv-x="228" unicode=" "/>
<glyph glyph-name="exclamdown" horiz-adv-x="284" unicode="¡" d="M67 31l94 398q1 6 10.5 5.5t9.5 -6.5l-10 -403q-2 -41 -46 -41h-3q-57 0 -57 34q0 3 2 13zM127 579q0 25 16.5 42.5t42.5 17.5t43.5 -18t17.5 -42t-17.5 -41t-43.5 -17t-42.5 17t-16.5 41z"/>
<glyph glyph-name="cent" horiz-adv-x="378" unicode="¢" d="M155 50l95 354q-17 10 -44 10q-8 0 -19 -11q-26 -26 -52 -106.5t-26 -144.5q0 -82 46 -102zM169 -14l-39 -152h-37l40 154q-45 8 -74 51t-29 102q0 117 65.5 218t162.5 105h1l47 172h37l-48 -176q38 -9 60.5 -33t22.5 -52q0 -23 -16 -40t-36 -17q-18 0 -34 10.5t-21 23.5 l-83 -307h3q31 0 121 59l16 -18q-81 -96 -159 -100z"/>
<glyph glyph-name="sterling" horiz-adv-x="477" unicode="£" d="M142 299q6 84 9 110q13 102 73 161t147 59q51 0 82 -21t31 -54q0 -24 -15 -40.5t-38 -16.5t-38 15t-15 40q0 8 4 24q-19 15 -48 15h-2q-76 0 -94 -149q0 -2 -12 -143h153l3 -41h-160q-4 -38 -8 -59q-13 -69 -43 -107v-5q12 -3 42.5 -14.5t56.5 -18.5t46 -7q36 0 56 20 q14 14 46 68l21 -7q-6 -64 -40.5 -108t-95.5 -44q-11 0 -21.5 1.5t-19 3.5t-18 6.5t-16 8t-15.5 10t-14 10t-13.5 11.5t-12 11.5t-12 11.5t-11.5 11q-68 -71 -170 -86l-6 39q78 19 113 58.5t44 108.5q5 41 8 77h-108l3 41h108z"/>
<glyph glyph-name="currency" horiz-adv-x="435" unicode="¤" d="M318 359q0 43 -27.5 73t-72.5 30q-46 0 -73.5 -30t-27.5 -73q0 -42 27.5 -72.5t73.5 -30.5q45 0 72.5 30.5t27.5 72.5zM397 501l-56 -56q24 -41 24 -86q0 -46 -25 -86l62 -62l-36 -36l-61 61q-40 -26 -87 -26t-87 25l-56 -56l-35 35l56 56q-26 39 -26 89q0 49 25 87 l-58 58l36 36l58 -58q40 26 87 26q48 0 89 -27l55 55z"/>
<glyph glyph-name="yen" horiz-adv-x="612" unicode="¥" d="M644 625l-3 -35l-14 -4q-31 -9 -53.5 -24t-47.5 -50l-145 -207h151l4 -41h-177l-11 -81h184l4 -41h-193l-10 -72q-3 -20 20 -24l73 -11l3 -35h-289l3 35l75 11q22 3 26 24l10 72h-164l2 41h167l11 81h-180l2 41h165l-121 241q-14 27 -48 36l-32 8l-3 35h251l-3 -35 l-42 -6q-24 -3 -24 -25q0 -21 29 -81l76 -157h2l129 189q24 34 24 52q0 17 -25 23l-22 5l-3 35h199z"/>
<glyph glyph-name="brokenbar" horiz-adv-x="276" unicode="¦" d="M115 -139v335h46v-335h-46zM115 307v335h46v-335h-46z"/>
<glyph glyph-name="section" horiz-adv-x="421" unicode="§" d="M340 226q0 49 -77 107q-4 3 -22.5 17t-25.5 19.5t-21 17.5t-23.5 22t-17.5 21q-21 -11 -36.5 -32t-15.5 -42q0 -29 20.5 -53.5t59.5 -54.5q6 -5 22.5 -17t25 -19t21.5 -17.5t22.5 -21t17.5 -21.5q50 26 50 74zM403 263q0 -42 -29.5 -78.5t-70.5 -53.5q16 -28 16 -59 q0 -47 -46 -91t-120 -44q-39 0 -76 20t-37 55q0 23 15.5 38t37.5 15q52 0 60 -81q17 -9 38 -9q28 0 45.5 21t17.5 49q0 24 -18 48.5t-33 36.5t-52 40q-28 20 -42.5 32t-34 32t-28 40.5t-8.5 44.5q0 43 30 79t70 52q-15 30 -15 59q0 49 44.5 88.5t112.5 39.5q38 0 75 -20 t37 -54q0 -22 -15.5 -38t-35.5 -16q-55 0 -61 82q-14 7 -27 7q-32 0 -49 -18.5t-17 -42.5t18.5 -49.5t32 -36t53.5 -40.5q29 -22 41.5 -32.5t33 -31t29 -41t8.5 -43.5z"/>
<glyph glyph-name="dieresis" horiz-adv-x="400" unicode="¨" d="M207 607q0 -26 -16 -44.5t-43 -18.5t-43 18.5t-16 44.5t16 44.5t43 18.5t43 -18.5t16 -44.5zM407 607q0 -26 -16 -44.5t-43 -18.5t-43 18.5t-16 44.5t16 44.5t43 18.5t43 -18.5t16 -44.5z"/>
<glyph glyph-name="copyright" horiz-adv-x="734" unicode="©" d="M508 258l-12 -121l-30 6q-40 -15 -86 -15q-89 0 -138.5 50t-49.5 129q0 83 51.5 136t132.5 53q42 0 80 -12l46 12v-131h-27l-23 73q-28 22 -81 22q-50 0 -83 -37t-33 -97q0 -74 35.5 -118.5t99.5 -44.5q36 0 56 16l34 79h28zM656 312q0 120 -84.5 207t-204.5 87 t-204.5 -87t-84.5 -207t84.5 -206.5t204.5 -86.5t204.5 86.5t84.5 206.5zM694 312q0 -136 -95.5 -231.5t-231.5 -95.5t-231.5 95.5t-95.5 231.5t95.5 232t231.5 96t231.5 -96t95.5 -232z"/>
<glyph glyph-name="ordfeminine" horiz-adv-x="345" unicode="ª" d="M274 537q-13 22 -36 41t-45 19q-12 0 -24 -12q-19 -19 -37 -75.5t-18 -108.5q0 -27 11.5 -42.5t28.5 -15.5q20 0 108 150zM284 588h5l12 51h47l-29 -124l-38 -176l19 -5l67 59l9 -13q-20 -32 -52.5 -61.5t-53.5 -29.5q-11 0 -25.5 14.5t-14.5 23.5q0 8 5.5 25.5t18.5 55 t24 73.5h-5q-50 -100 -84.5 -146t-61.5 -46q-33 0 -51.5 27.5t-18.5 74.5q0 49 22.5 108t55.5 92q48 48 99 48q33 0 50 -51z"/>
<glyph glyph-name="guillemotleft" horiz-adv-x="490" unicode="«" d="M239 80l-13 -20l-198 142v42l242 146l7 -20l-167 -150zM427 70l-12 -20l-197 152v42l243 156l7 -20l-178 -160z"/>
<glyph glyph-name="logicalnot" d="M445 309v-212h-53v159h-357l3 53h407z" unicode="¬"/>
<glyph glyph-name="uni00AD" horiz-adv-x="328" unicode="­" d="M297 208h-264l3 53h258z"/>
<glyph glyph-name="registered" horiz-adv-x="734" unicode="®" d="M437 391q0 65 -81 65h-12l-23 -1v-133l38 -5q78 5 78 74zM547 139h-99l-21 39l-67 107l-39 2v-98q0 -10 14 -13l33 -6l1 -31h-151l2 31l29 6q13 3 13 13v250q0 11 -13 14l-29 6l-2 31h152q65 0 98 -26.5t33 -63.5q0 -76 -84 -101l65 -98q18 -24 32 -27l31 -4zM656 312 q0 120 -84.5 207t-204.5 87t-204.5 -87t-84.5 -207t84.5 -206.5t204.5 -86.5t204.5 86.5t84.5 206.5zM694 312q0 -136 -95.5 -231.5t-231.5 -95.5t-231.5 95.5t-95.5 231.5t95.5 232t231.5 96t231.5 -96t95.5 -232z"/>
<glyph glyph-name="macron" horiz-adv-x="400" unicode="¯" d="M358 541h-252l9 41h246z"/>
<glyph glyph-name="degree" horiz-adv-x="410" unicode="°" d="M358 494q0 48 -32 78.5t-81 31.5h-2q-53 0 -89.5 -41.5t-37.5 -96.5v-2q0 -48 32 -77.5t79 -30.5h2q55 0 92 40.5t37 97.5zM408 502q0 -78 -53.5 -132.5t-130.5 -54.5q-66 0 -111 41t-45 108q0 76 53.5 130.5t128.5 54.5q67 0 112.5 -40t45.5 -107z"/>
<glyph glyph-name="plusminus" d="M449 238h-182v-165h-53v165h-183l3 53h180v163h53v-163h179zM448 6h-416l3 53h410z" unicode="±"/>
<glyph glyph-name="twosuperior" horiz-adv-x="330" unicode="²" d="M1 273l1 37l66 49.5t64.5 50t45.5 41t37 47t10 43.5q0 31 -21 48.5t-51 17.5q-50 0 -107 -42l-6 15q72 79 154 79q47 0 79.5 -27t32.5 -69q0 -16 -6.5 -32t-14.5 -29.5t-25.5 -30.5t-30 -28t-38 -29.5t-39 -27.5t-44 -29t-42.5 -28v-3h44q85 0 109.5 4t37.5 20l18 25h28 l-36 -102h-266z"/>
<glyph glyph-name="threesuperior" horiz-adv-x="330" unicode="³" d="M105 258q-36 0 -68.5 13.5t-32.5 40.5q0 14 11 25t27 11q25 0 39 -19t13 -41q15 -3 23 -3q41 0 66 28.5t25 66.5q0 28 -18 45t-48 17q-20 0 -52 -9l-8 19q7 3 28.5 13.5t29 14.5t24.5 13t24 15t16 14.5t12.5 17.5t3.5 19q0 23 -18.5 36t-42.5 13q-50 0 -105 -39l-6 17 q30 32 72 52.5t86 20.5q40 0 71 -20t31 -53q0 -20 -11 -37.5t-23.5 -28t-36.5 -22t-35 -15.5t-35 -12v-2q18 5 38 5q39 0 62.5 -21.5t23.5 -60.5q0 -57 -58.5 -95.5t-127.5 -38.5z"/>
<glyph glyph-name="acute" horiz-adv-x="400" unicode="´" d="M395 697l-194 -187h-22l116 187h100z"/>
<glyph glyph-name="mu" horiz-adv-x="529" unicode="µ" d="M77 128l3 263q0 5 -1 8t-2.5 4.5t-5.5 2.5t-7.5 1t-12 1t-15.5 2l-24 3l-3 35h158l-8 -290q0 -57 22.5 -80.5t69.5 -23.5q54 0 111 42v296q0 8 -7.5 12t-30.5 6l-39 3l-4 35h163v-377q0 -19 11 -23l67 -20l-3 -25l-157 -18v71h-5q-2 -2 -9.5 -11t-10.5 -12t-10 -10.5 t-11 -10.5t-11 -8.5t-13 -8t-13.5 -5.5t-15.5 -4t-17 -1q-57 0 -85 55q-2 2 -2 3h-5l10 -280l-100 -9z"/>
<glyph glyph-name="mu" horiz-adv-x="529" unicode="μ" d="M77 128l3 263q0 5 -1 8t-2.5 4.5t-5.5 2.5t-7.5 1t-12 1t-15.5 2l-24 3l-3 35h158l-8 -290q0 -57 22.5 -80.5t69.5 -23.5q54 0 111 42v296q0 8 -7.5 12t-30.5 6l-39 3l-4 35h163v-377q0 -19 11 -23l67 -20l-3 -25l-157 -18v71h-5q-2 -2 -9.5 -11t-10.5 -12t-10 -10.5 t-11 -10.5t-11 -8.5t-13 -8t-13.5 -5.5t-15.5 -4t-17 -1q-57 0 -85 55q-2 2 -2 3h-5l10 -280l-100 -9z"/>
<glyph glyph-name="paragraph" horiz-adv-x="501" unicode="¶" d="M382 -32h-51l38 292q-43 -8 -74 -8q-101 0 -163 49.5t-62 125.5q0 102 67 150t175 48h156z"/>
<glyph glyph-name="periodcentered" horiz-adv-x="232" unicode="·" d="M161 228q0 -27 -19 -47t-47 -20q-29 0 -48.5 20t-19.5 47t19.5 46t48.5 19t47.5 -19t18.5 -46z"/>
<glyph glyph-name="cedilla" horiz-adv-x="400" unicode="¸" d="M31 -270l-5 24q168 21 168 93q0 46 -78 46q-30 0 -63 -6l3 20l124 114h44l-86 -78q56 0 88.5 -21.5t32.5 -59.5q0 -53 -62 -89t-166 -43z"/>
<glyph glyph-name="onesuperior" horiz-adv-x="330" unicode="¹" d="M32 273l1 28l70 7q16 1 18 14l40 277l-83 11l5 20l162 29l-49 -337q-2 -12 13 -14l55 -7l2 -28h-234z"/>
<glyph glyph-name="ordmasculine" horiz-adv-x="321" unicode="º" d="M278 523q0 37 -13.5 62.5t-40.5 25.5q-32 0 -58.5 -43t-37.5 -85q-9 -35 -9 -71q0 -39 13.5 -67t40.5 -28q35 0 60.5 44t36.5 89q8 32 8 73zM335 496q0 -77 -46.5 -142t-115.5 -65q-55 0 -83 38.5t-28 103.5q0 78 47 143t115 65q55 0 83 -38.5t28 -104.5z"/>
<glyph glyph-name="guillemotright" horiz-adv-x="490" unicode="»" d="M251 202l-243 -156l-7 20l178 160l-137 150l12 20l197 -152v-42zM441 202l-242 -146l-7 20l167 150l-129 140l13 20l198 -142v-42z"/>
<glyph glyph-name="onequarter" horiz-adv-x="715" unicode="¼" d="M52 273l1 28l70 7q16 1 18 14l40 277l-83 11l5 20l162 29l-49 -337q-2 -12 13 -14l55 -7l2 -28h-234zM20 -116l631 741h55l-631 -741h-55zM409 -1h134l26 164h-6zM523 -143l16 108h-169l-1 28l235 251l45 -8l-35 -237h69l-9 -34h-64l-17 -108h-70z"/>
<glyph glyph-name="onehalf" horiz-adv-x="715" unicode="½" d="M366 -143l1 37l66 49.5t64.5 50t45.5 41t37 47t10 43.5q0 31 -21 48.5t-51 17.5q-50 0 -107 -42l-6 15q72 79 154 79q47 0 79.5 -27t32.5 -69q0 -16 -6.5 -32t-14.5 -29.5t-25.5 -30.5t-30 -28t-38 -29.5t-39 -27.5t-44 -29t-42.5 -28v-3h44q85 0 109.5 4t37.5 20l18 25 h28l-36 -102h-266zM52 273l1 28l70 7q16 1 18 14l40 277l-83 11l5 20l162 29l-49 -337q-2 -12 13 -14l55 -7l2 -28h-234zM20 -116l631 741h55l-631 -741h-55z"/>
<glyph glyph-name="threequarters" horiz-adv-x="715" unicode="¾" d="M125 258q-36 0 -68.5 13.5t-32.5 40.5q0 14 11 25t27 11q25 0 39 -19t13 -41q15 -3 23 -3q41 0 66 28.5t25 66.5q0 28 -18 45t-48 17q-20 0 -52 -9l-8 19q7 3 28.5 13.5t29 14.5t24.5 13t24 15t16 14.5t12.5 17.5t3.5 19q0 23 -18.5 36t-42.5 13q-50 0 -105 -39l-6 17 q30 32 72 52.5t86 20.5q40 0 71 -20t31 -53q0 -20 -11 -37.5t-23.5 -28t-36.5 -22t-35 -15.5t-35 -12v-2q18 5 38 5q39 0 62.5 -21.5t23.5 -60.5q0 -57 -58.5 -95.5t-127.5 -38.5zM20 -116l631 741h55l-631 -741h-55zM409 -1h134l26 164h-6zM523 -143l16 108h-169l-1 28 l235 251l45 -8l-35 -237h69l-9 -34h-64l-17 -108h-70z"/>
<glyph glyph-name="questiondown" horiz-adv-x="373" unicode="¿" d="M24 156q0 34 10 58.5t30 40t38 23.5t45 17l30 10t25 10.5t23 14.5t13 18.5t6 25.5q0 33 -33 74l30 -2q54 -57 54 -105q0 -27 -10.5 -48t-31.5 -34.5t-39 -21t-47 -16.5q-70 -22 -86 -38q-12 -11 -12 -27q0 -33 47.5 -58.5t113.5 -25.5q23 0 51 4q7 -10 7 -25 q0 -26 -20.5 -42.5t-58.5 -16.5q-76 0 -130.5 50.5t-54.5 113.5zM199 585q0 25 16.5 42.5t42.5 17.5t43.5 -18t17.5 -42t-17.5 -41t-43.5 -17t-42.5 17t-16.5 41z"/>
<glyph glyph-name="Agrave" horiz-adv-x="591" unicode="À" d="M370 677h-22l-144 187h100zM355 267l-41 274h-5l-114 -274h160zM573 0h-263l3 35l52 9q20 4 20 24q0 2 -0.5 5.5t-0.5 5.5l-22 146h-184l-33 -85q-16 -41 -16 -63q0 -25 23 -31l45 -11l3 -35h-223l3 35l37 12q23 7 35 20t27 45l207 469v33l101 25l98 -560 q3 -15 9.5 -22.5t23.5 -10.5l52 -11z"/>
<glyph glyph-name="Aacute" horiz-adv-x="591" unicode="Á" d="M510 864l-194 -187h-22l116 187h100zM355 267l-41 274h-5l-114 -274h160zM573 0h-263l3 35l52 9q20 4 20 24q0 2 -0.5 5.5t-0.5 5.5l-22 146h-184l-33 -85q-16 -41 -16 -63q0 -25 23 -31l45 -11l3 -35h-223l3 35l37 12q23 7 35 20t27 45l207 469v33l101 25l98 -560 q3 -15 9.5 -22.5t23.5 -10.5l52 -11z"/>
<glyph glyph-name="Acircumflex" horiz-adv-x="591" unicode="Â" d="M469 677h-22l-86 128h-2l-122 -128h-22l106 187h92zM355 267l-41 274h-5l-114 -274h160zM573 0h-263l3 35l52 9q20 4 20 24q0 2 -0.5 5.5t-0.5 5.5l-22 146h-184l-33 -85q-16 -41 -16 -63q0 -25 23 -31l45 -11l3 -35h-223l3 35l37 12q23 7 35 20t27 45l207 469v33l101 25 l98 -560q3 -15 9.5 -22.5t23.5 -10.5l52 -11z"/>
<glyph glyph-name="Atilde" horiz-adv-x="591" unicode="Ã" d="M534 810q-37 -123 -115 -123q-36 0 -81.5 36.5t-61.5 36.5q-14 0 -27 -14t-32 -51h-26q36 123 114 123q28 0 55.5 -18t49.5 -36.5t38 -18.5q14 0 27 14t33 51h26zM355 267l-41 274h-5l-114 -274h160zM573 0h-263l3 35l52 9q20 4 20 24q0 2 -0.5 5.5t-0.5 5.5l-22 146 h-184l-33 -85q-16 -41 -16 -63q0 -25 23 -31l45 -11l3 -35h-223l3 35l37 12q23 7 35 20t27 45l207 469v33l101 25l98 -560q3 -15 9.5 -22.5t23.5 -10.5l52 -11z"/>
<glyph glyph-name="Adieresis" horiz-adv-x="591" unicode="Ä" d="M302 774q0 -26 -16 -44.5t-43 -18.5t-43 18.5t-16 44.5t16 44.5t43 18.5t43 -18.5t16 -44.5zM502 774q0 -26 -16 -44.5t-43 -18.5t-43 18.5t-16 44.5t16 44.5t43 18.5t43 -18.5t16 -44.5zM355 267l-41 274h-5l-114 -274h160zM573 0h-263l3 35l52 9q20 4 20 24 q0 2 -0.5 5.5t-0.5 5.5l-22 146h-184l-33 -85q-16 -41 -16 -63q0 -25 23 -31l45 -11l3 -35h-223l3 35l37 12q23 7 35 20t27 45l207 469v33l101 25l98 -560q3 -15 9.5 -22.5t23.5 -10.5l52 -11z"/>
<glyph glyph-name="Aring" horiz-adv-x="591" unicode="Å" d="M409 688q0 26 -16 44.5t-43 18.5t-43 -18.5t-16 -44.5t16 -44.5t43 -18.5t43 18.5t16 44.5zM355 267l-41 274h-5l-114 -274h160zM299 612q-38 25 -38 73q0 40 24 66.5t65 26.5q40 0 64.5 -26t24.5 -64q0 -56 -46 -80l92 -529q2 -15 8.5 -22t24.5 -11l52 -11l3 -35h-263 l3 35l52 9q20 4 20 24q0 2 -0.5 5.5t-0.5 5.5l-22 146h-184l-33 -85q-16 -41 -16 -63q0 -25 23 -31l45 -11l3 -35h-223l3 35l37 12q23 7 35 20t27 45z"/>
<glyph glyph-name="AE" horiz-adv-x="797" unicode="Æ" d="M371 267l44 322h-7l-196 -322h159zM761 181l-43 -181h-459l3 35l56 11q23 4 26 24l21 155h-179l-43 -71q-39 -64 -39 -86q0 -17 24 -22l45 -11l3 -35h-223l3 35l37 12q38 11 72 65l273 443q3 5 3 8q0 12 -19 16l-53 11l-3 35h535l-25 -186h-49l-11 97q-1 13 -3 20 t-10.5 13.5t-19 9t-35.5 4.5t-53.5 2.5t-79.5 0.5h-13l-35 -249h5q60 0 77 3.5t25 18.5l32 67h39l-51 -215h-38l5 64q1 10 -5 14.5t-27 7t-64 2.5h-3l-34 -260h7q105 0 147 3.5t59 13t27 33.5l39 92h54z"/>
<glyph glyph-name="Ccedilla" horiz-adv-x="618" unicode="Ç" d="M292 -13q-119 12 -180.5 85.5t-61.5 192.5q0 75 29 145.5t81 122.5q106 106 247 106q78 0 140 -20l72 15l-28 -205h-45l-12 132q-58 36 -129 36q-102 0 -177.5 -95t-75.5 -244q0 -119 67 -186q45 -45 120 -45q61 0 117 30l60 136h52l-47 -193l-51 9q-72 -24 -135 -24h-2 l-46 -42q56 0 88.5 -21.5t32.5 -59.5q0 -53 -62 -89t-166 -43l-5 24q168 21 168 93q0 46 -78 46q-30 0 -63 -6l3 20z"/>
<glyph glyph-name="Egrave" horiz-adv-x="578" unicode="È" d="M384 677h-22l-144 187h100zM537 181l-43 -181h-483l3 35l55 11q23 4 26 24l66 485v5q0 15 -20 19l-51 11l-3 35h490l-25 -186h-49l-11 97q-1 13 -3 20t-10.5 13.5t-19 9t-35.5 4.5t-53.5 2.5t-79.5 0.5h-30l-34 -249h21q60 0 77 3.5t25 18.5l32 67h39l-51 -215h-38l5 64 q1 10 -5 14.5t-27 7t-64 2.5h-19l-35 -260h24q105 0 147 3.5t59 13t27 33.5l39 92h54z"/>
<glyph glyph-name="Eacute" horiz-adv-x="578" unicode="É" d="M484 864l-194 -187h-22l116 187h100zM537 181l-43 -181h-483l3 35l55 11q23 4 26 24l66 485v5q0 15 -20 19l-51 11l-3 35h490l-25 -186h-49l-11 97q-1 13 -3 20t-10.5 13.5t-19 9t-35.5 4.5t-53.5 2.5t-79.5 0.5h-30l-34 -249h21q60 0 77 3.5t25 18.5l32 67h39l-51 -215 h-38l5 64q1 10 -5 14.5t-27 7t-64 2.5h-19l-35 -260h24q105 0 147 3.5t59 13t27 33.5l39 92h54z"/>
<glyph glyph-name="Ecircumflex" horiz-adv-x="578" unicode="Ê" d="M473 677h-22l-86 128h-2l-122 -128h-22l106 187h92zM537 181l-43 -181h-483l3 35l55 11q23 4 26 24l66 485v5q0 15 -20 19l-51 11l-3 35h490l-25 -186h-49l-11 97q-1 13 -3 20t-10.5 13.5t-19 9t-35.5 4.5t-53.5 2.5t-79.5 0.5h-30l-34 -249h21q60 0 77 3.5t25 18.5 l32 67h39l-51 -215h-38l5 64q1 10 -5 14.5t-27 7t-64 2.5h-19l-35 -260h24q105 0 147 3.5t59 13t27 33.5l39 92h54z"/>
<glyph glyph-name="Edieresis" horiz-adv-x="578" unicode="Ë" d="M306 774q0 -26 -16 -44.5t-43 -18.5t-43 18.5t-16 44.5t16 44.5t43 18.5t43 -18.5t16 -44.5zM506 774q0 -26 -16 -44.5t-43 -18.5t-43 18.5t-16 44.5t16 44.5t43 18.5t43 -18.5t16 -44.5zM537 181l-43 -181h-483l3 35l55 11q23 4 26 24l66 485v5q0 15 -20 19l-51 11 l-3 35h490l-25 -186h-49l-11 97q-1 13 -3 20t-10.5 13.5t-19 9t-35.5 4.5t-53.5 2.5t-79.5 0.5h-30l-34 -249h21q60 0 77 3.5t25 18.5l32 67h39l-51 -215h-38l5 64q1 10 -5 14.5t-27 7t-64 2.5h-19l-35 -260h24q105 0 147 3.5t59 13t27 33.5l39 92h54z"/>
<glyph glyph-name="Igrave" horiz-adv-x="359" unicode="Ì" d="M254 677h-22l-144 187h100zM288 0h-274l3 35l65 11q23 4 26 24l66 485v5q0 15 -20 19l-61 11l-3 35h273l-3 -35l-65 -11q-23 -5 -26 -24l-65 -485v-5q0 -15 20 -19l61 -11z"/>
<glyph glyph-name="Iacute" horiz-adv-x="359" unicode="Í" d="M434 864l-194 -187h-22l116 187h100zM288 0h-274l3 35l65 11q23 4 26 24l66 485v5q0 15 -20 19l-61 11l-3 35h273l-3 -35l-65 -11q-23 -5 -26 -24l-65 -485v-5q0 -15 20 -19l61 -11z"/>
<glyph glyph-name="Icircumflex" horiz-adv-x="359" unicode="Î" d="M358 677h-22l-86 128h-2l-122 -128h-22l106 187h92zM288 0h-274l3 35l65 11q23 4 26 24l66 485v5q0 15 -20 19l-61 11l-3 35h273l-3 -35l-65 -11q-23 -5 -26 -24l-65 -485v-5q0 -15 20 -19l61 -11z"/>
<glyph glyph-name="Idieresis" horiz-adv-x="359" unicode="Ï" d="M199 774q0 -26 -16 -44.5t-43 -18.5t-43 18.5t-16 44.5t16 44.5t43 18.5t43 -18.5t16 -44.5zM399 774q0 -26 -16 -44.5t-43 -18.5t-43 18.5t-16 44.5t16 44.5t43 18.5t43 -18.5t16 -44.5zM288 0h-274l3 35l65 11q23 4 26 24l66 485v5q0 15 -20 19l-61 11l-3 35h273 l-3 -35l-65 -11q-23 -5 -26 -24l-65 -485v-5q0 -15 20 -19l61 -11z"/>
<glyph glyph-name="Eth" horiz-adv-x="659" unicode="Ð" d="M227 339h108l3 -41h-116l-33 -244l69 -15q120 4 195 89t75 231q0 104 -54.5 165.5t-159.5 61.5h-54zM126 298h-82l3 41h84l29 216v5q0 15 -20 19l-51 11l-3 35h249q137 0 217 -74.5t80 -196.5q0 -146 -99 -244q-49 -50 -127.5 -80t-173.5 -30h-221l3 35l55 11q23 4 26 24 z"/>
<glyph glyph-name="Ntilde" horiz-adv-x="716" unicode="Ñ" d="M567 810q-37 -123 -115 -123q-36 0 -81.5 36.5t-61.5 36.5q-14 0 -27 -14t-32 -51h-26q36 123 114 123q28 0 55.5 -18t49.5 -36.5t38 -18.5q14 0 27 14t33 51h26zM737 625l-3 -35l-48 -8q-21 -4 -31 -16t-19.5 -52.5t-21.5 -131.5l-53 -391h-54l-289 535h-5l-37 -283 q-16 -123 -16 -152q0 -27 7 -36t26 -12l47 -8l3 -35h-233l3 35l48 8q30 5 42 38t29 162l33 246q2 14 2 35q0 25 -7.5 37t-25.5 17l-45 12l-3 35h185l260 -483h5l33 240q17 125 17 156q0 25 -7 33t-25 11l-48 8l-3 35h234z"/>
<glyph glyph-name="Ograve" horiz-adv-x="695" unicode="Ò" d="M422 677h-22l-144 187h100zM566 363q0 123 -60 183q-51 51 -133 51q-55 0 -99.5 -33.5t-70 -85t-38.5 -107.5t-13 -108q0 -123 60 -183q51 -51 133 -51q55 0 99.5 33.5t70 85t38.5 107.5t13 108zM668 348q0 -161 -103 -266q-92 -97 -230 -97q-127 0 -206 82t-79 209 q0 147 87 250q95 113 246 113q127 0 206 -82t79 -209z"/>
<glyph glyph-name="Oacute" horiz-adv-x="695" unicode="Ó" d="M562 864l-194 -187h-22l116 187h100zM566 363q0 123 -60 183q-51 51 -133 51q-55 0 -99.5 -33.5t-70 -85t-38.5 -107.5t-13 -108q0 -123 60 -183q51 -51 133 -51q55 0 99.5 33.5t70 85t38.5 107.5t13 108zM668 348q0 -161 -103 -266q-92 -97 -230 -97q-127 0 -206 82 t-79 209q0 147 87 250q95 113 246 113q127 0 206 -82t79 -209z"/>
<glyph glyph-name="Ocircumflex" horiz-adv-x="695" unicode="Ô" d="M531 677h-22l-86 128h-2l-122 -128h-22l106 187h92zM566 363q0 123 -60 183q-51 51 -133 51q-55 0 -99.5 -33.5t-70 -85t-38.5 -107.5t-13 -108q0 -123 60 -183q51 -51 133 -51q55 0 99.5 33.5t70 85t38.5 107.5t13 108zM668 348q0 -161 -103 -266q-92 -97 -230 -97 q-127 0 -206 82t-79 209q0 147 87 250q95 113 246 113q127 0 206 -82t79 -209z"/>
<glyph glyph-name="Otilde" horiz-adv-x="695" unicode="Õ" d="M596 810q-37 -123 -115 -123q-36 0 -81.5 36.5t-61.5 36.5q-14 0 -27 -14t-32 -51h-26q36 123 114 123q28 0 55.5 -18t49.5 -36.5t38 -18.5q14 0 27 14t33 51h26zM566 363q0 123 -60 183q-51 51 -133 51q-55 0 -99.5 -33.5t-70 -85t-38.5 -107.5t-13 -108q0 -123 60 -183 q51 -51 133 -51q55 0 99.5 33.5t70 85t38.5 107.5t13 108zM668 348q0 -161 -103 -266q-92 -97 -230 -97q-127 0 -206 82t-79 209q0 147 87 250q95 113 246 113q127 0 206 -82t79 -209z"/>
<glyph glyph-name="Odieresis" horiz-adv-x="695" unicode="Ö" d="M354 774q0 -26 -16 -44.5t-43 -18.5t-43 18.5t-16 44.5t16 44.5t43 18.5t43 -18.5t16 -44.5zM554 774q0 -26 -16 -44.5t-43 -18.5t-43 18.5t-16 44.5t16 44.5t43 18.5t43 -18.5t16 -44.5zM566 363q0 123 -60 183q-51 51 -133 51q-55 0 -99.5 -33.5t-70 -85t-38.5 -107.5 t-13 -108q0 -123 60 -183q51 -51 133 -51q55 0 99.5 33.5t70 85t38.5 107.5t13 108zM668 348q0 -161 -103 -266q-92 -97 -230 -97q-127 0 -206 82t-79 209q0 147 87 250q95 113 246 113q127 0 206 -82t79 -209z"/>
<glyph glyph-name="multiply" d="M446 403l-169 -168l169 -169l-38 -37l-168 168l-168 -168l-38 37l169 169l-169 168l38 37l168 -168l168 168z" unicode="×"/>
<glyph glyph-name="Oslash" horiz-adv-x="695" unicode="Ø" d="M514 538l-278 -478q43 -31 109 -31q55 0 99.5 33.5t70 85t38.5 107.5t13 108q0 115 -52 175zM205 87l278 478q-44 32 -110 32q-55 0 -99.5 -33.5t-70 -85t-38.5 -107.5t-13 -108q0 -116 53 -176zM173 31q-58 39 -90.5 102.5t-32.5 142.5q0 147 87 250q95 113 246 113 q71 0 127 -27l44 76h47q-55 -95 -56 -96q58 -38 90.5 -101.5t32.5 -142.5q0 -161 -103 -266q-92 -97 -230 -97q-71 0 -127 27l-50 -86h-46z"/>
<glyph glyph-name="Ugrave" horiz-adv-x="714" unicode="Ù" d="M452 677h-22l-144 187h100zM737 625l-3 -35l-48 -8q-20 -4 -30 -16.5t-19.5 -52t-22.5 -131.5l-25 -183q-16 -107 -84 -160.5t-173 -53.5q-100 0 -162.5 48t-62.5 142q0 27 4 59l45 321v5q0 15 -20 19l-51 11l-3 35h254l-3 -35l-55 -11q-23 -4 -26 -24l-42 -305 q-5 -37 -5 -56q0 -79 44 -116.5t119 -37.5q154 0 179 170l23 172q17 122 17 154q0 26 -7 34.5t-26 11.5l-47 8l-3 35h233z"/>
<glyph glyph-name="Uacute" horiz-adv-x="714" unicode="Ú" d="M602 864l-194 -187h-22l116 187h100zM737 625l-3 -35l-48 -8q-20 -4 -30 -16.5t-19.5 -52t-22.5 -131.5l-25 -183q-16 -107 -84 -160.5t-173 -53.5q-100 0 -162.5 48t-62.5 142q0 27 4 59l45 321v5q0 15 -20 19l-51 11l-3 35h254l-3 -35l-55 -11q-23 -4 -26 -24l-42 -305 q-5 -37 -5 -56q0 -79 44 -116.5t119 -37.5q154 0 179 170l23 172q17 122 17 154q0 26 -7 34.5t-26 11.5l-47 8l-3 35h233z"/>
<glyph glyph-name="Ucircumflex" horiz-adv-x="714" unicode="Û" d="M546 677h-22l-86 128h-2l-122 -128h-22l106 187h92zM737 625l-3 -35l-48 -8q-20 -4 -30 -16.5t-19.5 -52t-22.5 -131.5l-25 -183q-16 -107 -84 -160.5t-173 -53.5q-100 0 -162.5 48t-62.5 142q0 27 4 59l45 321v5q0 15 -20 19l-51 11l-3 35h254l-3 -35l-55 -11 q-23 -4 -26 -24l-42 -305q-5 -37 -5 -56q0 -79 44 -116.5t119 -37.5q154 0 179 170l23 172q17 122 17 154q0 26 -7 34.5t-26 11.5l-47 8l-3 35h233z"/>
<glyph glyph-name="Udieresis" horiz-adv-x="714" unicode="Ü" d="M364 774q0 -26 -16 -44.5t-43 -18.5t-43 18.5t-16 44.5t16 44.5t43 18.5t43 -18.5t16 -44.5zM564 774q0 -26 -16 -44.5t-43 -18.5t-43 18.5t-16 44.5t16 44.5t43 18.5t43 -18.5t16 -44.5zM737 625l-3 -35l-48 -8q-20 -4 -30 -16.5t-19.5 -52t-22.5 -131.5l-25 -183 q-16 -107 -84 -160.5t-173 -53.5q-100 0 -162.5 48t-62.5 142q0 27 4 59l45 321v5q0 15 -20 19l-51 11l-3 35h254l-3 -35l-55 -11q-23 -4 -26 -24l-42 -305q-5 -37 -5 -56q0 -79 44 -116.5t119 -37.5q154 0 179 170l23 172q17 122 17 154q0 26 -7 34.5t-26 11.5l-47 8l-3 35 h233z"/>
<glyph glyph-name="Yacute" horiz-adv-x="593" unicode="Ý" d="M541 864l-194 -187h-22l116 187h100zM648 625l-3 -35l-28 -7q-31 -8 -52 -22t-44 -48l-166 -245l-26 -198q-3 -20 20 -24l69 -11l3 -35h-292l4 35l74 11q22 3 26 24l26 198l-120 245q-16 31 -29 44.5t-35 20.5l-39 12l-2 35h258l-4 -35l-41 -6q-25 -4 -25 -24 q0 -16 19 -56l88 -193h5l143 218q11 18 11 28q0 17 -30 24l-44 9l-3 35h237z"/>
<glyph glyph-name="Thorn" horiz-adv-x="562" unicode="Þ" d="M438 330q0 59 -39.5 95.5t-102.5 36.5h-50l-39 -285q38 -10 71 -10q72 0 116 43.5t44 119.5zM539 328q0 -93 -76 -145.5t-182 -52.5q-34 0 -80 7l-10 -67v-5q0 -16 20 -19l72 -11l3 -35h-275l3 35l55 11q23 4 26 24l67 485q0 1 0.5 3t0.5 3q0 14 -21 18l-50 11l-3 35h253 l-3 -35l-55 -11q-23 -4 -26 -24l-7 -55h64q102 0 163 -47.5t61 -124.5z"/>
<glyph glyph-name="germandbls" horiz-adv-x="509" unicode="ß" d="M345 418q55 -39 94.5 -101.5t39.5 -134.5q0 -73 -56.5 -135t-126.5 -62q-46 0 -76.5 25t-30.5 61q0 29 19 49.5t47 20.5q26 0 39.5 -14t13.5 -34t-11.5 -38t-30.5 -24q11 -11 35 -11q44 0 74.5 38.5t30.5 94.5q0 66 -38 132.5t-111 119.5l5 25q74 2 113.5 36t39.5 96 q0 34 -21.5 60t-55.5 26q-57 0 -84.5 -48.5t-46.5 -151.5l-63 -334q-48 -252 -105 -312q-48 -48 -114 -48q-33 0 -55.5 17.5t-22.5 45.5q0 24 14 39.5t36 15.5q26 0 41.5 -20t18.5 -50l55 23q18 42 45 189l65 382l-87 4l3 29l95 23q52 237 211 237q65 0 105 -36t40 -91 q0 -111 -144 -144z"/>
<glyph glyph-name="agrave" horiz-adv-x="473" unicode="à" d="M321 510h-22l-144 187h100zM328 335q-19 30 -50.5 56t-61.5 26q-16 0 -33 -17q-25 -25 -54.5 -115.5t-29.5 -155.5q0 -76 51 -76q25 0 57.5 43t104.5 169zM336 395h6l20 69h71l-50 -169l-53 -242l29 -10l79 60l17 -18q-19 -37 -58.5 -68.5t-69.5 -31.5q-19 0 -47 10.5 t-28 21.5q0 15 54 185h-8q-62 -118 -101.5 -167.5t-81.5 -49.5q-40 0 -67.5 33t-27.5 91q0 78 32.5 158.5t79.5 127.5q70 70 135 70q46 0 69 -70z"/>
<glyph glyph-name="aacute" horiz-adv-x="473" unicode="á" d="M431 697l-194 -187h-22l116 187h100zM328 335q-19 30 -50.5 56t-61.5 26q-16 0 -33 -17q-25 -25 -54.5 -115.5t-29.5 -155.5q0 -76 51 -76q25 0 57.5 43t104.5 169zM336 395h6l20 69h71l-50 -169l-53 -242l29 -10l79 60l17 -18q-19 -37 -58.5 -68.5t-69.5 -31.5 q-19 0 -47 10.5t-28 21.5q0 15 54 185h-8q-62 -118 -101.5 -167.5t-81.5 -49.5q-40 0 -67.5 33t-27.5 91q0 78 32.5 158.5t79.5 127.5q70 70 135 70q46 0 69 -70z"/>
<glyph glyph-name="acircumflex" horiz-adv-x="473" unicode="â" d="M395 510h-22l-86 128h-2l-122 -128h-22l106 187h92zM328 335q-19 30 -50.5 56t-61.5 26q-16 0 -33 -17q-25 -25 -54.5 -115.5t-29.5 -155.5q0 -76 51 -76q25 0 57.5 43t104.5 169zM336 395h6l20 69h71l-50 -169l-53 -242l29 -10l79 60l17 -18q-19 -37 -58.5 -68.5 t-69.5 -31.5q-19 0 -47 10.5t-28 21.5q0 15 54 185h-8q-62 -118 -101.5 -167.5t-81.5 -49.5q-40 0 -67.5 33t-27.5 91q0 78 32.5 158.5t79.5 127.5q70 70 135 70q46 0 69 -70z"/>
<glyph glyph-name="atilde" horiz-adv-x="473" unicode="ã" d="M450 643q-37 -123 -115 -123q-36 0 -81.5 36.5t-61.5 36.5q-14 0 -27 -14t-32 -51h-26q36 123 114 123q28 0 55.5 -18.5t49.5 -36.5t38 -18q14 0 27 14t33 51h26zM328 335q-19 30 -50.5 56t-61.5 26q-16 0 -33 -17q-25 -25 -54.5 -115.5t-29.5 -155.5q0 -76 51 -76 q25 0 57.5 43t104.5 169zM336 395h6l20 69h71l-50 -169l-53 -242l29 -10l79 60l17 -18q-19 -37 -58.5 -68.5t-69.5 -31.5q-19 0 -47 10.5t-28 21.5q0 15 54 185h-8q-62 -118 -101.5 -167.5t-81.5 -49.5q-40 0 -67.5 33t-27.5 91q0 78 32.5 158.5t79.5 127.5q70 70 135 70 q46 0 69 -70z"/>
<glyph glyph-name="adieresis" horiz-adv-x="473" unicode="ä" d="M243 607q0 -26 -16 -44.5t-43 -18.5t-43 18.5t-16 44.5t16 44.5t43 18.5t43 -18.5t16 -44.5zM443 607q0 -26 -16 -44.5t-43 -18.5t-43 18.5t-16 44.5t16 44.5t43 18.5t43 -18.5t16 -44.5zM328 335q-19 30 -50.5 56t-61.5 26q-16 0 -33 -17q-25 -25 -54.5 -115.5 t-29.5 -155.5q0 -76 51 -76q25 0 57.5 43t104.5 169zM336 395h6l20 69h71l-50 -169l-53 -242l29 -10l79 60l17 -18q-19 -37 -58.5 -68.5t-69.5 -31.5q-19 0 -47 10.5t-28 21.5q0 15 54 185h-8q-62 -118 -101.5 -167.5t-81.5 -49.5q-40 0 -67.5 33t-27.5 91q0 78 32.5 158.5 t79.5 127.5q70 70 135 70q46 0 69 -70z"/>
<glyph glyph-name="aring" horiz-adv-x="473" unicode="å" d="M328 335q-19 30 -50.5 56t-61.5 26q-16 0 -33 -17q-25 -25 -54.5 -115.5t-29.5 -155.5q0 -76 51 -76q25 0 57.5 43t104.5 169zM343 607q0 26 -16 44.5t-43 18.5t-43 -18.5t-16 -44.5t16 -44.5t43 -18.5t43 18.5t16 44.5zM336 395h6l20 69h71l-50 -169l-53 -242l29 -10 l79 60l17 -18q-19 -37 -58.5 -68.5t-69.5 -31.5q-19 0 -47 10.5t-28 21.5q0 15 54 185h-8q-62 -118 -101.5 -167.5t-81.5 -49.5q-40 0 -67.5 33t-27.5 91q0 78 32.5 158.5t79.5 127.5q70 70 135 70q46 0 69 -70zM373 607q0 -38 -24.5 -64t-64.5 -26t-64.5 25.5t-24.5 62.5 q0 39 24.5 65.5t64.5 26.5t64.5 -26t24.5 -64z"/>
<glyph glyph-name="ae" horiz-adv-x="612" unicode="æ" d="M346 205q115 60 152 93.5t37 72.5q0 17 -30 30t-50 13q-23 0 -35 -12q-19 -19 -41 -72.5t-35 -124.5h2zM321 308q-19 44 -52 76.5t-65 32.5q-16 0 -33 -17q-24 -24 -48 -104t-24 -147q0 -39 11 -64.5t27 -25.5q10 0 21 5.5t23.5 19.5t22 26t24 35.5t22.5 37t24.5 42.5 t22.5 40q8 14 24 43zM343 352q37 58 72.5 85t83.5 27t77.5 -27t29.5 -67q0 -44 -41.5 -74t-175.5 -97l-46 -23v-24q0 -49 25 -78t62 -29q36 0 119 59l13 -18q-44 -52 -80 -76.5t-82 -24.5q-59 0 -97.5 45t-38.5 111v10q-45 -79 -87 -122.5t-70 -43.5q-41 0 -64 40.5 t-23 103.5q0 79 27.5 149t74.5 117q70 70 135 70q32 0 53.5 -34.5t32.5 -78.5z"/>
<glyph glyph-name="ccedilla" horiz-adv-x="383" unicode="ç" d="M145 -13q-51 7 -83 50.5t-32 103.5q0 75 32 149t88.5 124t120.5 50q47 0 79 -25t32 -59q0 -23 -14.5 -40t-34.5 -17q-43 0 -43 40q0 18 8 30q-5 7 -33 16.5t-50 9.5q-8 0 -24 -16q-28 -28 -55 -106t-27 -145q0 -49 25 -78t62 -29q36 0 119 59l13 -18q-40 -46 -70.5 -69.5 t-68.5 -29.5l-48 -44q56 0 88.5 -21.5t32.5 -59.5q0 -53 -62 -89t-166 -43l-5 24q168 21 168 93q0 46 -78 46q-30 0 -63 -6l3 20z"/>
<glyph glyph-name="egrave" horiz-adv-x="378" unicode="è" d="M304 510h-22l-144 187h100zM110 205h2q115 60 152 93.5t37 72.5q0 17 -30 30t-50 13q-23 0 -35 -12q-19 -19 -41 -72.5t-35 -124.5zM109 176v-24q0 -49 25 -78t62 -29q36 0 119 59l13 -18q-44 -52 -80 -76.5t-82 -24.5q-59 0 -97.5 45t-38.5 111q0 119 72 221t163 102 q48 0 77.5 -27t29.5 -67q0 -44 -41.5 -74t-175.5 -97z"/>
<glyph glyph-name="eacute" horiz-adv-x="378" unicode="é" d="M424 697l-194 -187h-22l116 187h100zM110 205h2q115 60 152 93.5t37 72.5q0 17 -30 30t-50 13q-23 0 -35 -12q-19 -19 -41 -72.5t-35 -124.5zM109 176v-24q0 -49 25 -78t62 -29q36 0 119 59l13 -18q-44 -52 -80 -76.5t-82 -24.5q-59 0 -97.5 45t-38.5 111q0 119 72 221 t163 102q48 0 77.5 -27t29.5 -67q0 -44 -41.5 -74t-175.5 -97z"/>
<glyph glyph-name="ecircumflex" horiz-adv-x="378" unicode="ê" d="M383 510h-22l-86 128h-2l-122 -128h-22l106 187h92zM110 205h2q115 60 152 93.5t37 72.5q0 17 -30 30t-50 13q-23 0 -35 -12q-19 -19 -41 -72.5t-35 -124.5zM109 176v-24q0 -49 25 -78t62 -29q36 0 119 59l13 -18q-44 -52 -80 -76.5t-82 -24.5q-59 0 -97.5 45t-38.5 111 q0 119 72 221t163 102q48 0 77.5 -27t29.5 -67q0 -44 -41.5 -74t-175.5 -97z"/>
<glyph glyph-name="edieresis" horiz-adv-x="378" unicode="ë" d="M226 607q0 -26 -16 -44.5t-43 -18.5t-43 18.5t-16 44.5t16 44.5t43 18.5t43 -18.5t16 -44.5zM426 607q0 -26 -16 -44.5t-43 -18.5t-43 18.5t-16 44.5t16 44.5t43 18.5t43 -18.5t16 -44.5zM110 205h2q115 60 152 93.5t37 72.5q0 17 -30 30t-50 13q-23 0 -35 -12 q-19 -19 -41 -72.5t-35 -124.5zM109 176v-24q0 -49 25 -78t62 -29q36 0 119 59l13 -18q-44 -52 -80 -76.5t-82 -24.5q-59 0 -97.5 45t-38.5 111q0 119 72 221t163 102q48 0 77.5 -27t29.5 -67q0 -44 -41.5 -74t-175.5 -97z"/>
<glyph glyph-name="igrave" horiz-adv-x="253" unicode="ì" d="M211 510h-22l-144 187h100zM236 85q-19 -37 -58.5 -68.5t-69.5 -31.5q-18 0 -46 11.5t-26 20.5l99 380l-29 5l-76 -80l-17 18q20 44 57.5 84t66.5 40q11 0 30 -4.5t34 -12.5t13 -15l-103 -379l29 -10l79 60z"/>
<glyph glyph-name="iacute" horiz-adv-x="253" unicode="í" d="M321 697l-194 -187h-22l116 187h100zM236 85q-19 -37 -58.5 -68.5t-69.5 -31.5q-18 0 -46 11.5t-26 20.5l99 380l-29 5l-76 -80l-17 18q20 44 57.5 84t66.5 40q11 0 30 -4.5t34 -12.5t13 -15l-103 -379l29 -10l79 60z"/>
<glyph glyph-name="icircumflex" horiz-adv-x="253" unicode="î" d="M290 510h-22l-86 128h-2l-122 -128h-22l106 187h92zM236 85q-19 -37 -58.5 -68.5t-69.5 -31.5q-18 0 -46 11.5t-26 20.5l99 380l-29 5l-76 -80l-17 18q20 44 57.5 84t66.5 40q11 0 30 -4.5t34 -12.5t13 -15l-103 -379l29 -10l79 60z"/>
<glyph glyph-name="idieresis" horiz-adv-x="253" unicode="ï" d="M133 607q0 -26 -16 -44.5t-43 -18.5t-43 18.5t-16 44.5t16 44.5t43 18.5t43 -18.5t16 -44.5zM333 607q0 -26 -16 -44.5t-43 -18.5t-43 18.5t-16 44.5t16 44.5t43 18.5t43 -18.5t16 -44.5zM236 85q-19 -37 -58.5 -68.5t-69.5 -31.5q-18 0 -46 11.5t-26 20.5l99 380l-29 5 l-76 -80l-17 18q20 44 57.5 84t66.5 40q11 0 30 -4.5t34 -12.5t13 -15l-103 -379l29 -10l79 60z"/>
<glyph glyph-name="eth" horiz-adv-x="440" unicode="ð" d="M122 256q-13 -52 -13 -103q0 -53 19.5 -94t55.5 -41q33 0 63 36t45.5 73.5t23.5 72.5q12 57 12 105q0 52 -19 89t-55 37q-31 0 -61 -34.5t-46 -71t-25 -69.5zM274 564l-160 -49l10 43l116 36q-39 29 -98 47l19 42q77 -24 134 -72l142 44l-10 -43l-99 -31q93 -97 95 -237 q0 -140 -72 -249.5t-167 -109.5q-75 0 -113.5 53.5t-38.5 142.5q0 105 64 194t153 89q67 0 95 -63q-10 98 -70 163z"/>
<glyph glyph-name="ntilde" horiz-adv-x="507" unicode="ñ" d="M462 643q-37 -123 -115 -123q-36 0 -81.5 36.5t-61.5 36.5q-14 0 -27 -14t-32 -51h-26q36 123 114 123q28 0 55.5 -18.5t49.5 -36.5t38 -18q14 0 27 14t33 51h26zM481 85q-19 -37 -58.5 -68.5t-69.5 -31.5q-18 0 -45.5 10.5t-27.5 21.5q0 22 51 186q39 126 39 146 q0 16 -14 29.5t-32 13.5q-43 0 -166 -257l-27 -140l-82 5l35 147l51 245l-28 5l-78 -75l-16 18q20 44 57 84t66 40q19 0 47.5 -10.5t28.5 -21.5q0 -20 -62 -249h9q94 201 138 245q36 36 78 36q26 0 48 -20.5t22 -48.5q0 -48 -41 -184q-6 -21 -17 -57t-18.5 -61.5 t-12.5 -39.5l29 -10l79 60z"/>
<glyph glyph-name="ograve" horiz-adv-x="440" unicode="ò" d="M315 510h-22l-144 187h100zM328 305q0 52 -19 89t-55 37q-31 0 -61 -34.5t-46 -71t-25 -69.5q-13 -52 -13 -103q0 -53 19.5 -94t55.5 -41q33 0 63 36t45.5 73.5t23.5 72.5q12 57 12 105zM406 268q0 -104 -66.5 -193.5t-155.5 -89.5q-75 0 -113.5 53.5t-38.5 142.5 q0 104 66.5 193.5t155.5 89.5q75 0 113.5 -53.5t38.5 -142.5z"/>
<glyph glyph-name="oacute" horiz-adv-x="440" unicode="ó" d="M435 697l-194 -187h-22l116 187h100zM328 305q0 52 -19 89t-55 37q-31 0 -61 -34.5t-46 -71t-25 -69.5q-13 -52 -13 -103q0 -53 19.5 -94t55.5 -41q33 0 63 36t45.5 73.5t23.5 72.5q12 57 12 105zM406 268q0 -104 -66.5 -193.5t-155.5 -89.5q-75 0 -113.5 53.5 t-38.5 142.5q0 104 66.5 193.5t155.5 89.5q75 0 113.5 -53.5t38.5 -142.5z"/>
<glyph glyph-name="ocircumflex" horiz-adv-x="440" unicode="ô" d="M394 510h-22l-86 128h-2l-122 -128h-22l106 187h92zM328 305q0 52 -19 89t-55 37q-31 0 -61 -34.5t-46 -71t-25 -69.5q-13 -52 -13 -103q0 -53 19.5 -94t55.5 -41q33 0 63 36t45.5 73.5t23.5 72.5q12 57 12 105zM406 268q0 -104 -66.5 -193.5t-155.5 -89.5 q-75 0 -113.5 53.5t-38.5 142.5q0 104 66.5 193.5t155.5 89.5q75 0 113.5 -53.5t38.5 -142.5z"/>
<glyph glyph-name="otilde" horiz-adv-x="440" unicode="õ" d="M455 643q-37 -123 -115 -123q-36 0 -81.5 36.5t-61.5 36.5q-14 0 -27 -14t-32 -51h-26q36 123 114 123q28 0 55.5 -18.5t49.5 -36.5t38 -18q14 0 27 14t33 51h26zM328 305q0 52 -19 89t-55 37q-31 0 -61 -34.5t-46 -71t-25 -69.5q-13 -52 -13 -103q0 -53 19.5 -94 t55.5 -41q33 0 63 36t45.5 73.5t23.5 72.5q12 57 12 105zM406 268q0 -104 -66.5 -193.5t-155.5 -89.5q-75 0 -113.5 53.5t-38.5 142.5q0 104 66.5 193.5t155.5 89.5q75 0 113.5 -53.5t38.5 -142.5z"/>
<glyph glyph-name="odieresis" horiz-adv-x="440" unicode="ö" d="M247 607q0 -26 -16 -44.5t-43 -18.5t-43 18.5t-16 44.5t16 44.5t43 18.5t43 -18.5t16 -44.5zM447 607q0 -26 -16 -44.5t-43 -18.5t-43 18.5t-16 44.5t16 44.5t43 18.5t43 -18.5t16 -44.5zM328 305q0 52 -19 89t-55 37q-31 0 -61 -34.5t-46 -71t-25 -69.5 q-13 -52 -13 -103q0 -53 19.5 -94t55.5 -41q33 0 63 36t45.5 73.5t23.5 72.5q12 57 12 105zM406 268q0 -104 -66.5 -193.5t-155.5 -89.5q-75 0 -113.5 53.5t-38.5 142.5q0 104 66.5 193.5t155.5 89.5q75 0 113.5 -53.5t38.5 -142.5z"/>
<glyph glyph-name="divide" horiz-adv-x="486" unicode="÷" d="M296 374q0 -21 -15 -36.5t-37 -15.5t-36.5 15.5t-14.5 36.5t14.5 36.5t36.5 15.5t37 -15.5t15 -36.5zM296 94q0 -21 -14.5 -36.5t-36.5 -15.5t-37 15.5t-15 36.5t15 36t37 15t36.5 -15t14.5 -36zM446 208h-405l3 53h399z"/>
<glyph glyph-name="oslash" horiz-adv-x="440" unicode="ø" d="M320 367q-184 -320 -185 -320q19 -29 49 -29q33 0 63 36t45.5 73.5t23.5 72.5q12 57 12 105q0 32 -8 62zM118 86l184 319q-20 26 -48 26q-31 0 -61 -34.5t-46 -71t-25 -69.5q-13 -52 -13 -103q0 -35 9 -67zM82 24q-50 51 -50 157q0 104 66.5 193.5t155.5 89.5 q41 0 72 -17l87 151h40l-99 -172q52 -52 52 -158q0 -104 -66.5 -193.5t-155.5 -89.5q-44 0 -74 18l-76 -132h-40z"/>
<glyph glyph-name="ugrave" horiz-adv-x="507" unicode="ù" d="M328 510h-22l-144 187h100zM28 340q20 44 57.5 84t66.5 40q18 0 46.5 -10.5t28.5 -21.5q0 -22 -51 -186q-39 -126 -39 -146q0 -16 14 -29.5t32 -13.5q43 0 166 257l27 140l82 -5l-35 -147q-41 -217 -52 -249l29 -10l79 60l17 -18q-19 -37 -58.5 -68.5t-69.5 -31.5 q-18 0 -45.5 10.5t-27.5 21.5q0 20 62 249h-9q-94 -201 -138 -245q-36 -36 -78 -36q-26 0 -48 20.5t-22 48.5q0 48 41 184q8 26 24.5 83t22.5 76l-29 5l-76 -80z"/>
<glyph glyph-name="uacute" horiz-adv-x="507" unicode="ú" d="M458 697l-194 -187h-22l116 187h100zM28 340q20 44 57.5 84t66.5 40q18 0 46.5 -10.5t28.5 -21.5q0 -22 -51 -186q-39 -126 -39 -146q0 -16 14 -29.5t32 -13.5q43 0 166 257l27 140l82 -5l-35 -147q-41 -217 -52 -249l29 -10l79 60l17 -18q-19 -37 -58.5 -68.5 t-69.5 -31.5q-18 0 -45.5 10.5t-27.5 21.5q0 20 62 249h-9q-94 -201 -138 -245q-36 -36 -78 -36q-26 0 -48 20.5t-22 48.5q0 48 41 184q8 26 24.5 83t22.5 76l-29 5l-76 -80z"/>
<glyph glyph-name="ucircumflex" horiz-adv-x="507" unicode="û" d="M417 510h-22l-86 128h-2l-122 -128h-22l106 187h92zM28 340q20 44 57.5 84t66.5 40q18 0 46.5 -10.5t28.5 -21.5q0 -22 -51 -186q-39 -126 -39 -146q0 -16 14 -29.5t32 -13.5q43 0 166 257l27 140l82 -5l-35 -147q-41 -217 -52 -249l29 -10l79 60l17 -18 q-19 -37 -58.5 -68.5t-69.5 -31.5q-18 0 -45.5 10.5t-27.5 21.5q0 20 62 249h-9q-94 -201 -138 -245q-36 -36 -78 -36q-26 0 -48 20.5t-22 48.5q0 48 41 184q8 26 24.5 83t22.5 76l-29 5l-76 -80z"/>
<glyph glyph-name="udieresis" horiz-adv-x="507" unicode="ü" d="M270 607q0 -26 -16 -44.5t-43 -18.5t-43 18.5t-16 44.5t16 44.5t43 18.5t43 -18.5t16 -44.5zM470 607q0 -26 -16 -44.5t-43 -18.5t-43 18.5t-16 44.5t16 44.5t43 18.5t43 -18.5t16 -44.5zM28 340q20 44 57.5 84t66.5 40q18 0 46.5 -10.5t28.5 -21.5q0 -22 -51 -186 q-39 -126 -39 -146q0 -16 14 -29.5t32 -13.5q43 0 166 257l27 140l82 -5l-35 -147q-41 -217 -52 -249l29 -10l79 60l17 -18q-19 -37 -58.5 -68.5t-69.5 -31.5q-18 0 -45.5 10.5t-27.5 21.5q0 20 62 249h-9q-94 -201 -138 -245q-36 -36 -78 -36q-26 0 -48 20.5t-22 48.5 q0 48 41 184q8 26 24.5 83t22.5 76l-29 5l-76 -80z"/>
<glyph glyph-name="yacute" horiz-adv-x="429" unicode="ý" d="M429 697l-194 -187h-22l116 187h100zM434 397q0 -25 -21 -67t-37 -66.5t-49 -72.5l-101 -144l-59 -112q-51 -96 -98 -143.5t-99 -47.5q-31 0 -54.5 19t-23.5 48q0 23 17 39t36 16q25 0 44.5 -19.5t18.5 -46.5l17 2l135 191l-49 13l7 391l-29 5l-76 -80l-17 18 q20 44 57.5 84t66.5 40q19 0 48 -10.5t29 -21.5l-12 -379h11l169 282v10q-52 20 -52 59q0 26 15.5 44t39.5 18q31 0 48.5 -18.5t17.5 -50.5z"/>
<glyph glyph-name="thorn" horiz-adv-x="446" unicode="þ" d="M334 300q0 42 -11.5 69t-34.5 27q-25 0 -57.5 -43t-104.5 -169l-20 -88q66 -75 104 -75q14 0 31 17q32 32 62.5 114t30.5 148zM413 320q0 -78 -30 -150.5t-77 -119.5q-66 -66 -135 -66q-46 0 -78 39h-1l-39 -199v-5q0 -15 19 -19l67 -11l4 -35h-251l2 35l56 11 q22 4 27 24l160 749q5 18 -6 23l-63 28l4 25l167 48l-55 -233l-52 -217h8q62 118 101.5 167.5t81.5 49.5q38 0 64 -41.5t26 -102.5z"/>
<glyph glyph-name="OE" horiz-adv-x="904" unicode="Œ" d="M493 571l-69 15q-120 -4 -195 -89t-75 -231q0 -104 54.5 -165.5t159.5 -61.5h54zM868 181l-43 -181h-478q-137 0 -217 74.5t-80 196.5q0 146 99 244q50 50 128 80t173 30h458l-35 -186h-39l-11 97q-1 13 -3 20t-10.5 13.5t-19 9t-35.5 4.5t-53.5 2.5t-79.5 0.5h-30 l-34 -249h21q56 0 79.5 6.5t33.5 22.5l21 60h39l-51 -215h-38l5 64q1 10 -5 14.5t-27 7t-64 2.5h-19l-35 -260h24q105 0 147 3.5t59 13t27 33.5l39 92h54z"/>
<glyph glyph-name="oe" horiz-adv-x="658" unicode="œ" d="M392 205q115 60 152 93.5t37 72.5q0 17 -30 30t-50 13q-23 0 -35 -12q-19 -19 -41 -72.5t-35 -124.5h2zM328 305q0 52 -19 89t-55 37q-31 0 -61 -34.5t-46 -71t-25 -69.5q-13 -52 -13 -103q0 -53 19.5 -94t55.5 -41q33 0 63 36t45.5 73.5t23.5 72.5q12 57 12 105z M652 370q0 -44 -41.5 -74t-175.5 -97l-46 -23v-24q0 -49 25 -78t62 -29q36 0 119 59l13 -18q-44 -52 -80 -76.5t-82 -24.5q-85 0 -114 81q-61 -81 -148 -81q-75 0 -113.5 53t-38.5 142q0 106 64 195t158 89q102 0 131 -101q66 101 160 101q48 0 77.5 -27t29.5 -67z"/>
<glyph glyph-name="Scaron" horiz-adv-x="502" unicode="Š" d="M460 864l-106 -187h-92l-56 187h22l87 -128h2l121 128h22zM443 171q0 -82 -68 -134t-169 -52q-98 0 -187 29l12 179h41l28 -137q51 -27 124 -27q62 0 96.5 30t34.5 80q0 24 -9 44.5t-29.5 39.5t-39.5 32t-54 35q-76 46 -108.5 84t-32.5 102q0 69 63.5 116t144.5 47 q64 0 140 -16l52 12l-26 -192h-44l-13 124q-59 27 -125 27q-42 0 -74 -23.5t-32 -61.5q0 -48 31 -80t102 -74q68 -40 105 -81t37 -103z"/>
<glyph glyph-name="scaron" horiz-adv-x="347" unicode="š" d="M382 697l-106 -187h-92l-56 187h22l87 -128h2l121 128h22zM340 389q0 -22 -13.5 -36t-35.5 -14q-17 0 -27 12t-10 29q0 10 6 22q-45 21 -82 23q-14 -5 -31 -26t-18 -38v-5q0 -7 2 -15t7 -16.5t9 -14.5t13 -16t13 -14t15 -15.5t14 -14.5q59 -61 75 -95q10 -22 10 -41v-6 q-5 -56 -55.5 -89.5t-101.5 -33.5q-136 0 -136 77q0 21 14 35t36 14q17 0 27 -12t10 -29q0 -10 -7 -22q56 -23 92 -25q15 7 33 29t20 38q1 17 -12.5 39t-23.5 32.5t-38 37.5q-85 82 -85 136v7q6 57 55 89.5t101 32.5q124 0 124 -75z"/>
<glyph glyph-name="Ydieresis" horiz-adv-x="593" unicode="Ÿ" d="M323 774q0 -26 -16 -44.5t-43 -18.5t-43 18.5t-16 44.5t16 44.5t43 18.5t43 -18.5t16 -44.5zM523 774q0 -26 -16 -44.5t-43 -18.5t-43 18.5t-16 44.5t16 44.5t43 18.5t43 -18.5t16 -44.5zM648 625l-3 -35l-28 -7q-31 -8 -52 -22t-44 -48l-166 -245l-26 -198 q-3 -20 20 -24l69 -11l3 -35h-292l4 35l74 11q22 3 26 24l26 198l-120 245q-16 31 -29 44.5t-35 20.5l-39 12l-2 35h258l-4 -35l-41 -6q-25 -4 -25 -24q0 -16 19 -56l88 -193h5l143 218q11 18 11 28q0 17 -30 24l-44 9l-3 35h237z"/>
<glyph glyph-name="circumflex" horiz-adv-x="400" unicode="ˆ" d="M354 510h-22l-86 128h-2l-122 -128h-22l106 187h92z"/>
<glyph glyph-name="tilde" horiz-adv-x="400" unicode="˜" d="M409 643q-37 -123 -115 -123q-36 0 -81.5 36.5t-61.5 36.5q-14 0 -27 -14t-32 -51h-26q36 123 114 123q28 0 55.5 -18.5t49.5 -36.5t38 -18q14 0 27 14t33 51h26z"/>
<glyph glyph-name="thinspace" horiz-adv-x="76" unicode=" "/>
<glyph glyph-name="endash" horiz-adv-x="470" unicode="–" d="M447 208h-418l3 53h412z"/>
<glyph glyph-name="emdash" horiz-adv-x="940" unicode="—" d="M917 208h-888l3 53h882z"/>
<glyph glyph-name="quoteleft" horiz-adv-x="232" unicode="‘" d="M138 374q-36 0 -59.5 24.5t-23.5 59.5q0 64 62 121t155 93l15 -20q-48 -23 -88.5 -64.5t-40.5 -80.5q0 -13 5.5 -26t13.5 -22.5t16 -16.5t13 -11l6 -4q0 -22 -24.5 -37.5t-49.5 -15.5z"/>
<glyph glyph-name="quotesinglbase" horiz-adv-x="232" unicode="‚" d="M163 23q0 -97 -169 -191l-24 19q41 22 72 56.5t31 70.5q0 15 -7 29.5t-17 24t-20 16.5t-17 11l-7 4q0 23 21 38.5t48 15.5q35 0 62 -27.5t27 -66.5z"/>
<glyph glyph-name="quotedblleft" horiz-adv-x="434" unicode="“" d="M213 428q0 -23 -21 -38.5t-48 -15.5q-35 0 -62 27.5t-27 66.5q0 97 169 191l24 -19q-41 -22 -72 -56.5t-31 -70.5q0 -15 7 -29.5t17 -24t20 -16.5t17 -11zM429 428q0 -23 -21 -38.5t-48 -15.5q-35 0 -62 27.5t-27 66.5q0 97 169 191l24 -19q-41 -22 -72 -56.5t-31 -70.5 q0 -15 7 -29.5t17 -24t20 -16.5t17 -11z"/>
<glyph glyph-name="quotedblright" horiz-adv-x="434" unicode="”" d="M244 565q0 -97 -169 -191l-24 19q41 22 72 56.5t31 70.5q0 15 -7 29.5t-17 24t-20 16.5t-17 11l-7 4q0 23 21 38.5t48 15.5q35 0 62 -27.5t27 -66.5zM460 565q0 -97 -169 -191l-24 19q41 22 72 56.5t31 70.5q0 15 -7 29.5t-17 24t-20 16.5t-17 11l-7 4q0 23 21 38.5 t48 15.5q35 0 62 -27.5t27 -66.5z"/>
<glyph glyph-name="dagger" horiz-adv-x="470" unicode="†" d="M467 432l-4 -41h-180v-547h-40v547h-179l-4 41h183v193h40v-193h184z"/>
<glyph glyph-name="daggerdbl" horiz-adv-x="470" unicode="‡" d="M468 21h-184v-177h-40v177h-183l4 41h179v344h-179l-4 41h183v178h40v-178h184l-4 -41h-180v-344h180z"/>
<glyph glyph-name="ellipsis" horiz-adv-x="696" unicode="…" d="M161 52q0 -27 -19 -47t-47 -20q-29 0 -48.5 20t-19.5 47t19.5 46t48.5 19t47.5 -19t18.5 -46zM393 52q0 -27 -19 -47t-47 -20q-29 0 -48.5 20t-19.5 47t19.5 46t48.5 19t47.5 -19t18.5 -46zM625 52q0 -27 -19 -47t-47 -20q-29 0 -48.5 20t-19.5 47t19.5 46t48.5 19 t47.5 -19t18.5 -46z"/>
<glyph glyph-name="perthousand" horiz-adv-x="1126" unicode="‰" d="M681 158q0 47 -32.5 78t-79.5 31q-54 0 -92 -42t-38 -97q0 -49 31.5 -79t78.5 -30q55 0 93.5 41.5t38.5 97.5zM1062 158q0 47 -32.5 78t-79.5 31q-54 0 -92 -42t-38 -97q0 -49 31.5 -79t78.5 -30q55 0 93.5 41.5t38.5 97.5zM345 490q0 50 -31.5 81.5t-80.5 31.5 q-54 0 -92 -42t-38 -97q0 -49 32 -79t80 -30q55 0 92.5 39.5t37.5 95.5zM729 164q0 -77 -54 -132t-130 -55q-68 0 -111 40t-43 107q0 78 52.5 132.5t129.5 54.5q66 0 111 -40t45 -107zM1110 164q0 -77 -54 -132t-130 -55q-68 0 -111 40t-43 107q0 78 52.5 132.5t129.5 54.5 q66 0 111 -40t45 -107zM734 639l-630 -654h-59l630 654h59zM395 500q0 -78 -53.5 -132.5t-130.5 -54.5q-66 0 -111 41t-45 108q0 76 53.5 130.5t128.5 54.5q67 0 112.5 -40t45.5 -107z"/>
<glyph glyph-name="guilsinglleft" horiz-adv-x="300" unicode="‹" d="M237 70l-12 -20l-197 152v42l243 156l7 -20l-178 -160z"/>
<glyph glyph-name="guilsinglright" horiz-adv-x="300" unicode="›" d="M267 198l-237 -152l-7 20l163 155l-122 155l12 20l197 -152z"/>
<glyph glyph-name="fraction" horiz-adv-x="525" unicode="⁄" d="M525 638l-467 -654h-58l468 654h57z"/>
<glyph glyph-name="Euro" horiz-adv-x="504" unicode="€" d="M165 213q11 -80 52 -125.5t109 -45.5q64 0 136 58l12 -25q-32 -40 -79.5 -65t-98.5 -25q-94 0 -150 64t-69 164h-71l3 41h65v11q0 33 5 70h-57l3 41h62q29 115 109.5 185t179.5 70q73 0 112.5 -25.5t39.5 -63.5q0 -25 -12.5 -41.5t-36.5 -16.5q-26 0 -43 25t-19 58 q-27 21 -73 21q-66 0 -112.5 -53.5t-62.5 -158.5h201l3 -41h-208q-3 -32 -3 -67v-14h192l3 -41h-192z"/>
<glyph glyph-name="trademark" horiz-adv-x="917" unicode="™" d="M391 625v-136h-30l-6 19q-18 56 -35 72t-67 16h-1v-296q0 -11 12 -14l44 -6l1 -27h-181l2 27l44 6q13 3 13 14v296h-1q-42 0 -61.5 -17.5t-37.5 -70.5l-7 -19h-27l7 136h331zM918 253h-163l1 27l30 7q12 4 12 43v19l-4 232h-10l-107 -316h-50l-85 319h-10l-6 -195 q-2 -56 -2 -63q0 -36 13 -41l32 -5l1 -27h-132l2 27l30 5q7 1 11 7.5t7.5 29t4.5 67.5l6 188q0 13 -12 15l-35 6l-2 27h146l68 -278h10l90 278h148l-2 -27l-34 -6q-14 -3 -14 -15l4 -228q1 -59 20 -62l30 -7z"/>
<glyph glyph-name="minus" horiz-adv-x="486" unicode="−" d="M446 208h-405l3 53h399z"/>
<glyph glyph-name="approxequal" d="M154 156q-15 0 -24 -2t-22 -15.5t-22 -40.5h-46q10 53 39.5 82t71.5 29q27 0 90 -33t85 -33q15 0 24 2t22 15.5t22 40.5h46q-10 -53 -39.5 -82t-71.5 -29q-33 0 -96 33t-79 33zM154 325q-15 0 -24 -2t-22 -15.5t-22 -40.5h-46q10 53 39.5 82t71.5 29q27 0 90 -33t85 -33 q15 0 24 2t22 15.5t22 40.5h46q-10 -53 -39.5 -82t-71.5 -29q-33 0 -96 33t-79 33z" unicode="≈"/>
<glyph glyph-name="notequal" d="M142 -23l41 144h-142l3 53h154l34 121h-188l-3 53h206l38 134h52l-38 -134h140l-3 -53h-152l-34 -121h186l3 -53h-204l-41 -144h-52z" unicode="≠"/>
<glyph glyph-name="lessequal" d="M448 6h-416l3 53h410zM128 270l310 -129l-11 -48l-395 166v32l395 166l11 -48l-310 -129v-10z" unicode="≤"/>
<glyph glyph-name="greaterequal" d="M448 6h-416l3 53h410zM352 270v10l-310 129l11 48l395 -166v-32l-395 -166l-11 48z" unicode="≥"/>
</font>
</defs>
</svg>
