<?xml version="1.0" encoding="UTF-8" standalone="no"?>
<!DOCTYPE svg  PUBLIC '-//W3C//DTD SVG 1.1//EN'  'http://www.w3.org/Graphics/SVG/1.1/DTD/svg11.dtd'>
<svg xmlns="http://www.w3.org/2000/svg">
<defs>
<font id="FreightDispProBook-Regular" horiz-adv-x="448">
<font-face underline-position="-146" font-weight="400" descent="-200" panose-1="2 0 6 3 8 0 0 2 0 4" units-per-em="1000" unicode-range="U+0020-2265" bbox="-78 -271 968 862" x-height="429" underline-thickness="20" font-family="FreightDispProBook" ascent="800" cap-height="625"/>
<missing-glyph horiz-adv-x="1000"/>
<glyph glyph-name=".notdef" horiz-adv-x="1000"/>
<glyph glyph-name=".null" horiz-adv-x="0"/>
<glyph glyph-name="nonmarkingreturn" horiz-adv-x="333"/>
<glyph glyph-name="space" horiz-adv-x="180" unicode=" "/>
<glyph glyph-name="exclam" horiz-adv-x="248" unicode="!" d="M126 -15q-23 0 -39.5 16t-16.5 37t16 36t40 15q22 0 37 -15t15 -36t-15 -37t-37 -16zM120 184l-38 406q-1 4 -1 13q0 37 41 37h8q40 0 40 -37q0 -2 -0.5 -6.5t-0.5 -6.5l-37 -406q0 -4 -6 -4t-6 4z"/>
<glyph glyph-name="quotedbl" horiz-adv-x="313" unicode='&quot;' d="M4 403l113 243h2l53 -22l-156 -221h-12zM151 403l113 243h1l52 -22l-156 -221h-10z"/>
<glyph glyph-name="numbersign" horiz-adv-x="514" unicode="#" d="M147 205h167l56 212h-166zM74 -5l51 194h-136v16h140l56 212h-136v17h141l52 198h18l-53 -198h167l53 198h18l-52 -198h136v-17h-141l-55 -212h135v-16h-140l-51 -194h-18l51 194h-167l-51 -194h-18z"/>
<glyph glyph-name="dollar" horiz-adv-x="459" unicode="$" d="M160 14q28 -9 63 -9q65 0 107 38t42 97q0 54 -34.5 87.5t-105.5 59.5zM300 609q-30 11 -64 11q-56 0 -91.5 -34t-35.5 -83t32 -78t96 -54zM137 -8q-51 7 -102 24l-11 154h16l41 -101q24 -32 63 -49l72 273q-2 1 -3 1q-80 28 -123 66.5t-43 106.5q0 70 53 120.5t141 50.5 q33 0 66 -5l28 106h17l-29 -109q29 -8 38 -11l44 13l6 -165h-16l-53 120q-11 8 -26 15q-63 -236 -63 -237h1q90 -31 137.5 -73t47.5 -118q0 -77 -62 -132.5t-158 -55.5q-36 0 -65 4l-41 -155h-17z"/>
<glyph glyph-name="percent" horiz-adv-x="594" unicode="%" d="M446 3q52 0 83.5 34t31.5 85q0 50 -31.5 84.5t-83.5 34.5t-83 -34.5t-31 -84.5q0 -51 31 -85t83 -34zM147 385q52 0 84 34t32 84t-32 85t-84 35q-51 0 -82.5 -35t-31.5 -85t31.5 -84t82.5 -34zM446 -17q-62 0 -99 40t-37 98q0 59 37 99.5t99 40.5t99.5 -41t37.5 -99 t-37.5 -98t-99.5 -40zM58 -14l453 654h23l-452 -654h-24zM147 365q-61 0 -98.5 40t-37.5 98t37.5 99t98.5 41q62 0 100 -41t38 -99t-38 -98t-100 -40z"/>
<glyph glyph-name="ampersand" horiz-adv-x="696" unicode="&amp;" d="M234 44q48 0 89 27t89 82q-76 153 -208 207q-118 -59 -118 -167q0 -64 41.5 -106.5t106.5 -42.5zM267 399q76 36 76 119q0 40 -25 72.5t-66 32.5q-39 0 -65 -29.5t-26 -69.5q0 -43 25 -71.5t81 -53.5zM194 -15q-81 0 -131 51.5t-50 123.5q0 69 47.5 125t128.5 83 q-93 50 -93 127q0 54 48.5 99.5t112.5 45.5q70 0 111 -35.5t41 -80.5q0 -41 -31.5 -75.5t-93.5 -55.5q49 -25 100 -77t80 -104q91 114 93 147q0 26 -67 33l-20 2l-3 14h230l-3 -14l-20 -2q-33 -3 -53.5 -17.5t-51.5 -55.5l-96 -122q48 -95 75.5 -128.5t64.5 -33.5 q41 0 85 46l10 -11q-75 -85 -133 -85q-46 0 -80.5 34t-73.5 118q-59 -73 -111.5 -112.5t-115.5 -39.5z"/>
<glyph glyph-name="quotesingle" horiz-adv-x="161" unicode="&apos;" d="M4 403l113 243h2l53 -22l-156 -221h-12z"/>
<glyph glyph-name="parenleft" horiz-adv-x="340" unicode="(" d="M326 -271q-43 24 -86 64t-84 97.5t-66.5 136.5t-25.5 165t25.5 165.5t66.5 136.5t84 97t86 63l10 -16q-41 -22 -82.5 -62t-80 -96t-62.5 -131.5t-24 -156.5q0 -82 24 -158t62.5 -131.5t79.5 -95t83 -62.5z"/>
<glyph glyph-name="parenright" horiz-adv-x="340" unicode=")" d="M14 -271l-10 16q42 23 83 62.5t79.5 95t62.5 131.5t24 158q0 81 -24 156.5t-62.5 131.5t-80 96t-82.5 62l10 16q43 -23 86 -63t84 -97t66.5 -136.5t25.5 -165.5t-25.5 -165t-66.5 -136.5t-84 -97.5t-86 -64z"/>
<glyph glyph-name="asterisk" horiz-adv-x="316" unicode="*" d="M200 324l-45 44l-1 100q0 2 -3 3t-4 0l-58 -79l-62 -10q-1 0 -3.5 3t-2.5 4l28 57l93 30q2 2 2 5t-2 5l-93 33l-29 54q-1 1 1 4.5t4 3.5l64 -7l57 -84q1 -1 5 0t4 3l4 103l43 41h1l7 -2l13 -60l-62 -84q0 -3 5 -8l99 31l52 -31q1 0 1 -3q0 -5 -1 -5l-52 -29l-99 31 q0 1 -1.5 -0.5t-2.5 -4t-1 -3.5l59 -84l-11 -58q0 -3 -9 -3z"/>
<glyph glyph-name="plus" d="M213 27v198h-198l3 22h195v198h22v-198h195l3 -22h-198v-198h-22z" unicode="+"/>
<glyph glyph-name="comma" horiz-adv-x="181" unicode="," d="M34 -127l-9 8q79 45 79 112q0 27 -17.5 43t-37.5 16q-10 0 -17 -4q-3 8 -3 15q0 19 14.5 33t39.5 14q32 0 54 -22t22 -59q0 -45 -37 -88.5t-88 -67.5z"/>
<glyph glyph-name="hyphen" horiz-adv-x="294" unicode="-" d="M23 219l3 37h245l-1 -37h-247z"/>
<glyph glyph-name="period" horiz-adv-x="197" unicode="." d="M99 -13q-24 0 -40 16t-16 38q0 21 16 37t40 16q23 0 38.5 -15.5t15.5 -37.5t-15.5 -38t-38.5 -16z"/>
<glyph glyph-name="slash" horiz-adv-x="258" unicode="/" d="M14 -236l211 876h21l-211 -876h-21z"/>
<glyph glyph-name="zero" horiz-adv-x="539" unicode="0" d="M272 8q70 0 114.5 64t44.5 158q0 101 -44.5 166t-118.5 65q-70 0 -115 -63t-45 -153q0 -108 43.5 -172.5t120.5 -64.5zM269 -12q-102 0 -169 69.5t-67 176.5q0 108 68 179t170 71q100 0 167 -70.5t67 -177.5q0 -109 -66.5 -178.5t-169.5 -69.5z"/>
<glyph glyph-name="one" horiz-adv-x="333" unicode="1" d="M58 0l3 15l46 4q34 1 34 16v396l-107 11l3 12l170 25v-446q0 -12 42 -14l44 -4l3 -15h-238z"/>
<glyph glyph-name="two" horiz-adv-x="437" unicode="2" d="M24 0l-3 20q154 124 207 183.5t53 119.5q0 46 -28.5 76t-74.5 30q-81 0 -131 -86l-11 6q68 134 179 134q57 0 96 -36t39 -89q0 -63 -52 -119.5t-185 -163.5q-11 -8 -17 -13v-2h189q49 0 72.5 20.5t44.5 76.5l8 22l14 -1l-33 -178h-367z"/>
<glyph glyph-name="three" horiz-adv-x="400" unicode="3" d="M119 -201q-53 0 -82.5 20.5t-29.5 48.5q0 19 13 32t33 13q26 0 42.5 -21t16.5 -52q0 -2 -0.5 -5.5t-0.5 -5.5l16 -3q16 -4 25 -4q61 0 107.5 44.5t46.5 117.5q0 67 -38.5 108t-106.5 41q-37 0 -85 -19l-6 12q11 7 36.5 23.5t34.5 22.5t29 19.5t27.5 20.5t21 19t18.5 21 t12 21.5t9 24.5t2 26q0 46 -29.5 76t-76.5 30q-82 0 -129 -86l-11 7q63 132 179 132q58 0 97 -36.5t39 -89.5q0 -52 -35.5 -90t-104.5 -81v-2h7q81 0 128.5 -45.5t47.5 -117.5q0 -87 -74.5 -154.5t-178.5 -67.5z"/>
<glyph glyph-name="four" horiz-adv-x="460" unicode="4" d="M59 70h214v308h-2zM273 -184v199h-263l-1 12l309 448h19v-405l117 -1l-16 -54h-101v-199h-64z"/>
<glyph glyph-name="five" horiz-adv-x="389" unicode="5" d="M96 -201q-53 0 -81.5 17t-28.5 48q0 18 13 30.5t33 12.5q25 0 41.5 -23t20.5 -55q22 -6 39 -6q59 0 105.5 49t46.5 118q0 77 -64.5 130t-176.5 74l70 275h249l-13 -70h-234l-37 -144q129 -26 198 -86t69 -143q0 -90 -74 -158.5t-176 -68.5z"/>
<glyph glyph-name="six" horiz-adv-x="483" unicode="6" d="M254 5q58 0 93 46t35 123q0 73 -40.5 122.5t-100.5 49.5q-75 0 -128 -59q-8 -16 -8 -59q0 -95 40.5 -159t108.5 -64zM246 -13q-98 0 -156.5 69.5t-58.5 175.5q0 162 122 283t302 138l3 -13q-140 -23 -228 -115t-116 -216l1 -2q73 78 164 78q77 0 126 -53t49 -133 q0 -94 -61.5 -153t-146.5 -59z"/>
<glyph glyph-name="seven" horiz-adv-x="424" unicode="7" d="M83 -184l289 583l-1 5h-201q-65 0 -87.5 -12.5t-34.5 -53.5q-8 -23 -9 -25l-15 1l19 155h367l2 -15l-273 -638h-56z"/>
<glyph glyph-name="eight" horiz-adv-x="465" unicode="8" d="M243 3q61 0 96.5 34.5t35.5 88.5q0 33 -14 60t-43 49t-54.5 36t-66.5 33q-98 -52 -98 -152q0 -63 39.5 -106t104.5 -43zM272 345q76 50 76 135q0 57 -34.5 101t-89.5 44q-49 0 -80.5 -35.5t-31.5 -82.5q0 -56 40.5 -91t119.5 -71zM230 -14q-84 0 -141 47t-57 117 q0 54 41.5 97t109.5 64v1q-64 34 -97.5 69.5t-33.5 87.5q0 65 52.5 118.5t131.5 53.5q75 0 126.5 -45.5t51.5 -113.5q0 -44 -35 -82t-93 -61v-1q73 -37 110.5 -75.5t37.5 -99.5q0 -74 -58.5 -125.5t-145.5 -51.5z"/>
<glyph glyph-name="nine" horiz-adv-x="483" unicode="9" d="M240 127q78 0 129 59q9 27 9 60q0 94 -41 158.5t-109 64.5q-58 0 -93.5 -46t-35.5 -121q0 -74 41 -124.5t100 -50.5zM27 -178l-3 13q140 23 227.5 114.5t116.5 215.5h-2q-72 -77 -162 -77q-77 0 -126 53.5t-49 134.5q0 93 61.5 152t146.5 59q96 0 155 -70t59 -176 q0 -162 -122 -282t-302 -137z"/>
<glyph glyph-name="colon" horiz-adv-x="195" unicode=":" d="M99 -13q-24 0 -40 16t-16 38q0 21 16 36t40 15q23 0 38.5 -15t15.5 -36q0 -22 -15.5 -38t-38.5 -16zM99 294q-23 0 -39.5 16.5t-16.5 38.5q0 21 16 36t40 15q23 0 38.5 -15t15.5 -36q0 -22 -15.5 -38.5t-38.5 -16.5z"/>
<glyph glyph-name="semicolon" horiz-adv-x="181" unicode=";" d="M34 -126l-9 7q79 47 79 112q0 28 -17 43.5t-38 15.5q-10 0 -17 -4q-3 8 -3 15q0 19 14.5 32.5t39.5 13.5q32 0 54 -22t22 -58q0 -46 -36.5 -88.5t-88.5 -66.5zM94 294q-24 0 -40 16t-16 38q0 21 16 36.5t40 15.5q23 0 38.5 -15.5t15.5 -36.5q0 -22 -15.5 -38t-38.5 -16z "/>
<glyph glyph-name="less" horiz-adv-x="438" unicode="&lt;" d="M410 35l-397 193v14l397 193l8 -20l-368 -177v-4l368 -179z"/>
<glyph glyph-name="equal" d="M26 138l3 22h390l3 -22h-396zM29 311l-3 22h396l-3 -22h-390z" unicode="="/>
<glyph glyph-name="greater" horiz-adv-x="438" unicode="&gt;" d="M425 228l-397 -193l-8 20l368 179v4l-368 177l8 20l397 -193v-14z"/>
<glyph glyph-name="question" horiz-adv-x="315" unicode="?" d="M145 -14q-23 0 -38.5 16t-15.5 37q0 20 15.5 35t38.5 15t38 -15t15 -35q0 -22 -15 -37.5t-38 -15.5zM142 179q-78 66 -78 116q0 41 22.5 61.5t82.5 46.5q55 24 76 38.5t21 36.5q0 36 -39 65t-115 29q-32 0 -68 -9q-10 13 -10 38q0 39 68 39q79 0 131 -54t52 -124 q0 -51 -20.5 -73.5t-77.5 -48.5q-4 -2 -15 -6.5t-15 -6.5t-12.5 -6.5t-12 -7t-9.5 -6.5t-8.5 -8t-6 -9t-4.5 -10.5t-1 -12.5q0 -36 54 -88h-15z"/>
<glyph glyph-name="at" horiz-adv-x="786" unicode="@" d="M306 106q26 0 68.5 52.5t87.5 135.5q21 42 21 58q-3 24 -28.5 49t-53.5 25q-26 0 -48 -22q-35 -33 -66 -105t-31 -126q0 -30 15 -48.5t35 -18.5zM392 -110q-157 0 -259 98t-102 251v6q2 163 116 279.5t273 116.5h2q145 -1 241 -90t96 -225q0 -110 -69 -191.5t-157 -81.5 q-51 0 -76.5 22t-25.5 54q0 16 10 59.5t19 61.5h-5q-59 -94 -100.5 -141t-78.5 -47q-35 0 -60.5 26t-25.5 63q0 62 44 137t100 126q51 49 100 49q27 0 44.5 -24t20.5 -63h4l35 103l57 -3l-65 -174l-30 -117q-12 -31 -12 -53q0 -48 66 -48q72 0 129.5 71.5t57.5 170.5 q0 129 -91.5 213t-228.5 85h-2q-152 0 -261 -113t-109 -270q0 -146 97 -240t248 -94q83 0 154 39t109 100l9 -13q-40 -63 -113.5 -103t-160.5 -40z"/>
<glyph glyph-name="A" horiz-adv-x="616" unicode="A" d="M370 279l-87 265h-3q-93 -265 -94 -265h184zM180 259l-47 -132q-20 -60 -20 -75q0 -17 12.5 -24t45.5 -10l32 -3l3 -15h-214l3 15l25 3q38 5 55.5 31t60.5 142l133 372l-8 29q14 5 32 19.5t24 26.5h11l185 -547q15 -45 26.5 -58t38.5 -15l38 -3l3 -15h-258l3 15l41 3 q37 2 37 31q0 10 -7 33l-58 177h-197z"/>
<glyph glyph-name="B" horiz-adv-x="566" unicode="B" d="M194 346h60q75 1 116 38t41 92q0 130 -160 130h-57v-260zM268 17l25 2q72 4 111 45.5t39 102.5q0 72 -51 116.5t-133 44.5q-43 0 -65 -2v-293zM29 0l3 15l43 4q40 4 40 15v559q0 10 -47 14l-35 3l-3 15h242q114 0 169.5 -37.5t55.5 -97.5q0 -56 -43.5 -95t-133.5 -53v-3 q100 -6 154 -52.5t54 -114.5q0 -80 -67 -126t-188 -46h-244z"/>
<glyph glyph-name="C" horiz-adv-x="666" unicode="C" d="M376 -15q-150 0 -246.5 88.5t-96.5 233.5q0 147 97.5 240t251.5 93q86 0 162 -36l59 23l6 -189h-16l-65 145q-52 39 -149 39q-119 0 -189.5 -86.5t-70.5 -218.5q0 -140 72.5 -226.5t189.5 -86.5q70 0 115 27.5t84 84.5l29 70h17l-33 -163l-36 -1q-83 -37 -181 -37z"/>
<glyph glyph-name="D" horiz-adv-x="658" unicode="D" d="M272 18q128 3 199 84.5t71 200.5q0 135 -74 220t-216 85h-58v-574zM29 0l3 15l43 4q40 4 40 15v560q0 9 -47 13l-35 3l-3 15l238 3h5q168 0 261 -82.5t93 -219.5q0 -142 -100.5 -234t-278.5 -92h-219z"/>
<glyph glyph-name="E" horiz-adv-x="577" unicode="E" d="M28 0l3 15l43 4q41 4 41 15v560q0 9 -46 13l-37 3l-3 15h466l13 -178h-16l-10 41q-16 47 -32 69.5t-53 36.5t-102 14h-101v-275l69 1q68 2 90 13t33 49l10 29l14 -1l-20 -202l-14 1l-2 28q-3 41 -22.5 51.5t-93.5 12.5l-64 1v-295l109 -3q71 0 114.5 18.5t60.5 42 t35 67.5l12 39l17 -1l-34 -184h-480z"/>
<glyph glyph-name="F" horiz-adv-x="546" unicode="F" d="M28 0l3 15l45 4q39 4 39 15v560q0 5 -7.5 7.5t-37.5 5.5l-38 3l-3 15h468l14 -181h-17l-9 39q-12 36 -22 55t-31 37.5t-55 25.5t-88 7h-95v-281l64 1q68 1 89.5 12.5t33.5 49.5l10 28h14l-20 -202l-14 1l-2 28q-3 41 -22.5 51.5t-93.5 12.5l-59 1v-277q0 -12 46 -15 l58 -3l3 -15h-273z"/>
<glyph glyph-name="G" horiz-adv-x="692" unicode="G" d="M375 -14q-150 0 -246 87.5t-96 231.5q0 147 98.5 241t252.5 94q89 0 159 -35l58 22l3 -188h-16l-61 144q-50 39 -148 39q-117 0 -188.5 -88t-71.5 -219q0 -138 74 -224.5t190 -86.5q84 0 134 33v205q0 9 -49 13l-48 4l-3 14h261l-3 -14l-43 -5q-39 -4 -39 -15v-188l56 2 l1 -11q-160 -56 -275 -56z"/>
<glyph glyph-name="H" horiz-adv-x="723" unicode="H" d="M29 0l3 15l43 4q40 4 40 15v560q0 9 -47 13l-35 3l-3 15h252l-3 -15l-46 -4q-39 -4 -39 -15v-263h335v266q0 5 -8.5 7.5t-38.5 5.5l-38 3l-3 15h252l-3 -15l-43 -4q-40 -4 -40 -15v-560q0 -5 8.5 -7.5t38.5 -5.5l35 -3l3 -15h-251l3 15l45 4q40 4 40 15v275h-335v-278 q0 -9 46 -13l38 -3l3 -15h-252z"/>
<glyph glyph-name="I" horiz-adv-x="329" unicode="I" d="M34 0l3 15l49 4q39 4 39 15v560q0 9 -46 13l-41 3l-3 15h260l-3 -15l-48 -4q-40 -4 -40 -15v-560q0 -5 8.5 -7.5t38.5 -5.5l40 -3l3 -15h-260z"/>
<glyph glyph-name="J" horiz-adv-x="325" unicode="J" d="M34 -121q-35 0 -57.5 16t-22.5 41q0 21 14 34.5t36 13.5q23 0 37 -16t14 -37q0 -18 -9 -31q90 0 90 186v508q0 10 -47 13l-42 3l-3 15h260l-3 -15l-47 -4q-40 -4 -40 -15v-513q0 -62 -55.5 -130.5t-124.5 -68.5z"/>
<glyph glyph-name="K" horiz-adv-x="650" unicode="K" d="M29 0l3 15l44 4q39 4 39 15v560q0 5 -7.5 7.5t-38.5 5.5l-36 3l-3 15h255l-3 -15l-49 -4q-39 -4 -39 -15v-318l185 189q101 101 101 124q0 16 -48 21l-44 3l-2 15h239l-3 -15l-22 -2q-42 -4 -63.5 -20.5t-130.5 -127.5l-67 -68l203 -313q25 -41 36 -50t38 -12l28 -2 l3 -15h-242l3 15l32 3q27 1 27 19q0 15 -17 44l-163 259l-93 -93v-216q0 -9 46 -13l41 -3l3 -15h-255z"/>
<glyph glyph-name="L" horiz-adv-x="547" unicode="L" d="M29 0l3 15l45 4q38 4 38 15v560q0 5 -7.5 7.5t-37.5 5.5l-37 3l-3 15h269l-3 -15l-63 -4q-39 -4 -39 -15v-570l89 -3q53 0 88 8t57 28t33 39t26 56l13 46h18l-34 -195h-455z"/>
<glyph glyph-name="M" horiz-adv-x="822" unicode="M" d="M18 0l3 15l38 3q33 2 45.5 13t13.5 41l15 508q-11 21 -51 26l-42 4l-3 15h184l194 -509h2l198 509h181l-3 -15l-58 -3q-33 -4 -35 -17l11 -531q1 -23 9 -31t36 -10l41 -3l3 -15h-256l3 15l54 4q19 1 26 9.5t7 27.5v5l-12 518h-3l-226 -573h-16l-209 550q-2 5 -8.5 13.5 t-7.5 9.5l-12 -508v-5q0 -26 15.5 -36t54.5 -12l33 -3l3 -15h-228z"/>
<glyph glyph-name="N" horiz-adv-x="697" unicode="N" d="M572 -5l-429 562h-2l1 -485q0 -28 14 -39t51 -15l34 -3l3 -15h-217l3 15l35 3q30 3 43.5 14.5t13.5 41.5l1 484q-19 39 -72 49l-28 4l-3 15h168l383 -505h2l-1 433q0 28 -13.5 38t-51.5 15l-34 3l-3 15h216l-3 -15l-34 -3q-30 -3 -43.5 -14.5t-13.5 -40.5l-1 -557h-19z "/>
<glyph glyph-name="O" horiz-adv-x="721" unicode="O" d="M363 4q107 0 173 82.5t66 223.5q0 138 -69.5 225t-174.5 87q-106 0 -172.5 -84t-66.5 -225q0 -138 69 -223.5t175 -85.5zM359 -14q-141 0 -233.5 90.5t-92.5 233.5q0 132 97.5 230.5t231.5 98.5q141 0 234 -91.5t93 -234.5q0 -131 -97.5 -229t-232.5 -98z"/>
<glyph glyph-name="P" horiz-adv-x="543" unicode="P" d="M280 306q73 0 113.5 39.5t40.5 110.5q0 151 -160 151h-9h-71v-290q40 -11 86 -11zM19 0l3 15l53 4q40 4 40 15v560q0 9 -46 13l-46 3l-3 15h265q114 0 173.5 -41.5t59.5 -113.5q0 -82 -66.5 -131.5t-170.5 -49.5q-41 0 -87 6v-264q0 -10 46 -13l58 -3l3 -15h-282z"/>
<glyph glyph-name="Q" horiz-adv-x="721" unicode="Q" d="M363 4q107 0 173 82.5t66 223.5q0 138 -69.5 225t-174.5 87q-106 0 -172.5 -84t-66.5 -225q0 -138 69 -223.5t175 -85.5zM620 -179q-60 0 -105.5 12t-89.5 50t-71 103q-139 2 -230 92.5t-91 231.5q0 132 97.5 230.5t231.5 98.5q141 0 234 -91.5t93 -234.5 q0 -109 -69 -197.5t-175 -117.5q39 -84 91 -118t129 -34q29 0 72 5l2 -14q-54 -16 -119 -16z"/>
<glyph glyph-name="R" horiz-adv-x="612" unicode="R" d="M285 318q65 2 103.5 40t38.5 105t-42 105.5t-122 38.5h-14l-55 -2v-273q39 -14 91 -14zM19 0l3 15l53 4q40 4 40 15v560q0 9 -47 13l-45 3l-3 15h257q114 0 174 -41.5t60 -116.5q0 -59 -43 -103t-112 -61l144 -221q27 -38 43.5 -50.5t44.5 -13.5l23 -3l4 -15h-156l-17 30 l-166 269q-64 7 -82 14v-282q0 -6 46 -13l46 -3l3 -15h-270z"/>
<glyph glyph-name="S" horiz-adv-x="488" unicode="S" d="M233 -14h-6q-81 0 -177 32l-11 152h16l27 -76q48 -90 156 -90q67 0 108 39t41 99q0 58 -37.5 92.5t-118.5 61.5q-81 28 -125 67t-44 106q0 71 52.5 120.5t140.5 49.5q62 0 121 -19l44 12l6 -165h-15l-54 122q-50 32 -106 32q-57 0 -92 -33t-35 -82q0 -53 36.5 -82.5 t111.5 -56.5q89 -31 136 -73t47 -116q0 -78 -63 -135t-159 -57z"/>
<glyph glyph-name="T" horiz-adv-x="625" unicode="T" d="M174 0l3 15l56 4q40 4 40 15v574h-47q-67 -3 -103.5 -31.5t-62.5 -81.5l-13 -43h-18l34 173h507l21 -173h-16l-10 42q-26 62 -60 87t-106 27h-47v-577q0 -9 46 -13l50 -3l3 -15h-277z"/>
<glyph glyph-name="U" horiz-adv-x="679" unicode="U" d="M350 -14q-125 0 -183 54t-58 176v378q0 8 -47 13l-45 4l-3 15h268l-3 -15l-52 -4q-40 -4 -40 -16v-365q0 -106 48 -154.5t144 -48.5q89 0 136 54.5t47 159.5l-1 317q0 28 -16 39t-54 14l-34 4l-3 15h221l-3 -15l-35 -4q-30 -3 -43 -14.5t-13 -40.5l-1 -317 q0 -120 -57.5 -184.5t-172.5 -64.5z"/>
<glyph glyph-name="V" horiz-adv-x="623" unicode="V" d="M302 -11l-204 546q-17 47 -27 58.5t-38 13.5l-39 4l-3 15h257l-3 -15l-44 -3q-20 -1 -28.5 -5.5t-8.5 -17.5q0 -11 8 -35l170 -463h3l142 398q22 64 22 85q0 19 -13.5 27t-47.5 11l-29 3l-3 15h216l-3 -15l-26 -4q-26 -3 -39 -13t-27.5 -39t-39.5 -99l-168 -467h-27z"/>
<glyph glyph-name="W" horiz-adv-x="967" unicode="W" d="M294 -11l-195 546q-16 45 -26.5 57t-39.5 15l-38 3l-3 15h256l-3 -15l-41 -2q-20 -1 -28.5 -6t-8.5 -18q0 -10 8 -34l160 -460h2l143 376l-25 69q-16 44 -27.5 56.5t-40.5 15.5l-38 3l-3 15h255l-3 -15l-41 -2q-36 -2 -36 -25q0 -13 7 -33l164 -458h2l132 389 q23 66 23 86q0 19 -14 27.5t-48 11.5l-32 4l-3 15h216l-3 -15l-24 -3q-36 -5 -51 -27.5t-50 -123.5l-162 -467h-23l-164 451h-1l-172 -451h-24z"/>
<glyph glyph-name="X" horiz-adv-x="627" unicode="X" d="M-5 0l3 15l27 2q37 3 59 21.5t67 82.5l128 185l-155 228q-29 44 -41.5 57.5t-34.5 15.5l-36 3l-4 15h256l-2 -14l-44 -2q-30 -1 -30 -18q0 -16 28 -60l112 -169h1l99 148q33 50 33 70q0 21 -46 27l-36 3l-4 15h230l-3 -15l-28 -2q-37 -3 -59 -20.5t-64 -79.5l-111 -161 l187 -276q26 -39 36 -45t27 -8l35 -3l3 -15h-255l3 15l43 2q32 1 32 18q0 13 -17 39l-143 216h-1l-29 -42l-58 -86l-29 -43q-34 -52 -34 -73q0 -22 46 -27l35 -4l3 -15h-229z"/>
<glyph glyph-name="Y" horiz-adv-x="607" unicode="Y" d="M165 0l3 15l57 4q40 4 40 15v241l-160 273q-18 32 -32.5 44.5t-40.5 14.5l-34 3l-3 15h256l-3 -15l-38 -2q-34 -1 -34 -20q0 -13 19 -46l135 -236h3l108 196q30 57 30 75q0 25 -49 31l-32 2l-3 15h215l-3 -15l-28 -2q-33 -4 -52 -21.5t-53 -80.5l-123 -218v-257 q0 -5 8.5 -7.5t39.5 -5.5l49 -3l3 -15h-278z"/>
<glyph glyph-name="Z" horiz-adv-x="562" unicode="Z" d="M32 0v12l397 593v3h-148q-100 0 -141 -30t-64 -96l-9 -37h-16l14 180h457v-13l-395 -591v-3l157 -1q77 0 122 18t63 44.5t36 77.5l12 41h19l-29 -198h-475z"/>
<glyph glyph-name="bracketleft" horiz-adv-x="325" unicode="[" d="M66 -238v871h246v-19h-224v-833h224v-19h-246z"/>
<glyph glyph-name="backslash" horiz-adv-x="246" unicode="\" d="M210 -236l-211 876h21l211 -876h-21z"/>
<glyph glyph-name="bracketright" horiz-adv-x="325" unicode="]" d="M13 -238v19h223v833h-223v19h246v-871h-246z"/>
<glyph glyph-name="asciicircum" horiz-adv-x="379" unicode="^" d="M55 489l128 190h13l128 -190h-11l-122 117h-2l-123 -117h-11z"/>
<glyph glyph-name="underscore" horiz-adv-x="453" unicode="_" d="M11 -35l3 36h425l3 -36h-431z"/>
<glyph glyph-name="grave" horiz-adv-x="379" unicode="`" d="M225 497l-179 185h83l105 -185h-9z"/>
<glyph glyph-name="a" horiz-adv-x="412" unicode="a" d="M171 34q47 0 95 45l5 157q-98 -24 -134.5 -54.5t-36.5 -73.5q0 -34 20 -54t51 -20zM329 -12q-27 0 -44.5 19t-18.5 53l-2 1q-70 -72 -127 -72q-45 0 -76 29t-31 71q0 55 53.5 92.5t188.5 70.5l1 34v9q0 121 -99 121q-28 0 -55.5 -12.5t-27.5 -21.5q0 -1 11.5 -17 t11.5 -31q0 -16 -12 -28t-32 -12q-19 0 -31.5 10.5t-12.5 28.5q0 36 65 73.5t124 37.5q66 0 97 -30t31 -106q0 -3 -0.5 -10.5t-0.5 -11.5l-10 -213q-1 -41 30 -41q17 0 47 28l8 -9q-51 -63 -88 -63z"/>
<glyph glyph-name="b" horiz-adv-x="483" unicode="b" d="M249 6q60 0 96.5 55.5t36.5 142.5q0 81 -39 134t-101 53q-64 0 -119 -59v-246q21 -35 54.5 -57.5t71.5 -22.5zM55 -20v605q0 23 -6 31.5t-25 12.5l-39 8l1 11l137 33v-323l3 -2q72 83 154 83q76 0 127.5 -59.5t51.5 -151.5q0 -106 -66.5 -174t-154.5 -68q-67 0 -127 32 h-2l-46 -38h-8z"/>
<glyph glyph-name="c" horiz-adv-x="415" unicode="c" d="M223 -13q-85 0 -142 62.5t-57 154.5q0 101 64 170.5t161 69.5q62 0 102.5 -26t40.5 -66q0 -21 -13.5 -34.5t-31.5 -13.5q-20 0 -33 13t-13 33q0 2 0.5 5t0.5 4q0 13 7 24t7 12q-3 10 -24.5 21t-45.5 11q-62 0 -105 -54.5t-43 -137.5q0 -86 45 -141t113 -55 q44 0 75.5 17.5t57.5 58.5l12 -6q-66 -122 -178 -122z"/>
<glyph glyph-name="d" horiz-adv-x="496" unicode="d" d="M243 34q61 0 116 57v249q-20 35 -53.5 57.5t-70.5 22.5q-61 0 -97.5 -54.5t-36.5 -140.5q0 -82 39.5 -136.5t102.5 -54.5zM359 -16v83l-3 1q-70 -81 -152 -81q-77 0 -128.5 60.5t-51.5 153.5q0 106 67.5 172t158.5 66q57 0 107 -24h2v175q0 23 -6 32t-25 11l-48 8l2 11 l145 29v-625q0 -26 20 -28l50 -8l-1 -11z"/>
<glyph glyph-name="e" horiz-adv-x="426" unicode="e" d="M104 297l216 1q1 55 -22.5 92t-67.5 37q-41 0 -77 -37.5t-49 -92.5zM224 -13q-85 0 -142.5 62.5t-57.5 154.5q0 101 61.5 170.5t154.5 69.5q72 0 114 -39t42 -99q0 -8 -2 -26l-292 2q-4 -24 -4 -48q0 -86 45 -140.5t113 -54.5q86 0 136 76l11 -6q-67 -122 -179 -122z"/>
<glyph glyph-name="f" horiz-adv-x="286" unicode="f" d="M22 0l3 15l27 1q11 1 16 1.5t10.5 2t7 4t1.5 6.5v360l-77 2l12 37h63l2 26q7 102 63 160t127 58q31 0 50 -14t19 -35q0 -17 -12.5 -29t-30.5 -12q-20 0 -36.5 16t-20.5 41l-2 6l-16 2q-72 -25 -72 -179v-40h118l-12 -39h-106v-361q0 -6 6.5 -9t32.5 -4l45 -1l3 -15h-221z "/>
<glyph glyph-name="g" horiz-adv-x="446" unicode="g" d="M218 -226q65 0 111.5 36t46.5 87q0 86 -122 90h-13q-30 0 -100 -5q-27 -10 -51 -38.5t-24 -61.5q0 -48 43 -78t109 -30zM206 160q44 0 71 35t27 93q0 64 -25 102t-73 38q-41 0 -68 -36.5t-27 -92.5q0 -63 26.5 -101t68.5 -38zM175 -249q-76 0 -121 30t-45 81 q0 40 34 72.5t78 50.5v2q-43 5 -70 24t-27 47q0 34 32 61t73 38q1 1 1 2q-39 14 -65 49t-26 80q0 66 48.5 110.5t119.5 44.5q60 0 109 -34l123 16l-6 -47l-97 12l-1 -4q39 -37 39 -91q0 -63 -49.5 -106.5t-121.5 -43.5q-22 0 -55 6q-25 -6 -43 -21t-18 -35q0 -44 78 -44 q13 0 55 1.5t58 1.5q69 0 108 -31t39 -83q0 -82 -70 -135.5t-180 -53.5z"/>
<glyph glyph-name="h" horiz-adv-x="495" unicode="h" d="M9 0l3 15l25 1q20 2 27.5 4.5t7.5 10.5v552q0 24 -6 33t-25 13l-37 8l1 10l136 33v-320l2 -1q33 27 49.5 39.5t51.5 28.5t66 16q47 0 78 -29q33 -34 33 -100v-284q0 -4 1.5 -6t11 -4.5t29.5 -3.5l24 -1l3 -15h-203l3 15l27 1q35 2 35 15v260q0 100 -90 100 q-63 0 -121 -52v-310q0 -6 7.5 -8.5t34.5 -4.5l26 -1l3 -15h-203z"/>
<glyph glyph-name="i" horiz-adv-x="232" unicode="i" d="M17 0l3 15l28 1q20 2 27.5 4.5t7.5 10.5v293q0 40 -7 52.5t-30 16.5l-31 5l2 10l135 34v-413q0 -6 7 -8.5t34 -4.5l25 -1l3 -15h-204zM108 533q-23 0 -36.5 16t-13.5 34q0 20 13 36t37 16q23 0 36 -16t13 -35t-13 -35t-36 -16z"/>
<glyph glyph-name="j" horiz-adv-x="218" unicode="j" d="M-9 -253q-32 0 -50.5 14.5t-18.5 37.5q0 18 13 30t31 12q22 0 38 -17.5t23 -47.5q51 12 51 135v413q0 40 -7 52.5t-30 16.5l-31 5l2 10l135 34v-473q-1 -87 -49 -154.5t-107 -67.5zM103 533q-23 0 -36.5 16t-13.5 34q0 20 13 36t37 16q23 0 36 -16t13 -35t-13 -35 t-36 -16z"/>
<glyph glyph-name="k" horiz-adv-x="464" unicode="k" d="M9 0l3 15l25 1q20 2 27.5 4.5t7.5 10.5v552q0 24 -6 33t-25 13l-37 8l1 10l136 33v-477l108 105q62 58 62 81q0 21 -43 24l-22 2l-2 14h193l-3 -14l-25 -3q-8 -1 -15 -2.5t-15.5 -6.5t-13.5 -8.5t-16.5 -14.5t-17.5 -16.5t-22.5 -22.5t-25.5 -26l-45 -41l133 -205 q20 -31 31 -40.5t35 -11.5l20 -2l3 -15h-133l-19 33l-120 193l-47 -45v-152q0 -6 7 -8.5t34 -4.5l25 -1l3 -15h-201z"/>
<glyph glyph-name="l" horiz-adv-x="229" unicode="l" d="M15 0l2 15l27 1q21 2 28 4.5t7 10.5v537q0 35 -6 46t-26 15l-38 8l1 10l138 33v-651q0 -6 7 -8.5t34 -4.5l25 -1l3 -15h-202z"/>
<glyph glyph-name="m" horiz-adv-x="756" unicode="m" d="M18 0l3 15l26 1q21 2 28.5 4.5t7.5 10.5v292q0 41 -7 53.5t-30 16.5l-31 5l1 10l136 34l-3 -81l3 -1q27 25 44 39t48 29.5t61 15.5q47 0 79 -30q21 -23 27 -56l1 -1q87 87 157 87q49 0 80 -31q32 -34 32 -101v-282q0 -4 2 -6t11 -4t29 -4l23 -1l3 -15h-201l3 15l26 1 q35 2 35 15v261q0 52 -21.5 75.5t-65.5 23.5q-32 0 -63 -15t-45 -36q0 -1 -1 -14v-13v-283q0 -4 2 -6t11 -4t29 -4l25 -1l3 -15h-202l3 15l26 1q34 2 34 15v261q0 99 -85 99q-55 0 -111 -48v-314q0 -6 7.5 -8.5t34.5 -4.5l27 -1l2 -15h-204z"/>
<glyph glyph-name="n" horiz-adv-x="506" unicode="n" d="M18 0l3 15l26 1q21 2 28.5 4.5t7.5 10.5v293q0 40 -7 52.5t-29 16.5l-32 5l1 10l136 34l-2 -83l3 -1q32 26 49.5 39.5t52 29.5t65.5 16q50 0 78 -29q33 -33 33 -101v-283q0 -4 2 -6t11 -4t29 -4l25 -1l3 -15h-202l3 15l26 1q35 2 35 15v260q0 100 -91 100q-62 0 -121 -52 v-310q0 -6 7.5 -8.5t34.5 -4.5l26 -1l3 -15h-204z"/>
<glyph glyph-name="o" horiz-adv-x="495" unicode="o" d="M250 3q61 0 101 59t40 143q0 128 -55 183q-39 39 -90 39q-63 0 -102.5 -58t-39.5 -141q0 -131 57 -188q35 -37 89 -37zM247 -14q-96 0 -159.5 65t-63.5 162t65 164t161 67q95 0 158 -64t63 -160q0 -99 -64.5 -166.5t-159.5 -67.5z"/>
<glyph glyph-name="p" horiz-adv-x="496" unicode="p" d="M262 6q61 0 97 55.5t36 142.5q0 81 -38.5 134t-101.5 53q-65 0 -118 -59v-249q21 -33 54 -55t71 -22zM3 -251l3 15l27 1q36 3 36 14v546q0 39 -7 51.5t-29 16.5l-32 5l1 10l136 34l-1 -84l3 -2q72 83 153 83q77 0 128 -59.5t51 -151.5q0 -106 -66.5 -174t-154.5 -68 q-58 0 -112 25h-2v-234q0 -10 41 -12l43 -1l3 -15h-221z"/>
<glyph glyph-name="q" horiz-adv-x="489" unicode="q" d="M243 34q61 0 116 57v247q-20 35 -53.5 58.5t-70.5 23.5q-61 0 -97.5 -54t-36.5 -139q0 -83 39.5 -138t102.5 -55zM273 -251l3 15l42 1q41 2 41 13v289l-3 1q-70 -81 -152 -81q-77 0 -128.5 60.5t-51.5 153.5q0 106 67.5 172t158.5 66q68 0 124 -33h2l44 42h7v-669 q0 -7 7 -9t30 -5l27 -1l3 -15h-221z"/>
<glyph glyph-name="r" horiz-adv-x="351" unicode="r" d="M18 0l3 15l26 1q21 2 28.5 4.5t7.5 10.5v293q0 40 -7 52.5t-29 16.5l-31 5l1 10l135 34l-2 -156h2q29 80 61 119t74 39q25 0 41 -15t16 -35t-12.5 -34.5t-33.5 -14.5q-19 0 -33.5 13.5t-17.5 37.5q-56 -17 -96 -144v-223q0 -6 7 -9t32 -4l41 -1l3 -15h-216z"/>
<glyph glyph-name="s" horiz-adv-x="363" unicode="s" d="M167 -14q-67 0 -128 23l-9 121h17l21 -58q39 -69 106 -69q44 0 72 24.5t28 62.5t-27.5 60.5t-83.5 41.5q-57 20 -89.5 47.5t-32.5 79.5q0 53 41 89t104 36q46 0 90 -17l32 10l6 -120h-17l-41 84q-34 26 -73 26q-40 0 -63 -20.5t-23 -54.5q0 -19 7 -33.5t23 -25 t31.5 -17.5t43.5 -17q31 -11 49.5 -20t40 -24.5t31.5 -38t10 -52.5q0 -57 -45.5 -97.5t-120.5 -40.5z"/>
<glyph glyph-name="t" horiz-adv-x="316" unicode="t" d="M179 -14q-100 0 -99 105l5 298l-78 2l3 17l134 112l12 -3l-1 -88h148l-12 -38h-136q-7 -289 -7 -290q-1 -70 68 -70q38 0 85 35l6 -10q-72 -70 -128 -70z"/>
<glyph glyph-name="u" horiz-adv-x="484" unicode="u" d="M348 -16l1 86h-2q-29 -25 -48.5 -39.5t-52.5 -29.5t-64 -15q-48 0 -81 30q-31 34 -31 101v283q0 7 -6 9t-37 4l-24 3l-3 14h140l-2 -291q0 -101 92 -101q60 0 117 51v286q0 22 -8 29t-34 9l-26 3l-3 14h141v-370q0 -14 4 -20t16 -7l49 -8l-1 -11z"/>
<glyph glyph-name="v" horiz-adv-x="455" unicode="v" d="M216 -9l-149 371q-14 32 -21.5 40t-27.5 10l-24 3l-3 14h202l-2 -14l-25 -2q-30 -1 -30 -20q0 -9 6 -24l113 -285l90 237q17 46 17 63q0 15 -10.5 20.5t-35.5 7.5l-23 3l-3 14h170l-3 -14l-19 -2q-27 -3 -37.5 -18t-37.5 -82l-125 -322h-22z"/>
<glyph glyph-name="w" horiz-adv-x="702" unicode="w" d="M204 -9l-135 363q-14 37 -22 47t-29 12l-24 2l-2 14h202l-3 -14l-23 -2q-33 -1 -33 -19q0 -7 5 -22l105 -289l97 235l-18 47q-12 29 -20.5 37t-31.5 11l-22 2l-3 14h201l-3 -14l-23 -2q-31 -1 -31 -20q0 -8 5 -21l117 -291l79 236q14 44 14 61t-11 24.5t-36 9.5l-21 3 l-3 14h169l-3 -14l-17 -2q-28 -3 -40 -19.5t-34 -82.5l-109 -320h-23l-126 304l-126 -304h-22z"/>
<glyph glyph-name="x" horiz-adv-x="453" unicode="x" d="M-1 0l3 14l28 4q21 3 38.5 17t44.5 51l84 114l-113 160q-20 29 -32.5 40t-29.5 13l-20 2l-3 14h200l-3 -14l-25 -3q-22 -3 -22 -16q0 -10 14 -32l78 -110h1l68 100q18 26 18 39q0 16 -26 19l-28 3l-3 14h169l-3 -14l-27 -3q-21 -2 -39 -17t-45 -54l-74 -100l122 -172 q22 -29 33.5 -40t27.5 -12l20 -2l3 -15h-200l3 14l24 4q22 3 22 16q0 11 -14 31l-85 123h-1l-78 -114q-18 -26 -18 -39q0 -15 24 -18l31 -3l3 -14h-170z"/>
<glyph glyph-name="y" d="M87 -258q-25 0 -42 13.5t-17 33.5t13 33t33 13q42 0 52 -46q22 6 36.5 31t33.5 82l29 89v1l-159 370q-14 32 -21.5 40t-27.5 10l-24 3l-3 14h201l-2 -14l-23 -2q-30 -1 -30 -20q0 -9 6 -24l117 -283l86 237q15 42 15 59q0 15 -10.5 21.5t-36.5 8.5l-23 3l-3 14h171 l-3 -14l-21 -2q-27 -3 -37.5 -18.5t-34.5 -81.5l-116 -310l-37 -118q-23 -75 -51 -109t-71 -34z" unicode="y"/>
<glyph glyph-name="z" horiz-adv-x="418" unicode="z" d="M21 0v12l276 401h-70q-54 0 -85 -10.5t-45 -28.5t-27 -55l-11 -41h-16l2 151h335v-12l-277 -400l78 -1q78 1 114.5 22t64.5 70l21 43h15l-35 -151h-340z"/>
<glyph glyph-name="braceleft" horiz-adv-x="304" unicode="{" d="M286 -256q-87 5 -139.5 44.5t-52.5 105.5q0 45 20.5 112t20.5 99q0 41 -36 59t-105 23l-5 11l5 11q141 10 141 82q0 32 -20.5 99.5t-20.5 112.5q0 66 52.5 105t139.5 44l2 -13q-72 -9 -104 -34.5t-32 -70.5q0 -33 21.5 -101t21.5 -111q0 -49 -42.5 -81t-110.5 -41v-4 q69 -9 111 -41.5t42 -81.5q0 -42 -21.5 -110t-21.5 -100q0 -45 32 -71t104 -35z"/>
<glyph glyph-name="bar" horiz-adv-x="190" unicode="|" d="M86 -207v877h18v-877h-18z"/>
<glyph glyph-name="braceright" horiz-adv-x="304" unicode="}" d="M6 -256l-1 13q72 9 103.5 35t31.5 71q0 32 -21 100t-21 110q0 49 42 81.5t110 41.5v4q-67 9 -109.5 41t-42.5 81q0 43 21 111t21 101q0 45 -31.5 70.5t-103.5 34.5l1 13q88 -5 140.5 -44t52.5 -105q0 -45 -21 -112.5t-21 -99.5q0 -72 141 -82l5 -11l-5 -11 q-69 -5 -105 -23t-36 -59q0 -32 21 -99t21 -112q0 -66 -52.5 -105.5t-140.5 -44.5z"/>
<glyph glyph-name="asciitilde" horiz-adv-x="379" unicode="~" d="M262 155q-30 0 -86 32t-73 32q-20 0 -31.5 -11.5t-17.5 -44.5h-12q7 54 24.5 78t51.5 24q29 0 85.5 -31.5t73.5 -31.5q19 0 31 11.5t18 44.5h11q-7 -53 -24.5 -78t-50.5 -25z"/>
<glyph glyph-name="nbspace" horiz-adv-x="139" unicode=" "/>
<glyph glyph-name="exclamdown" horiz-adv-x="248" unicode="¡" d="M120 -19q-38 0 -38 35q0 9 1 14l35 408q1 4 6 4t6 -4l36 -408q0 -2 0.5 -6t0.5 -6q0 -37 -38 -37h-9zM124 531q-23 0 -38.5 15t-15.5 36t15.5 37t38.5 16t38.5 -16t15.5 -37t-15.5 -36t-38.5 -15z"/>
<glyph glyph-name="cent" horiz-adv-x="416" unicode="¢" d="M200 50l98 363q-21 14 -53 14q-62 0 -104.5 -53.5t-42.5 -138.5q0 -66 28 -115.5t74 -69.5zM144 -160l41 151q-71 15 -116.5 75.5t-45.5 140.5q0 100 64.5 168.5t161.5 68.5q31 0 55 -6l48 175h17l-49 -180q68 -23 68 -73q0 -18 -13 -30.5t-29 -12.5q-38 0 -45 41 l-85 -314q26 -6 41 -6q83 0 133 77l11 -6q-68 -123 -177 -123q-7 0 -23 2l-40 -148h-17z"/>
<glyph glyph-name="sterling" horiz-adv-x="498" unicode="£" d="M158 57q-53 30 -85 30q-25 0 -40 -12t-15 -33q0 -19 15 -30.5t38 -11.5q50 0 87 57zM163 283h-109l3 18h102q-11 51 -11 87q0 101 61.5 172t159.5 71q48 0 77 -19t29 -52q0 -17 -13 -30.5t-31 -13.5q-20 0 -31.5 13.5t-11.5 33.5q0 13 7 29q-20 18 -56 18 q-51 0 -86.5 -41.5t-35.5 -115.5q0 -21 2.5 -45t7 -56.5t6.5 -50.5h129l3 -18h-130q4 -28 4 -65q0 -66 -38 -132q9 -3 40.5 -13t46 -14t37.5 -8.5t41 -4.5q44 0 67 25t32 90l12 -2q-2 -76 -38.5 -124.5t-94.5 -48.5q-31 0 -64.5 11t-52 20.5t-52.5 29.5q-49 -61 -104 -61 q-30 0 -48.5 15.5t-18.5 40.5q0 30 23.5 48.5t67.5 18.5q33 0 81 -15q10 30 10 57q0 26 -23 132z"/>
<glyph glyph-name="currency" d="M108 359q0 -48 34 -82t82 -34t82 34t34 82t-34 82t-82 34t-82 -34t-34 -82zM78 199l-14 14l57 57q-33 38 -33 89t33 89l-57 57l14 14l57 -57q40 33 89 33t89 -33l57 57l14 -14l-57 -57q33 -40 33 -89t-33 -89l57 -57l-14 -14l-57 57q-38 -33 -89 -33t-89 33z" unicode="¤"/>
<glyph glyph-name="yen" horiz-adv-x="600" unicode="¥" d="M164 0l3 15l59 5q38 4 38 15v123h-189l3 18h186v111h-187l-1 18h179l-144 244q-20 32 -34 44t-39 14l-34 3l-3 15h254l-3 -15l-38 -2q-35 -1 -35 -19q0 -15 20 -47l131 -227h3l104 192q26 52 26 70q0 14 -11.5 20.5t-38.5 10.5l-32 2l-3 15h215l-3 -15l-27 -2 q-34 -4 -51 -19.5t-51 -78.5q-113 -205 -114 -205h180l-1 -18h-185v-111h184l3 -18h-187v-125q0 -9 45 -14l52 -4l3 -15h-277z"/>
<glyph glyph-name="brokenbar" horiz-adv-x="190" unicode="¦" d="M86 -154v335h18v-335h-18zM86 292v335h18v-335h-18z"/>
<glyph glyph-name="section" horiz-adv-x="401" unicode="§" d="M286 160q50 31 50 76q0 38 -26 64t-78 55q-11 6 -32.5 18.5t-33 19.5t-26 17.5t-24.5 20.5q-22 -11 -37 -31.5t-15 -43.5q0 -37 26 -63.5t78 -55.5q90 -51 118 -77zM176 -50q-51 0 -85 20.5t-34 49.5q0 16 10.5 28.5t27.5 12.5q19 0 30 -13.5t11 -32.5q0 -12 -5 -25 q23 -23 62 -23q36 0 58.5 25.5t22.5 58.5q0 19 -9 35t-29.5 32t-36.5 25.5t-48 27.5q-42 24 -66 41t-45.5 47t-21.5 64q0 73 89 117q-26 32 -26 72q0 50 40 89t101 39q50 0 81 -20t31 -50q0 -16 -11.5 -28.5t-28.5 -12.5q-19 0 -29.5 14t-10.5 33q0 13 4 24q-21 23 -52 23 q-36 0 -58 -25t-22 -57q0 -19 8.5 -35.5t31 -33t35.5 -24.5t48 -28q31 -17 50 -29.5t41 -31.5t32.5 -41t10.5 -47q0 -73 -89 -120q27 -31 27 -72q0 -50 -41.5 -89.5t-103.5 -39.5z"/>
<glyph glyph-name="dieresis" horiz-adv-x="379" unicode="¨" d="M103 517q-22 0 -34.5 15t-12.5 33t12.5 34.5t34.5 16.5q23 0 35.5 -16.5t12.5 -34.5t-12.5 -33t-35.5 -15zM276 517q-22 0 -35 15t-13 33t13 34.5t35 16.5t34.5 -16.5t12.5 -34.5t-12.5 -33t-34.5 -15z"/>
<glyph glyph-name="copyright" horiz-adv-x="713" unicode="©" d="M367 118q-90 0 -146.5 53t-56.5 138t57 140.5t146 55.5q56 0 98 -21l36 14l4 -115h-10l-42 85q-32 24 -88 24q-66 0 -107 -50t-41 -126q0 -82 43 -133.5t111 -51.5q41 0 66.5 16.5t47.5 51.5l20 41h10l-19 -101l-22 -2q-46 -19 -107 -19zM357 2q127 0 218 91.5t91 219.5 t-91 219.5t-218 91.5q-128 0 -219 -91.5t-91 -219.5t91 -219.5t219 -91.5zM357 -14q-136 0 -231.5 95.5t-95.5 231.5t95.5 232t231.5 96t231.5 -96t95.5 -232t-95.5 -231.5t-231.5 -95.5z"/>
<glyph glyph-name="ordfeminine" horiz-adv-x="315" unicode="ª" d="M135 324q31 0 70 35l3 111q-71 -17 -99 -39.5t-28 -51.5q0 -25 14.5 -40t39.5 -15zM204 345q-57 -59 -106 -59q-32 0 -54.5 21.5t-22.5 51.5q0 81 187 124l2 34q1 50 -22 72t-58 22q-21 0 -38.5 -9t-17.5 -16l8 -14q8 -13 8 -23q0 -12 -10 -21.5t-25 -9.5t-25 9.5 t-10 24.5q0 27 51 55.5t99 28.5q97 0 97 -99v-8l-7 -170q-1 -37 25 -37q15 0 37 20l3 -6q-35 -50 -70 -50q-46 0 -51 59z"/>
<glyph glyph-name="guillemotleft" horiz-adv-x="427" unicode="«" d="M220 61l-203 152v17l202 152l5 -8l-130 -152l131 -153zM399 47l-206 166v17l206 166l5 -8l-136 -166l136 -166z"/>
<glyph glyph-name="logicalnot" d="M418 312v-180h-22v158h-382l3 22h401z" unicode="¬"/>
<glyph glyph-name="uni00AD" horiz-adv-x="294" unicode="­" d="M23 219l3 37h245l-1 -37h-247z"/>
<glyph glyph-name="registered" horiz-adv-x="713" unicode="®" d="M349 318q40 2 63.5 23.5t23.5 60.5t-24.5 60.5t-71.5 21.5h-11l-31 -1v-156q23 -9 51 -9zM191 130l2 12l34 4q22 2 22 10v318q0 7 -26 9l-29 3l-3 13h157q68 0 104 -25.5t36 -69.5q0 -35 -25.5 -61.5t-65.5 -35.5l83 -127q14 -21 24 -27.5t28 -8.5l16 -2l3 -12h-97l-9 17 l-98 157q-30 3 -49 8v-158q0 -7 27 -9l31 -3l2 -12h-167zM357 2q127 0 218 91.5t91 219.5t-91 219.5t-218 91.5q-128 0 -219 -91.5t-91 -219.5t91 -219.5t219 -91.5zM357 -14q-136 0 -231.5 95.5t-95.5 231.5t95.5 232t231.5 96t231.5 -96t95.5 -232t-95.5 -231.5 t-231.5 -95.5z"/>
<glyph glyph-name="macron" horiz-adv-x="378" unicode="¯" d="M62 527l6 29h248l-4 -29h-250z"/>
<glyph glyph-name="degree" horiz-adv-x="322" unicode="°" d="M161 385q52 0 84.5 34t32.5 85t-32.5 85.5t-84.5 34.5t-83.5 -34.5t-31.5 -85.5t31.5 -85t83.5 -34zM161 366q-61 0 -99 40t-38 98t37.5 98.5t99.5 40.5t99.5 -40.5t37.5 -98.5t-37.5 -98t-99.5 -40z"/>
<glyph glyph-name="plusminus" d="M420 27h-392l3 22h386zM213 84v162h-198l3 22h195v168h22v-168h195l3 -22h-198v-162h-22z" unicode="±"/>
<glyph glyph-name="twosuperior" horiz-adv-x="284" unicode="²" d="M15 267l-3 13q46 44 66 64t48 50.5t39 49.5t20 42.5t9 46.5q0 41 -22 62t-53 21q-53 0 -93 -61l-6 6q53 93 127 93q43 0 72 -27t29 -69q0 -13 -2.5 -25.5t-9 -26t-12 -24t-18.5 -25.5t-21.5 -25t-26.5 -28t-28.5 -28t-34 -32t-35.5 -34l2 -1h122q32 0 46 10.5t28 47.5 l5 12h11l-25 -112h-234z"/>
<glyph glyph-name="threesuperior" horiz-adv-x="268" unicode="³" d="M95 248q-35 0 -56.5 12t-21.5 32q0 13 8.5 21t22.5 8q16 0 27.5 -14t11.5 -33v-6l11 -2q11 -2 17 -2q38 0 64.5 26t26.5 65q0 43 -23.5 67t-65.5 24q-27 0 -54 -11l-5 7q11 7 32.5 20t31 18.5t23 16t19.5 18t10.5 18.5t4.5 23q0 27 -17.5 43t-47.5 16q-54 0 -87 -52l-7 5 q48 86 122 86q37 0 63 -22t26 -54q0 -22 -14.5 -41t-28.5 -28t-45 -26q-6 -3 -9 -5v-2q6 1 18 1q46 0 74.5 -27.5t28.5 -70.5q0 -52 -48.5 -91.5t-111.5 -39.5z"/>
<glyph glyph-name="acute" horiz-adv-x="379" unicode="´" d="M145 497l105 185h83l-178 -185h-10z"/>
<glyph glyph-name="mu" horiz-adv-x="488" unicode="µ" d="M203 -251h-200l3 15l27 1q36 3 36 14v621q0 7 -6 9t-37 4l-24 3l-3 14h140l-2 -332q0 -31 27 -45.5t69 -14.5q62 0 113 46v291q0 22 -8 29t-34 9l-26 3l-3 14h141v-370q0 -14 4 -20t16 -7l49 -8l-1 -11l-137 -30l1 81h-2q-49 -79 -113 -79q-63 0 -94 59h-2v-266 q0 -11 36 -14l27 -1z"/>
<glyph glyph-name="mu" horiz-adv-x="488" unicode="μ" d="M203 -251h-200l3 15l27 1q36 3 36 14v621q0 7 -6 9t-37 4l-24 3l-3 14h140l-2 -332q0 -31 27 -45.5t69 -14.5q62 0 113 46v291q0 22 -8 29t-34 9l-26 3l-3 14h141v-370q0 -14 4 -20t16 -7l49 -8l-1 -11l-137 -30l1 81h-2q-49 -79 -113 -79q-63 0 -94 59h-2v-266 q0 -11 36 -14l27 -1z"/>
<glyph glyph-name="paragraph" horiz-adv-x="437" unicode="¶" d="M356 -32v313q-43 -8 -95 -8q-110 0 -170.5 47.5t-60.5 131.5t58.5 128.5t169.5 44.5h119v-657h-21z"/>
<glyph glyph-name="periodcentered" horiz-adv-x="197" unicode="·" d="M99 165q-24 0 -40 16t-16 38q0 21 16 37t40 16q23 0 38.5 -15.5t15.5 -37.5t-15.5 -38t-38.5 -16z"/>
<glyph glyph-name="cedilla" horiz-adv-x="379" unicode="¸" d="M98 -258l-4 9q151 22 151 89q0 26 -22 40t-59 14q-28 0 -64 -10v10l98 110h20l-63 -70q20 2 28 2q48 0 78.5 -21t30.5 -56q0 -50 -54 -79t-140 -38z"/>
<glyph glyph-name="onesuperior" horiz-adv-x="252" unicode="¹" d="M47 267l2 11l35 3q24 0 24 11v323l-71 8l2 8l122 19v-359q0 -10 29 -10l30 -3l1 -11h-174z"/>
<glyph glyph-name="ordmasculine" horiz-adv-x="378" unicode="º" d="M191 299q45 0 73.5 44.5t28.5 109.5q0 101 -39 140q-26 29 -67 29q-47 0 -75.5 -44.5t-28.5 -109.5q0 -101 43 -143q26 -26 65 -26zM189 285q-75 0 -124.5 50.5t-49.5 122.5q0 73 50 125.5t124 52.5q75 0 124 -50.5t49 -123.5q0 -74 -49.5 -125.5t-123.5 -51.5z"/>
<glyph glyph-name="guillemotright" horiz-adv-x="430" unicode="»" d="M28 47l-5 9l136 166l-135 166l5 8l205 -166v-17zM208 61l-5 8l130 153l-130 152l5 8l203 -152v-17z"/>
<glyph glyph-name="onequarter" horiz-adv-x="673" unicode="¼" d="M30 -121l580 751h29l-580 -751h-29zM47 267l2 11l35 3q24 0 24 11v323l-71 8l2 8l122 19v-359q0 -10 29 -10l30 -3l1 -11h-174zM412 7h130v180h-2zM542 -136v108h-163l-1 8l191 270h24v-243h70l-10 -35h-60v-108h-51z"/>
<glyph glyph-name="onehalf" horiz-adv-x="660" unicode="½" d="M30 -121l580 751h29l-580 -751h-29zM47 267l2 11l35 3q24 0 24 11v323l-71 8l2 8l122 19v-359q0 -10 29 -10l30 -3l1 -11h-174zM385 -137l-3 13q46 44 66 64t48 50.5t39 49.5t20 42.5t9 46.5q0 41 -22 62t-53 21q-53 0 -93 -61l-6 6q53 93 127 93q43 0 72 -27t29 -69 q0 -13 -2.5 -25.5t-9 -26t-12 -24t-18.5 -25.5t-21.5 -25t-26.5 -28t-28.5 -28t-34 -32t-35.5 -34l2 -1h122q32 0 46 10.5t28 47.5l5 12h11l-25 -112h-234z"/>
<glyph glyph-name="threequarters" horiz-adv-x="649" unicode="¾" d="M6 -121l580 751h29l-580 -751h-29zM95 248q-35 0 -56.5 12t-21.5 32q0 13 8.5 21t22.5 8q16 0 27.5 -14t11.5 -33v-6l11 -2q11 -2 17 -2q38 0 64.5 26t26.5 65q0 43 -23.5 67t-65.5 24q-27 0 -54 -11l-5 7q11 7 32.5 20t31 18.5t23 16t19.5 18t10.5 18.5t4.5 23 q0 27 -17.5 43t-47.5 16q-54 0 -87 -52l-7 5q48 86 122 86q37 0 63 -22t26 -54q0 -22 -14.5 -41t-28.5 -28t-45 -26q-6 -3 -9 -5v-2q6 1 18 1q46 0 74.5 -27.5t28.5 -70.5q0 -52 -48.5 -91.5t-111.5 -39.5zM388 7h130v180h-2zM518 -136v108h-163l-1 8l191 270h24v-243h70 l-10 -35h-60v-108h-51z"/>
<glyph glyph-name="questiondown" horiz-adv-x="315" unicode="¿" d="M214 -14q-79 0 -131 54.5t-52 124.5q0 51 20.5 73t77.5 48q4 2 13.5 6t13 6t11.5 6t11 6t9.5 6t9 6.5t6 7t5 9t3 9.5t1.5 11q0 38 -53 87h15q29 -22 53.5 -55t24.5 -59q0 -41 -22.5 -61.5t-82.5 -47.5q-56 -24 -76.5 -38.5t-20.5 -36.5q0 -36 39 -65t115 -29q33 0 69 9 q9 -13 9 -38q0 -39 -68 -39zM171 537q-23 0 -38 15t-15 35q0 22 15 37.5t38 15.5t38.5 -16t15.5 -37q0 -20 -15.5 -35t-38.5 -15z"/>
<glyph glyph-name="Agrave" horiz-adv-x="616" unicode="À" d="M326 665l-179 185h83l105 -185h-9zM370 279l-87 265h-3q-93 -265 -94 -265h184zM180 259l-47 -132q-20 -60 -20 -75q0 -17 12.5 -24t45.5 -10l32 -3l3 -15h-214l3 15l25 3q38 5 55.5 31t60.5 142l133 372l-8 29q14 5 32 19.5t24 26.5h11l185 -547q15 -45 26.5 -58 t38.5 -15l38 -3l3 -15h-258l3 15l41 3q37 2 37 31q0 10 -7 33l-58 177h-197z"/>
<glyph glyph-name="Aacute" horiz-adv-x="616" unicode="Á" d="M270 665l105 185h83l-178 -185h-10zM370 279l-87 265h-3q-93 -265 -94 -265h184zM180 259l-47 -132q-20 -60 -20 -75q0 -17 12.5 -24t45.5 -10l32 -3l3 -15h-214l3 15l25 3q38 5 55.5 31t60.5 142l133 372l-8 29q14 5 32 19.5t24 26.5h11l185 -547q15 -45 26.5 -58 t38.5 -15l38 -3l3 -15h-258l3 15l41 3q37 2 37 31q0 10 -7 33l-58 177h-197z"/>
<glyph glyph-name="Acircumflex" horiz-adv-x="616" unicode="Â" d="M178 657l128 190h13l128 -190h-11l-122 117h-2l-123 -117h-11zM370 279l-87 265h-3q-93 -265 -94 -265h184zM180 259l-47 -132q-20 -60 -20 -75q0 -17 12.5 -24t45.5 -10l32 -3l3 -15h-214l3 15l25 3q38 5 55.5 31t60.5 142l133 372l-8 29q14 5 32 19.5t24 26.5h11 l185 -547q15 -45 26.5 -58t38.5 -15l38 -3l3 -15h-258l3 15l41 3q37 2 37 31q0 10 -7 33l-58 177h-197z"/>
<glyph glyph-name="Atilde" horiz-adv-x="616" unicode="Ã" d="M379 672q-30 0 -86 32t-73 32q-20 0 -31.5 -11.5t-17.5 -44.5h-12q7 54 24.5 78t51.5 24q29 0 85.5 -31.5t73.5 -31.5q19 0 31 11.5t18 44.5h11q-7 -53 -24.5 -78t-50.5 -25zM370 279l-87 265h-3q-93 -265 -94 -265h184zM180 259l-47 -132q-20 -60 -20 -75 q0 -17 12.5 -24t45.5 -10l32 -3l3 -15h-214l3 15l25 3q38 5 55.5 31t60.5 142l133 372l-8 29q14 5 32 19.5t24 26.5h11l185 -547q15 -45 26.5 -58t38.5 -15l38 -3l3 -15h-258l3 15l41 3q37 2 37 31q0 10 -7 33l-58 177h-197z"/>
<glyph glyph-name="Adieresis" horiz-adv-x="616" unicode="Ä" d="M220 682q-22 0 -34.5 15t-12.5 33t12.5 34.5t34.5 16.5q23 0 35.5 -16.5t12.5 -34.5t-12.5 -33t-35.5 -15zM393 682q-22 0 -35 15t-13 33t13 34.5t35 16.5t34.5 -16.5t12.5 -34.5t-12.5 -33t-34.5 -15zM370 279l-87 265h-3q-93 -265 -94 -265h184zM180 259l-47 -132 q-20 -60 -20 -75q0 -17 12.5 -24t45.5 -10l32 -3l3 -15h-214l3 15l25 3q38 5 55.5 31t60.5 142l133 372l-8 29q14 5 32 19.5t24 26.5h11l185 -547q15 -45 26.5 -58t38.5 -15l38 -3l3 -15h-258l3 15l41 3q37 2 37 31q0 10 -7 33l-58 177h-197z"/>
<glyph glyph-name="Aring" horiz-adv-x="616" unicode="Å" d="M186 279h184l-87 266h-3zM308 624q33 0 53 21.5t20 53.5q0 31 -20 53.5t-53 22.5t-53 -22.5t-20 -53.5q0 -32 20 -53.5t53 -21.5zM377 258h-198l-46 -131q-20 -60 -20 -75q0 -17 12.5 -24t45.5 -10l32 -3l3 -15h-214l3 15l25 3q38 5 55.5 31t60.5 142l151 422 q-32 7 -50 31t-18 56q0 37 24.5 63t64.5 26t64.5 -26t24.5 -63q0 -30 -16.5 -53.5t-44.5 -31.5l177 -524q15 -45 26.5 -58t38.5 -15l38 -3l3 -15h-258l3 15l41 3q37 2 37 31q0 10 -7 33z"/>
<glyph glyph-name="AE" horiz-adv-x="835" unicode="Æ" d="M206 279h183v317h-4zM-53 0l3 15l42 4q27 4 52 31t72 110l235 412q5 8 5 14q0 16 -56 20l-43 3l-3 16h501l13 -178h-15l-10 41q-17 49 -30.5 70t-48.5 35t-100 14h-98v-274l58 1q67 1 89 12.5t34 49.5l10 30l13 -2l-20 -202l-13 1l-3 28q-3 41 -22 51.5t-93 12.5l-53 1 v-295l90 -3q104 1 148 32t70 96l11 39l17 -1l-34 -184h-474l3 15l54 6q38 4 38 16v221h-195l-66 -118q-40 -72 -40 -94q0 -24 42 -28l40 -4l3 -14h-226z"/>
<glyph glyph-name="Ccedilla" horiz-adv-x="666" unicode="Ç" d="M371 -15q-148 2 -243 90t-95 232q0 147 97.5 240t251.5 93q86 0 162 -36l59 23l6 -189h-16l-65 145q-52 39 -149 39q-119 0 -189.5 -86.5t-70.5 -218.5q0 -140 72.5 -226.5t189.5 -86.5q70 0 115 27.5t84 84.5l29 70h17l-33 -163l-36 -1q-71 -32 -166 -37l-46 -51 q20 2 28 2q48 0 78.5 -21t30.5 -56q0 -50 -54 -79t-140 -38l-4 9q151 22 151 89q0 26 -22 40t-59 14q-28 0 -64 -10v10z"/>
<glyph glyph-name="Egrave" horiz-adv-x="577" unicode="È" d="M322 665l-179 185h83l105 -185h-9zM28 0l3 15l43 4q41 4 41 15v560q0 9 -46 13l-37 3l-3 15h466l13 -178h-16l-10 41q-16 47 -32 69.5t-53 36.5t-102 14h-101v-275l69 1q68 2 90 13t33 49l10 29l14 -1l-20 -202l-14 1l-2 28q-3 41 -22.5 51.5t-93.5 12.5l-64 1v-295 l109 -3q71 0 114.5 18.5t60.5 42t35 67.5l12 39l17 -1l-34 -184h-480z"/>
<glyph glyph-name="Eacute" horiz-adv-x="577" unicode="É" d="M260 665l105 185h83l-178 -185h-10zM28 0l3 15l43 4q41 4 41 15v560q0 9 -46 13l-37 3l-3 15h466l13 -178h-16l-10 41q-16 47 -32 69.5t-53 36.5t-102 14h-101v-275l69 1q68 2 90 13t33 49l10 29l14 -1l-20 -202l-14 1l-2 28q-3 41 -22.5 51.5t-93.5 12.5l-64 1v-295 l109 -3q71 0 114.5 18.5t60.5 42t35 67.5l12 39l17 -1l-34 -184h-480z"/>
<glyph glyph-name="Ecircumflex" horiz-adv-x="577" unicode="Ê" d="M153 657l128 190h13l128 -190h-11l-122 117h-2l-123 -117h-11zM28 0l3 15l43 4q41 4 41 15v560q0 9 -46 13l-37 3l-3 15h466l13 -178h-16l-10 41q-16 47 -32 69.5t-53 36.5t-102 14h-101v-275l69 1q68 2 90 13t33 49l10 29l14 -1l-20 -202l-14 1l-2 28q-3 41 -22.5 51.5 t-93.5 12.5l-64 1v-295l109 -3q71 0 114.5 18.5t60.5 42t35 67.5l12 39l17 -1l-34 -184h-480z"/>
<glyph glyph-name="Edieresis" horiz-adv-x="577" unicode="Ë" d="M197 682q-22 0 -34.5 15t-12.5 33t12.5 34.5t34.5 16.5q23 0 35.5 -16.5t12.5 -34.5t-12.5 -33t-35.5 -15zM370 682q-22 0 -35 15t-13 33t13 34.5t35 16.5t34.5 -16.5t12.5 -34.5t-12.5 -33t-34.5 -15zM28 0l3 15l43 4q41 4 41 15v560q0 9 -46 13l-37 3l-3 15h466 l13 -178h-16l-10 41q-16 47 -32 69.5t-53 36.5t-102 14h-101v-275l69 1q68 2 90 13t33 49l10 29l14 -1l-20 -202l-14 1l-2 28q-3 41 -22.5 51.5t-93.5 12.5l-64 1v-295l109 -3q71 0 114.5 18.5t60.5 42t35 67.5l12 39l17 -1l-34 -184h-480z"/>
<glyph glyph-name="Igrave" horiz-adv-x="329" unicode="Ì" d="M190 665l-179 185h83l105 -185h-9zM34 0l3 15l49 4q39 4 39 15v560q0 9 -46 13l-41 3l-3 15h260l-3 -15l-48 -4q-40 -4 -40 -15v-560q0 -5 8.5 -7.5t38.5 -5.5l40 -3l3 -15h-260z"/>
<glyph glyph-name="Iacute" horiz-adv-x="329" unicode="Í" d="M128 665l105 185h83l-178 -185h-10zM34 0l3 15l49 4q39 4 39 15v560q0 9 -46 13l-41 3l-3 15h260l-3 -15l-48 -4q-40 -4 -40 -15v-560q0 -5 8.5 -7.5t38.5 -5.5l40 -3l3 -15h-260z"/>
<glyph glyph-name="Icircumflex" horiz-adv-x="329" unicode="Î" d="M30 657l128 190h13l128 -190h-11l-122 117h-2l-123 -117h-11zM34 0l3 15l49 4q39 4 39 15v560q0 9 -46 13l-41 3l-3 15h260l-3 -15l-48 -4q-40 -4 -40 -15v-560q0 -5 8.5 -7.5t38.5 -5.5l40 -3l3 -15h-260z"/>
<glyph glyph-name="Idieresis" horiz-adv-x="329" unicode="Ï" d="M79 683q-22 0 -34.5 15t-12.5 33t12.5 34.5t34.5 16.5q23 0 35.5 -16.5t12.5 -34.5t-12.5 -33t-35.5 -15zM252 683q-22 0 -35 15t-13 33t13 34.5t35 16.5t34.5 -16.5t12.5 -34.5t-12.5 -33t-34.5 -15zM34 0l3 15l49 4q39 4 39 15v560q0 9 -46 13l-41 3l-3 15h260l-3 -15 l-48 -4q-40 -4 -40 -15v-560q0 -5 8.5 -7.5t38.5 -5.5l40 -3l3 -15h-260z"/>
<glyph glyph-name="Eth" horiz-adv-x="666" unicode="Ð" d="M193 326h146l3 -20h-149v-272l78 -16q128 1 199.5 83t71.5 201q0 136 -74 221t-217 85h-58v-282zM115 306h-88l3 20h85v266q0 9 -45 14l-42 4l-3 15l241 3h5q168 0 261.5 -83t93.5 -219q0 -144 -100.5 -235t-278.5 -91h-223l3 15l50 5q38 4 38 15v271z"/>
<glyph glyph-name="Ntilde" horiz-adv-x="697" unicode="Ñ" d="M434 672q-30 0 -86 32t-73 32q-20 0 -31.5 -11.5t-17.5 -44.5h-12q7 54 24.5 78t51.5 24q29 0 85.5 -31.5t73.5 -31.5q19 0 31 11.5t18 44.5h11q-7 -53 -24.5 -78t-50.5 -25zM572 -5l-429 562h-2l1 -485q0 -28 14 -39t51 -15l34 -3l3 -15h-217l3 15l35 3q30 3 43.5 14.5 t13.5 41.5l1 484q-19 39 -72 49l-28 4l-3 15h168l383 -505h2l-1 433q0 28 -13.5 38t-51.5 15l-34 3l-3 15h216l-3 -15l-34 -3q-30 -3 -43.5 -14.5t-13.5 -40.5l-1 -557h-19z"/>
<glyph glyph-name="Ograve" horiz-adv-x="721" unicode="Ò" d="M382 665l-179 185h83l105 -185h-9zM363 4q107 0 173 82.5t66 223.5q0 138 -69.5 225t-174.5 87q-106 0 -172.5 -84t-66.5 -225q0 -138 69 -223.5t175 -85.5zM359 -14q-141 0 -233.5 90.5t-92.5 233.5q0 132 97.5 230.5t231.5 98.5q141 0 234 -91.5t93 -234.5 q0 -131 -97.5 -229t-232.5 -98z"/>
<glyph glyph-name="Oacute" horiz-adv-x="721" unicode="Ó" d="M325 665l105 185h83l-178 -185h-10zM363 4q107 0 173 82.5t66 223.5q0 138 -69.5 225t-174.5 87q-106 0 -172.5 -84t-66.5 -225q0 -138 69 -223.5t175 -85.5zM359 -14q-141 0 -233.5 90.5t-92.5 233.5q0 132 97.5 230.5t231.5 98.5q141 0 234 -91.5t93 -234.5 q0 -131 -97.5 -229t-232.5 -98z"/>
<glyph glyph-name="Ocircumflex" horiz-adv-x="721" unicode="Ô" d="M227 657l128 190h13l128 -190h-11l-122 117h-2l-123 -117h-11zM363 4q107 0 173 82.5t66 223.5q0 138 -69.5 225t-174.5 87q-106 0 -172.5 -84t-66.5 -225q0 -138 69 -223.5t175 -85.5zM359 -14q-141 0 -233.5 90.5t-92.5 233.5q0 132 97.5 230.5t231.5 98.5 q141 0 234 -91.5t93 -234.5q0 -131 -97.5 -229t-232.5 -98z"/>
<glyph glyph-name="Otilde" horiz-adv-x="721" unicode="Õ" d="M435 672q-30 0 -86 32t-73 32q-20 0 -31.5 -11.5t-17.5 -44.5h-12q7 54 24.5 78t51.5 24q29 0 85.5 -31.5t73.5 -31.5q19 0 31 11.5t18 44.5h11q-7 -53 -24.5 -78t-50.5 -25zM363 4q107 0 173 82.5t66 223.5q0 138 -69.5 225t-174.5 87q-106 0 -172.5 -84t-66.5 -225 q0 -138 69 -223.5t175 -85.5zM359 -14q-141 0 -233.5 90.5t-92.5 233.5q0 132 97.5 230.5t231.5 98.5q141 0 234 -91.5t93 -234.5q0 -131 -97.5 -229t-232.5 -98z"/>
<glyph glyph-name="Odieresis" horiz-adv-x="721" unicode="Ö" d="M276 682q-22 0 -34.5 15t-12.5 33t12.5 34.5t34.5 16.5q23 0 35.5 -16.5t12.5 -34.5t-12.5 -33t-35.5 -15zM449 682q-22 0 -35 15t-13 33t13 34.5t35 16.5t34.5 -16.5t12.5 -34.5t-12.5 -33t-34.5 -15zM363 4q107 0 173 82.5t66 223.5q0 138 -69.5 225t-174.5 87 q-106 0 -172.5 -84t-66.5 -225q0 -138 69 -223.5t175 -85.5zM359 -14q-141 0 -233.5 90.5t-92.5 233.5q0 132 97.5 230.5t231.5 98.5q141 0 234 -91.5t93 -234.5q0 -131 -97.5 -229t-232.5 -98z"/>
<glyph glyph-name="multiply" d="M33 61l175 175l-175 175l16 16l175 -175l175 175l16 -16l-175 -175l175 -175l-16 -16l-175 175l-175 -175z" unicode="×"/>
<glyph glyph-name="Oslash" horiz-adv-x="721" unicode="Ø" d="M514 555l-290 -502q60 -49 139 -49q107 0 173 82.5t66 223.5q0 155 -88 245zM210 66q290 500 290 502q-15 26 -59.5 39.5t-82.5 13.5q-106 0 -172.5 -83.5t-66.5 -224.5q0 -159 91 -247zM536 593q71 -42 112 -115t41 -165q0 -131 -97.5 -229t-232.5 -98q-84 0 -154 34 l-54 -93h-21l59 102q-73 40 -114.5 113.5t-41.5 167.5q0 132 97.5 230.5t231.5 98.5q87 0 158 -37l51 87h21z"/>
<glyph glyph-name="Ugrave" horiz-adv-x="679" unicode="Ù" d="M385 665l-179 185h83l105 -185h-9zM350 -14q-125 0 -183 54t-58 176v378q0 8 -47 13l-45 4l-3 15h268l-3 -15l-52 -4q-40 -4 -40 -16v-365q0 -106 48 -154.5t144 -48.5q89 0 136 54.5t47 159.5l-1 317q0 28 -16 39t-54 14l-34 4l-3 15h221l-3 -15l-35 -4 q-30 -3 -43 -14.5t-13 -40.5l-1 -317q0 -120 -57.5 -184.5t-172.5 -64.5z"/>
<glyph glyph-name="Uacute" horiz-adv-x="679" unicode="Ú" d="M317 665l105 185h83l-178 -185h-10zM350 -14q-125 0 -183 54t-58 176v378q0 8 -47 13l-45 4l-3 15h268l-3 -15l-52 -4q-40 -4 -40 -16v-365q0 -106 48 -154.5t144 -48.5q89 0 136 54.5t47 159.5l-1 317q0 28 -16 39t-54 14l-34 4l-3 15h221l-3 -15l-35 -4 q-30 -3 -43 -14.5t-13 -40.5l-1 -317q0 -120 -57.5 -184.5t-172.5 -64.5z"/>
<glyph glyph-name="Ucircumflex" horiz-adv-x="679" unicode="Û" d="M223 657l128 190h13l128 -190h-11l-122 117h-2l-123 -117h-11zM350 -14q-125 0 -183 54t-58 176v378q0 8 -47 13l-45 4l-3 15h268l-3 -15l-52 -4q-40 -4 -40 -16v-365q0 -106 48 -154.5t144 -48.5q89 0 136 54.5t47 159.5l-1 317q0 28 -16 39t-54 14l-34 4l-3 15h221 l-3 -15l-35 -4q-30 -3 -43 -14.5t-13 -40.5l-1 -317q0 -120 -57.5 -184.5t-172.5 -64.5z"/>
<glyph glyph-name="Udieresis" horiz-adv-x="679" unicode="Ü" d="M451 682q-22 0 -35 15t-13 33t13 34.5t35 16.5t34.5 -16.5t12.5 -34.5t-12.5 -33t-34.5 -15zM278 682q-22 0 -34.5 15t-12.5 33t12.5 34.5t34.5 16.5q23 0 35.5 -16.5t12.5 -34.5t-12.5 -33t-35.5 -15zM350 -14q-125 0 -183 54t-58 176v378q0 8 -47 13l-45 4l-3 15h268 l-3 -15l-52 -4q-40 -4 -40 -16v-365q0 -106 48 -154.5t144 -48.5q89 0 136 54.5t47 159.5l-1 317q0 28 -16 39t-54 14l-34 4l-3 15h221l-3 -15l-35 -4q-30 -3 -43 -14.5t-13 -40.5l-1 -317q0 -120 -57.5 -184.5t-172.5 -64.5z"/>
<glyph glyph-name="Yacute" horiz-adv-x="607" unicode="Ý" d="M287 666l105 185h83l-178 -185h-10zM165 0l3 15l57 4q40 4 40 15v241l-160 273q-18 32 -32.5 44.5t-40.5 14.5l-34 3l-3 15h256l-3 -15l-38 -2q-34 -1 -34 -20q0 -13 19 -46l135 -236h3l108 196q30 57 30 75q0 25 -49 31l-32 2l-3 15h215l-3 -15l-28 -2q-33 -4 -52 -21.5 t-53 -80.5l-123 -218v-257q0 -5 8.5 -7.5t39.5 -5.5l49 -3l3 -15h-278z"/>
<glyph glyph-name="Thorn" horiz-adv-x="548" unicode="Þ" d="M281 168q72 0 112.5 40.5t40.5 112.5q0 156 -168 156h-6l-66 -1v-297q51 -11 87 -11zM19 0l3 15l53 4q40 4 40 15v560q0 9 -46 13l-46 3l-3 15h269l-3 -15l-53 -4q-39 -4 -39 -15v-96l91 -1q114 0 173.5 -43.5t59.5 -117.5q0 -81 -67 -132.5t-170 -51.5q-26 0 -87 8v-126 q0 -10 46 -13l58 -3l3 -15h-282z"/>
<glyph glyph-name="germandbls" horiz-adv-x="498" unicode="ß" d="M302 414q67 -38 121.5 -107t54.5 -140q0 -73 -45 -126t-109 -53q-47 0 -79 22t-32 56q0 22 14 36.5t35 14.5t32 -12t11 -29q0 -16 -10.5 -28.5t-28.5 -13.5q18 -30 60 -30q40 0 65 31.5t25 82.5q0 76 -49 151t-142 130v8q67 12 99 44.5t32 95.5q0 45 -27.5 77t-69.5 32 q-53 0 -78 -39.5t-25 -123.5v-492h-134l3 14l28 2q34 1 34 13v359l-77 3l12 35l64 3l1 26q9 101 56.5 159t122.5 58q72 0 114.5 -35t42.5 -93q0 -50 -33.5 -83t-87.5 -48z"/>
<glyph glyph-name="agrave" horiz-adv-x="412" unicode="à" d="M233 497l-179 185h83l105 -185h-9zM171 34q47 0 95 45l5 157q-98 -24 -134.5 -54.5t-36.5 -73.5q0 -34 20 -54t51 -20zM329 -12q-27 0 -44.5 19t-18.5 53l-2 1q-70 -72 -127 -72q-45 0 -76 29t-31 71q0 55 53.5 92.5t188.5 70.5l1 34v9q0 121 -99 121q-28 0 -55.5 -12.5 t-27.5 -21.5q0 -1 11.5 -17t11.5 -31q0 -16 -12 -28t-32 -12q-19 0 -31.5 10.5t-12.5 28.5q0 36 65 73.5t124 37.5q66 0 97 -30t31 -106q0 -3 -0.5 -10.5t-0.5 -11.5l-10 -213q-1 -41 30 -41q17 0 47 28l8 -9q-51 -63 -88 -63z"/>
<glyph glyph-name="aacute" horiz-adv-x="412" unicode="á" d="M165 497l105 185h83l-178 -185h-10zM171 34q47 0 95 45l5 157q-98 -24 -134.5 -54.5t-36.5 -73.5q0 -34 20 -54t51 -20zM329 -12q-27 0 -44.5 19t-18.5 53l-2 1q-70 -72 -127 -72q-45 0 -76 29t-31 71q0 55 53.5 92.5t188.5 70.5l1 34v9q0 121 -99 121q-28 0 -55.5 -12.5 t-27.5 -21.5q0 -1 11.5 -17t11.5 -31q0 -16 -12 -28t-32 -12q-19 0 -31.5 10.5t-12.5 28.5q0 36 65 73.5t124 37.5q66 0 97 -30t31 -106q0 -3 -0.5 -10.5t-0.5 -11.5l-10 -213q-1 -41 30 -41q17 0 47 28l8 -9q-51 -63 -88 -63z"/>
<glyph glyph-name="acircumflex" horiz-adv-x="412" unicode="â" d="M60 489l128 190h13l128 -190h-11l-122 117h-2l-123 -117h-11zM171 34q47 0 95 45l5 157q-98 -24 -134.5 -54.5t-36.5 -73.5q0 -34 20 -54t51 -20zM329 -12q-27 0 -44.5 19t-18.5 53l-2 1q-70 -72 -127 -72q-45 0 -76 29t-31 71q0 55 53.5 92.5t188.5 70.5l1 34v9 q0 121 -99 121q-28 0 -55.5 -12.5t-27.5 -21.5q0 -1 11.5 -17t11.5 -31q0 -16 -12 -28t-32 -12q-19 0 -31.5 10.5t-12.5 28.5q0 36 65 73.5t124 37.5q66 0 97 -30t31 -106q0 -3 -0.5 -10.5t-0.5 -11.5l-10 -213q-1 -41 30 -41q17 0 47 28l8 -9q-51 -63 -88 -63z"/>
<glyph glyph-name="atilde" horiz-adv-x="412" unicode="ã" d="M276 504q-30 0 -86 32t-73 32q-20 0 -31.5 -11.5t-17.5 -44.5h-12q7 54 24.5 78t51.5 24q29 0 85.5 -31.5t73.5 -31.5q19 0 31 11.5t18 44.5h11q-7 -53 -24.5 -78t-50.5 -25zM171 34q47 0 95 45l5 157q-98 -24 -134.5 -54.5t-36.5 -73.5q0 -34 20 -54t51 -20zM329 -12 q-27 0 -44.5 19t-18.5 53l-2 1q-70 -72 -127 -72q-45 0 -76 29t-31 71q0 55 53.5 92.5t188.5 70.5l1 34v9q0 121 -99 121q-28 0 -55.5 -12.5t-27.5 -21.5q0 -1 11.5 -17t11.5 -31q0 -16 -12 -28t-32 -12q-19 0 -31.5 10.5t-12.5 28.5q0 36 65 73.5t124 37.5q66 0 97 -30 t31 -106q0 -3 -0.5 -10.5t-0.5 -11.5l-10 -213q-1 -41 30 -41q17 0 47 28l8 -9q-51 -63 -88 -63z"/>
<glyph glyph-name="adieresis" horiz-adv-x="412" unicode="ä" d="M107 517q-22 0 -34.5 15t-12.5 33t12.5 34.5t34.5 16.5q23 0 35.5 -16.5t12.5 -34.5t-12.5 -33t-35.5 -15zM280 517q-22 0 -35 15t-13 33t13 34.5t35 16.5t34.5 -16.5t12.5 -34.5t-12.5 -33t-34.5 -15zM171 34q47 0 95 45l5 157q-98 -24 -134.5 -54.5t-36.5 -73.5 q0 -34 20 -54t51 -20zM329 -12q-27 0 -44.5 19t-18.5 53l-2 1q-70 -72 -127 -72q-45 0 -76 29t-31 71q0 55 53.5 92.5t188.5 70.5l1 34v9q0 121 -99 121q-28 0 -55.5 -12.5t-27.5 -21.5q0 -1 11.5 -17t11.5 -31q0 -16 -12 -28t-32 -12q-19 0 -31.5 10.5t-12.5 28.5 q0 36 65 73.5t124 37.5q66 0 97 -30t31 -106q0 -3 -0.5 -10.5t-0.5 -11.5l-10 -213q-1 -41 30 -41q17 0 47 28l8 -9q-51 -63 -88 -63z"/>
<glyph glyph-name="aring" horiz-adv-x="411" unicode="å" d="M171 34q47 0 95 45l5 157q-98 -24 -134.5 -54.5t-36.5 -73.5q0 -34 20 -54t51 -20zM207 517q33 0 52.5 22t19.5 54t-19.5 54t-52.5 22t-53 -22t-20 -54t20 -54t53 -22zM329 -12q-27 0 -44.5 19t-18.5 53l-2 1q-70 -72 -127 -72q-45 0 -76 29t-31 71q0 55 53.5 92.5 t188.5 70.5l1 34v9q0 121 -99 121q-28 0 -55.5 -12.5t-27.5 -21.5q0 -1 11.5 -17t11.5 -31q0 -16 -12 -28t-32 -12q-19 0 -31.5 10.5t-12.5 28.5q0 36 65 73.5t124 37.5q66 0 97 -30t31 -106q0 -3 -0.5 -10.5t-0.5 -11.5l-10 -213q-1 -41 30 -41q17 0 47 28l8 -9 q-51 -63 -88 -63zM207 503q-40 0 -64.5 26t-24.5 64t24.5 64t64.5 26t64.5 -26t24.5 -64t-24.5 -64t-64.5 -26z"/>
<glyph glyph-name="ae" horiz-adv-x="672" unicode="æ" d="M173 31q31 0 57 17.5t59 56.5q-20 46 -20 101q0 21 1 29q-98 -25 -134 -55t-36 -73q0 -34 21 -55t52 -21zM348 297l216 2v7q0 53 -23 87t-67 34q-41 0 -77 -37.5t-49 -92.5zM139 -14q-46 0 -77.5 30t-31.5 72q0 55 53.5 93.5t187.5 70.5l3 35v14q0 115 -100 115 q-28 0 -55.5 -12.5t-27.5 -21.5q0 -1 11.5 -17t11.5 -31q0 -16 -12 -28t-32 -12q-19 0 -31.5 10.5t-12.5 28.5q0 37 64.5 74t126.5 37q93 0 113 -70q60 70 155 70q72 0 114 -39t42 -99q0 -12 -3 -26q-291 2 -293 2q-3 -36 -3 -48q0 -86 44.5 -140.5t112.5 -54.5q88 0 138 76 l11 -6q-67 -122 -181 -122q-56 0 -101 28.5t-70 75.5q-91 -105 -157 -105z"/>
<glyph glyph-name="ccedilla" horiz-adv-x="415" unicode="ç" d="M225 -13h-2q-85 0 -142 62.5t-57 154.5q0 101 64 170.5t161 69.5q62 0 102.5 -26t40.5 -66q0 -21 -13.5 -34.5t-31.5 -13.5q-20 0 -33 13t-13 33q0 2 0.5 5t0.5 4q0 13 7 24t7 12q-3 10 -24.5 21t-45.5 11q-62 0 -105 -54.5t-43 -137.5q0 -86 45 -141t113 -55 q44 0 75.5 17.5t57.5 58.5l12 -6q-59 -110 -155 -121l-49 -54q20 2 28 2q48 0 78.5 -21t30.5 -56q0 -50 -54 -79t-140 -38l-4 9q151 22 151 89q0 26 -22 40t-59 14q-28 0 -64 -10v10z"/>
<glyph glyph-name="egrave" horiz-adv-x="426" unicode="è" d="M257 497l-179 185h83l105 -185h-9zM104 297l216 1q1 55 -22.5 92t-67.5 37q-41 0 -77 -37.5t-49 -92.5zM224 -13q-85 0 -142.5 62.5t-57.5 154.5q0 101 61.5 170.5t154.5 69.5q72 0 114 -39t42 -99q0 -8 -2 -26l-292 2q-4 -24 -4 -48q0 -86 45 -140.5t113 -54.5 q86 0 136 76l11 -6q-67 -122 -179 -122z"/>
<glyph glyph-name="eacute" horiz-adv-x="426" unicode="é" d="M184 497l105 185h83l-178 -185h-10zM104 297l216 1q1 55 -22.5 92t-67.5 37q-41 0 -77 -37.5t-49 -92.5zM224 -13q-85 0 -142.5 62.5t-57.5 154.5q0 101 61.5 170.5t154.5 69.5q72 0 114 -39t42 -99q0 -8 -2 -26l-292 2q-4 -24 -4 -48q0 -86 45 -140.5t113 -54.5 q86 0 136 76l11 -6q-67 -122 -179 -122z"/>
<glyph glyph-name="ecircumflex" horiz-adv-x="426" unicode="ê" d="M91 489l128 190h13l128 -190h-11l-122 117h-2l-123 -117h-11zM104 297l216 1q1 55 -22.5 92t-67.5 37q-41 0 -77 -37.5t-49 -92.5zM224 -13q-85 0 -142.5 62.5t-57.5 154.5q0 101 61.5 170.5t154.5 69.5q72 0 114 -39t42 -99q0 -8 -2 -26l-292 2q-4 -24 -4 -48 q0 -86 45 -140.5t113 -54.5q86 0 136 76l11 -6q-67 -122 -179 -122z"/>
<glyph glyph-name="edieresis" horiz-adv-x="426" unicode="ë" d="M134 517q-22 0 -34.5 15t-12.5 33t12.5 34.5t34.5 16.5q23 0 35.5 -16.5t12.5 -34.5t-12.5 -33t-35.5 -15zM307 517q-22 0 -35 15t-13 33t13 34.5t35 16.5t34.5 -16.5t12.5 -34.5t-12.5 -33t-34.5 -15zM104 297l216 1q1 55 -22.5 92t-67.5 37q-41 0 -77 -37.5t-49 -92.5z M224 -13q-85 0 -142.5 62.5t-57.5 154.5q0 101 61.5 170.5t154.5 69.5q72 0 114 -39t42 -99q0 -8 -2 -26l-292 2q-4 -24 -4 -48q0 -86 45 -140.5t113 -54.5q86 0 136 76l11 -6q-67 -122 -179 -122z"/>
<glyph glyph-name="igrave" horiz-adv-x="232" unicode="ì" d="M146 497l-179 185h83l105 -185h-9zM17 0l3 15l28 1q20 2 27.5 4.5t7.5 10.5v293q0 40 -7 52.5t-30 16.5l-31 5l2 10l135 34v-413q0 -6 7 -8.5t34 -4.5l25 -1l3 -15h-204z"/>
<glyph glyph-name="iacute" horiz-adv-x="232" unicode="í" d="M74 497l105 185h83l-178 -185h-10zM17 0l3 15l28 1q20 2 27.5 4.5t7.5 10.5v293q0 40 -7 52.5t-30 16.5l-31 5l2 10l135 34v-413q0 -6 7 -8.5t34 -4.5l25 -1l3 -15h-204z"/>
<glyph glyph-name="icircumflex" horiz-adv-x="232" unicode="î" d="M17 0l3 15l28 1q20 2 27.5 4.5t7.5 10.5v293q0 40 -7 52.5t-30 16.5l-31 5l2 10l135 34v-413q0 -6 7 -8.5t34 -4.5l25 -1l3 -15h-204zM-6 489l118 190h13l116 -190h-11l-111 117h-2l-112 -117h-11z"/>
<glyph glyph-name="idieresis" horiz-adv-x="232" unicode="ï" d="M31 517q-22 0 -34.5 15t-12.5 33t12.5 34.5t34.5 16.5q23 0 35.5 -16.5t12.5 -34.5t-12.5 -33t-35.5 -15zM204 517q-22 0 -35 15t-13 33t13 34.5t35 16.5t34.5 -16.5t12.5 -34.5t-12.5 -33t-34.5 -15zM17 0l3 15l28 1q20 2 27.5 4.5t7.5 10.5v293q0 40 -7 52.5t-30 16.5 l-31 5l2 10l135 34v-413q0 -6 7 -8.5t34 -4.5l25 -1l3 -15h-204z"/>
<glyph glyph-name="eth" horiz-adv-x="483" unicode="ð" d="M243 3q62 0 98.5 53t36.5 148q0 100 -39 161t-103 61q-62 0 -99 -53.5t-37 -143.5q0 -105 38.5 -165.5t104.5 -60.5zM223 559l-137 -45l2 21l114 38q-58 35 -133 49l6 13q92 -12 165 -50l122 41l2 -21l-100 -33q93 -56 144 -144t51 -182q0 -111 -61.5 -185.5 t-159.5 -74.5q-95 0 -156.5 65t-61.5 162q0 98 62 164t154 66q61 0 105 -29q-43 92 -118 145z"/>
<glyph glyph-name="ntilde" horiz-adv-x="506" unicode="ñ" d="M328 504q-30 0 -86 32t-73 32q-20 0 -31.5 -11.5t-17.5 -44.5h-12q7 54 24.5 78t51.5 24q29 0 85.5 -31.5t73.5 -31.5q19 0 31 11.5t18 44.5h11q-7 -53 -24.5 -78t-50.5 -25zM18 0l3 15l26 1q21 2 28.5 4.5t7.5 10.5v293q0 40 -7 52.5t-29 16.5l-32 5l1 10l136 34l-2 -83 l3 -1q32 26 49.5 39.5t52 29.5t65.5 16q50 0 78 -29q33 -33 33 -101v-283q0 -4 2 -6t11 -4t29 -4l25 -1l3 -15h-202l3 15l26 1q35 2 35 15v260q0 100 -91 100q-62 0 -121 -52v-310q0 -6 7.5 -8.5t34.5 -4.5l26 -1l3 -15h-204z"/>
<glyph glyph-name="ograve" horiz-adv-x="495" unicode="ò" d="M266 497l-179 185h83l105 -185h-9zM250 3q61 0 101 59t40 143q0 128 -55 183q-39 39 -90 39q-63 0 -102.5 -58t-39.5 -141q0 -131 57 -188q35 -37 89 -37zM247 -14q-96 0 -159.5 65t-63.5 162t65 164t161 67q95 0 158 -64t63 -160q0 -99 -64.5 -166.5t-159.5 -67.5z"/>
<glyph glyph-name="oacute" horiz-adv-x="495" unicode="ó" d="M216 497l105 185h83l-178 -185h-10zM250 3q61 0 101 59t40 143q0 128 -55 183q-39 39 -90 39q-63 0 -102.5 -58t-39.5 -141q0 -131 57 -188q35 -37 89 -37zM247 -14q-96 0 -159.5 65t-63.5 162t65 164t161 67q95 0 158 -64t63 -160q0 -99 -64.5 -166.5t-159.5 -67.5z"/>
<glyph glyph-name="ocircumflex" horiz-adv-x="495" unicode="ô" d="M113 489l128 190h13l128 -190h-11l-122 117h-2l-123 -117h-11zM250 3q61 0 101 59t40 143q0 128 -55 183q-39 39 -90 39q-63 0 -102.5 -58t-39.5 -141q0 -131 57 -188q35 -37 89 -37zM247 -14q-96 0 -159.5 65t-63.5 162t65 164t161 67q95 0 158 -64t63 -160 q0 -99 -64.5 -166.5t-159.5 -67.5z"/>
<glyph glyph-name="otilde" horiz-adv-x="495" unicode="õ" d="M320 504q-30 0 -86 32t-73 32q-20 0 -31.5 -11.5t-17.5 -44.5h-12q7 54 24.5 78t51.5 24q29 0 85.5 -31.5t73.5 -31.5q19 0 31 11.5t18 44.5h11q-7 -53 -24.5 -78t-50.5 -25zM250 3q61 0 101 59t40 143q0 128 -55 183q-39 39 -90 39q-63 0 -102.5 -58t-39.5 -141 q0 -131 57 -188q35 -37 89 -37zM247 -14q-96 0 -159.5 65t-63.5 162t65 164t161 67q95 0 158 -64t63 -160q0 -99 -64.5 -166.5t-159.5 -67.5z"/>
<glyph glyph-name="odieresis" horiz-adv-x="495" unicode="ö" d="M161 517q-22 0 -34.5 15t-12.5 33t12.5 34.5t34.5 16.5q23 0 35.5 -16.5t12.5 -34.5t-12.5 -33t-35.5 -15zM334 517q-22 0 -35 15t-13 33t13 34.5t35 16.5t34.5 -16.5t12.5 -34.5t-12.5 -33t-34.5 -15zM250 3q61 0 101 59t40 143q0 128 -55 183q-39 39 -90 39 q-63 0 -102.5 -58t-39.5 -141q0 -131 57 -188q35 -37 89 -37zM247 -14q-96 0 -159.5 65t-63.5 162t65 164t161 67q95 0 158 -64t63 -160q0 -99 -64.5 -166.5t-159.5 -67.5z"/>
<glyph glyph-name="divide" d="M273 98q0 -20 -14 -35t-35 -15t-35.5 15t-14.5 35q0 19 14.5 33t35.5 14t35 -14t14 -33zM424 225h-400l3 22h394zM273 377q0 -20 -14.5 -35t-35.5 -15t-35 15t-14 35q0 19 14 33.5t35 14.5t35.5 -14.5t14.5 -33.5z" unicode="÷"/>
<glyph glyph-name="oslash" horiz-adv-x="495" unicode="ø" d="M144 60l191 329q-38 38 -89 38q-63 0 -102.5 -58t-39.5 -141q0 -107 40 -168zM346 376l-191 -329l6 -7q35 -37 89 -37q61 0 101 59t40 143q0 114 -45 171zM122 22q-46 30 -72 80t-26 111q0 97 65 164t161 67q55 0 103 -24l87 151h19l-92 -159q48 -29 76 -79.5t28 -112.5 q0 -99 -64.5 -166.5t-159.5 -67.5q-61 0 -111 28l-78 -134h-18z"/>
<glyph glyph-name="ugrave" horiz-adv-x="484" unicode="ù" d="M279 497l-179 185h83l105 -185h-9zM348 -16l1 86h-2q-29 -25 -48.5 -39.5t-52.5 -29.5t-64 -15q-48 0 -81 30q-31 34 -31 101v283q0 7 -6 9t-37 4l-24 3l-3 14h140l-2 -291q0 -101 92 -101q60 0 117 51v286q0 22 -8 29t-34 9l-26 3l-3 14h141v-370q0 -14 4 -20t16 -7 l49 -8l-1 -11z"/>
<glyph glyph-name="uacute" horiz-adv-x="484" unicode="ú" d="M206 497l105 185h83l-178 -185h-10zM348 -16l1 86h-2q-29 -25 -48.5 -39.5t-52.5 -29.5t-64 -15q-48 0 -81 30q-31 34 -31 101v283q0 7 -6 9t-37 4l-24 3l-3 14h140l-2 -291q0 -101 92 -101q60 0 117 51v286q0 22 -8 29t-34 9l-26 3l-3 14h141v-370q0 -14 4 -20t16 -7 l49 -8l-1 -11z"/>
<glyph glyph-name="ucircumflex" horiz-adv-x="484" unicode="û" d="M103 489l128 190h13l128 -190h-11l-122 117h-2l-123 -117h-11zM348 -16l1 86h-2q-29 -25 -48.5 -39.5t-52.5 -29.5t-64 -15q-48 0 -81 30q-31 34 -31 101v283q0 7 -6 9t-37 4l-24 3l-3 14h140l-2 -291q0 -101 92 -101q60 0 117 51v286q0 22 -8 29t-34 9l-26 3l-3 14h141 v-370q0 -14 4 -20t16 -7l49 -8l-1 -11z"/>
<glyph glyph-name="udieresis" horiz-adv-x="484" unicode="ü" d="M327 517q-22 0 -35 15t-13 33t13 34.5t35 16.5t34.5 -16.5t12.5 -34.5t-12.5 -33t-34.5 -15zM154 517q-22 0 -34.5 15t-12.5 33t12.5 34.5t34.5 16.5q23 0 35.5 -16.5t12.5 -34.5t-12.5 -33t-35.5 -15zM348 -16l1 86h-2q-29 -25 -48.5 -39.5t-52.5 -29.5t-64 -15 q-48 0 -81 30q-31 34 -31 101v283q0 7 -6 9t-37 4l-24 3l-3 14h140l-2 -291q0 -101 92 -101q60 0 117 51v286q0 22 -8 29t-34 9l-26 3l-3 14h141v-370q0 -14 4 -20t16 -7l49 -8l-1 -11z"/>
<glyph glyph-name="yacute" d="M194 497l105 185h83l-178 -185h-10zM87 -258q-25 0 -42 13.5t-17 33.5t13 33t33 13q42 0 52 -46q22 6 36.5 31t33.5 82l29 89v1l-159 370q-14 32 -21.5 40t-27.5 10l-24 3l-3 14h201l-2 -14l-23 -2q-30 -1 -30 -20q0 -9 6 -24l117 -283l86 237q15 42 15 59 q0 15 -10.5 21.5t-36.5 8.5l-23 3l-3 14h171l-3 -14l-21 -2q-27 -3 -37.5 -18.5t-34.5 -81.5l-116 -310l-37 -118q-23 -75 -51 -109t-71 -34z" unicode="ý"/>
<glyph glyph-name="thorn" horiz-adv-x="483" unicode="þ" d="M247 6q61 0 97.5 55.5t36.5 140.5q0 81 -38.5 135t-101.5 54t-118 -61v-247q20 -33 54 -55t70 -22zM-10 -251l3 15l27 1q20 2 27.5 4.5t7.5 10.5v803q0 23 -6.5 32t-25.5 13l-38 8l1 11l137 33v-323l3 -2q75 84 154 84q77 0 128 -59.5t51 -150.5q0 -106 -67 -174.5 t-157 -68.5q-53 0 -109 24h-3v-233q0 -10 43 -12l41 -1l3 -15h-220z"/>
<glyph glyph-name="OE" horiz-adv-x="920" unicode="Œ" d="M408 20h58v571l-77 15q-131 -2 -201.5 -82t-70.5 -199q0 -136 74 -220.5t217 -84.5zM392 0h-5q-167 0 -260.5 82.5t-93.5 219.5q0 142 100 232t280 90l425 1l13 -178h-14l-11 41q-16 46 -33 69t-54 36.5t-103 13.5h-93v-274l61 1q68 2 91.5 13t34.5 49l11 29l13 -1 l-20 -202l-13 1l-3 28q-3 40 -24 51t-96 13l-55 1v-295l101 -3q71 1 115.5 19t62 42t35.5 67l12 39l17 -1l-35 -184h-459z"/>
<glyph glyph-name="oe" horiz-adv-x="793" unicode="œ" d="M250 3q61 0 101 58.5t40 143.5q0 127 -54 182q-38 40 -91 40q-63 0 -102.5 -58t-39.5 -143q0 -126 57 -185q36 -38 89 -38zM472 297l216 2q1 55 -22.5 91.5t-68.5 36.5q-41 0 -77 -37.5t-48 -92.5zM247 -14q-96 0 -159.5 65t-63.5 162q1 97 65.5 164t160.5 67 q59 0 107 -27t76 -75q61 102 175 102q71 0 113.5 -39.5t42.5 -98.5q0 -12 -3 -26q-290 2 -292 2q-3 -18 -3 -48q0 -86 44.5 -140.5t112.5 -54.5q87 0 137 76l11 -6q-67 -122 -181 -122q-104 0 -162 98q-30 -46 -77 -72.5t-104 -26.5z"/>
<glyph glyph-name="Scaron" horiz-adv-x="488" unicode="Š" d="M246 672l-128 190h11l123 -119h2l122 119h11l-128 -190h-13zM233 -14h-6q-81 0 -177 32l-11 152h16l27 -76q48 -90 156 -90q67 0 108 39t41 99q0 58 -37.5 92.5t-118.5 61.5q-81 28 -125 67t-44 106q0 71 52.5 120.5t140.5 49.5q62 0 121 -19l44 12l6 -165h-15l-54 122 q-50 32 -106 32q-57 0 -92 -33t-35 -82q0 -53 36.5 -82.5t111.5 -56.5q89 -31 136 -73t47 -116q0 -78 -63 -135t-159 -57z"/>
<glyph glyph-name="scaron" horiz-adv-x="363" unicode="š" d="M174 482l-128 190h11l123 -119h2l122 119h11l-128 -190h-13zM167 -14q-67 0 -128 23l-9 121h17l21 -58q39 -69 106 -69q44 0 72 24.5t28 62.5t-27.5 60.5t-83.5 41.5q-57 20 -89.5 47.5t-32.5 79.5q0 53 41 89t104 36q46 0 90 -17l32 10l6 -120h-17l-41 84q-34 26 -73 26 q-40 0 -63 -20.5t-23 -54.5q0 -19 7 -33.5t23 -25t31.5 -17.5t43.5 -17q31 -11 49.5 -20t40 -24.5t31.5 -38t10 -52.5q0 -57 -45.5 -97.5t-120.5 -40.5z"/>
<glyph glyph-name="Ydieresis" horiz-adv-x="607" unicode="Ÿ" d="M224 684q-22 0 -34.5 15t-12.5 33t12.5 34.5t34.5 16.5q23 0 35.5 -16.5t12.5 -34.5t-12.5 -33t-35.5 -15zM397 684q-22 0 -35 15t-13 33t13 34.5t35 16.5t34.5 -16.5t12.5 -34.5t-12.5 -33t-34.5 -15zM165 0l3 15l57 4q40 4 40 15v241l-160 273q-18 32 -32.5 44.5 t-40.5 14.5l-34 3l-3 15h256l-3 -15l-38 -2q-34 -1 -34 -20q0 -13 19 -46l135 -236h3l108 196q30 57 30 75q0 25 -49 31l-32 2l-3 15h215l-3 -15l-28 -2q-33 -4 -52 -21.5t-53 -80.5l-123 -218v-257q0 -5 8.5 -7.5t39.5 -5.5l49 -3l3 -15h-278z"/>
<glyph glyph-name="circumflex" horiz-adv-x="379" unicode="ˆ" d="M55 489l128 190h13l128 -190h-11l-122 117h-2l-123 -117h-11z"/>
<glyph glyph-name="tilde" horiz-adv-x="379" unicode="˜" d="M262 504q-30 0 -86 32t-73 32q-20 0 -31.5 -11.5t-17.5 -44.5h-12q7 54 24.5 78t51.5 24q29 0 85.5 -31.5t73.5 -31.5q19 0 31 11.5t18 44.5h11q-7 -53 -24.5 -78t-50.5 -25z"/>
<glyph glyph-name="thinspace" horiz-adv-x="60" unicode=" "/>
<glyph glyph-name="endash" horiz-adv-x="439" unicode="–" d="M11 218l3 36h413l-1 -36h-415z"/>
<glyph glyph-name="emdash" horiz-adv-x="908" unicode="—" d="M11 218l3 36h883l-1 -36h-885z"/>
<glyph glyph-name="quoteleft" horiz-adv-x="184" unicode="‘" d="M103 416q-33 0 -55 22t-22 59q0 45 36 87.5t90 68.5l8 -7q-80 -53 -80 -115q0 -33 23.5 -47t47.5 -14h5q1 -2 1 -7q0 -18 -14.5 -32.5t-39.5 -14.5z"/>
<glyph glyph-name="quotesinglbase" horiz-adv-x="183" unicode="‚" d="M33 -127l-9 8q79 50 79 112q0 34 -25.5 48.5t-47.5 14.5h-2q0 1 -0.5 3t-0.5 3q0 18 15 33.5t40 15.5q31 0 53 -23.5t22 -60.5q0 -45 -35.5 -87t-88.5 -67z"/>
<glyph glyph-name="quotedblleft" horiz-adv-x="351" unicode="“" d="M103 416q-33 0 -55 22t-22 59q0 45 36 87.5t90 68.5l8 -7q-80 -53 -80 -115q0 -33 23.5 -47t47.5 -14h5q1 -2 1 -7q0 -18 -14.5 -32.5t-39.5 -14.5zM272 416q-32 0 -54 22.5t-22 58.5q0 45 36 87.5t89 68.5l9 -7q-80 -53 -80 -115q0 -33 24 -47t47 -14h4q1 -3 1 -8 q0 -18 -14.5 -32t-39.5 -14z"/>
<glyph glyph-name="quotedblright" horiz-adv-x="350" unicode="”" d="M33 412l-9 8q79 50 79 112q0 34 -25.5 48.5t-47.5 14.5h-2q0 1 -0.5 3t-0.5 3q0 18 15 33.5t40 15.5q31 0 53 -23.5t22 -60.5q0 -45 -35.5 -87t-88.5 -67zM202 412l-8 8q79 50 79 112q0 34 -25.5 48.5t-47.5 14.5h-2q0 1 -0.5 3t-0.5 3q0 18 14.5 33.5t39.5 15.5 q32 0 54 -23.5t22 -60.5q0 -45 -35.5 -87t-89.5 -67z"/>
<glyph glyph-name="dagger" horiz-adv-x="444" unicode="†" d="M213 -156v564h-196l-1 18h197v199h19v-199h198l-2 -18h-196v-564h-19z"/>
<glyph glyph-name="daggerdbl" horiz-adv-x="444" unicode="‡" d="M213 -156v187h-197l1 19h196v368h-196l-1 19h197v188h19v-188h198l-2 -19h-196v-368h196l2 -19h-198v-187h-19z"/>
<glyph glyph-name="ellipsis" horiz-adv-x="589" unicode="…" d="M96 -13q-24 0 -40 16t-16 38t16 37.5t40 15.5q23 0 38 -15.5t15 -37.5t-15 -38t-38 -16zM295 -13q-24 0 -39.5 16t-15.5 38q0 21 16 37t39 16t38.5 -15.5t15.5 -37.5t-15.5 -38t-38.5 -16zM495 -13q-24 0 -39.5 16t-15.5 38q0 21 16 37t39 16t38.5 -15.5t15.5 -37.5 t-15.5 -38t-38.5 -16z"/>
<glyph glyph-name="perthousand" horiz-adv-x="910" unicode="‰" d="M446 2q52 0 83.5 34t31.5 85q0 50 -31.5 85.5t-83.5 35.5q-51 0 -82.5 -35.5t-31.5 -85.5q0 -51 31 -85t83 -34zM762 2q51 0 83 34t32 85q0 50 -32 85.5t-83 35.5q-52 0 -83.5 -35.5t-31.5 -85.5q0 -51 31.5 -85t83.5 -34zM147 384q52 0 84 34.5t32 84.5t-32 85.5 t-84 35.5q-51 0 -82.5 -35.5t-31.5 -85.5t31.5 -84.5t82.5 -34.5zM446 -17q-62 0 -99 40t-37 98q0 59 37 99.5t99 40.5t99.5 -41t37.5 -99t-37.5 -98t-99.5 -40zM762 -17q-62 0 -99.5 40t-37.5 98t37.5 99t99.5 41t99.5 -41t37.5 -99t-37.5 -98t-99.5 -40zM58 -14l453 654 h23l-452 -654h-24zM147 365q-61 0 -98.5 40t-37.5 98t37.5 99t98.5 41q62 0 100 -41t38 -99t-38 -98t-100 -40z"/>
<glyph glyph-name="guilsinglleft" horiz-adv-x="256" unicode="‹" d="M226 47l-206 166v17l205 166l5 -8l-135 -166l135 -166z"/>
<glyph glyph-name="guilsinglright" horiz-adv-x="256" unicode="›" d="M31 47l-5 9l135 166l-135 166l6 8l205 -166v-17z"/>
<glyph glyph-name="fraction" horiz-adv-x="487" unicode="⁄" d="M-7 -14l475 654h26l-475 -654h-26z"/>
<glyph glyph-name="Euro" horiz-adv-x="488" unicode="€" d="M296 -14q-83 0 -146 64t-81 170h-64l3 18h58q-3 30 -3 56q0 33 4 54h-62l3 19h62q19 119 92 192t169 73q61 0 100 -23t39 -59q0 -18 -13 -31t-31 -13q-22 0 -34 15t-12 35q0 16 8 29q-25 29 -66 29q-71 0 -121.5 -69t-61.5 -178h203l3 -19h-208q0 -6 -0.5 -17t-0.5 -17 q0 -37 6 -76h200l3 -18h-199q17 -85 66.5 -134.5t112.5 -49.5q93 0 146 87l11 -7q-71 -130 -186 -130z"/>
<glyph glyph-name="trademark" horiz-adv-x="555" unicode="™" d="M72 403l2 11l24 2q11 1 11 6v192h-10q-26 -1 -39 -11.5t-23 -32.5l-5 -16h-9l8 71h196l4 -71h-9l-4 17q-10 24 -22 33.5t-39 9.5h-11v-193q0 -3 13 -5l21 -2l1 -11h-109zM252 403l2 11l16 1q12 1 15 6t3 23l5 159q-4 8 -15 9l-19 3l-1 10h79l55 -168h4l60 168h81l-2 -10 l-22 -3q-10 -1 -10 -6l4 -178q1 -7 3 -9t11 -3l18 -2l1 -11h-102v11l21 2q10 3 9 13l-3 176h-3l-74 -198h-14l-66 194q-3 0 -4 1l-4 -159q0 -18 3.5 -22.5t15.5 -5.5l16 -1l1 -11h-84z"/>
<glyph glyph-name="minus" d="M410 225h-372l3 22h366z" unicode="−"/>
<glyph glyph-name="approxequal" d="M411 367h22q-17 -94 -106 -94q-33 0 -104 33.5t-102 33.5q-34 0 -54.5 -15t-29.5 -57h-22q17 94 106 94q33 0 104 -33.5t102 -33.5q36 0 55.5 15t28.5 57zM411 203h22q-17 -94 -106 -94q-33 0 -104 33.5t-102 33.5q-34 0 -54.5 -15t-29.5 -57h-22q17 94 106 94 q33 0 104 -33.5t102 -33.5q36 0 55.5 15t28.5 57z" unicode="≈"/>
<glyph glyph-name="notequal" d="M29 311l-3 22h215l43 150h23l-43 -150h158l-3 -22h-161l-43 -151h204l3 -22h-213l-45 -160h-23l45 160h-160l3 22h163l43 151h-206z" unicode="≠"/>
<glyph glyph-name="lessequal" horiz-adv-x="438" unicode="≤" d="M409 87l-396 173v14l396 173l8 -20l-366 -157v-4l366 -159zM418 27h-405l3 22h399z"/>
<glyph glyph-name="greaterequal" horiz-adv-x="438" unicode="≥" d="M425 260l-396 -173l-8 20l366 159v4l-366 157l8 20l396 -173v-14zM425 27h-405l3 22h399z"/>
</font>
</defs>
</svg>
