<?xml version="1.0" encoding="UTF-8" standalone="no"?>
<!DOCTYPE svg  PUBLIC '-//W3C//DTD SVG 1.1//EN'  'http://www.w3.org/Graphics/SVG/1.1/DTD/svg11.dtd'>
<svg xmlns="http://www.w3.org/2000/svg">
<defs>
<font id="FreightDispProBold-Italic" horiz-adv-x="448">
<font-face slope="-12" underline-position="-146" font-weight="700" descent="-200" panose-1="2 0 8 3 9 0 0 9 0 4" units-per-em="1000" unicode-range="U+0020-2265" bbox="-190 -263 1065 853" x-height="450" underline-thickness="20" font-family="FreightDispProBold" ascent="800" font-style="italic" cap-height="625"/>
<missing-glyph horiz-adv-x="1000"/>
<glyph glyph-name=".notdef" horiz-adv-x="1000"/>
<glyph glyph-name=".null" horiz-adv-x="0"/>
<glyph glyph-name="nonmarkingreturn" horiz-adv-x="333"/>
<glyph glyph-name="space" horiz-adv-x="180" unicode=" "/>
<glyph glyph-name="exclam" horiz-adv-x="277" unicode="!" d="M108 -13q-28 0 -48 20t-20 47t20 46.5t48 19.5q27 0 46.5 -19.5t19.5 -46.5t-19.5 -47t-46.5 -20zM140 198q0 -4 -6 -4q-7 0 -6 5l15 385q4 56 59 56q9 0 14 -1h3q57 -5 57 -43q0 -10 -5 -25z"/>
<glyph glyph-name="quotedbl" horiz-adv-x="350" unicode='&quot;' d="M37 403l141 242h2l72 -33l-193 -209h-22zM209 403l141 242h1l72 -33l-192 -209h-22z"/>
<glyph glyph-name="numbersign" horiz-adv-x="521" unicode="#" d="M172 208h161l55 207h-162zM93 -5l51 193h-135l1 20h140l54 207h-135v20h141l51 197h23l-52 -197h161l52 197h22l-51 -197h133v-20h-139l-54 -207h134l-1 -20h-139l-51 -193h-22l51 193h-161l-52 -193h-22z"/>
<glyph glyph-name="dollar" horiz-adv-x="512" unicode="$" d="M153 24q31 -15 75 -15q58 0 94.5 37t36.5 90q0 40 -27 69t-80 58zM370 600q-35 14 -68 14q-48 0 -81 -29.5t-33 -71.5q0 -37 24.5 -64.5t71.5 -54.5zM120 -1q-56 12 -111 40l20 168l22 -1l27 -101q20 -47 56 -71l100 239l-1 1h-1q-73 39 -111.5 80.5t-38.5 101.5 q0 73 62 127t153 54q41 0 83 -10l47 112h22l-49 -118q23 -6 55 -19l53 13l-30 -181l-21 1l-47 143q-6 5 -22 13l-86 -208q2 -1 11 -5q74 -40 114 -82.5t40 -105.5q0 -83 -68 -143.5t-172 -60.5q-44 0 -86 8l-66 -159h-23z"/>
<glyph glyph-name="percent" horiz-adv-x="608" unicode="%" d="M441 4q52 0 85 35.5t33 87.5q0 49 -31.5 82t-80.5 33q-52 0 -85 -36.5t-33 -87.5q0 -50 31 -82t81 -32zM198 384q52 0 85 35t33 86q0 50 -31 83.5t-81 33.5q-52 0 -85 -36.5t-33 -87.5q0 -50 31 -82t81 -32zM439 -16q-59 0 -96 37.5t-37 94.5q0 61 40 103.5t102 42.5 q59 0 96.5 -38.5t37.5 -95.5q0 -60 -40 -102t-103 -42zM9 -14l598 654h26l-597 -654h-27zM197 364q-59 0 -96.5 38t-37.5 95q0 60 40 102.5t102 42.5q60 0 97.5 -38.5t37.5 -95.5q0 -60 -40 -102t-103 -42z"/>
<glyph glyph-name="ampersand" horiz-adv-x="746" unicode="&amp;" d="M281 433q18 -69 79 -69q11 0 19 7t8 16q0 20 -25 33.5t-61 13.5q-14 0 -20 -1zM641 391q41 -17 64.5 -51t23.5 -80q0 -114 -110.5 -194.5t-262.5 -80.5q-151 0 -239.5 70t-88.5 177q0 66 42 118t111 78q-10 23 -10 50q0 67 47.5 114t117.5 47h2q58 0 95.5 -42.5 t37.5 -101.5q0 -7 -2 -23l-17 4v9q0 38 -23 64.5t-64 26.5q-38 0 -63 -31.5t-25 -73.5q0 -15 1 -22q8 1 23 1q50 0 81 -21t31 -52q0 -26 -22 -42t-56 -16q-44 0 -84 25.5t-61 65.5q-62 -35 -62 -113q0 -107 85 -167t236 -60q115 0 188 54.5t73 136.5q0 46 -30.5 80t-72.5 34 q-31 0 -65.5 -30.5t-34.5 -57.5q0 -29 21 -45.5t55 -17.5q-25 11 -25 41q0 19 12.5 33.5t35.5 14.5q21 0 35 -13.5t14 -35.5q0 -25 -19 -42t-50 -17q-52 0 -88.5 35t-36.5 90q0 41 27 70.5t65.5 46.5t77 32.5t65.5 40.5t27 59q0 25 -22 42t-58 18q27 -10 27 -46 q0 -21 -13 -35.5t-39 -14.5q-24 0 -39 15t-15 39q0 26 22.5 44t54.5 18q56 0 94 -40t38 -98q0 -43 -29.5 -72t-102.5 -58z"/>
<glyph glyph-name="quotesingle" horiz-adv-x="180" unicode="&apos;" d="M37 403l141 242h2l72 -33l-193 -209h-22z"/>
<glyph glyph-name="parenleft" horiz-adv-x="340" unicode="(" d="M253 -263q-77 49 -138 155.5t-61 240.5q0 40 6 82q13 85 50 160.5t86 128.5t98 88.5t96 55.5l12 -19q-46 -19 -93.5 -54.5t-93.5 -87t-81 -123.5t-47 -151q-6 -42 -6 -80q0 -128 56.5 -229.5t129.5 -148.5z"/>
<glyph glyph-name="parenright" horiz-adv-x="340" unicode=")" d="M-58 -263l-12 18q45 19 92.5 54.5t93.5 86.5t81 123.5t47 152.5q6 40 6 80q0 127 -56.5 228.5t-128.5 149.5l14 18q77 -50 138 -157t61 -241q0 -38 -6 -80q-13 -85 -50 -161t-86 -128.5t-98 -88.5t-96 -55z"/>
<glyph glyph-name="asterisk" horiz-adv-x="325" unicode="*" d="M247 305l-55 36l16 122q0 1 -2.5 2t-4.5 1.5t-2 -0.5l-68 -97l-66 7q-5 6 -5 8l18 63l117 24q2 0 2 5t-2 6l-112 42l-9 65q-1 2 7 7l66 -2l52 -108q0 -1 2 -1t4.5 1t2.5 2l5 123l59 26h1l6 -2l21 -60l-87 -89q-1 -2 2 -5.5t4 -2.5l117 36l44 -48q1 -2 1 -4q0 -1 -1 -3v-2 l-51 -39l-110 55q-2 0 -4.5 -4t-1.5 -5l71 -100l-30 -56z"/>
<glyph glyph-name="plus" d="M214 25v198h-198l3 26h195v198h26v-198h195l3 -26h-198v-198h-26z" unicode="+"/>
<glyph glyph-name="comma" horiz-adv-x="208" unicode="," d="M-30 -133l-9 10q52 21 83.5 54t31.5 71q0 27 -17.5 43t-38.5 16q-11 0 -19 -4q-1 3 -1 11q0 26 19.5 47t51.5 21q38 0 61 -25.5t23 -62.5q0 -55 -53.5 -106t-131.5 -75z"/>
<glyph glyph-name="hyphen" horiz-adv-x="296" unicode="-" d="M23 214l10 46h246l-7 -46h-249z"/>
<glyph glyph-name="period" horiz-adv-x="219" unicode="." d="M80 -13q-29 0 -49.5 21t-20.5 50q0 28 20.5 48.5t48.5 20.5q29 0 49.5 -21t20.5 -48q0 -29 -20 -50t-49 -21z"/>
<glyph glyph-name="slash" horiz-adv-x="258" unicode="/" d="M12 -236l212 877h23l-211 -877h-24z"/>
<glyph glyph-name="zero" horiz-adv-x="542" unicode="0" d="M238 8q45 0 83 52t58 128t20 153q0 62 -24 95.5t-68 33.5t-81.5 -53.5t-57.5 -130.5t-20 -154q0 -124 90 -124zM252 -14q-96 0 -156 61.5t-60 158.5q0 117 76.5 201.5t183.5 84.5q96 0 155.5 -61.5t59.5 -158.5q0 -118 -75.5 -202t-183.5 -84z"/>
<glyph glyph-name="one" horiz-adv-x="360" unicode="1" d="M8 0l5 17l38 4q40 3 43 18l74 393l-95 16l4 14l218 26l-85 -451q-2 -6 8 -10t35 -6l34 -4l1 -17h-280z"/>
<glyph glyph-name="two" horiz-adv-x="470" unicode="2" d="M-14 0l2 41q178 116 237.5 169.5t59.5 113.5q0 44 -26.5 70.5t-72.5 27.5q-62 0 -118 -63l-7 11q86 121 202 121h2q63 -1 103 -35.5t40 -87.5q0 -17 -3.5 -32.5t-14 -31t-19.5 -27.5t-29.5 -28.5t-35 -27.5t-43.5 -29.5t-48 -30t-57.5 -34.5t-61.5 -37l-1 -3h188 q47 0 75 21t65 79l12 20l17 -1l-84 -206h-382z"/>
<glyph glyph-name="three" horiz-adv-x="432" unicode="3" d="M102 -198q-69 0 -114.5 21.5t-45.5 65.5q0 23 16.5 41t43.5 18q28 0 47 -21.5t19 -50.5q0 -20 -10 -39q26 -14 49 -14q61 0 103.5 51.5t42.5 120.5q0 61 -36 98t-98 37q-26 0 -66 -11l-6 15q125 56 175 93.5t50 98.5q0 41 -27.5 68t-70.5 27q-34 0 -67.5 -20.5 t-57.5 -52.5l-7 12q38 58 91.5 94t115.5 36t103 -35t41 -88q0 -58 -49 -100t-145 -77v-3q6 2 19 2q69 -2 111 -47.5t42 -107.5q0 -91 -84 -161.5t-185 -70.5z"/>
<glyph glyph-name="four" horiz-adv-x="509" unicode="4" d="M49 82h201l54 278h-3zM201 -184l35 196h-262v20l409 453l51 -3l-75 -400h111l-20 -70h-105l-37 -196h-107z"/>
<glyph glyph-name="five" horiz-adv-x="425" unicode="5" d="M73 -200q-61 3 -98.5 26t-37.5 60q0 26 17.5 44t42.5 18h3q28 -1 44.5 -21.5t16.5 -49.5q0 -18 -8 -37q22 -16 51 -17h5q52 0 91 43t42 107v6q0 70 -59.5 121t-154.5 70l125 305h269l-25 -104h-262l-42 -106q121 -23 187.5 -84t66.5 -146v-7q-3 -92 -82 -160t-181 -68 h-11z"/>
<glyph glyph-name="six" horiz-adv-x="523" unicode="6" d="M239 6q54 0 93.5 70t39.5 156q0 61 -26.5 96.5t-73.5 35.5q-44 0 -85 -39q-37 -85 -37 -176q0 -143 89 -143zM245 -14q-96 0 -152.5 63t-56.5 160q0 80 39 156.5t107.5 137.5t171.5 98.5t221 37.5l6 -16q-140 -13 -240.5 -87.5t-151.5 -186.5l4 -1q74 58 146 58 q69 0 111.5 -47t42.5 -122q0 -103 -74.5 -177t-173.5 -74z"/>
<glyph glyph-name="seven" horiz-adv-x="457" unicode="7" d="M29 -184l372 559l-1 3h-140q-102 0 -137 -12.5t-53 -54.5l-15 -25h-17l60 190h378v-18l-356 -642h-91z"/>
<glyph glyph-name="eight" horiz-adv-x="507" unicode="8" d="M242 4q52 0 85 34.5t33 84.5q0 48 -38 88.5t-106 83.5q-41 -20 -65 -61.5t-24 -94.5q0 -59 31 -97t84 -38zM326 355q36 19 57 59t21 87q0 51 -26 85.5t-72 34.5q-47 0 -76 -33.5t-29 -80.5q0 -43 32 -78t93 -74zM239 -15q-89 0 -153.5 46.5t-64.5 118.5q0 61 49.5 103.5 t126.5 52.5v2q-102 67 -102 149q0 73 62.5 128t146.5 55q86 0 145 -42.5t59 -110.5q0 -58 -45.5 -93.5t-118.5 -47.5v-2q121 -75 121 -170q0 -78 -68 -133.5t-158 -55.5z"/>
<glyph glyph-name="nine" horiz-adv-x="523" unicode="9" d="M258 112q41 0 84 40q37 88 37 177q0 143 -88 143q-55 0 -94 -70t-39 -156q0 -61 26.5 -97.5t73.5 -36.5zM-46 -162l-5 17q138 13 239 87.5t152 184.5l-4 1q-72 -58 -146 -58q-69 0 -111 47t-42 123q0 104 74.5 178t173.5 74q96 0 152.5 -63.5t56.5 -159.5q0 -80 -39 -157 t-107.5 -138t-171.5 -98.5t-222 -37.5z"/>
<glyph glyph-name="colon" horiz-adv-x="217" unicode=":" d="M80 -13q-29 0 -49.5 21t-20.5 50q0 27 20.5 47.5t48.5 20.5q29 0 49.5 -20.5t20.5 -47.5q0 -29 -20 -50t-49 -21zM137 286q-29 0 -50 21t-21 50q0 27 20.5 47.5t49.5 20.5t49.5 -20.5t20.5 -47.5q0 -29 -20.5 -50t-48.5 -21z"/>
<glyph glyph-name="semicolon" horiz-adv-x="208" unicode=";" d="M-30 -134l-9 10q52 21 83.5 53.5t31.5 70.5q0 27 -17.5 43.5t-39.5 16.5q-8 0 -18 -4q-1 3 -1 10q0 25 19.5 46.5t51.5 21.5q38 0 61 -25.5t23 -61.5q0 -55 -53.5 -105.5t-131.5 -75.5zM133 286q-29 0 -50 20.5t-21 49.5q0 28 20.5 48.5t49.5 20.5t49.5 -21t20.5 -48 q0 -29 -20 -49.5t-49 -20.5z"/>
<glyph glyph-name="less" horiz-adv-x="438" unicode="&lt;" d="M414 32l-400 194v18l400 194l10 -24l-370 -177l1 -1q66 -32 191.5 -93.5t177.5 -86.5z"/>
<glyph glyph-name="equal" d="M27 136l3 26h394l3 -26h-400zM30 309l-3 26h400l-3 -26h-394z" unicode="="/>
<glyph glyph-name="greater" horiz-adv-x="438" unicode="&gt;" d="M430 226l-400 -194l-10 24l369 179v1q-60 29 -185 89t-184 89l10 24l400 -194v-18z"/>
<glyph glyph-name="question" horiz-adv-x="341" unicode="?" d="M122 -13q-28 0 -47.5 20t-19.5 47t19 46.5t47 19.5t47.5 -19.5t19.5 -46.5t-19.5 -47t-46.5 -20zM148 184q-64 57 -64 111q0 41 34 63.5t102 38.5q60 13 83 25.5t23 34.5q0 32 -44.5 57t-117.5 25q-23 0 -53 -4q-15 17 -15 38q0 29 19 48t58 19q80 0 130 -54.5t50 -128.5 q0 -66 -29 -101t-88 -52q-61 -16 -81.5 -27t-20.5 -33q0 -27 34 -58z"/>
<glyph glyph-name="at" horiz-adv-x="799" unicode="@" d="M329 120q24 0 59.5 41.5t73.5 111.5q27 51 27 71q-4 27 -28 52.5t-49 25.5q-16 0 -34 -16q-30 -28 -59.5 -101.5t-29.5 -125.5q0 -27 11.5 -43t28.5 -16zM411 -116q-162 0 -266 101t-103 259q1 165 117 284t278 119h2q148 -1 245 -89.5t97 -227.5v-6q-1 -112 -71 -193 t-162 -81q-52 0 -81 23.5t-29 59.5q0 34 25 99h-5q-58 -94 -95.5 -135.5t-79.5 -41.5q-40 0 -68.5 28t-29.5 70q0 57 38 127t93 122q67 67 128 67q30 0 46.5 -27.5t15.5 -67.5h4l40 110l95 -3l-65 -167l-42 -133q-6 -18 -6 -32q0 -51 67 -51q61 0 111.5 67.5t50.5 162.5 q0 131 -91 215t-232 85h-2q-153 0 -263 -114.5t-110 -273.5q0 -148 98 -242.5t251 -94.5q83 0 154.5 39.5t109.5 99.5l10 -14q-41 -63 -114.5 -103.5t-160.5 -40.5z"/>
<glyph glyph-name="A" horiz-adv-x="629" unicode="A" d="M194 272h150l-25 237h-5zM346 248h-164l-42 -82q-51 -94 -51 -114q0 -26 58 -32l26 -3l2 -17h-223l3 17l21 4q44 6 66 32t88 148l177 338l-3 41q26 5 59.5 23t46.5 38h18l66 -517q9 -60 22 -80t43 -23l31 -4l1 -17h-306l3 17l31 3q26 2 36 12.5t10 33.5q0 9 -4 41z"/>
<glyph glyph-name="B" horiz-adv-x="608" unicode="B" d="M320 347q68 0 106 41.5t38 104.5q0 51 -32 80.5t-92 31.5h-32l-48 -253q22 -5 60 -5zM250 20h30q69 1 111 49.5t42 115.5q0 64 -43 104t-111 40h-23l-56 -291zM-17 0l3 16l41 7q42 5 44 18l105 545q1 7 -6.5 10t-38.5 7l-31 6l-1 16h273q112 0 167.5 -38.5t55.5 -100.5 t-52.5 -101t-145.5 -47l1 -3q79 -14 124.5 -55.5t45.5 -100.5q0 -85 -74 -132t-214 -47h-297z"/>
<glyph glyph-name="C" horiz-adv-x="674" unicode="C" d="M369 -13q-148 0 -233 82t-85 207q0 94 45 176.5t132 134.5t197 52q105 0 175 -41l76 21l-27 -198l-25 1l-45 148q-52 45 -132 45q-77 0 -137.5 -55.5t-90 -139t-29.5 -175.5q0 -111 50.5 -173.5t142.5 -62.5q99 0 172 98l46 86l26 -1l-49 -184l-42 2q-71 -23 -167 -23z "/>
<glyph glyph-name="D" horiz-adv-x="688" unicode="D" d="M266 20q84 1 147 50.5t95 132t32 184.5q0 100 -46 158.5t-142 58.5h-44l-108 -566zM-17 0l3 16l42 7q41 5 43 18l105 545q1 7 -7 10t-37 7l-32 6l-1 16h261h5q150 0 231.5 -75t81.5 -194q0 -148 -110 -252t-297 -104h-288z"/>
<glyph glyph-name="E" horiz-adv-x="615" unicode="E" d="M-17 0l3 16l41 7q42 6 44 18l105 545q1 7 -7 10t-37 7l-31 6l-2 16h494l-4 -204h-26l-6 33q-21 86 -61.5 118t-132.5 32h-10h-45l-53 -275l36 1q60 2 90.5 18.5t48.5 55.5l15 33h21l-53 -240l-21 1l2 31v11q0 37 -23.5 51t-89.5 17l-29 2l-55 -286l82 -4q100 1 157.5 38 t99.5 116l16 31h26l-62 -205h-533z"/>
<glyph glyph-name="F" horiz-adv-x="583" unicode="F" d="M-17 0l3 16l44 7q39 4 41 18l105 545q1 7 -6.5 10t-36.5 7l-32 6l-2 16h502l-13 -204h-26l-6 33q-19 88 -56 119t-134 31l-58 -1l-54 -281l37 1q61 2 91 18t48 56l16 33h20l-53 -240l-20 1l2 31v7q0 41 -23.5 56t-90.5 16l-30 1l-52 -263q-1 -5 2 -8t13 -5.5t29 -3.5 l46 -5l1 -17h-307z"/>
<glyph glyph-name="G" horiz-adv-x="712" unicode="G" d="M366 -16q-146 0 -231 80.5t-85 209.5q0 150 107 257.5t272 107.5q110 0 180 -41l75 21l-29 -202l-24 1l-46 154q-49 43 -132 43q-114 0 -188.5 -110t-74.5 -263q0 -109 49 -172.5t134 -63.5q47 0 81 16l42 214q1 7 -11 11t-43 7l-36 5l-2 16h302l-4 -16l-43 -6 q-38 -4 -40 -18l-37 -185l57 4v-13q-145 -57 -273 -57z"/>
<glyph glyph-name="H" horiz-adv-x="739" unicode="H" d="M-16 0l3 16l41 7q40 4 44 18l104 545q2 7 -6 10t-38 7l-31 6l-2 16h294l-4 -16l-41 -7q-41 -6 -43 -18l-49 -255h268l50 257q1 7 -7 10t-38 7l-32 6l-1 16h294l-4 -16l-40 -7q-42 -5 -44 -18l-104 -545q-2 -7 6.5 -10t37.5 -7l31 -6l1 -16h-293l3 16l42 7q41 4 43 18 l51 266h-269l-51 -268q-2 -7 6.5 -10t37.5 -7l32 -6l2 -16h-294z"/>
<glyph glyph-name="I" horiz-adv-x="365" unicode="I" d="M-9 0l3 16l46 7q42 4 44 18l104 545q2 7 -6 10t-38 7l-36 6l-2 16h302l-3 -16l-46 -7q-41 -4 -43 -18l-105 -545q-1 -7 7.5 -10t37.5 -7l36 -6l1 -16h-302z"/>
<glyph glyph-name="J" horiz-adv-x="361" unicode="J" d="M-35 -151q-48 0 -76 21t-28 54q0 27 20 46t48 19q29 0 46 -18t17 -45q0 -31 -21 -56h4q84 0 118 189l102 527q1 5 -1.5 7.5t-12.5 5t-30 4.5l-39 6l-2 16h304l-4 -16l-43 -7q-42 -4 -44 -18l-103 -528q-12 -72 -92.5 -139.5t-162.5 -67.5z"/>
<glyph glyph-name="K" horiz-adv-x="689" unicode="K" d="M-17 0l4 16l42 7q40 4 42 18l105 545q1 7 -6.5 10t-36.5 7l-33 6l-2 16h299l-3 -16l-47 -7q-41 -4 -43 -18l-56 -295l181 157q123 106 123 134q0 19 -50 25l-29 4l-2 16h264l-3 -16l-25 -4q-42 -4 -80.5 -30t-132.5 -104q-13 -11 -20 -17l-51 -44l129 -309q21 -52 34 -65 t41 -17l20 -3l1 -16h-283l3 16l20 4q37 3 37 31q0 21 -18 69l-83 205l-82 -69l-43 -217q-1 -7 7.5 -10.5t37.5 -6.5l36 -6l3 -16h-300z"/>
<glyph glyph-name="L" horiz-adv-x="584" unicode="L" d="M-17 0l3 16l43 7q40 4 42 18l105 545q1 7 -6.5 10t-36.5 7l-33 6l-2 16h307l-4 -16l-54 -7q-41 -5 -43 -18l-107 -560q64 -4 69 -4q86 0 136.5 36.5t104.5 131.5l16 34h26l-60 -222h-506z"/>
<glyph glyph-name="M" horiz-adv-x="848" unicode="M" d="M-23 0l3 16l29 5q41 3 55.5 20t23.5 68l104 464q-11 28 -49 31l-36 4l-2 17h233l69 -460l4 -1l255 461h225l-4 -16l-43 -7q-42 -4 -44 -18l-96 -497q-2 -24 -2 -29q0 -20 8.5 -26t35.5 -10l32 -6l1 -16h-300l3 16l48 7q24 2 33.5 15t13.5 51l91 482h-4l-315 -565h-45 l-83 546q-1 2 -4 6l-3 4l-100 -458q-5 -27 -5 -39q0 -23 13.5 -32.5t48.5 -11.5l29 -5l2 -16h-225z"/>
<glyph glyph-name="N" horiz-adv-x="688" unicode="N" d="M500 -6l-296 532h-4l-84 -419q-3 -18 -3 -32q0 -28 13.5 -39.5t48.5 -14.5l28 -5l2 -16h-224l3 16l28 5q38 4 55 24t24 67l87 427q-21 57 -73 64l-20 4l-2 18h219l242 -442h4l66 335q3 20 3 34q0 27 -13.5 38t-47.5 14l-28 5l-2 16h224l-4 -16l-27 -5q-37 -3 -54.5 -23.5 t-24.5 -67.5l-105 -519h-35z"/>
<glyph glyph-name="O" horiz-adv-x="731" unicode="O" d="M352 9q67 0 121 62t81 151.5t27 182.5t-42.5 151.5t-122.5 58.5q-54 0 -99.5 -40.5t-72.5 -102.5t-41.5 -130t-14.5 -130q0 -90 42 -146.5t122 -56.5zM361 -14q-136 0 -221 86.5t-85 215.5q0 90 43.5 170t125 130t183.5 50q136 0 222 -87.5t86 -216.5 q0 -141 -100.5 -244.5t-253.5 -103.5z"/>
<glyph glyph-name="P" horiz-adv-x="588" unicode="P" d="M317 300q69 0 111.5 53t42.5 131q0 54 -29 86t-80 35h-54l-56 -294q40 -11 65 -11zM-21 0l3 16l46 7q41 4 43 18l105 545q1 7 -7 10.5t-37 6.5l-36 6l-2 16h282q110 0 170 -44t60 -115q0 -85 -71 -136.5t-186 -51.5q-46 0 -100 12l-50 -251q-1 -5 2 -8t13 -5.5t29 -3.5 l49 -5l1 -17h-314z"/>
<glyph glyph-name="Q" horiz-adv-x="732" unicode="Q" d="M352 9q68 0 122 62.5t80.5 152t26.5 182.5q0 92 -42.5 150.5t-122.5 58.5q-54 0 -99.5 -40.5t-72.5 -102.5t-41.5 -130t-14.5 -130q0 -89 42.5 -146t121.5 -57zM561 -185q-121 0 -192 40.5t-105 146.5q-96 27 -152.5 105t-56.5 181q0 141 100 245.5t252 104.5 q136 0 222 -88t86 -216q0 -126 -82.5 -224t-213.5 -118q29 -89 83.5 -121.5t164.5 -32.5l1 -13q-40 -10 -107 -10z"/>
<glyph glyph-name="R" horiz-adv-x="645" unicode="R" d="M334 327q66 2 106.5 45.5t40.5 111.5q0 54 -34.5 87t-94.5 33h-44l-50 -262q39 -15 76 -15zM-21 0l3 16l46 7q41 3 43 18l104 545q1 5 -1.5 7.5t-12.5 5t-30 4.5l-36 6l-1 16h291q104 0 167.5 -41.5t63.5 -109.5q0 -67 -52.5 -111t-142.5 -51l95 -204q21 -50 37.5 -67 t49.5 -22l12 -3l2 -16h-200l-119 307q-1 0 -19.5 5t-23.5 8l-56 -281q-1 -7 10 -11t34 -6l40 -5l2 -17h-306z"/>
<glyph glyph-name="S" horiz-adv-x="520" unicode="S" d="M237 -14q-115 0 -217 53l19 168l23 -1l26 -101q40 -96 150 -96q59 0 95.5 37t36.5 90q0 44 -31.5 74t-95.5 64q-73 39 -111 80.5t-38 102.5q0 72 61 126t152 54q67 0 158 -34l53 12l-30 -181l-21 1l-46 143q-48 36 -109 36q-47 0 -80.5 -30t-33.5 -71q0 -43 29.5 -71.5 t96.5 -63.5q74 -40 113 -82t39 -107q0 -82 -67.5 -142.5t-171.5 -60.5z"/>
<glyph glyph-name="T" horiz-adv-x="663" unicode="T" d="M136 0l4 16l50 7q41 4 44 18l107 564h-24q-117 -5 -201 -145l-17 -36h-26l59 201h558l-26 -200h-22l-6 35q-27 142 -143 145h-23l-109 -566q-1 -7 7.5 -10.5t37.5 -6.5l40 -6l2 -16h-312z"/>
<glyph glyph-name="U" horiz-adv-x="697" unicode="U" d="M352 -18q-117 0 -185.5 48t-68.5 139q0 30 9 80l64 337q1 7 -6.5 10.5t-36.5 6.5l-37 6l-2 16h304l-4 -16l-46 -7q-39 -4 -43 -18l-63 -331q-9 -43 -9 -82q0 -141 163 -141q73 0 117 43.5t61 137.5l63 307q3 18 3 32q0 28 -14 40t-49 15l-28 4l-2 16h225l-4 -16l-28 -4 q-36 -4 -53 -24t-25 -68l-63 -310q-43 -221 -242 -221z"/>
<glyph glyph-name="V" horiz-adv-x="641" unicode="V" d="M261 -7l-97 513q-14 64 -23.5 79.5t-39.5 18.5l-29 4l-2 17h300l-3 -17l-34 -2q-28 -1 -38 -8.5t-10 -25.5q0 -16 6 -47l67 -379h4l171 316q52 93 52 113q0 14 -13.5 20.5t-43.5 9.5l-27 3l-2 17h224l-4 -17l-20 -4q-45 -6 -68 -32.5t-91 -147.5l-240 -431h-39z"/>
<glyph glyph-name="W" horiz-adv-x="976" unicode="W" d="M253 -11l-94 517q-12 61 -22 78t-40 20l-28 4l-1 17h300l-3 -17l-34 -2q-27 -1 -37.5 -9.5t-10.5 -28.5q0 -12 3 -30l65 -396h4l178 322l-8 43q-9 58 -20 76t-40 21l-31 4l-2 17h305l-4 -17l-33 -2q-28 -1 -39 -10t-11 -31q0 -13 3 -32l56 -389h3l161 311q50 94 50 115 q0 16 -13.5 23.5t-45.5 11.5l-23 3l-1 17h225l-4 -17l-19 -4q-45 -7 -68 -32t-78 -125l-244 -458h-42l-68 436h-3l-246 -436h-40z"/>
<glyph glyph-name="X" horiz-adv-x="654" unicode="X" d="M-42 0l3 16l32 5q39 4 68 28t108 111l119 131l-95 205q-22 48 -30 64t-20.5 28.5t-29.5 14.5l-32 6l-2 16h300l-4 -16l-28 -3q-39 -3 -39 -29q0 -21 17 -56l59 -137l4 -1l79 91q78 87 78 106q0 11 -13 16t-43 9l-23 4l-1 16h236l-3 -16l-28 -5q-41 -5 -73 -30.5 t-111 -112.5l-88 -97l119 -259q21 -49 33.5 -65.5t34.5 -18.5l27 -5l1 -16h-293l3 16l28 3q42 3 42 30q0 14 -10 34l-83 188h-3l-102 -117q-79 -86 -79 -108q0 -11 13 -16.5t43 -9.5l24 -4l2 -16h-240z"/>
<glyph glyph-name="Y" horiz-adv-x="632" unicode="Y" d="M120 0l4 16l51 7q41 4 43 18l46 234l-94 248q-17 45 -31 61t-42 20l-24 4l-1 17h301l-4 -17l-23 -2q-53 -4 -53 -35q0 -13 10 -40l77 -220h4l108 150q69 95 69 116t-55 27l-26 4l-1 17h228l-4 -17l-26 -4q-36 -5 -65.5 -32t-96.5 -118l-121 -166l-48 -249q-1 -7 7 -10.5 t37 -6.5l41 -6v-16h-311z"/>
<glyph glyph-name="Z" horiz-adv-x="603" unicode="Z" d="M-9 0l3 17l484 582l-1 4l-94 1q-99 0 -156.5 -37t-92.5 -112l-13 -30h-24l40 200h501l-3 -18l-490 -580v-4l101 -2h17q102 0 155 37t111 134l15 32h26l-64 -224h-515z"/>
<glyph glyph-name="bracketleft" horiz-adv-x="325" unicode="[" d="M-5 -239l130 872h249l-1 -22h-224l-127 -829h224l-2 -21h-249z"/>
<glyph glyph-name="backslash" horiz-adv-x="246" unicode="\" d="M209 -236l-212 877h24l211 -877h-23z"/>
<glyph glyph-name="bracketright" horiz-adv-x="325" unicode="]" d="M-58 -239l2 21h224l127 829h-224l1 22h249l-130 -872h-249z"/>
<glyph glyph-name="asciicircum" horiz-adv-x="379" unicode="^" d="M96 491l159 192h41l85 -192h-18l-101 102h-2l-146 -102h-18z"/>
<glyph glyph-name="underscore" horiz-adv-x="453" unicode="_" d="M-26 -36l3 37h425l3 -37h-431z"/>
<glyph glyph-name="grave" horiz-adv-x="400" unicode="`" d="M305 499l-165 185h113l71 -185h-19z"/>
<glyph glyph-name="a" horiz-adv-x="502" unicode="a" d="M165 60q48 0 139 170q7 15 17.5 44.5t10.5 37.5q-5 33 -31 59.5t-54 26.5q-16 0 -35 -17q-32 -34 -60.5 -113t-28.5 -138q0 -70 42 -70zM346 -14q-18 0 -52.5 21.5t-34.5 34.5q0 28 49 157h-5q-78 -133 -109 -168q-39 -43 -79 -43q-44 0 -73.5 30.5t-29.5 81.5 q0 68 38.5 141.5t97.5 133.5q73 74 140 74q58 0 58 -95v-10h4l39 103l104 -3l-75 -204l-55 -181l45 -7l68 89l9 -8q-32 -65 -71 -106t-68 -41z"/>
<glyph glyph-name="b" horiz-adv-x="473" unicode="b" d="M198 8q22 0 46 22q40 40 72 123t32 147q0 79 -47 79q-30 0 -63.5 -50.5t-80.5 -151.5q-10 -24 -19.5 -59.5t-9.5 -48.5q8 -25 27.5 -43t42.5 -18zM168 -15q-51 0 -95.5 27.5t-44.5 68.5q0 9 3 20l133 496q6 24 -7 26l-74 10l4 13l206 27l-31 -113q-54 -179 -106 -337 q-2 -6 1 -6.5t5 4.5q57 124 101 177t91 53q46 0 74.5 -35t28.5 -88q0 -66 -32 -138.5t-89 -128.5q-74 -76 -168 -76z"/>
<glyph glyph-name="c" horiz-adv-x="386" unicode="c" d="M157 -13q-62 0 -102.5 44.5t-40.5 110.5q0 71 35.5 142t99.5 119t137 48q45 0 78 -24t33 -61q0 -30 -18 -50.5t-44 -20.5q-24 0 -40.5 15.5t-16.5 36.5q0 18 10 34t25 23q-32 22 -50 22q-19 0 -48 -27q-33 -34 -60 -106t-27 -139q0 -49 20.5 -75.5t57.5 -26.5 q31 0 59.5 20.5t66.5 72.5l10 -9q-83 -149 -185 -149z"/>
<glyph glyph-name="d" horiz-adv-x="502" unicode="d" d="M165 60q49 0 139 170q7 15 17.5 44.5t10.5 37.5q-5 33 -31.5 59.5t-53.5 26.5q-15 0 -35 -18q-32 -33 -60.5 -112t-28.5 -138q0 -70 42 -70zM346 -14q-18 0 -52 23t-34 36q0 26 47 154h-4q-78 -133 -109 -168q-39 -43 -79 -43q-44 0 -73.5 30.5t-29.5 81.5 q0 68 38.5 141.5t97.5 133.5q76 76 139 76q56 0 56 -101v-6h5l75 253q6 24 -7 26l-80 10l3 13l215 28l-132 -423l-59 -192l45 -7l68 88l9 -8q-32 -65 -71 -105.5t-68 -40.5z"/>
<glyph glyph-name="e" horiz-adv-x="393" unicode="e" d="M139 229q83 27 124 60t41 81q0 23 -14.5 38.5t-33.5 15.5q-20 0 -40 -18q-24 -24 -46.5 -72.5t-33.5 -103.5zM159 -13q-63 0 -104 44t-41 111q0 112 81.5 210.5t185.5 98.5q50 0 82 -24.5t32 -62.5q0 -49 -60.5 -81.5t-199.5 -70.5q-7 -33 -7 -62q0 -46 22 -72t60 -26 q64 0 132 93l10 -9q-84 -149 -193 -149z"/>
<glyph glyph-name="f" horiz-adv-x="298" unicode="f" d="M-69 -200q-42 0 -69 20.5t-27 52.5q0 23 16.5 40.5t43.5 17.5q23 0 40.5 -17.5t17.5 -41.5q0 -18 -12 -38q23 -4 32 -4q23 7 43 64t49 200l52 288l-88 3l15 43l86 10q31 125 84 178q54 56 140 56q47 0 76 -23t29 -57q0 -26 -17.5 -43.5t-42.5 -17.5q-26 0 -41 16.5 t-15 39.5q0 28 21 49q-32 7 -44 7q-52 -16 -88 -208h109l-10 -50h-109l-61 -277q-42 -190 -109 -259q-49 -49 -121 -49z"/>
<glyph glyph-name="g" horiz-adv-x="426" unicode="g" d="M166 -225q53 0 89 24t36 58q0 28 -29 48.5t-82 38.5q-16 6 -50 16.5t-49 16.5q-34 -11 -54 -36t-20 -58q0 -49 43 -78.5t116 -29.5zM179 152q25 0 48 23q29 29 45.5 85.5t16.5 100.5q0 28 -15 46.5t-37 18.5q-17 0 -39 -18q-27 -28 -44.5 -83.5t-18.5 -97.5q0 -45 17 -64 q13 -11 27 -11zM127 -248q-96 0 -155 31.5t-59 84.5q0 38 42.5 69.5t105.5 47.5v3q-60 33 -60 75q0 31 31.5 56t73.5 37v4q-31 20 -49.5 51.5t-18.5 67.5q0 69 58.5 120.5t131.5 51.5h2q60 -2 104 -33l130 16l-16 -73l-112 34l-1 -5q47 -44 47 -100q0 -64 -56 -110.5 t-125 -46.5h-4q-37 0 -73 16q-18 -4 -28 -17t-10 -27q0 -16 18.5 -25.5t76.5 -26.5l34 -10q75 -23 117.5 -54.5t42.5 -84.5q0 -60 -72.5 -106t-175.5 -46z"/>
<glyph glyph-name="h" horiz-adv-x="502" unicode="h" d="M338 -14q-17 0 -49.5 20.5t-32.5 35.5q0 6 3 17.5t9.5 30t13 35.5t17 45t17.5 48q42 109 42 121q0 11 -16 21.5t-32 10.5q-46 0 -170 -262l-35 -112l-113 3q1 2 12.5 37t24 75t15.5 48l123 437q8 24 -7 26l-73 10l4 13l205 27l-31 -113q-96 -329 -123 -395l7 -2 q95 194 147 246q43 41 81 41t64.5 -21.5t26.5 -47.5q0 -44 -48 -168l-59 -154l44 -7l70 88l9 -8q-32 -64 -74.5 -105t-71.5 -41z"/>
<glyph glyph-name="i" horiz-adv-x="275" unicode="i" d="M113 -14q-17 0 -51 20.5t-34 34.5q0 7 25.5 82.5t56.5 164.5t31 90l-53 5l-64 -94l-10 9q31 67 70.5 110t72.5 43q20 0 53.5 -21.5t33.5 -40.5q0 -28 -112 -330l47 -7l70 88l9 -8q-33 -64 -74.5 -105t-70.5 -41zM245 520q-28 0 -45 18t-17 45q0 33 19 56t44 23 q29 0 46 -18t16 -44q0 -34 -19 -57t-44 -23z"/>
<glyph glyph-name="j" horiz-adv-x="259" unicode="j" d="M-109 -253q-32 0 -56.5 19.5t-24.5 51.5q0 23 16.5 40t42.5 17q24 0 39.5 -17t15.5 -41t-15 -42l43 12q28 35 73 196l117 395l-52 5l-65 -94l-10 9q31 67 70.5 110t71.5 43q21 0 54.5 -21.5t33.5 -40.5t-46 -165.5t-72 -202.5q-53 -152 -118 -217q-57 -57 -118 -57z M248 520q-28 0 -45 18t-17 45q0 33 19 55.5t43 22.5q29 0 46 -17t17 -43q0 -34 -19 -57.5t-44 -23.5z"/>
<glyph glyph-name="k" horiz-adv-x="452" unicode="k" d="M302 -12q-15 0 -33.5 7.5t-26.5 15.5q-2 64 -10.5 116t-19.5 78.5t-22 26.5q-8 0 -17 -4.5t-10 -7.5l-58 -223l-114 3l11 33t22.5 69.5t18.5 57.5q18 54 48 163t51 191l21 83q6 24 -7 26l-73 10l3 13l207 27l-30 -113q-60 -209 -96 -316q8 2 28 4q40 15 94.5 42.5 t63.5 38.5v5q-44 18 -44 60q0 24 19 42.5t44 18.5q28 0 47 -18.5t19 -45.5q0 -39 -31.5 -65.5t-112.5 -55.5l-45 -16q36 -5 61.5 -65.5t33.5 -128.5l27 -2l62 91l10 -8q-28 -66 -67 -109.5t-74 -43.5z"/>
<glyph glyph-name="l" horiz-adv-x="256" unicode="l" d="M93 -14q-18 0 -51.5 21.5t-30.5 34.5l153 555q6 24 -7 26l-73 10l3 13l203 27l-174 -614l42 -7l70 88l10 -8q-33 -64 -74 -105t-71 -41z"/>
<glyph glyph-name="m" horiz-adv-x="770" unicode="m" d="M609 -14q-17 0 -50.5 20.5t-33.5 35.5q0 6 3 17.5t9.5 30t13 35.5t17.5 45t18 48q42 109 42 121t-16.5 22.5t-33.5 10.5q-42 0 -165 -263l-36 -112l-112 3l48 149q10 31 27 78t26.5 75.5t9.5 36.5q0 12 -14.5 22.5t-30.5 10.5q-42 0 -165 -263l-35 -112l-112 3l52 161 l58 218l-43 5l-65 -95l-10 9q31 68 70 111t70 43q18 0 50.5 -23t32.5 -42q0 -21 -21 -90.5t-46 -131.5l8 -1q102 206 142 245q42 42 81 42q38 0 61.5 -24t23.5 -53q0 -39 -68 -209l7 -1q103 206 143 245q40 42 81 42q38 0 64.5 -22t26.5 -47q0 -42 -47 -169 q-9 -21 -23.5 -59t-25 -66t-11.5 -29l44 -7l70 89l10 -8q-34 -65 -75 -106t-70 -41z"/>
<glyph glyph-name="n" horiz-adv-x="528" unicode="n" d="M366 -14q-17 0 -50 20.5t-33 35.5q0 6 3 17.5t9.5 30.5t12.5 35t17 45.5t18 47.5q5 14 14 37.5t14 36.5t9 27t4 20q0 12 -16 22.5t-31 10.5q-46 0 -171 -263l-34 -112l-113 3l52 161l58 217l-43 6l-65 -95l-10 9q31 67 71 110.5t71 43.5q17 0 49.5 -23t32.5 -42 q0 -22 -20.5 -91t-45.5 -131l6 -1q98 197 147 245q42 42 81 42q38 0 64.5 -22t26.5 -47q0 -42 -47 -169q-9 -21 -23.5 -59t-25 -66t-11.5 -29l44 -7l70 89l10 -8q-33 -65 -74.5 -106t-70.5 -41z"/>
<glyph glyph-name="o" horiz-adv-x="440" unicode="o" d="M171 10q37 0 69 47t54 124q24 76 24 149q0 45 -14 71t-37 26q-32 0 -67 -53t-59 -131q-22 -76 -22 -139q0 -42 14 -68t38 -26zM182 -13q-72 0 -117 55t-45 138q0 99 73 184.5t160 85.5q71 0 118 -56t47 -140q0 -99 -73 -183t-163 -84z"/>
<glyph glyph-name="p" horiz-adv-x="493" unicode="p" d="M224 8q24 0 49 25q38 38 68 121.5t30 145.5q0 41 -13.5 61.5t-36.5 20.5q-58 0 -150 -229q-20 -52 -20 -77q6 -25 28.5 -46.5t44.5 -21.5zM-104 -251l3 16l27 4q21 2 28.5 5.5t9.5 11.5l165 593l-43 4l-65 -94l-10 9q31 67 70 110t70 43q18 0 50.5 -23t32.5 -41 q0 -22 -27 -101h6q40 86 78.5 125t85.5 39q45 0 72.5 -40.5t27.5 -104.5q0 -117 -80.5 -218t-178.5 -101q-24 0 -44.5 13.5t-31.5 34.5h-4l-68 -249q-1 -5 2.5 -8t14 -5t28.5 -3l42 -4l1 -16h-262z"/>
<glyph glyph-name="q" horiz-adv-x="486" unicode="q" d="M165 60q49 0 139 170q7 15 17.5 44.5t10.5 37.5q-5 33 -31.5 59.5t-53.5 26.5q-15 0 -35 -18q-32 -33 -60.5 -112t-28.5 -138q0 -70 42 -70zM93 -251l3 16l41 4q39 2 44 19q17 67 78 261q0 1 21 66t28 85h-4q-38 -66 -54.5 -92t-43 -61t-47 -47t-44.5 -12 q-44 0 -73.5 30.5t-29.5 81.5q0 68 38.5 141.5t97.5 133.5q76 76 139 76q31 0 45.5 -31t13.5 -76h4l38 99l104 -3l-78 -211l-126 -443q-2 -7 8.5 -11t32.5 -6l27 -4l3 -16h-266z"/>
<glyph glyph-name="r" horiz-adv-x="432" unicode="r" d="M132 -3l-112 4l51 160l58 218l-43 5l-65 -95l-10 9q31 68 70 111t70 43q18 0 51 -23t33 -42q0 -37 -61 -204h6q6 11 21 42.5t21 43t18.5 36t19 35.5t15.5 27t16.5 25t13.5 15q36 46 78 46q32 -2 54 -23.5t22 -53.5t-19.5 -54.5t-45.5 -22.5h-2q-24 1 -38.5 16t-14.5 35 q0 24 20 43l-26 9q-35 -19 -160 -261z"/>
<glyph glyph-name="s" horiz-adv-x="360" unicode="s" d="M137 -14q-60 0 -102 24.5t-42 68.5q0 28 16.5 46.5t43.5 18.5q20 0 34 -15t15 -36q0 -28 -25 -48q11 -11 36.5 -24t49.5 -14q28 2 46.5 25t19.5 49q0 11 -4.5 21.5t-15 23t-18 20t-25 22.5t-23.5 21q-44 39 -64.5 67.5t-19.5 61.5q0 57 49.5 95t113.5 38q55 0 94.5 -22 t39.5 -63q0 -28 -16 -45.5t-41 -17.5q-23 0 -38 16t-15 38q0 24 25 43q-1 1 -8 6.5t-11.5 8.5t-12 7t-16.5 6.5t-19 2.5q-27 -3 -44 -25.5t-17 -46.5q0 -10 4.5 -20.5t15 -22.5t18 -19t23.5 -21t21 -19q31 -29 43.5 -42t28.5 -40t16 -51q0 -58 -53.5 -98t-122.5 -40z"/>
<glyph glyph-name="t" horiz-adv-x="311" unicode="t" d="M128 -14q-26 0 -66 19.5t-40 33.5q0 6 43 162.5t50 180.5l-80 3l15 44l81 11l38 128h106l-36 -132l98 -1l-4 -50h-108l-98 -326l65 -6l66 87l9 -8q-32 -66 -69.5 -106t-69.5 -40z"/>
<glyph glyph-name="u" horiz-adv-x="528" unicode="u" d="M374 -14q-18 0 -49 23.5t-31 42.5q0 22 21 91.5t45 129.5l-6 2q-101 -200 -147 -246q-42 -42 -81 -42t-65.5 22.5t-26.5 48.5q0 43 48 167l58 154l-45 5l-66 -95l-11 9q33 67 73.5 110t69.5 43q17 0 51 -22t34 -37q0 -6 -3 -17t-9.5 -29t-13 -34.5t-17 -44t-17.5 -46.5 q-41 -112 -41 -122q0 -11 16 -22t32 -11q44 0 171 262l35 113l111 -3l-52 -161q-58 -214 -59 -219l42 -7l67 88l9 -8q-31 -65 -71 -105t-72 -40z"/>
<glyph glyph-name="v" horiz-adv-x="433" unicode="v" d="M147 -14q-41 0 -75 27.5t-34 61.5q0 11 5 27.5t16 37.5t21 39.5t27 45.5t27.5 43.5t29.5 44.5t25 38l-121 18l-50 -76l-10 8q70 153 123 153q26 0 64 -9t38 -22t-42 -125t-42 -153t24 -61.5t56 -20.5t90.5 101t63.5 163q-8 -2 -13 -2q-25 0 -47 18.5t-22 43.5 q0 26 18.5 45.5t46.5 19.5q30 0 49.5 -19.5t19.5 -53.5q0 -52 -45 -142t-104 -154q-78 -97 -139 -97z"/>
<glyph glyph-name="w" horiz-adv-x="626" unicode="w" d="M121 -14q-37 0 -63 25t-26 61q0 32 27.5 84.5t72.5 119.5t49 74l-111 19l-50 -76l-10 8q70 153 123 153q23 0 63 -10.5t39 -20.5q-1 -7 -50.5 -121t-49.5 -162q0 -35 18.5 -51t41.5 -16q10 0 54.5 45t87.5 106.5t43 97.5q0 1 -6.5 3.5t-16 7.5t-19.5 12t-16.5 19t-6.5 26 q0 26 18.5 43.5t45.5 17.5t45 -18.5t18 -45.5t-29 -66t-40 -68q-20 -50 -20 -88q0 -47 26.5 -69.5t59.5 -22.5q29 0 64.5 47.5t58.5 110t22 105.5q-10 -5 -22 -5q-24 0 -44 15t-20 42t17.5 45.5t42.5 18.5q31 0 50 -22t19 -59q0 -58 -37.5 -146t-87.5 -145q-68 -94 -117 -94 q-36 0 -57.5 27.5t-21.5 60.5q0 38 44 152q-67 -115 -122.5 -177.5t-106.5 -62.5z"/>
<glyph glyph-name="x" horiz-adv-x="479" unicode="x" d="M51 -14q-30 0 -52 18.5t-22 49.5q0 28 17 46t40 18q22 0 34.5 -13t12.5 -32q0 -17 -8 -30q0 -1 8.5 -5.5t10.5 -4.5q14 2 47.5 52.5t55.5 107.5q-13 64 -32.5 124t-34.5 60h-37l-49 -77l-11 8q29 66 63.5 105t68.5 39q45 0 70.5 -41t43.5 -126h4q38 95 66 131t70 36 q29 0 51 -17.5t22 -46.5t-16 -48t-40 -19q-22 0 -35 14.5t-13 33.5q0 15 7 26q0 1 -8 4t-11 3q-12 -2 -40.5 -47t-47.5 -95q37 -198 66 -198h38l49 77l11 -9q-65 -144 -129 -144q-47 0 -73.5 45.5t-44.5 135.5h-4q-46 -106 -75 -143.5t-73 -37.5z"/>
<glyph glyph-name="y" horiz-adv-x="453" unicode="y" d="M-22 -202q-45 0 -71.5 21t-26.5 54q0 25 18.5 42.5t41.5 17.5q25 0 42.5 -16.5t17.5 -41.5q0 -17 -11 -39l33 -9q26 5 73 39t82 66v33q0 167 -24 295.5t-55 128.5l-18 2l-62 -102l-11 9q19 42 30 62.5t28.5 45.5t36.5 35t42 10q48 0 74 -36t37.5 -124t12.5 -255l5 -1 q41 55 84 157t47 152q-17 -10 -35 -10q-26 0 -43 17.5t-17 39.5q0 26 16.5 44t44.5 18q31 0 51 -23t20 -60q0 -80 -62.5 -198.5t-139.5 -199.5q-62 -68 -133 -121t-128 -53z"/>
<glyph glyph-name="z" horiz-adv-x="406" unicode="z" d="M249 -23q-32 0 -59.5 16.5t-43.5 37t-33.5 42t-29.5 27.5h-7l-34 -113q-24 1 -43 15.5t-19 36.5q0 29 25.5 51t61.5 28l235 203q-5 -1 -14 -1q-28 0 -57 23t-54 46t-42 23q-3 0 -16.5 -14.5t-13.5 -18.5q0 -1 1 -1q21 -4 33 -19t12 -34q0 -22 -15 -36.5t-38 -15.5h-2 q-25 0 -38.5 16.5t-13.5 39.5q0 42 52 81t98 42q32 -1 55 -16t32 -33.5t18.5 -37t15.5 -23.5l6 1l31 109q23 -2 42.5 -16.5t19.5 -35.5q-1 -31 -24 -51t-58 -26l-235 -201q5 1 15 1q34 0 72.5 -26.5t69.5 -53t47 -26.5q2 0 15.5 17t13.5 21q0 1 -1 1q-24 3 -37.5 19.5 t-13.5 36.5q0 22 15 36.5t38 14.5h2q25 0 38 -17t13 -41q0 -43 -43.5 -83.5t-91.5 -44.5z"/>
<glyph glyph-name="braceleft" horiz-adv-x="329" unicode="{" d="M253 -249q-90 12 -144.5 53t-54.5 99q0 12 1 18q6 38 42 105t40 92q1 4 1 13q0 31 -28.5 46t-93.5 25l-4 13l6 13q71 7 104.5 22t39.5 52q1 5 1 17q0 22 -10.5 80.5t-10.5 89.5q0 9 2 29q10 63 77.5 99.5t167.5 36.5v-16q-131 -7 -142 -78q-2 -16 -2 -24q0 -25 10 -81.5 t10 -85.5q0 -10 -2 -30q-17 -107 -196 -122l-1 -7q159 -23 159 -118q0 -10 -1 -16q-6 -38 -42.5 -109.5t-41.5 -101.5q-1 -5 -1 -14q0 -61 117 -85z"/>
<glyph glyph-name="bar" horiz-adv-x="190" unicode="|" d="M84 -207v877h22v-877h-22z"/>
<glyph glyph-name="braceright" horiz-adv-x="329" unicode="}" d="M-56 -249v16q131 7 142 78q1 6 1 19q0 26 -15 87.5t-15 92.5q0 7 2 23q17 108 195 122l1 7q-158 24 -158 116q0 12 1 18q6 39 48 110t47 101q1 4 1 12q0 62 -117 86l3 15q89 -12 143.5 -53t54.5 -98q0 -12 -1 -18q-6 -39 -47 -105.5t-45 -91.5q-1 -4 -1 -11q0 -32 30 -48 t92 -26l4 -12l-6 -13q-73 -5 -105.5 -20.5t-38.5 -53.5q-1 -5 -1 -15q0 -23 15 -85.5t15 -94.5q0 -14 -1 -21q-10 -64 -77 -100.5t-167 -36.5z"/>
<glyph glyph-name="asciitilde" horiz-adv-x="388" unicode="~" d="M270 153q-33 0 -92.5 32.5t-78.5 32.5q-17 0 -28 -11t-22 -45q-18 0 -19 -1q17 72 39.5 99.5t63.5 27.5q33 0 91.5 -32.5t77.5 -32.5q18 0 30.5 11.5t23.5 45.5h17q-17 -71 -39.5 -99t-63.5 -28z"/>
<glyph glyph-name="nbspace" horiz-adv-x="146" unicode=" "/>
<glyph glyph-name="exclamdown" horiz-adv-x="277" unicode="¡" d="M92 -16q-58 5 -58 43q0 10 5 25l131 373q1 3 4.5 4t6 -0.5t2.5 -4.5l-16 -385q-4 -56 -60 -56q-2 0 -6 0.5t-6 0.5h-3zM203 503q-27 0 -47 19.5t-20 46.5t20 47.5t47 20.5q28 0 48 -20t20 -48q0 -27 -20 -46.5t-48 -19.5z"/>
<glyph glyph-name="cent" horiz-adv-x="381" unicode="¢" d="M299 412q-19 13 -36 13q-23 0 -51 -26q-34 -34 -60.5 -106t-26.5 -139q0 -61 33 -88zM127 -10q-50 11 -81.5 52.5t-31.5 98.5q0 72 35.5 143t99.5 118.5t137 47.5q15 0 27 -3l69 167h22l-70 -172q28 -10 45.5 -30.5t17.5 -46.5q0 -29 -18 -49.5t-44 -20.5q-35 0 -50 27 l-109 -265q15 -5 29 -5q31 0 60.5 21t66.5 71l10 -9q-84 -148 -185 -148h-9l-60 -146h-22z"/>
<glyph glyph-name="sterling" horiz-adv-x="545" unicode="£" d="M151 65q-70 46 -106 46q-24 0 -41 -17t-17 -41q-1 -20 15 -34.5t38 -14.5q57 0 111 61zM187 287h-114l3 21h105q-12 48 -12 74v6q2 103 77.5 174t184.5 71q64 0 102 -24.5t38 -63.5q0 -27 -18 -46t-46 -19t-42.5 17t-14.5 42q0 30 20 53q-15 20 -53 20q-41 0 -73.5 -29 t-43.5 -88q-5 -21 -5 -59q0 -9 0.5 -29.5t0.5 -31.5q0 -44 -3 -67h129l2 -21h-134q-4 -25 -16 -64q-14 -47 -50 -103q12 -4 46.5 -14.5t51 -15t40 -9t39.5 -4.5q39 0 60.5 22t39.5 82l14 -3q-17 -82 -61.5 -135.5t-109.5 -53.5q-77 0 -175 64q-65 -65 -129 -65 q-31 0 -51.5 19t-19.5 47q0 39 31.5 67t86.5 28q39 0 105 -19q12 28 12 57v5q0 36 -17 95z"/>
<glyph glyph-name="currency" d="M116 359q0 -47 33.5 -80.5t80.5 -33.5t80.5 33.5t33.5 80.5t-33.5 80.5t-80.5 33.5t-80.5 -33.5t-33.5 -80.5zM84 197l-16 16l57 57q-33 38 -33 89t33 89l-57 57l16 16l57 -57q40 33 89 33t89 -33l57 57l16 -16l-57 -57q33 -40 33 -89t-33 -89l57 -57l-16 -16l-57 57 q-38 -33 -89 -33t-89 33z" unicode="¤"/>
<glyph glyph-name="yen" horiz-adv-x="621" unicode="¥" d="M262 284h-182l-1 21h177l-88 225q-15 40 -28.5 55t-40.5 19l-25 4l-1 17h298l-3 -17l-22 -2q-52 -4 -52 -37q0 -12 10 -39l73 -207h3l106 145q64 88 64 111q0 21 -53 27l-21 2l-2 17h220l-3 -17l-25 -3q-36 -5 -63 -29t-94 -112l-116 -159h180l-2 -21h-183l-21 -107h185 l3 -21h-192l-23 -117q-1 -7 7.5 -10.5t37.5 -6.5l41 -6l2 -16h-311l3 16l51 6q42 4 44 19l22 115h-178l3 21h179z"/>
<glyph glyph-name="brokenbar" horiz-adv-x="190" unicode="¦" d="M84 -154v335h22v-335h-22zM84 292v335h22v-335h-22z"/>
<glyph glyph-name="section" horiz-adv-x="422" unicode="§" d="M303 172q45 23 45 67q0 28 -22 51.5t-68 53.5q-88 61 -109 84q-47 -24 -47 -66q0 -29 22 -51.5t70 -53.5q9 -6 30 -21l31.5 -22.5t24.5 -19t23 -22.5zM157 -41q-61 0 -100.5 22.5t-39.5 58.5q0 24 16.5 41t41.5 17t39.5 -16.5t14.5 -39.5q0 -22 -14 -42q21 -21 60 -21 q32 0 54 22t22 49q0 28 -26 53.5t-79 60.5q-38 25 -59.5 42t-41.5 45.5t-20 58.5q1 43 32.5 77t81.5 52q-21 29 -21 62q0 58 51 98.5t121 40.5q59 0 96.5 -23t37.5 -59q0 -23 -17 -40.5t-41 -17.5t-38 15.5t-14 38.5q0 24 15 45q-21 21 -54 21q-35 0 -55.5 -21.5 t-20.5 -47.5q0 -21 17 -42.5t35 -35.5t55 -38q37 -25 58 -41.5t41 -45t20 -57.5q0 -44 -32 -78t-82 -52q21 -29 21 -63q0 -59 -53 -99t-122 -40z"/>
<glyph glyph-name="dieresis" horiz-adv-x="395" unicode="¨" d="M164 514q-28 0 -44.5 19t-16.5 43t16.5 43.5t44.5 19.5q27 0 43.5 -19.5t16.5 -43.5t-16 -43t-44 -19zM364 514q-28 0 -44.5 19t-16.5 43t17 43.5t44 19.5t43.5 -19.5t16.5 -43.5t-16 -43t-44 -19z"/>
<glyph glyph-name="copyright" horiz-adv-x="723" unicode="©" d="M387 115q-97 0 -154.5 55.5t-57.5 139.5q0 85 59.5 141t155.5 56q55 0 95 -20l42 13l3 -126h-16l-49 97q-26 20 -76 20q-61 0 -96 -48.5t-35 -126.5q0 -82 37.5 -133.5t95.5 -51.5q70 0 111 68l22 52l16 -1l-18 -113h-25q-48 -22 -110 -22zM375 -3q129 0 220.5 92.5 t91.5 222.5q0 131 -91.5 224t-220.5 93q-130 0 -221.5 -93t-91.5 -224q0 -130 91.5 -222.5t221.5 -92.5zM375 -21q-138 0 -235.5 97.5t-97.5 235.5q0 139 97.5 237.5t235.5 98.5t235.5 -98.5t97.5 -237.5q0 -138 -97.5 -235.5t-235.5 -97.5z"/>
<glyph glyph-name="ordfeminine" horiz-adv-x="391" unicode="ª" d="M186 338q37 0 104 130q21 45 21 61q-5 25 -25 45t-41 20q-14 0 -26 -13q-24 -23 -46 -83.5t-22 -106.5q0 -25 9.5 -39t25.5 -14zM144 282q-33 0 -55 23.5t-23 61.5q0 52 29 109.5t73 101.5q56 57 111 57q42 0 42 -70v-11h3l30 80l79 -4l-57 -161l-40 -132l36 -5l53 72 l6 -6q-25 -51 -56 -83.5t-53 -32.5q-14 0 -39 18t-25 28q0 16 39 125h-3q-55 -96 -85.5 -133.5t-64.5 -37.5z"/>
<glyph glyph-name="guillemotleft" horiz-adv-x="464" unicode="«" d="M206 49l-192 163l3 26l253 157l4 -9l-152 -171l91 -155zM408 39l-194 173l2 26l260 168l4 -10l-163 -181l98 -165z"/>
<glyph glyph-name="logicalnot" d="M423 314v-184h-26v158h-382l3 26h405z" unicode="¬"/>
<glyph glyph-name="uni00AD" horiz-adv-x="296" unicode="­" d="M23 214l10 46h246l-7 -46h-249z"/>
<glyph glyph-name="registered" horiz-adv-x="716" unicode="®" d="M363 321q81 2 81 82q0 39 -24.5 59.5t-68.5 20.5h-6l-25 -1v-153q22 -8 43 -8zM189 127l2 14l27 4q24 2 24 11v316q0 7 -28 11l-22 4l-2 14h173q162 0 162 -98q0 -34 -25 -60t-67 -36l75 -116q17 -27 29 -35t35 -13l10 -2l2 -14h-129l-10 18l-90 158q-1 0 -15.5 3 t-19.5 5v-157q0 -6 28 -10l24 -3l1 -14h-184zM375 -3q130 0 221 92.5t91 223.5q0 130 -91.5 223.5t-220.5 93.5t-221 -93.5t-92 -223.5q0 -131 91.5 -223.5t221.5 -92.5zM375 -21q-138 0 -235.5 97.5t-97.5 236.5t97.5 237t235.5 98q139 0 236 -98t97 -237t-97 -236.5 t-236 -97.5z"/>
<glyph glyph-name="macron" horiz-adv-x="378" unicode="¯" d="M109 529l16 47h260l-11 -47h-265z"/>
<glyph glyph-name="degree" horiz-adv-x="321" unicode="°" d="M213 381q52 0 84.5 35.5t32.5 87.5q0 49 -31 82.5t-82 33.5q-52 0 -85 -36.5t-33 -87.5q0 -49 32 -82t82 -33zM212 360q-60 0 -98.5 39t-38.5 97q0 60 41 103t103 43q59 0 97.5 -38.5t38.5 -96.5q0 -61 -40.5 -104t-102.5 -43z"/>
<glyph glyph-name="plusminus" d="M425 25h-396l3 26h390zM214 82v162h-198l3 26h195v168h26v-168h195l3 -26h-198v-162h-26z" unicode="±"/>
<glyph glyph-name="twosuperior" horiz-adv-x="312" unicode="²" d="M-7 267l2 32q128 94 152 116q61 58 62 115q-1 30 -20 47t-47 17q-46 0 -82 -45l-6 7q67 97 149 97q48 0 76.5 -26.5t28.5 -66.5q0 -26 -10 -47.5t-36 -43.5t-48.5 -37.5t-69 -45t-76.5 -49.5v-2h129q30 0 48.5 11.5t38.5 44.5l9 14l11 -1l-58 -137h-253z"/>
<glyph glyph-name="threesuperior" horiz-adv-x="297" unicode="³" d="M99 248q-47 0 -79 16t-32 46q0 17 12.5 29.5t30.5 12.5q22 0 35 -15.5t13 -37.5q0 -16 -7 -30q9 -7 25 -7q37 0 63 30.5t26 70.5q0 32 -20 52t-54 20q-16 0 -39 -7l-5 11q54 24 75.5 35t39.5 29t18 41t-16 37.5t-43 14.5q-23 0 -48 -15t-39 -37l-5 8q25 45 64.5 73 t84.5 28q40 0 67.5 -21t27.5 -52q0 -38 -32.5 -62t-91.5 -44v-3q6 2 17 2q43 -3 67 -27t24 -61q0 -55 -54 -96t-125 -41z"/>
<glyph glyph-name="acute" horiz-adv-x="400" unicode="´" d="M191 499l130 185h121l-233 -185h-18z"/>
<glyph glyph-name="mu" horiz-adv-x="528" unicode="µ" d="M248 -251h-242l3 16l21 2q16 1 23.5 2.5t12 4.5t4.5 9v620q0 6 -8 8.5t-41 6.5l-16 1l-3 16h183v-323q0 -53 77 -53q59 0 90 23v308q0 15 -8.5 20.5t-38.5 7.5l-18 1l-4 16h183v-339q0 -25 5 -34t20 -14l41 -10l-2 -11l-178 -43l1 77h-2q-36 -75 -89 -75q-50 0 -76 63h-2 v-266q0 -8 8.5 -11t31.5 -5l21 -2z"/>
<glyph glyph-name="mu" horiz-adv-x="528" unicode="μ" d="M248 -251h-242l3 16l21 2q16 1 23.5 2.5t12 4.5t4.5 9v620q0 6 -8 8.5t-41 6.5l-16 1l-3 16h183v-323q0 -53 77 -53q59 0 90 23v308q0 15 -8.5 20.5t-38.5 7.5l-18 1l-4 16h183v-339q0 -25 5 -34t20 -14l41 -10l-2 -11l-178 -43l1 77h-2q-36 -75 -89 -75q-50 0 -76 63h-2 v-266q0 -8 8.5 -11t31.5 -5l21 -2z"/>
<glyph glyph-name="paragraph" horiz-adv-x="449" unicode="¶" d="M319 -31l52 276q-14 -2 -22 -2q-127 0 -205.5 50t-78.5 133q0 98 69.5 149t195.5 51h139l-124 -657h-26z"/>
<glyph glyph-name="periodcentered" horiz-adv-x="221" unicode="·" d="M109 164q-29 0 -49.5 21t-20.5 50q0 28 20.5 48.5t48.5 20.5q29 0 49.5 -21t20.5 -48q0 -29 -20 -50t-49 -21z"/>
<glyph glyph-name="cedilla" horiz-adv-x="391" unicode="¸" d="M7 -262l-2 12q169 14 169 83q0 26 -25.5 38.5t-62.5 12.5q-30 0 -58 -5l1 12l130 113h24l-74 -65h12q55 0 90.5 -23t35.5 -58q0 -60 -68 -88.5t-172 -31.5z"/>
<glyph glyph-name="onesuperior" horiz-adv-x="258" unicode="¹" d="M14 267v13l27 2q29 0 32 11l61 313l-60 8l3 9l152 29l-69 -360q-2 -10 30 -10l18 -2l2 -13h-196z"/>
<glyph glyph-name="ordmasculine" horiz-adv-x="342" unicode="º" d="M188 297q55 0 96 132q18 66 18 116q0 34 -10.5 53.5t-28.5 19.5q-24 0 -51.5 -41t-45.5 -101q-18 -57 -18 -107q0 -33 10.5 -52.5t29.5 -19.5zM197 279q-55 0 -89.5 42t-34.5 106q0 77 55.5 143t122.5 66q55 0 91 -43t36 -107q0 -77 -55.5 -142t-125.5 -65z"/>
<glyph glyph-name="guillemotright" horiz-adv-x="463" unicode="»" d="M192 48l-4 10l151 170l-91 156l8 10l191 -162l-2 -26zM-14 38l-4 10l162 180l-98 166l7 11l196 -173l-2 -26z"/>
<glyph glyph-name="onequarter" horiz-adv-x="650" unicode="¼" d="M-27 -121l679 751h27l-678 -751h-28zM14 267v13l27 2q29 0 32 11l61 313l-60 8l3 9l152 29l-69 -360q-2 -10 30 -10l18 -2l2 -13h-196zM361 8h124l33 167h-3zM457 -136l18 95h-163v14l256 279l48 -5l-47 -239h65l-22 -49h-53l-18 -95h-84z"/>
<glyph glyph-name="onehalf" horiz-adv-x="694" unicode="½" d="M-12 -121l678 751h27l-678 -751h-27zM14 267v13l27 2q29 0 32 11l61 313l-60 8l3 9l152 29l-69 -360q-2 -10 30 -10l18 -2l2 -13h-196zM369 -137l2 32q128 94 152 116q61 58 62 115q-1 30 -20 47t-47 17q-46 0 -82 -45l-6 7q67 97 149 97q48 0 76.5 -26.5t28.5 -66.5 q0 -26 -10 -47.5t-36 -43.5t-48.5 -37.5t-69 -45t-76.5 -49.5v-2h129q30 0 48.5 11.5t38.5 44.5l9 14l11 -1l-58 -137h-253z"/>
<glyph glyph-name="threequarters" horiz-adv-x="662" unicode="¾" d="M-15 -121l679 751h27l-678 -751h-28zM99 248q-47 0 -79 16t-32 46q0 17 12.5 29.5t30.5 12.5q22 0 35 -15.5t13 -37.5q0 -16 -7 -30q9 -7 25 -7q37 0 63 30.5t26 70.5q0 32 -20 52t-54 20q-16 0 -39 -7l-5 11q54 24 75.5 35t39.5 29t18 41t-16 37.5t-43 14.5 q-23 0 -48 -15t-39 -37l-5 8q25 45 64.5 73t84.5 28q40 0 67.5 -21t27.5 -52q0 -38 -32.5 -62t-91.5 -44v-3q6 2 17 2q43 -3 67 -27t24 -61q0 -55 -54 -96t-125 -41zM373 8h124l33 167h-3zM469 -136l18 95h-163v14l256 279l48 -5l-47 -239h65l-22 -49h-53l-18 -95h-84z"/>
<glyph glyph-name="questiondown" horiz-adv-x="341" unicode="¿" d="M201 -14q-79 0 -129.5 55t-50.5 129q0 65 28.5 100.5t87.5 52.5q62 15 82.5 26.5t20.5 33.5q0 26 -33 57l18 2q28 -23 46.5 -53.5t18.5 -57.5q0 -41 -34 -63t-103 -38q-59 -13 -82 -26t-23 -35q0 -32 44.5 -57t118.5 -25q23 0 51 4q16 -16 16 -37q0 -29 -18.5 -48.5 t-58.5 -19.5zM252 506q-28 0 -47.5 20t-19.5 46q0 28 19.5 48t47.5 20t48 -20t20 -48q0 -27 -20 -46.5t-48 -19.5z"/>
<glyph glyph-name="Agrave" horiz-adv-x="629" unicode="À" d="M396 666l-165 185h113l71 -185h-19zM194 272h150l-25 237h-5zM346 248h-164l-42 -82q-51 -94 -51 -114q0 -26 58 -32l26 -3l2 -17h-223l3 17l21 4q44 6 66 32t88 148l177 338l-3 41q26 5 59.5 23t46.5 38h18l66 -517q9 -60 22 -80t43 -23l31 -4l1 -17h-306l3 17l31 3 q26 2 36 12.5t10 33.5q0 9 -4 41z"/>
<glyph glyph-name="Aacute" horiz-adv-x="629" unicode="Á" d="M328 666l130 185h121l-233 -185h-18zM194 272h150l-25 237h-5zM346 248h-164l-42 -82q-51 -94 -51 -114q0 -26 58 -32l26 -3l2 -17h-223l3 17l21 4q44 6 66 32t88 148l177 338l-3 41q26 5 59.5 23t46.5 38h18l66 -517q9 -60 22 -80t43 -23l31 -4l1 -17h-306l3 17l31 3 q26 2 36 12.5t10 33.5q0 9 -4 41z"/>
<glyph glyph-name="Acircumflex" horiz-adv-x="629" unicode="Â" d="M239 658l158 192h41l86 -192h-18l-101 102h-2l-146 -102h-18zM194 272h150l-25 237h-5zM346 248h-164l-42 -82q-51 -94 -51 -114q0 -26 58 -32l26 -3l2 -17h-223l3 17l21 4q44 6 66 32t88 148l177 338l-3 41q26 5 59.5 23t46.5 38h18l66 -517q9 -60 22 -80t43 -23l31 -4 l1 -17h-306l3 17l31 3q26 2 36 12.5t10 33.5q0 9 -4 41z"/>
<glyph glyph-name="Atilde" horiz-adv-x="629" unicode="Ã" d="M194 272h150l-25 237h-5zM464 672q-33 0 -92.5 32.5t-78.5 32.5q-17 0 -28 -11t-22 -45q-18 0 -19 -1q17 72 39.5 99.5t63.5 27.5q33 0 91.5 -32.5t77.5 -32.5q18 0 30.5 11.5t23.5 45.5h17q-17 -71 -39.5 -99t-63.5 -28zM346 248h-164l-42 -82q-51 -94 -51 -114 q0 -26 58 -32l26 -3l2 -17h-223l3 17l21 4q44 6 66 32t88 148l177 338l-3 41q26 5 59.5 23t46.5 38h18l66 -517q9 -60 22 -80t43 -23l31 -4l1 -17h-306l3 17l31 3q26 2 36 12.5t10 33.5q0 9 -4 41z"/>
<glyph glyph-name="Adieresis" horiz-adv-x="629" unicode="Ä" d="M294 681q-28 0 -44.5 19t-16.5 43t16.5 43.5t44.5 19.5q27 0 43.5 -19.5t16.5 -43.5t-16 -43t-44 -19zM494 681q-28 0 -44.5 19t-16.5 43t17 43.5t44 19.5t43.5 -19.5t16.5 -43.5t-16 -43t-44 -19zM194 272h150l-25 237h-5zM346 248h-164l-42 -82q-51 -94 -51 -114 q0 -26 58 -32l26 -3l2 -17h-223l3 17l21 4q44 6 66 32t88 148l177 338l-3 41q26 5 59.5 23t46.5 38h18l66 -517q9 -60 22 -80t43 -23l31 -4l1 -17h-306l3 17l31 3q26 2 36 12.5t10 33.5q0 9 -4 41z"/>
<glyph glyph-name="Aring" horiz-adv-x="629" unicode="Å" d="M194 272h150l-25 237h-5zM401 623q34 0 54 22t20 55q0 32 -20 54.5t-54 22.5q-33 0 -54 -23t-21 -54q0 -32 20.5 -54.5t54.5 -22.5zM346 248h-164l-42 -82q-51 -94 -51 -114q0 -26 58 -32l26 -3l2 -17h-223l3 17l21 4q32 4 49 16.5t38 44.5t67 119l220 421q-41 25 -41 78 q0 39 25.5 66t66.5 27t66.5 -27t25.5 -66q0 -31 -16.5 -54.5t-45.5 -31.5l63 -490q9 -60 22 -80t43 -23l31 -4l1 -17h-306l3 17l31 3q26 2 36 12.5t10 33.5q0 9 -4 41z"/>
<glyph glyph-name="AE" horiz-adv-x="878" unicode="Æ" d="M221 275h162l54 285h-3zM379 252h-175l-60 -80q-27 -35 -36.5 -48.5t-23 -32.5t-17.5 -28.5t-4 -16.5q0 -20 52 -26l23 -3l3 -17h-220l3 17l21 4q46 6 72 29.5t105 126.5l284 377q12 16 12 27q0 20 -53 24l-40 4l-1 16h533l-5 -204h-25l-6 33q-21 86 -61 118t-133 32h-10 l-43 -1l-52 -274l34 1q60 2 90 18t48 56l16 33h20l-53 -240l-20 1l1 31v11q0 37 -23.5 51t-89.5 17l-27 2l-54 -286l80 -4q100 1 157 38t99 116l16 31h26l-62 -205h-535l4 17l47 6q44 6 44 19z"/>
<glyph glyph-name="Ccedilla" horiz-adv-x="674" unicode="Ç" d="M339 -12q-135 9 -211.5 89.5t-76.5 198.5q0 94 45 176.5t132 134.5t197 52q105 0 175 -41l76 21l-27 -198l-25 1l-45 148q-52 45 -132 45q-77 0 -137.5 -55.5t-90 -139t-29.5 -175.5q0 -111 50.5 -173.5t142.5 -62.5q99 0 172 98l46 86l26 -1l-49 -184l-42 2 q-71 -23 -167 -23h-7l-55 -48h12q55 0 90.5 -23t35.5 -58q0 -60 -68 -88.5t-172 -31.5l-2 12q169 14 169 83q0 26 -25.5 38.5t-62.5 12.5q-30 0 -58 -5l1 12z"/>
<glyph glyph-name="Egrave" horiz-adv-x="615" unicode="È" d="M401 666l-165 185h113l71 -185h-19zM-17 0l3 16l41 7q42 6 44 18l105 545q1 7 -7 10t-37 7l-31 6l-2 16h494l-4 -204h-26l-6 33q-21 86 -61.5 118t-132.5 32h-10h-45l-53 -275l36 1q60 2 90.5 18.5t48.5 55.5l15 33h21l-53 -240l-21 1l2 31v11q0 37 -23.5 51t-89.5 17 l-29 2l-55 -286l82 -4q100 1 157.5 38t99.5 116l16 31h26l-62 -205h-533z"/>
<glyph glyph-name="Eacute" horiz-adv-x="615" unicode="É" d="M315 666l130 185h121l-233 -185h-18zM-17 0l3 16l41 7q42 6 44 18l105 545q1 7 -7 10t-37 7l-31 6l-2 16h494l-4 -204h-26l-6 33q-21 86 -61.5 118t-132.5 32h-10h-45l-53 -275l36 1q60 2 90.5 18.5t48.5 55.5l15 33h21l-53 -240l-21 1l2 31v11q0 37 -23.5 51t-89.5 17 l-29 2l-55 -286l82 -4q100 1 157.5 38t99.5 116l16 31h26l-62 -205h-533z"/>
<glyph glyph-name="Ecircumflex" horiz-adv-x="615" unicode="Ê" d="M226 658l158 192h41l86 -192h-18l-101 102h-2l-146 -102h-18zM-17 0l3 16l41 7q42 6 44 18l105 545q1 7 -7 10t-37 7l-31 6l-2 16h494l-4 -204h-26l-6 33q-21 86 -61.5 118t-132.5 32h-10h-45l-53 -275l36 1q60 2 90.5 18.5t48.5 55.5l15 33h21l-53 -240l-21 1l2 31v11 q0 37 -23.5 51t-89.5 17l-29 2l-55 -286l82 -4q100 1 157.5 38t99.5 116l16 31h26l-62 -205h-533z"/>
<glyph glyph-name="Edieresis" horiz-adv-x="615" unicode="Ë" d="M274 681q-28 0 -44.5 19t-16.5 43t16.5 43.5t44.5 19.5q27 0 43.5 -19.5t16.5 -43.5t-16 -43t-44 -19zM474 681q-28 0 -44.5 19t-16.5 43t17 43.5t44 19.5t43.5 -19.5t16.5 -43.5t-16 -43t-44 -19zM-17 0l3 16l41 7q42 6 44 18l105 545q1 7 -7 10t-37 7l-31 6l-2 16h494 l-4 -204h-26l-6 33q-21 86 -61.5 118t-132.5 32h-10h-45l-53 -275l36 1q60 2 90.5 18.5t48.5 55.5l15 33h21l-53 -240l-21 1l2 31v11q0 37 -23.5 51t-89.5 17l-29 2l-55 -286l82 -4q100 1 157.5 38t99.5 116l16 31h26l-62 -205h-533z"/>
<glyph glyph-name="Igrave" horiz-adv-x="365" unicode="Ì" d="M285 666l-165 185h113l71 -185h-19zM-9 0l3 16l46 7q42 4 44 18l104 545q2 7 -6 10t-38 7l-36 6l-2 16h302l-3 -16l-46 -7q-41 -4 -43 -18l-105 -545q-1 -7 7.5 -10t37.5 -7l36 -6l1 -16h-302z"/>
<glyph glyph-name="Iacute" horiz-adv-x="365" unicode="Í" d="M218 666l130 185h121l-233 -185h-18zM-9 0l3 16l46 7q42 4 44 18l104 545q2 7 -6 10t-38 7l-36 6l-2 16h302l-3 -16l-46 -7q-41 -4 -43 -18l-105 -545q-1 -7 7.5 -10t37.5 -7l36 -6l1 -16h-302z"/>
<glyph glyph-name="Icircumflex" horiz-adv-x="365" unicode="Î" d="M114 658l158 192h41l86 -192h-18l-101 102h-2l-146 -102h-18zM-9 0l3 16l46 7q42 4 44 18l104 545q2 7 -6 10t-38 7l-36 6l-2 16h302l-3 -16l-46 -7q-41 -4 -43 -18l-105 -545q-1 -7 7.5 -10t37.5 -7l36 -6l1 -16h-302z"/>
<glyph glyph-name="Idieresis" horiz-adv-x="365" unicode="Ï" d="M168 681q-28 0 -44.5 19t-16.5 43t16.5 43.5t44.5 19.5q27 0 43.5 -19.5t16.5 -43.5t-16 -43t-44 -19zM368 681q-28 0 -44.5 19t-16.5 43t17 43.5t44 19.5t43.5 -19.5t16.5 -43.5t-16 -43t-44 -19zM-9 0l3 16l46 7q42 4 44 18l104 545q2 7 -6 10t-38 7l-36 6l-2 16h302 l-3 -16l-46 -7q-41 -4 -43 -18l-105 -545q-1 -7 7.5 -10t37.5 -7l36 -6l1 -16h-302z"/>
<glyph glyph-name="Eth" horiz-adv-x="688" unicode="Ð" d="M255 326h121l2 -23h-127l-51 -265l66 -18q84 1 147 50.5t95 132t32 184.5q0 100 -46 158.5t-142 58.5h-44zM121 303h-83l4 23h83l51 260q1 7 -7 10t-37 7l-32 6l-1 16h261h5q150 0 231.5 -75t81.5 -194q0 -71 -27.5 -135t-78 -113.5t-128.5 -78.5t-173 -29h-288l3 16 l42 7q41 5 43 18z"/>
<glyph glyph-name="Ntilde" horiz-adv-x="688" unicode="Ñ" d="M498 672q-33 0 -92.5 32.5t-78.5 32.5q-17 0 -28 -11t-22 -45q-18 0 -19 -1q17 72 39.5 99.5t63.5 27.5q33 0 91.5 -32.5t77.5 -32.5q18 0 30.5 11.5t23.5 45.5h17q-17 -71 -39.5 -99t-63.5 -28zM500 -6l-296 532h-4l-84 -419q-3 -18 -3 -32q0 -28 13.5 -39.5t48.5 -14.5 l28 -5l2 -16h-224l3 16l28 5q38 4 55 24t24 67l87 427q-21 57 -73 64l-20 4l-2 18h219l242 -442h4l66 335q3 20 3 34q0 27 -13.5 38t-47.5 14l-28 5l-2 16h224l-4 -16l-27 -5q-37 -3 -54.5 -23.5t-24.5 -67.5l-105 -519h-35z"/>
<glyph glyph-name="Ograve" horiz-adv-x="731" unicode="Ò" d="M448 666l-165 185h113l71 -185h-19zM352 9q67 0 121 62t81 151.5t27 182.5t-42.5 151.5t-122.5 58.5q-54 0 -99.5 -40.5t-72.5 -102.5t-41.5 -130t-14.5 -130q0 -90 42 -146.5t122 -56.5zM361 -14q-136 0 -221 86.5t-85 215.5q0 90 43.5 170t125 130t183.5 50 q136 0 222 -87.5t86 -216.5q0 -141 -100.5 -244.5t-253.5 -103.5z"/>
<glyph glyph-name="Oacute" horiz-adv-x="731" unicode="Ó" d="M390 666l130 185h121l-233 -185h-18zM352 9q67 0 121 62t81 151.5t27 182.5t-42.5 151.5t-122.5 58.5q-54 0 -99.5 -40.5t-72.5 -102.5t-41.5 -130t-14.5 -130q0 -90 42 -146.5t122 -56.5zM361 -14q-136 0 -221 86.5t-85 215.5q0 90 43.5 170t125 130t183.5 50 q136 0 222 -87.5t86 -216.5q0 -141 -100.5 -244.5t-253.5 -103.5z"/>
<glyph glyph-name="Ocircumflex" horiz-adv-x="731" unicode="Ô" d="M293 658l158 192h41l86 -192h-18l-101 102h-2l-146 -102h-18zM352 9q67 0 121 62t81 151.5t27 182.5t-42.5 151.5t-122.5 58.5q-54 0 -99.5 -40.5t-72.5 -102.5t-41.5 -130t-14.5 -130q0 -90 42 -146.5t122 -56.5zM361 -14q-136 0 -221 86.5t-85 215.5q0 90 43.5 170 t125 130t183.5 50q136 0 222 -87.5t86 -216.5q0 -141 -100.5 -244.5t-253.5 -103.5z"/>
<glyph glyph-name="Otilde" horiz-adv-x="731" unicode="Õ" d="M517 672q-33 0 -92.5 32.5t-78.5 32.5q-17 0 -28 -11t-22 -45q-18 0 -19 -1q17 72 39.5 99.5t63.5 27.5q33 0 91.5 -32.5t77.5 -32.5q18 0 30.5 11.5t23.5 45.5h17q-17 -71 -39.5 -99t-63.5 -28zM352 9q67 0 121 62t81 151.5t27 182.5t-42.5 151.5t-122.5 58.5 q-54 0 -99.5 -40.5t-72.5 -102.5t-41.5 -130t-14.5 -130q0 -90 42 -146.5t122 -56.5zM361 -14q-136 0 -221 86.5t-85 215.5q0 90 43.5 170t125 130t183.5 50q136 0 222 -87.5t86 -216.5q0 -141 -100.5 -244.5t-253.5 -103.5z"/>
<glyph glyph-name="Odieresis" horiz-adv-x="731" unicode="Ö" d="M347 681q-28 0 -44.5 19t-16.5 43t16.5 43.5t44.5 19.5q27 0 43.5 -19.5t16.5 -43.5t-16 -43t-44 -19zM547 681q-28 0 -44.5 19t-16.5 43t17 43.5t44 19.5t43.5 -19.5t16.5 -43.5t-16 -43t-44 -19zM352 9q67 0 121 62t81 151.5t27 182.5t-42.5 151.5t-122.5 58.5 q-54 0 -99.5 -40.5t-72.5 -102.5t-41.5 -130t-14.5 -130q0 -90 42 -146.5t122 -56.5zM361 -14q-136 0 -221 86.5t-85 215.5q0 90 43.5 170t125 130t183.5 50q136 0 222 -87.5t86 -216.5q0 -141 -100.5 -244.5t-253.5 -103.5z"/>
<glyph glyph-name="multiply" d="M34 61l175 175l-175 175l18 18l175 -175l175 175l18 -18l-175 -175l175 -175l-18 -18l-175 175l-175 -175z" unicode="×"/>
<glyph glyph-name="Oslash" horiz-adv-x="731" unicode="Ø" d="M555 528l-330 -456q44 -63 127 -63q67 0 121 62t81 151.5t27 182.5q0 71 -26 123zM215 90l330 456q-43 69 -130 69q-54 0 -99 -40.5t-72 -102.5t-41.5 -130t-14.5 -130q0 -72 27 -122zM593 580q58 -42 90 -106t32 -140q0 -142 -100.5 -245t-253.5 -103q-93 0 -167 44 l-74 -103h-23l82 113q-59 41 -91.5 105.5t-32.5 141.5q0 90 43.5 170t125 130t183.5 50q95 0 170 -46l71 98h23z"/>
<glyph glyph-name="Ugrave" horiz-adv-x="697" unicode="Ù" d="M474 666l-165 185h113l71 -185h-19zM352 -18q-117 0 -185.5 48t-68.5 139q0 30 9 80l64 337q1 7 -6.5 10.5t-36.5 6.5l-37 6l-2 16h304l-4 -16l-46 -7q-39 -4 -43 -18l-63 -331q-9 -43 -9 -82q0 -141 163 -141q73 0 117 43.5t61 137.5l63 307q3 18 3 32q0 28 -14 40 t-49 15l-28 4l-2 16h225l-4 -16l-28 -4q-36 -4 -53 -24t-25 -68l-63 -310q-43 -221 -242 -221z"/>
<glyph glyph-name="Uacute" horiz-adv-x="697" unicode="Ú" d="M410 666l130 185h121l-233 -185h-18zM352 -18q-117 0 -185.5 48t-68.5 139q0 30 9 80l64 337q1 7 -6.5 10.5t-36.5 6.5l-37 6l-2 16h304l-4 -16l-46 -7q-39 -4 -43 -18l-63 -331q-9 -43 -9 -82q0 -141 163 -141q73 0 117 43.5t61 137.5l63 307q3 18 3 32q0 28 -14 40 t-49 15l-28 4l-2 16h225l-4 -16l-28 -4q-36 -4 -53 -24t-25 -68l-63 -310q-43 -221 -242 -221z"/>
<glyph glyph-name="Ucircumflex" horiz-adv-x="697" unicode="Û" d="M308 658l158 192h41l86 -192h-18l-101 102h-2l-146 -102h-18zM352 -18q-117 0 -185.5 48t-68.5 139q0 30 9 80l64 337q1 7 -6.5 10.5t-36.5 6.5l-37 6l-2 16h304l-4 -16l-46 -7q-39 -4 -43 -18l-63 -331q-9 -43 -9 -82q0 -141 163 -141q73 0 117 43.5t61 137.5l63 307 q3 18 3 32q0 28 -14 40t-49 15l-28 4l-2 16h225l-4 -16l-28 -4q-36 -4 -53 -24t-25 -68l-63 -310q-43 -221 -242 -221z"/>
<glyph glyph-name="Udieresis" horiz-adv-x="697" unicode="Ü" d="M352 681q-28 0 -44.5 19t-16.5 43t16.5 43.5t44.5 19.5q27 0 43.5 -19.5t16.5 -43.5t-16 -43t-44 -19zM552 681q-28 0 -44.5 19t-16.5 43t17 43.5t44 19.5t43.5 -19.5t16.5 -43.5t-16 -43t-44 -19zM352 -18q-117 0 -185.5 48t-68.5 139q0 30 9 80l64 337q1 7 -6.5 10.5 t-36.5 6.5l-37 6l-2 16h304l-4 -16l-46 -7q-39 -4 -43 -18l-63 -331q-9 -43 -9 -82q0 -141 163 -141q73 0 117 43.5t61 137.5l63 307q3 18 3 32q0 28 -14 40t-49 15l-28 4l-2 16h225l-4 -16l-28 -4q-36 -4 -53 -24t-25 -68l-63 -310q-43 -221 -242 -221z"/>
<glyph glyph-name="Yacute" horiz-adv-x="632" unicode="Ý" d="M374 666l130 185h121l-233 -185h-18zM120 0l4 16l51 7q41 4 43 18l46 234l-94 248q-17 45 -31 61t-42 20l-24 4l-1 17h301l-4 -17l-23 -2q-53 -4 -53 -35q0 -13 10 -40l77 -220h4l108 150q69 95 69 116t-55 27l-26 4l-1 17h228l-4 -17l-26 -4q-36 -5 -65.5 -32 t-96.5 -118l-121 -166l-48 -249q-1 -7 7 -10.5t37 -6.5l41 -6v-16h-311z"/>
<glyph glyph-name="Thorn" horiz-adv-x="588" unicode="Þ" d="M297 173q68 0 111 53.5t43 129.5q0 54 -28.5 86.5t-81.5 35.5h-54l-55 -293q34 -12 65 -12zM-18 0l4 18l45 6q40 4 44 18l105 543q1 7 -7 10t-38 7l-35 5l-2 18h302l-1 -5l-2 -8l-1 -5l-45 -6q-41 -4 -44 -18l-16 -84h13.5t17 -0.5t16.5 -0.5h13h5q110 0 170 -44t60 -115 q0 -84 -71.5 -136t-185.5 -52q-51 0 -101 11l-25 -122q-1 -5 2 -8t13 -5.5t30 -3.5l47 -5l2 -18h-315z"/>
<glyph glyph-name="germandbls" horiz-adv-x="534" unicode="ß" d="M374 416q57 -38 94.5 -99t37.5 -124v-6q-2 -82 -55.5 -141t-128.5 -59h-2q-51 1 -83.5 27t-32.5 62q0 30 19 49t46 19q26 -1 40.5 -17t14.5 -38q0 -19 -12 -35t-35 -22q4 -8 17 -16t28 -9q37 0 60.5 37t24.5 94v8q0 66 -36 134.5t-105 120.5l2 15q149 16 152 146v5 q0 35 -19 59t-52 24q-46 0 -67 -44.5t-48 -170.5l-71 -327q-41 -188 -109 -259q-50 -49 -121 -49q-42 0 -69 20.5t-27 52.5q0 23 16.5 40.5t42.5 17.5q24 0 41 -17.5t17 -42.5q0 -19 -11 -37q22 -4 31 -4q23 8 43.5 65t49.5 199l51 288l-88 3l15 43l87 10q31 121 82 177.5 t139 56.5q79 0 122.5 -37.5t41.5 -96.5q-2 -50 -41.5 -81.5t-101.5 -40.5z"/>
<glyph glyph-name="agrave" horiz-adv-x="502" unicode="à" d="M354 499l-165 185h113l71 -185h-19zM165 60q48 0 139 170q7 15 17.5 44.5t10.5 37.5q-5 33 -31 59.5t-54 26.5q-16 0 -35 -17q-32 -34 -60.5 -113t-28.5 -138q0 -70 42 -70zM346 -14q-18 0 -52.5 21.5t-34.5 34.5q0 28 49 157h-5q-78 -133 -109 -168q-39 -43 -79 -43 q-44 0 -73.5 30.5t-29.5 81.5q0 68 38.5 141.5t97.5 133.5q73 74 140 74q58 0 58 -95v-10h4l39 103l104 -3l-75 -204l-55 -181l45 -7l68 89l9 -8q-32 -65 -71 -106t-68 -41z"/>
<glyph glyph-name="aacute" horiz-adv-x="502" unicode="á" d="M260 499l130 185h121l-233 -185h-18zM165 60q48 0 139 170q7 15 17.5 44.5t10.5 37.5q-5 33 -31 59.5t-54 26.5q-16 0 -35 -17q-32 -34 -60.5 -113t-28.5 -138q0 -70 42 -70zM346 -14q-18 0 -52.5 21.5t-34.5 34.5q0 28 49 157h-5q-78 -133 -109 -168q-39 -43 -79 -43 q-44 0 -73.5 30.5t-29.5 81.5q0 68 38.5 141.5t97.5 133.5q73 74 140 74q58 0 58 -95v-10h4l39 103l104 -3l-75 -204l-55 -181l45 -7l68 89l9 -8q-32 -65 -71 -106t-68 -41z"/>
<glyph glyph-name="acircumflex" horiz-adv-x="502" unicode="â" d="M157 491l158 192h41l86 -192h-18l-101 102h-2l-146 -102h-18zM165 60q48 0 139 170q7 15 17.5 44.5t10.5 37.5q-5 33 -31 59.5t-54 26.5q-16 0 -35 -17q-32 -34 -60.5 -113t-28.5 -138q0 -70 42 -70zM346 -14q-18 0 -52.5 21.5t-34.5 34.5q0 28 49 157h-5 q-78 -133 -109 -168q-39 -43 -79 -43q-44 0 -73.5 30.5t-29.5 81.5q0 68 38.5 141.5t97.5 133.5q73 74 140 74q58 0 58 -95v-10h4l39 103l104 -3l-75 -204l-55 -181l45 -7l68 89l9 -8q-32 -65 -71 -106t-68 -41z"/>
<glyph glyph-name="atilde" horiz-adv-x="502" unicode="ã" d="M388 505q-33 0 -92.5 32.5t-78.5 32.5q-17 0 -28 -11t-22 -45q-18 0 -19 -1q17 72 39.5 99.5t63.5 27.5q33 0 91.5 -32.5t77.5 -32.5q18 0 30.5 11.5t23.5 45.5h17q-17 -71 -39.5 -99t-63.5 -28zM165 60q48 0 139 170q7 15 17.5 44.5t10.5 37.5q-5 33 -31 59.5t-54 26.5 q-16 0 -35 -17q-32 -34 -60.5 -113t-28.5 -138q0 -70 42 -70zM346 -14q-18 0 -52.5 21.5t-34.5 34.5q0 28 49 157h-5q-78 -133 -109 -168q-39 -43 -79 -43q-44 0 -73.5 30.5t-29.5 81.5q0 68 38.5 141.5t97.5 133.5q73 74 140 74q58 0 58 -95v-10h4l39 103l104 -3l-75 -204 l-55 -181l45 -7l68 89l9 -8q-32 -65 -71 -106t-68 -41z"/>
<glyph glyph-name="adieresis" horiz-adv-x="502" unicode="ä" d="M222 514q-28 0 -44.5 19t-16.5 43t16.5 43.5t44.5 19.5q27 0 43.5 -19.5t16.5 -43.5t-16 -43t-44 -19zM422 514q-28 0 -44.5 19t-16.5 43t17 43.5t44 19.5t43.5 -19.5t16.5 -43.5t-16 -43t-44 -19zM165 60q48 0 139 170q7 15 17.5 44.5t10.5 37.5q-5 33 -31 59.5 t-54 26.5q-16 0 -35 -17q-32 -34 -60.5 -113t-28.5 -138q0 -70 42 -70zM346 -14q-18 0 -52.5 21.5t-34.5 34.5q0 28 49 157h-5q-78 -133 -109 -168q-39 -43 -79 -43q-44 0 -73.5 30.5t-29.5 81.5q0 68 38.5 141.5t97.5 133.5q73 74 140 74q58 0 58 -95v-10h4l39 103l104 -3 l-75 -204l-55 -181l45 -7l68 89l9 -8q-32 -65 -71 -106t-68 -41z"/>
<glyph glyph-name="aring" horiz-adv-x="502" unicode="å" d="M165 60q48 0 139 170q7 15 17.5 44.5t10.5 37.5q-5 33 -31 59.5t-54 26.5q-16 0 -35 -17q-32 -34 -60.5 -113t-28.5 -138q0 -70 42 -70zM325 519q34 0 54.5 22.5t20.5 54.5t-21 54.5t-54 22.5q-34 0 -54.5 -22.5t-20.5 -54.5q0 -33 20.5 -55t54.5 -22zM346 -14 q-18 0 -52.5 21.5t-34.5 34.5q0 28 49 157h-5q-78 -133 -109 -168q-39 -43 -79 -43q-44 0 -73.5 30.5t-29.5 81.5q0 68 38.5 141.5t97.5 133.5q73 74 140 74q58 0 58 -95v-10h4l39 103l104 -3l-75 -204l-55 -181l45 -7l68 89l9 -8q-32 -65 -71 -106t-68 -41zM325 502 q-41 0 -66.5 26.5t-25.5 65.5q0 40 25 67.5t67 27.5q41 0 66.5 -27t25.5 -66q0 -40 -25 -67t-67 -27z"/>
<glyph glyph-name="ae" horiz-adv-x="665" unicode="æ" d="M163 61q48 0 140 177q26 48 28 70q-6 35 -31.5 62.5t-53.5 27.5q-17 0 -36 -17q-32 -33 -59.5 -111t-27.5 -137q0 -33 11 -52.5t29 -19.5zM410 229q88 29 126 60.5t38 80.5q0 23 -15 38.5t-34 15.5t-40 -19q-22 -22 -44 -71t-33 -104zM114 -12q-44 0 -73 32t-29 83 q0 68 38 140.5t97 131.5q74 76 138 76q33 0 51.5 -31.5t18.5 -84.5q84 116 198 116q53 0 84 -25t31 -64q0 -49 -58 -79.5t-203 -70.5q-7 -27 -7 -62q0 -47 21 -72.5t60 -25.5q66 0 132 93l11 -9q-84 -148 -193 -148q-63 0 -103 43t-41 109q0 22 1 32q-58 -97 -95.5 -140.5 t-78.5 -43.5z"/>
<glyph glyph-name="ccedilla" horiz-adv-x="386" unicode="ç" d="M144 -12q-57 4 -93.5 48t-36.5 106q0 71 35.5 142t99.5 119t137 48q45 0 78 -24t33 -61q0 -30 -18 -50.5t-44 -20.5q-24 0 -40.5 15.5t-16.5 36.5q0 18 10 34t25 23q-32 22 -50 22q-19 0 -48 -27q-33 -34 -60 -106t-27 -139q0 -49 20.5 -75.5t57.5 -26.5q31 0 59.5 20.5 t66.5 72.5l10 -9q-78 -141 -174 -149l-55 -48h12q55 0 90.5 -23t35.5 -58q0 -60 -68 -88.5t-172 -31.5l-2 12q169 14 169 83q0 26 -25.5 38.5t-62.5 12.5q-30 0 -58 -5l1 12z"/>
<glyph glyph-name="egrave" horiz-adv-x="393" unicode="è" d="M283 499l-165 185h113l71 -185h-19zM139 229q83 27 124 60t41 81q0 23 -14.5 38.5t-33.5 15.5q-20 0 -40 -18q-24 -24 -46.5 -72.5t-33.5 -103.5zM159 -13q-63 0 -104 44t-41 111q0 112 81.5 210.5t185.5 98.5q50 0 82 -24.5t32 -62.5q0 -49 -60.5 -81.5t-199.5 -70.5 q-7 -33 -7 -62q0 -46 22 -72t60 -26q64 0 132 93l10 -9q-84 -149 -193 -149z"/>
<glyph glyph-name="eacute" horiz-adv-x="393" unicode="é" d="M228 499l130 185h121l-233 -185h-18zM139 229q83 27 124 60t41 81q0 23 -14.5 38.5t-33.5 15.5q-20 0 -40 -18q-24 -24 -46.5 -72.5t-33.5 -103.5zM159 -13q-63 0 -104 44t-41 111q0 112 81.5 210.5t185.5 98.5q50 0 82 -24.5t32 -62.5q0 -49 -60.5 -81.5t-199.5 -70.5 q-7 -33 -7 -62q0 -46 22 -72t60 -26q64 0 132 93l10 -9q-84 -149 -193 -149z"/>
<glyph glyph-name="ecircumflex" horiz-adv-x="393" unicode="ê" d="M120 491l158 192h41l86 -192h-18l-101 102h-2l-146 -102h-18zM139 229q83 27 124 60t41 81q0 23 -14.5 38.5t-33.5 15.5q-20 0 -40 -18q-24 -24 -46.5 -72.5t-33.5 -103.5zM159 -13q-63 0 -104 44t-41 111q0 112 81.5 210.5t185.5 98.5q50 0 82 -24.5t32 -62.5 q0 -49 -60.5 -81.5t-199.5 -70.5q-7 -33 -7 -62q0 -46 22 -72t60 -26q64 0 132 93l10 -9q-84 -149 -193 -149z"/>
<glyph glyph-name="edieresis" horiz-adv-x="393" unicode="ë" d="M177 514q-28 0 -44.5 19t-16.5 43t16.5 43.5t44.5 19.5q27 0 43.5 -19.5t16.5 -43.5t-16 -43t-44 -19zM377 514q-28 0 -44.5 19t-16.5 43t17 43.5t44 19.5t43.5 -19.5t16.5 -43.5t-16 -43t-44 -19zM139 229q83 27 124 60t41 81q0 23 -14.5 38.5t-33.5 15.5q-20 0 -40 -18 q-24 -24 -46.5 -72.5t-33.5 -103.5zM159 -13q-63 0 -104 44t-41 111q0 112 81.5 210.5t185.5 98.5q50 0 82 -24.5t32 -62.5q0 -49 -60.5 -81.5t-199.5 -70.5q-7 -33 -7 -62q0 -46 22 -72t60 -26q64 0 132 93l10 -9q-84 -149 -193 -149z"/>
<glyph glyph-name="igrave" horiz-adv-x="275" unicode="ì" d="M211 499l-165 185h113l71 -185h-19zM113 -14q-17 0 -51 20.5t-34 34.5q0 7 25.5 82.5t56.5 164.5t31 90l-53 5l-64 -94l-10 9q31 67 70.5 110t72.5 43q20 0 53.5 -21.5t33.5 -40.5q0 -28 -112 -330l47 -7l70 88l9 -8q-33 -64 -74.5 -105t-70.5 -41z"/>
<glyph glyph-name="iacute" horiz-adv-x="275" unicode="í" d="M140 499l130 185h121l-233 -185h-18zM113 -14q-17 0 -51 20.5t-34 34.5q0 7 25.5 82.5t56.5 164.5t31 90l-53 5l-64 -94l-10 9q31 67 70.5 110t72.5 43q20 0 53.5 -21.5t33.5 -40.5q0 -28 -112 -330l47 -7l70 88l9 -8q-33 -64 -74.5 -105t-70.5 -41z"/>
<glyph glyph-name="icircumflex" horiz-adv-x="275" unicode="î" d="M113 -14q-17 0 -51 20.5t-34 34.5q0 7 25.5 82.5t56.5 164.5t31 90l-53 5l-64 -94l-10 9q31 67 70.5 110t72.5 43q20 0 53.5 -21.5t33.5 -40.5q0 -28 -112 -330l47 -7l70 88l9 -8q-33 -64 -74.5 -105t-70.5 -41zM57 493l152 191h40l80 -191h-20l-94 102h-3l-136 -102h-19 z"/>
<glyph glyph-name="idieresis" horiz-adv-x="275" unicode="ï" d="M113 514q-28 0 -44.5 19t-16.5 43t16.5 43.5t44.5 19.5q27 0 43.5 -19.5t16.5 -43.5t-16 -43t-44 -19zM313 514q-28 0 -44.5 19t-16.5 43t17 43.5t44 19.5t43.5 -19.5t16.5 -43.5t-16 -43t-44 -19zM113 -14q-17 0 -51 20.5t-34 34.5q0 7 25.5 82.5t56.5 164.5t31 90 l-53 5l-64 -94l-10 9q31 67 70.5 110t72.5 43q20 0 53.5 -21.5t33.5 -40.5q0 -28 -112 -330l47 -7l70 88l9 -8q-33 -64 -74.5 -105t-70.5 -41z"/>
<glyph glyph-name="eth" horiz-adv-x="442" unicode="ð" d="M171 10q37 0 69.5 47t55.5 123q24 82 24 150q0 44 -14.5 70t-38.5 26q-31 0 -66.5 -52.5t-59.5 -130.5q-22 -76 -22 -139q0 -42 14 -68t38 -26zM247 554l-133 -33l6 23l111 28q-36 39 -86 62l9 17q77 -21 135 -65l122 31l-4 -23q-97 -24 -97 -25q114 -102 114 -265 q0 -124 -74 -220.5t-168 -96.5q-72 0 -117 55t-45 138q0 99 72 184.5t158 85.5q37 0 61 -21q-21 69 -64 125z"/>
<glyph glyph-name="ntilde" horiz-adv-x="528" unicode="ñ" d="M400 505q-33 0 -92.5 32.5t-78.5 32.5q-17 0 -28 -11t-22 -45q-18 0 -19 -1q17 72 39.5 99.5t63.5 27.5q33 0 91.5 -32.5t77.5 -32.5q18 0 30.5 11.5t23.5 45.5h17q-17 -71 -39.5 -99t-63.5 -28zM366 -14q-17 0 -50 20.5t-33 35.5q0 6 3 17.5t9.5 30.5t12.5 35t17 45.5 t18 47.5q5 14 14 37.5t14 36.5t9 27t4 20q0 12 -16 22.5t-31 10.5q-46 0 -171 -263l-34 -112l-113 3l52 161l58 217l-43 6l-65 -95l-10 9q31 67 71 110.5t71 43.5q17 0 49.5 -23t32.5 -42q0 -22 -20.5 -91t-45.5 -131l6 -1q98 197 147 245q42 42 81 42q38 0 64.5 -22 t26.5 -47q0 -42 -47 -169q-9 -21 -23.5 -59t-25 -66t-11.5 -29l44 -7l70 89l10 -8q-33 -65 -74.5 -106t-70.5 -41z"/>
<glyph glyph-name="ograve" horiz-adv-x="440" unicode="ò" d="M302 499l-165 185h113l71 -185h-19zM171 10q37 0 69 47t54 124q24 76 24 149q0 45 -14 71t-37 26q-32 0 -67 -53t-59 -131q-22 -76 -22 -139q0 -42 14 -68t38 -26zM182 -13q-72 0 -117 55t-45 138q0 99 73 184.5t160 85.5q71 0 118 -56t47 -140q0 -99 -73 -183t-163 -84z "/>
<glyph glyph-name="oacute" horiz-adv-x="440" unicode="ó" d="M235 499l130 185h121l-233 -185h-18zM171 10q37 0 69 47t54 124q24 76 24 149q0 45 -14 71t-37 26q-32 0 -67 -53t-59 -131q-22 -76 -22 -139q0 -42 14 -68t38 -26zM182 -13q-72 0 -117 55t-45 138q0 99 73 184.5t160 85.5q71 0 118 -56t47 -140q0 -99 -73 -183t-163 -84 z"/>
<glyph glyph-name="ocircumflex" horiz-adv-x="440" unicode="ô" d="M135 491l158 192h41l86 -192h-18l-101 102h-2l-146 -102h-18zM171 10q37 0 69 47t54 124q24 76 24 149q0 45 -14 71t-37 26q-32 0 -67 -53t-59 -131q-22 -76 -22 -139q0 -42 14 -68t38 -26zM182 -13q-72 0 -117 55t-45 138q0 99 73 184.5t160 85.5q71 0 118 -56t47 -140 q0 -99 -73 -183t-163 -84z"/>
<glyph glyph-name="otilde" horiz-adv-x="440" unicode="õ" d="M366 505q-33 0 -92.5 32.5t-78.5 32.5q-17 0 -28 -11t-22 -45q-18 0 -19 -1q17 72 39.5 99.5t63.5 27.5q33 0 91.5 -32.5t77.5 -32.5q18 0 30.5 11.5t23.5 45.5h17q-17 -71 -39.5 -99t-63.5 -28zM171 10q37 0 69 47t54 124q24 76 24 149q0 45 -14 71t-37 26 q-32 0 -67 -53t-59 -131q-22 -76 -22 -139q0 -42 14 -68t38 -26zM182 -13q-72 0 -117 55t-45 138q0 99 73 184.5t160 85.5q71 0 118 -56t47 -140q0 -99 -73 -183t-163 -84z"/>
<glyph glyph-name="odieresis" horiz-adv-x="440" unicode="ö" d="M197 514q-28 0 -44.5 19t-16.5 43t16.5 43.5t44.5 19.5q27 0 43.5 -19.5t16.5 -43.5t-16 -43t-44 -19zM397 514q-28 0 -44.5 19t-16.5 43t17 43.5t44 19.5t43.5 -19.5t16.5 -43.5t-16 -43t-44 -19zM171 10q37 0 69 47t54 124q24 76 24 149q0 45 -14 71t-37 26 q-32 0 -67 -53t-59 -131q-22 -76 -22 -139q0 -42 14 -68t38 -26zM182 -13q-72 0 -117 55t-45 138q0 99 73 184.5t160 85.5q71 0 118 -56t47 -140q0 -99 -73 -183t-163 -84z"/>
<glyph glyph-name="divide" d="M278 98q0 -21 -15 -36.5t-36 -15.5q-22 0 -37 15.5t-15 36.5q0 20 15 34.5t37 14.5q21 0 36 -14.5t15 -34.5zM429 223h-404l3 26h398zM278 377q0 -21 -15 -36.5t-37 -15.5q-21 0 -36 15.5t-15 36.5q0 20 15 35t36 15q22 0 37 -15t15 -35z" unicode="÷"/>
<glyph glyph-name="oslash" horiz-adv-x="440" unicode="ø" d="M119 95l196 272q-10 59 -48 59q-31 0 -66.5 -52.5t-59.5 -130.5q-22 -76 -22 -139v-9zM318 340l-196 -272q11 -57 49 -57q37 0 69 46.5t54 122.5q24 78 24 150v10zM363 403q55 -58 55 -149q0 -99 -73 -183t-163 -84q-54 0 -95 33l-106 -148h-22l115 160q-54 56 -54 148 q0 99 73 184.5t160 85.5q54 0 97 -35l120 167h22z"/>
<glyph glyph-name="ugrave" horiz-adv-x="528" unicode="ù" d="M339 499l-165 185h113l71 -185h-19zM374 -14q-18 0 -49 23.5t-31 42.5q0 22 21 91.5t45 129.5l-6 2q-101 -200 -147 -246q-42 -42 -81 -42t-65.5 22.5t-26.5 48.5q0 43 48 167l58 154l-45 5l-66 -95l-11 9q33 67 73.5 110t69.5 43q17 0 51 -22t34 -37q0 -6 -3 -17 t-9.5 -29t-13 -34.5t-17 -44t-17.5 -46.5q-41 -112 -41 -122q0 -11 16 -22t32 -11q44 0 171 262l35 113l111 -3l-52 -161q-58 -214 -59 -219l42 -7l67 88l9 -8q-31 -65 -71 -105t-72 -40z"/>
<glyph glyph-name="uacute" horiz-adv-x="528" unicode="ú" d="M276 499l130 185h121l-233 -185h-18zM374 -14q-18 0 -49 23.5t-31 42.5q0 22 21 91.5t45 129.5l-6 2q-101 -200 -147 -246q-42 -42 -81 -42t-65.5 22.5t-26.5 48.5q0 43 48 167l58 154l-45 5l-66 -95l-11 9q33 67 73.5 110t69.5 43q17 0 51 -22t34 -37q0 -6 -3 -17 t-9.5 -29t-13 -34.5t-17 -44t-17.5 -46.5q-41 -112 -41 -122q0 -11 16 -22t32 -11q44 0 171 262l35 113l111 -3l-52 -161q-58 -214 -59 -219l42 -7l67 88l9 -8q-31 -65 -71 -105t-72 -40z"/>
<glyph glyph-name="ucircumflex" horiz-adv-x="528" unicode="û" d="M182 491l158 192h41l86 -192h-18l-101 102h-2l-146 -102h-18zM374 -14q-18 0 -49 23.5t-31 42.5q0 22 21 91.5t45 129.5l-6 2q-101 -200 -147 -246q-42 -42 -81 -42t-65.5 22.5t-26.5 48.5q0 43 48 167l58 154l-45 5l-66 -95l-11 9q33 67 73.5 110t69.5 43q17 0 51 -22 t34 -37q0 -6 -3 -17t-9.5 -29t-13 -34.5t-17 -44t-17.5 -46.5q-41 -112 -41 -122q0 -11 16 -22t32 -11q44 0 171 262l35 113l111 -3l-52 -161q-58 -214 -59 -219l42 -7l67 88l9 -8q-31 -65 -71 -105t-72 -40z"/>
<glyph glyph-name="udieresis" horiz-adv-x="528" unicode="ü" d="M442 514q-28 0 -44.5 19t-16.5 43t17 43.5t44 19.5t43.5 -19.5t16.5 -43.5t-16 -43t-44 -19zM242 514q-28 0 -44.5 19t-16.5 43t16.5 43.5t44.5 19.5q27 0 43.5 -19.5t16.5 -43.5t-16 -43t-44 -19zM374 -14q-18 0 -49 23.5t-31 42.5q0 22 21 91.5t45 129.5l-6 2 q-101 -200 -147 -246q-42 -42 -81 -42t-65.5 22.5t-26.5 48.5q0 43 48 167l58 154l-45 5l-66 -95l-11 9q33 67 73.5 110t69.5 43q17 0 51 -22t34 -37q0 -6 -3 -17t-9.5 -29t-13 -34.5t-17 -44t-17.5 -46.5q-41 -112 -41 -122q0 -11 16 -22t32 -11q44 0 171 262l35 113 l111 -3l-52 -161q-58 -214 -59 -219l42 -7l67 88l9 -8q-31 -65 -71 -105t-72 -40z"/>
<glyph glyph-name="yacute" horiz-adv-x="453" unicode="ý" d="M253 499l130 185h121l-233 -185h-18zM-22 -202q-45 0 -71.5 21t-26.5 54q0 25 18.5 42.5t41.5 17.5q25 0 42.5 -16.5t17.5 -41.5q0 -17 -11 -39l33 -9q26 5 73 39t82 66v33q0 167 -24 295.5t-55 128.5l-18 2l-62 -102l-11 9q19 42 30 62.5t28.5 45.5t36.5 35t42 10 q48 0 74 -36t37.5 -124t12.5 -255l5 -1q41 55 84 157t47 152q-17 -10 -35 -10q-26 0 -43 17.5t-17 39.5q0 26 16.5 44t44.5 18q31 0 51 -23t20 -60q0 -80 -62.5 -198.5t-139.5 -199.5q-62 -68 -133 -121t-128 -53z"/>
<glyph glyph-name="thorn" horiz-adv-x="469" unicode="þ" d="M200 8q24 0 49 25q38 38 67.5 120.5t29.5 144.5q0 81 -45 81q-51 0 -144 -202q-31 -79 -31 -104q6 -24 28.5 -44.5t45.5 -20.5zM-128 -251l3 16l27 4q35 4 39 17l223 810q6 24 -7 26l-74 10l4 13l206 28l-31 -114q-78 -255 -105 -334q-1 -6 1.5 -6.5t4.5 4.5 q56 124 100 176t91 52q46 0 73 -40t27 -102q0 -119 -81.5 -221t-178.5 -102q-51 0 -77 48h-3l-68 -249q-1 -5 2.5 -8t14 -5t29.5 -3l40 -4l2 -16h-262z"/>
<glyph glyph-name="OE" horiz-adv-x="968" unicode="Œ" d="M382 22h43l108 566l-66 17q-114 -1 -186.5 -93t-83.5 -240q-2 -26 -2 -38q0 -96 46 -154t141 -58zM368 0q-150 0 -230.5 75.5t-80.5 194.5q0 17 1 26q10 140 118.5 234.5t286.5 94.5h484l-6 -204h-24l-6 33q-21 86 -61.5 118t-132.5 32h-10l-42 -1l-52 -274l33 1 q60 2 91 18.5t48 56.5l15 32h20l-54 -240l-20 1l2 31v11q0 37 -23.5 51t-89.5 17l-26 2l-54 -286l78 -4q101 1 158 38t99 116l16 31h26l-62 -205h-502z"/>
<glyph glyph-name="oe" horiz-adv-x="673" unicode="œ" d="M171 10q37 0 69 47t54 124q24 76 24 149q0 45 -13.5 71t-37.5 26q-32 0 -67 -53t-59 -131q-22 -76 -22 -139q0 -42 14 -68t38 -26zM418 229q88 29 126 60.5t38 80.5q0 23 -15 38.5t-34 15.5q-21 0 -40 -19q-22 -22 -44 -71t-33 -104zM182 -13q-71 0 -116.5 55t-45.5 138 q0 99 72.5 184.5t160.5 85.5q92 0 133 -92q75 93 175 93q51 0 83 -25t32 -64q0 -49 -58 -79.5t-204 -70.5q-6 -28 -6 -62q0 -47 21 -72.5t60 -25.5q64 0 132 93l10 -9q-83 -149 -193 -149q-80 0 -113 70q-65 -70 -143 -70z"/>
<glyph glyph-name="Scaron" horiz-adv-x="520" unicode="Š" d="M315 661l-86 192h18l101 -103h3l144 103h19l-159 -192h-40zM237 -14q-115 0 -217 53l19 168l23 -1l26 -101q40 -96 150 -96q59 0 95.5 37t36.5 90q0 44 -31.5 74t-95.5 64q-73 39 -111 80.5t-38 102.5q0 72 61 126t152 54q67 0 158 -34l53 12l-30 -181l-21 1l-46 143 q-48 36 -109 36q-47 0 -80.5 -30t-33.5 -71q0 -43 29.5 -71.5t96.5 -63.5q74 -40 113 -82t39 -107q0 -82 -67.5 -142.5t-171.5 -60.5z"/>
<glyph glyph-name="scaron" horiz-adv-x="360" unicode="š" d="M223 491l-86 192h18l101 -103h3l144 103h19l-159 -192h-40zM137 -14q-60 0 -102 24.5t-42 68.5q0 28 16.5 46.5t43.5 18.5q20 0 34 -15t15 -36q0 -28 -25 -48q11 -11 36.5 -24t49.5 -14q28 2 46.5 25t19.5 49q0 11 -4.5 21.5t-15 23t-18 20t-25 22.5t-23.5 21 q-44 39 -64.5 67.5t-19.5 61.5q0 57 49.5 95t113.5 38q55 0 94.5 -22t39.5 -63q0 -28 -16 -45.5t-41 -17.5q-23 0 -38 16t-15 38q0 24 25 43q-1 1 -8 6.5t-11.5 8.5t-12 7t-16.5 6.5t-19 2.5q-27 -3 -44 -25.5t-17 -46.5q0 -10 4.5 -20.5t15 -22.5t18 -19t23.5 -21t21 -19 q31 -29 43.5 -42t28.5 -40t16 -51q0 -58 -53.5 -98t-122.5 -40z"/>
<glyph glyph-name="Ydieresis" horiz-adv-x="632" unicode="Ÿ" d="M309 681q-28 0 -44.5 19t-16.5 43t16.5 43.5t44.5 19.5q27 0 43.5 -19.5t16.5 -43.5t-16 -43t-44 -19zM509 681q-28 0 -44.5 19t-16.5 43t17 43.5t44 19.5t43.5 -19.5t16.5 -43.5t-16 -43t-44 -19zM120 0l4 16l51 7q41 4 43 18l46 234l-94 248q-17 45 -31 61t-42 20 l-24 4l-1 17h301l-4 -17l-23 -2q-53 -4 -53 -35q0 -13 10 -40l77 -220h4l108 150q69 95 69 116t-55 27l-26 4l-1 17h228l-4 -17l-26 -4q-36 -5 -65.5 -32t-96.5 -118l-121 -166l-48 -249q-1 -7 7 -10.5t37 -6.5l41 -6v-16h-311z"/>
<glyph glyph-name="circumflex" horiz-adv-x="379" unicode="ˆ" d="M95 491l158 192h41l86 -192h-18l-101 102h-2l-146 -102h-18z"/>
<glyph glyph-name="tilde" horiz-adv-x="393" unicode="˜" d="M328 505q-33 0 -92.5 32.5t-78.5 32.5q-17 0 -28 -11t-22 -45q-18 0 -19 -1q17 72 39.5 99.5t63.5 27.5q33 0 91.5 -32.5t77.5 -32.5q18 0 30.5 11.5t23.5 45.5h17q-17 -71 -39.5 -99t-63.5 -28z"/>
<glyph glyph-name="thinspace" horiz-adv-x="60" unicode=" "/>
<glyph glyph-name="endash" horiz-adv-x="439" unicode="–" d="M13 216l8 43h410l-4 -43h-414z"/>
<glyph glyph-name="emdash" horiz-adv-x="909" unicode="—" d="M13 216l8 43h880l-4 -43h-884z"/>
<glyph glyph-name="quoteleft" horiz-adv-x="209" unicode="‘" d="M147 375q-37 0 -59 25.5t-22 61.5q0 57 53 108.5t139 76.5l8 -10q-54 -22 -86.5 -55t-32.5 -70q0 -49 68 -75q2 -1 3 -1q-2 -25 -21.5 -43t-49.5 -18z"/>
<glyph glyph-name="quotesinglbase" horiz-adv-x="209" unicode="‚" d="M-34 -134l-9 11q53 21 84.5 53t31.5 69q0 51 -74 76q2 24 21.5 43t48.5 19q37 0 59.5 -26.5t22.5 -62.5q0 -56 -51 -106t-134 -76z"/>
<glyph glyph-name="quotedblleft" horiz-adv-x="404" unicode="“" d="M148 375q-38 0 -60 26t-22 63q0 56 51.5 106t133.5 75l9 -10q-52 -21 -83.5 -53t-31.5 -69q0 -8 1.5 -15t4.5 -12.5t7 -11t8 -9.5t10 -8t10 -6.5t10 -5.5t8.5 -4l7.5 -3t6 -2q-1 -24 -21 -42.5t-49 -18.5zM347 375q-38 0 -60 26t-22 63q0 56 51 106t133 75l9 -10 q-52 -21 -83.5 -53.5t-31.5 -68.5q0 -10 2.5 -18.5t6.5 -15t10.5 -12.5t11.5 -10t12.5 -8t12 -6t10.5 -4.5t7 -2.5q-2 -24 -21 -42.5t-48 -18.5z"/>
<glyph glyph-name="quotedblright" horiz-adv-x="404" unicode="”" d="M68 382l-9 11q53 21 84.5 53t31.5 69q0 50 -73 76q1 24 20.5 43t48.5 19q37 0 59.5 -26.5t22.5 -62.5q0 -56 -51 -106.5t-134 -75.5zM266 382l-8 11q52 21 83.5 53.5t31.5 68.5q0 50 -74 76q2 25 21.5 43.5t48.5 18.5q37 0 59.5 -26.5t22.5 -62.5q0 -56 -51 -106 t-134 -76z"/>
<glyph glyph-name="dagger" horiz-adv-x="444" unicode="†" d="M164 -155l85 561h-195l-1 21h197l30 199h22l-30 -199h197l-3 -21h-195l-85 -561h-22z"/>
<glyph glyph-name="daggerdbl" horiz-adv-x="444" unicode="‡" d="M165 -155l28 186h-197l4 21h195l56 364h-195l-1 21h197l29 189h21l-28 -189h197l-3 -21h-196l-56 -364h196v-21h-197l-29 -186h-21z"/>
<glyph glyph-name="ellipsis" horiz-adv-x="657" unicode="…" d="M77 -13q-29 0 -49.5 21t-20.5 50q0 28 20.5 48.5t48.5 20.5q29 0 49.5 -21t20.5 -48q0 -29 -20.5 -50t-48.5 -21zM299 -13q-29 0 -49.5 21t-20.5 50q0 28 20.5 48.5t49.5 20.5t49 -21.5t20 -49.5t-20.5 -48.5t-48.5 -20.5zM522 -13q-29 0 -49.5 21t-20.5 50 q0 28 20.5 48.5t49.5 20.5q28 0 48.5 -21t20.5 -48q0 -29 -20 -50t-49 -21z"/>
<glyph glyph-name="perthousand" horiz-adv-x="924" unicode="‰" d="M441 4q52 0 85 35.5t33 87.5q0 49 -31.5 82t-80.5 33q-52 0 -85 -36.5t-33 -87.5q0 -50 31 -82t81 -32zM756 4q52 0 85.5 35.5t33.5 87.5q0 49 -31.5 82t-81.5 33q-52 0 -85 -36.5t-33 -87.5q0 -50 31 -82t81 -32zM198 384q52 0 85 35t33 86q0 50 -31 83.5t-81 33.5 q-52 0 -85 -36.5t-33 -87.5q0 -50 31 -82t81 -32zM439 -16q-59 0 -96 37.5t-37 94.5q0 61 40 103.5t102 42.5q59 0 96.5 -38.5t37.5 -95.5q0 -60 -40 -102t-103 -42zM755 -16q-60 0 -96.5 37.5t-36.5 94.5q0 61 39.5 103.5t101.5 42.5q59 0 96.5 -38.5t37.5 -95.5 q0 -60 -40 -102t-102 -42zM9 -14l598 654h26l-597 -654h-27zM197 364q-59 0 -96.5 38t-37.5 95q0 60 40 102.5t102 42.5q60 0 97.5 -38.5t37.5 -95.5q0 -60 -40 -102t-103 -42z"/>
<glyph glyph-name="guilsinglleft" horiz-adv-x="278" unicode="‹" d="M218 39l-202 173l2 27l268 167l4 -10l-165 -181l100 -165z"/>
<glyph glyph-name="guilsinglright" horiz-adv-x="279" unicode="›" d="M-2 38l-4 10l161 179l-97 167l7 11l203 -173l-4 -27z"/>
<glyph glyph-name="fraction" horiz-adv-x="506" unicode="⁄" d="M-42 -13l590 653h31l-591 -653h-30z"/>
<glyph glyph-name="Euro" horiz-adv-x="513" unicode="€" d="M293 -13q-99 0 -156 68t-66 170h-66l3 21h62v15q2 54 11 92h-52l3 21h56q35 112 124.5 185t195.5 73q65 0 105.5 -28t40.5 -66q0 -27 -18 -46t-46 -19q-27 0 -42 18t-15 43q0 33 22 56q-23 20 -55 20q-69 0 -121 -65.5t-74 -170.5h195l3 -21h-203q-7 -47 -7 -83 q0 -17 1 -24h182l3 -21h-183q9 -80 51 -126.5t111 -46.5q71 0 130 62l9 -9q-38 -56 -92 -87t-112 -31z"/>
<glyph glyph-name="trademark" horiz-adv-x="569" unicode="™" d="M160 403l1 12l19 2q11 1 11 7v189h-4q-39 0 -61 -60l-4 -9h-13l7 81h208l4 -81h-14l-3 9q-10 31 -23 45.5t-37 14.5h-6v-190q0 -4 13 -6l17 -2v-12h-115zM346 403l1 12l13 1q12 1 15.5 8t4.5 37l4 137q-6 12 -17 13l-16 3l-1 11h94l44 -155h4l51 155h97l-2 -11l-18 -3 q-13 -1 -13 -7l4 -167q0 -11 3 -14.5t13 -5.5l15 -2l1 -12h-115l1 12l18 2q11 2 11 21l-3 165h-4l-68 -196h-23l-59 190q-3 1 -3 0l-3 -138v-13q0 -19 3.5 -24t15.5 -6l13 -1l1 -12h-82z"/>
<glyph glyph-name="minus" d="M415 223h-376l3 26h370z" unicode="−"/>
<glyph glyph-name="approxequal" d="M412 369h26q-19 -98 -108 -98q-34 0 -106 34q-68 33 -100 33q-34 0 -53.5 -15t-28.5 -57h-26q19 98 108 98q34 0 106 -34q68 -33 100 -33q35 0 54 15t28 57zM412 205h26q-19 -98 -108 -98q-34 0 -106 34q-68 33 -100 33q-34 0 -53.5 -15t-28.5 -57h-26q19 98 108 98 q34 0 106 -34q68 -33 100 -33q35 0 54 15t28 57z" unicode="≈"/>
<glyph glyph-name="notequal" d="M30 309l-3 26h215l43 150h28l-43 -150h157l-3 -26h-161l-42 -147h203l3 -26h-213l-45 -160h-28l45 160h-159l3 26h163l42 147h-205z" unicode="≠"/>
<glyph glyph-name="lessequal" horiz-adv-x="438" unicode="≤" d="M413 84l-399 174v18l399 174l10 -24l-368 -157l1 -1q58 -25 183.5 -80t183.5 -80zM423 25h-409l3 26h403z"/>
<glyph glyph-name="greaterequal" horiz-adv-x="438" unicode="≥" d="M430 258l-399 -174l-10 24l367 159v1q-345 149 -367 158l10 24l399 -174v-18zM430 25h-409l3 26h403z"/>
</font>
</defs>
</svg>
