<?xml version="1.0" encoding="UTF-8" standalone="no"?>
<!DOCTYPE svg  PUBLIC '-//W3C//DTD SVG 1.1//EN'  'http://www.w3.org/Graphics/SVG/1.1/DTD/svg11.dtd'>
<svg xmlns="http://www.w3.org/2000/svg">
<defs>
<font id="FreightDispProLight-Regular" horiz-adv-x="448">
<font-face underline-position="-146" font-weight="300" descent="-200" panose-1="2 0 6 3 8 0 0 2 0 4" units-per-em="1000" unicode-range="U+0020-2265" bbox="-74 -270 957 859" x-height="428" underline-thickness="20" font-family="FreightDispProLight" ascent="800" cap-height="625"/>
<missing-glyph horiz-adv-x="1000"/>
<glyph glyph-name=".notdef" horiz-adv-x="1000"/>
<glyph glyph-name=".null" horiz-adv-x="0"/>
<glyph glyph-name="nonmarkingreturn" horiz-adv-x="333"/>
<glyph glyph-name="space" horiz-adv-x="180" unicode=" "/>
<glyph glyph-name="exclam" horiz-adv-x="236" unicode="!" d="M120 -15q-20 0 -34.5 14t-14.5 32t14 31t35 13q19 0 32 -13t13 -31t-13 -32t-32 -14zM114 185l-30 404q-1 6 -1 17q0 34 30 34h14q29 0 29 -33q0 -12 -1 -18l-29 -404q0 -5 -6 -5t-6 5z"/>
<glyph glyph-name="quotedbl" horiz-adv-x="291" unicode='&quot;' d="M6 403l119 244h2l38 -17l-151 -227h-8zM135 403l119 244h1l39 -17l-152 -227h-7z"/>
<glyph glyph-name="numbersign" horiz-adv-x="511" unicode="#" d="M145 204h169l57 214h-169zM73 -5l52 195h-137v14h140l57 214h-137v15h141l53 199h16l-53 -199h170l52 199h17l-53 -199h137v-15h-141l-56 -214h136v-14h-140l-52 -195h-16l52 195h-170l-51 -195h-17z"/>
<glyph glyph-name="dollar" horiz-adv-x="445" unicode="$" d="M152 11q28 -9 64 -9q74 0 118.5 39.5t44.5 103.5q0 57 -36 92.5t-115 63.5zM295 613q-30 10 -63 10q-63 0 -100.5 -35t-37.5 -87q0 -50 33 -79t103 -55zM131 -8q-48 7 -94 24l-16 147h15l22 -71q29 -53 79 -76l77 290q-1 1 -2 1q-76 25 -119 62t-43 102q0 73 51.5 120 t134.5 47q36 0 64 -6l29 108h16l-30 -112q20 -5 30 -10l46 13l12 -156h-16l-53 118q-13 9 -25 14l-65 -245h2l2 -1q85 -30 131.5 -71t46.5 -117q0 -80 -61 -133.5t-152 -53.5q-22 0 -66 4l-41 -154h-16z"/>
<glyph glyph-name="percent" horiz-adv-x="594" unicode="%" d="M446 2q53 0 85 34.5t32 85.5q0 50 -32.5 85.5t-84.5 35.5t-84 -35t-32 -86q0 -52 31.5 -86t84.5 -34zM147 383q53 0 85 34.5t32 85.5t-32 86.5t-85 35.5q-52 0 -84 -35.5t-32 -86.5t32 -85.5t84 -34.5zM446 -17q-62 0 -99 40t-37 98q0 59 37 99.5t99 40.5t99.5 -41 t37.5 -99t-37.5 -98t-99.5 -40zM58 -14l454 654h22l-454 -654h-22zM147 365q-61 0 -98.5 40t-37.5 98t37.5 99t98.5 41q62 0 100 -41t38 -99t-38 -98t-100 -40z"/>
<glyph glyph-name="ampersand" horiz-adv-x="679" unicode="&amp;" d="M219 30q52 0 91.5 31t97.5 101q-85 153 -198 201q-66 -27 -102 -76t-36 -102q0 -68 40.5 -111.5t106.5 -43.5zM252 393q51 24 71.5 54t20.5 72t-28.5 73.5t-69.5 31.5t-68.5 -30t-27.5 -73q0 -44 24 -73.5t78 -54.5zM182 -14q-72 0 -120 49.5t-48 119.5q0 68 49 127 t132 88q-96 54 -96 127q0 51 44 97t108 46q67 0 105.5 -36t38.5 -82q0 -39 -32.5 -75.5t-95.5 -58.5q49 -25 98.5 -76t80.5 -103q42 51 74.5 99.5t32.5 57.5q2 19 -61 26l-28 3l-3 14h215l-3 -14l-26 -3q-8 0 -15 -1.5t-11.5 -2t-9.5 -4t-8 -5t-8 -7.5t-7.5 -8.5t-9.5 -11.5 t-10 -13l-113 -142q58 -110 82.5 -143t58.5 -33q40 0 83 51l10 -10q-65 -76 -121 -76q-39 0 -72 33t-79 130q-35 -43 -54 -64.5t-50 -48.5t-62.5 -38.5t-68.5 -11.5z"/>
<glyph glyph-name="quotesingle" horiz-adv-x="149" unicode="&apos;" d="M6 403l119 244h2l38 -17l-151 -227h-8z"/>
<glyph glyph-name="parenleft" horiz-adv-x="340" unicode="(" d="M326 -270q-43 24 -86 64t-83.5 97t-66 136t-25.5 165t25.5 165t66 136t83.5 97t86 63q9 -14 9 -16q-42 -22 -83.5 -62t-79.5 -95.5t-62 -131t-24 -156.5q0 -82 24 -158t62 -131.5t79.5 -95t83.5 -61.5z"/>
<glyph glyph-name="parenright" horiz-adv-x="340" unicode=")" d="M15 -270q-10 14 -10 16q42 22 83.5 61.5t79.5 95t62 131.5t24 158q0 81 -24 156.5t-62 131t-79.5 95.5t-83.5 62l10 16q43 -23 85.5 -63t83 -97t66 -136t25.5 -165t-25.5 -165t-66 -136t-83 -97t-85.5 -64z"/>
<glyph glyph-name="asterisk" horiz-adv-x="315" unicode="*" d="M197 336l-38 45l-6 92q-2 3 -7 3l-58 -70l-56 -14q-1 0 -3.5 3t-2.5 4l31 50l84 33q1 2 1 5t-1 4l-84 35l-32 48q-1 1 1 4.5t4 3.5l58 -12l57 -74q1 -2 5 -0.5t4 3.5l9 95l36 42h1l7 -2l8 -57l-55 -81q0 -3 5 -8l93 24l52 -24q2 0 2 -3q0 -5 -2 -5l-52 -22l-93 24 q-1 0 -2 -1t-2 -3.5t-1 -3.5l51 -80l-4 -56q-1 0 -5 -1t-5 -1z"/>
<glyph glyph-name="plus" d="M213 27v198h-198l3 22h195v198h22v-198h195l3 -22h-198v-198h-22z" unicode="+"/>
<glyph glyph-name="comma" horiz-adv-x="167" unicode="," d="M31 -119l-7 8q74 47 74 110q0 24 -15.5 38.5t-33.5 14.5q-6 0 -16 -4q-3 8 -3 16q0 16 12 27.5t33 11.5q29 0 48.5 -21t19.5 -55q0 -43 -32.5 -83.5t-79.5 -62.5z"/>
<glyph glyph-name="hyphen" horiz-adv-x="294" unicode="-" d="M24 227l3 28h243l-1 -28h-245z"/>
<glyph glyph-name="period" horiz-adv-x="183" unicode="." d="M92 -13q-21 0 -34.5 13.5t-13.5 32.5q0 18 14 31.5t34 13.5t33 -13.5t13 -31.5q0 -19 -13 -32.5t-33 -13.5z"/>
<glyph glyph-name="slash" horiz-adv-x="258" unicode="/" d="M15 -236l211 875h19l-211 -875h-19z"/>
<glyph glyph-name="zero" horiz-adv-x="529" unicode="0" d="M267 4q73 0 120.5 64.5t47.5 161.5q0 104 -47.5 169.5t-124.5 65.5q-72 0 -120.5 -63.5t-48.5 -155.5q0 -112 46 -177t127 -65zM264 -12q-99 0 -164 70t-65 177q0 106 66.5 177.5t164.5 71.5q97 0 162.5 -71t65.5 -176q0 -109 -65 -179t-165 -70z"/>
<glyph glyph-name="one" horiz-adv-x="316" unicode="1" d="M57 0l3 15l50 3q32 1 32 14v405l-109 8l3 11l156 24v-450q0 -10 39 -12l46 -3l3 -15h-223z"/>
<glyph glyph-name="two" horiz-adv-x="423" unicode="2" d="M25 0l-3 17q85 70 128.5 108.5t78.5 77t46.5 66.5t11.5 61q0 47 -27.5 77.5t-75.5 30.5q-85 0 -138 -89l-10 6q31 59 76.5 93.5t98.5 34.5q55 0 93.5 -34.5t38.5 -86.5q0 -35 -14.5 -67.5t-52.5 -73.5t-76.5 -74.5t-113.5 -94.5v-2q177 -1 193 -1q48 0 69.5 20.5 t39.5 73.5l8 25l13 -1l-31 -167h-353z"/>
<glyph glyph-name="three" horiz-adv-x="393" unicode="3" d="M109 -201q-52 0 -77 19.5t-25 46.5q0 18 12 30t30 12q23 0 36.5 -18.5t13.5 -46.5q0 -10 -1 -15l15 -3q15 -4 24 -4q70 0 122.5 46.5t52.5 129.5q0 62 -37 101t-107 39q-38 0 -88 -22l-6 10q116 77 145 106q48 46 48 101q0 47 -30.5 78t-79.5 31q-82 0 -131 -89l-10 8 q60 124 175 124q55 0 92.5 -36t37.5 -89q0 -52 -36 -93t-102 -84v-1h5q84 0 131 -44t47 -117q0 -87 -75 -153.5t-182 -66.5z"/>
<glyph glyph-name="four" horiz-adv-x="444" unicode="4" d="M51 62h223v328h-1zM274 -184v201h-263l-1 12l301 446h13v-413l116 -2l-15 -43h-101v-201h-50z"/>
<glyph glyph-name="five" horiz-adv-x="378" unicode="5" d="M83 -201q-97 0 -97 59q0 16 12 27t30 11q23 0 36 -19.5t15 -48.5q23 -7 42 -7q64 0 117 55t53 126q0 79 -64.5 133t-177.5 76l67 259h237l-10 -55h-224l-41 -157q123 -24 191.5 -84t68.5 -144q0 -89 -75.5 -160t-179.5 -71z"/>
<glyph glyph-name="six" horiz-adv-x="467" unicode="6" d="M244 3q63 0 101 46.5t38 124.5q0 74 -40.5 122.5t-100.5 48.5q-86 0 -147 -73q-4 -22 -4 -46q0 -95 43.5 -159t109.5 -64zM240 -12q-94 0 -152 68.5t-58 178.5q0 99 53.5 190.5t148.5 153.5t209 74l5 -10q-143 -24 -235.5 -124.5t-115.5 -228.5l2 -2q34 42 79.5 67.5 t92.5 25.5q78 0 125.5 -53.5t47.5 -131.5q0 -90 -60.5 -149t-141.5 -59z"/>
<glyph glyph-name="seven" horiz-adv-x="413" unicode="7" d="M85 -185l286 599v5h-255q-32 0 -45.5 -14.5t-24.5 -54.5q-7 -20 -8 -24l-13 1l17 143h358l2 -13l-268 -642h-49z"/>
<glyph glyph-name="eight" horiz-adv-x="449" unicode="8" d="M236 2q61 0 99.5 36.5t38.5 93.5q0 32 -13.5 58.5t-42 48.5t-54.5 36.5t-67 33.5q-49 -21 -81 -62.5t-32 -92.5q0 -68 41 -110t111 -42zM262 340q87 51 87 139q0 62 -37.5 103.5t-94.5 41.5q-51 0 -86 -35.5t-35 -84.5q0 -57 41.5 -92t124.5 -72zM221 -13 q-80 0 -134.5 47t-54.5 115q0 53 42 98t109 68v1q-64 34 -98 69t-34 87q0 66 52.5 117t125.5 51q71 0 121 -45t50 -110q0 -43 -35 -84t-91 -66v-1q70 -36 106.5 -75t36.5 -98q0 -74 -56 -124t-140 -50z"/>
<glyph glyph-name="nine" horiz-adv-x="467" unicode="9" d="M224 127q87 0 147 72q6 39 6 48q0 93 -44.5 158.5t-110.5 65.5q-62 0 -100.5 -46.5t-38.5 -121.5q0 -76 40.5 -126t100.5 -50zM26 -178l-6 10q144 24 236 123.5t116 227.5h-3q-33 -41 -78 -67t-92 -26q-78 0 -125.5 55t-47.5 134q0 90 60.5 148.5t141.5 58.5 q92 0 150 -70t58 -180q0 -151 -118.5 -273t-291.5 -141z"/>
<glyph glyph-name="colon" horiz-adv-x="181" unicode=":" d="M92 -13q-21 0 -34.5 13.5t-13.5 32.5q0 17 14 30t34 13t33 -13t13 -30q0 -19 -13 -32.5t-33 -13.5zM92 296q-20 0 -34 14t-14 33q0 18 13.5 31t34.5 13q20 0 33 -13t13 -31q0 -19 -13 -33t-33 -14z"/>
<glyph glyph-name="semicolon" horiz-adv-x="167" unicode=";" d="M31 -118l-7 7q74 49 74 110q0 24 -15.5 38.5t-33.5 14.5q-6 0 -16 -4q-3 8 -3 15q0 16 12 27t33 11q30 0 49 -21t19 -54q0 -43 -32.5 -82.5t-79.5 -61.5zM87 296q-20 0 -34 14t-14 32t13.5 31.5t34.5 13.5q19 0 32.5 -13.5t13.5 -31.5t-13.5 -32t-32.5 -14z"/>
<glyph glyph-name="less" horiz-adv-x="438" unicode="&lt;" d="M410 35l-397 193v14l397 193l8 -20l-368 -177v-4l368 -179z"/>
<glyph glyph-name="equal" d="M26 138l3 22h390l3 -22h-396zM29 311l-3 22h396l-3 -22h-390z" unicode="="/>
<glyph glyph-name="greater" horiz-adv-x="438" unicode="&gt;" d="M425 228l-397 -193l-8 20l368 179v4l-368 177l8 20l397 -193v-14z"/>
<glyph glyph-name="question" horiz-adv-x="312" unicode="?" d="M145 -13q-20 0 -33.5 13.5t-13.5 32.5q0 16 13.5 29.5t33.5 13.5t33 -13t13 -30q0 -19 -13 -32.5t-33 -13.5zM143 178q-80 65 -80 118q0 38 23.5 60.5t80.5 47.5q55 24 75.5 39.5t20.5 37.5q0 38 -39.5 70t-115.5 32q-32 0 -66 -9q-7 10 -7 31q0 35 65 35q75 0 127.5 -52 t52.5 -121q0 -35 -13 -56.5t-29.5 -31.5t-57.5 -29q-57 -25 -69 -38q-15 -15 -15 -37q0 -43 60 -97h-13z"/>
<glyph glyph-name="at" horiz-adv-x="786" unicode="@" d="M299 105q61 0 168 199q18 34 18 52q-4 26 -30 54t-50 28q-27 0 -56 -27q-39 -36 -71.5 -107.5t-32.5 -127.5q0 -31 16.5 -51t37.5 -20zM391 -110q-159 0 -260 98.5t-101 251.5q0 165 114.5 283t275.5 118q143 0 240.5 -88.5t97.5 -225.5q0 -107 -68 -189.5t-158 -82.5 q-44 0 -71 20.5t-27 52.5q0 15 13.5 70.5t23.5 74.5h-4q-64 -102 -108 -153.5t-81 -51.5q-34 0 -58.5 26.5t-24.5 63.5q0 65 45 139t103 129q40 38 83 38q31 0 50.5 -22.5t23.5 -64.5h4l35 104l46 -3l-70 -190l-23 -100q-14 -35 -14 -60q0 -49 67 -49q76 0 136.5 74 t60.5 173q0 131 -93 215.5t-231 84.5q-153 0 -262.5 -113.5t-109.5 -270.5q0 -147 97.5 -242t249.5 -95q83 0 154 39t109 100l8 -11q-39 -62 -113 -102.5t-160 -40.5z"/>
<glyph glyph-name="A" horiz-adv-x="615" unicode="A" d="M186 278h199l-24 70q-24 70 -49 140l-24 71h-2zM392 260h-212l-60 -167q-14 -37 -14 -51q0 -13 11 -18t41 -7l37 -3l3 -14h-205l3 14l31 3q33 4 46 22.5t46 103.5l156 433l-7 25q11 4 24.5 14t18.5 19h9l200 -566q12 -31 21 -40.5t33 -10.5l41 -3l3 -14h-235l3 14l45 2 q37 2 37 19q0 5 -1 7z"/>
<glyph glyph-name="B" horiz-adv-x="550" unicode="B" d="M178 344l69 1q79 1 123 39t44 94q0 129 -166 129h-70v-263zM264 15l31 3q76 6 113 47t37 104q0 71 -54 115.5t-140 44.5q-51 0 -73 -2v-297zM30 0l3 14l48 5q35 3 35 12v564q0 9 -42 12l-40 4l-3 14h235q103 0 158 -36t55 -98q0 -57 -40.5 -97t-128.5 -53v-3 q97 -7 148 -51.5t51 -112.5q0 -82 -64 -128t-178 -46h-237z"/>
<glyph glyph-name="C" horiz-adv-x="648" unicode="C" d="M367 -14q-147 0 -241 88.5t-94 230.5q0 146 95 240.5t244 94.5q87 0 161 -36l54 21l10 -179h-14l-58 138q-58 40 -155 40q-122 0 -196 -87t-74 -223q0 -139 73 -225.5t196 -86.5q73 0 118.5 27t82.5 82l29 69h15l-34 -155l-34 -1q-84 -38 -178 -38z"/>
<glyph glyph-name="D" horiz-adv-x="643" unicode="D" d="M266 17q133 4 206.5 85.5t73.5 200.5q0 139 -77.5 223t-222.5 84h-68v-581zM30 0l3 14l48 5q35 3 35 12v565q0 8 -42 11l-40 4l-3 14l228 3q166 0 259.5 -82t93.5 -222q0 -143 -100.5 -233.5t-270.5 -90.5h-211z"/>
<glyph glyph-name="E" horiz-adv-x="561" unicode="E" d="M27 0l3 14l52 5q34 3 34 12v565q0 8 -41 11l-44 4l-3 14h448l16 -163h-12l-11 43q-22 61 -55 83t-113 22h-123v-273h100q60 1 76 11t26 46l10 29l11 -1l-19 -191l-11 1l-2 27q-3 40 -17 49.5t-79 10.5l-95 1v-301l124 -3q97 1 135.5 27.5t62.5 87.5l12 42l15 -1l-38 -172 h-462z"/>
<glyph glyph-name="F" horiz-adv-x="529" unicode="F" d="M27 0l3 14l51 5q35 3 35 12v565q0 8 -41 11l-44 4l-3 14h450l16 -169l-14 -1l-9 41q-11 32 -20.5 50t-29.5 34.5t-52.5 23t-82.5 6.5h-108v-279h86q60 1 76 11t26 47l10 27h11l-19 -191l-11 1l-2 27q-3 40 -16.5 49.5t-79.5 10.5l-81 1v-282q0 -10 42 -13l63 -4l3 -15 h-259z"/>
<glyph glyph-name="G" horiz-adv-x="677" unicode="G" d="M369 -15q-147 0 -242 87.5t-95 227.5q0 147 95 244t245 97q83 0 159 -37l55 21l2 -176h-14l-51 135q-58 40 -156 40q-119 0 -193.5 -89t-74.5 -225q0 -137 76 -222t200 -85q90 0 142 31v209q0 9 -44 11l-55 4l-3 14h246l-3 -14l-47 -5q-35 -3 -35 -12v-193l62 6l1 -11 q-151 -58 -270 -58z"/>
<glyph glyph-name="H" horiz-adv-x="710" unicode="H" d="M30 0l3 14l48 5q35 3 35 12v565q0 8 -42 11l-40 4l-3 14h236l-3 -14l-51 -5q-35 -3 -35 -12v-266h354v268q0 8 -42 11l-44 4l-3 14h237l-3 -14l-49 -5q-35 -3 -35 -12v-565q0 -8 42 -11l41 -4l3 -14h-236l3 14l51 5q35 3 35 12v279h-354v-281q0 -8 42 -11l43 -4l3 -14 h-236z"/>
<glyph glyph-name="I" horiz-adv-x="314" unicode="I" d="M34 0l3 14l54 5q35 3 35 12v565q0 8 -42 11l-46 4l-3 14h245l-3 -14l-54 -5q-35 -3 -35 -12v-565q0 -8 42 -11l46 -4l3 -14h-245z"/>
<glyph glyph-name="J" horiz-adv-x="306" unicode="J" d="M26 -120q-34 0 -54 13.5t-20 36.5q0 18 11.5 30t30.5 12q21 0 33 -14t12 -32q0 -14 -8 -27h2q100 0 100 181v516q0 9 -42 11l-46 4l-3 14h242l-3 -14l-51 -5q-35 -3 -35 -12v-524q0 -54 -51.5 -122t-117.5 -68z"/>
<glyph glyph-name="K" horiz-adv-x="636" unicode="K" d="M30 0l3 14l48 5q35 3 35 12v565q0 8 -42 11l-40 4l-3 14h236l-3 -14l-51 -5q-35 -3 -35 -12v-326l208 215q90 90 90 108q0 13 -43 16l-48 4l-3 14h227l-3 -14l-26 -2q-39 -3 -55 -15.5t-119 -118.5l-83 -85l211 -322q21 -35 30 -42t34 -9l32 -3l3 -14h-223l4 14l35 3 q29 1 29 22q0 9 -5 17l-189 295l-106 -107v-215q0 -8 42 -11l43 -4l3 -14h-236z"/>
<glyph glyph-name="L" horiz-adv-x="533" unicode="L" d="M30 0l3 14l49 5q34 3 34 12v565q0 8 -41 11l-41 4l-3 14h253l-3 -14l-68 -5q-35 -3 -35 -13v-574l100 -2q67 0 107 15.5t56.5 36.5t33.5 62l13 50h15l-39 -181h-434z"/>
<glyph glyph-name="M" horiz-adv-x="814" unicode="M" d="M16 0l3 14l47 3q51 3 51 22l18 553q-13 10 -50 14l-49 5l-3 14h171l208 -530h2l212 530h162l-2 -14l-61 -3q-28 -2 -30 -14l12 -565q0 -10 41 -13l44 -2l3 -14h-241l3 14l59 3q30 1 30 14l-13 552h-3l-234 -577h-12l-217 555q-2 5 -7.5 12.5t-6.5 8.5l-15 -544 q0 -19 68 -21l38 -3l3 -14h-231z"/>
<glyph glyph-name="N" horiz-adv-x="695" unicode="N" d="M577 -4l-427 574h-2l1 -532q0 -17 59 -21l40 -3l3 -14h-217l3 14l41 3q52 5 52 23v538q-15 20 -67 28l-33 5l-3 14h156l392 -526h1l-1 489q0 13 -59 20l-40 3l-3 14h217l-3 -14l-41 -3q-52 -5 -52 -22v-590h-17z"/>
<glyph glyph-name="O" horiz-adv-x="707" unicode="O" d="M356 3q113 0 182.5 82.5t69.5 222.5q0 141 -73.5 228.5t-182.5 87.5q-112 0 -182 -84t-70 -226q0 -140 72.5 -225.5t183.5 -85.5zM354 -13q-139 0 -230.5 90.5t-91.5 233.5q0 133 95.5 231t224.5 98q139 0 231 -91.5t92 -236.5q0 -132 -95.5 -228.5t-225.5 -96.5z"/>
<glyph glyph-name="P" horiz-adv-x="526" unicode="P" d="M272 304q81 0 123 39.5t42 114.5q0 151 -175 151h-10l-74 -1v-292q46 -12 94 -12zM20 0l3 14l58 5q35 3 35 12v565q0 8 -41 11l-51 4l-3 14h252q112 0 170.5 -41.5t58.5 -115.5q0 -80 -64.5 -129t-165.5 -49q-40 0 -94 7v-268q0 -9 42 -11l63 -4l3 -14h-266z"/>
<glyph glyph-name="Q" horiz-adv-x="707" unicode="Q" d="M356 3q113 0 182.5 82.5t69.5 222.5t-73.5 228t-182.5 88q-112 0 -182 -84.5t-70 -225.5q0 -140 72.5 -225.5t183.5 -85.5zM611 -179q-188 0 -257 166q-139 0 -230.5 90.5t-91.5 233.5q0 133 95.5 231t224.5 98q139 0 231 -92t92 -236q0 -112 -70.5 -200.5t-176.5 -115.5 q38 -84 89 -118t129 -34q30 0 75 5l2 -13q-53 -15 -112 -15z"/>
<glyph glyph-name="R" horiz-adv-x="590" unicode="R" d="M282 313q65 4 104.5 44.5t39.5 107.5t-45.5 105.5t-130.5 38.5h-12l-60 -2v-279q43 -15 104 -15zM20 0l3 14l58 5q35 2 35 12v565q0 8 -42 11l-50 4l-3 14h246q108 0 166 -41t58 -112q0 -62 -44 -107t-115 -63l153 -235q21 -31 34 -40t37 -10l28 -3l4 -14h-132l-17 30 l-167 267q-60 0 -94 12v-280q0 -6 42 -11l50 -4l3 -14h-253z"/>
<glyph glyph-name="S" horiz-adv-x="474" unicode="S" d="M229 -14q-97 0 -175 30l-17 147h15l22 -70q48 -91 159 -91q73 0 117.5 40t44.5 103q0 60 -39.5 96.5t-127.5 65.5q-76 26 -119 63t-43 101q0 74 52 121.5t134 47.5q63 0 109 -21l47 12l11 -156h-15l-54 120q-43 29 -102 29q-63 0 -100.5 -35t-37.5 -87q0 -54 37 -83 t117 -58q41 -14 68.5 -28t55 -35t41.5 -51.5t14 -70.5q0 -81 -61.5 -135.5t-152.5 -54.5z"/>
<glyph glyph-name="T" horiz-adv-x="604" unicode="T" d="M172 0l3 14l61 5q35 3 35 12v579h-65q-44 -2 -73.5 -16.5t-44 -32.5t-30.5 -51l-13 -45h-15l37 160h480l23 -161h-14l-9 46q-24 59 -52.5 78t-99.5 22h-62v-581q0 -8 42 -11l53 -4l3 -14h-259z"/>
<glyph glyph-name="U" horiz-adv-x="664" unicode="U" d="M345 -14q-120 0 -178.5 53.5t-58.5 175.5v380q0 9 -42 12l-50 4l-3 14h253l-3 -14l-58 -5q-35 -3 -35 -13v-381q0 -102 49 -147t148 -45q182 0 182 211v357q0 15 -68 20l-40 3l-3 14h224l-3 -14l-41 -3q-50 -5 -50 -22v-355q0 -120 -58 -182.5t-165 -62.5z"/>
<glyph glyph-name="V" horiz-adv-x="619" unicode="V" d="M306 -10l-216 567q-12 30 -21 39.5t-33 11.5l-41 3l-3 14h233l-3 -14l-45 -2q-37 -4 -37 -21q0 -4 1 -6l193 -514h2l164 463q14 42 14 51q0 12 -11.5 17.5t-40.5 7.5l-36 4l-3 14h205l-3 -14l-32 -3q-34 -4 -47 -22.5t-44 -103.5l-176 -492h-20z"/>
<glyph glyph-name="W" horiz-adv-x="963" unicode="W" d="M292 -10l-201 567q-12 31 -20.5 40t-33.5 11l-40 3l-2 14h233l-3 -14l-45 -2q-36 -2 -36 -20q0 -4 1 -7l180 -515h2l150 403l-31 87q-11 30 -21 39.5t-35 11.5l-40 3l-3 14h233l-3 -14l-45 -2q-36 -2 -36 -21q0 -4 1 -6l184 -514h1l152 460q12 36 12 47q0 16 -12 23 t-42 9l-38 4l-3 14h206l-3 -14l-31 -3q-33 -4 -43 -20.5t-41 -105.5l-165 -492h-21l-166 455h-1l-171 -455h-23z"/>
<glyph glyph-name="X" horiz-adv-x="612" unicode="X" d="M-7 0l3 14l32 2q35 2 53 16.5t57 71.5l140 207l-165 244q-20 31 -31 41.5t-32 11.5l-38 3l-3 14h239l-3 -12l-49 -3q-30 0 -30 -17q0 -10 11 -30l137 -207h1l116 175q27 45 27 58q0 11 -10.5 14t-38.5 5l-42 3l-4 14h228l-2 -14l-33 -2q-35 -2 -51 -13.5t-53 -67.5 l-126 -186l46 -68l92 -136l46 -69q3 -5 9.5 -15t8.5 -13t7.5 -9t10 -8t11.5 -4t16 -3l38 -3l2 -14h-238l3 14l47 2q31 1 31 17q0 9 -11 28l-155 235h-1l-33 -48l-64 -98l-33 -48q-29 -45 -29 -63q0 -11 10.5 -15t35.5 -6l41 -4l4 -14h-228z"/>
<glyph glyph-name="Y" horiz-adv-x="596" unicode="Y" d="M168 0l3 14l61 5q35 3 35 12v246l-164 277q-17 30 -29 41.5t-37 12.5l-38 3l-3 14h237l-3 -14l-47 -2q-29 -1 -29 -14q0 -9 12 -30l151 -262h3l123 220q23 44 23 60q0 22 -49 26l-41 2l-3 14h219l-3 -14l-32 -2q-35 -2 -49 -14t-45 -71l-135 -238v-257q0 -8 43 -11l53 -4 l3 -14h-259z"/>
<glyph glyph-name="Z" horiz-adv-x="546" unicode="Z" d="M31 0v11l402 596v3h-189q-78 0 -111.5 -26.5t-57.5 -92.5l-10 -42h-14l17 176h438v-11l-400 -595v-2l193 -2q96 0 133.5 31t58.5 104l13 47h16l-29 -197h-460z"/>
<glyph glyph-name="bracketleft" horiz-adv-x="325" unicode="[" d="M67 -237v870h244v-18h-224v-835h224v-17h-244z"/>
<glyph glyph-name="backslash" horiz-adv-x="246" unicode="\" d="M211 -236l-211 875h19l211 -875h-19z"/>
<glyph glyph-name="bracketright" horiz-adv-x="325" unicode="]" d="M14 -237v17h223v835h-223v18h244v-870h-244z"/>
<glyph glyph-name="asciicircum" horiz-adv-x="379" unicode="^" d="M62 488l123 186h9l123 -186h-10l-116 126h-2l-117 -126h-10z"/>
<glyph glyph-name="underscore" horiz-adv-x="453" unicode="_" d="M12 -34l3 34h423l3 -34h-429z"/>
<glyph glyph-name="grave" horiz-adv-x="379" unicode="`" d="M227 496l-178 184h68l118 -184h-8z"/>
<glyph glyph-name="a" horiz-adv-x="399" unicode="a" d="M162 25q46 0 107 53l5 158q-107 -28 -147 -59.5t-40 -77.5q0 -35 20 -54.5t55 -19.5zM323 -11q-23 0 -40 18.5t-16 49.5l-1 2q-74 -69 -128 -69q-47 0 -76.5 27.5t-29.5 69.5q0 55 53.5 92t189.5 73l1 44v13q0 110 -100 110q-32 0 -61.5 -15t-29.5 -27q0 -1 10.5 -14 t10.5 -27q0 -15 -11 -25.5t-28 -10.5q-38 0 -38 37q0 34 60.5 69.5t117.5 35.5q59 0 90 -28.5t31 -99.5v-15l-10 -241q-1 -20 6 -27t22 -7q20 0 50 32l8 -9q-1 -2 -8 -9.5t-9.5 -10t-9 -9.5t-10 -9.5t-9.5 -7.5t-11 -7t-11.5 -3.5t-12.5 -1.5z"/>
<glyph glyph-name="b" horiz-adv-x="472" unicode="b" d="M237 4q68 0 109 56.5t41 147.5q0 84 -41.5 139.5t-108.5 55.5q-63 0 -128 -65v-265q50 -69 128 -69zM56 -19v609q0 29 -5.5 39t-24.5 11l-44 4l2 12l125 26v-322l2 -2q73 81 155 81q77 0 129 -59t52 -153q0 -102 -64 -171t-149 -69q-76 0 -131 37h-3l-36 -43h-8z"/>
<glyph glyph-name="c" horiz-adv-x="413" unicode="c" d="M223 -12q-82 0 -140 62.5t-58 154.5q0 101 63.5 169t157.5 68q60 0 100 -26t40 -64q0 -18 -12 -31t-27 -13q-17 0 -28 10t-11 26q0 4 2 12q0 13 7 22.5t7 10.5q-4 11 -28 24.5t-53 13.5q-65 0 -112.5 -57t-47.5 -140q0 -87 46 -144.5t115 -57.5q87 0 140 82l12 -7 q-64 -115 -173 -115z"/>
<glyph glyph-name="d" horiz-adv-x="487" unicode="d" d="M235 23q65 0 128 65v264q-21 31 -55 50.5t-72 19.5q-68 0 -109 -55t-41 -145q0 -85 41.5 -142t107.5 -57zM364 -15l-1 80l-2 1q-75 -79 -155 -79q-76 0 -128.5 60.5t-52.5 155.5q0 102 65.5 169t155.5 67q60 0 115 -31q2 -1 2 0v183q0 29 -5.5 39t-24.5 11l-51 5l2 11 l132 25v-633q0 -14 5 -21t20 -8l46 -3l-1 -11z"/>
<glyph glyph-name="e" horiz-adv-x="417" unicode="e" d="M91 298l235 2q1 55 -25 90.5t-74 35.5q-42 0 -81 -36t-55 -92zM223 -12q-82 0 -140 62.5t-58 154.5q0 99 59.5 168t150.5 69q70 0 111 -39.5t41 -94.5q0 -8 -2 -26l-297 2q-5 -38 -5 -55q0 -87 46 -144t115 -57q46 0 79 19.5t62 62.5l11 -7q-64 -115 -173 -115z"/>
<glyph glyph-name="f" horiz-adv-x="270" unicode="f" d="M21 0l3 14l34 2q28 5 30 11v366l-74 2l8 32h64l2 26q7 102 59 161t119 59q27 0 44 -12.5t17 -32.5q0 -13 -10 -23.5t-25 -10.5q-19 0 -33 13.5t-18 34.5l-2 7l-14 2q-84 -21 -84 -188v-36h112l-9 -34h-103v-367q0 -6 4.5 -7.5t27.5 -2.5l51 -2l3 -14h-206z"/>
<glyph glyph-name="g" horiz-adv-x="435" unicode="g" d="M200 158q47 0 77.5 37t30.5 94q0 65 -28.5 102t-78.5 37q-46 0 -76 -38t-30 -94q0 -62 29.5 -100t75.5 -38zM208 -227q67 0 119 37.5t52 90.5q0 88 -122 92h-12q-15 0 -107 -5q-30 -12 -58 -42.5t-28 -67.5q0 -47 44 -76t112 -29zM177 -248q-76 0 -122 31t-46 83 q0 40 33.5 73.5t75.5 51.5v1q-93 10 -93 65q0 33 33 61.5t73 37.5v1q-40 13 -67 48.5t-27 81.5q0 66 48 110.5t117 44.5q57 0 100 -30l120 14l-4 -40l-95 9l-1 -3q43 -41 43 -98q0 -63 -49 -106.5t-119 -43.5q-23 0 -50 6q-27 -6 -47.5 -23.5t-20.5 -38.5q0 -45 78 -45 q9 0 54.5 1t58.5 1q70 0 108.5 -29.5t38.5 -78.5q0 -79 -68.5 -132t-171.5 -53z"/>
<glyph glyph-name="h" horiz-adv-x="484" unicode="h" d="M8 0l3 14l32 2q30 1 30 12v558q0 32 -5.5 42t-25.5 13l-39 3l1 10l123 26v-325l1 -1q2 1 15 12t16.5 14t16 12.5t19 13t18 11t20 11t20 7.5t22 5.5t21.5 1.5q48 0 77 -29q33 -33 33 -97v-289q0 -4 1.5 -5.5t9.5 -3.5t25 -2l31 -2l3 -14h-191l3 14l35 2q30 1 30 12v269 q0 103 -91 103q-68 0 -135 -65v-309q0 -5 6 -6.5t30 -3.5l32 -2l3 -14h-190z"/>
<glyph glyph-name="i" horiz-adv-x="219" unicode="i" d="M16 0l3 14l35 2q30 1 30 12v312q0 34 -6 45t-26 13l-39 5l2 10l123 28v-415q0 -5 6 -6.5t30 -3.5l32 -2l3 -14h-193zM101 539q-20 0 -31.5 13.5t-11.5 29.5q0 17 12 31.5t32 14.5t30.5 -14t10.5 -31q0 -16 -11.5 -30t-30.5 -14z"/>
<glyph glyph-name="j" horiz-adv-x="203" unicode="j" d="M-8 -253q-31 0 -48.5 13.5t-17.5 35.5q0 15 10.5 25t26.5 10q41 0 49 -62q65 11 65 144v427q0 34 -6 45t-26 13l-39 5l2 10l123 28v-477q-1 -88 -40 -152.5t-99 -64.5zM93 539q-20 0 -31 13.5t-11 29.5q0 17 11.5 31.5t31.5 14.5t31 -14t11 -31q0 -16 -11.5 -30 t-31.5 -14z"/>
<glyph glyph-name="k" horiz-adv-x="449" unicode="k" d="M8 0l3 14l32 2q30 1 30 12v558q0 32 -5.5 42.5t-25.5 12.5l-39 3l1 10l123 26v-479l129 124q48 50 48 67t-36 20l-32 3l-2 13h188l-3 -14l-31 -3q-8 -1 -16 -4t-13.5 -6t-15.5 -12t-15.5 -15t-21 -21.5t-24.5 -25.5q-4 -4 -10.5 -9.5t-20 -18t-21.5 -21.5l-9 -8l140 -212 q15 -25 24.5 -32.5t32.5 -9.5l23 -2l3 -14h-114l-18 30l-130 204l-55 -53v-155q0 -5 6 -6.5t29 -3.5l32 -2l3 -14h-189z"/>
<glyph glyph-name="l" horiz-adv-x="216" unicode="l" d="M13 0l3 14l33 2q13 1 18.5 1.5t9 3t3.5 7.5v553q0 35 -6 46t-26 14l-42 3l2 10l125 26v-654q0 -6 6 -7.5t30 -2.5l32 -2l3 -14h-191z"/>
<glyph glyph-name="m" horiz-adv-x="745" unicode="m" d="M17 0l3 14l33 2q13 1 18.5 1.5t9 3t3.5 7.5v311q0 35 -6 46t-26 13l-39 5l1 10l124 28l-4 -84h3q88 86 154 86q48 0 78 -30q22 -24 28 -58h1q88 88 157 88q49 0 80 -33q32 -32 32 -93v-290q0 -4 1.5 -5t9 -3t25.5 -3l30 -2l3 -14h-189l3 14l33 2q30 1 30 12v272 q0 100 -89 100q-35 0 -69.5 -17.5t-52.5 -41.5v-314q0 -4 1.5 -5t9 -3t25.5 -3l33 -2l3 -14h-191l3 14l33 2q29 1 29 12v272q0 100 -88 100q-65 0 -123 -58v-316q0 -5 6.5 -6.5t30.5 -3.5l33 -2l3 -14h-193z"/>
<glyph glyph-name="n" horiz-adv-x="494" unicode="n" d="M17 0l3 14l33 2q13 1 18.5 1.5t9 3t3.5 7.5v313q0 33 -6 44t-24 13l-41 5l1 10l124 28l-2 -86l3 -2q31 27 49 41.5t52.5 31t65.5 16.5q49 0 78 -29q33 -35 33 -98v-288q0 -3 1.5 -5t9.5 -3.5t25 -2.5l32 -2l3 -14h-191l3 14l34 2q31 1 31 12v269q0 103 -93 103 q-66 0 -135 -65v-309q0 -5 6.5 -6.5t30.5 -3.5l31 -2l4 -14h-192z"/>
<glyph glyph-name="o" horiz-adv-x="486" unicode="o" d="M245 1q65 0 109.5 60.5t44.5 147.5q0 120 -55 175q-41 43 -101 43q-67 0 -112 -59t-45 -145q0 -123 61 -184q38 -38 98 -38zM244 -13q-92 0 -155 64t-63 161t63.5 163.5t155.5 66.5q91 0 153.5 -64t62.5 -160q0 -99 -63 -165t-154 -66z"/>
<glyph glyph-name="p" horiz-adv-x="486" unicode="p" d="M251 4q68 0 108.5 56.5t40.5 147.5q0 85 -41 140t-108 55q-65 0 -128 -65v-270q51 -64 128 -64zM2 -251l3 14l34 2q29 6 31 11v566q0 33 -5.5 44t-24.5 12l-41 5l1 10l124 28l-1 -81l3 -2q71 81 154 81q77 0 129 -59t52 -153q0 -102 -64 -171t-150 -69q-62 0 -122 30h-2 v-242q0 -5 6.5 -7t29.5 -3l49 -2l3 -14h-209z"/>
<glyph glyph-name="q" horiz-adv-x="479" unicode="q" d="M235 23q65 0 128 65v263q-21 31 -55 51t-72 20q-68 0 -109 -55t-41 -144q0 -86 41.5 -143t107.5 -57zM276 -251l3 14l48 2q23 1 29.5 3t6.5 7v290l-2 1q-75 -79 -155 -79q-76 0 -128.5 60.5t-52.5 155.5q0 102 65.5 169t155.5 67q66 0 124 -39h3l36 47h7v-671 q0 -8 26 -11h5l34 -2l3 -14h-208z"/>
<glyph glyph-name="r" horiz-adv-x="331" unicode="r" d="M17 0l3 14l33 2q13 1 18.5 1.5t9 3t3.5 7.5v313q0 33 -6 44t-24 13l-40 5l2 10l122 28l-3 -163h1q60 166 136 166q24 0 37.5 -13.5t13.5 -31.5q0 -17 -11 -29.5t-28 -12.5t-29 13t-14 36q-64 -20 -104 -156v-224q0 -6 4.5 -7.5t26.5 -2.5l48 -2l3 -14h-202z"/>
<glyph glyph-name="s" horiz-adv-x="354" unicode="s" d="M163 -13q-69 0 -122 22l-11 114h14l20 -59q39 -63 105 -63q48 0 78 26t30 67q0 42 -29 65.5t-88 41.5q-118 36 -118 120q0 51 40 86.5t98 35.5q43 0 86 -18l32 9l7 -112h-15l-38 82q-36 24 -75 24q-42 0 -66.5 -22t-24.5 -58q0 -38 25.5 -57.5t80.5 -38.5 q32 -11 48.5 -18.5t39.5 -22.5t33 -37.5t10 -53.5q0 -56 -44.5 -94.5t-115.5 -38.5z"/>
<glyph glyph-name="t" horiz-adv-x="299" unicode="t" d="M172 -13q-91 0 -90 93l5 314l-76 2l8 29l69 3l4 86l50 -1l-1 -86h142l-9 -33h-133q-6 -303 -6 -304v-5q0 -64 61 -64q11 0 20 2t19.5 7.5t15.5 8t17.5 11.5t14.5 11l7 -9q-23 -21 -36.5 -32.5t-36.5 -22t-45 -10.5z"/>
<glyph glyph-name="u" horiz-adv-x="473" unicode="u" d="M351 -15l2 88h-2q-34 -28 -50 -40.5t-50.5 -29t-65.5 -16.5q-49 0 -82 30q-31 31 -31 97v288q0 5 -5 6.5t-32 3.5l-31 3l-3 13h124v-296q0 -104 94 -104q63 0 132 63v283q0 23 -7 29.5t-30 8.5l-31 3l-3 13h125v-378q0 -14 4.5 -20.5t21.5 -7.5l45 -3l-2 -10z"/>
<glyph glyph-name="v" horiz-adv-x="446" unicode="v" d="M211 -8l-145 374q-13 31 -19 38t-23 8l-28 3l-3 13h183l-2 -13l-29 -3q-27 -1 -27 -17q0 -7 5 -22l119 -306l100 263q17 49 17 59q0 12 -9 16.5t-31 5.5l-28 4l-3 13h164l-3 -13l-20 -3q-24 -1 -35 -16t-35 -73l-128 -331h-20z"/>
<glyph glyph-name="w" horiz-adv-x="688" unicode="w" d="M199 -8l-133 371q-11 32 -17 40t-24 9l-28 3l-2 13h184l-4 -13l-27 -3q-29 -1 -29 -17q0 -6 5 -21l108 -307l103 253l-17 47q-11 29 -18.5 36t-25.5 9l-28 3l-4 13h185l-3 -13l-28 -3q-27 -1 -27 -16q0 -7 5 -22l122 -309l86 264q13 42 13 55q0 14 -9.5 19.5t-31.5 7.5 l-25 4l-3 13h161l-3 -13l-18 -3q-26 -3 -37.5 -18.5t-30.5 -72.5l-108 -329h-21l-124 305l-126 -305h-20z"/>
<glyph glyph-name="x" horiz-adv-x="441" unicode="x" d="M1 0l3 14l30 4q33 3 61 46l101 139l-125 177q-20 30 -44 32l-24 3l-3 13h184l-3 -13l-29 -3q-23 -3 -23 -16q0 -5 4 -12l97 -136h1l86 126q7 12 7 19q0 15 -22 18l-34 4l-3 13h162l-3 -13l-29 -4q-33 -3 -63 -49l-91 -126l134 -187q12 -18 20.5 -25t22.5 -8l24 -2l3 -14 h-183l3 14l28 3q21 1 21 15q0 5 -5 13l-102 148h-1l-95 -140q-7 -12 -7 -19q0 -15 22 -16l35 -4l3 -14h-163z"/>
<glyph glyph-name="y" horiz-adv-x="435" unicode="y" d="M77 -259q-24 0 -40 12.5t-16 29.5q0 18 11.5 30t29.5 12t30.5 -13t15.5 -36q28 6 46.5 37.5t41.5 104.5l22 70v1l-153 377q-12 30 -18 37.5t-23 8.5l-29 3l-3 13h183l-2 -13l-27 -3q-27 -1 -27 -17q0 -7 5 -22l122 -309l97 267q14 40 14 54t-9.5 19t-32.5 7l-28 4l-3 13 h165l-3 -13l-23 -3q-24 -1 -33.5 -15t-31.5 -74l-121 -325l-32 -104q-24 -81 -53 -117t-75 -36z"/>
<glyph glyph-name="z" horiz-adv-x="403" unicode="z" d="M20 0v11l281 403h-95q-72 0 -99 -17.5t-43 -65.5l-9 -46h-13l4 143h319v-10l-283 -403l107 -1q72 1 102.5 18.5t56.5 62.5l22 48h12l-36 -143h-326z"/>
<glyph glyph-name="braceleft" horiz-adv-x="295" unicode="{" d="M278 -255q-85 5 -133.5 44t-48.5 106q0 45 20.5 112t20.5 99q0 41 -36 59t-106 24l-5 9l5 10q142 12 142 84q0 32 -20.5 99.5t-20.5 112.5q0 66 48 104.5t134 43.5l2 -12q-72 -9 -104 -34.5t-32 -70.5q0 -33 22 -101t22 -111q0 -49 -40 -81.5t-108 -41.5v-3 q68 -10 108 -41.5t40 -81.5q0 -42 -22 -110t-22 -101q0 -90 136 -107z"/>
<glyph glyph-name="bar" horiz-adv-x="190" unicode="|" d="M86 -207v877h18v-877h-18z"/>
<glyph glyph-name="braceright" horiz-adv-x="295" unicode="}" d="M16 -255l-1 11q71 9 103 35.5t32 71.5q0 33 -21.5 101t-21.5 110q0 50 40 81.5t107 41.5v3q-67 9 -107 41.5t-40 81.5q0 43 21.5 111t21.5 101q0 45 -31.5 70.5t-103.5 34.5l1 12q86 -5 134.5 -43.5t48.5 -104.5q0 -45 -21 -112.5t-21 -99.5q0 -72 143 -84l4 -10l-4 -9 q-70 -6 -106.5 -24t-36.5 -59q0 -32 21 -99t21 -112q0 -67 -48.5 -106t-134.5 -44z"/>
<glyph glyph-name="asciitilde" horiz-adv-x="379" unicode="~" d="M259 155q-25 0 -78.5 31t-70.5 31q-20 0 -31.5 -11.5t-17.5 -43.5h-11q12 94 72 94q25 0 78.5 -31t70.5 -31q38 0 48 55h10q-12 -94 -70 -94z"/>
<glyph glyph-name="nbspace" horiz-adv-x="139" unicode=" "/>
<glyph glyph-name="exclamdown" horiz-adv-x="236" unicode="¡" d="M111 -18q-30 0 -30 31q0 6 2 18l29 406q1 4 6 4t6 -4l30 -406q0 -2 0.5 -7t0.5 -8q0 -34 -29 -34h-15zM118 545q-20 0 -33.5 13t-13.5 30q0 19 13.5 33.5t33.5 14.5t33.5 -14.5t13.5 -33.5q0 -17 -13.5 -30t-33.5 -13z"/>
<glyph glyph-name="cent" horiz-adv-x="413" unicode="¢" d="M192 37l102 381q-20 10 -53 10q-65 0 -111.5 -55.5t-46.5 -142.5q0 -69 30 -121t79 -72zM139 -159q41 151 41 152q-68 16 -112 76t-44 138q0 98 64 167t158 69q30 0 53 -6l48 177h16l-49 -181q64 -20 64 -65q0 -15 -11.5 -25t-26.5 -10q-17 0 -28 12t-12 33l-93 -346 q18 -5 37 -5q87 0 140 83l12 -6q-66 -117 -174 -117q-14 0 -27 3l-40 -149h-16z"/>
<glyph glyph-name="sterling" horiz-adv-x="480" unicode="£" d="M154 52q-48 23 -78 23q-55 0 -55 -39q0 -18 13.5 -28t34.5 -10q48 0 85 54zM164 282h-109l3 17h103q-13 61 -13 102q0 96 56 163.5t145 67.5q47 0 78 -19t31 -50q0 -14 -10 -25.5t-24 -11.5q-16 0 -25.5 10.5t-9.5 26.5q0 15 9 30q-30 20 -69 20q-55 0 -91 -43.5 t-36 -115.5q0 -24 2.5 -49t7 -59t6.5 -47h128l3 -17h-129q5 -38 5 -70q0 -74 -39 -141q3 -1 30 -10.5t35.5 -12t28.5 -8t34.5 -7.5t28.5 -2q45 0 71 25.5t35 90.5l11 -2q-2 -73 -38.5 -116.5t-92.5 -43.5q-14 0 -29.5 3t-26.5 6t-28.5 11t-24.5 11.5t-26.5 14.5t-24.5 13 q-45 -60 -100 -60q-27 0 -44.5 14t-17.5 38q0 57 79 57q30 0 82 -16q17 37 17 77q0 34 -21 128z"/>
<glyph glyph-name="currency" d="M108 359q0 -48 34 -82t82 -34t82 34t34 82t-34 82t-82 34t-82 -34t-34 -82zM78 199l-14 14l57 57q-33 38 -33 89t33 89l-57 57l14 14l57 -57q40 33 89 33t89 -33l57 57l14 -14l-57 -57q33 -40 33 -89t-33 -89l57 -57l-14 -14l-57 57q-38 -33 -89 -33t-89 33z" unicode="¤"/>
<glyph glyph-name="yen" horiz-adv-x="593" unicode="¥" d="M170 0l3 14l61 5q36 3 36 12v123h-198l3 18h195v113h-196l-1 17h188l-152 252q-17 30 -29 41.5t-37 12.5l-38 3l-3 14h235l-3 -14l-47 -2q-29 0 -29 -14q0 -9 12 -30l151 -255h3l117 213q23 43 23 59q0 23 -49 27l-41 2l-3 14h220l-3 -14l-32 -2q-35 -2 -48.5 -14 t-44.5 -71l-126 -222h182l-1 -17h-188v-113h187l3 -18h-190v-125q0 -8 42 -11l54 -4l3 -14h-259z"/>
<glyph glyph-name="brokenbar" horiz-adv-x="190" unicode="¦" d="M86 -154v335h18v-335h-18zM86 292v335h18v-335h-18z"/>
<glyph glyph-name="section" horiz-adv-x="412" unicode="§" d="M284 157q25 12 45 36.5t20 49.5q0 41 -30.5 69t-85.5 56q-81 43 -104 64q-26 -10 -46.5 -34t-20.5 -50q0 -40 30 -68t87 -58q70 -35 105 -65zM188 -49q-52 0 -88 22t-36 49q0 14 9 24t23 10q15 0 24.5 -10.5t9.5 -26.5q0 -13 -7 -26q25 -28 75 -28q36 0 60 27t24 63 q0 19 -9 36t-30 32.5t-36.5 25t-46.5 25.5q-34 19 -50.5 29.5t-40 29.5t-33.5 40.5t-10 47.5q0 72 95 120q-27 30 -27 72q0 49 35.5 88.5t91.5 39.5q51 0 82.5 -22.5t31.5 -50.5q0 -13 -9.5 -23.5t-23.5 -10.5q-15 0 -24.5 10.5t-9.5 26.5q0 13 7 26q-26 29 -63 29t-60 -27 t-23 -64q0 -19 8 -35t28.5 -31.5t33 -23t43.5 -24.5q6 -3 9 -5q34 -19 50.5 -29t40.5 -29t34.5 -41t10.5 -48q0 -68 -95 -121q27 -30 27 -72q0 -47 -38 -86t-93 -39z"/>
<glyph glyph-name="dieresis" horiz-adv-x="379" unicode="¨" d="M110 514q-19 0 -29.5 12.5t-10.5 27.5q0 16 10.5 30t29.5 14t30.5 -14t11.5 -30q0 -15 -11.5 -27.5t-30.5 -12.5zM269 514q-19 0 -30.5 12.5t-11.5 27.5q0 16 11.5 30t30.5 14t29.5 -14t10.5 -30q0 -15 -10.5 -27.5t-29.5 -12.5z"/>
<glyph glyph-name="copyright" horiz-adv-x="713" unicode="©" d="M366 117q-87 0 -143.5 53.5t-56.5 138.5q0 86 55.5 142t142.5 56q55 0 99 -22l34 12l6 -107h-9l-36 79q-46 27 -96 27q-67 0 -110.5 -51t-43.5 -131q0 -82 45 -134t116 -52q41 0 67.5 16.5t49.5 50.5l18 41h9l-20 -96l-21 -2q-51 -21 -106 -21zM357 2q128 0 219 91 t91 220q0 128 -91 220t-219 92q-129 0 -220 -91.5t-91 -220.5t91 -220t220 -91zM357 -14q-136 0 -231.5 95.5t-95.5 231.5t95.5 232t231.5 96t231.5 -96t95.5 -232t-95.5 -231.5t-231.5 -95.5z"/>
<glyph glyph-name="ordfeminine" horiz-adv-x="300" unicode="ª" d="M126 315q34 0 78 35l3 118q-78 -18 -107.5 -41t-29.5 -56q0 -25 14.5 -40.5t41.5 -15.5zM101 287q-33 0 -54.5 21t-21.5 51q0 42 42.5 70.5t139.5 50.5l2 46v8q0 81 -75 81q-23 0 -45 -11t-22 -19l7 -11q8 -11 8 -21q0 -11 -8.5 -19t-20.5 -8q-30 0 -30 29q0 25 47 52.5 t89 27.5q47 0 69.5 -22.5t22.5 -77.5v-11l-7 -179q-1 -30 23 -30q14 0 39 21l3 -6q-35 -43 -62 -43q-18 0 -31 13.5t-14 36.5v1q-58 -51 -101 -51z"/>
<glyph glyph-name="guillemotleft" horiz-adv-x="402" unicode="«" d="M202 65l-189 150v14l188 149l5 -8l-127 -148l128 -149zM371 48l-195 167v14l194 166l5 -8l-136 -165l137 -166z"/>
<glyph glyph-name="logicalnot" d="M418 312v-180h-22v158h-382l3 22h401z" unicode="¬"/>
<glyph glyph-name="uni00AD" horiz-adv-x="294" unicode="­" d="M24 227l3 28h243l-1 -28h-245z"/>
<glyph glyph-name="registered" horiz-adv-x="713" unicode="®" d="M352 316q41 2 66 25t25 63q0 38 -26.5 61t-74.5 23h-11l-37 -1v-162q23 -9 58 -9zM194 129l2 12l38 3q21 2 21 9v325q0 6 -23 8l-35 3l-3 11h155q64 0 99.5 -25t35.5 -68q0 -36 -26.5 -63t-66.5 -36l89 -138q8 -12 15.5 -18t12 -7t16.5 -3l17 -1l3 -12h-83l-10 18 l-98 156q-35 3 -59 8v-160q0 -5 25 -8l36 -2l2 -12h-163zM357 2q128 0 219 91t91 220q0 128 -91 220t-219 92q-129 0 -220 -91.5t-91 -220.5t91 -220t220 -91zM357 -14q-136 0 -231.5 95.5t-95.5 231.5t95.5 232t231.5 96t231.5 -96t95.5 -232t-95.5 -231.5t-231.5 -95.5z "/>
<glyph glyph-name="macron" horiz-adv-x="378" unicode="¯" d="M64 526l6 28h245l-4 -28h-247z"/>
<glyph glyph-name="degree" horiz-adv-x="322" unicode="°" d="M161 383q54 0 86.5 34.5t32.5 86.5t-33 87t-86 35t-85 -35t-32 -87t32 -86.5t85 -34.5zM161 366q-61 0 -98.5 40t-37.5 98t37.5 98.5t98.5 40.5q62 0 99.5 -40.5t37.5 -98.5t-37 -98t-100 -40z"/>
<glyph glyph-name="plusminus" d="M420 27h-392l3 22h386zM213 84v162h-198l3 22h195v168h22v-168h195l3 -22h-198v-162h-22z" unicode="±"/>
<glyph glyph-name="twosuperior" horiz-adv-x="281" unicode="²" d="M15 267l-2 12q60 58 83.5 81.5t53.5 59.5t39.5 61.5t9.5 55.5q0 40 -22 61.5t-53 21.5q-32 0 -53.5 -15t-41.5 -49l-7 6q51 92 124 92q42 0 71 -27.5t29 -68.5q0 -17 -4 -33t-15 -34.5t-19.5 -31t-30.5 -35t-34 -34.5t-43.5 -41.5t-45.5 -43.5l5 -1h122q34 0 47.5 10 t26.5 48l5 14h10l-23 -109h-232z"/>
<glyph glyph-name="threesuperior" horiz-adv-x="268" unicode="³" d="M92 249q-34 0 -53.5 11.5t-19.5 29.5q0 12 7.5 20t20.5 8q17 0 28 -15t9 -36l10 -2q11 -2 17 -2q42 0 71 26.5t29 69.5q0 42 -24 65.5t-66 23.5q-26 0 -58 -12l-4 7q10 6 29.5 17.5t27.5 16.5t22 14.5t20 15.5t13 15t9.5 18t2.5 19q0 28 -17.5 44t-49.5 16q-55 0 -88 -55 l-6 5q46 85 118 85q36 0 61.5 -21.5t25.5 -53.5q0 -23 -15.5 -43t-30 -29.5t-48.5 -28.5v-2q5 1 16 1q48 0 75.5 -27t27.5 -71q0 -52 -48 -91t-112 -39z"/>
<glyph glyph-name="acute" horiz-adv-x="379" unicode="´" d="M144 496l118 184h68l-177 -184h-9z"/>
<glyph glyph-name="mu" horiz-adv-x="498" unicode="µ" d="M200 -251h-189l3 14l34 2q29 6 31 11v626q0 5 -5 6.5t-32 3.5l-31 3l-3 13h124v-330q0 -34 29 -52t73 -18q72 0 124 57v289q0 23 -7 29.5t-30 8.5l-31 3l-3 13h125v-378q0 -14 4.5 -20.5t21.5 -7.5l45 -3l-2 -10l-123 -24l2 82h-2q-51 -80 -124 -80q-31 0 -58 18t-42 43 h-2v-272q0 -8 26 -11h5l34 -2z"/>
<glyph glyph-name="mu" horiz-adv-x="498" unicode="μ" d="M200 -251h-189l3 14l34 2q29 6 31 11v626q0 5 -5 6.5t-32 3.5l-31 3l-3 13h124v-330q0 -34 29 -52t73 -18q72 0 124 57v289q0 23 -7 29.5t-30 8.5l-31 3l-3 13h125v-378q0 -14 4.5 -20.5t21.5 -7.5l45 -3l-2 -10l-123 -24l2 82h-2q-51 -80 -124 -80q-31 0 -58 18t-42 43 h-2v-272q0 -8 26 -11h5l34 -2z"/>
<glyph glyph-name="paragraph" horiz-adv-x="422" unicode="¶" d="M344 -32v334q-36 -9 -93 -9q-107 0 -164 45t-57 124t55 121t164 42h114v-657h-19z"/>
<glyph glyph-name="periodcentered" horiz-adv-x="182" unicode="·" d="M92 167q-21 0 -34.5 13.5t-13.5 32.5q0 18 14 31.5t34 13.5t33 -13.5t13 -31.5q0 -19 -13 -32.5t-33 -13.5z"/>
<glyph glyph-name="cedilla" horiz-adv-x="379" unicode="¸" d="M99 -249l-3 7q70 8 109 31t39 57q0 52 -75 52q-29 0 -63 -9v9l94 107h18l-66 -75q10 2 29 2q43 0 71 -19.5t28 -52.5q0 -45 -50 -74t-131 -35z"/>
<glyph glyph-name="onesuperior" horiz-adv-x="249" unicode="¹" d="M48 267l2 10l37 3q24 3 24 11v327l-73 8l2 7l116 16v-359q0 -10 29 -10l31 -3l2 -10h-170z"/>
<glyph glyph-name="ordmasculine" horiz-adv-x="363" unicode="º" d="M185 297q48 0 80.5 44.5t32.5 112.5q0 94 -43 137q-30 33 -76 33q-48 0 -81 -44t-33 -111q0 -97 48 -145q27 -27 72 -27zM182 285q-72 0 -119.5 50.5t-47.5 122.5q0 73 48.5 125t118.5 52q71 0 118.5 -50.5t47.5 -123.5t-48 -124.5t-118 -51.5z"/>
<glyph glyph-name="guillemotright" horiz-adv-x="408" unicode="»" d="M30 48l-5 8l137 166l-136 165l5 8l193 -166v-14zM198 65l-4 8l128 149l-128 148l5 8l188 -149v-14z"/>
<glyph glyph-name="onequarter" horiz-adv-x="668" unicode="¼" d="M27 -121l580 751h29l-580 -751h-29zM48 267l2 10l37 3q24 3 24 11v327l-73 8l2 7l116 16v-359q0 -10 29 -10l31 -3l2 -10h-170zM407 5h135v187h-2zM542 -136v109h-165l-1 7l190 270h19v-245h70l-10 -32h-60v-109h-43z"/>
<glyph glyph-name="onehalf" horiz-adv-x="654" unicode="½" d="M27 -121l580 751h29l-580 -751h-29zM48 267l2 10l37 3q24 3 24 11v327l-73 8l2 7l116 16v-359q0 -10 29 -10l31 -3l2 -10h-170zM382 -137l-2 12q60 58 83.5 81.5t53.5 59.5t39.5 61.5t9.5 55.5q0 40 -22 61.5t-53 21.5q-32 0 -53.5 -15t-41.5 -49l-7 6q51 92 124 92 q42 0 71 -27.5t29 -68.5q0 -17 -4 -33t-15 -34.5t-19.5 -31t-30.5 -35t-34 -34.5t-43.5 -41.5t-45.5 -43.5l5 -1h122q34 0 47.5 10t26.5 48l5 14h10l-23 -109h-232z"/>
<glyph glyph-name="threequarters" horiz-adv-x="647" unicode="¾" d="M6 -121l580 751h29l-580 -751h-29zM92 249q-34 0 -53.5 11.5t-19.5 29.5q0 12 7.5 20t20.5 8q17 0 28 -15t9 -36l10 -2q11 -2 17 -2q42 0 71 26.5t29 69.5q0 42 -24 65.5t-66 23.5q-26 0 -58 -12l-4 7q10 6 29.5 17.5t27.5 16.5t22 14.5t20 15.5t13 15t9.5 18t2.5 19 q0 28 -17.5 44t-49.5 16q-55 0 -88 -55l-6 5q46 85 118 85q36 0 61.5 -21.5t25.5 -53.5q0 -23 -15.5 -43t-30 -29.5t-48.5 -28.5v-2q5 1 16 1q48 0 75.5 -27t27.5 -71q0 -52 -48 -91t-112 -39zM386 5h135v187h-2zM521 -136v109h-165l-1 7l190 270h19v-245h70l-10 -32h-60 v-109h-43z"/>
<glyph glyph-name="questiondown" horiz-adv-x="312" unicode="¿" d="M212 -14q-75 0 -127.5 52.5t-52.5 121.5q0 26 5 43.5t21.5 31t28.5 20.5t45 22q57 25 69 38q15 15 15 37q0 42 -60 96h13q80 -63 80 -117q0 -38 -23.5 -60.5t-80.5 -47.5q-55 -24 -75.5 -39.5t-20.5 -38.5q0 -37 40 -69t116 -32q32 0 66 9q6 -9 6 -32q0 -35 -65 -35z M167 551q-20 0 -33 13t-13 30q0 19 13 32.5t33 13.5t33.5 -13.5t13.5 -32.5q0 -17 -13.5 -30t-33.5 -13z"/>
<glyph glyph-name="Agrave" horiz-adv-x="615" unicode="À" d="M324 665l-178 184h68l118 -184h-8zM186 278h199l-24 70q-24 70 -49 140l-24 71h-2zM392 260h-212l-60 -167q-14 -37 -14 -51q0 -13 11 -18t41 -7l37 -3l3 -14h-205l3 14l31 3q33 4 46 22.5t46 103.5l156 433l-7 25q11 4 24.5 14t18.5 19h9l200 -566q12 -31 21 -40.5 t33 -10.5l41 -3l3 -14h-235l3 14l45 2q37 2 37 19q0 5 -1 7z"/>
<glyph glyph-name="Aacute" horiz-adv-x="615" unicode="Á" d="M267 665l118 184h68l-177 -184h-9zM186 278h199l-24 70q-24 70 -49 140l-24 71h-2zM392 260h-212l-60 -167q-14 -37 -14 -51q0 -13 11 -18t41 -7l37 -3l3 -14h-205l3 14l31 3q33 4 46 22.5t46 103.5l156 433l-7 25q11 4 24.5 14t18.5 19h9l200 -566q12 -31 21 -40.5 t33 -10.5l41 -3l3 -14h-235l3 14l45 2q37 2 37 19q0 5 -1 7z"/>
<glyph glyph-name="Acircumflex" horiz-adv-x="615" unicode="Â" d="M181 657l123 186h9l123 -186h-10l-116 126h-2l-117 -126h-10zM186 278h199l-24 70q-24 70 -49 140l-24 71h-2zM392 260h-212l-60 -167q-14 -37 -14 -51q0 -13 11 -18t41 -7l37 -3l3 -14h-205l3 14l31 3q33 4 46 22.5t46 103.5l156 433l-7 25q11 4 24.5 14t18.5 19h9 l200 -566q12 -31 21 -40.5t33 -10.5l41 -3l3 -14h-235l3 14l45 2q37 2 37 19q0 5 -1 7z"/>
<glyph glyph-name="Atilde" horiz-adv-x="615" unicode="Ã" d="M373 673q-25 0 -78.5 31t-70.5 31q-20 0 -31.5 -11.5t-17.5 -43.5h-11q12 94 72 94q25 0 78.5 -31t70.5 -31q38 0 48 55h10q-12 -94 -70 -94zM186 278h199l-24 70q-24 70 -49 140l-24 71h-2zM392 260h-212l-60 -167q-14 -37 -14 -51q0 -13 11 -18t41 -7l37 -3l3 -14h-205 l3 14l31 3q33 4 46 22.5t46 103.5l156 433l-7 25q11 4 24.5 14t18.5 19h9l200 -566q12 -31 21 -40.5t33 -10.5l41 -3l3 -14h-235l3 14l45 2q37 2 37 19q0 5 -1 7z"/>
<glyph glyph-name="Adieresis" horiz-adv-x="615" unicode="Ä" d="M224 677q-19 0 -29.5 12.5t-10.5 27.5q0 16 10.5 30t29.5 14t30.5 -14t11.5 -30q0 -15 -11.5 -27.5t-30.5 -12.5zM383 677q-19 0 -30.5 12.5t-11.5 27.5q0 16 11.5 30t30.5 14t29.5 -14t10.5 -30q0 -15 -10.5 -27.5t-29.5 -12.5zM186 278h199l-24 70q-24 70 -49 140 l-24 71h-2zM392 260h-212l-60 -167q-14 -37 -14 -51q0 -13 11 -18t41 -7l37 -3l3 -14h-205l3 14l31 3q33 4 46 22.5t46 103.5l156 433l-7 25q11 4 24.5 14t18.5 19h9l200 -566q12 -31 21 -40.5t33 -10.5l41 -3l3 -14h-235l3 14l45 2q37 2 37 19q0 5 -1 7z"/>
<glyph glyph-name="Aring" horiz-adv-x="615" unicode="Å" d="M186 278h199l-24 70q-24 70 -49 140l-24 71h-2zM306 624q33 0 53 22t20 54q0 31 -20 53.5t-53 22.5t-53.5 -22.5t-20.5 -53.5q0 -32 20.5 -54t53.5 -22zM392 260h-212l-60 -167q-14 -37 -14 -51q0 -13 11 -18t41 -7l37 -3l3 -14h-205l3 14l31 3q33 4 46 22.5t46 103.5 l170 468q-33 6 -52.5 30.5t-19.5 58.5q0 37 24.5 63.5t64.5 26.5t64.5 -26.5t24.5 -63.5q0 -32 -18 -56t-49 -31l192 -545q12 -31 21 -40.5t33 -10.5l41 -3l3 -14h-235l3 14l45 2q37 2 37 19q0 5 -1 7z"/>
<glyph glyph-name="AE" horiz-adv-x="829" unicode="Æ" d="M205 278h186v319h-4zM-54 0l3 14l50 4q22 3 41.5 22.5t56.5 83.5l267 465q1 2 1 4q0 11 -54 14l-51 4l-3 14h486l17 -163h-12l-10 43q-23 61 -55 82.5t-112 21.5h-119v-272h87q60 1 79 12t30 46l10 29l10 -2l-19 -191l-10 2l-3 27q-3 39 -19.5 48t-82.5 11l-82 1v-300 l105 -3q99 1 143.5 28.5t67.5 85.5l12 42l14 -1l-37 -172h-462l3 15l58 5q35 4 35 14v226h-196l-82 -144q-36 -65 -36 -78q0 -17 42 -21l50 -5l3 -12h-226z"/>
<glyph glyph-name="Ccedilla" horiz-adv-x="648" unicode="Ç" d="M369 -14h-2q-147 0 -241 88.5t-94 230.5q0 146 95 240.5t244 94.5q87 0 161 -36l54 21l10 -179h-14l-58 138q-58 40 -155 40q-122 0 -196 -87t-74 -223q0 -139 73 -225.5t196 -86.5h16l2 3h18q-1 -1 -1 -2q57 6 95 33t71 75l29 69h15l-34 -155l-34 -1q-74 -33 -157 -37 l-50 -57q10 2 29 2q43 0 71 -19.5t28 -52.5q0 -45 -50 -74t-131 -35l-3 7q70 8 109 31t39 57q0 52 -75 52q-29 0 -63 -9v9z"/>
<glyph glyph-name="Egrave" horiz-adv-x="561" unicode="È" d="M323 665l-178 184h68l118 -184h-8zM27 0l3 14l52 5q34 3 34 12v565q0 8 -41 11l-44 4l-3 14h448l16 -163h-12l-11 43q-22 61 -55 83t-113 22h-123v-273h100q60 1 76 11t26 46l10 29l11 -1l-19 -191l-11 1l-2 27q-3 40 -17 49.5t-79 10.5l-95 1v-301l124 -3 q97 1 135.5 27.5t62.5 87.5l12 42l15 -1l-38 -172h-462z"/>
<glyph glyph-name="Eacute" horiz-adv-x="561" unicode="É" d="M249 665l118 184h68l-177 -184h-9zM27 0l3 14l52 5q34 3 34 12v565q0 8 -41 11l-44 4l-3 14h448l16 -163h-12l-11 43q-22 61 -55 83t-113 22h-123v-273h100q60 1 76 11t26 46l10 29l11 -1l-19 -191l-11 1l-2 27q-3 40 -17 49.5t-79 10.5l-95 1v-301l124 -3 q97 1 135.5 27.5t62.5 87.5l12 42l15 -1l-38 -172h-462z"/>
<glyph glyph-name="Ecircumflex" horiz-adv-x="561" unicode="Ê" d="M149 657l123 186h9l123 -186h-10l-116 126h-2l-117 -126h-10zM27 0l3 14l52 5q34 3 34 12v565q0 8 -41 11l-44 4l-3 14h448l16 -163h-12l-11 43q-22 61 -55 83t-113 22h-123v-273h100q60 1 76 11t26 46l10 29l11 -1l-19 -191l-11 1l-2 27q-3 40 -17 49.5t-79 10.5l-95 1 v-301l124 -3q97 1 135.5 27.5t62.5 87.5l12 42l15 -1l-38 -172h-462z"/>
<glyph glyph-name="Edieresis" horiz-adv-x="561" unicode="Ë" d="M194 677q-19 0 -29.5 12.5t-10.5 27.5q0 16 10.5 30t29.5 14t30.5 -14t11.5 -30q0 -15 -11.5 -27.5t-30.5 -12.5zM353 677q-19 0 -30.5 12.5t-11.5 27.5q0 16 11.5 30t30.5 14t29.5 -14t10.5 -30q0 -15 -10.5 -27.5t-29.5 -12.5zM27 0l3 14l52 5q34 3 34 12v565 q0 8 -41 11l-44 4l-3 14h448l16 -163h-12l-11 43q-22 61 -55 83t-113 22h-123v-273h100q60 1 76 11t26 46l10 29l11 -1l-19 -191l-11 1l-2 27q-3 40 -17 49.5t-79 10.5l-95 1v-301l124 -3q97 1 135.5 27.5t62.5 87.5l12 42l15 -1l-38 -172h-462z"/>
<glyph glyph-name="Igrave" horiz-adv-x="314" unicode="Ì" d="M185 665l-178 184h68l118 -184h-8zM34 0l3 14l54 5q35 3 35 12v565q0 8 -42 11l-46 4l-3 14h245l-3 -14l-54 -5q-35 -3 -35 -12v-565q0 -8 42 -11l46 -4l3 -14h-245z"/>
<glyph glyph-name="Iacute" horiz-adv-x="314" unicode="Í" d="M121 665l118 184h68l-177 -184h-9zM34 0l3 14l54 5q35 3 35 12v565q0 8 -42 11l-46 4l-3 14h245l-3 -14l-54 -5q-35 -3 -35 -12v-565q0 -8 42 -11l46 -4l3 -14h-245z"/>
<glyph glyph-name="Icircumflex" horiz-adv-x="314" unicode="Î" d="M29 657l123 186h9l123 -186h-10l-116 126h-2l-117 -126h-10zM34 0l3 14l54 5q35 3 35 12v565q0 8 -42 11l-46 4l-3 14h245l-3 -14l-54 -5q-35 -3 -35 -12v-565q0 -8 42 -11l46 -4l3 -14h-245z"/>
<glyph glyph-name="Idieresis" horiz-adv-x="314" unicode="Ï" d="M77 680q-19 0 -29.5 12.5t-10.5 27.5q0 16 10.5 30t29.5 14t30.5 -14t11.5 -30q0 -15 -11.5 -27.5t-30.5 -12.5zM236 680q-19 0 -30.5 12.5t-11.5 27.5q0 16 11.5 30t30.5 14t29.5 -14t10.5 -30q0 -15 -10.5 -27.5t-29.5 -12.5zM34 0l3 14l54 5q35 3 35 12v565 q0 8 -42 11l-46 4l-3 14h245l-3 -14l-54 -5q-35 -3 -35 -12v-565q0 -8 42 -11l46 -4l3 -14h-245z"/>
<glyph glyph-name="Eth" horiz-adv-x="664" unicode="Ð" d="M178 325h150l3 -18h-153v-278l88 -12q133 4 206.5 85.5t73.5 200.5q0 139 -77.5 223t-222.5 84h-68v-285zM116 307h-82l3 18h79v271q0 8 -42 11l-40 4l-3 14l228 3q166 0 259.5 -82t93.5 -222q0 -143 -100.5 -233.5t-270.5 -90.5h-211l3 14l48 5q35 3 35 12v276z"/>
<glyph glyph-name="Ntilde" horiz-adv-x="695" unicode="Ñ" d="M427 673q-25 0 -78.5 31t-70.5 31q-20 0 -31.5 -11.5t-17.5 -43.5h-11q12 94 72 94q25 0 78.5 -31t70.5 -31q38 0 48 55h10q-12 -94 -70 -94zM577 -4l-427 574h-2l1 -532q0 -17 59 -21l40 -3l3 -14h-217l3 14l41 3q52 5 52 23v538q-15 20 -67 28l-33 5l-3 14h156 l392 -526h1l-1 489q0 13 -59 20l-40 3l-3 14h217l-3 -14l-41 -3q-52 -5 -52 -22v-590h-17z"/>
<glyph glyph-name="Ograve" horiz-adv-x="707" unicode="Ò" d="M367 665l-178 184h68l118 -184h-8zM356 3q113 0 182.5 82.5t69.5 222.5q0 141 -73.5 228.5t-182.5 87.5q-112 0 -182 -84t-70 -226q0 -140 72.5 -225.5t183.5 -85.5zM354 -13q-139 0 -230.5 90.5t-91.5 233.5q0 133 95.5 231t224.5 98q139 0 231 -91.5t92 -236.5 q0 -132 -95.5 -228.5t-225.5 -96.5z"/>
<glyph glyph-name="Oacute" horiz-adv-x="707" unicode="Ó" d="M322 665l118 184h68l-177 -184h-9zM356 3q113 0 182.5 82.5t69.5 222.5q0 141 -73.5 228.5t-182.5 87.5q-112 0 -182 -84t-70 -226q0 -140 72.5 -225.5t183.5 -85.5zM354 -13q-139 0 -230.5 90.5t-91.5 233.5q0 133 95.5 231t224.5 98q139 0 231 -91.5t92 -236.5 q0 -132 -95.5 -228.5t-225.5 -96.5z"/>
<glyph glyph-name="Ocircumflex" horiz-adv-x="707" unicode="Ô" d="M226 657l123 186h9l123 -186h-10l-116 126h-2l-117 -126h-10zM356 3q113 0 182.5 82.5t69.5 222.5q0 141 -73.5 228.5t-182.5 87.5q-112 0 -182 -84t-70 -226q0 -140 72.5 -225.5t183.5 -85.5zM354 -13q-139 0 -230.5 90.5t-91.5 233.5q0 133 95.5 231t224.5 98 q139 0 231 -91.5t92 -236.5q0 -132 -95.5 -228.5t-225.5 -96.5z"/>
<glyph glyph-name="Otilde" horiz-adv-x="707" unicode="Õ" d="M423 673q-25 0 -78.5 31t-70.5 31q-20 0 -31.5 -11.5t-17.5 -43.5h-11q12 94 72 94q25 0 78.5 -31t70.5 -31q38 0 48 55h10q-12 -94 -70 -94zM356 3q113 0 182.5 82.5t69.5 222.5q0 141 -73.5 228.5t-182.5 87.5q-112 0 -182 -84t-70 -226q0 -140 72.5 -225.5 t183.5 -85.5zM354 -13q-139 0 -230.5 90.5t-91.5 233.5q0 133 95.5 231t224.5 98q139 0 231 -91.5t92 -236.5q0 -132 -95.5 -228.5t-225.5 -96.5z"/>
<glyph glyph-name="Odieresis" horiz-adv-x="707" unicode="Ö" d="M274 677q-19 0 -29.5 12.5t-10.5 27.5q0 16 10.5 30t29.5 14t30.5 -14t11.5 -30q0 -15 -11.5 -27.5t-30.5 -12.5zM433 677q-19 0 -30.5 12.5t-11.5 27.5q0 16 11.5 30t30.5 14t29.5 -14t10.5 -30q0 -15 -10.5 -27.5t-29.5 -12.5zM356 3q113 0 182.5 82.5t69.5 222.5 q0 141 -73.5 228.5t-182.5 87.5q-112 0 -182 -84t-70 -226q0 -140 72.5 -225.5t183.5 -85.5zM354 -13q-139 0 -230.5 90.5t-91.5 233.5q0 133 95.5 231t224.5 98q139 0 231 -91.5t92 -236.5q0 -132 -95.5 -228.5t-225.5 -96.5z"/>
<glyph glyph-name="multiply" d="M33 61l175 175l-175 175l16 16l175 -175l175 175l16 -16l-175 -175l175 -175l-16 -16l-175 175l-175 -175z" unicode="×"/>
<glyph glyph-name="Oslash" horiz-adv-x="707" unicode="Ø" d="M510 561q-296 -511 -296 -512q61 -46 142 -46q113 0 182.5 82.5t69.5 222.5q0 163 -98 253zM201 60l296 512q-63 51 -145 51q-112 0 -182 -84t-70 -225q0 -166 101 -254zM528 592q68 -43 107.5 -116t39.5 -164q0 -132 -95.5 -228.5t-225.5 -96.5q-84 0 -156 36l-55 -96 h-19l60 104q-71 41 -111.5 114t-40.5 166q0 133 95.5 231t224.5 98q89 0 161 -40l52 89h19z"/>
<glyph glyph-name="Ugrave" horiz-adv-x="664" unicode="Ù" d="M380 665l-178 184h68l118 -184h-8zM345 -14q-120 0 -178.5 53.5t-58.5 175.5v380q0 9 -42 12l-50 4l-3 14h253l-3 -14l-58 -5q-35 -3 -35 -13v-381q0 -102 49 -147t148 -45q182 0 182 211v357q0 15 -68 20l-40 3l-3 14h224l-3 -14l-41 -3q-50 -5 -50 -22v-355 q0 -120 -58 -182.5t-165 -62.5z"/>
<glyph glyph-name="Uacute" horiz-adv-x="664" unicode="Ú" d="M309 665l118 184h68l-177 -184h-9zM345 -14q-120 0 -178.5 53.5t-58.5 175.5v380q0 9 -42 12l-50 4l-3 14h253l-3 -14l-58 -5q-35 -3 -35 -13v-381q0 -102 49 -147t148 -45q182 0 182 211v357q0 15 -68 20l-40 3l-3 14h224l-3 -14l-41 -3q-50 -5 -50 -22v-355 q0 -120 -58 -182.5t-165 -62.5z"/>
<glyph glyph-name="Ucircumflex" horiz-adv-x="664" unicode="Û" d="M226 657l123 186h9l123 -186h-10l-116 126h-2l-117 -126h-10zM345 -14q-120 0 -178.5 53.5t-58.5 175.5v380q0 9 -42 12l-50 4l-3 14h253l-3 -14l-58 -5q-35 -3 -35 -13v-381q0 -102 49 -147t148 -45q182 0 182 211v357q0 15 -68 20l-40 3l-3 14h224l-3 -14l-41 -3 q-50 -5 -50 -22v-355q0 -120 -58 -182.5t-165 -62.5z"/>
<glyph glyph-name="Udieresis" horiz-adv-x="664" unicode="Ü" d="M432 677q-19 0 -30.5 12.5t-11.5 27.5q0 16 11.5 30t30.5 14t29.5 -14t10.5 -30q0 -15 -10.5 -27.5t-29.5 -12.5zM273 677q-19 0 -29.5 12.5t-10.5 27.5q0 16 10.5 30t29.5 14t30.5 -14t11.5 -30q0 -15 -11.5 -27.5t-30.5 -12.5zM345 -14q-120 0 -178.5 53.5t-58.5 175.5 v380q0 9 -42 12l-50 4l-3 14h253l-3 -14l-58 -5q-35 -3 -35 -13v-381q0 -102 49 -147t148 -45q182 0 182 211v357q0 15 -68 20l-40 3l-3 14h224l-3 -14l-41 -3q-50 -5 -50 -22v-355q0 -120 -58 -182.5t-165 -62.5z"/>
<glyph glyph-name="Yacute" horiz-adv-x="596" unicode="Ý" d="M284 668l118 184h68l-177 -184h-9zM168 0l3 14l61 5q35 3 35 12v246l-164 277q-17 30 -29 41.5t-37 12.5l-38 3l-3 14h237l-3 -14l-47 -2q-29 -1 -29 -14q0 -9 12 -30l151 -262h3l123 220q23 44 23 60q0 22 -49 26l-41 2l-3 14h219l-3 -14l-32 -2q-35 -2 -49 -14t-45 -71 l-135 -238v-257q0 -8 43 -11l53 -4l3 -14h-259z"/>
<glyph glyph-name="Thorn" horiz-adv-x="532" unicode="Þ" d="M272 171q81 0 123 39.5t42 113.5q0 150 -175 150h-10l-74 -1v-290q55 -12 94 -12zM20 0l3 14l58 5q35 3 35 12v565q0 8 -41 11l-51 4l-3 14h253l-3 -14l-58 -5q-35 -3 -35 -12v-103h34h61q112 0 170.5 -42t58.5 -117q0 -79 -64.5 -128.5t-165.5 -49.5q-25 0 -94 9v-134 q0 -9 42 -11l63 -4l3 -14h-266z"/>
<glyph glyph-name="germandbls" horiz-adv-x="481" unicode="ß" d="M280 411q67 -36 122 -106t55 -142q0 -73 -41.5 -123.5t-103.5 -50.5q-49 0 -81 20.5t-32 54.5q0 18 11.5 30.5t28.5 12.5q16 0 25.5 -10.5t9.5 -24.5q0 -28 -29 -34q21 -36 69 -36q42 0 68 34t26 88q0 77 -47.5 149.5t-140.5 127.5v5q67 12 99.5 45.5t32.5 96.5 q0 46 -28 79.5t-72 33.5q-111 0 -111 -169v-492h-120l3 14l34 2q28 5 30 11v365l-74 3l7 29l65 4l2 31q8 98 52.5 156.5t114.5 58.5q69 0 108.5 -35t39.5 -92q0 -52 -34.5 -86.5t-88.5 -49.5z"/>
<glyph glyph-name="agrave" horiz-adv-x="399" unicode="à" d="M223 496l-178 184h68l118 -184h-8zM162 25q46 0 107 53l5 158q-107 -28 -147 -59.5t-40 -77.5q0 -35 20 -54.5t55 -19.5zM323 -11q-23 0 -40 18.5t-16 49.5l-1 2q-74 -69 -128 -69q-47 0 -76.5 27.5t-29.5 69.5q0 55 53.5 92t189.5 73l1 44v13q0 110 -100 110 q-32 0 -61.5 -15t-29.5 -27q0 -1 10.5 -14t10.5 -27q0 -15 -11 -25.5t-28 -10.5q-38 0 -38 37q0 34 60.5 69.5t117.5 35.5q59 0 90 -28.5t31 -99.5v-15l-10 -241q-1 -20 6 -27t22 -7q20 0 50 32l8 -9q-1 -2 -8 -9.5t-9.5 -10t-9 -9.5t-10 -9.5t-9.5 -7.5t-11 -7t-11.5 -3.5 t-12.5 -1.5z"/>
<glyph glyph-name="aacute" horiz-adv-x="399" unicode="á" d="M159 496l118 184h68l-177 -184h-9zM162 25q46 0 107 53l5 158q-107 -28 -147 -59.5t-40 -77.5q0 -35 20 -54.5t55 -19.5zM323 -11q-23 0 -40 18.5t-16 49.5l-1 2q-74 -69 -128 -69q-47 0 -76.5 27.5t-29.5 69.5q0 55 53.5 92t189.5 73l1 44v13q0 110 -100 110 q-32 0 -61.5 -15t-29.5 -27q0 -1 10.5 -14t10.5 -27q0 -15 -11 -25.5t-28 -10.5q-38 0 -38 37q0 34 60.5 69.5t117.5 35.5q59 0 90 -28.5t31 -99.5v-15l-10 -241q-1 -20 6 -27t22 -7q20 0 50 32l8 -9q-1 -2 -8 -9.5t-9.5 -10t-9 -9.5t-10 -9.5t-9.5 -7.5t-11 -7t-11.5 -3.5 t-12.5 -1.5z"/>
<glyph glyph-name="acircumflex" horiz-adv-x="399" unicode="â" d="M59 488l123 186h9l123 -186h-10l-116 126h-2l-117 -126h-10zM162 25q46 0 107 53l5 158q-107 -28 -147 -59.5t-40 -77.5q0 -35 20 -54.5t55 -19.5zM323 -11q-23 0 -40 18.5t-16 49.5l-1 2q-74 -69 -128 -69q-47 0 -76.5 27.5t-29.5 69.5q0 55 53.5 92t189.5 73l1 44v13 q0 110 -100 110q-32 0 -61.5 -15t-29.5 -27q0 -1 10.5 -14t10.5 -27q0 -15 -11 -25.5t-28 -10.5q-38 0 -38 37q0 34 60.5 69.5t117.5 35.5q59 0 90 -28.5t31 -99.5v-15l-10 -241q-1 -20 6 -27t22 -7q20 0 50 32l8 -9q-1 -2 -8 -9.5t-9.5 -10t-9 -9.5t-10 -9.5t-9.5 -7.5 t-11 -7t-11.5 -3.5t-12.5 -1.5z"/>
<glyph glyph-name="atilde" horiz-adv-x="399" unicode="ã" d="M260 504q-25 0 -78.5 31t-70.5 31q-20 0 -31.5 -11.5t-17.5 -43.5h-11q12 94 72 94q25 0 78.5 -31t70.5 -31q38 0 48 55h10q-12 -94 -70 -94zM162 25q46 0 107 53l5 158q-107 -28 -147 -59.5t-40 -77.5q0 -35 20 -54.5t55 -19.5zM323 -11q-23 0 -40 18.5t-16 49.5l-1 2 q-74 -69 -128 -69q-47 0 -76.5 27.5t-29.5 69.5q0 55 53.5 92t189.5 73l1 44v13q0 110 -100 110q-32 0 -61.5 -15t-29.5 -27q0 -1 10.5 -14t10.5 -27q0 -15 -11 -25.5t-28 -10.5q-38 0 -38 37q0 34 60.5 69.5t117.5 35.5q59 0 90 -28.5t31 -99.5v-15l-10 -241q-1 -20 6 -27 t22 -7q20 0 50 32l8 -9q-1 -2 -8 -9.5t-9.5 -10t-9 -9.5t-10 -9.5t-9.5 -7.5t-11 -7t-11.5 -3.5t-12.5 -1.5z"/>
<glyph glyph-name="adieresis" horiz-adv-x="399" unicode="ä" d="M108 514q-19 0 -29.5 12.5t-10.5 27.5q0 16 10.5 30t29.5 14t30.5 -14t11.5 -30q0 -15 -11.5 -27.5t-30.5 -12.5zM267 514q-19 0 -30.5 12.5t-11.5 27.5q0 16 11.5 30t30.5 14t29.5 -14t10.5 -30q0 -15 -10.5 -27.5t-29.5 -12.5zM162 25q46 0 107 53l5 158 q-107 -28 -147 -59.5t-40 -77.5q0 -35 20 -54.5t55 -19.5zM323 -11q-23 0 -40 18.5t-16 49.5l-1 2q-74 -69 -128 -69q-47 0 -76.5 27.5t-29.5 69.5q0 55 53.5 92t189.5 73l1 44v13q0 110 -100 110q-32 0 -61.5 -15t-29.5 -27q0 -1 10.5 -14t10.5 -27q0 -15 -11 -25.5 t-28 -10.5q-38 0 -38 37q0 34 60.5 69.5t117.5 35.5q59 0 90 -28.5t31 -99.5v-15l-10 -241q-1 -20 6 -27t22 -7q20 0 50 32l8 -9q-1 -2 -8 -9.5t-9.5 -10t-9 -9.5t-10 -9.5t-9.5 -7.5t-11 -7t-11.5 -3.5t-12.5 -1.5z"/>
<glyph glyph-name="aring" horiz-adv-x="399" unicode="å" d="M162 25q46 0 107 53l5 158q-107 -28 -147 -59.5t-40 -77.5q0 -35 20 -54.5t55 -19.5zM206 516q33 0 53.5 22t20.5 54t-20.5 54t-53.5 22t-53.5 -22t-20.5 -54t20.5 -54t53.5 -22zM323 -11q-23 0 -40 18.5t-16 49.5l-1 2q-74 -69 -128 -69q-47 0 -76.5 27.5t-29.5 69.5 q0 55 53.5 92t189.5 73l1 44v13q0 110 -100 110q-32 0 -61.5 -15t-29.5 -27q0 -1 10.5 -14t10.5 -27q0 -15 -11 -25.5t-28 -10.5q-38 0 -38 37q0 34 60.5 69.5t117.5 35.5q59 0 90 -28.5t31 -99.5v-15l-10 -241q-1 -20 6 -27t22 -7q20 0 50 32l8 -9q-1 -2 -8 -9.5t-9.5 -10 t-9 -9.5t-10 -9.5t-9.5 -7.5t-11 -7t-11.5 -3.5t-12.5 -1.5zM206 502q-40 0 -64.5 26t-24.5 64t24.5 64t64.5 26q41 0 65.5 -26t24.5 -64t-24.5 -64t-65.5 -26z"/>
<glyph glyph-name="ae" horiz-adv-x="666" unicode="æ" d="M166 22q64 0 126 85q-20 46 -20 98q0 23 1 31q-106 -28 -146 -60t-40 -77q0 -35 21.5 -56t57.5 -21zM336 298l237 2q1 56 -25 91t-75 35q-42 0 -81.5 -36t-55.5 -92zM141 -13q-47 0 -78 29t-31 70q0 55 53.5 93t188.5 74l4 43v14q0 59 -29 84t-73 25q-32 0 -61.5 -15 t-29.5 -27q0 -1 10.5 -14t10.5 -27q0 -15 -11 -25.5t-28 -10.5q-38 0 -38 37q0 34 60.5 69.5t117.5 35.5q52 0 79 -19t36 -61q60 80 160 80q70 0 111 -39.5t41 -94.5q0 -8 -2 -26l-299 2q-4 -30 -4 -55q0 -87 45.5 -144t114.5 -57q90 0 142 82l12 -7q-66 -115 -174 -115 q-54 0 -99.5 28.5t-70.5 77.5q-83 -107 -158 -107z"/>
<glyph glyph-name="ccedilla" horiz-adv-x="413" unicode="ç" d="M220 -12q-82 2 -138.5 64t-56.5 153q0 101 63.5 169t157.5 68q60 0 100 -26t40 -64q0 -18 -12 -31t-27 -13q-17 0 -28 10t-11 26q0 4 2 12q0 13 7 22.5t7 10.5q-4 11 -28 24.5t-53 13.5q-65 0 -112.5 -57t-47.5 -140q0 -87 46 -144.5t115 -57.5q87 0 140 82l12 -7 q-59 -107 -157 -114l-52 -59q10 2 29 2q43 0 71 -19.5t28 -52.5q0 -45 -50 -74t-131 -35l-3 7q70 8 109 31t39 57q0 52 -75 52q-29 0 -63 -9v9z"/>
<glyph glyph-name="egrave" horiz-adv-x="417" unicode="è" d="M251 496l-178 184h68l118 -184h-8zM91 298l235 2q1 55 -25 90.5t-74 35.5q-42 0 -81 -36t-55 -92zM223 -12q-82 0 -140 62.5t-58 154.5q0 99 59.5 168t150.5 69q70 0 111 -39.5t41 -94.5q0 -8 -2 -26l-297 2q-5 -38 -5 -55q0 -87 46 -144t115 -57q46 0 79 19.5t62 62.5 l11 -7q-64 -115 -173 -115z"/>
<glyph glyph-name="eacute" horiz-adv-x="417" unicode="é" d="M181 496l118 184h68l-177 -184h-9zM91 298l235 2q1 55 -25 90.5t-74 35.5q-42 0 -81 -36t-55 -92zM223 -12q-82 0 -140 62.5t-58 154.5q0 99 59.5 168t150.5 69q70 0 111 -39.5t41 -94.5q0 -8 -2 -26l-297 2q-5 -38 -5 -55q0 -87 46 -144t115 -57q46 0 79 19.5t62 62.5 l11 -7q-64 -115 -173 -115z"/>
<glyph glyph-name="ecircumflex" horiz-adv-x="417" unicode="ê" d="M94 488l123 186h9l123 -186h-10l-116 126h-2l-117 -126h-10zM91 298l235 2q1 55 -25 90.5t-74 35.5q-42 0 -81 -36t-55 -92zM223 -12q-82 0 -140 62.5t-58 154.5q0 99 59.5 168t150.5 69q70 0 111 -39.5t41 -94.5q0 -8 -2 -26l-297 2q-5 -38 -5 -55q0 -87 46 -144 t115 -57q46 0 79 19.5t62 62.5l11 -7q-64 -115 -173 -115z"/>
<glyph glyph-name="edieresis" horiz-adv-x="417" unicode="ë" d="M139 514q-19 0 -29.5 12.5t-10.5 27.5q0 16 10.5 30t29.5 14t30.5 -14t11.5 -30q0 -15 -11.5 -27.5t-30.5 -12.5zM298 514q-19 0 -30.5 12.5t-11.5 27.5q0 16 11.5 30t30.5 14t29.5 -14t10.5 -30q0 -15 -10.5 -27.5t-29.5 -12.5zM91 298l235 2q1 55 -25 90.5t-74 35.5 q-42 0 -81 -36t-55 -92zM223 -12q-82 0 -140 62.5t-58 154.5q0 99 59.5 168t150.5 69q70 0 111 -39.5t41 -94.5q0 -8 -2 -26l-297 2q-5 -38 -5 -55q0 -87 46 -144t115 -57q46 0 79 19.5t62 62.5l11 -7q-64 -115 -173 -115z"/>
<glyph glyph-name="igrave" horiz-adv-x="219" unicode="ì" d="M137 496l-178 184h68l118 -184h-8zM16 0l3 14l35 2q30 1 30 12v312q0 34 -6 45t-26 13l-39 5l2 10l123 28v-415q0 -5 6 -6.5t30 -3.5l32 -2l3 -14h-193z"/>
<glyph glyph-name="iacute" horiz-adv-x="219" unicode="í" d="M63 496l118 184h68l-177 -184h-9zM16 0l3 14l35 2q30 1 30 12v312q0 34 -6 45t-26 13l-39 5l2 10l123 28v-415q0 -5 6 -6.5t30 -3.5l32 -2l3 -14h-193z"/>
<glyph glyph-name="icircumflex" horiz-adv-x="219" unicode="î" d="M16 0l3 14l35 2q30 1 30 12v312q0 34 -6 45t-26 13l-39 5l2 10l123 28v-415q0 -5 6 -6.5t30 -3.5l32 -2l3 -14h-193zM-13 488l116 186h10l114 -186h-10l-108 125h-2l-110 -125h-10z"/>
<glyph glyph-name="idieresis" horiz-adv-x="219" unicode="ï" d="M28 514q-19 0 -29.5 12.5t-10.5 27.5q0 16 10.5 30t29.5 14t30.5 -14t11.5 -30q0 -15 -11.5 -27.5t-30.5 -12.5zM187 514q-19 0 -30.5 12.5t-11.5 27.5q0 16 11.5 30t30.5 14t29.5 -14t10.5 -30q0 -15 -10.5 -27.5t-29.5 -12.5zM16 0l3 14l35 2q30 1 30 12v312 q0 34 -6 45t-26 13l-39 5l2 10l123 28v-415q0 -5 6 -6.5t30 -3.5l32 -2l3 -14h-193z"/>
<glyph glyph-name="eth" horiz-adv-x="475" unicode="ð" d="M236 0q66 0 107.5 55t41.5 152q0 99 -43 159.5t-112 60.5q-66 0 -108.5 -56.5t-42.5 -145.5q0 -104 43 -164.5t114 -60.5zM221 562l-137 -45l2 20l114 38q-55 33 -134 49l7 10q85 -12 157 -49l121 40l2 -20l-100 -33q92 -56 143.5 -145t51.5 -181q0 -109 -60.5 -184 t-156.5 -75q-93 0 -153.5 65t-60.5 160q0 94 62.5 162t151.5 68q75 0 121 -49q-43 108 -131 169z"/>
<glyph glyph-name="ntilde" horiz-adv-x="494" unicode="ñ" d="M316 504q-25 0 -78.5 31t-70.5 31q-20 0 -31.5 -11.5t-17.5 -43.5h-11q12 94 72 94q25 0 78.5 -31t70.5 -31q38 0 48 55h10q-12 -94 -70 -94zM17 0l3 14l33 2q13 1 18.5 1.5t9 3t3.5 7.5v313q0 33 -6 44t-24 13l-41 5l1 10l124 28l-2 -86l3 -2q31 27 49 41.5t52.5 31 t65.5 16.5q49 0 78 -29q33 -35 33 -98v-288q0 -3 1.5 -5t9.5 -3.5t25 -2.5l32 -2l3 -14h-191l3 14l34 2q31 1 31 12v269q0 103 -93 103q-66 0 -135 -65v-309q0 -5 6.5 -6.5t30.5 -3.5l31 -2l4 -14h-192z"/>
<glyph glyph-name="ograve" horiz-adv-x="486" unicode="ò" d="M256 496l-178 184h68l118 -184h-8zM245 1q65 0 109.5 60.5t44.5 147.5q0 120 -55 175q-41 43 -101 43q-67 0 -112 -59t-45 -145q0 -123 61 -184q38 -38 98 -38zM244 -13q-92 0 -155 64t-63 161t63.5 163.5t155.5 66.5q91 0 153.5 -64t62.5 -160q0 -99 -63 -165t-154 -66z "/>
<glyph glyph-name="oacute" horiz-adv-x="486" unicode="ó" d="M214 496l118 184h68l-177 -184h-9zM245 1q65 0 109.5 60.5t44.5 147.5q0 120 -55 175q-41 43 -101 43q-67 0 -112 -59t-45 -145q0 -123 61 -184q38 -38 98 -38zM244 -13q-92 0 -155 64t-63 161t63.5 163.5t155.5 66.5q91 0 153.5 -64t62.5 -160q0 -99 -63 -165t-154 -66z "/>
<glyph glyph-name="ocircumflex" horiz-adv-x="486" unicode="ô" d="M115 488l123 186h9l123 -186h-10l-116 126h-2l-117 -126h-10zM245 1q65 0 109.5 60.5t44.5 147.5q0 120 -55 175q-41 43 -101 43q-67 0 -112 -59t-45 -145q0 -123 61 -184q38 -38 98 -38zM244 -13q-92 0 -155 64t-63 161t63.5 163.5t155.5 66.5q91 0 153.5 -64t62.5 -160 q0 -99 -63 -165t-154 -66z"/>
<glyph glyph-name="otilde" horiz-adv-x="486" unicode="õ" d="M312 504q-25 0 -78.5 31t-70.5 31q-20 0 -31.5 -11.5t-17.5 -43.5h-11q12 94 72 94q25 0 78.5 -31t70.5 -31q38 0 48 55h10q-12 -94 -70 -94zM245 1q65 0 109.5 60.5t44.5 147.5q0 120 -55 175q-41 43 -101 43q-67 0 -112 -59t-45 -145q0 -123 61 -184q38 -38 98 -38z M244 -13q-92 0 -155 64t-63 161t63.5 163.5t155.5 66.5q91 0 153.5 -64t62.5 -160q0 -99 -63 -165t-154 -66z"/>
<glyph glyph-name="odieresis" horiz-adv-x="486" unicode="ö" d="M163 514q-19 0 -29.5 12.5t-10.5 27.5q0 16 10.5 30t29.5 14t30.5 -14t11.5 -30q0 -15 -11.5 -27.5t-30.5 -12.5zM322 514q-19 0 -30.5 12.5t-11.5 27.5q0 16 11.5 30t30.5 14t29.5 -14t10.5 -30q0 -15 -10.5 -27.5t-29.5 -12.5zM245 1q65 0 109.5 60.5t44.5 147.5 q0 120 -55 175q-41 43 -101 43q-67 0 -112 -59t-45 -145q0 -123 61 -184q38 -38 98 -38zM244 -13q-92 0 -155 64t-63 161t63.5 163.5t155.5 66.5q91 0 153.5 -64t62.5 -160q0 -99 -63 -165t-154 -66z"/>
<glyph glyph-name="divide" d="M273 98q0 -20 -14 -35t-35 -15t-35.5 15t-14.5 35q0 19 14.5 33t35.5 14t35 -14t14 -33zM424 225h-400l3 22h394zM273 377q0 -20 -14.5 -35t-35.5 -15t-35 15t-14 35q0 19 14 33.5t35 14.5t35.5 -14.5t14.5 -33.5z" unicode="÷"/>
<glyph glyph-name="oslash" horiz-adv-x="486" unicode="ø" d="M135 52l198 342q-37 33 -90 33q-67 0 -112 -59t-45 -145q0 -108 49 -171zM346 382l-100 -171l-100 -171l1 -1q38 -38 98 -38q65 0 109.5 60.5t44.5 147.5q0 38 -8.5 71t-17.5 51.5t-27 50.5zM120 25q-44 30 -69 78.5t-25 108.5q0 97 63.5 163.5t155.5 66.5q54 0 101 -25 l83 142h19q-59 -101 -88 -151q47 -30 74 -79.5t27 -110.5q0 -99 -63 -165t-154 -66q-60 0 -111 30l-74 -128h-18z"/>
<glyph glyph-name="ugrave" horiz-adv-x="473" unicode="ù" d="M283 496l-178 184h68l118 -184h-8zM351 -15l2 88h-2q-34 -28 -50 -40.5t-50.5 -29t-65.5 -16.5q-49 0 -82 30q-31 31 -31 97v288q0 5 -5 6.5t-32 3.5l-31 3l-3 13h124v-296q0 -104 94 -104q63 0 132 63v283q0 23 -7 29.5t-30 8.5l-31 3l-3 13h125v-378q0 -14 4.5 -20.5 t21.5 -7.5l45 -3l-2 -10z"/>
<glyph glyph-name="uacute" horiz-adv-x="473" unicode="ú" d="M209 496l118 184h68l-177 -184h-9zM351 -15l2 88h-2q-34 -28 -50 -40.5t-50.5 -29t-65.5 -16.5q-49 0 -82 30q-31 31 -31 97v288q0 5 -5 6.5t-32 3.5l-31 3l-3 13h124v-296q0 -104 94 -104q63 0 132 63v283q0 23 -7 29.5t-30 8.5l-31 3l-3 13h125v-378q0 -14 4.5 -20.5 t21.5 -7.5l45 -3l-2 -10z"/>
<glyph glyph-name="ucircumflex" horiz-adv-x="473" unicode="û" d="M104 488l123 186h9l123 -186h-10l-116 126h-2l-117 -126h-10zM351 -15l2 88h-2q-34 -28 -50 -40.5t-50.5 -29t-65.5 -16.5q-49 0 -82 30q-31 31 -31 97v288q0 5 -5 6.5t-32 3.5l-31 3l-3 13h124v-296q0 -104 94 -104q63 0 132 63v283q0 23 -7 29.5t-30 8.5l-31 3l-3 13 h125v-378q0 -14 4.5 -20.5t21.5 -7.5l45 -3l-2 -10z"/>
<glyph glyph-name="udieresis" horiz-adv-x="473" unicode="ü" d="M311 514q-19 0 -30.5 12.5t-11.5 27.5q0 16 11.5 30t30.5 14t29.5 -14t10.5 -30q0 -15 -10.5 -27.5t-29.5 -12.5zM152 514q-19 0 -29.5 12.5t-10.5 27.5q0 16 10.5 30t29.5 14t30.5 -14t11.5 -30q0 -15 -11.5 -27.5t-30.5 -12.5zM351 -15l2 88h-2q-34 -28 -50 -40.5 t-50.5 -29t-65.5 -16.5q-49 0 -82 30q-31 31 -31 97v288q0 5 -5 6.5t-32 3.5l-31 3l-3 13h124v-296q0 -104 94 -104q63 0 132 63v283q0 23 -7 29.5t-30 8.5l-31 3l-3 13h125v-378q0 -14 4.5 -20.5t21.5 -7.5l45 -3l-2 -10z"/>
<glyph glyph-name="yacute" horiz-adv-x="435" unicode="ý" d="M188 496l118 184h68l-177 -184h-9zM77 -259q-24 0 -40 12.5t-16 29.5q0 18 11.5 30t29.5 12t30.5 -13t15.5 -36q28 6 46.5 37.5t41.5 104.5l22 70v1l-153 377q-12 30 -18 37.5t-23 8.5l-29 3l-3 13h183l-2 -13l-27 -3q-27 -1 -27 -17q0 -7 5 -22l122 -309l97 267 q14 40 14 54t-9.5 19t-32.5 7l-28 4l-3 13h165l-3 -13l-23 -3q-24 -1 -33.5 -15t-31.5 -74l-121 -325l-32 -104q-24 -81 -53 -117t-75 -36z"/>
<glyph glyph-name="thorn" horiz-adv-x="472" unicode="þ" d="M234 4q68 0 110 56t42 146q0 84 -41.5 140t-108.5 56q-62 0 -127 -67v-267q22 -27 56 -45.5t69 -18.5zM-12 -251l3 14l35 2q27 2 29 8q1 1 1 4v810q0 30 -6 40.5t-26 12.5l-42 3l2 11l125 26v-322l2 -2q81 83 155 83q77 0 129 -59t52 -149q0 -102 -65 -173t-153 -71 q-57 0 -117 29h-3v-241q0 -5 6.5 -7t30.5 -3l48 -2l3 -14h-209z"/>
<glyph glyph-name="OE" horiz-adv-x="904" unicode="Œ" d="M400 18h67v576l-87 12q-134 -4 -207 -83.5t-73 -197.5q0 -139 77 -223t223 -84zM386 0h-6q-161 0 -254.5 81.5t-93.5 221.5q0 143 100.5 231.5t272.5 88.5l414 2l16 -163h-11l-11 43q-21 60 -57 82t-117 22h-111v-272h86q61 1 80 11.5t29 45.5l10 29l11 -1l-19 -191 l-11 1l-2 27q-3 39 -19.5 49t-83.5 11l-81 1v-300l112 -3q67 1 109 16t60.5 37t34.5 61l12 42l14 -1l-38 -172h-446z"/>
<glyph glyph-name="oe" horiz-adv-x="791" unicode="œ" d="M245 1q65 0 109.5 60.5t44.5 147.5q0 120 -55 175q-41 43 -101 43q-67 0 -112 -59t-45 -147q0 -120 61 -181q39 -39 98 -39zM466 298l235 2q1 55 -25 90.5t-74 35.5q-43 0 -82 -36t-54 -92zM244 -13q-92 0 -155 64t-63 161t63.5 163.5t155.5 66.5q62 0 111.5 -31.5 t74.5 -86.5q26 55 73 86.5t107 31.5q69 0 110 -39.5t41 -94.5q0 -12 -3 -26l-297 2q-4 -30 -4 -55q0 -87 45.5 -144t114.5 -57q87 0 142 82l11 -7q-64 -115 -175 -115q-55 0 -99.5 30.5t-68.5 83.5q-27 -53 -75.5 -84t-108.5 -31z"/>
<glyph glyph-name="Scaron" horiz-adv-x="474" unicode="Š" d="M241 673l-123 186h10l117 -127h2l116 127h10l-123 -186h-9zM229 -14q-97 0 -175 30l-17 147h15l22 -70q48 -91 159 -91q73 0 117.5 40t44.5 103q0 60 -39.5 96.5t-127.5 65.5q-76 26 -119 63t-43 101q0 74 52 121.5t134 47.5q63 0 109 -21l47 12l11 -156h-15l-54 120 q-43 29 -102 29q-63 0 -100.5 -35t-37.5 -87q0 -54 37 -83t117 -58q41 -14 68.5 -28t55 -35t41.5 -51.5t14 -70.5q0 -81 -61.5 -135.5t-152.5 -54.5z"/>
<glyph glyph-name="scaron" horiz-adv-x="354" unicode="š" d="M170 488l-123 186h10l117 -127h2l116 127h10l-123 -186h-9zM163 -13q-69 0 -122 22l-11 114h14l20 -59q39 -63 105 -63q48 0 78 26t30 67q0 42 -29 65.5t-88 41.5q-118 36 -118 120q0 51 40 86.5t98 35.5q43 0 86 -18l32 9l7 -112h-15l-38 82q-36 24 -75 24 q-42 0 -66.5 -22t-24.5 -58q0 -38 25.5 -57.5t80.5 -38.5q32 -11 48.5 -18.5t39.5 -22.5t33 -37.5t10 -53.5q0 -56 -44.5 -94.5t-115.5 -38.5z"/>
<glyph glyph-name="Ydieresis" horiz-adv-x="596" unicode="Ÿ" d="M229 681q-19 0 -29.5 12.5t-10.5 27.5q0 16 10.5 30t29.5 14t30.5 -14t11.5 -30q0 -15 -11.5 -27.5t-30.5 -12.5zM388 681q-19 0 -30.5 12.5t-11.5 27.5q0 16 11.5 30t30.5 14t29.5 -14t10.5 -30q0 -15 -10.5 -27.5t-29.5 -12.5zM168 0l3 14l61 5q35 3 35 12v246 l-164 277q-17 30 -29 41.5t-37 12.5l-38 3l-3 14h237l-3 -14l-47 -2q-29 -1 -29 -14q0 -9 12 -30l151 -262h3l123 220q23 44 23 60q0 22 -49 26l-41 2l-3 14h219l-3 -14l-32 -2q-35 -2 -49 -14t-45 -71l-135 -238v-257q0 -8 43 -11l53 -4l3 -14h-259z"/>
<glyph glyph-name="circumflex" horiz-adv-x="379" unicode="ˆ" d="M62 488l123 186h9l123 -186h-10l-116 126h-2l-117 -126h-10z"/>
<glyph glyph-name="tilde" horiz-adv-x="379" unicode="˜" d="M259 504q-25 0 -78.5 31t-70.5 31q-20 0 -31.5 -11.5t-17.5 -43.5h-11q12 94 72 94q25 0 78.5 -31t70.5 -31q38 0 48 55h10q-12 -94 -70 -94z"/>
<glyph glyph-name="thinspace" horiz-adv-x="60" unicode=" "/>
<glyph glyph-name="endash" horiz-adv-x="439" unicode="–" d="M10 225l3 26h415l-1 -26h-417z"/>
<glyph glyph-name="emdash" horiz-adv-x="907" unicode="—" d="M10 225l3 26h883l-1 -26h-885z"/>
<glyph glyph-name="quoteleft" horiz-adv-x="171" unicode="‘" d="M96 430q-30 0 -49.5 20t-19.5 54q0 42 34 83t79 65l6 -7q-1 -1 -14 -11.5t-16 -13t-13.5 -12.5t-13.5 -16t-9 -16.5t-8 -21t-2 -22.5q0 -26 16 -39.5t38 -13.5q5 0 15 2q3 -4 3 -12q0 -15 -13 -27t-33 -12z"/>
<glyph glyph-name="quotesinglbase" horiz-adv-x="169" unicode="‚" d="M30 -120l-7 8l12 10l14 10.5t12 10.5t12.5 13t9.5 13.5t9 16.5t4.5 17t2.5 20q0 26 -16 40t-38 14q-4 0 -14 -2q-2 3 -2 11q0 15 12.5 28t32.5 13q30 0 49 -21t19 -56q0 -42 -33.5 -81.5t-78.5 -64.5z"/>
<glyph glyph-name="quotedblleft" horiz-adv-x="322" unicode="“" d="M96 430q-30 0 -49.5 20t-19.5 54q0 42 34 83t79 65l6 -7q-1 -1 -14 -11.5t-16 -13t-13.5 -12.5t-13.5 -16t-9 -16.5t-8 -21t-2 -22.5q0 -26 16 -39.5t38 -13.5q5 0 15 2q3 -4 3 -12q0 -15 -13 -27t-33 -12zM247 430q-29 0 -48.5 20t-19.5 54q0 42 34 83t78 65l7 -7 q-1 -1 -14 -11.5t-16 -13t-13.5 -12.5t-13.5 -16t-9 -16.5t-8 -21t-2 -22.5q0 -26 15.5 -39.5t37.5 -13.5q5 0 15 2q3 -6 3 -12q0 -15 -12.5 -27t-33.5 -12z"/>
<glyph glyph-name="quotedblright" horiz-adv-x="321" unicode="”" d="M30 423l-7 8l12 9q12 10 14 11.5t12 10.5t12.5 13t9.5 13.5t9 16.5t4.5 17t2.5 20q0 26 -16 40t-38 14q-4 0 -14 -2q-2 3 -2 11q0 15 12.5 28t32.5 13q30 0 49 -21t19 -56q0 -42 -33.5 -81.5t-78.5 -64.5zM181 423l-6 8q2 2 14 11t15.5 12.5t13.5 12.5t13.5 15.5 t9.5 16.5t8 20.5t2 22.5q0 26 -16 40t-38 14q-4 0 -14 -2q-2 3 -2 11q0 15 12 28t32 13q30 0 49 -21t19 -56q0 -42 -33.5 -82t-78.5 -64z"/>
<glyph glyph-name="dagger" horiz-adv-x="444" unicode="†" d="M213 -156v565h-195l-2 17h197v199h18v-199h198l-2 -17h-196v-565h-18z"/>
<glyph glyph-name="daggerdbl" horiz-adv-x="444" unicode="‡" d="M213 -156v187h-197l2 18h195v370h-195l-2 18h197v188h18v-188h198l-2 -18h-196v-370h196l2 -18h-198v-187h-18z"/>
<glyph glyph-name="ellipsis" horiz-adv-x="546" unicode="…" d="M92 -13q-21 0 -34.5 13.5t-13.5 32.5q0 18 13.5 31.5t34.5 13.5q20 0 32.5 -13.5t12.5 -31.5q0 -19 -12.5 -32.5t-32.5 -13.5zM274 -13q-21 0 -34.5 13.5t-13.5 32.5q0 18 14 31.5t34 13.5t33 -13.5t13 -31.5q0 -19 -13 -32.5t-33 -13.5zM455 -13q-20 0 -33 13.5 t-13 32.5q0 18 13 31.5t33 13.5t33 -13.5t13 -31.5q0 -19 -13 -32.5t-33 -13.5z"/>
<glyph glyph-name="perthousand" horiz-adv-x="910" unicode="‰" d="M446 1q53 0 85 34.5t32 85.5t-32.5 86.5t-84.5 35.5t-84 -35.5t-32 -86.5q0 -52 31.5 -86t84.5 -34zM762 1q52 0 84 34.5t32 85.5q0 50 -32 86t-84 36t-84 -35.5t-32 -86.5q0 -52 31.5 -86t84.5 -34zM147 383q53 0 85 34.5t32 85.5t-32 86.5t-85 35.5q-52 0 -84 -35.5 t-32 -86.5t32 -85.5t84 -34.5zM446 -17q-62 0 -99 40t-37 98q0 59 37 99.5t99 40.5t99.5 -41t37.5 -99t-37.5 -98t-99.5 -40zM762 -17q-62 0 -99.5 40t-37.5 98t37.5 99t99.5 41t99.5 -41t37.5 -99t-37.5 -98t-99.5 -40zM58 -14l454 654h22l-454 -654h-22zM147 365 q-61 0 -98.5 40t-37.5 98t37.5 99t98.5 41q62 0 100 -41t38 -99t-38 -98t-100 -40z"/>
<glyph glyph-name="guilsinglleft" horiz-adv-x="243" unicode="‹" d="M214 48l-195 167v14l194 166l5 -8l-137 -165l137 -166z"/>
<glyph glyph-name="guilsinglright" horiz-adv-x="243" unicode="›" d="M28 48l-5 8l137 166l-136 165l5 8l193 -166v-14z"/>
<glyph glyph-name="fraction" horiz-adv-x="496" unicode="⁄" d="M-5 -14l482 654h24l-482 -654h-24z"/>
<glyph glyph-name="Euro" horiz-adv-x="473" unicode="€" d="M289 -14q-84 0 -144 63.5t-78 169.5h-64l3 17h58q-3 28 -3 59q0 30 3 54h-61l3 18h61q18 118 84.5 192.5t160.5 74.5q61 0 101.5 -26t40.5 -63q0 -16 -11.5 -28t-26.5 -12q-19 0 -29 12t-10 29q0 22 15 35q-25 39 -83 39q-71 0 -123 -72t-64 -181h206l3 -18h-212v-7 q0 -4 -0.5 -14t-0.5 -14q0 -43 7 -78h203l3 -17h-203q18 -90 66 -143t114 -53q96 0 145 95l10 -7q-65 -125 -174 -125z"/>
<glyph glyph-name="trademark" horiz-adv-x="550" unicode="™" d="M74 403l1 11l28 2q9 2 9 4v195h-13q-29 -1 -40.5 -8t-18.5 -23l-6 -23h-9l8 64h191l3 -65h-8l-5 24q-6 17 -17.5 24t-40.5 7h-13v-196q0 -2 11 -3l25 -2l1 -11h-106zM249 403l2 11l21 1q9 0 11.5 2t2.5 10l6 178q-4 6 -13 8l-23 2l-1 10h74l61 -175h3l65 175h75l-2 -10 l-26 -2q-7 -1 -7 -5l5 -189q0 -2 11 -3l22 -2l1 -11h-100v11l26 2q8 1 8 4l-4 187h-3l-77 -200h-11l-70 196q-3 1 -3 2l-5 -179q0 -7 3.5 -9t13.5 -2l21 -1l1 -11h-88z"/>
<glyph glyph-name="minus" d="M410 225h-372l3 22h366z" unicode="−"/>
<glyph glyph-name="approxequal" d="M411 367h22q-17 -94 -106 -94q-33 0 -104 33.5t-102 33.5q-34 0 -54.5 -15t-29.5 -57h-22q17 94 106 94q33 0 104 -33.5t102 -33.5q36 0 55.5 15t28.5 57zM411 203h22q-17 -94 -106 -94q-33 0 -104 33.5t-102 33.5q-34 0 -54.5 -15t-29.5 -57h-22q17 94 106 94 q33 0 104 -33.5t102 -33.5q36 0 55.5 15t28.5 57z" unicode="≈"/>
<glyph glyph-name="notequal" d="M29 311l-3 22h215l43 150h23l-43 -150h158l-3 -22h-161l-43 -151h204l3 -22h-213l-45 -160h-23l45 160h-160l3 22h163l43 151h-206z" unicode="≠"/>
<glyph glyph-name="lessequal" horiz-adv-x="438" unicode="≤" d="M409 87l-396 173v14l396 173l8 -20l-366 -157v-4l366 -159zM418 27h-405l3 22h399z"/>
<glyph glyph-name="greaterequal" horiz-adv-x="438" unicode="≥" d="M425 260l-396 -173l-8 20l366 159v4l-366 157l8 20l396 -173v-14zM425 27h-405l3 22h399z"/>
</font>
</defs>
</svg>
