<?xml version="1.0" encoding="UTF-8" standalone="no"?>
<!DOCTYPE svg  PUBLIC '-//W3C//DTD SVG 1.1//EN'  'http://www.w3.org/Graphics/SVG/1.1/DTD/svg11.dtd'>
<svg xmlns="http://www.w3.org/2000/svg">
<defs>
<font id="FreightDispProMedium-Italic" horiz-adv-x="448">
<font-face slope="-12" underline-position="-146" font-weight="500" descent="-200" panose-1="2 0 6 3 8 0 0 9 0 4" units-per-em="1000" unicode-range="U+0020-2265" bbox="-170 -264 1035 851" x-height="444" underline-thickness="20" font-family="FreightDispProMedium" ascent="800" font-style="italic" cap-height="625"/>
<missing-glyph horiz-adv-x="1000"/>
<glyph glyph-name=".notdef" horiz-adv-x="1000"/>
<glyph glyph-name=".null" horiz-adv-x="0"/>
<glyph glyph-name="nonmarkingreturn" horiz-adv-x="333"/>
<glyph glyph-name="space" horiz-adv-x="180" unicode=" "/>
<glyph glyph-name="exclam" horiz-adv-x="260" unicode="!" d="M100 -14q-26 0 -43.5 17.5t-17.5 41.5q0 23 17.5 40t42.5 17t42 -17t17 -40q0 -24 -16.5 -41.5t-41.5 -17.5zM129 189q0 -3 -5 -3q-7 0 -6 4l32 406q2 13 5 21.5t13 15t27 6.5h10h3q46 -3 46 -33q0 -6 -4 -20z"/>
<glyph glyph-name="quotedbl" horiz-adv-x="334" unicode='&quot;' d="M39 403l141 243h2l61 -27l-185 -216h-19zM202 403l141 243h1l61 -27l-184 -216h-19z"/>
<glyph glyph-name="numbersign" horiz-adv-x="516" unicode="#" d="M163 206h165l56 211h-165zM88 -5l51 194h-136v17h141l55 211h-136v17h141l52 198h20l-53 -198h165l53 198h19l-52 -198h135v-17h-140l-55 -211h135v-17h-140l-51 -194h-19l51 194h-165l-52 -194h-19z"/>
<glyph glyph-name="dollar" horiz-adv-x="499" unicode="$" d="M356 603q-33 15 -70 15q-49 0 -84.5 -30.5t-35.5 -78.5q0 -71 98 -128zM134 19q32 -12 69 -12q63 0 104 40.5t42 99.5q0 73 -106 135zM105 -3q-65 13 -110 38l23 155h16l18 -82q19 -54 65 -81l110 264h-1q-70 39 -106.5 80t-36.5 98q0 67 57.5 118t143.5 51q46 0 83 -9 l45 110h20q-47 -114 -47 -115q14 -4 54 -17l42 10l-31 -169l-15 1l-31 124q-11 10 -32 22l-23 -56l-46 -112l-23 -56l6 -3q74 -41 112.5 -84t38.5 -101q0 -78 -66 -137t-168 -59q-43 0 -80 6l-65 -158h-20z"/>
<glyph glyph-name="percent" horiz-adv-x="608" unicode="%" d="M443 4q52 0 85 35.5t33 87.5q0 49 -31.5 82t-80.5 33q-52 0 -85 -36.5t-33 -87.5q0 -50 31 -82t81 -32zM200 384q52 0 85 35t33 86q0 50 -31 83.5t-81 33.5q-52 0 -85 -36.5t-33 -87.5q0 -50 31 -82t81 -32zM441 -16q-59 0 -96 37.5t-37 94.5q0 61 40 103.5t102 42.5 q59 0 96.5 -38.5t37.5 -95.5q0 -60 -40 -102t-103 -42zM11 -14l598 654h26l-597 -654h-27zM199 364q-59 0 -96.5 38t-37.5 95q0 60 40 102.5t102 42.5q60 0 97.5 -38.5t37.5 -95.5q0 -60 -40 -102t-103 -42z"/>
<glyph glyph-name="ampersand" horiz-adv-x="720" unicode="&amp;" d="M264 437q10 -33 34.5 -55t53.5 -22q8 0 14.5 6t6.5 14q0 23 -28.5 40t-68.5 17h-12zM619 373q40 -14 62.5 -49t22.5 -83q0 -104 -105.5 -179.5t-253.5 -75.5q-140 0 -232 69.5t-92 175.5q0 69 44 125t115 81q-6 19 -6 40q0 64 48 113t113 49h3q52 0 87.5 -43t35.5 -103 q0 -8 -2 -24l-16 3v9q0 43 -24.5 74t-66.5 31q-39 0 -66 -33.5t-27 -82.5q0 -12 1 -17h16q53 0 87 -23.5t34 -58.5q0 -24 -20 -39.5t-53 -15.5q-44 0 -82.5 29.5t-55.5 74.5q-87 -37 -87 -135q0 -112 86.5 -172.5t246.5 -60.5q113 0 184 53.5t71 136.5q0 46 -29.5 81.5 t-67.5 35.5q-39 0 -76.5 -28.5t-37.5 -57.5q0 -24 21.5 -38.5t56.5 -16.5q-17 6 -17 29q0 16 10.5 28.5t29.5 12.5q18 0 30 -11.5t12 -28.5q0 -21 -15 -36t-40 -15q-49 0 -82.5 33t-33.5 86q0 39 28.5 66t69.5 41.5t82 28t69.5 36.5t28.5 56q0 31 -21 48.5t-58 19.5 q15 -8 15 -34q0 -18 -10 -30t-30 -12t-32 12.5t-12 32.5q0 21 19 37t42 16q50 0 84 -39t34 -97q0 -45 -29.5 -72t-108.5 -53z"/>
<glyph glyph-name="quotesingle" horiz-adv-x="173" unicode="&apos;" d="M39 403l141 243h2l61 -27l-185 -216h-19z"/>
<glyph glyph-name="parenleft" horiz-adv-x="340" unicode="(" d="M252 -264q-76 50 -136.5 155.5t-60.5 240.5q0 40 6 83q13 85 50 160.5t85.5 128.5t97.5 89t95 55l12 -18q-45 -19 -92.5 -54.5t-94 -87t-81.5 -123.5t-47 -152q-6 -42 -6 -80q0 -129 57 -231t129 -149z"/>
<glyph glyph-name="parenright" horiz-adv-x="340" unicode=")" d="M-58 -264l-11 18q45 19 92 54.5t93.5 86.5t81.5 123.5t47 152.5q6 42 6 80q0 128 -56.5 230t-128.5 150l13 17q77 -50 137.5 -156t60.5 -241q0 -39 -6 -81q-13 -85 -50 -161t-86 -129t-98 -89t-95 -55z"/>
<glyph glyph-name="asterisk" horiz-adv-x="317" unicode="*" d="M241 310l-48 45l11 108q0 1 -4 3t-5 1l-65 -84h-66l-3 8l28 60l103 21q2 0 2 4t-2 6l-98 39l-21 62l5 8l67 -10l51 -95q0 -1 2 -1t4.5 1t2.5 2l9 110l51 35h1l7 -2l13 -63l-76 -82q-1 -2 1.5 -5.5t4.5 -3.5l106 30l50 -41q1 -7 0 -8l-56 -32l-100 46q-2 1 -5 -2t-2 -5 l61 -93l-22 -60q0 -2 -6 -2h-1z"/>
<glyph glyph-name="plus" d="M217 27v198h-198l3 22h195v198h22v-198h195l3 -22h-198v-198h-22z" unicode="+"/>
<glyph glyph-name="comma" horiz-adv-x="194" unicode="," d="M-32 -125l-8 8q44 17 77 49.5t33 67.5q0 25 -16 39.5t-36 14.5q-9 0 -19 -5q-1 4 -1 11q0 22 16.5 39.5t44.5 17.5q32 0 54 -23t22 -57q0 -52 -51 -97t-116 -65z"/>
<glyph glyph-name="hyphen" horiz-adv-x="294" unicode="-" d="M23 212l10 44h244l-7 -44h-247z"/>
<glyph glyph-name="period" horiz-adv-x="209" unicode="." d="M74 -13q-26 0 -44 18.5t-18 43.5q0 24 17.5 42t43.5 18q27 0 44.5 -17.5t17.5 -42.5t-17.5 -43.5t-43.5 -18.5z"/>
<glyph glyph-name="slash" horiz-adv-x="258" unicode="/" d="M13 -236l212 877h21l-211 -877h-22z"/>
<glyph glyph-name="zero" horiz-adv-x="518" unicode="0" d="M229 3q71 0 121 93.5t50 221.5q0 69 -29.5 108.5t-78.5 39.5q-72 0 -120.5 -94t-48.5 -228q0 -69 27.5 -105t78.5 -36zM237 -13q-90 0 -145 60.5t-55 157.5q0 115 73.5 196.5t175.5 81.5q90 0 145 -60.5t55 -157.5q0 -116 -73.5 -197t-175.5 -81z"/>
<glyph glyph-name="one" horiz-adv-x="350" unicode="1" d="M16 0l3 15l47 4q38 1 41 18l73 390l-102 16l4 13l189 22l-84 -443q-1 -4 1.5 -7t12.5 -5.5t29 -3.5l42 -4l2 -15h-258z"/>
<glyph glyph-name="two" horiz-adv-x="446" unicode="2" d="M-14 0v24q191 135 251 191t60 110q0 49 -28.5 75.5t-74.5 26.5q-67 0 -124 -68l-6 11q79 112 188 112q56 0 94.5 -33.5t38.5 -83.5q0 -19 -6 -37.5t-13.5 -33.5t-26.5 -34t-33 -31.5t-45 -34.5t-50 -35t-62 -41t-67 -45v-3h174q48 0 78 22t64 78l11 18h16l-76 -188h-363z "/>
<glyph glyph-name="three" horiz-adv-x="405" unicode="3" d="M93 -200q-62 0 -105 18t-43 57q0 20 14.5 34.5t36.5 14.5q21 0 39 -17.5t18 -41.5q0 -14 -7 -28q30 -17 62 -17q62 0 106 51t44 120q0 62 -38.5 100t-106.5 38q-31 0 -60 -8l-5 12q120 53 173 93.5t53 102.5q0 42 -27 70.5t-72 28.5q-36 0 -71.5 -21.5t-60.5 -55.5l-7 11 q33 52 84.5 86t110.5 34q56 0 95 -35t39 -86q0 -114 -187 -182v-2q3 1 11 1q70 -5 111.5 -50.5t41.5 -107.5q0 -85 -76.5 -152.5t-172.5 -67.5z"/>
<glyph glyph-name="four" horiz-adv-x="476" unicode="4" d="M41 78h207l55 286h-3zM199 -184l37 203h-264v14l403 445h26l-75 -400h111l-17 -59h-106l-38 -203h-77z"/>
<glyph glyph-name="five" horiz-adv-x="402" unicode="5" d="M60 -200q-55 6 -85 26.5t-29 53.5q2 19 16 31t33 12h6q28 -2 42 -29.5t16 -63.5q16 -7 38 -10h10q52 0 93 41.5t47 107.5v13q0 72 -58 125t-152 77l103 284h257l-26 -84h-239l-46 -129q113 -28 176 -88.5t63 -141.5v-14q-7 -87 -77.5 -149.5t-165.5 -62.5q-15 0 -22 1z "/>
<glyph glyph-name="six" horiz-adv-x="493" unicode="6" d="M228 5q58 0 100.5 60.5t42.5 147.5q0 65 -30 106t-84 41q-56 0 -112 -54q-26 -67 -26 -132q0 -169 109 -169zM229 -12q-89 0 -140.5 64t-51.5 156q0 76 36.5 150.5t101.5 135t164 99t215 41.5l1 -14q-145 -17 -250.5 -95.5t-157.5 -194.5l5 -1q73 65 155 65 q70 0 111 -43.5t41 -120.5q0 -101 -70 -171.5t-160 -70.5z"/>
<glyph glyph-name="seven" horiz-adv-x="430" unicode="7" d="M38 -184l360 569l-1 4h-136q-103 0 -135.5 -10t-52.5 -53l-14 -25h-16l52 167h363v-17l-359 -635h-61z"/>
<glyph glyph-name="eight" horiz-adv-x="481" unicode="8" d="M233 1q56 0 90 36t35 88q0 34 -22 68.5t-42 51.5t-63 50q-9 8 -14 11q-115 -50 -115 -168q0 -59 34 -98t97 -39zM306 345q93 47 93 153q0 52 -26 89.5t-77 37.5q-50 0 -80 -35.5t-30 -85.5q0 -31 19.5 -62t41.5 -50.5t59 -46.5zM227 -16q-84 0 -144.5 47t-60.5 118 q0 66 51 110t131 56v2q-97 73 -98 151q0 69 55 121t137 52q75 0 127.5 -44t52.5 -111q0 -60 -43.5 -97.5t-115.5 -51.5v-2q56 -42 87 -81t31 -93q0 -76 -61 -126.5t-149 -50.5z"/>
<glyph glyph-name="nine" horiz-adv-x="493" unicode="9" d="M244 113q53 0 112 55q26 69 26 132q0 168 -109 168q-58 0 -100.5 -60t-42.5 -147q0 -65 30 -106.5t84 -41.5zM-53 -160l-1 14q145 17 250.5 95.5t157.5 194.5h-5q-75 -65 -155 -65q-70 0 -111 44t-41 121q0 101 70 171.5t160 70.5q89 0 140.5 -64t51.5 -156 q0 -76 -36.5 -150.5t-101.5 -135t-164 -99t-215 -41.5z"/>
<glyph glyph-name="colon" horiz-adv-x="208" unicode=":" d="M74 -13q-26 0 -44 18.5t-18 43.5q0 24 17.5 41.5t43.5 17.5t44 -17.5t18 -41.5q0 -25 -17.5 -43.5t-43.5 -18.5zM132 292q-26 0 -44.5 18.5t-18.5 43.5q0 24 18 41.5t44 17.5t43.5 -17.5t17.5 -41.5q0 -25 -17 -43.5t-43 -18.5z"/>
<glyph glyph-name="semicolon" horiz-adv-x="194" unicode=";" d="M-32 -125l-8 9q45 17 77.5 49t32.5 67q0 25 -16 39.5t-36 14.5q-11 0 -19 -5q-1 3 -1 11q0 21 16.5 38.5t44.5 17.5q32 0 54 -22.5t22 -56.5q0 -51 -50.5 -96t-116.5 -66zM127 292q-27 0 -45.5 18.5t-18.5 42.5t18 42t45 18q26 0 43.5 -18t17.5 -42q0 -25 -17 -43 t-43 -18z"/>
<glyph glyph-name="less" horiz-adv-x="438" unicode="&lt;" d="M414 35l-397 193v14l397 193l8 -20l-368 -177v-4l368 -179z"/>
<glyph glyph-name="equal" d="M30 138l3 22h390l3 -22h-396zM33 311l-3 22h396l-3 -22h-390z" unicode="="/>
<glyph glyph-name="greater" horiz-adv-x="438" unicode="&gt;" d="M429 228l-397 -193l-8 20l368 179v4l-368 177l8 20l397 -193v-14z"/>
<glyph glyph-name="question" horiz-adv-x="321" unicode="?" d="M112 -14q-25 0 -42.5 17.5t-17.5 41.5q0 23 17 40t42 17q26 0 42.5 -17t16.5 -40q0 -24 -16.5 -41.5t-41.5 -17.5zM142 183q-63 59 -63 109q0 41 30 64t95 43q66 19 89 32.5t23 41.5q0 35 -42.5 62t-119.5 27q-21 0 -47 -4q-4 8 -4 23q0 26 13 42t51 16q77 0 123.5 -49 t46.5 -115q0 -61 -28.5 -94.5t-92.5 -54.5q-39 -13 -54.5 -19t-29.5 -19.5t-14 -33.5q0 -31 38 -69z"/>
<glyph glyph-name="at" horiz-adv-x="786" unicode="@" d="M320 107q22 0 64.5 52t81.5 126q25 46 25 63q-3 23 -28.5 45t-56.5 22q-22 0 -41 -17q-32 -29 -60.5 -102t-28.5 -125q0 -30 13 -47t31 -17zM402 -110q-157 0 -259.5 98t-102.5 253v8q3 162 117 277t272 115h4q145 -2 240 -90.5t95 -223.5v-9q-2 -111 -72 -188.5 t-155 -77.5q-55 0 -79.5 22t-24.5 53v7q0 12 7 44.5t14 48.5h-5q-57 -87 -95.5 -129t-74.5 -42t-62.5 26t-26.5 63q0 58 43 134t96 124q65 60 116 60q24 0 39.5 -25.5t18.5 -61.5h4l34 101l69 -3l-62 -159l-37 -133q-8 -23 -8 -44q0 -49 64 -49q68 0 121.5 66.5t55.5 163.5 v7q0 127 -90 211t-226 86h-3q-149 0 -257.5 -110.5t-110.5 -264.5v-10q0 -145 96.5 -237.5t244.5 -92.5q83 0 154.5 39.5t108.5 99.5l10 -14q-41 -63 -114 -103t-159 -40z"/>
<glyph glyph-name="A" horiz-adv-x="607" unicode="A" d="M200 279h159l-25 253h-4zM361 257h-172l-52 -100q-48 -88 -48 -108q0 -26 57 -30l34 -4l2 -15h-223l3 15l22 5q40 6 63 33t89 146l188 360l-4 36q20 5 45 18.5t33 25.5h13l61 -522q7 -58 18.5 -76t42.5 -21l36 -5l1 -15h-275l3 15l38 4q25 1 34 13t9 36q0 9 -2 33z"/>
<glyph glyph-name="B" horiz-adv-x="580" unicode="B" d="M300 348q76 0 116.5 42.5t40.5 100.5q0 54 -36 84.5t-103 30.5h-37l-48 -254q19 -4 67 -4zM230 19h44q73 1 115 50t42 116q0 68 -46 106.5t-124 38.5h-32l-57 -294zM-11 0l3 15l43 6q42 6 44 18l105 549q1 6 -7 9.5t-38 7.5l-33 5l-1 15h242q112 0 161.5 -40.5 t49.5 -98.5q0 -64 -53.5 -102.5t-148.5 -46.5l2 -3q84 -13 130 -56t46 -100q0 -86 -77 -132t-218 -46h-250z"/>
<glyph glyph-name="C" horiz-adv-x="663" unicode="C" d="M364 -15q-143 0 -228 79t-85 205q0 150 107 260.5t266 110.5q100 0 168 -37l70 16l-33 -187l-16 1l-31 139q-56 48 -150 48q-125 0 -202 -109t-77 -259q0 -113 57 -180t158 -67q105 0 188 97l38 68l18 -1l-52 -162l-39 1q-69 -23 -157 -23z"/>
<glyph glyph-name="D" horiz-adv-x="664" unicode="D" d="M239 17q146 1 229 101t83 254q0 104 -54 169.5t-163 65.5h-53l-108 -568zM-11 0l3 15l43 6q42 6 44 18l105 549q1 6 -7 9.5t-38 7.5l-33 5l-1 15l239 1h5q148 0 226.5 -72.5t78.5 -187.5q0 -153 -109.5 -259.5t-295.5 -106.5h-260z"/>
<glyph glyph-name="E" horiz-adv-x="588" unicode="E" d="M-11 0l3 15l40 6q46 6 47 18l105 549q1 6 -7 9.5t-38 7.5l-32 5l-2 15h454l1 -192h-19l-6 38q-9 28 -13.5 41t-15 32.5t-22.5 28t-32 18t-48 13t-66 3.5h-57l-53 -277l39 1q74 2 102 14.5t47 51.5l15 30l17 -1l-47 -213l-17 1l3 29q1 6 1 16q0 31 -25.5 40t-103.5 12 l-34 1l-55 -290l93 -4q57 0 98.5 10.5t69.5 33t44 42.5t37 56l19 37l19 -1l-64 -196h-497z"/>
<glyph glyph-name="F" horiz-adv-x="562" unicode="F" d="M-11 0l3 15l46 6q39 4 41 18l105 549q1 5 -1 7t-11.5 5t-29.5 5l-35 5l-2 15h463l-4 -192h-19l-7 38q-10 33 -16 48.5t-20.5 36t-33 29.5t-50.5 15.5t-78 6.5h-59l-54 -283l42 1q74 2 102.5 14t46.5 51l15 30l16 -1l-46 -212l-16 1l2 29v10q0 36 -24.5 45.5t-103.5 12.5 l-37 1l-52 -269q-1 -5 2 -8t13 -5.5t30 -3.5l49 -5l2 -15h-279z"/>
<glyph glyph-name="G" horiz-adv-x="690" unicode="G" d="M349 -15q-139 0 -218.5 78.5t-79.5 203.5q0 150 105 261.5t268 111.5q98 0 168 -38l70 16l-33 -189h-15l-32 142q-54 48 -149 48q-82 0 -147.5 -53t-99 -136t-33.5 -178q0 -112 56 -180t154 -68q58 0 100 22l42 209q1 7 -8.5 11t-40.5 7l-42 5l-2 15h271l-4 -15l-39 -6 q-43 -6 -45 -18l-37 -189l54 2v-11q-142 -51 -263 -51z"/>
<glyph glyph-name="H" horiz-adv-x="723" unicode="H" d="M-10 0l3 15l42 6q42 5 45 18l104 549q1 3 0 5t-6 4t-14 4t-25 4l-32 5l-1 15h264l-4 -15l-44 -6q-42 -5 -44 -18l-49 -258h305l50 260q2 7 -6.5 10t-38.5 7l-35 5l-1 15h264l-4 -15l-41 -6q-42 -5 -44 -18l-105 -549q-1 -7 6.5 -9.5t38.5 -7.5l32 -5l1 -15h-264l3 15 l45 6q42 4 44 18l51 270h-306l-51 -272q-2 -7 6 -10t39 -7l35 -5l1 -15h-264z"/>
<glyph glyph-name="I" horiz-adv-x="344" unicode="I" d="M-6 0l3 15l49 6q42 4 44 18l105 549q1 4 -2 7t-13 5.5t-30 4.5l-38 5l-2 15h273l-3 -15l-48 -6q-42 -6 -44 -18l-105 -549q-1 -7 7 -10t38 -7l38 -5l2 -15h-274z"/>
<glyph glyph-name="J" horiz-adv-x="344" unicode="J" d="M-12 -121q-41 0 -65 17t-24 45q0 24 16.5 40t41.5 16q26 0 40.5 -15.5t14.5 -37.5q0 -25 -18 -46h7q75 0 107 179l101 511q1 4 -2 7t-13 5.5t-30 4.5l-41 5l-2 15h276l-4 -15l-47 -6q-42 -5 -44 -18l-104 -525q-11 -67 -76.5 -124.5t-133.5 -57.5z"/>
<glyph glyph-name="K" horiz-adv-x="662" unicode="K" d="M-11 0l3 15l46 6q39 4 41 18l105 549q1 5 -1 7t-11.5 5t-29.5 5l-35 5l-2 15h272l-4 -15l-52 -6q-41 -4 -44 -18l-58 -307l186 158q78 68 110 100.5t32 47.5q0 14 -45 21l-37 4v15h248l-3 -14l-17 -2q-43 -4 -83.5 -31.5t-161.5 -130.5l-64 -56l133 -301q20 -46 31 -57 t39 -15l29 -3l2 -15h-259l3 15l30 4q32 3 32 29q0 20 -15 60l-97 224l-99 -83l-41 -212q-1 -7 7.5 -10.5t37.5 -6.5l42 -5l2 -15h-272z"/>
<glyph glyph-name="L" horiz-adv-x="557" unicode="L" d="M-11 0l3 15l46 6q39 4 41 18l104 549q1 4 -1 6.5t-11.5 5.5t-29.5 5l-35 5l-2 15h281l-3 -15l-61 -6q-42 -4 -44 -18l-107 -564l77 -4q55 0 92 8.5t64 30t43.5 44.5t39.5 66l19 42h20l-64 -209h-472z"/>
<glyph glyph-name="M" horiz-adv-x="812" unicode="M" d="M-19 0l3 15l30 4q42 3 55.5 18.5t23.5 67.5l108 484q-11 14 -44 17l-36 4l-2 15h193l75 -495l3 -1l283 496h187l-4 -15l-44 -6q-42 -5 -44 -18l-95 -498q-2 -22 -2 -28q0 -21 9 -28.5t35 -11.5l33 -5l1 -15h-268l3 15l46 6q24 2 35 16.5t15 52.5l91 483h-3l-325 -567h-27 l-88 552q0 2 -8 21l-104 -475q-4 -21 -4 -39q0 -25 13.5 -34.5t48.5 -11.5l29 -4l2 -15h-224z"/>
<glyph glyph-name="N" horiz-adv-x="673" unicode="N" d="M500 -6l-298 550h-3l-87 -439q-3 -21 -3 -36q0 -26 12.5 -35.5t45.5 -14.5l27 -4l1 -15h-214l3 15l28 4q35 4 53 22t24 66l88 433q-5 26 -19 43t-46 22l-22 5l-2 15h180l256 -482h3l75 377q3 22 3 37q0 25 -12 35t-45 14l-27 4l-2 15h215l-3 -15l-28 -4q-35 -3 -53 -21 t-25 -67l-104 -524h-21z"/>
<glyph glyph-name="O" horiz-adv-x="719" unicode="O" d="M351 7q73 0 132.5 59t90 144.5t30.5 172.5q0 104 -53 170t-147 66q-75 0 -134.5 -60t-89 -145t-29.5 -172q0 -104 53.5 -169.5t146.5 -65.5zM357 -14q-135 0 -219 86.5t-84 213.5q0 141 97.5 247t248.5 106q134 0 217.5 -87t83.5 -214q0 -144 -98.5 -248t-245.5 -104z "/>
<glyph glyph-name="P" horiz-adv-x="556" unicode="P" d="M318 307q73 0 115 53.5t42 130.5q0 53 -30.5 84t-85.5 31h-78l-53 -282q49 -17 90 -17zM-20 0l3 15l52 6q42 4 44 18l105 549q1 5 -1.5 7.5t-13 5t-30.5 4.5l-42 5l-2 15h272q98 0 153 -42.5t55 -108.5q0 -82 -69.5 -134t-174.5 -52q-40 0 -108 14l-51 -265q-1 -5 2 -8 t13 -5.5t30 -3.5l56 -5l1 -15h-294z"/>
<glyph glyph-name="Q" horiz-adv-x="720" unicode="Q" d="M351 7q73 0 132.5 59t90 144.5t30.5 172.5q0 104 -53 170t-147 66q-75 0 -134.5 -60t-89 -145t-29.5 -172q0 -104 53.5 -169.5t146.5 -65.5zM563 -182q-117 0 -188.5 41t-97.5 137q-102 24 -162.5 104t-60.5 186q0 141 97.5 247t248.5 106q134 0 217.5 -87t83.5 -214 q0 -135 -87.5 -236t-222.5 -114q26 -84 84.5 -116.5t162.5 -32.5h12v-14q-27 -7 -87 -7z"/>
<glyph glyph-name="R" horiz-adv-x="621" unicode="R" d="M323 324q71 2 115 45.5t44 118.5q0 54 -35 86t-98 32h-68l-49 -261q44 -21 91 -21zM-20 0l3 15l52 6q42 4 44 18l104 549q1 4 -1.5 7t-13 5.5t-30.5 4.5l-42 5l-1 15h275q99 0 155.5 -41.5t56.5 -106.5q0 -71 -56.5 -117.5t-143.5 -55.5l100 -206q20 -45 39.5 -61 t51.5 -19l17 -3l2 -15h-171l-133 305q-4 2 -28.5 8.5t-31.5 10.5l-56 -287q-1 -6 13.5 -10.5t31.5 -6.5l45 -5l2 -15h-284z"/>
<glyph glyph-name="S" horiz-adv-x="496" unicode="S" d="M216 -13q-118 0 -207 48l23 156h16l18 -83q17 -50 56.5 -75.5t94.5 -25.5q63 0 105 40.5t42 99.5q0 44 -31.5 77.5t-92.5 66.5q-70 39 -105.5 80t-35.5 100q0 66 56.5 117t142.5 51q70 0 155 -31l42 10l-31 -170l-15 1l-31 125q-53 44 -118 44q-50 0 -86 -30.5t-36 -77.5 q0 -46 27 -76t95 -66q74 -41 111.5 -83.5t37.5 -103.5q0 -76 -65.5 -135t-167.5 -59z"/>
<glyph glyph-name="T" horiz-adv-x="646" unicode="T" d="M135 0l4 15l58 6q41 4 44 18l107 568h-38q-127 -5 -197 -126l-18 -41h-19l52 185h543l-23 -185h-17l-5 38q-9 67 -42 97t-107 32h-34l-109 -570q-1 -4 2 -7t13 -5.5t30 -4.5l47 -5l2 -15h-293z"/>
<glyph glyph-name="U" horiz-adv-x="687" unicode="U" d="M345 -15q-108 0 -175.5 42.5t-67.5 127.5q0 36 10 81l67 352q1 5 -1.5 7.5t-13 5t-30.5 4.5l-42 5l-2 15h282l-4 -15l-52 -6q-41 -4 -44 -18l-65 -340q-8 -42 -8 -74q0 -150 175 -150q75 0 121 46.5t65 147.5l61 304q4 30 4 37q0 25 -13 35t-45 14l-27 4l-2 15h215 l-4 -15l-27 -4q-35 -4 -52.5 -21.5t-25.5 -66.5l-62 -309q-21 -112 -78.5 -168t-158.5 -56z"/>
<glyph glyph-name="V" horiz-adv-x="617" unicode="V" d="M252 -11l-89 521q-11 66 -18 79t-40 17l-35 4l-2 15h273l-3 -15l-42 -3q-27 -2 -36.5 -8t-9.5 -24q0 -6 4 -36l69 -427h3l195 369q44 80 44 96q0 25 -57 29l-34 4l-2 15h224l-4 -15l-22 -5q-40 -6 -63 -33t-90 -146l-235 -437h-30z"/>
<glyph glyph-name="W" horiz-adv-x="952" unicode="W" d="M248 -11l-84 521q-10 62 -19 77t-42 19l-36 4l-1 15h273l-3 -15l-38 -3q-26 -2 -36 -9.5t-10 -27.5q0 -13 3 -31l65 -435h3l199 362l-8 44q-11 62 -20 77t-42 19l-35 4l-2 15h272l-4 -15l-38 -3q-27 -2 -37 -9t-10 -26q0 -5 4 -35l65 -432l3 -1l190 379q39 70 39 90 q0 26 -58 33l-27 4l-1 15h222l-4 -15l-22 -5q-36 -5 -60 -29.5t-69 -105.5l-249 -481h-33l-68 439h-3l-246 -439h-33z"/>
<glyph glyph-name="X" horiz-adv-x="643" unicode="X" d="M-43 0l3 15l26 3q42 5 69.5 25.5t92.5 93.5l150 170l-95 193q-23 48 -31 63t-21 27.5t-31 14.5l-31 5l-3 15h260l-4 -15l-31 -2q-36 -3 -36 -25q0 -21 25 -74l66 -143h2l111 129q59 67 59 85q0 19 -54 26l-24 4l-2 15h234l-4 -15l-24 -3q-43 -5 -70 -25.5t-93 -93.5 l-123 -141l126 -262q18 -38 30 -50t35 -15l30 -5l2 -15h-257l3 15l32 2q39 3 39 25q0 12 -11 34l-98 211h-3l-135 -157q-60 -68 -60 -85q0 -19 54 -26l25 -4l2 -15h-235z"/>
<glyph glyph-name="Y" horiz-adv-x="615" unicode="Y" d="M123 0l3 15l58 6q42 4 44 18l46 237l-101 257q-15 40 -29 54t-42 18l-32 5l-1 15h272l-4 -15l-28 -2q-46 -3 -46 -31q0 -15 13 -51l81 -218h3l127 179q57 80 57 95q0 10 -11 14.5t-39 8.5l-29 5l-2 15h220l-4 -15l-26 -4q-31 -5 -61 -30t-79 -92l-145 -201l-47 -246 q-1 -4 2 -7t13 -5.5t30 -4.5l48 -5l1 -15h-292z"/>
<glyph glyph-name="Z" horiz-adv-x="571" unicode="Z" d="M-10 0l3 14l500 590l-1 3h-110q-64 0 -109.5 -10t-73 -30.5t-42.5 -41t-29 -52.5l-13 -32h-16l33 184h477l-3 -15l-499 -588v-3h123q66 0 111 8.5t74 29.5t45.5 43.5t35.5 62.5l15 35h20l-51 -198h-490z"/>
<glyph glyph-name="bracketleft" horiz-adv-x="325" unicode="[" d="M-4 -239l130 872h247l-1 -20h-224l-127 -832h224l-2 -20h-247z"/>
<glyph glyph-name="backslash" horiz-adv-x="246" unicode="\" d="M210 -236l-212 877h22l211 -877h-21z"/>
<glyph glyph-name="bracketright" horiz-adv-x="325" unicode="]" d="M-57 -239l2 20h224l127 832h-224l1 20h247l-130 -872h-247z"/>
<glyph glyph-name="asciicircum" horiz-adv-x="379" unicode="^" d="M105 489l153 194h32l80 -194h-12l-93 116h-3l-147 -116h-10z"/>
<glyph glyph-name="underscore" horiz-adv-x="453" unicode="_" d="M-31 -36l3 37h424l3 -37h-430z"/>
<glyph glyph-name="grave" horiz-adv-x="379" unicode="`" d="M270 497l-139 187h90l61 -187h-12z"/>
<glyph glyph-name="a" horiz-adv-x="453" unicode="a" d="M140 47q43 0 145 195q7 13 15.5 40.5t8.5 37.5q-5 29 -30.5 51.5t-56.5 22.5q-24 0 -44 -20q-30 -31 -57 -111t-27 -140q0 -76 46 -76zM310 -13q-17 0 -49.5 13t-32.5 23q0 33 48 164h-4q-6 -10 -17 -28q-31 -51 -45.5 -74t-36 -50.5t-38 -37t-35.5 -9.5q-37 0 -62 28.5 t-25 75.5q0 75 40 151t95 132q65 67 127 67q24 0 34 -20t12 -71h4l34 95l75 -3l-72 -200l-57 -201l46 -7l70 91l9 -7q-30 -63 -63 -97.5t-57 -34.5z"/>
<glyph glyph-name="b" horiz-adv-x="424" unicode="b" d="M175 7q20 0 47 25q41 41 72 123t31 148q0 84 -50 84q-30 0 -65 -52t-85 -161q-10 -23 -18 -55.5t-8 -44.5q8 -29 29 -48t47 -19zM141 -16q-44 0 -80.5 21t-36.5 58q0 11 3 21l137 518q6 21 -5 23l-75 10l3 12l176 26l-31 -115q-76 -247 -105 -337q-2 -5 0 -6q2 -2 5 4 q56 121 100 173.5t85 52.5q38 0 63 -34t25 -88q0 -63 -31 -138.5t-91 -134.5q-29 -30 -68.5 -48t-73.5 -18z"/>
<glyph glyph-name="c" horiz-adv-x="354" unicode="c" d="M142 -13q-55 0 -91 42t-36 102q0 111 78 213t174 102q40 0 71 -22t31 -54q0 -23 -15.5 -39.5t-35.5 -16.5q-19 0 -33 11.5t-14 28.5q0 27 27 47q-26 23 -53 23q-24 0 -55 -31q-36 -36 -63.5 -109t-27.5 -138q0 -105 77 -105q33 0 59.5 19.5t66.5 70.5l9 -7 q-41 -64 -81 -100.5t-88 -36.5z"/>
<glyph glyph-name="d" horiz-adv-x="453" unicode="d" d="M140 47q44 0 145 195q7 13 15.5 40.5t8.5 37.5q-5 28 -30.5 50.5t-56.5 22.5q-24 0 -44 -20q-30 -30 -57 -110t-27 -140q0 -76 46 -76zM310 -13q-17 0 -49.5 13t-32.5 23q0 31 47 164h-4q-5 -9 -15 -25q-31 -52 -46 -75.5t-36 -51t-38 -37.5t-36 -10q-37 0 -62 28.5 t-25 75.5q0 75 40 151t95 131q69 71 125 71q17 0 27.5 -16.5t13.5 -31.5t7 -46h4l73 251q4 22 -6 23l-88 10l3 12l191 26l-123 -392l-70 -239l46 -7l70 90l9 -7q-30 -62 -63 -96.5t-57 -34.5z"/>
<glyph glyph-name="e" horiz-adv-x="362" unicode="e" d="M112 227q101 32 140 64t39 81q0 21 -15 35.5t-35 14.5q-24 0 -51 -25q-51 -51 -80 -169zM142 -13q-55 0 -91 42t-36 102q0 112 77.5 213.5t167.5 101.5q48 0 77 -22.5t29 -59.5q0 -47 -58.5 -79t-199.5 -72q-9 -38 -9 -67q0 -105 82 -105q32 0 60 20t67 70l9 -7 q-87 -137 -175 -137z"/>
<glyph glyph-name="f" horiz-adv-x="265" unicode="f" d="M-82 -200q-33 0 -55.5 16.5t-22.5 42.5q0 19 14 34.5t35 15.5t35.5 -16t14.5 -39q0 -15 -5 -25q27 2 36 2q23 6 42.5 64t49.5 204l56 294l-84 2l11 33l83 7q29 123 89 183q50 52 120 52q39 0 63 -18t24 -45q0 -21 -15.5 -36t-35.5 -15t-32.5 13.5t-12.5 32.5q0 20 11 36 q-35 3 -47 3q-54 -15 -89 -208h105l-9 -39h-104l-58 -266q-48 -222 -112 -287q-40 -41 -107 -41z"/>
<glyph glyph-name="g" horiz-adv-x="394" unicode="g" d="M150 -224q53 0 91 27.5t38 64.5q0 32 -33.5 54t-90.5 42q-71 25 -75 26q-40 -10 -66 -37t-26 -63q0 -48 45.5 -81t116.5 -33zM163 151q35 0 63 30q28 28 43.5 77.5t15.5 91.5q0 33 -16.5 53.5t-40.5 20.5q-23 0 -48 -23q-28 -29 -46 -78t-18 -88q0 -51 17 -70 q14 -14 30 -14zM106 -244q-86 0 -140 32t-54 87q0 39 44 73t104 50v3q-60 30 -60 72q0 27 29 51.5t70 35.5v3q-53 42 -53 111q0 68 53.5 119.5t120.5 51.5q51 0 93 -29l125 16l-14 -64l-115 30v-5q43 -48 43 -98q0 -62 -53 -111t-115 -49q-39 0 -68 16q-22 -3 -36 -18 t-14 -32t19 -28t78 -32l26 -9q75 -27 115 -57t40 -76q0 -58 -68 -100.5t-170 -42.5z"/>
<glyph glyph-name="h" horiz-adv-x="460" unicode="h" d="M303 -13q-16 0 -45.5 13t-29.5 23t66 191q5 15 15.5 41.5t16 42t10.5 31.5t5 23q0 14 -14.5 26t-31.5 12q-23 0 -73 -75.5t-113 -209.5l-35 -109l-81 5q1 3 11 33.5t22.5 69t18.5 56.5q17 54 47 164.5t51 193.5l21 84q6 21 -5 23l-75 10l3 12l175 26l-30 -115 q-12 -40 -34 -117.5t-34.5 -120t-27.5 -90.5t-26 -73l7 -1q97 197 152 252q36 36 75 36q28 0 51 -17.5t23 -41.5q0 -39 -48 -168q-9 -24 -25 -67.5t-27.5 -73.5t-12.5 -34l45 -7l70 90l9 -7q-29 -61 -65 -96t-61 -35z"/>
<glyph glyph-name="i" horiz-adv-x="249" unicode="i" d="M103 -13q-17 0 -49 12t-32 21q0 6 126 371l-54 5l-67 -96l-10 8q31 64 67.5 101t67.5 37q21 0 43.5 -17.5t22.5 -37.5q0 -11 -24 -82.5t-57 -162.5t-37 -103l51 -8l70 90l9 -7q-29 -61 -65.5 -96t-61.5 -35zM231 530q-23 0 -37 14.5t-14 36.5q0 28 15 47.5t36 19.5 q24 0 38 -14.5t14 -36.5q-1 -28 -16 -47.5t-36 -19.5z"/>
<glyph glyph-name="j" horiz-adv-x="233" unicode="j" d="M-104 -253q-25 0 -45.5 16t-20.5 40q0 18 13.5 32t33.5 14t33.5 -13t13.5 -34q0 -12 -6 -27l39 13q28 37 75 211l111 393l-50 4l-71 -96l-9 8q30 64 67 101t68 37q21 0 44 -18t23 -37t-40 -153.5t-64 -195.5q-62 -188 -126 -252q-41 -43 -89 -43zM227 530q-23 0 -37 14.5 t-14 36.5q0 28 15.5 47t35.5 19q24 0 38 -14t14 -35q0 -29 -15.5 -48.5t-36.5 -19.5z"/>
<glyph glyph-name="k" horiz-adv-x="421" unicode="k" d="M280 -13q-30 0 -52 24q-6 97 -22 161.5t-38 64.5q-8 0 -16.5 -3.5t-13 -7t-4.5 -4.5l-60 -226l-81 5l11 33t22.5 69t18.5 57q17 54 47 164.5t51 193.5l21 84q6 21 -5 23l-75 10l3 12l175 26l-30 -115q-71 -241 -93 -311q8 2 25 2q49 19 106.5 49.5t63.5 42.5v4 q-37 14 -37 52q0 19 16 34.5t36 15.5q22 0 38 -16t16 -38q0 -34 -27 -59.5t-110 -58.5l-60 -24q35 -6 61 -71.5t35 -138.5l27 -2l66 97l8 -6q-25 -63 -58 -103t-65 -40z"/>
<glyph glyph-name="l" horiz-adv-x="231" unicode="l" d="M82 -13q-16 0 -47 13t-29 20l157 582q6 21 -5 23l-75 10l3 12l175 26l-178 -631l43 -7l69 90l10 -7q-30 -62 -64 -96.5t-59 -34.5z"/>
<glyph glyph-name="m" horiz-adv-x="694" unicode="m" d="M547 -13q-17 0 -48.5 13t-31.5 23q0 9 67 191q5 15 15.5 41.5t16 42t10.5 31.5t5 23q0 15 -15 27t-32 12q-42 0 -176 -286l-34 -109l-82 5l50 157q10 30 27.5 77.5t27.5 76.5t10 38q0 16 -12.5 28.5t-28.5 12.5q-44 0 -180 -286l-33 -109l-81 5l51 160l62 232l-43 4 l-68 -97l-9 8q65 139 125 139q17 0 43 -18.5t26 -37.5q0 -20 -22.5 -93.5t-48.5 -139.5l7 -2q104 212 145 253q36 36 75 36q27 0 46 -20t19 -48q0 -41 -70 -219l6 -2q34 67 44.5 88t34 65.5t37.5 65.5t27 34q36 36 75 36q28 0 51 -18t23 -41q0 -40 -48 -169l-66 -175l46 -7 l70 91l9 -7q-30 -62 -64 -97t-58 -35z"/>
<glyph glyph-name="n" horiz-adv-x="483" unicode="n" d="M335 -13q-17 0 -48 13t-31 23q0 12 66 191q5 15 15.5 41.5t16 42t10.5 31.5t5 23q0 15 -14.5 27t-31.5 12q-23 0 -73 -75.5t-114 -210.5l-33 -109l-81 5l51 160l62 230l-43 5l-68 -96l-9 8q30 65 64.5 102t64.5 37q16 0 40.5 -18.5t24.5 -37.5q0 -20 -22 -94.5 t-47 -138.5l5 -2q98 199 152 253q36 36 75 36q28 0 51 -18t23 -41q0 -40 -48 -169q-61 -165 -66 -175l46 -7l70 91l9 -7q-30 -62 -64 -97t-58 -35z"/>
<glyph glyph-name="o" horiz-adv-x="410" unicode="o" d="M155 6q44 0 80 51.5t57 124.5q17 59 17 130q0 51 -14.5 82t-41.5 31q-36 0 -76 -60t-62 -131q-18 -62 -18 -118q0 -47 15.5 -78.5t42.5 -31.5zM163 -12q-63 0 -102 53t-39 132q0 95 69.5 183t148.5 88q65 0 106.5 -53t41.5 -131q0 -96 -71.5 -184t-153.5 -88z"/>
<glyph glyph-name="p" horiz-adv-x="445" unicode="p" d="M194 5q23 0 53 30q37 37 69 120.5t32 141.5q0 91 -50 91q-38 0 -76.5 -67.5t-89.5 -197.5q-10 -30 -10 -55q7 -24 28.5 -43.5t43.5 -19.5zM-105 -251l2 15l31 4q21 2 28.5 5t9.5 12l169 607l-43 4l-68 -96l-9 8q65 138 125 138q17 0 42.5 -19.5t25.5 -36.5 q0 -24 -31 -109h7q42 86 78.5 124.5t80.5 38.5q37 0 61 -39.5t24 -98.5q0 -118 -78 -218.5t-168 -100.5q-46 0 -69 43h-2l-67 -247q-1 -4 2.5 -7t14 -5.5t28.5 -2.5l42 -4l1 -15h-237z"/>
<glyph glyph-name="q" horiz-adv-x="435" unicode="q" d="M140 47q44 0 145 195q7 13 15.5 40.5t8.5 37.5q-5 28 -30.5 50.5t-56.5 22.5q-24 0 -44 -20q-30 -30 -57 -110t-27 -140q0 -76 46 -76zM66 -251l3 15l40 4q39 1 44 19l79 260l45 141h-4q-78 -129 -103 -158q-36 -42 -70 -42q-37 0 -62 28.5t-25 75.5q0 75 40 151t95 131 q69 71 125 71q17 0 27.5 -16.5t13.5 -31.5t7 -46h4l31 87l76 -3l-70 -192l-131 -458q-2 -8 8 -11.5t32 -5.5l29 -4l3 -15h-237z"/>
<glyph glyph-name="r" horiz-adv-x="386" unicode="r" d="M104 -4l-82 5l51 160l62 232l-43 4l-68 -97l-9 8q65 139 125 139q17 0 43 -18.5t26 -37.5q0 -40 -63 -209h7q82 169 108 206q14 20 26 31q30 28 58 28h3q28 -2 45 -20t17 -43t-16 -42.5t-35 -17.5h-3q-18 1 -29.5 12.5t-11.5 27.5q0 19 16 36l-22 8q-22 -14 -55 -67.5 t-109 -197.5z"/>
<glyph glyph-name="s" horiz-adv-x="321" unicode="s" d="M116 -13q-53 0 -90.5 22t-37.5 62q0 21 14.5 36t36.5 15q17 0 28 -13t11 -29q0 -11 -7.5 -25.5t-15.5 -20.5q41 -26 83 -28q31 2 50.5 29t20.5 53q0 12 -3.5 23t-13 23t-14 18t-20.5 21t-20 19q-28 27 -40.5 41t-26 38t-13.5 47q0 56 46 91.5t102 35.5q114 0 114 -78 q0 -23 -14.5 -36.5t-35.5 -13.5q-17 0 -28.5 13t-11.5 30q0 26 24 43q-39 21 -64 22q-31 -1 -48.5 -26t-17.5 -52q0 -6 1 -11.5t3.5 -11.5t5 -11t7.5 -11.5t8 -10t10 -11t10 -10.5l11 -11l11 -11l13 -13l15 -15t13.5 -14.5t13.5 -16.5t10.5 -16t10 -18.5t5 -18t2.5 -20.5 q0 -54 -50.5 -91.5t-107.5 -37.5z"/>
<glyph glyph-name="t" horiz-adv-x="283" unicode="t" d="M110 -13q-18 0 -56.5 11.5t-36.5 19.5l101 374l-78 3l11 33l79 11l35 127h80l-35 -133h95l1 -39h-107l-105 -352l61 -7l69 90l9 -7q-29 -61 -63.5 -96t-59.5 -35z"/>
<glyph glyph-name="u" horiz-adv-x="483" unicode="u" d="M339 -14q-16 0 -40 18.5t-24 37.5q0 21 22 96t46 138l-5 1q-100 -202 -151 -253q-36 -36 -75 -36q-28 0 -51 18t-23 41q0 40 48 169l65 176l-46 5l-68 -97l-10 7q30 65 64 102t58 37q17 0 48 -13t31 -23q0 -12 -66 -191q-5 -13 -12.5 -33.5t-13 -34.5t-10.5 -29.5t-8 -26 t-3 -15.5q0 -14 14.5 -26t31.5 -12q23 0 73 75.5t114 209.5l33 110l80 -5l-50 -160q-60 -221 -63 -231l43 -6l69 90l9 -7q-30 -63 -65 -97.5t-65 -34.5z"/>
<glyph glyph-name="v" horiz-adv-x="410" unicode="v" d="M131 -13q-34 0 -63.5 24.5t-29.5 55.5q0 15 9.5 42.5t28 67.5t32 67t37.5 73.5t28 54.5l-94 17l-59 -82l-8 7q63 135 116 135q21 0 60 -7.5t39 -13.5q0 -7 -57 -130t-57 -168q0 -38 25 -59.5t58 -21.5q21 0 61.5 55.5t73 128t32.5 113.5q-3 -1 -9 -1q-21 0 -39.5 15.5 t-18.5 33.5q0 21 15.5 37t36.5 16q25 0 41.5 -17.5t16.5 -45.5q0 -52 -46 -147t-102 -157q-74 -93 -127 -93z"/>
<glyph glyph-name="w" horiz-adv-x="589" unicode="w" d="M111 -13q-29 0 -52.5 24t-23.5 56q0 30 23 83t65.5 131t48.5 91l-93 17l-59 -82l-8 7q63 135 116 135q21 0 60 -7.5t39 -13.5q0 -10 -30 -69.5t-60 -129t-30 -102.5q0 -35 20 -50t42 -15q29 0 91 92t106 180l-5 3l-12.5 7.5t-15 11.5t-12.5 17t-5 21q0 22 14.5 36.5 t37.5 14.5q21 0 36 -15.5t15 -39.5q0 -27 -29.5 -64.5t-41.5 -68.5q-24 -66 -24 -107q0 -46 23 -67t51 -21q26 0 62 49.5t61.5 117.5t25.5 117q-3 -1 -8 -1q-20 0 -37.5 15.5t-17.5 33.5q0 21 14.5 37t35.5 16q23 0 39.5 -17t16.5 -45q0 -53 -40.5 -151t-90.5 -158 q-61 -89 -108 -89q-28 0 -48 26t-20 55q0 42 46 163q-69 -120 -121.5 -182t-96.5 -62z"/>
<glyph glyph-name="x" horiz-adv-x="443" unicode="x" d="M48 -13q-30 0 -50.5 16t-20.5 42q0 25 13.5 40.5t34.5 15.5q17 0 28 -11.5t11 -27.5q0 -13 -7 -26q0 -2 10 -8t12 -5q14 2 51.5 60t59.5 110q-8 65 -25.5 132t-31.5 67h-37l-44 -73l-10 7q51 121 115 121q35 0 54.5 -38t37.5 -125h2q40 96 66 129.5t61 33.5 q29 0 49.5 -16t20.5 -40t-13.5 -40t-33.5 -16q-18 0 -29.5 12.5t-11.5 28.5q0 12 5 20q0 1 -9.5 4.5t-12.5 3.5q-11 -2 -41 -51.5t-46 -90.5q32 -219 60 -219h36l45 73l10 -9q-53 -120 -116 -120q-37 0 -57.5 44t-37.5 137h-3q-49 -108 -78 -144.5t-67 -36.5z"/>
<glyph glyph-name="y" horiz-adv-x="423" unicode="y" d="M-46 -204q-39 0 -60.5 16.5t-21.5 46.5q0 21 15 34.5t35 13.5q22 0 36.5 -14.5t14.5 -36.5q0 -11 -5 -24l31 -8q32 7 88 51.5t92 84.5q0 168 -22.5 302t-53.5 134l-20 1l-63 -97l-10 8q35 74 60.5 106t62.5 32q44 0 68.5 -35.5t35.5 -119t13 -239.5l4 -1q39 65 79.5 166 t41.5 148q-14 -8 -27 -8q-21 0 -36.5 14.5t-15.5 32.5q0 20 13 34t35 14q24 0 41.5 -18t17.5 -52q0 -87 -70 -221.5t-140 -202.5q-1 -1 -20 -19.5t-26 -25.5t-27.5 -26t-33 -28t-32.5 -23.5t-35 -21.5t-32.5 -12.5t-32.5 -5.5z"/>
<glyph glyph-name="z" horiz-adv-x="373" unicode="z" d="M236 -21q-36 0 -69.5 20.5t-62.5 48t-42 33.5h-8l-25 -93q-19 2 -34.5 15t-15.5 28q0 38 52 59l260 245q-5 -1 -15 -1q-27 0 -55 16t-55 39.5t-34 27.5h-1q-3 0 -11 -7.5t-14 -15t-4 -7.5q16 -4 26.5 -16.5t10.5 -26.5q0 -19 -12.5 -32t-32.5 -13t-31.5 13t-11.5 32 q0 36 42.5 69.5t87.5 34.5q30 -2 50.5 -15t28.5 -28t17.5 -30.5t18.5 -20.5l7 1l25 92q19 -2 34 -15.5t15 -29.5q-1 -36 -53 -57l-260 -245q16 2 23 2q36 0 77 -22.5t72 -45t42 -22.5q3 0 11.5 12.5t8.5 15.5q0 2 -19.5 19.5t-19.5 29.5q0 19 13 31.5t34 12.5 q19 0 30.5 -13.5t11.5 -34.5q0 -36 -37 -70t-75 -36z"/>
<glyph glyph-name="braceleft" horiz-adv-x="312" unicode="{" d="M245 -248q-81 10 -131 48.5t-50 95.5q0 6 2 20q6 44 37.5 109t36.5 96q1 4 1 12q0 33 -32.5 50.5t-96.5 27.5l-5 12l7 12q142 0 152 69q2 18 2 27q0 22 -7.5 68t-7.5 73q0 23 4 43q10 63 69.5 98t146.5 35h7v-15q-73 -3 -108.5 -26t-42.5 -67q-2 -10 -2 -30q0 -22 7 -69 t7 -74q0 -19 -3 -38q-7 -46 -55.5 -74.5t-112.5 -31.5v-4l-1 -3q58 -14 96 -45t38 -74q0 -8 -1 -12q-6 -42 -38 -107.5t-37 -97.5q-2 -12 -2 -18q0 -71 122 -97z"/>
<glyph glyph-name="bar" horiz-adv-x="190" unicode="|" d="M86 -207v877h18v-877h-18z"/>
<glyph glyph-name="braceright" horiz-adv-x="312" unicode="}" d="M-57 -247v14q137 5 152 94q1 6 1 17q0 26 -17 82.5t-17 88.5q0 8 2 24q6 47 54 75.5t113 31.5q0 1 1 4v3q-57 14 -95 45t-38 73q0 9 1 13q6 42 48.5 106.5t47.5 97.5q2 12 2 18q0 69 -122 95l3 14q81 -11 130.5 -48.5t49.5 -94.5q0 -6 -2 -20q-7 -44 -48.5 -108 t-46.5 -96q0 -2 -0.5 -5t-0.5 -4q0 -63 128 -82l5 -11l-6 -11q-70 0 -108 -15t-44 -55q-1 -6 -1 -18q0 -26 16.5 -81t16.5 -88q0 -7 -2 -25q-10 -63 -69 -98.5t-147 -35.5h-7z"/>
<glyph glyph-name="asciitilde" horiz-adv-x="369" unicode="~" d="M250 156q-33 0 -88 32.5t-72 32.5q-20 0 -31.5 -10.5t-21.5 -46.5h-13q14 60 34 85.5t57 25.5q33 0 88 -32.5t72 -32.5q20 0 31.5 11t22.5 46h14q-15 -59 -35.5 -85t-57.5 -26z"/>
<glyph glyph-name="nbspace" horiz-adv-x="139" unicode=" "/>
<glyph glyph-name="exclamdown" horiz-adv-x="260" unicode="¡" d="M88 -19q-46 4 -46 33q0 6 4 20l121 398q1 2 4 3t5 -0.5t2 -3.5l-32 -406q-3 -21 -13 -32.5t-35 -11.5h-7h-3zM197 518q-25 0 -42 17t-17 41t16.5 41.5t41.5 17.5q26 0 43.5 -17.5t17.5 -41.5t-17.5 -41t-42.5 -17z"/>
<glyph glyph-name="cent" horiz-adv-x="352" unicode="¢" d="M284 411q-15 12 -39 12q-23 0 -55 -30q-36 -36 -63.5 -109t-27.5 -138q0 -71 36 -94zM110 -9q-42 11 -68.5 50t-26.5 89q0 112 78 213.5t174 101.5q17 0 30 -4l71 173h19l-74 -178q25 -9 40.5 -27t15.5 -40t-15.5 -38.5t-35.5 -16.5q-31 0 -45 26l-122 -296q12 -3 25 -3 q33 0 59.5 19.5t66.5 70.5l9 -8q-41 -64 -81 -100t-88 -36q-9 0 -14 1l-61 -148h-19z"/>
<glyph glyph-name="sterling" horiz-adv-x="516" unicode="£" d="M136 61q-63 39 -93 39q-24 0 -40.5 -16t-16.5 -39q0 -18 14 -31t34 -13q55 0 102 60zM177 284h-110l4 19h105q-1 13 -1 41v17q5 109 76.5 189.5t179.5 80.5q53 0 83 -20t30 -53q0 -23 -15.5 -39.5t-38.5 -16.5t-34.5 14.5t-11.5 35.5t11 38q-19 19 -54 19 q-44 0 -79 -34.5t-47 -104.5q-4 -23 -8 -85t-6 -82h129l1 -19h-132q-4 -36 -8 -55q-12 -65 -57 -130q11 -3 35.5 -11t37.5 -12t32 -9.5t34 -7.5t28 -2q43 0 66.5 22t42.5 82l11 -3q-16 -74 -57.5 -122t-99.5 -48q-73 0 -170 62q-61 -63 -121 -63q-28 0 -46 17t-16 42 q1 34 27 56.5t72 22.5q34 0 94 -16q15 36 16 69q0 4 0.5 12.5t0.5 12.5q0 27 -4 81z"/>
<glyph glyph-name="currency" d="M118 359q0 -48 34 -82t82 -34t82 34t34 82t-34 82t-82 34t-82 -34t-34 -82zM88 199l-14 14l57 57q-33 38 -33 89t33 89l-57 57l14 14l57 -57q40 33 89 33t89 -33l57 57l14 -14l-57 -57q33 -40 33 -89t-33 -89l57 -57l-14 -14l-57 57q-38 -33 -89 -33t-89 33z" unicode="¤"/>
<glyph glyph-name="yen" horiz-adv-x="607" unicode="¥" d="M273 288h-180l-1 20h176l-94 235q-12 33 -26.5 47t-41.5 16l-28 4l-2 15h269l-3 -15l-29 -2q-45 -3 -45 -32q0 -16 16 -58l73 -194h2l124 171q48 65 48 87q0 11 -10.5 16t-36.5 9l-21 3l-2 15h207l-3 -15l-23 -3q-33 -5 -58 -24t-73 -85l-138 -190h172v-5.5t-1 -9.5v-5 h-179l-21 -107h181l2 -19h-187l-23 -125q-1 -4 2 -7t13 -5.5t30 -4.5l48 -5l2 -15h-292l3 15l58 6q42 4 44 18l24 123h-178l4 19h177q2 0 21 107z"/>
<glyph glyph-name="brokenbar" horiz-adv-x="190" unicode="¦" d="M86 -154v335h18v-335h-18zM86 292v335h18v-335h-18z"/>
<glyph glyph-name="section" horiz-adv-x="390" unicode="§" d="M275 154q52 30 52 80q0 45 -72 104q-10 8 -33 26t-33.5 26.5t-24.5 22t-22 25.5q-53 -29 -53 -79q0 -27 18.5 -50.5t56.5 -53.5q91 -71 111 -101zM136 -50q-50 0 -87 20t-37 52q0 22 13.5 36.5t34.5 14.5q41 0 41 -47q0 -19 -7 -34q14 -23 58 -23q36 0 59 25t23 53 q0 32 -26 62t-75 68t-77 72t-28 75q0 43 30 76t77 49q-15 25 -15 59q0 53 45 92t113 39q46 0 83 -21t37 -53q0 -19 -15 -33t-35 -14q-42 0 -42 47q0 17 8 35q-14 21 -49 21q-38 0 -60.5 -23.5t-22.5 -51.5q0 -33 26 -62.5t77 -68.5q50 -38 77.5 -71.5t27.5 -73.5 q0 -44 -31 -78t-78 -49q16 -26 16 -61q0 -54 -47.5 -93t-113.5 -39z"/>
<glyph glyph-name="dieresis" horiz-adv-x="379" unicode="¨" d="M163 520q-25 0 -39.5 17.5t-14.5 37.5q0 21 14.5 39.5t39.5 18.5t39.5 -18.5t14.5 -39.5q0 -20 -14.5 -37.5t-39.5 -17.5zM349 520q-25 0 -39.5 17.5t-14.5 37.5q0 21 14.5 39.5t39.5 18.5t39.5 -18.5t14.5 -39.5q0 -20 -14.5 -37.5t-39.5 -17.5z"/>
<glyph glyph-name="copyright" horiz-adv-x="713" unicode="©" d="M375 118q-92 0 -148.5 53t-56.5 138t58 140t150 55q54 0 96 -20l39 14l2 -121h-11l-46 90q-27 22 -83 22q-65 0 -103.5 -49t-38.5 -122q0 -82 42 -133.5t106 -51.5q39 0 64 17t49 53l20 41h11l-19 -105l-23 -2q-44 -19 -108 -19zM365 2q127 0 217.5 91.5t90.5 219.5 t-90.5 219.5t-217.5 91.5q-128 0 -218.5 -91.5t-90.5 -219.5t90.5 -219.5t218.5 -91.5zM365 -14q-136 0 -231.5 95.5t-95.5 231.5t95.5 232t231.5 96t231.5 -96t95.5 -232t-95.5 -231.5t-231.5 -95.5z"/>
<glyph glyph-name="ordfeminine" horiz-adv-x="352" unicode="ª" d="M166 334q15 0 45.5 41.5t63.5 105.5q18 36 18 58q-4 22 -23 39t-43 17q-21 0 -34 -15q-24 -24 -43.5 -81.5t-19.5 -105.5q0 -28 10 -43.5t26 -15.5zM135 288q-28 0 -47 22.5t-19 59.5q0 56 30 113.5t72 99.5q49 51 97 51q18 0 25.5 -15.5t9.5 -54.5h3l26 74l56 -2 l-54 -154l-43 -153l35 -5l56 74l5 -5q-25 -49 -50.5 -77t-44.5 -28q-12 0 -35.5 11.5t-23.5 19.5q0 16 40 130h-3q-67 -113 -91 -138q-23 -23 -44 -23z"/>
<glyph glyph-name="guillemotleft" horiz-adv-x="452" unicode="«" d="M205 58l-187 157l2 19l247 153l4 -10l-164 -161l105 -147zM393 48l-185 167l2 19l249 164l4 -11l-170 -171l107 -157z"/>
<glyph glyph-name="logicalnot" d="M422 312v-180h-22v158h-382l3 22h401z" unicode="¬"/>
<glyph glyph-name="uni00AD" horiz-adv-x="294" unicode="­" d="M23 212l10 44h244l-7 -44h-247z"/>
<glyph glyph-name="registered" horiz-adv-x="713" unicode="®" d="M356 320q82 2 82 81t-92 79h-10l-26 -1v-151q26 -8 46 -8zM196 130l2 12l30 4q24 2 24 11v316q0 7 -28 9l-25 4l-2 12h158q72 0 108.5 -26t36.5 -71q0 -34 -24.5 -60t-65.5 -34l78 -118q18 -26 29.5 -34.5t30.5 -10.5l15 -2l2 -12h-109l-9 17l-97 157q-2 0 -18 3t-22 5 v-157q0 -5 28 -10l27 -3l1 -12h-170zM365 2q127 0 217.5 91.5t90.5 219.5t-90.5 219.5t-217.5 91.5q-128 0 -218.5 -91.5t-90.5 -219.5t90.5 -219.5t218.5 -91.5zM365 -14q-136 0 -231.5 95.5t-95.5 231.5t95.5 232t231.5 96t231.5 -96t95.5 -232t-95.5 -231.5t-231.5 -95.5 z"/>
<glyph glyph-name="macron" horiz-adv-x="378" unicode="¯" d="M117 527l11 30h248l-8 -30h-251z"/>
<glyph glyph-name="degree" horiz-adv-x="321" unicode="°" d="M212 381q52 0 84.5 36t32.5 88q1 48 -30.5 81.5t-82.5 34.5q-52 0 -84.5 -37t-32.5 -89q0 -49 31.5 -81.5t81.5 -32.5zM211 360q-60 0 -98.5 39t-38.5 97q0 61 41 104t103 43q60 0 98 -39t38 -96q0 -61 -40.5 -104.5t-102.5 -43.5z"/>
<glyph glyph-name="plusminus" d="M424 27h-392l3 22h386zM217 84v162h-198l3 22h195v168h22v-168h195l3 -22h-198v-162h-22z" unicode="±"/>
<glyph glyph-name="twosuperior" horiz-adv-x="282" unicode="²" d="M-16 267v14q16 13 45 36.5t41.5 33.5t35 29t32 29t24.5 26t21.5 26.5t14 25t10 27.5t2.5 28q0 34 -20.5 53.5t-50.5 19.5q-42 0 -84 -48l-5 7q55 80 127 80q40 0 67.5 -25.5t28.5 -64.5q0 -27 -9.5 -50.5t-35 -49.5t-45.5 -42t-67 -51.5t-72 -55.5v-2h119q29 0 47.5 13 t39.5 45l8 11h10l-47 -115h-237z"/>
<glyph glyph-name="threesuperior" horiz-adv-x="268" unicode="³" d="M88 245q-40 0 -68 11.5t-28 36.5q0 13 9.5 22.5t24.5 9.5q14 0 25.5 -12t11.5 -27q0 -8 -5 -18q16 -11 38 -11q39 0 65.5 31t26.5 73q0 37 -22.5 58.5t-63.5 21.5q-17 0 -39 -6l-4 9q80 34 111.5 56.5t31.5 58.5q0 25 -17.5 41.5t-43.5 16.5q-50 0 -87 -48l-4 7 q21 34 55 56t73 22q35 0 61.5 -21.5t26.5 -51.5q0 -68 -125 -109v-2q4 1 13 1q43 -3 69 -30t26 -65q0 -51 -49.5 -91t-111.5 -40z"/>
<glyph glyph-name="acute" horiz-adv-x="379" unicode="´" d="M196 497l124 187h97l-209 -187h-12z"/>
<glyph glyph-name="mu" horiz-adv-x="494" unicode="µ" d="M219 -251h-211l3 15l21 1q40 3 40 16v618q0 8 -7.5 10t-41.5 5l-17 2l-3 15h154l-3 -313q0 -72 84 -72q64 0 109 39v290q0 22 -9 29.5t-38 9.5l-21 2l-3 15h155v-361q0 -23 14 -27l54 -13l-1 -11l-150 -35v81h-2q-18 -28 -27.5 -40t-30.5 -25.5t-47 -13.5q-53 0 -84 60 h-2v-265q0 -13 40 -16l21 -1z"/>
<glyph glyph-name="mu" horiz-adv-x="494" unicode="μ" d="M219 -251h-211l3 15l21 1q40 3 40 16v618q0 8 -7.5 10t-41.5 5l-17 2l-3 15h154l-3 -313q0 -72 84 -72q64 0 109 39v290q0 22 -9 29.5t-38 9.5l-21 2l-3 15h155v-361q0 -23 14 -27l54 -13l-1 -11l-150 -35v81h-2q-18 -28 -27.5 -40t-30.5 -25.5t-47 -13.5q-53 0 -84 60 h-2v-265q0 -13 40 -16l21 -1z"/>
<glyph glyph-name="paragraph" horiz-adv-x="452" unicode="¶" d="M322 -31l53 285q-13 -3 -23 -3q-131 0 -207 48t-76 132q0 98 70 146.5t182 48.5h147l-124 -657h-22z"/>
<glyph glyph-name="periodcentered" horiz-adv-x="211" unicode="·" d="M99 163q-26 0 -44 18.5t-18 43.5q0 24 17.5 42t43.5 18t44 -17.5t18 -42.5t-17.5 -43.5t-43.5 -18.5z"/>
<glyph glyph-name="cedilla" horiz-adv-x="379" unicode="¸" d="M3 -260l-1 11q168 15 168 90q0 48 -83 48q-23 0 -55 -5l2 11l120 109h22l-72 -67h13q51 0 83.5 -21t32.5 -55q0 -57 -64 -86.5t-166 -34.5z"/>
<glyph glyph-name="onesuperior" horiz-adv-x="254" unicode="¹" d="M21 267l2 11l35 2q24 1 26 12l62 321l-67 10l3 8l132 19l-70 -359q-1 -3 1 -5t8 -4t17 -2l28 -2l2 -11h-179z"/>
<glyph glyph-name="ordmasculine" horiz-adv-x="318" unicode="º" d="M176 300q34 0 62 40.5t45 96.5q12 47 12 99q0 39 -11 62t-32 23q-27 0 -58 -47t-48 -102q-14 -45 -14 -89q0 -37 11.5 -60t32.5 -23zM183 286q-48 0 -78 40t-30 100q0 73 53.5 142t113.5 69q50 0 81.5 -40.5t31.5 -100.5q0 -75 -54 -142.5t-118 -67.5z"/>
<glyph glyph-name="guillemotright" horiz-adv-x="452" unicode="»" d="M-9 47l-4 10l169 170l-108 159l8 11l185 -168l-1 -19zM182 57l-3 10l164 160l-107 149l8 10l187 -157l-1 -19z"/>
<glyph glyph-name="onequarter" horiz-adv-x="646" unicode="¼" d="M-16 -121l678 751h27l-678 -751h-27zM21 267l2 11l35 2q24 1 26 12l62 321l-67 10l3 8l132 19l-70 -359q-1 -3 1 -5t8 -4t17 -2l28 -2l2 -11h-179zM384 8h125l34 174h-3zM481 -136l21 107h-160v9l243 271l26 -2l-46 -241h67l-10 -37h-64l-22 -107h-55z"/>
<glyph glyph-name="onehalf" horiz-adv-x="660" unicode="½" d="M-16 -121l678 751h27l-678 -751h-27zM21 267l2 11l35 2q24 1 26 12l62 321l-67 10l3 8l132 19l-70 -359q-1 -3 1 -5t8 -4t17 -2l28 -2l2 -11h-179zM356 -137v14q16 13 45 36.5t41.5 33.5t35 29t32 29t24.5 26t21.5 26.5t14 25t10 27.5t2.5 28q0 34 -20.5 53.5t-50.5 19.5 q-42 0 -84 -48l-5 7q55 80 127 80q40 0 67.5 -25.5t28.5 -64.5q0 -27 -9.5 -50.5t-35 -49.5t-45.5 -42t-67 -51.5t-72 -55.5v-2h119q29 0 47.5 13t39.5 45l8 11h10l-47 -115h-237z"/>
<glyph glyph-name="threequarters" horiz-adv-x="620" unicode="¾" d="M-42 -121l678 751h27l-678 -751h-27zM88 245q-40 0 -68 11.5t-28 36.5q0 13 9.5 22.5t24.5 9.5q14 0 25.5 -12t11.5 -27q0 -8 -5 -18q16 -11 38 -11q39 0 65.5 31t26.5 73q0 37 -22.5 58.5t-63.5 21.5q-17 0 -39 -6l-4 9q80 34 111.5 56.5t31.5 58.5q0 25 -17.5 41.5 t-43.5 16.5q-50 0 -87 -48l-4 7q21 34 55 56t73 22q35 0 61.5 -21.5t26.5 -51.5q0 -68 -125 -109v-2q4 1 13 1q43 -3 69 -30t26 -65q0 -51 -49.5 -91t-111.5 -40zM358 8h125l34 174h-3zM455 -136l21 107h-160v9l243 271l26 -2l-46 -241h67l-10 -37h-64l-22 -107h-55z"/>
<glyph glyph-name="questiondown" horiz-adv-x="321" unicode="¿" d="M188 -12q-77 0 -123.5 49.5t-46.5 114.5q0 61 28 94.5t93 54.5q39 13 54.5 19t29 19.5t13.5 33.5q0 32 -37 69l13 2q63 -57 63 -109q0 -41 -29.5 -63.5t-95.5 -42.5q-66 -19 -89 -33t-23 -43q0 -33 43 -60.5t120 -27.5q22 0 46 4q5 -10 5 -23q0 -58 -64 -58zM243 525 q-25 0 -42 17t-17 40q0 25 16.5 42.5t42.5 17.5q25 0 42.5 -18t17.5 -42q0 -23 -17 -40t-43 -17z"/>
<glyph glyph-name="Agrave" horiz-adv-x="607" unicode="À" d="M387 664l-139 187h90l61 -187h-12zM200 279h159l-25 253h-4zM361 257h-172l-52 -100q-48 -88 -48 -108q0 -26 57 -30l34 -4l2 -15h-223l3 15l22 5q40 6 63 33t89 146l188 360l-4 36q20 5 45 18.5t33 25.5h13l61 -522q7 -58 18.5 -76t42.5 -21l36 -5l1 -15h-275l3 15l38 4 q25 1 34 13t9 36q0 9 -2 33z"/>
<glyph glyph-name="Aacute" horiz-adv-x="607" unicode="Á" d="M333 664l124 187h97l-209 -187h-12zM200 279h159l-25 253h-4zM361 257h-172l-52 -100q-48 -88 -48 -108q0 -26 57 -30l34 -4l2 -15h-223l3 15l22 5q40 6 63 33t89 146l188 360l-4 36q20 5 45 18.5t33 25.5h13l61 -522q7 -58 18.5 -76t42.5 -21l36 -5l1 -15h-275l3 15 l38 4q25 1 34 13t9 36q0 9 -2 33z"/>
<glyph glyph-name="Acircumflex" horiz-adv-x="607" unicode="Â" d="M245 656l152 194h32l81 -194h-12l-94 116h-3l-146 -116h-10zM200 279h159l-25 253h-4zM361 257h-172l-52 -100q-48 -88 -48 -108q0 -26 57 -30l34 -4l2 -15h-223l3 15l22 5q40 6 63 33t89 146l188 360l-4 36q20 5 45 18.5t33 25.5h13l61 -522q7 -58 18.5 -76t42.5 -21 l36 -5l1 -15h-275l3 15l38 4q25 1 34 13t9 36q0 9 -2 33z"/>
<glyph glyph-name="Atilde" horiz-adv-x="607" unicode="Ã" d="M455 671q-33 0 -88 32.5t-72 32.5q-20 0 -31.5 -10.5t-21.5 -46.5h-13q14 60 34 85.5t57 25.5q32 0 87 -32.5t73 -32.5q20 0 31.5 11t22.5 46h14q-15 -59 -35.5 -85t-57.5 -26zM200 279h159l-25 253h-4zM361 257h-172l-52 -100q-48 -88 -48 -108q0 -26 57 -30l34 -4 l2 -15h-223l3 15l22 5q40 6 63 33t89 146l188 360l-4 36q20 5 45 18.5t33 25.5h13l61 -522q7 -58 18.5 -76t42.5 -21l36 -5l1 -15h-275l3 15l38 4q25 1 34 13t9 36q0 9 -2 33z"/>
<glyph glyph-name="Adieresis" horiz-adv-x="607" unicode="Ä" d="M290 687q-25 0 -39.5 17.5t-14.5 37.5q0 21 14.5 39.5t39.5 18.5t39.5 -18.5t14.5 -39.5q0 -20 -14.5 -37.5t-39.5 -17.5zM476 687q-25 0 -39.5 17.5t-14.5 37.5q0 21 14.5 39.5t39.5 18.5t39.5 -18.5t14.5 -39.5q0 -20 -14.5 -37.5t-39.5 -17.5zM200 279h159l-25 253h-4 zM361 257h-172l-52 -100q-48 -88 -48 -108q0 -26 57 -30l34 -4l2 -15h-223l3 15l22 5q40 6 63 33t89 146l188 360l-4 36q20 5 45 18.5t33 25.5h13l61 -522q7 -58 18.5 -76t42.5 -21l36 -5l1 -15h-275l3 15l38 4q25 1 34 13t9 36q0 9 -2 33z"/>
<glyph glyph-name="Aring" horiz-adv-x="607" unicode="Å" d="M200 279h159l-25 252h-4zM396 624q33 0 53 21.5t20 53.5q0 31 -20 53.5t-53 22.5t-53 -22.5t-20 -53.5q0 -32 20 -53.5t53 -21.5zM361 257h-172l-52 -100q-48 -88 -48 -108q0 -26 57 -30l34 -4l2 -15h-223l3 15l22 5q40 6 63 33t89 146l220 419q-49 22 -49 81 q0 37 24.5 63.5t64.5 26.5t64.5 -26.5t24.5 -63.5q0 -33 -19 -57t-52 -30l58 -495q7 -58 18.5 -76t42.5 -21l36 -5l1 -15h-275l3 15l38 4q25 1 34 13t9 36q0 9 -2 33z"/>
<glyph glyph-name="AE" horiz-adv-x="834" unicode="Æ" d="M217 279h162l54 288h-3q-212 -288 -213 -288zM375 257h-173l-67 -90q-47 -61 -64 -86t-17 -38q0 -18 50 -24l26 -4l3 -15h-216l3 15l24 5q43 5 68 27t94 110l301 408q12 15 12 23q0 15 -47 18l-42 4l-2 15h479v-192h-18l-7 38q-10 33 -16 48.5t-19.5 36t-32 29t-50.5 15 t-78 6.5h-53l-52 -276l34 1q74 2 102 14.5t47 51.5l15 30l16 -1l-46 -213l-17 1l3 29q1 6 1 16q0 31 -25.5 40t-103.5 12l-30 1l-54 -290l89 -3q46 0 82 8t59.5 19t44.5 31.5t33 37t29 45.5l18 37l20 -1l-65 -196h-491l3 15l45 6q42 4 44 18z"/>
<glyph glyph-name="Ccedilla" horiz-adv-x="663" unicode="Ç" d="M338 -14q-133 7 -210 85t-77 198q0 150 107 260.5t266 110.5q100 0 168 -37l70 16l-33 -187l-16 1l-31 139q-56 48 -150 48q-125 0 -202 -109t-77 -259q0 -113 57 -180t158 -67q105 0 188 97l38 68l18 -1l-52 -162l-39 1q-69 -23 -157 -23h-4l-52 -48h13q51 0 83.5 -21 t32.5 -55q0 -57 -64 -86.5t-166 -34.5l-1 11q168 15 168 90q0 48 -83 48q-23 0 -55 -5l2 11z"/>
<glyph glyph-name="Egrave" horiz-adv-x="588" unicode="È" d="M373 664l-139 187h90l61 -187h-12zM-11 0l3 15l40 6q46 6 47 18l105 549q1 6 -7 9.5t-38 7.5l-32 5l-2 15h454l1 -192h-19l-6 38q-9 28 -13.5 41t-15 32.5t-22.5 28t-32 18t-48 13t-66 3.5h-57l-53 -277l39 1q74 2 102 14.5t47 51.5l15 30l17 -1l-47 -213l-17 1l3 29 q1 6 1 16q0 31 -25.5 40t-103.5 12l-34 1l-55 -290l93 -4q57 0 98.5 10.5t69.5 33t44 42.5t37 56l19 37l19 -1l-64 -196h-497z"/>
<glyph glyph-name="Eacute" horiz-adv-x="588" unicode="É" d="M307 664l124 187h97l-209 -187h-12zM-11 0l3 15l40 6q46 6 47 18l105 549q1 6 -7 9.5t-38 7.5l-32 5l-2 15h454l1 -192h-19l-6 38q-9 28 -13.5 41t-15 32.5t-22.5 28t-32 18t-48 13t-66 3.5h-57l-53 -277l39 1q74 2 102 14.5t47 51.5l15 30l17 -1l-47 -213l-17 1l3 29 q1 6 1 16q0 31 -25.5 40t-103.5 12l-34 1l-55 -290l93 -4q57 0 98.5 10.5t69.5 33t44 42.5t37 56l19 37l19 -1l-64 -196h-497z"/>
<glyph glyph-name="Ecircumflex" horiz-adv-x="588" unicode="Ê" d="M219 656l152 194h32l81 -194h-12l-94 116h-3l-146 -116h-10zM-11 0l3 15l40 6q46 6 47 18l105 549q1 6 -7 9.5t-38 7.5l-32 5l-2 15h454l1 -192h-19l-6 38q-9 28 -13.5 41t-15 32.5t-22.5 28t-32 18t-48 13t-66 3.5h-57l-53 -277l39 1q74 2 102 14.5t47 51.5l15 30l17 -1 l-47 -213l-17 1l3 29q1 6 1 16q0 31 -25.5 40t-103.5 12l-34 1l-55 -290l93 -4q57 0 98.5 10.5t69.5 33t44 42.5t37 56l19 37l19 -1l-64 -196h-497z"/>
<glyph glyph-name="Edieresis" horiz-adv-x="588" unicode="Ë" d="M266 687q-25 0 -39.5 17.5t-14.5 37.5q0 21 14.5 39.5t39.5 18.5t39.5 -18.5t14.5 -39.5q0 -20 -14.5 -37.5t-39.5 -17.5zM452 687q-25 0 -39.5 17.5t-14.5 37.5q0 21 14.5 39.5t39.5 18.5t39.5 -18.5t14.5 -39.5q0 -20 -14.5 -37.5t-39.5 -17.5zM-11 0l3 15l40 6 q46 6 47 18l105 549q1 6 -7 9.5t-38 7.5l-32 5l-2 15h454l1 -192h-19l-6 38q-9 28 -13.5 41t-15 32.5t-22.5 28t-32 18t-48 13t-66 3.5h-57l-53 -277l39 1q74 2 102 14.5t47 51.5l15 30l17 -1l-47 -213l-17 1l3 29q1 6 1 16q0 31 -25.5 40t-103.5 12l-34 1l-55 -290l93 -4 q57 0 98.5 10.5t69.5 33t44 42.5t37 56l19 37l19 -1l-64 -196h-497z"/>
<glyph glyph-name="Igrave" horiz-adv-x="344" unicode="Ì" d="M269 664l-139 187h90l61 -187h-12zM-6 0l3 15l49 6q42 4 44 18l105 549q1 4 -2 7t-13 5.5t-30 4.5l-38 5l-2 15h273l-3 -15l-48 -6q-42 -6 -44 -18l-105 -549q-1 -7 7 -10t38 -7l38 -5l2 -15h-274z"/>
<glyph glyph-name="Iacute" horiz-adv-x="344" unicode="Í" d="M213 664l124 187h97l-209 -187h-12zM-6 0l3 15l49 6q42 4 44 18l105 549q1 4 -2 7t-13 5.5t-30 4.5l-38 5l-2 15h273l-3 -15l-48 -6q-42 -6 -44 -18l-105 -549q-1 -7 7 -10t38 -7l38 -5l2 -15h-274z"/>
<glyph glyph-name="Icircumflex" horiz-adv-x="344" unicode="Î" d="M116 656l152 194h32l81 -194h-12l-94 116h-3l-146 -116h-10zM-6 0l3 15l49 6q42 4 44 18l105 549q1 4 -2 7t-13 5.5t-30 4.5l-38 5l-2 15h273l-3 -15l-48 -6q-42 -6 -44 -18l-105 -549q-1 -7 7 -10t38 -7l38 -5l2 -15h-274z"/>
<glyph glyph-name="Idieresis" horiz-adv-x="344" unicode="Ï" d="M170 687q-25 0 -39.5 17.5t-14.5 37.5q0 21 14.5 39.5t39.5 18.5t39.5 -18.5t14.5 -39.5q0 -20 -14.5 -37.5t-39.5 -17.5zM356 687q-25 0 -39.5 17.5t-14.5 37.5q0 21 14.5 39.5t39.5 18.5t39.5 -18.5t14.5 -39.5q0 -20 -14.5 -37.5t-39.5 -17.5zM-6 0l3 15l49 6 q42 4 44 18l105 549q1 4 -2 7t-13 5.5t-30 4.5l-38 5l-2 15h273l-3 -15l-48 -6q-42 -6 -44 -18l-105 -549q-1 -7 7 -10t38 -7l38 -5l2 -15h-274z"/>
<glyph glyph-name="Eth" horiz-adv-x="664" unicode="Ð" d="M228 326h139l2 -21h-145l-51 -266l66 -22q146 1 229 101t83 254q0 104 -54 169.5t-163 65.5h-53zM130 305h-91l4 21h91l50 262q1 6 -7 9.5t-38 7.5l-33 5l-1 15l239 1h5q148 0 226.5 -72.5t78.5 -187.5q0 -153 -109 -259.5t-296 -106.5h-260l3 15l43 6q42 6 44 18z"/>
<glyph glyph-name="Ntilde" horiz-adv-x="673" unicode="Ñ" d="M481 671q-33 0 -88 32.5t-72 32.5q-20 0 -31.5 -10.5t-21.5 -46.5h-13q14 60 34 85.5t57 25.5q32 0 87.5 -32.5t72.5 -32.5q20 0 31.5 11t22.5 46h14q-15 -59 -35.5 -85t-57.5 -26zM500 -6l-298 550h-3l-87 -439q-3 -21 -3 -36q0 -26 12.5 -35.5t45.5 -14.5l27 -4l1 -15 h-214l3 15l28 4q35 4 53 22t24 66l88 433q-5 26 -19 43t-46 22l-22 5l-2 15h180l256 -482h3l75 377q3 22 3 37q0 25 -12 35t-45 14l-27 4l-2 15h215l-3 -15l-28 -4q-35 -3 -53 -21t-25 -67l-104 -524h-21z"/>
<glyph glyph-name="Ograve" horiz-adv-x="719" unicode="Ò" d="M434 664l-139 187h90l61 -187h-12zM351 7q73 0 132.5 59t90 144.5t30.5 172.5q0 104 -53 170t-147 66q-75 0 -134.5 -60t-89 -145t-29.5 -172q0 -104 53.5 -169.5t146.5 -65.5zM357 -14q-135 0 -219 86.5t-84 213.5q0 141 97.5 247t248.5 106q134 0 217.5 -87t83.5 -214 q0 -144 -98.5 -248t-245.5 -104z"/>
<glyph glyph-name="Oacute" horiz-adv-x="719" unicode="Ó" d="M373 664l124 187h97l-209 -187h-12zM351 7q73 0 132.5 59t90 144.5t30.5 172.5q0 104 -53 170t-147 66q-75 0 -134.5 -60t-89 -145t-29.5 -172q0 -104 53.5 -169.5t146.5 -65.5zM357 -14q-135 0 -219 86.5t-84 213.5q0 141 97.5 247t248.5 106q134 0 217.5 -87t83.5 -214 q0 -144 -98.5 -248t-245.5 -104z"/>
<glyph glyph-name="Ocircumflex" horiz-adv-x="719" unicode="Ô" d="M286 656l152 194h32l81 -194h-12l-94 116h-3l-146 -116h-10zM351 7q73 0 132.5 59t90 144.5t30.5 172.5q0 104 -53 170t-147 66q-75 0 -134.5 -60t-89 -145t-29.5 -172q0 -104 53.5 -169.5t146.5 -65.5zM357 -14q-135 0 -219 86.5t-84 213.5q0 141 97.5 247t248.5 106 q134 0 217.5 -87t83.5 -214q0 -144 -98.5 -248t-245.5 -104z"/>
<glyph glyph-name="Otilde" horiz-adv-x="719" unicode="Õ" d="M503 671q-33 0 -88 32.5t-72 32.5q-20 0 -31.5 -10.5t-21.5 -46.5h-13q14 60 34 85.5t57 25.5q32 0 87.5 -32.5t72.5 -32.5q20 0 31.5 11t22.5 46h14q-15 -59 -35.5 -85t-57.5 -26zM351 7q73 0 132.5 59t90 144.5t30.5 172.5q0 104 -53 170t-147 66q-75 0 -134.5 -60 t-89 -145t-29.5 -172q0 -104 53.5 -169.5t146.5 -65.5zM357 -14q-135 0 -219 86.5t-84 213.5q0 141 97.5 247t248.5 106q134 0 217.5 -87t83.5 -214q0 -144 -98.5 -248t-245.5 -104z"/>
<glyph glyph-name="Odieresis" horiz-adv-x="719" unicode="Ö" d="M334 687q-25 0 -39.5 17.5t-14.5 37.5q0 21 14.5 39.5t39.5 18.5t39.5 -18.5t14.5 -39.5q0 -20 -14.5 -37.5t-39.5 -17.5zM520 687q-25 0 -39.5 17.5t-14.5 37.5q0 21 14.5 39.5t39.5 18.5t39.5 -18.5t14.5 -39.5q0 -20 -14.5 -37.5t-39.5 -17.5zM351 7q73 0 132.5 59 t90 144.5t30.5 172.5q0 104 -53 170t-147 66q-75 0 -134.5 -60t-89 -145t-29.5 -172q0 -104 53.5 -169.5t146.5 -65.5zM357 -14q-135 0 -219 86.5t-84 213.5q0 141 97.5 247t248.5 106q134 0 217.5 -87t83.5 -214q0 -144 -98.5 -248t-245.5 -104z"/>
<glyph glyph-name="multiply" d="M37 61l175 175l-175 175l16 16l175 -175l175 175l16 -16l-175 -175l175 -175l-16 -16l-175 175l-175 -175z" unicode="×"/>
<glyph glyph-name="Oslash" horiz-adv-x="719" unicode="Ø" d="M199 79l347 479q-53 61 -142 61q-75 0 -134.5 -60t-89 -145t-29.5 -172q0 -98 48 -163zM585 580q55 -41 85.5 -105t30.5 -137q0 -144 -98.5 -248t-245.5 -104q-95 0 -168 46l-76 -105h-24l84 116q-56 41 -87.5 104.5t-31.5 138.5q0 141 97.5 247t248.5 106q95 0 170 -48 l71 98h23q-47 -66 -79 -109zM558 543l-346 -479q54 -57 139 -57q73 0 132.5 59t90 144.5t30.5 172.5q0 97 -46 160z"/>
<glyph glyph-name="Ugrave" horiz-adv-x="687" unicode="Ù" d="M464 664l-139 187h90l61 -187h-12zM345 -15q-108 0 -175.5 42.5t-67.5 127.5q0 36 10 81l67 352q1 5 -1.5 7.5t-13 5t-30.5 4.5l-42 5l-2 15h282l-4 -15l-52 -6q-41 -4 -44 -18l-65 -340q-8 -42 -8 -74q0 -150 175 -150q75 0 121 46.5t65 147.5l61 304q4 30 4 37 q0 25 -13 35t-45 14l-27 4l-2 15h215l-4 -15l-27 -4q-35 -4 -52.5 -21.5t-25.5 -66.5l-62 -309q-21 -112 -78.5 -168t-158.5 -56z"/>
<glyph glyph-name="Uacute" horiz-adv-x="687" unicode="Ú" d="M400 664l124 187h97l-209 -187h-12zM345 -15q-108 0 -175.5 42.5t-67.5 127.5q0 36 10 81l67 352q1 5 -1.5 7.5t-13 5t-30.5 4.5l-42 5l-2 15h282l-4 -15l-52 -6q-41 -4 -44 -18l-65 -340q-8 -42 -8 -74q0 -150 175 -150q75 0 121 46.5t65 147.5l61 304q4 30 4 37 q0 25 -13 35t-45 14l-27 4l-2 15h215l-4 -15l-27 -4q-35 -4 -52.5 -21.5t-25.5 -66.5l-62 -309q-21 -112 -78.5 -168t-158.5 -56z"/>
<glyph glyph-name="Ucircumflex" horiz-adv-x="687" unicode="Û" d="M305 656l152 194h32l81 -194h-12l-94 116h-3l-146 -116h-10zM345 -15q-108 0 -175.5 42.5t-67.5 127.5q0 36 10 81l67 352q1 5 -1.5 7.5t-13 5t-30.5 4.5l-42 5l-2 15h282l-4 -15l-52 -6q-41 -4 -44 -18l-65 -340q-8 -42 -8 -74q0 -150 175 -150q75 0 121 46.5t65 147.5 l61 304q4 30 4 37q0 25 -13 35t-45 14l-27 4l-2 15h215l-4 -15l-27 -4q-35 -4 -52.5 -21.5t-25.5 -66.5l-62 -309q-21 -112 -78.5 -168t-158.5 -56z"/>
<glyph glyph-name="Udieresis" horiz-adv-x="687" unicode="Ü" d="M344 687q-25 0 -39.5 17.5t-14.5 37.5q0 21 14.5 39.5t39.5 18.5t39.5 -18.5t14.5 -39.5q0 -20 -14.5 -37.5t-39.5 -17.5zM530 687q-25 0 -39.5 17.5t-14.5 37.5q0 21 14.5 39.5t39.5 18.5t39.5 -18.5t14.5 -39.5q0 -20 -14.5 -37.5t-39.5 -17.5zM345 -15 q-108 0 -175.5 42.5t-67.5 127.5q0 36 10 81l67 352q1 5 -1.5 7.5t-13 5t-30.5 4.5l-42 5l-2 15h282l-4 -15l-52 -6q-41 -4 -44 -18l-65 -340q-8 -42 -8 -74q0 -150 175 -150q75 0 121 46.5t65 147.5l61 304q4 30 4 37q0 25 -13 35t-45 14l-27 4l-2 15h215l-4 -15l-27 -4 q-35 -4 -52.5 -21.5t-25.5 -66.5l-62 -309q-21 -112 -78.5 -168t-158.5 -56z"/>
<glyph glyph-name="Yacute" horiz-adv-x="615" unicode="Ý" d="M359 664l124 187h97l-209 -187h-12zM123 0l3 15l58 6q42 4 44 18l46 237l-101 257q-15 40 -29 54t-42 18l-32 5l-1 15h272l-4 -15l-28 -2q-46 -3 -46 -31q0 -15 13 -51l81 -218h3l127 179q57 80 57 95q0 10 -11 14.5t-39 8.5l-29 5l-2 15h220l-4 -15l-26 -4 q-31 -5 -61 -30t-79 -92l-145 -201l-47 -246q-1 -4 2 -7t13 -5.5t30 -4.5l48 -5l1 -15h-292z"/>
<glyph glyph-name="Thorn" horiz-adv-x="556" unicode="Þ" d="M294 179q73 0 115 53t42 129q0 54 -30 85t-86 31h-78l-53 -281q49 -17 90 -17zM-20 0l3 15l52 6q42 4 45 18l105 549q1 5 -1.5 7.5t-13 5t-30.5 4.5l-42 5l-1 15h281l-4 -15l-52 -6q-41 -4 -44 -18l-17 -89h83q98 0 152.5 -43t54.5 -109q0 -82 -69.5 -134t-174.5 -52 q-42 0 -107 14l-27 -136q-1 -5 2 -8t13 -5.5t30 -3.5l55 -5l2 -15h-295z"/>
<glyph glyph-name="germandbls" horiz-adv-x="492" unicode="ß" d="M336 417q51 -38 89 -100t38 -125v-12q-4 -74 -55.5 -133t-118.5 -59h-4q-44 1 -75 28t-31 60q0 28 18.5 45.5t43.5 17.5h2q23 -1 36.5 -15.5t13.5 -33.5q0 -20 -15 -34.5t-41 -14.5h-3q4 -10 19 -22.5t34 -13.5h1q40 0 68 40t30 97v13q0 65 -36 132t-105 120l2 10 q74 5 110.5 38.5t39.5 103.5v8q0 35 -18.5 59.5t-51.5 24.5q-50 0 -72.5 -47.5t-48.5 -170.5l-65 -305q-50 -223 -113 -287q-41 -41 -106 -41q-33 0 -55.5 16.5t-22.5 42.5q0 19 13.5 34.5t34.5 15.5t35.5 -16t14.5 -39q0 -15 -5 -25q27 2 36 2q23 6 42.5 64t49.5 204 l55 294l-83 2l11 33l83 7q29 124 78.5 179.5t122.5 55.5q67 0 104 -33t37 -85v-9q-3 -52 -40.5 -83.5t-96.5 -42.5z"/>
<glyph glyph-name="agrave" horiz-adv-x="453" unicode="à" d="M303 497l-139 187h90l61 -187h-12zM140 47q43 0 145 195q7 13 15.5 40.5t8.5 37.5q-5 29 -30.5 51.5t-56.5 22.5q-24 0 -44 -20q-30 -31 -57 -111t-27 -140q0 -76 46 -76zM310 -13q-17 0 -49.5 13t-32.5 23q0 33 48 164h-4q-6 -10 -17 -28q-31 -51 -45.5 -74t-36 -50.5 t-38 -37t-35.5 -9.5q-37 0 -62 28.5t-25 75.5q0 75 40 151t95 132q65 67 127 67q24 0 34 -20t12 -71h4l34 95l75 -3l-72 -200l-57 -201l46 -7l70 91l9 -7q-30 -63 -63 -97.5t-57 -34.5z"/>
<glyph glyph-name="aacute" horiz-adv-x="453" unicode="á" d="M233 497l124 187h97l-209 -187h-12zM140 47q43 0 145 195q7 13 15.5 40.5t8.5 37.5q-5 29 -30.5 51.5t-56.5 22.5q-24 0 -44 -20q-30 -31 -57 -111t-27 -140q0 -76 46 -76zM310 -13q-17 0 -49.5 13t-32.5 23q0 33 48 164h-4q-6 -10 -17 -28q-31 -51 -45.5 -74t-36 -50.5 t-38 -37t-35.5 -9.5q-37 0 -62 28.5t-25 75.5q0 75 40 151t95 132q65 67 127 67q24 0 34 -20t12 -71h4l34 95l75 -3l-72 -200l-57 -201l46 -7l70 91l9 -7q-30 -63 -63 -97.5t-57 -34.5z"/>
<glyph glyph-name="acircumflex" horiz-adv-x="453" unicode="â" d="M138 489l152 194h32l81 -194h-12l-94 116h-3l-146 -116h-10zM140 47q43 0 145 195q7 13 15.5 40.5t8.5 37.5q-5 29 -30.5 51.5t-56.5 22.5q-24 0 -44 -20q-30 -31 -57 -111t-27 -140q0 -76 46 -76zM310 -13q-17 0 -49.5 13t-32.5 23q0 33 48 164h-4q-6 -10 -17 -28 q-31 -51 -45.5 -74t-36 -50.5t-38 -37t-35.5 -9.5q-37 0 -62 28.5t-25 75.5q0 75 40 151t95 132q65 67 127 67q24 0 34 -20t12 -71h4l34 95l75 -3l-72 -200l-57 -201l46 -7l70 91l9 -7q-30 -63 -63 -97.5t-57 -34.5z"/>
<glyph glyph-name="atilde" horiz-adv-x="453" unicode="ã" d="M372 504q-33 0 -88 32.5t-72 32.5q-20 0 -31.5 -10.5t-21.5 -46.5h-13q14 60 34 85.5t57 25.5q33 0 88 -32.5t72 -32.5q20 0 31.5 11t22.5 46h14q-15 -59 -35.5 -85t-57.5 -26zM140 47q43 0 145 195q7 13 15.5 40.5t8.5 37.5q-5 29 -30.5 51.5t-56.5 22.5q-24 0 -44 -20 q-30 -31 -57 -111t-27 -140q0 -76 46 -76zM310 -13q-17 0 -49.5 13t-32.5 23q0 33 48 164h-4q-6 -10 -17 -28q-31 -51 -45.5 -74t-36 -50.5t-38 -37t-35.5 -9.5q-37 0 -62 28.5t-25 75.5q0 75 40 151t95 132q65 67 127 67q24 0 34 -20t12 -71h4l34 95l75 -3l-72 -200 l-57 -201l46 -7l70 91l9 -7q-30 -63 -63 -97.5t-57 -34.5z"/>
<glyph glyph-name="adieresis" horiz-adv-x="453" unicode="ä" d="M193 520q-25 0 -39.5 17.5t-14.5 37.5q0 21 14.5 39.5t39.5 18.5t39.5 -18.5t14.5 -39.5q0 -20 -14.5 -37.5t-39.5 -17.5zM379 520q-25 0 -39.5 17.5t-14.5 37.5q0 21 14.5 39.5t39.5 18.5t39.5 -18.5t14.5 -39.5q0 -20 -14.5 -37.5t-39.5 -17.5zM140 47q43 0 145 195 q7 13 15.5 40.5t8.5 37.5q-5 29 -30.5 51.5t-56.5 22.5q-24 0 -44 -20q-30 -31 -57 -111t-27 -140q0 -76 46 -76zM310 -13q-17 0 -49.5 13t-32.5 23q0 33 48 164h-4q-6 -10 -17 -28q-31 -51 -45.5 -74t-36 -50.5t-38 -37t-35.5 -9.5q-37 0 -62 28.5t-25 75.5q0 75 40 151 t95 132q65 67 127 67q24 0 34 -20t12 -71h4l34 95l75 -3l-72 -200l-57 -201l46 -7l70 91l9 -7q-30 -63 -63 -97.5t-57 -34.5z"/>
<glyph glyph-name="aring" horiz-adv-x="453" unicode="å" d="M140 47q43 0 145 195q7 13 15.5 40.5t8.5 37.5q-5 29 -30.5 51.5t-56.5 22.5q-24 0 -44 -20q-30 -31 -57 -111t-27 -140q0 -76 46 -76zM291 518q33 0 53 22t20 54q0 31 -20 53t-53 22t-53 -22t-20 -53q0 -32 20 -54t53 -22zM310 -13q-17 0 -49.5 13t-32.5 23q0 33 48 164 h-4q-6 -10 -17 -28q-31 -51 -45.5 -74t-36 -50.5t-38 -37t-35.5 -9.5q-37 0 -62 28.5t-25 75.5q0 75 40 151t95 132q65 67 127 67q24 0 34 -20t12 -71h4l34 95l75 -3l-72 -200l-57 -201l46 -7l70 91l9 -7q-30 -63 -63 -97.5t-57 -34.5zM291 504q-40 0 -64.5 25.5t-24.5 62.5 q0 38 24 65t65 27q40 0 64.5 -26.5t24.5 -63.5q0 -38 -24.5 -64t-64.5 -26z"/>
<glyph glyph-name="ae" horiz-adv-x="604" unicode="æ" d="M135 49q47 0 146 193q23 44 26 70q-5 33 -31 57.5t-57 24.5q-25 0 -45 -20q-30 -31 -55 -107.5t-25 -137.5q0 -37 11.5 -58.5t29.5 -21.5zM354 227q101 32 140 64t39 81q0 21 -15 35.5t-35 14.5q-23 0 -50 -25q-50 -48 -81 -169zM97 -13q-37 0 -60.5 31t-23.5 80 q0 75 38.5 148t93.5 129q68 70 125 70q56 0 65 -105q77 106 167 106q48 0 77 -22.5t29 -59.5q0 -47 -58.5 -79t-198.5 -72q-9 -31 -9 -67q0 -105 82 -105q32 0 60 20t66 70l9 -7q-87 -137 -174 -137q-55 0 -91 42t-36 102q0 22 2 33q-59 -94 -94.5 -135.5t-68.5 -41.5z"/>
<glyph glyph-name="ccedilla" horiz-adv-x="354" unicode="ç" d="M130 -12q-50 4 -82.5 45.5t-32.5 97.5q0 111 78 213t174 102q40 0 71 -22t31 -54q0 -23 -15.5 -39.5t-35.5 -16.5q-19 0 -33 11.5t-14 28.5q0 27 27 47q-26 23 -53 23q-24 0 -55 -31q-36 -36 -63.5 -109t-27.5 -138q0 -105 77 -105q33 0 59.5 19.5t66.5 70.5l9 -7 q-39 -61 -77 -97t-82 -40l-54 -50h13q51 0 83.5 -21t32.5 -55q0 -57 -64 -86.5t-166 -34.5l-1 11q168 15 168 90q0 48 -83 48q-23 0 -55 -5l2 11z"/>
<glyph glyph-name="egrave" horiz-adv-x="362" unicode="è" d="M268 497l-139 187h90l61 -187h-12zM112 227q101 32 140 64t39 81q0 21 -15 35.5t-35 14.5q-24 0 -51 -25q-51 -51 -80 -169zM142 -13q-55 0 -91 42t-36 102q0 112 77.5 213.5t167.5 101.5q48 0 77 -22.5t29 -59.5q0 -47 -58.5 -79t-199.5 -72q-9 -38 -9 -67 q0 -105 82 -105q32 0 60 20t67 70l9 -7q-87 -137 -175 -137z"/>
<glyph glyph-name="eacute" horiz-adv-x="362" unicode="é" d="M215 497l124 187h97l-209 -187h-12zM112 227q101 32 140 64t39 81q0 21 -15 35.5t-35 14.5q-24 0 -51 -25q-51 -51 -80 -169zM142 -13q-55 0 -91 42t-36 102q0 112 77.5 213.5t167.5 101.5q48 0 77 -22.5t29 -59.5q0 -47 -58.5 -79t-199.5 -72q-9 -38 -9 -67 q0 -105 82 -105q32 0 60 20t67 70l9 -7q-87 -137 -175 -137z"/>
<glyph glyph-name="ecircumflex" horiz-adv-x="362" unicode="ê" d="M118 489l152 194h32l81 -194h-12l-94 116h-3l-146 -116h-10zM112 227q101 32 140 64t39 81q0 21 -15 35.5t-35 14.5q-24 0 -51 -25q-51 -51 -80 -169zM142 -13q-55 0 -91 42t-36 102q0 112 77.5 213.5t167.5 101.5q48 0 77 -22.5t29 -59.5q0 -47 -58.5 -79t-199.5 -72 q-9 -38 -9 -67q0 -105 82 -105q32 0 60 20t67 70l9 -7q-87 -137 -175 -137z"/>
<glyph glyph-name="edieresis" horiz-adv-x="362" unicode="ë" d="M165 520q-25 0 -39.5 17.5t-14.5 37.5q0 21 14.5 39.5t39.5 18.5t39.5 -18.5t14.5 -39.5q0 -20 -14.5 -37.5t-39.5 -17.5zM351 520q-25 0 -39.5 17.5t-14.5 37.5q0 21 14.5 39.5t39.5 18.5t39.5 -18.5t14.5 -39.5q0 -20 -14.5 -37.5t-39.5 -17.5zM112 227q101 32 140 64 t39 81q0 21 -15 35.5t-35 14.5q-24 0 -51 -25q-51 -51 -80 -169zM142 -13q-55 0 -91 42t-36 102q0 112 77.5 213.5t167.5 101.5q48 0 77 -22.5t29 -59.5q0 -47 -58.5 -79t-199.5 -72q-9 -38 -9 -67q0 -105 82 -105q32 0 60 20t67 70l9 -7q-87 -137 -175 -137z"/>
<glyph glyph-name="igrave" horiz-adv-x="249" unicode="ì" d="M196 497l-139 187h90l61 -187h-12zM103 -13q-17 0 -49 12t-32 21q0 6 126 371l-54 5l-67 -96l-10 8q31 64 67.5 101t67.5 37q21 0 43.5 -17.5t22.5 -37.5q0 -11 -24 -82.5t-57 -162.5t-37 -103l51 -8l70 90l9 -7q-29 -61 -65.5 -96t-61.5 -35z"/>
<glyph glyph-name="iacute" horiz-adv-x="249" unicode="í" d="M132 497l124 187h97l-209 -187h-12zM103 -13q-17 0 -49 12t-32 21q0 6 126 371l-54 5l-67 -96l-10 8q31 64 67.5 101t67.5 37q21 0 43.5 -17.5t22.5 -37.5q0 -11 -24 -82.5t-57 -162.5t-37 -103l51 -8l70 90l9 -7q-29 -61 -65.5 -96t-61.5 -35z"/>
<glyph glyph-name="icircumflex" horiz-adv-x="249" unicode="î" d="M103 -13q-17 0 -49 12t-32 21q0 6 126 371l-54 5l-67 -96l-10 8q31 64 67.5 101t67.5 37q21 0 43.5 -17.5t22.5 -37.5q0 -11 -24 -82.5t-57 -162.5t-37 -103l51 -8l70 90l9 -7q-29 -61 -65.5 -96t-61.5 -35zM46 491l146 193h32l74 -193h-13l-90 116h-3l-135 -116h-11z "/>
<glyph glyph-name="idieresis" horiz-adv-x="249" unicode="ï" d="M106 520q-25 0 -39.5 17.5t-14.5 37.5q0 21 14.5 39.5t39.5 18.5t39.5 -18.5t14.5 -39.5q0 -20 -14.5 -37.5t-39.5 -17.5zM292 520q-25 0 -39.5 17.5t-14.5 37.5q0 21 14.5 39.5t39.5 18.5t39.5 -18.5t14.5 -39.5q0 -20 -14.5 -37.5t-39.5 -17.5zM103 -13q-17 0 -49 12 t-32 21q0 6 126 371l-54 5l-67 -96l-10 8q31 64 67.5 101t67.5 37q21 0 43.5 -17.5t22.5 -37.5q0 -11 -24 -82.5t-57 -162.5t-37 -103l51 -8l70 90l9 -7q-29 -61 -65.5 -96t-61.5 -35z"/>
<glyph glyph-name="eth" horiz-adv-x="414" unicode="ð" d="M155 6q44 0 81.5 52t58.5 124q17 59 17 130q0 50 -16 81t-43 31q-36 0 -76 -60t-62 -130q-18 -62 -18 -118q0 -47 15.5 -78.5t42.5 -31.5zM235 558l-131 -40l6 22l111 34q-40 44 -89 63l7 18q70 -21 126 -68l125 39l-4 -21l-104 -32q53 -51 83 -120t31 -146 q0 -121 -72.5 -220t-160.5 -99q-63 0 -102 53t-39 132q0 95 69 182.5t148 87.5q42 0 64 -28q-20 83 -68 143z"/>
<glyph glyph-name="ntilde" horiz-adv-x="483" unicode="ñ" d="M367 504q-33 0 -88 32.5t-72 32.5q-20 0 -31.5 -10.5t-21.5 -46.5h-13q14 60 34 85.5t57 25.5q32 0 87 -32.5t73 -32.5q20 0 31.5 11t22.5 46h14q-15 -59 -35.5 -85t-57.5 -26zM335 -13q-17 0 -48 13t-31 23q0 12 66 191q5 15 15.5 41.5t16 42t10.5 31.5t5 23 q0 15 -14.5 27t-31.5 12q-23 0 -73 -75.5t-114 -210.5l-33 -109l-81 5l51 160l62 230l-43 5l-68 -96l-9 8q30 65 64.5 102t64.5 37q16 0 40.5 -18.5t24.5 -37.5q0 -20 -22 -94.5t-47 -138.5l5 -2q98 199 152 253q36 36 75 36q28 0 51 -18t23 -41q0 -40 -48 -169 q-61 -165 -66 -175l46 -7l70 91l9 -7q-30 -62 -64 -97t-58 -35z"/>
<glyph glyph-name="ograve" horiz-adv-x="410" unicode="ò" d="M295 497l-139 187h90l61 -187h-12zM155 6q44 0 80 51.5t57 124.5q17 59 17 130q0 51 -14.5 82t-41.5 31q-36 0 -76 -60t-62 -131q-18 -62 -18 -118q0 -47 15.5 -78.5t42.5 -31.5zM163 -12q-63 0 -102 53t-39 132q0 95 69.5 183t148.5 88q65 0 106.5 -53t41.5 -131 q0 -96 -71.5 -184t-153.5 -88z"/>
<glyph glyph-name="oacute" horiz-adv-x="410" unicode="ó" d="M221 497l124 187h97l-209 -187h-12zM155 6q44 0 80 51.5t57 124.5q17 59 17 130q0 51 -14.5 82t-41.5 31q-36 0 -76 -60t-62 -131q-18 -62 -18 -118q0 -47 15.5 -78.5t42.5 -31.5zM163 -12q-63 0 -102 53t-39 132q0 95 69.5 183t148.5 88q65 0 106.5 -53t41.5 -131 q0 -96 -71.5 -184t-153.5 -88z"/>
<glyph glyph-name="ocircumflex" horiz-adv-x="410" unicode="ô" d="M131 489l152 194h32l81 -194h-12l-94 116h-3l-146 -116h-10zM155 6q44 0 80 51.5t57 124.5q17 59 17 130q0 51 -14.5 82t-41.5 31q-36 0 -76 -60t-62 -131q-18 -62 -18 -118q0 -47 15.5 -78.5t42.5 -31.5zM163 -12q-63 0 -102 53t-39 132q0 95 69.5 183t148.5 88 q65 0 106.5 -53t41.5 -131q0 -96 -71.5 -184t-153.5 -88z"/>
<glyph glyph-name="otilde" horiz-adv-x="410" unicode="õ" d="M345 504q-33 0 -88 32.5t-72 32.5q-20 0 -31.5 -10.5t-21.5 -46.5h-13q14 60 34 85.5t57 25.5q32 0 87 -32.5t73 -32.5q20 0 31.5 11t22.5 46h14q-15 -59 -35.5 -85t-57.5 -26zM155 6q44 0 80 51.5t57 124.5q17 59 17 130q0 51 -14.5 82t-41.5 31q-36 0 -76 -60t-62 -131 q-18 -62 -18 -118q0 -47 15.5 -78.5t42.5 -31.5zM163 -12q-63 0 -102 53t-39 132q0 95 69.5 183t148.5 88q65 0 106.5 -53t41.5 -131q0 -96 -71.5 -184t-153.5 -88z"/>
<glyph glyph-name="odieresis" horiz-adv-x="410" unicode="ö" d="M188 520q-25 0 -39.5 17.5t-14.5 37.5q0 21 14.5 39.5t39.5 18.5t39.5 -18.5t14.5 -39.5q0 -20 -14.5 -37.5t-39.5 -17.5zM374 520q-25 0 -39.5 17.5t-14.5 37.5q0 21 14.5 39.5t39.5 18.5t39.5 -18.5t14.5 -39.5q0 -20 -14.5 -37.5t-39.5 -17.5zM155 6q44 0 80 51.5 t57 124.5q17 59 17 130q0 51 -14.5 82t-41.5 31q-36 0 -76 -60t-62 -131q-18 -62 -18 -118q0 -47 15.5 -78.5t42.5 -31.5zM163 -12q-63 0 -102 53t-39 132q0 95 69.5 183t148.5 88q65 0 106.5 -53t41.5 -131q0 -96 -71.5 -184t-153.5 -88z"/>
<glyph glyph-name="divide" d="M277 98q0 -20 -14 -35t-35 -15t-35.5 15t-14.5 35q0 19 14.5 33t35.5 14t35 -14t14 -33zM428 225h-400l3 22h394zM277 377q0 -20 -14.5 -35t-35.5 -15t-35 15t-14 35q0 19 14 33.5t35 14.5t35.5 -14.5t14.5 -33.5z" unicode="÷"/>
<glyph glyph-name="oslash" horiz-adv-x="410" unicode="ø" d="M307 341l-203 -282q15 -52 51 -52q44 0 80 51t57 123q17 60 17 131q0 20 -2 29zM99 81l205 284q-15 59 -51 59t-76 -60t-62 -130q-18 -62 -18 -118q0 -13 2 -35zM344 393q44 -52 44 -133q0 -97 -71.5 -184.5t-153.5 -87.5q-49 0 -85 34l-108 -150h-21l117 162 q-44 53 -44 139q0 95 69.5 182.5t148.5 87.5q53 0 93 -38l124 173h21q-133 -185 -134 -185z"/>
<glyph glyph-name="ugrave" horiz-adv-x="483" unicode="ù" d="M330 497l-139 187h90l61 -187h-12zM339 -14q-16 0 -40 18.5t-24 37.5q0 21 22 96t46 138l-5 1q-100 -202 -151 -253q-36 -36 -75 -36q-28 0 -51 18t-23 41q0 40 48 169l65 176l-46 5l-68 -97l-10 7q30 65 64 102t58 37q17 0 48 -13t31 -23q0 -12 -66 -191 q-5 -13 -12.5 -33.5t-13 -34.5t-10.5 -29.5t-8 -26t-3 -15.5q0 -14 14.5 -26t31.5 -12q23 0 73 75.5t114 209.5l33 110l80 -5l-50 -160q-60 -221 -63 -231l43 -6l69 90l9 -7q-30 -63 -65 -97.5t-65 -34.5z"/>
<glyph glyph-name="uacute" horiz-adv-x="483" unicode="ú" d="M259 497l124 187h97l-209 -187h-12zM339 -14q-16 0 -40 18.5t-24 37.5q0 21 22 96t46 138l-5 1q-100 -202 -151 -253q-36 -36 -75 -36q-28 0 -51 18t-23 41q0 40 48 169l65 176l-46 5l-68 -97l-10 7q30 65 64 102t58 37q17 0 48 -13t31 -23q0 -12 -66 -191 q-5 -13 -12.5 -33.5t-13 -34.5t-10.5 -29.5t-8 -26t-3 -15.5q0 -14 14.5 -26t31.5 -12q23 0 73 75.5t114 209.5l33 110l80 -5l-50 -160q-60 -221 -63 -231l43 -6l69 90l9 -7q-30 -63 -65 -97.5t-65 -34.5z"/>
<glyph glyph-name="ucircumflex" horiz-adv-x="483" unicode="û" d="M169 489l152 194h32l81 -194h-12l-94 116h-3l-146 -116h-10zM339 -14q-16 0 -40 18.5t-24 37.5q0 21 22 96t46 138l-5 1q-100 -202 -151 -253q-36 -36 -75 -36q-28 0 -51 18t-23 41q0 40 48 169l65 176l-46 5l-68 -97l-10 7q30 65 64 102t58 37q17 0 48 -13t31 -23 q0 -12 -66 -191q-5 -13 -12.5 -33.5t-13 -34.5t-10.5 -29.5t-8 -26t-3 -15.5q0 -14 14.5 -26t31.5 -12q23 0 73 75.5t114 209.5l33 110l80 -5l-50 -160q-60 -221 -63 -231l43 -6l69 90l9 -7q-30 -63 -65 -97.5t-65 -34.5z"/>
<glyph glyph-name="udieresis" horiz-adv-x="483" unicode="ü" d="M412 520q-25 0 -39.5 17.5t-14.5 37.5q0 21 14.5 39.5t39.5 18.5t39.5 -18.5t14.5 -39.5q0 -20 -14.5 -37.5t-39.5 -17.5zM226 520q-25 0 -39.5 17.5t-14.5 37.5q0 21 14.5 39.5t39.5 18.5t39.5 -18.5t14.5 -39.5q0 -20 -14.5 -37.5t-39.5 -17.5zM339 -14q-16 0 -40 18.5 t-24 37.5q0 21 22 96t46 138l-5 1q-100 -202 -151 -253q-36 -36 -75 -36q-28 0 -51 18t-23 41q0 40 48 169l65 176l-46 5l-68 -97l-10 7q30 65 64 102t58 37q17 0 48 -13t31 -23q0 -12 -66 -191q-5 -13 -12.5 -33.5t-13 -34.5t-10.5 -29.5t-8 -26t-3 -15.5q0 -14 14.5 -26 t31.5 -12q23 0 73 75.5t114 209.5l33 110l80 -5l-50 -160q-60 -221 -63 -231l43 -6l69 90l9 -7q-30 -63 -65 -97.5t-65 -34.5z"/>
<glyph glyph-name="yacute" horiz-adv-x="423" unicode="ý" d="M245 497l124 187h97l-209 -187h-12zM-46 -204q-39 0 -60.5 16.5t-21.5 46.5q0 21 15 34.5t35 13.5q22 0 36.5 -14.5t14.5 -36.5q0 -11 -5 -24l31 -8q32 7 88 51.5t92 84.5q0 168 -22.5 302t-53.5 134l-20 1l-63 -97l-10 8q35 74 60.5 106t62.5 32q44 0 68.5 -35.5 t35.5 -119t13 -239.5l4 -1q39 65 79.5 166t41.5 148q-14 -8 -27 -8q-21 0 -36.5 14.5t-15.5 32.5q0 20 13 34t35 14q24 0 41.5 -18t17.5 -52q0 -87 -70 -221.5t-140 -202.5q-1 -1 -20 -19.5t-26 -25.5t-27.5 -26t-33 -28t-32.5 -23.5t-35 -21.5t-32.5 -12.5t-32.5 -5.5z"/>
<glyph glyph-name="thorn" horiz-adv-x="418" unicode="þ" d="M167 5q24 0 52 30q37 37 69.5 120t32.5 142q0 90 -46 90q-30 0 -65 -52t-85 -161q-10 -24 -20 -60t-10 -46q7 -24 28.5 -43.5t43.5 -19.5zM-132 -251l2 15l30 4q21 2 29 5t10 12l225 816q6 21 -5 23l-75 10l3 12l176 27l-31 -115q-68 -223 -105 -338q-2 -5 0 -6q2 -2 5 4 q56 122 99.5 174.5t85.5 52.5q38 0 61 -39.5t23 -99.5q0 -118 -78 -218.5t-168 -100.5q-45 0 -70 43h-1l-67 -247q-1 -4 2.5 -7t14 -5.5t28.5 -2.5l41 -4l2 -15h-237z"/>
<glyph glyph-name="OE" horiz-adv-x="932" unicode="Œ" d="M375 19h52l108 568l-66 21q-125 -2 -204.5 -76.5t-99.5 -210.5q-6 -35 -6 -68q0 -102 53.5 -168t162.5 -66zM353 0q-146 0 -221.5 73t-75.5 188q0 29 4 53q20 137 126 224t273 87h446l-3 -192h-16l-6 38q-12 40 -20.5 59t-29 40t-55.5 28.5t-91 7.5h-51l-52 -276l32 1 q74 2 103.5 15.5t48.5 52.5l12 28l16 -1l-47 -213l-16 1l3 29q1 6 1 16q0 31 -25.5 40t-103.5 12l-28 1l-55 -290l87 -3q57 0 98 10t69.5 32.5t44 42.5t37.5 56l18 37l20 -1l-65 -196h-478z"/>
<glyph glyph-name="oe" horiz-adv-x="635" unicode="œ" d="M155 6q44 0 80 51.5t57 124.5q17 59 17 130q0 51 -14.5 82t-41.5 31q-36 0 -76 -60t-62 -131q-18 -62 -18 -118q0 -47 15.5 -78.5t42.5 -31.5zM385 227q101 32 140 64t39 81q0 21 -15 35.5t-35 14.5q-24 0 -51 -25q-51 -51 -80 -169zM163 -12q-63 0 -102 52.5t-39 132.5 q0 95 69 183t149 88q45 0 78.5 -26.5t49.5 -71.5q34 46 77 73t88 27q48 0 77 -22.5t29 -59.5q0 -47 -58.5 -79t-199.5 -72q-9 -38 -9 -67q0 -105 82 -105q32 0 60 20t67 70l9 -7q-86 -136 -175 -136q-79 0 -110 77q-64 -77 -142 -77z"/>
<glyph glyph-name="Scaron" horiz-adv-x="496" unicode="Š" d="M310 656l-81 194h12l95 -116h3l144 116h11l-153 -194h-31zM216 -13q-118 0 -207 48l23 156h16l18 -83q17 -50 56.5 -75.5t94.5 -25.5q63 0 105 40.5t42 99.5q0 44 -31.5 77.5t-92.5 66.5q-70 39 -105.5 80t-35.5 100q0 66 56.5 117t142.5 51q70 0 155 -31l42 10l-31 -170 l-15 1l-31 125q-53 44 -118 44q-50 0 -86 -30.5t-36 -77.5q0 -46 27 -76t95 -66q74 -41 111.5 -83.5t37.5 -103.5q0 -76 -65.5 -135t-167.5 -59z"/>
<glyph glyph-name="scaron" horiz-adv-x="321" unicode="š" d="M222 489l-81 194h12l95 -116h3l144 116h11l-153 -194h-31zM116 -13q-53 0 -90.5 22t-37.5 62q0 21 14.5 36t36.5 15q17 0 28 -13t11 -29q0 -11 -7.5 -25.5t-15.5 -20.5q41 -26 83 -28q31 2 50.5 29t20.5 53q0 12 -3.5 23t-13 23t-14 18t-20.5 21t-20 19q-28 27 -40.5 41 t-26 38t-13.5 47q0 56 46 91.5t102 35.5q114 0 114 -78q0 -23 -14.5 -36.5t-35.5 -13.5q-17 0 -28.5 13t-11.5 30q0 26 24 43q-39 21 -64 22q-31 -1 -48.5 -26t-17.5 -52q0 -6 1 -11.5t3.5 -11.5t5 -11t7.5 -11.5t8 -10t10 -11t10 -10.5l11 -11l11 -11l13 -13l15 -15 t13.5 -14.5t13.5 -16.5t10.5 -16t10 -18.5t5 -18t2.5 -20.5q0 -54 -50.5 -91.5t-107.5 -37.5z"/>
<glyph glyph-name="Ydieresis" horiz-adv-x="615" unicode="Ÿ" d="M296 687q-25 0 -39.5 17.5t-14.5 37.5q0 21 14.5 39.5t39.5 18.5t39.5 -18.5t14.5 -39.5q0 -20 -14.5 -37.5t-39.5 -17.5zM482 687q-25 0 -39.5 17.5t-14.5 37.5q0 21 14.5 39.5t39.5 18.5t39.5 -18.5t14.5 -39.5q0 -20 -14.5 -37.5t-39.5 -17.5zM123 0l3 15l58 6 q42 4 44 18l46 237l-101 257q-15 40 -29 54t-42 18l-32 5l-1 15h272l-4 -15l-28 -2q-46 -3 -46 -31q0 -15 13 -51l81 -218h3l127 179q57 80 57 95q0 10 -11 14.5t-39 8.5l-29 5l-2 15h220l-4 -15l-26 -4q-31 -5 -61 -30t-79 -92l-145 -201l-47 -246q-1 -4 2 -7t13 -5.5 t30 -4.5l48 -5l1 -15h-292z"/>
<glyph glyph-name="circumflex" horiz-adv-x="379" unicode="ˆ" d="M106 489l152 194h32l81 -194h-12l-94 116h-3l-146 -116h-10z"/>
<glyph glyph-name="tilde" horiz-adv-x="379" unicode="˜" d="M319 504q-33 0 -88 32.5t-72 32.5q-20 0 -31.5 -10.5t-21.5 -46.5h-13q14 60 34 85.5t57 25.5q32 0 87 -32.5t73 -32.5q20 0 31.5 11t22.5 46h14q-15 -59 -35.5 -85t-57.5 -26z"/>
<glyph glyph-name="thinspace" horiz-adv-x="60" unicode=" "/>
<glyph glyph-name="endash" horiz-adv-x="439" unicode="–" d="M12 212l10 44h412l-8 -44h-414z"/>
<glyph glyph-name="emdash" horiz-adv-x="909" unicode="—" d="M12 212l10 44h882l-7 -44h-885z"/>
<glyph glyph-name="quoteleft" horiz-adv-x="196" unicode="‘" d="M148 402q-32 0 -52.5 22.5t-20.5 55.5q0 55 49 101t131 69l6 -8q-47 -19 -81 -52.5t-34 -69.5q0 -15 7 -27t16.5 -19t19 -12t16.5 -7t7 -3q-5 -21 -21.5 -35.5t-42.5 -14.5z"/>
<glyph glyph-name="quotesinglbase" horiz-adv-x="196" unicode="‚" d="M-34 -127l-9 9q44 17 76 48.5t32 67.5q0 15 -7.5 27.5t-17.5 19.5t-20.5 12t-18 7t-7.5 3q3 20 20 35.5t42 15.5q32 0 54 -23.5t22 -58.5q0 -53 -46 -97.5t-120 -65.5z"/>
<glyph glyph-name="quotedblleft" horiz-adv-x="379" unicode="“" d="M150 402q-32 0 -53.5 23.5t-21.5 57.5q0 53 46 97.5t120 65.5l8 -8q-44 -18 -75.5 -49.5t-31.5 -66.5q0 -15 7 -28t17.5 -20t21 -12t17.5 -7t7 -3q-2 -20 -19.5 -35t-42.5 -15zM338 402q-32 0 -53.5 23t-21.5 58q0 53 46 97.5t119 65.5l9 -8q-44 -18 -75.5 -49.5 t-31.5 -66.5q0 -15 7 -28t17.5 -20t21 -12t17.5 -7t7 -3q-3 -20 -20 -35t-42 -15z"/>
<glyph glyph-name="quotedblright" horiz-adv-x="379" unicode="”" d="M70 408l-9 9q44 17 76 49t32 67q0 15 -7 27.5t-17.5 19.5t-21 12t-17.5 7t-7 3q0 19 18.5 35t43.5 16q32 0 53.5 -24t21.5 -58q0 -53 -46 -97.5t-120 -65.5zM257 408l-8 9q44 17 75.5 48.5t31.5 67.5q0 15 -7 27.5t-17.5 19.5t-21 12t-17.5 7t-7 3q0 19 18.5 35t43.5 16 q32 0 53.5 -24t21.5 -58q0 -53 -46 -97.5t-120 -65.5z"/>
<glyph glyph-name="dagger" horiz-adv-x="444" unicode="†" d="M165 -156l85 563h-195l-1 19h197l30 199h20l-30 -199h197l-3 -19h-195l-85 -563h-20z"/>
<glyph glyph-name="daggerdbl" horiz-adv-x="444" unicode="‡" d="M166 -156l28 187h-197l4 20h195l56 366h-195l-1 20h197l29 188h19l-28 -188h197l-3 -20h-196l-56 -366h196v-20h-197l-29 -187h-19z"/>
<glyph glyph-name="ellipsis" horiz-adv-x="631" unicode="…" d="M68 -13q-27 0 -45 18.5t-18 43.5q0 24 18 42t44 18q27 0 44.5 -17.5t17.5 -42.5t-17.5 -43.5t-43.5 -18.5zM285 -13q-26 0 -44 18.5t-18 43.5q0 24 17.5 42t43.5 18t44 -17.5t18 -42.5t-17.5 -43.5t-43.5 -18.5zM502 -13q-26 0 -44 18.5t-18 43.5t18 42.5t44 17.5 t43.5 -18t17.5 -42q0 -25 -17.5 -43.5t-43.5 -18.5z"/>
<glyph glyph-name="perthousand" horiz-adv-x="924" unicode="‰" d="M443 4q52 0 85 35.5t33 87.5q0 49 -31.5 82t-80.5 33q-52 0 -85 -36.5t-33 -87.5q0 -50 31 -82t81 -32zM758 4q52 0 85.5 35.5t33.5 87.5q0 49 -31.5 82t-81.5 33q-52 0 -85 -36.5t-33 -87.5q0 -50 31 -82t81 -32zM200 384q52 0 85 35t33 86q0 50 -31 83.5t-81 33.5 q-52 0 -85 -36.5t-33 -87.5q0 -50 31 -82t81 -32zM441 -16q-59 0 -96 37.5t-37 94.5q0 61 40 103.5t102 42.5q59 0 96.5 -38.5t37.5 -95.5q0 -60 -40 -102t-103 -42zM757 -16q-60 0 -96.5 37.5t-36.5 94.5q0 61 39.5 103.5t101.5 42.5q59 0 96.5 -38.5t37.5 -95.5 q0 -60 -40 -102t-102 -42zM11 -14l598 654h26l-597 -654h-27zM199 364q-59 0 -96.5 38t-37.5 95q0 60 40 102.5t102 42.5q60 0 97.5 -38.5t37.5 -95.5q0 -60 -40 -102t-103 -42z"/>
<glyph glyph-name="guilsinglleft" horiz-adv-x="266" unicode="‹" d="M203 48l-185 167l2 19l249 164l4 -10l-170 -172l107 -157z"/>
<glyph glyph-name="guilsinglright" horiz-adv-x="267" unicode="›" d="M3 47l-4 10l165 169l-103 159l7 12l185 -168l-3 -20z"/>
<glyph glyph-name="fraction" horiz-adv-x="507" unicode="⁄" d="M-41 -14l590 654h29l-591 -654h-28z"/>
<glyph glyph-name="Euro" horiz-adv-x="496" unicode="€" d="M286 -14q-93 0 -148 68.5t-65 165.5h-70l3 19h65q0 3 0.5 8t0.5 8q0 52 10 93h-55l3 19h57q34 116 123.5 190.5t187.5 74.5q65 0 104 -23.5t39 -57.5q0 -22 -14.5 -38t-37.5 -16t-35.5 17t-12.5 40q0 19 8 33q-21 24 -60 24q-81 0 -136.5 -65.5t-78.5 -178.5h199l3 -19 h-205q-8 -43 -8 -85q0 -16 1 -24h186l3 -19h-187q9 -83 53.5 -132t116.5 -49q68 0 136 63l8 -11q-40 -50 -91 -77.5t-103 -27.5z"/>
<glyph glyph-name="trademark" horiz-adv-x="559" unicode="™" d="M159 403l1 11l21 2q12 1 12 7v191h-7q-41 0 -64 -57l-4 -9h-9l8 77h201l3 -76h-10l-3 9q-11 30 -24.5 43t-39.5 13h-7v-192q0 -4 13 -6l19 -2v-11h-110zM343 403l1 11l13 1q12 1 15.5 8.5t4.5 37.5l4 140q-5 10 -16 11l-15 3l-1 10h83l49 -162h4l56 162h87l-1 -10l-19 -3 q-13 -1 -13 -7l4 -168q0 -8 1.5 -12.5t4.5 -6t9 -2.5l15 -2l1 -11h-105l1 11l17 2q11 2 11 22l-3 165h-4l-70 -196h-18l-63 193q-3 1 -3 0l-3 -141v-13q0 -19 3.5 -24t15.5 -7l13 -1l1 -11h-80z"/>
<glyph glyph-name="minus" d="M414 225h-372l3 22h366z" unicode="−"/>
<glyph glyph-name="approxequal" d="M415 367h22q-17 -94 -106 -94q-33 0 -104 33.5t-102 33.5q-34 0 -54.5 -15t-29.5 -57h-22q17 94 106 94q33 0 104 -33.5t102 -33.5q36 0 55.5 15t28.5 57zM415 203h22q-17 -94 -106 -94q-33 0 -104 33.5t-102 33.5q-34 0 -54.5 -15t-29.5 -57h-22q17 94 106 94 q33 0 104 -33.5t102 -33.5q36 0 55.5 15t28.5 57z" unicode="≈"/>
<glyph glyph-name="notequal" d="M33 311l-3 22h215l43 150h23l-43 -150h158l-3 -22h-161l-43 -151h204l3 -22h-213l-45 -160h-23l45 160h-160l3 22h163l43 151h-206z" unicode="≠"/>
<glyph glyph-name="lessequal" horiz-adv-x="438" unicode="≤" d="M413 87l-396 173v14l396 173l8 -20l-366 -157v-4l366 -159zM422 27h-405l3 22h399z"/>
<glyph glyph-name="greaterequal" horiz-adv-x="438" unicode="≥" d="M429 260l-396 -173l-8 20l366 159v4l-366 157l8 20l396 -173v-14zM429 27h-405l3 22h399z"/>
</font>
</defs>
</svg>
