<?xml version="1.0" encoding="UTF-8" standalone="no"?>
<!DOCTYPE svg  PUBLIC '-//W3C//DTD SVG 1.1//EN'  'http://www.w3.org/Graphics/SVG/1.1/DTD/svg11.dtd'>
<svg xmlns="http://www.w3.org/2000/svg">
<defs>
<font id="FreightTextProBold-Regular" horiz-adv-x="480">
<font-face underline-position="-113" font-weight="700" descent="-200" panose-1="2 0 8 3 8 0 0 2 0 4" units-per-em="1000" unicode-range="U+0020-2265" bbox="-79 -275 1109 879" x-height="453" underline-thickness="20" font-family="FreightTextProBold" ascent="800" cap-height="625"/>
<missing-glyph horiz-adv-x="1000"/>
<glyph glyph-name=".notdef" horiz-adv-x="1000"/>
<glyph glyph-name=".null" horiz-adv-x="0"/>
<glyph glyph-name="nonmarkingreturn" horiz-adv-x="333"/>
<glyph glyph-name="space" horiz-adv-x="228" unicode=" "/>
<glyph glyph-name="exclam" horiz-adv-x="294" unicode="!" d="M217 54q0 -28 -20 -49t-49 -21t-49.5 20.5t-20.5 49.5t20.5 49t49.5 20t49 -20.5t20 -48.5zM213 586l-52 -385q-1 -7 -13 -7t-12 7l-53 385q0 2 -0.5 5t-0.5 4q0 44 65 44h2q65 0 65 -44q0 -1 -0.5 -4t-0.5 -5z"/>
<glyph glyph-name="quotedbl" horiz-adv-x="395" unicode='&quot;' d="M211 614l-158 -211h-46l111 242h2zM382 614l-158 -211h-45l111 242h1z"/>
<glyph glyph-name="numbersign" horiz-adv-x="581" unicode="#" d="M349 225l46 173h-157l-47 -173h158zM581 398h-137l-47 -173h125v-48h-137l-49 -183h-49l49 183h-157l-50 -183h-49l50 183h-125v48h137l47 173h-125v47h137l51 186h49l-50 -186h156l50 186h49l-50 -186h125v-47z"/>
<glyph glyph-name="dollar" horiz-adv-x="545" unicode="$" d="M279 253l-55 -212q26 -4 38 -4h8q61 0 92.5 28.5t31.5 70.5q0 46 -28 70.5t-87 46.5zM264 396l48 186q-22 4 -34 4q-54 0 -84 -25.5t-30 -62.5q0 -38 25 -61t75 -41zM210 -14l-35 -138h-50l37 143q-38 5 -97 22l-10 193h63l43 -153q1 -1 15 -4l57 220q-87 29 -131.5 69 t-44.5 113q0 79 60 133t170 54q28 0 39 -1l26 100h50l-27 -104q5 -1 21.5 -4t26.5 -5l53 15v-208h-61l-38 138q-5 3 -17 5l-50 -194q98 -33 147 -75t49 -121q0 -83 -66 -141t-179 -59q-19 0 -51 2z"/>
<glyph glyph-name="percent" horiz-adv-x="746" unicode="%" d="M680 142q0 49 -32 84.5t-85 35.5t-85 -35.5t-32 -84.5q0 -52 32 -87t85 -35t85 35t32 87zM300 482q0 52 -32 87t-85 35t-85 -35t-32 -87q0 -49 32 -84.5t85 -35.5t85 35.5t32 84.5zM729 142q0 -70 -45.5 -118.5t-120.5 -48.5t-120.5 48t-45.5 119q0 69 45.5 117t120.5 48 q74 0 120 -48t46 -117zM654 639l-507 -654h-54l507 654h54zM349 482q0 -69 -45.5 -117t-120.5 -48q-74 0 -120 48t-46 117q0 70 45.5 118.5t120.5 48.5t120.5 -48t45.5 -119z"/>
<glyph glyph-name="ampersand" horiz-adv-x="717" unicode="&amp;" d="M395 135q-29 65 -75.5 103.5t-117.5 68.5q-63 -48 -63 -117q0 -51 36.5 -85.5t90.5 -34.5q34 0 69.5 17t59.5 48zM344 499q0 39 -21.5 67.5t-59.5 28.5t-61 -24t-23 -60q0 -83 109 -131q56 39 56 119zM718 64q-38 -38 -74 -59t-83 -21q-97 0 -149 111q-92 -111 -209 -111 q-80 0 -129 47t-49 115q0 62 41.5 110t102.5 70q-99 51 -99 149q0 69 60.5 116.5t149.5 47.5q76 0 125 -36.5t49 -92.5q0 -52 -36 -90.5t-95 -56.5q96 -47 152 -133q45 58 46 70q9 16 9 26q0 16 -25 22l-26 7l-3 38h223l-4 -38l-29 -8q-49 -13 -82 -55l-86 -102 q39 -77 58 -97q28 -29 67 -29q36 0 80 24z"/>
<glyph glyph-name="quotesingle" horiz-adv-x="224" unicode="&apos;" d="M211 614l-158 -211h-46l112 242h1z"/>
<glyph glyph-name="parenleft" horiz-adv-x="395" unicode="(" d="M359 -241q-44 22 -89 62t-86.5 97.5t-67.5 137.5t-26 166t26 166t67.5 137.5t86.5 97.5t89 62l27 -38q-40 -22 -80.5 -60.5t-77 -92t-59.5 -125t-23 -147.5t23 -147.5t59.5 -124.5t77 -91.5t80.5 -59.5z"/>
<glyph glyph-name="parenright" horiz-adv-x="395" unicode=")" d="M38 -241l-29 38q40 22 80.5 60.5t77 92t59.5 125t23 147.5t-23 147.5t-59.5 125t-77 92t-80.5 60.5l29 38q44 -22 88 -62t85.5 -97.5t67.5 -137.5t26 -166t-26 -166t-67.5 -137.5t-85.5 -97.5t-88 -62z"/>
<glyph glyph-name="asterisk" horiz-adv-x="354" unicode="*" d="M352 463l-48 -37l-102 41l-10 -13l71 -84l-18 -57l-21 -7l-51 34l6 111l-15 4l-54 -93l-62 -2l-14 17l16 60l105 28v20l-105 29l-17 59l14 18l63 -2l54 -94l16 5l-6 110l50 33l22 -7l18 -57l-72 -84l10 -13l102 41l48 -38v-22z"/>
<glyph glyph-name="plus" d="M451 206h-182v-182h-57v182h-183l3 57h180v183h57v-183h179z" unicode="+"/>
<glyph glyph-name="comma" horiz-adv-x="232" unicode="," d="M209 27q0 -109 -156 -212l-29 24q92 64 92 132q0 18 -9 34t-22.5 25.5t-26.5 16.5t-22 11t-9 5q0 29 21.5 50.5t56.5 21.5q42 0 73 -31.5t31 -76.5z"/>
<glyph glyph-name="hyphen" horiz-adv-x="333" unicode="-" d="M302 215h-269l3 60h263z"/>
<glyph glyph-name="period" horiz-adv-x="233" unicode="." d="M194 62q0 -31 -22.5 -54.5t-54.5 -23.5q-33 0 -55.5 23t-22.5 55t22.5 54.5t55.5 22.5t55 -22.5t22 -54.5z"/>
<glyph glyph-name="slash" horiz-adv-x="279" unicode="/" d="M4 -194l216 877h53l-216 -877h-53z"/>
<glyph glyph-name="zero" horiz-adv-x="569" unicode="0" d="M447 236q0 76 -46 125t-118 49t-116.5 -48t-44.5 -124t45.5 -124.5t117.5 -48.5t117 47.5t45 123.5zM530 238q0 -113 -69 -183t-178 -70q-108 0 -176 69t-68 182q0 114 69 184.5t177 70.5q109 0 177 -69.5t68 -183.5z"/>
<glyph glyph-name="one" horiz-adv-x="381" unicode="1" d="M347 0h-291l3 42l59 11q23 5 23 23v322l-107 10l3 34l221 50v-416q0 -19 23 -23l63 -11z"/>
<glyph glyph-name="two" horiz-adv-x="488" unicode="2" d="M461 169l-13 -169h-410l-7 71q9 7 26 19q46 33 68 49.5t54.5 44t47.5 45.5t27 40.5t12 43.5q0 40 -26.5 66t-68.5 26q-56 0 -109 -68l-22 12q22 69 76.5 105.5t121.5 36.5q66 0 110.5 -37t44.5 -95q0 -21 -6 -40t-22.5 -39.5t-29.5 -34.5t-43.5 -37.5t-47 -35.5 t-58.5 -40t-60 -41v-5h56q133 0 169 7t50 34l22 42h38z"/>
<glyph glyph-name="three" horiz-adv-x="438" unicode="3" d="M229 189v-4h2q78 0 129 -43t51 -112q0 -96 -78 -163t-186 -67q-60 0 -99.5 24.5t-39.5 63.5q0 24 17 40.5t40 16.5q33 0 55 -29.5t26 -66.5q6 -1 16 -1q52 0 91.5 38t39.5 101q0 59 -34.5 95t-89.5 36q-41 0 -81 -17l-13 33q8 5 30 18.5t29.5 18.5t26 17t26 18.5t20.5 18 t19 20t13 19.5t9.5 22.5t2.5 23.5q0 40 -27.5 67.5t-69.5 27.5q-63 0 -116 -68l-22 11v1q21 67 78.5 104.5t124.5 37.5q68 0 112 -37t44 -90q0 -52 -36 -93t-110 -82z"/>
<glyph glyph-name="four" horiz-adv-x="523" unicode="4" d="M291 90v267h-4l-197 -267h201zM515 14h-113v-198h-111v198h-275l-5 39l318 432h73v-395h120z"/>
<glyph glyph-name="five" horiz-adv-x="448" unicode="5" d="M122 264q141 -35 208 -94.5t67 -135.5q0 -94 -79 -164t-175 -70q-65 0 -103 23t-38 64q0 25 16 41.5t40 16.5q31 0 53 -25.5t26 -65.5q21 -7 37 -7q51 0 86.5 38.5t35.5 93.5q0 69 -62 116t-188 77l76 304h287l-3 -104h-256z"/>
<glyph glyph-name="six" horiz-adv-x="538" unicode="6" d="M375 174q0 75 -33.5 118.5t-85.5 43.5q-49 0 -84 -33q-7 -17 -7 -61q0 -81 32.5 -144.5t86.5 -63.5q44 0 67.5 38t23.5 102zM497 210q0 -97 -68.5 -162t-163.5 -65q-103 0 -165 74.5t-62 185.5q0 169 127 290t313 133l12 -38q-131 -18 -213 -95.5t-108 -180.5l3 -2 q67 55 146 55q78 0 128.5 -54.5t50.5 -140.5z"/>
<glyph glyph-name="seven" horiz-adv-x="496" unicode="7" d="M476 434l-314 -618h-73l298 562v3h-125q-77 0 -107.5 -2t-41 -7t-18.5 -20l-30 -60h-38l23 184h421z"/>
<glyph glyph-name="eight" horiz-adv-x="529" unicode="8" d="M386 117q0 16 -4.5 31t-10 26t-19 23.5t-21 19t-27.5 18t-27.5 15.5t-32 15.5t-29.5 14.5q-63 -51 -63 -125v-2q0 -54 35 -90.5t90 -36.5q50 0 79.5 25.5t29.5 65.5zM359 472q0 52 -30.5 90t-78.5 38q-43 0 -69 -26.5t-26 -63.5q0 -27 10.5 -49t32 -38.5t42.5 -28.5 t52 -27q9 -4 13 -6q53 39 54 111zM256 -15q-90 0 -152.5 44t-62.5 116v1q1 51 36.5 92t96.5 60v1q-57 32 -89 68t-32 92v2q1 69 57.5 124t157.5 55q86 0 143.5 -43.5t57.5 -113.5v-2q-1 -95 -124 -137v-1q67 -35 105 -74.5t38 -100.5q0 -76 -63.5 -129.5t-168.5 -53.5z"/>
<glyph glyph-name="nine" horiz-adv-x="538" unicode="9" d="M370 234q0 81 -32.5 144.5t-86.5 63.5q-44 0 -67.5 -38t-23.5 -102q0 -75 33.5 -118.5t85.5 -43.5q49 0 84 33q7 18 7 61zM497 233q0 -169 -127 -290t-313 -133l-11 38q130 18 212.5 96t107.5 180l-3 2q-67 -55 -146 -55q-78 0 -128.5 54.5t-50.5 140.5q0 97 68.5 162 t164.5 65q102 0 164 -74.5t62 -185.5z"/>
<glyph glyph-name="colon" horiz-adv-x="232" unicode=":" d="M194 63q0 -32 -22 -55t-55 -23t-55.5 23t-22.5 55t22.5 54.5t55.5 22.5q32 0 54.5 -23t22.5 -54zM194 365q0 -32 -22 -55t-55 -23t-55.5 23t-22.5 55t22.5 54.5t55.5 22.5q32 0 54.5 -23t22.5 -54z"/>
<glyph glyph-name="semicolon" horiz-adv-x="232" unicode=";" d="M209 27q0 -109 -156 -212l-29 24q92 64 92 132q0 18 -9 34t-22.5 25.5t-26.5 16.5t-22 11t-9 5q0 29 21.5 50.5t56.5 21.5q42 0 73 -31.5t31 -76.5zM190 365q0 -32 -22 -55t-55 -23t-55.5 23t-22.5 55t22.5 54.5t55.5 22.5q32 0 54.5 -23t22.5 -54z"/>
<glyph glyph-name="less" d="M432 33l-406 187v29l406 188l14 -52l-326 -149v-1l326 -150z" unicode="&lt;"/>
<glyph glyph-name="equal" d="M441 121h-402l3 57h396zM438 291h-396l-3 57h402z" unicode="="/>
<glyph glyph-name="greater" d="M454 220l-406 -187l-14 52l326 150v1l-326 149l14 52l406 -188v-29z" unicode="&gt;"/>
<glyph glyph-name="question" horiz-adv-x="393" unicode="?" d="M244 54q0 -28 -20 -49t-49 -21t-49.5 20.5t-20.5 49.5t20.5 49t49.5 20t49 -20.5t20 -48.5zM358 456q0 -34 -7 -56.5t-25 -38.5t-35 -24.5t-49 -21.5q-29 -11 -40.5 -15.5t-24.5 -17t-13 -27.5q0 -24 36 -67h-41q-29 18 -49.5 46t-20.5 59q0 48 30.5 72t96.5 46 q23 8 34 11.5t26 11t21 15t6 17.5q0 28 -45 46t-106 18q-24 0 -77 -8q-22 17 -22 47q0 31 25 50.5t71 19.5q80 0 144.5 -55t64.5 -128z"/>
<glyph glyph-name="at" horiz-adv-x="872" unicode="@" d="M525 354q-13 24 -44 45t-56 21q-20 0 -33 -13q-21 -21 -45 -94.5t-24 -122.5q0 -28 14.5 -46t33.5 -18q20 0 48.5 38t71.5 106q7 12 11 18q3 6 13 35t10 31zM482 117q0 23 34 125h-13q-71 -119 -102 -152q-37 -40 -72 -40q-46 0 -78 33t-32 80q0 61 33.5 136t80.5 122 q57 57 119 57q70 0 93 -78h10l27 71h87l-60 -168l-35 -173q0 -1 -0.5 -3t-0.5 -3q0 -16 18 -27.5t47 -11.5q63 0 107 62t47 152v13q0 135 -93.5 218.5t-240.5 85.5h-5q-146 0 -252.5 -106.5t-111.5 -251.5v-12q0 -155 98 -252t245 -97q59 0 127 20l11 -37q-72 -25 -143 -25 q-161 0 -272.5 110.5t-111.5 276.5v13q5 167 124.5 284.5t288.5 117.5h6q163 -3 269.5 -97t106.5 -246v-13q-4 -115 -72.5 -191.5t-163.5 -76.5q-60 0 -90 23t-30 54v7z"/>
<glyph glyph-name="A" horiz-adv-x="631" unicode="A" d="M364 257l-80 252h-9l-85 -252h174zM648 0h-305l3 41l39 6q32 4 32 28q0 20 -20 78l-18 55h-204l-13 -41q-18 -53 -18 -80q0 -34 31 -40l33 -6l3 -41h-231l3 41l25 6q25 7 38 18t32.5 50t50.5 125l117 324v42l123 36l189 -555q11 -29 48 -37l39 -9z"/>
<glyph glyph-name="B" horiz-adv-x="616" unicode="B" d="M420 459q0 57 -35 90.5t-102 33.5h-42v-243l54 1q58 1 91.5 34.5t33.5 83.5zM442 163q0 66 -45.5 100.5t-119.5 34.5h-36v-248l55 -11l10 1q59 1 97.5 33.5t38.5 89.5zM583 166q0 -166 -281 -166h-266l3 40l36 4q34 4 34 19v500q0 7 -7.5 11t-30.5 7l-32 4l-3 40h278 q248 0 248 -140q0 -62 -49 -103.5t-122 -52.5v-5q90 -10 141 -51.5t51 -106.5z"/>
<glyph glyph-name="C" horiz-adv-x="710" unicode="C" d="M646 206l-19 -206l-66 13q-81 -29 -165 -29q-158 0 -255.5 83.5t-97.5 235.5q0 151 100.5 243.5t255.5 92.5q84 0 151 -24l92 22v-223h-69l-42 146q-57 30 -124 30q-102 0 -160.5 -75t-58.5 -197q0 -132 58.5 -209t163.5 -77q63 0 111 24l52 150h73z"/>
<glyph glyph-name="D" horiz-adv-x="718" unicode="D" d="M531 303q0 129 -65.5 204.5t-191.5 75.5h-33v-527l72 -15q101 1 159.5 75.5t58.5 186.5zM675 327q0 -137 -101 -232t-276 -95h-262l3 40l36 4q34 4 34 19v500q0 7 -7.5 11t-30.5 7l-32 4l-3 40l263 4h8q167 0 267.5 -84.5t100.5 -217.5z"/>
<glyph glyph-name="E" horiz-adv-x="642" unicode="E" d="M596 197l-19 -197h-541l3 40l36 4q34 4 34 19v500q0 7 -7.5 11t-30.5 7l-32 4l-3 40h543v-206h-68l-22 83q-10 38 -27.5 53t-52.5 20t-121 5h-47v-242h25q46 0 65 6t26 26l24 68h52l-23 -242h-50l-10 64q-2 20 -18.5 26.5t-68.5 6.5h-22v-248h49q86 0 124 5.5t56.5 20.5 t31.5 52l22 74h72z"/>
<glyph glyph-name="F" horiz-adv-x="600" unicode="F" d="M564 419h-68l-21 83q-15 54 -48 66t-154 12h-32v-253h30q46 0 65 6t26 26l24 68h52l-23 -242h-50l-10 64q-3 20 -19 26.5t-68 6.5h-27v-221q0 -13 37 -17l54 -4l3 -40h-299l3 40l36 4q34 4 34 19v500q0 7 -7.5 11t-30.5 7l-32 4l-3 40h528v-206z"/>
<glyph glyph-name="G" horiz-adv-x="733" unicode="G" d="M701 283l-3 -40l-37 -4q-34 -4 -34 -19v-142l61 -6l2 -30q-55 -24 -139 -41t-157 -17q-159 0 -255 87t-96 233q0 152 103.5 243.5t255.5 91.5q83 0 148 -24l88 22v-220h-74l-39 143q-52 30 -122 30q-95 0 -155 -76.5t-60 -193.5q0 -136 55 -212t156 -76q60 0 99 22v168 q0 8 -7 11.5t-29 5.5l-42 4l-3 40h284z"/>
<glyph glyph-name="H" horiz-adv-x="755" unicode="H" d="M720 0h-280l3 40l36 3q35 4 35 20v232h-273v-234q0 -13 37 -17l34 -4l3 -40h-279l3 40l36 4q34 4 34 19v500q0 7 -7.5 11t-30.5 7l-32 4l-3 40h279l-3 -40l-36 -4q-35 -4 -35 -19v-218h273v220q0 8 -7.5 11.5t-29.5 5.5l-34 4l-3 40h280l-3 -40l-37 -4q-34 -4 -34 -19 v-500q0 -7 7.5 -11t30.5 -7l33 -4z"/>
<glyph glyph-name="I" horiz-adv-x="373" unicode="I" d="M337 0h-300l3 40l46 4q35 4 35 19v500q0 13 -38 18l-43 4l-3 40h300l-3 -40l-47 -4q-34 -4 -34 -19v-501q0 -13 36 -17l45 -4z"/>
<glyph glyph-name="J" horiz-adv-x="441" unicode="J" d="M416 625l-3 -40l-40 -4q-35 -4 -35 -19v-281q0 -297 -214 -297q-52 0 -86.5 23t-34.5 58q0 26 17 41.5t43 15.5q31 0 57 -25q24 -24 33 -73h1q29 20 40.5 62t11.5 133v345q0 8 -7 11.5t-29 5.5l-54 4l-3 40h303z"/>
<glyph glyph-name="K" horiz-adv-x="679" unicode="K" d="M676 0h-272l3 40l23 7q11 3 11 13t-9 24l-133 210l-58 -55v-178q0 -13 37 -17l34 -4l3 -40h-279l3 40l36 4q34 4 34 19v500q0 7 -7.5 11t-30.5 7l-32 4l-3 40h279l-3 -40l-36 -4q-35 -4 -35 -19v-261l169 173q53 53 53 80q0 18 -26 25l-34 6l-3 40h272l-3 -40l-39 -8 q-53 -11 -121 -78l-120 -117l192 -285q30 -45 68 -53l24 -4z"/>
<glyph glyph-name="L" horiz-adv-x="579" unicode="L" d="M550 205l-20 -205h-494l3 40l36 5q34 4 34 19v498q0 7 -7.5 11t-30.5 7l-32 5l-3 40h283l-3 -40l-40 -5q-35 -4 -35 -19v-516h17q82 0 117 6t51 20.5t28 51.5l25 82h71z"/>
<glyph glyph-name="M" horiz-adv-x="894" unicode="M" d="M865 0h-294l3 39l51 8q12 2 17 24.5t5 86.5q0 47 -1 77l-9 324h-9l-181 -539h-87l-167 523h-11l-15 -304q-5 -107 -5 -134q0 -35 4 -46t15 -12l55 -8l3 -39h-219l3 39l51 8q12 2 18 10.5t12.5 51t10.5 130.5l14 271v5q0 49 -42 60l-53 10l-3 40h274l139 -440h7l141 440 h266l-3 -40l-62 -6q-12 -1 -18 -10t-6 -20l8 -314q2 -79 6.5 -121t10.5 -53.5t17 -13.5l51 -8z"/>
<glyph glyph-name="N" horiz-adv-x="733" unicode="N" d="M714 625l-3 -40l-47 -10q-16 -3 -23.5 -14t-12.5 -54t-5 -132v-383h-92l-359 497h-7v-240q0 -90 4 -132t11 -53t23 -14l54 -10l3 -40h-236l3 40l47 10q16 4 23.5 14t12.5 53t5 132v257q0 47 -37 64l-45 15l-3 40h206l329 -459h8v209q0 90 -4 132t-11.5 53.5t-23.5 14.5 l-53 10l-3 40h236z"/>
<glyph glyph-name="O" horiz-adv-x="761" unicode="O" d="M573 305q0 134 -55.5 210.5t-139.5 76.5q-83 0 -137 -71.5t-54 -202.5q0 -134 56 -211t140 -77q82 0 136 72t54 203zM718 316q0 -143 -99 -237.5t-241 -94.5q-150 0 -242.5 89t-92.5 233q0 143 99.5 238t240.5 95q150 0 242.5 -89t92.5 -234z"/>
<glyph glyph-name="P" horiz-adv-x="600" unicode="P" d="M431 434q0 68 -35.5 108.5t-98.5 40.5h-56v-287q35 -7 63 -7q56 0 91.5 40t35.5 105zM574 451q0 -95 -77 -150t-188 -55q-26 0 -68 4v-189q0 -13 37 -17l48 -4l3 -40h-293l3 40l36 4q34 4 34 19v500q0 7 -7.5 11t-30.5 7l-32 4l-3 40h281q124 0 190.5 -47.5t66.5 -126.5z "/>
<glyph glyph-name="Q" horiz-adv-x="761" unicode="Q" d="M573 305q0 134 -55.5 210.5t-139.5 76.5q-83 0 -137 -71.5t-54 -202.5q0 -134 56 -211t140 -77q82 0 136 72t54 203zM773 -158q-71 -23 -149 -23q-103 0 -166 39t-114 127q-136 10 -218.5 97.5t-82.5 223.5q0 143 99.5 238t240.5 95q150 0 242.5 -89t92.5 -234 q0 -112 -62.5 -196.5t-163.5 -117.5q75 -124 239 -124q24 0 37 1z"/>
<glyph glyph-name="R" horiz-adv-x="635" unicode="R" d="M425 447q0 65 -34.5 100t-95.5 35h-7l-47 -1v-264l61 -6q123 15 123 136zM426 297l130 -205q28 -40 54 -46l28 -6l3 -40h-193l-41 79l-106 193l-60 -1v-210q0 -13 37 -17l32 -4l3 -40h-277l3 40l36 4q34 4 34 19v500q0 7 -7.5 11t-30.5 7l-32 4l-3 40h292 q119 0 180 -41.5t61 -113.5q0 -121 -143 -173z"/>
<glyph glyph-name="S" horiz-adv-x="549" unicode="S" d="M506 184q0 -83 -66.5 -141t-180.5 -59q-96 0 -197 29l-10 193h66l44 -149q55 -21 106 -21q61 1 92.5 29.5t31.5 70.5q0 51 -35 76.5t-114 51.5q-95 31 -142.5 71t-47.5 116q0 78 61 132.5t172 54.5h12q50 0 125 -14l53 15v-208h-63l-40 137q-48 18 -96 18 q-54 0 -84 -25.5t-30 -62.5q0 -24 9 -42t31 -31.5t42 -22t57 -21.5q104 -33 154 -75t50 -122z"/>
<glyph glyph-name="T" horiz-adv-x="641" unicode="T" d="M614 415h-66l-21 83q-15 52 -40.5 67t-94.5 16h-6v-520q0 -13 37 -17l49 -4l3 -40h-309l3 40l51 4q34 4 34 19v518h-4q-69 0 -96.5 -14.5t-41.5 -64.5l-23 -87h-72l19 210h578v-210z"/>
<glyph glyph-name="U" horiz-adv-x="710" unicode="U" d="M696 625l-3 -40l-47 -10q-17 -3 -24 -14t-12 -54t-5 -132v-165q0 -105 -67 -168t-181 -63q-118 0 -187 54t-69 158v372q0 7 -7.5 11t-30.5 7l-32 4l-3 40h279l-3 -40l-36 -4q-35 -4 -35 -19v-336q0 -89 41.5 -135t118.5 -46q161 0 161 181v149q0 90 -4 132.5t-11 53.5 t-23 14l-54 10l-3 40h237z"/>
<glyph glyph-name="V" horiz-adv-x="643" unicode="V" d="M667 625l-3 -41l-24 -6q-37 -9 -56.5 -40t-65.5 -156l-139 -382h-123l-187 538q-6 17 -15 25t-27 12l-38 9l-3 41h298l-3 -41l-39 -6q-30 -4 -30 -26q0 -15 21 -80l123 -364h13l103 303q25 78 25 116q0 47 -41 53l-30 4l-3 41h244z"/>
<glyph glyph-name="W" horiz-adv-x="956" unicode="W" d="M984 625l-2 -41l-23 -7q-27 -8 -41 -21t-32 -51.5t-45 -122.5l-124 -382h-101l-122 395h-6l-137 -395h-103l-178 538q-11 32 -42 37l-42 9l-3 41h305l-3 -41l-41 -6q-26 -4 -26 -30q0 -20 17 -76l101 -343h8l116 341l-20 68q-9 30 -42 37l-41 9l-3 41h303l-3 -41l-43 -6 q-25 -4 -25 -30q0 -24 16 -76l99 -343l7 1l75 252q31 103 31 143q0 25 -10 36t-31 17l-35 6l-3 41h249z"/>
<glyph glyph-name="X" horiz-adv-x="639" unicode="X" d="M642 0h-293l3 40l32 6q23 5 23 23q0 24 -35 72l-78 122h-5l-84 -124q-30 -40 -30 -63q0 -24 32 -30l29 -6l3 -40h-240l3 40l40 10q19 5 37.5 22.5t46.5 52.5l136 174l-152 216q-39 55 -57 59l-42 11l-3 40h295l-3 -40l-32 -6q-24 -5 -24 -23q0 -23 34 -73l64 -99h5 l78 113q26 36 26 56t-28 26l-29 6l-3 40h229l-3 -40l-39 -10q-35 -8 -95 -88l-107 -138l169 -246q32 -47 53 -52l41 -11z"/>
<glyph glyph-name="Y" horiz-adv-x="606" unicode="Y" d="M618 625l-3 -41l-20 -6q-27 -8 -48 -28t-56 -78l-119 -206v-205q0 -13 36 -17l49 -4l3 -40h-309l3 40l51 4q35 4 35 19v190l-171 285q-19 30 -49 38l-29 8l-3 41h285l-3 -41l-35 -6q-20 -3 -20 -24q0 -26 31 -82l89 -160h7l89 159q30 49 30 76q0 25 -32 31l-28 6l-3 41 h220z"/>
<glyph glyph-name="Z" horiz-adv-x="606" unicode="Z" d="M581 200l-21 -200h-524v45l380 529v5h-110q-89 0 -117.5 -15.5t-44.5 -69.5l-20 -77h-66v208h513v-46l-385 -529v-5h126q69 0 104.5 10t47.5 24.5t24 48.5l22 72h71z"/>
<glyph glyph-name="bracketleft" horiz-adv-x="368" unicode="[" d="M350 -209h-258v873h258v-48h-203v-777h203v-48z"/>
<glyph glyph-name="backslash" horiz-adv-x="279" unicode="\" d="M274 -194h-53l-216 877h53z"/>
<glyph glyph-name="bracketright" horiz-adv-x="368" unicode="]" d="M18 -209v48h203v777h-203v48h258v-873h-258z"/>
<glyph glyph-name="asciicircum" horiz-adv-x="400" unicode="^" d="M343 515h-37l-105 105h-2l-105 -105h-37l116 197h54z"/>
<glyph glyph-name="underscore" horiz-adv-x="470" unicode="_" d="M479 -53h-488l3 53h482z"/>
<glyph glyph-name="grave" horiz-adv-x="399" unicode="`" d="M264 515h-45l-177 182h127z"/>
<glyph glyph-name="a" horiz-adv-x="490" unicode="a" d="M287 105l4 137q-83 -23 -114.5 -50t-31.5 -61q0 -30 19.5 -47t48.5 -17q38 0 74 38zM490 62q-25 -34 -56.5 -56.5t-60.5 -22.5q-33 0 -55.5 20.5t-24.5 62.5h-5q-67 -81 -131 -81q-51 0 -87 32t-36 86q0 61 62 101t197 74v8q1 123 -99 123q-16 0 -32.5 -3.5t-26.5 -8 t-10 -7.5q0 -1 6.5 -8.5t12.5 -20t6 -26.5q0 -20 -16.5 -36t-42.5 -16t-43.5 14.5t-17.5 36.5q0 45 72 89.5t150 44.5q80 0 119 -39t39 -134q0 -4 -0.5 -12t-0.5 -12l-7 -165v-6q0 -37 25 -37q16 0 47 25z"/>
<glyph glyph-name="b" horiz-adv-x="552" unicode="b" d="M392 202q0 79 -33 126.5t-85 47.5q-49 0 -85 -36v-249q53 -61 103 -61q42 0 71 46.5t29 125.5zM519 246q0 -108 -68.5 -184.5t-181.5 -76.5q-55 0 -123 26h-1l-59 -32h-14v575q0 26 -17 34l-51 24l3 29l182 56v-310h5q65 75 142 75q80 0 131.5 -62.5t51.5 -153.5z"/>
<glyph glyph-name="c" horiz-adv-x="468" unicode="c" d="M445 121q-25 -65 -77 -100.5t-124 -35.5q-90 0 -150.5 63.5t-60.5 162.5q0 111 72 184t178 73q72 0 113.5 -29t41.5 -73q0 -32 -18.5 -47t-45.5 -15q-28 0 -46.5 24t-18.5 57q0 13 3 25v2q-15 10 -41 10q-49 0 -81.5 -43t-32.5 -121q0 -83 39 -135.5t101 -52.5 q74 0 126 63z"/>
<glyph glyph-name="d" horiz-adv-x="560" unicode="d" d="M363 102v252q-55 63 -102 63q-45 0 -73 -45.5t-28 -124.5q0 -81 33.5 -130.5t86.5 -49.5q41 0 83 35zM548 34l-3 -29l-182 -20v72h-3q-27 -32 -65 -51.5t-76 -19.5q-82 0 -133.5 62t-51.5 158q0 108 69.5 182.5t185.5 74.5q33 0 73 -10h1v131q0 27 -17 34l-60 21l4 29 l190 24v-606q0 -31 17 -36z"/>
<glyph glyph-name="e" horiz-adv-x="483" unicode="e" d="M328 298q0 3 0.5 8.5t0.5 8.5q0 51 -19 80t-51 29q-39 0 -67.5 -33.5t-34.5 -94.5zM444 121q-25 -65 -76.5 -100.5t-123.5 -35.5q-91 0 -151 63t-60 163q0 110 70 183.5t175 73.5q74 0 121 -41.5t47 -113.5q0 -29 -6 -55l-284 4v-11q1 -82 39.5 -131.5t101.5 -49.5 q73 0 125 63z"/>
<glyph glyph-name="f" horiz-adv-x="340" unicode="f" d="M427 619q0 -28 -17 -44t-42 -16q-59 0 -78 83l-1 4l-29 2q-57 -39 -57 -163v-37h137l-7 -61h-130v-327q0 -16 38 -18l41 -3l3 -39h-260l3 39l24 3q34 3 34 19v323l-80 7l6 57h69l2 23q7 98 73.5 162t157.5 64q47 0 80 -22t33 -56z"/>
<glyph glyph-name="g" horiz-adv-x="494" unicode="g" d="M376 -120q0 65 -70 75q-15 3 -66 3h-93q-14 -9 -27.5 -28.5t-13.5 -46.5q0 -44 37.5 -72t100.5 -28q57 0 94.5 28t37.5 69zM304 299q0 77 -32 109q-18 20 -44 20q-37 0 -57.5 -30t-20.5 -88q0 -79 34 -113q17 -17 41 -17q34 0 51 17q28 28 28 102zM498 361l-98 17v-5 q18 -26 18 -61q0 -76 -54.5 -124t-143.5 -48q-30 0 -56 6q-10 -6 -20 -17t-10 -21q0 -45 63 -45q21 0 64.5 1.5t60.5 1.5q64 0 106.5 -39t42.5 -100q0 -81 -77 -136.5t-199 -55.5q-85 0 -136.5 31.5t-51.5 84.5q0 76 98 112v4q-32 10 -51 33t-19 51q0 32 25.5 61t63.5 40 l2 5q-92 40 -92 141q0 71 51.5 120.5t142.5 49.5q67 0 127 -29h145z"/>
<glyph glyph-name="h" horiz-adv-x="563" unicode="h" d="M553 0h-239l3 39l20 3q34 2 34 19v196q0 71 -21 97t-66 26q-48 0 -88 -31v-289q0 -16 38 -18l26 -3l3 -39h-246l3 39l24 3q34 3 34 19v493q0 25 -17 34l-51 24l3 29l183 56v-303h5q93 74 164 74q50 0 85 -35q38 -38 38 -115v-257q0 -8 8 -12t33 -7l21 -3z"/>
<glyph glyph-name="i" horiz-adv-x="296" unicode="i" d="M270 0h-240l3 39l23 3q34 3 34 19v240q0 46 -8 60t-35 21l-20 6l1 31l179 49v-408q0 -16 38 -18l22 -3zM212 611q0 -31 -20 -52.5t-52 -21.5q-31 0 -51 21.5t-20 52.5t20 52.5t51 21.5q32 0 52 -21.5t20 -52.5z"/>
<glyph glyph-name="j" horiz-adv-x="280" unicode="j" d="M202 -1q-8 -119 -66 -189.5t-129 -70.5q-39 0 -62.5 18.5t-23.5 50.5q0 24 17.5 40t40.5 16q51 0 76 -64q30 12 30 147v354q0 46 -8 60t-35 21l-20 6l1 31l179 49v-469zM207 611q0 -31 -20 -52.5t-52 -21.5q-31 0 -51 21.5t-20 52.5t20 52.5t51 21.5q32 0 52 -21.5 t20 -52.5z"/>
<glyph glyph-name="k" horiz-adv-x="530" unicode="k" d="M523 0h-169l-47 90l-73 125l-38 -36v-119q0 -8 7 -11.5t28 -6.5l19 -3l3 -39h-236l3 39l24 3q34 3 34 19v493q0 25 -17 34l-51 24l3 29l183 56v-463l40 37q74 68 87 88q9 14 9 24q0 24 -36 30l-11 1l-3 39h230l-3 -39l-21 -5q-27 -6 -58 -28t-85 -70l-28 -26l129 -199 q26 -37 53 -43l21 -4z"/>
<glyph glyph-name="l" horiz-adv-x="291" unicode="l" d="M266 0h-239l3 39l23 3q34 3 34 19v493q0 26 -17 34l-51 24l3 29l182 56v-637q0 -16 38 -18l21 -3z"/>
<glyph glyph-name="m" horiz-adv-x="851" unicode="m" d="M839 0h-238l3 39l19 3q34 2 34 19v196q0 69 -22 96t-64 27q-41 0 -82 -33v-286q0 -8 8 -12t33 -7l19 -3l3 -39h-236l3 39l19 3q34 2 34 19v196q0 69 -22 96t-64 27q-39 0 -82 -31v-289q0 -16 38 -18l24 -3l3 -39h-243l3 39l24 3q34 3 34 19v240q0 46 -8 60t-35 21l-20 6 l1 31l179 49v-73h4q88 73 159 73q50 0 85 -34q17 -17 28 -46h4q85 80 168 80q50 0 85 -34q37 -37 37 -116v-257q0 -8 8 -12t33 -7l21 -3z"/>
<glyph glyph-name="n" horiz-adv-x="573" unicode="n" d="M561 0h-238l3 39l19 3q34 2 34 19v196q0 71 -21 97t-66 26q-46 0 -88 -31v-289q0 -16 38 -18l27 -3l3 -39h-246l3 39l24 3q34 3 34 19v240q0 46 -8 60t-35 21l-20 6l1 31l179 49v-74h5q93 74 164 74q50 0 85 -35q38 -38 38 -115v-257q0 -8 8 -12t33 -7l21 -3z"/>
<glyph glyph-name="o" horiz-adv-x="549" unicode="o" d="M385 202q0 142 -47 190q-25 29 -66 29q-48 0 -78 -46t-30 -125q0 -145 46 -192q27 -27 68 -27q47 0 77 47t30 124zM515 234q0 -105 -71 -177t-179 -72q-106 0 -168.5 68.5t-62.5 169.5q0 103 72.5 174t179.5 71q104 0 166.5 -67.5t62.5 -166.5z"/>
<glyph glyph-name="p" horiz-adv-x="559" unicode="p" d="M400 202q0 79 -33 126.5t-86 47.5q-50 0 -84 -36v-249q52 -61 102 -61q42 0 71.5 46.5t29.5 125.5zM526 246q0 -108 -67 -184.5t-177 -76.5q-44 0 -83 13h-2v-184q0 -16 38 -18l34 -3l3 -39h-258l3 39l28 3q34 3 34 19v486q0 46 -8 60t-35 21l-19 6l1 31l179 49v-81h5 q65 75 142 75q80 0 131 -62.5t51 -153.5z"/>
<glyph glyph-name="q" horiz-adv-x="550" unicode="q" d="M363 102v252q-55 63 -102 63q-45 0 -73 -45.5t-28 -124.5q0 -81 33.5 -130.5t86.5 -49.5q41 0 83 35zM544 -246h-256l3 39l38 3q34 3 34 19v242h-3q-27 -32 -65 -51.5t-76 -19.5q-82 0 -133.5 62t-51.5 158q0 108 69.5 182.5t185.5 74.5q58 0 112 -24h1l67 29h11v-654 q0 -15 39 -18l23 -3z"/>
<glyph glyph-name="r" horiz-adv-x="413" unicode="r" d="M414 398q0 -27 -16 -46.5t-43 -19.5q-39 0 -63 40q-55 -36 -88 -91v-221q0 -16 38 -18l34 -3l3 -39h-252l3 39l23 3q34 3 34 19v240q0 46 -8 60t-35 21l-20 6l1 31l179 49v-125h5q38 64 68 94.5t66 30.5q33 0 52 -19t19 -51z"/>
<glyph glyph-name="s" horiz-adv-x="432" unicode="s" d="M395 133q0 -63 -52 -105.5t-143 -42.5q-92 0 -154 24l-5 133h68l24 -91q40 -22 76 -22q37 0 62.5 20t25.5 52q0 19 -16 34.5t-33 23t-52 20.5q-7 3 -11 4q-69 25 -104.5 55.5t-35.5 90.5t48 100t129 40q62 0 108 -16l44 11l5 -148h-63l-27 88q-33 20 -70 20 q-34 0 -55 -17t-21 -43q0 -14 5.5 -24.5t11.5 -17.5t24 -15.5t28 -12.5t38 -14q34 -13 54.5 -22.5t44 -27t35 -41.5t11.5 -56z"/>
<glyph glyph-name="t" horiz-adv-x="373" unicode="t" d="M361 58q-63 -73 -156 -73q-60 0 -94 35t-34 106v6l5 252l-78 7l2 35l72 63l71 64l47 -6l-1 -99h163l-7 -61h-156l-5 -220q-1 -101 83 -101q44 0 84 21z"/>
<glyph glyph-name="u" horiz-adv-x="560" unicode="u" d="M550 34l-3 -29l-182 -20v74h-5q-92 -74 -164 -74q-50 0 -85 35q-38 38 -38 115l1 258q0 9 -7 12t-35 7l-20 2l-3 39h187l-6 -257q0 -70 21 -96.5t66 -26.5q48 0 88 31v290q0 8 -7.5 12t-30.5 6l-29 2l-4 39h188v-367q0 -30 17 -36z"/>
<glyph glyph-name="v" horiz-adv-x="488" unicode="v" d="M506 453l-3 -38l-29 -6q-18 -3 -28.5 -15.5t-23.5 -44.5l-136 -358h-80l-150 379q-7 16 -16.5 23.5t-28.5 11.5l-24 9l-4 39h251l-3 -39l-32 -8q-19 -5 -19 -22q0 -7 3 -16l97 -265l89 246q7 18 7 32q0 20 -22 23l-33 11l-3 38h188z"/>
<glyph glyph-name="w" horiz-adv-x="741" unicode="w" d="M759 453l-3 -38l-27 -8q-20 -4 -31.5 -16t-21.5 -42l-119 -358h-77l-108 293l-105 -293h-77l-136 379q-12 29 -42 36l-23 8l-3 39h244l-3 -39l-29 -8q-21 -4 -21 -23q0 -7 3 -16l83 -261l84 244l-7 20q-11 28 -45 35l-26 9l-3 39h247l-3 -38l-29 -9q-21 -5 -21 -24 q0 -8 3 -15l86 -262l73 240q7 23 7 32q0 23 -27 29l-27 9l-3 38h187z"/>
<glyph glyph-name="x" horiz-adv-x="497" unicode="x" d="M505 0h-250l4 39l14 4q25 4 25 19q0 12 -17 35l-58 85h-3l-63 -82q-21 -27 -21 -40q0 -14 23 -18l14 -3l3 -39h-184l3 39l30 8q19 4 33.5 15t38.5 38l97 116l-105 141q-32 41 -61 49l-24 8l-2 39h250l-3 -38l-14 -4q-24 -5 -24 -18q0 -11 18 -37l50 -73h3l54 71 q20 25 20 38q0 14 -22 20l-14 3l-3 38h185l-3 -38l-30 -9q-20 -4 -35 -15t-38 -38l-88 -105l112 -152q29 -37 62 -49l20 -8z"/>
<glyph glyph-name="y" horiz-adv-x="483" unicode="y" d="M506 453l-3 -38l-30 -6q-18 -3 -28.5 -16t-23.5 -44l-120 -314l-57 -168q-23 -67 -52 -98t-73 -31q-32 0 -54 18t-22 45q0 25 15 42.5t41 17.5q46 0 64 -42q23 10 43 73l26 76v6l-178 396q-7 16 -15.5 23t-28.5 12l-23 9l-4 39h248l-3 -39l-30 -8q-20 -5 -20 -21 q0 -9 4 -17l106 -250l81 231q7 21 7 30q0 20 -25 25l-33 11l-3 38h191z"/>
<glyph glyph-name="z" horiz-adv-x="489" unicode="z" d="M447 415l-282 -371l57 1q85 1 112.5 13.5t47.5 52.5l37 72h57l-43 -183h-406v38l280 371l-41 -1q-79 -1 -104 -13t-36 -51l-24 -72h-57v181h402v-38z"/>
<glyph glyph-name="braceleft" horiz-adv-x="349" unicode="{" d="M322 -223q-106 4 -160.5 44t-54.5 107q0 39 27 100t27 88q0 38 -29.5 56t-94.5 24l-11 32l11 30q63 7 93.5 24.5t30.5 55.5q0 27 -27 88.5t-27 99.5q0 67 54 107t161 45v-38q-110 -10 -110 -87q0 -29 27 -91t27 -104q0 -48 -43.5 -83t-110.5 -42v-12q68 -8 111 -43 t43 -83q0 -41 -27 -102.5t-27 -91.5q0 -78 110 -88v-36z"/>
<glyph glyph-name="bar" horiz-adv-x="275" unicode="|" d="M113 -157v877h49v-877h-49z"/>
<glyph glyph-name="braceright" horiz-adv-x="349" unicode="}" d="M327 228l-11 -32q-66 -6 -95.5 -24t-29.5 -56q0 -27 27 -88t27 -100q0 -67 -54 -107t-160 -44v36q110 10 110 88q0 30 -27 91.5t-27 102.5q0 48 43 83.5t111 42.5v12q-68 7 -111 42t-43 83q0 42 27 104t27 91q0 77 -110 87v38q106 -5 160 -45t54 -107q0 -38 -27 -99.5 t-27 -88.5q0 -38 31 -55.5t94 -24.5z"/>
<glyph glyph-name="asciitilde" horiz-adv-x="400" unicode="~" d="M374 307q-15 -135 -104 -135q-33 0 -86.5 35.5t-69.5 35.5q-15 0 -23 -12.5t-21 -49.5h-44q17 135 104 135q33 0 85.5 -35t68.5 -35q15 0 25.5 14t22.5 47h42z"/>
<glyph glyph-name="nbspace" horiz-adv-x="228" unicode=" "/>
<glyph glyph-name="exclamdown" horiz-adv-x="294" unicode="¡" d="M213 37q0 -1 0.5 -4t0.5 -4q0 -21 -17 -33t-48 -12h-2q-31 0 -48 12t-17 33q0 1 0.5 4t0.5 4l53 385q0 8 12 8q11 0 13 -8zM217 569q0 -28 -20 -48.5t-49 -20.5t-49.5 20.5t-20.5 48.5q0 29 20.5 49.5t49.5 20.5q30 0 49.5 -20.5t19.5 -49.5z"/>
<glyph glyph-name="cent" horiz-adv-x="463" unicode="¢" d="M221 101l81 313q-12 6 -31 6q-50 0 -81.5 -42t-31.5 -120q0 -107 63 -157zM239 -15l-39 -150h-47l41 157q-72 19 -116 81t-44 148q0 109 72 178t177 69q22 0 32 -2l44 170h48l-46 -179q78 -27 78 -91q0 -25 -16 -41t-37 -16q-39 0 -55 31l-68 -263q21 -7 40 -7 q31 0 64.5 16.5t58.5 46.5l21 -12q-24 -62 -76.5 -99.5t-120.5 -37.5q-7 0 -11 1z"/>
<glyph glyph-name="sterling" horiz-adv-x="527" unicode="£" d="M145 302q-2 52 -2 79q0 112 61 180t168 68q57 0 88 -22.5t31 -61.5q0 -27 -17.5 -44t-42.5 -17q-27 0 -43 18.5t-16 48.5q0 7 2 21q-16 14 -41 14q-74 0 -74 -154q0 -14 2 -59t2 -71h147l3 -46h-150q-4 -111 -36 -157l-1 -5q12 -2 41 -9t53 -11.5t42 -4.5q49 0 72 23 q23 22 39 71l26 -7q2 -24 2 -34q0 -65 -33.5 -105.5t-96.5 -40.5q-28 0 -57.5 11.5t-45 21.5t-41.5 31t-29 23q-65 -69 -160 -89l-14 49q68 18 96.5 56t28.5 105q0 20 -2 72h-110l3 46h105z"/>
<glyph glyph-name="currency" horiz-adv-x="435" unicode="¤" d="M315 359q0 41 -26.5 70.5t-70.5 29.5t-71 -29.5t-27 -70.5t27 -70.5t71 -29.5q43 0 70 29.5t27 70.5zM401 501l-56 -56q23 -39 23 -86q0 -45 -24 -86l62 -62l-40 -40l-61 61q-38 -25 -87 -25q-46 0 -87 24l-56 -56l-39 39l56 56q-25 39 -25 89t24 87l-58 58l40 40l58 -58 q38 25 87 25t89 -26l55 55z"/>
<glyph glyph-name="yen" horiz-adv-x="612" unicode="¥" d="M610 625l-3 -40l-18 -6q-29 -9 -49.5 -27.5t-52.5 -72.5l-100 -174h159l3 -46h-177v-79h174l3 -46h-175v-60q0 -20 23 -24l64 -11l3 -39h-304l3 39l64 11q23 4 23 24v60h-172l3 46h171v79h-174l3 46h151l-148 239q-16 24 -44 31l-35 10l-3 40h280l-3 -40l-35 -6 q-18 -3 -18 -23q0 -27 32 -82l82 -150h5l85 154q29 52 29 73q0 23 -31 29l-22 5l-3 40h207z"/>
<glyph glyph-name="brokenbar" horiz-adv-x="275" unicode="¦" d="M113 -139v335h49v-335h-49zM113 307v335h49v-335h-49z"/>
<glyph glyph-name="section" horiz-adv-x="451" unicode="§" d="M353 227q0 31 -23.5 53t-72.5 51q-14 8 -41.5 22.5t-49 27.5t-37.5 27q-31 -22 -31 -55q0 -31 23.5 -53t72.5 -50q12 -7 41.5 -22.5t50.5 -28.5t37 -27q30 21 30 55zM424 277q0 -81 -81 -125q31 -34 31 -76q0 -55 -51.5 -98t-125.5 -43q-55 0 -92.5 22t-37.5 58 q0 26 16 42t40 16q30 0 53.5 -23.5t27.5 -61.5q19 -8 38 -8q26 0 41 17t15 45q0 16 -8.5 29.5t-31.5 30t-35 23.5t-48 27q-39 22 -55 31.5t-43 30t-38 41.5t-11 47q0 84 80 125q-31 36 -31 77q0 51 50 93t121 42q55 0 90 -21.5t35 -58.5q0 -26 -16.5 -42t-40.5 -16 q-29 0 -47 23t-23 61q-18 9 -39 9q-25 0 -39.5 -15.5t-14.5 -41.5q0 -18 18 -37.5t37.5 -31.5t57.5 -33q7 -4 11 -6q39 -21 55 -31t43 -30.5t38 -42.5t11 -48z"/>
<glyph glyph-name="dieresis" horiz-adv-x="400" unicode="¨" d="M158 606q0 -29 -17.5 -49t-47.5 -20t-48 20t-18 49t18 49.5t48 20.5t47.5 -20.5t17.5 -49.5zM373 606q0 -29 -18 -49t-48 -20t-47 20t-17 49t17 49.5t47 20.5t48 -20.5t18 -49.5z"/>
<glyph glyph-name="copyright" horiz-adv-x="768" unicode="©" d="M537 254l-12 -127l-38 8q-41 -18 -93 -18q-99 0 -150 54.5t-51 138.5q0 85 58 140t142 55q46 0 87 -15l52 14v-138h-42l-27 85q-25 19 -74 19q-51 0 -82.5 -38.5t-31.5 -109.5q0 -74 34 -122.5t93 -48.5q35 0 55 14l35 89h45zM692 311q0 129 -90.5 221t-217.5 92 t-217.5 -92t-90.5 -221q0 -128 90.5 -219.5t217.5 -91.5t217.5 91.5t90.5 219.5zM733 311q0 -145 -102 -247t-247 -102t-247 102t-102 247q0 146 102 248.5t247 102.5t247 -102.5t102 -248.5z"/>
<glyph glyph-name="ordfeminine" horiz-adv-x="372" unicode="ª" d="M221 372l3 90q-101 -19 -101 -67q0 -22 12.5 -36t31.5 -14q27 0 54 27zM376 327q-14 -18 -38 -30.5t-49 -12.5q-56 0 -64 58h-4q-55 -58 -104 -58q-34 0 -59.5 23t-25.5 60q0 89 192 121l2 26v7q0 32 -22.5 52.5t-53.5 20.5q-15 0 -28.5 -6.5t-13.5 -10.5q0 -1 4 -6.5 t8 -14t4 -16.5q0 -17 -12.5 -28t-32.5 -11q-21 0 -34 11.5t-13 32.5q0 33 58.5 63.5t116.5 30.5q50 0 81.5 -28t29.5 -72l-6 -156v-6q0 -37 27 -37q17 0 34 11z"/>
<glyph glyph-name="guillemotleft" horiz-adv-x="500" unicode="«" d="M268 68l-12 -21l-228 144v60l228 144l12 -21l-140 -153zM479 58l-12 -21l-233 154v60l233 154l12 -21l-157 -163z"/>
<glyph glyph-name="logicalnot" d="M445 311v-214h-57v157h-353l3 57h407z" unicode="¬"/>
<glyph glyph-name="uni00AD" horiz-adv-x="333" unicode="­" d="M302 215h-269l3 60h263z"/>
<glyph glyph-name="registered" horiz-adv-x="768" unicode="®" d="M452 391q0 37 -23 55.5t-62 18.5h-3l-24 -1v-142l35 -4q77 3 77 73zM574 129h-112l-22 41l-69 115l-31 2v-104q0 -10 14 -14l27 -6l2 -34h-167l3 34l28 6q14 4 14 14v261q0 11 -14 14l-28 7l-3 34h178q70 0 105.5 -27t35.5 -67q0 -78 -89 -103l75 -113q11 -14 29 -21 l21 -5zM692 313q0 128 -90 220t-218 92q-127 0 -217.5 -92t-90.5 -220t90.5 -219.5t217.5 -91.5q128 0 218 91t90 220zM733 313q0 -145 -101.5 -247t-247.5 -102q-145 0 -247 102t-102 247t102 247.5t247 102.5t247 -102.5t102 -247.5z"/>
<glyph glyph-name="macron" horiz-adv-x="400" unicode="¯" d="M348 546h-295l6 58h283z"/>
<glyph glyph-name="degree" horiz-adv-x="410" unicode="°" d="M205 604q-53 0 -85 -35t-32 -87q0 -49 32 -84.5t85 -35.5t85 35.5t32 84.5q0 52 -32 87t-85 35zM371 482q0 -69 -45.5 -117t-120.5 -48q-74 0 -120 48t-46 117q0 70 45.5 118.5t120.5 48.5t120.5 -48t45.5 -119z"/>
<glyph glyph-name="plusminus" d="M449 236h-180v-163h-57v163h-181l3 57h178v161h57v-161h177zM448 2h-416l3 57h410z" unicode="±"/>
<glyph glyph-name="twosuperior" horiz-adv-x="330" unicode="²" d="M19 273l-6 39q19 18 52.5 48.5t50 46.5t36.5 39t28.5 44t8.5 43q0 25 -19 41t-48 16q-46 0 -99 -41l-10 17q64 95 154 95q59 0 92.5 -29.5t33.5 -79.5q0 -16 -4.5 -30.5t-19.5 -32.5t-26 -30t-40.5 -35t-46 -35.5t-59.5 -43.5v-4h44q82 0 100.5 2t24.5 11l17 28h29 l-25 -109h-268z"/>
<glyph glyph-name="threesuperior" horiz-adv-x="330" unicode="³" d="M126 258q-46 0 -78.5 18t-32.5 49q0 17 12.5 30t29.5 13q29 0 42.5 -23.5t15.5 -53.5q0 -1 13 -1q29 0 50 24t21 60q0 30 -19 50t-45 20q-16 0 -40 -12l-14 23q8 5 28 16.5t29.5 17.5t22 15.5t17.5 20t5 21.5q0 22 -17 34t-42 12q-55 0 -98 -45l-15 20q64 94 168 94 q48 0 79 -22.5t31 -54.5q0 -38 -34.5 -63t-95.5 -48v-3q21 6 43 6q42 0 71 -22.5t29 -62.5q0 -54 -51.5 -93.5t-124.5 -39.5z"/>
<glyph glyph-name="acute" horiz-adv-x="399" unicode="´" d="M358 697l-177 -182h-46l94 182h129z"/>
<glyph glyph-name="mu" horiz-adv-x="560" unicode="µ" d="M550 34l-3 -29l-182 -20v62h-5q-24 -32 -46 -47t-55 -15q-49 0 -82 56h-5l15 -278l-127 -9l13 381l1 258q0 9 -7 12t-35 7l-20 2l-3 39h187l-6 -301q0 -43 21.5 -61t65.5 -18q48 0 88 31v290q0 8 -7.5 12t-30.5 6l-29 2l-4 39h188v-367q0 -30 17 -36z"/>
<glyph glyph-name="mu" horiz-adv-x="560" unicode="μ" d="M550 34l-3 -29l-182 -20v62h-5q-24 -32 -46 -47t-55 -15q-49 0 -82 56h-5l15 -278l-127 -9l13 381l1 258q0 9 -7 12t-35 7l-20 2l-3 39h187l-6 -301q0 -43 21.5 -61t65.5 -18q48 0 88 31v290q0 8 -7.5 12t-30.5 6l-29 2l-4 39h188v-367q0 -30 17 -36z"/>
<glyph glyph-name="paragraph" horiz-adv-x="489" unicode="¶" d="M415 -32h-64v287q-41 -10 -77 -10q-118 0 -181 52.5t-63 136.5q0 96 64.5 143.5t181.5 47.5h139v-657z"/>
<glyph glyph-name="periodcentered" horiz-adv-x="232" unicode="·" d="M194 239q0 -31 -22.5 -54.5t-54.5 -23.5q-33 0 -55.5 23t-22.5 55t22.5 54.5t55.5 22.5t55 -22.5t22 -54.5z"/>
<glyph glyph-name="cedilla" horiz-adv-x="400" unicode="¸" d="M321 -149q0 -53 -60.5 -87t-161.5 -39l-10 27q157 18 157 81q0 24 -21.5 38t-62.5 14q-37 0 -69 -7v24l115 119h50l-74 -75q64 -2 100.5 -27t36.5 -68z"/>
<glyph glyph-name="onesuperior" horiz-adv-x="330" unicode="¹" d="M45 273l2 34l56 8q15 5 15 14v252l-74 7l2 24l178 52v-335q0 -11 15 -14l45 -8l2 -34h-241z"/>
<glyph glyph-name="ordmasculine" horiz-adv-x="409" unicode="º" d="M281 443q0 101 -37 138q-20 20 -46 20q-33 0 -52 -33.5t-19 -88.5q0 -100 39 -141q16 -16 45 -16q32 0 51 33.5t19 87.5zM380 463q0 -76 -49 -127.5t-128 -51.5t-126.5 50.5t-47.5 124.5q0 76 49.5 128t128.5 52t126 -50.5t47 -125.5z"/>
<glyph glyph-name="guillemotright" horiz-adv-x="500" unicode="»" d="M276 191l-234 -154l-11 21l156 163l-156 163l11 21l234 -154v-60zM481 191l-228 -144l-11 21l140 153l-140 153l11 21l228 -144v-60z"/>
<glyph glyph-name="onequarter" horiz-adv-x="715" unicode="¼" d="M45 273l2 34l56 8q15 5 15 14v252l-74 7l2 24l178 52v-335q0 -11 15 -14l45 -8l2 -34h-241zM81 -116l534 741h60l-534 -741h-60zM430 -3h129v162h-3zM559 -143v101h-165l-6 33l192 248h71v-242h63l-4 -39h-59v-101h-92z"/>
<glyph glyph-name="onehalf" horiz-adv-x="715" unicode="½" d="M404 -143l-6 39q19 18 52.5 48.5t50 46.5t36.5 39t28.5 44t8.5 43q0 25 -19 41t-48 16q-46 0 -99 -41l-10 17q64 95 154 95q59 0 92.5 -29.5t33.5 -79.5q0 -16 -4.5 -30.5t-19.5 -32.5t-26 -30t-40.5 -35t-46 -35.5t-59.5 -43.5v-4h44q82 0 100.5 2t24.5 11l17 28h29 l-25 -109h-268zM45 273l2 34l56 8q15 5 15 14v252l-74 7l2 24l178 52v-335q0 -11 15 -14l45 -8l2 -34h-241zM66 -116l534 741h60l-534 -741h-60z"/>
<glyph glyph-name="threequarters" horiz-adv-x="715" unicode="¾" d="M126 258q-46 0 -78.5 18t-32.5 49q0 17 12.5 30t29.5 13q29 0 42.5 -23.5t15.5 -53.5q0 -1 13 -1q29 0 50 24t21 60q0 30 -19 50t-45 20q-16 0 -40 -12l-14 23q8 5 28 16.5t29.5 17.5t22 15.5t17.5 20t5 21.5q0 22 -17 34t-42 12q-55 0 -98 -45l-15 20q64 94 168 94 q48 0 79 -22.5t31 -54.5q0 -38 -34.5 -63t-95.5 -48v-3q21 6 43 6q42 0 71 -22.5t29 -62.5q0 -54 -51.5 -93.5t-124.5 -39.5zM81 -116l534 741h60l-534 -741h-60zM430 -3h129v162h-3zM559 -143v101h-165l-6 33l192 248h71v-242h63l-4 -39h-59v-101h-92z"/>
<glyph glyph-name="questiondown" horiz-adv-x="393" unicode="¿" d="M341 54q0 -31 -25 -50.5t-71 -19.5q-80 0 -144.5 55t-64.5 128q0 34 7 56.5t25 38.5t35 24.5t50 21.5q18 7 24.5 9.5t19.5 8.5t18 11t10 13t5 18q0 26 -36 67h41q29 -18 49.5 -46t20.5 -59q0 -48 -30.5 -72t-96.5 -46q-23 -8 -34 -11.5t-26 -11t-21 -15t-6 -17.5 q0 -28 45 -46t106 -18q24 0 77 8q22 -17 22 -47zM289 569q0 -29 -20.5 -49t-49.5 -20t-49 20.5t-20 48.5t20 49t49 21t49.5 -20.5t20.5 -49.5z"/>
<glyph glyph-name="Agrave" horiz-adv-x="631" unicode="À" d="M350 682h-45l-177 182h127zM364 257l-80 252h-9l-85 -252h174zM648 0h-305l3 41l39 6q32 4 32 28q0 20 -20 78l-18 55h-204l-13 -41q-18 -53 -18 -80q0 -34 31 -40l33 -6l3 -41h-231l3 41l25 6q25 7 38 18t32.5 50t50.5 125l117 324v42l123 36l189 -555q11 -29 48 -37 l39 -9z"/>
<glyph glyph-name="Aacute" horiz-adv-x="631" unicode="Á" d="M489 864l-177 -182h-46l94 182h129zM364 257l-80 252h-9l-85 -252h174zM648 0h-305l3 41l39 6q32 4 32 28q0 20 -20 78l-18 55h-204l-13 -41q-18 -53 -18 -80q0 -34 31 -40l33 -6l3 -41h-231l3 41l25 6q25 7 38 18t32.5 50t50.5 125l117 324v42l123 36l189 -555 q11 -29 48 -37l39 -9z"/>
<glyph glyph-name="Acircumflex" horiz-adv-x="631" unicode="Â" d="M459 682h-37l-105 105h-2l-105 -105h-37l116 197h54zM364 257l-80 252h-9l-85 -252h174zM648 0h-305l3 41l39 6q32 4 32 28q0 20 -20 78l-18 55h-204l-13 -41q-18 -53 -18 -80q0 -34 31 -40l33 -6l3 -41h-231l3 41l25 6q25 7 38 18t32.5 50t50.5 125l117 324v42l123 36 l189 -555q11 -29 48 -37l39 -9z"/>
<glyph glyph-name="Atilde" horiz-adv-x="631" unicode="Ã" d="M490 825q-15 -135 -104 -135q-33 0 -86.5 35.5t-69.5 35.5q-15 0 -23 -12.5t-21 -49.5h-44q17 135 104 135q33 0 85.5 -35t68.5 -35q15 0 25.5 14t22.5 47h42zM364 257l-80 252h-9l-85 -252h174zM648 0h-305l3 41l39 6q32 4 32 28q0 20 -20 78l-18 55h-204l-13 -41 q-18 -53 -18 -80q0 -34 31 -40l33 -6l3 -41h-231l3 41l25 6q25 7 38 18t32.5 50t50.5 125l117 324v42l123 36l189 -555q11 -29 48 -37l39 -9z"/>
<glyph glyph-name="Adieresis" horiz-adv-x="631" unicode="Ä" d="M274 773q0 -29 -17.5 -49t-47.5 -20t-48 20t-18 49t18 49.5t48 20.5t47.5 -20.5t17.5 -49.5zM489 773q0 -29 -18 -49t-48 -20t-47 20t-17 49t17 49.5t47 20.5t48 -20.5t18 -49.5zM364 257l-80 252h-9l-85 -252h174zM648 0h-305l3 41l39 6q32 4 32 28q0 20 -20 78l-18 55 h-204l-13 -41q-18 -53 -18 -80q0 -34 31 -40l33 -6l3 -41h-231l3 41l25 6q25 7 38 18t32.5 50t50.5 125l117 324v42l123 36l189 -555q11 -29 48 -37l39 -9z"/>
<glyph glyph-name="Aring" horiz-adv-x="631" unicode="Å" d="M379 693q0 27 -17.5 47t-46.5 20t-46.5 -20t-17.5 -47q0 -28 17.5 -48t46.5 -20t46.5 20t17.5 48zM364 254l-83 258h-5l-86 -258h174zM263 607q-47 27 -47 86q0 42 27 70.5t72 28.5q44 0 71 -28.5t27 -70.5q0 -49 -34 -77l179 -529q11 -29 48 -37l39 -9l3 -41h-305l3 41 l39 6q32 4 32 28q0 20 -20 78l-18 55h-204l-13 -41q-18 -53 -18 -80q0 -34 31 -40l33 -6l3 -41h-231l3 41l25 6q34 9 53 40t68 156z"/>
<glyph glyph-name="AE" horiz-adv-x="903" unicode="Æ" d="M393 268v311h-8l-161 -311h169zM863 197l-20 -197h-525l3 39l49 11q23 5 23 24v148h-193l-23 -45q-37 -71 -37 -100q0 -25 27 -30l33 -7l3 -40h-233l3 40l26 7q27 8 42 18.5t41.5 50.5t71.5 127l136 263q12 21 12 37q0 28 -40 36l-34 7l-3 39h621v-206h-66l-22 83 q-6 23 -14 36t-19 22.5t-35 13t-52.5 5t-82.5 1.5l-39 1v-243h19q46 0 65.5 6t26.5 26l24 68h50l-23 -242h-48l-10 64q-3 20 -19 26.5t-69 6.5h-16v-249l40 1q88 0 126.5 5.5t56.5 20.5t31 52l23 74h70z"/>
<glyph glyph-name="Ccedilla" horiz-adv-x="710" unicode="Ç" d="M370 -15q-148 7 -237.5 90t-89.5 228q0 151 100.5 243.5t255.5 92.5q84 0 151 -24l92 22v-223h-69l-42 146q-57 30 -124 30q-102 0 -160.5 -75t-58.5 -197q0 -132 58.5 -209t163.5 -77q63 0 111 24l52 150h73l-19 -206l-66 13q-72 -26 -142 -28l-38 -39q64 -2 100.5 -27 t36.5 -68q0 -53 -60.5 -87t-161.5 -39l-10 27q157 18 157 81q0 24 -21.5 38t-62.5 14q-37 0 -69 -7v24z"/>
<glyph glyph-name="Egrave" horiz-adv-x="642" unicode="È" d="M373 682h-45l-177 182h127zM596 197l-19 -197h-541l3 40l36 4q34 4 34 19v500q0 7 -7.5 11t-30.5 7l-32 4l-3 40h543v-206h-68l-22 83q-10 38 -27.5 53t-52.5 20t-121 5h-47v-242h25q46 0 65 6t26 26l24 68h52l-23 -242h-50l-10 64q-2 20 -18.5 26.5t-68.5 6.5h-22v-248 h49q86 0 124 5.5t56.5 20.5t31.5 52l22 74h72z"/>
<glyph glyph-name="Eacute" horiz-adv-x="642" unicode="É" d="M495 864l-177 -182h-46l94 182h129zM596 197l-19 -197h-541l3 40l36 4q34 4 34 19v500q0 7 -7.5 11t-30.5 7l-32 4l-3 40h543v-206h-68l-22 83q-10 38 -27.5 53t-52.5 20t-121 5h-47v-242h25q46 0 65 6t26 26l24 68h52l-23 -242h-50l-10 64q-2 20 -18.5 26.5t-68.5 6.5 h-22v-248h49q86 0 124 5.5t56.5 20.5t31.5 52l22 74h72z"/>
<glyph glyph-name="Ecircumflex" horiz-adv-x="642" unicode="Ê" d="M464 682h-37l-105 105h-2l-105 -105h-37l116 197h54zM596 197l-19 -197h-541l3 40l36 4q34 4 34 19v500q0 7 -7.5 11t-30.5 7l-32 4l-3 40h543v-206h-68l-22 83q-10 38 -27.5 53t-52.5 20t-121 5h-47v-242h25q46 0 65 6t26 26l24 68h52l-23 -242h-50l-10 64 q-2 20 -18.5 26.5t-68.5 6.5h-22v-248h49q86 0 124 5.5t56.5 20.5t31.5 52l22 74h72z"/>
<glyph glyph-name="Edieresis" horiz-adv-x="642" unicode="Ë" d="M279 773q0 -29 -17.5 -49t-47.5 -20t-48 20t-18 49t18 49.5t48 20.5t47.5 -20.5t17.5 -49.5zM494 773q0 -29 -18 -49t-48 -20t-47 20t-17 49t17 49.5t47 20.5t48 -20.5t18 -49.5zM596 197l-19 -197h-541l3 40l36 4q34 4 34 19v500q0 7 -7.5 11t-30.5 7l-32 4l-3 40h543 v-206h-68l-22 83q-10 38 -27.5 53t-52.5 20t-121 5h-47v-242h25q46 0 65 6t26 26l24 68h52l-23 -242h-50l-10 64q-2 20 -18.5 26.5t-68.5 6.5h-22v-248h49q86 0 124 5.5t56.5 20.5t31.5 52l22 74h72z"/>
<glyph glyph-name="Igrave" horiz-adv-x="373" unicode="Ì" d="M221 682h-45l-177 182h127zM337 0h-300l3 40l46 4q35 4 35 19v500q0 13 -38 18l-43 4l-3 40h300l-3 -40l-47 -4q-34 -4 -34 -19v-501q0 -13 36 -17l45 -4z"/>
<glyph glyph-name="Iacute" horiz-adv-x="373" unicode="Í" d="M376 864l-177 -182h-46l94 182h129zM337 0h-300l3 40l46 4q35 4 35 19v500q0 13 -38 18l-43 4l-3 40h300l-3 -40l-47 -4q-34 -4 -34 -19v-501q0 -13 36 -17l45 -4z"/>
<glyph glyph-name="Icircumflex" horiz-adv-x="373" unicode="Î" d="M329 682h-37l-105 105h-2l-105 -105h-37l116 197h54zM337 0h-300l3 40l46 4q35 4 35 19v500q0 13 -38 18l-43 4l-3 40h300l-3 -40l-47 -4q-34 -4 -34 -19v-501q0 -13 36 -17l45 -4z"/>
<glyph glyph-name="Idieresis" horiz-adv-x="373" unicode="Ï" d="M144 773q0 -29 -17.5 -49t-47.5 -20t-48 20t-18 49t18 49.5t48 20.5t47.5 -20.5t17.5 -49.5zM359 773q0 -29 -18 -49t-48 -20t-47 20t-17 49t17 49.5t47 20.5t48 -20.5t18 -49.5zM337 0h-300l3 40l46 4q35 4 35 19v500q0 13 -38 18l-43 4l-3 40h300l-3 -40l-47 -4 q-34 -4 -34 -19v-501q0 -13 36 -17l45 -4z"/>
<glyph glyph-name="Eth" horiz-adv-x="707" unicode="Ð" d="M238 339h116l3 -46h-119v-233l71 -15h7q99 0 157 72.5t58 183.5q0 130 -66.5 204.5t-194.5 74.5h-32v-241zM109 293h-77l3 46h74v211q0 20 -23 24l-48 11l-3 40l260 4h8q166 0 267 -84.5t101 -217.5q0 -141 -100 -234t-277 -93h-259l3 40l48 11q23 4 23 24v218z"/>
<glyph glyph-name="Ntilde" horiz-adv-x="733" unicode="Ñ" d="M541 825q-15 -135 -104 -135q-33 0 -86.5 35.5t-69.5 35.5q-15 0 -23 -12.5t-21 -49.5h-44q17 135 104 135q33 0 85.5 -35t68.5 -35q15 0 25.5 14t22.5 47h42zM714 625l-3 -40l-47 -10q-16 -3 -23.5 -14t-12.5 -54t-5 -132v-383h-92l-359 497h-7v-240q0 -90 4 -132 t11 -53t23 -14l54 -10l3 -40h-236l3 40l47 10q16 4 23.5 14t12.5 53t5 132v257q0 47 -37 64l-45 15l-3 40h206l329 -459h8v209q0 90 -4 132t-11.5 53.5t-23.5 14.5l-53 10l-3 40h236z"/>
<glyph glyph-name="Ograve" horiz-adv-x="761" unicode="Ò" d="M445 682h-45l-177 182h127zM573 305q0 134 -55.5 210.5t-139.5 76.5q-83 0 -137 -71.5t-54 -202.5q0 -134 56 -211t140 -77q82 0 136 72t54 203zM718 316q0 -143 -99 -237.5t-241 -94.5q-150 0 -242.5 89t-92.5 233q0 143 99.5 238t240.5 95q150 0 242.5 -89t92.5 -234z "/>
<glyph glyph-name="Oacute" horiz-adv-x="761" unicode="Ó" d="M554 864l-177 -182h-46l94 182h129zM573 305q0 134 -55.5 210.5t-139.5 76.5q-83 0 -137 -71.5t-54 -202.5q0 -134 56 -211t140 -77q82 0 136 72t54 203zM718 316q0 -143 -99 -237.5t-241 -94.5q-150 0 -242.5 89t-92.5 233q0 143 99.5 238t240.5 95q150 0 242.5 -89 t92.5 -234z"/>
<glyph glyph-name="Ocircumflex" horiz-adv-x="761" unicode="Ô" d="M523 682h-37l-105 105h-2l-105 -105h-37l116 197h54zM573 305q0 134 -55.5 210.5t-139.5 76.5q-83 0 -137 -71.5t-54 -202.5q0 -134 56 -211t140 -77q82 0 136 72t54 203zM718 316q0 -143 -99 -237.5t-241 -94.5q-150 0 -242.5 89t-92.5 233q0 143 99.5 238t240.5 95 q150 0 242.5 -89t92.5 -234z"/>
<glyph glyph-name="Otilde" horiz-adv-x="761" unicode="Õ" d="M554 825q-15 -135 -104 -135q-33 0 -86.5 35.5t-69.5 35.5q-15 0 -23 -12.5t-21 -49.5h-44q17 135 104 135q33 0 85.5 -35t68.5 -35q15 0 25.5 14t22.5 47h42zM573 305q0 134 -55.5 210.5t-139.5 76.5q-83 0 -137 -71.5t-54 -202.5q0 -134 56 -211t140 -77q82 0 136 72 t54 203zM718 316q0 -143 -99 -237.5t-241 -94.5q-150 0 -242.5 89t-92.5 233q0 143 99.5 238t240.5 95q150 0 242.5 -89t92.5 -234z"/>
<glyph glyph-name="Odieresis" horiz-adv-x="761" unicode="Ö" d="M338 773q0 -29 -17.5 -49t-47.5 -20t-48 20t-18 49t18 49.5t48 20.5t47.5 -20.5t17.5 -49.5zM553 773q0 -29 -18 -49t-48 -20t-47 20t-17 49t17 49.5t47 20.5t48 -20.5t18 -49.5zM573 305q0 134 -55.5 210.5t-139.5 76.5q-83 0 -137 -71.5t-54 -202.5q0 -134 56 -211 t140 -77q82 0 136 72t54 203zM718 316q0 -143 -99 -237.5t-241 -94.5q-150 0 -242.5 89t-92.5 233q0 143 99.5 238t240.5 95q150 0 242.5 -89t92.5 -234z"/>
<glyph glyph-name="multiply" d="M447 402l-167 -167l167 -167l-40 -40l-167 166l-167 -166l-40 40l167 167l-167 167l40 40l167 -167l167 167z" unicode="×"/>
<glyph glyph-name="Oslash" horiz-adv-x="761" unicode="Ø" d="M568 301q0 122 -55 204q-247 -425 -248 -425q51 -46 115 -46q84 0 136 70t52 197zM483 542q-49 48 -117 48q-84 0 -136.5 -70t-52.5 -197q0 -128 58 -207zM705 317q0 -143 -94.5 -238t-239.5 -95q-78 0 -145 28l-50 -86h-51l61 105q-69 41 -107.5 112.5t-38.5 162.5 q0 143 95 238t240 95q81 0 147 -29l45 78h52q-57 -97 -57 -98q68 -41 105.5 -111.5t37.5 -161.5z"/>
<glyph glyph-name="Ugrave" horiz-adv-x="710" unicode="Ù" d="M420 682h-45l-177 182h127zM696 625l-3 -40l-47 -10q-17 -3 -24 -14t-12 -54t-5 -132v-165q0 -105 -67 -168t-181 -63q-118 0 -187 54t-69 158v372q0 7 -7.5 11t-30.5 7l-32 4l-3 40h279l-3 -40l-36 -4q-35 -4 -35 -19v-336q0 -89 41.5 -135t118.5 -46q161 0 161 181v149 q0 90 -4 132.5t-11 53.5t-23 14l-54 10l-3 40h237z"/>
<glyph glyph-name="Uacute" horiz-adv-x="710" unicode="Ú" d="M564 864l-177 -182h-46l94 182h129zM696 625l-3 -40l-47 -10q-17 -3 -24 -14t-12 -54t-5 -132v-165q0 -105 -67 -168t-181 -63q-118 0 -187 54t-69 158v372q0 7 -7.5 11t-30.5 7l-32 4l-3 40h279l-3 -40l-36 -4q-35 -4 -35 -19v-336q0 -89 41.5 -135t118.5 -46 q161 0 161 181v149q0 90 -4 132.5t-11 53.5t-23 14l-54 10l-3 40h237z"/>
<glyph glyph-name="Ucircumflex" horiz-adv-x="710" unicode="Û" d="M518 682h-37l-105 105h-2l-105 -105h-37l116 197h54zM696 625l-3 -40l-47 -10q-17 -3 -24 -14t-12 -54t-5 -132v-165q0 -105 -67 -168t-181 -63q-118 0 -187 54t-69 158v372q0 7 -7.5 11t-30.5 7l-32 4l-3 40h279l-3 -40l-36 -4q-35 -4 -35 -19v-336q0 -89 41.5 -135 t118.5 -46q161 0 161 181v149q0 90 -4 132.5t-11 53.5t-23 14l-54 10l-3 40h237z"/>
<glyph glyph-name="Udieresis" horiz-adv-x="710" unicode="Ü" d="M328 773q0 -29 -17.5 -49t-47.5 -20t-48 20t-18 49t18 49.5t48 20.5t47.5 -20.5t17.5 -49.5zM543 773q0 -29 -18 -49t-48 -20t-47 20t-17 49t17 49.5t47 20.5t48 -20.5t18 -49.5zM696 625l-3 -40l-47 -10q-17 -3 -24 -14t-12 -54t-5 -132v-165q0 -105 -67 -168t-181 -63 q-118 0 -187 54t-69 158v372q0 7 -7.5 11t-30.5 7l-32 4l-3 40h279l-3 -40l-36 -4q-35 -4 -35 -19v-336q0 -89 41.5 -135t118.5 -46q161 0 161 181v149q0 90 -4 132.5t-11 53.5t-23 14l-54 10l-3 40h237z"/>
<glyph glyph-name="Yacute" horiz-adv-x="606" unicode="Ý" d="M462 864l-177 -182h-46l94 182h129zM618 625l-3 -41l-20 -6q-27 -8 -48 -28t-56 -78l-119 -206v-205q0 -13 36 -17l49 -4l3 -40h-309l3 40l51 4q35 4 35 19v190l-171 285q-19 30 -49 38l-29 8l-3 41h285l-3 -41l-35 -6q-20 -3 -20 -24q0 -26 31 -82l89 -160h7l89 159 q30 49 30 76q0 25 -32 31l-28 6l-3 41h220z"/>
<glyph glyph-name="Thorn" horiz-adv-x="615" unicode="Þ" d="M431 310q0 71 -39.5 111.5t-111.5 40.5h-39v-286q31 -7 68 -7q56 0 89 39t33 102zM574 328q0 -94 -77.5 -148.5t-187.5 -54.5q-22 0 -68 4v-68q0 -13 37 -17l48 -4l3 -40h-293l3 40l36 4q34 4 34 19v501q0 14 -38 17l-32 5l-3 40l279 -1l-3 -40l-36 -4q-35 -3 -35 -19 v-58h76q124 0 190.5 -48t66.5 -128z"/>
<glyph glyph-name="germandbls" horiz-adv-x="579" unicode="ß" d="M368 422q80 -39 133.5 -103t53.5 -138q0 -81 -52 -139t-125 -58q-58 0 -95.5 27t-37.5 69q0 31 19 50.5t48 19.5q30 0 45.5 -17t15.5 -42q0 -31 -20 -53q18 -9 31 -9q32 0 54.5 25.5t22.5 63.5q0 65 -46 127.5t-147 111.5v71q64 14 91 44.5t27 82.5q0 41 -24 67t-62 26 q-97 0 -97 -150v-498h-177l3 39l27 3q31 1 31 19v323l-80 7l6 57l69 2l1 18q9 107 68.5 167.5t156.5 60.5q87 0 137.5 -39t50.5 -107q0 -93 -128 -128z"/>
<glyph glyph-name="agrave" horiz-adv-x="490" unicode="à" d="M268 515h-45l-177 182h127zM287 105l4 137q-83 -23 -114.5 -50t-31.5 -61q0 -30 19.5 -47t48.5 -17q38 0 74 38zM490 62q-25 -34 -56.5 -56.5t-60.5 -22.5q-33 0 -55.5 20.5t-24.5 62.5h-5q-67 -81 -131 -81q-51 0 -87 32t-36 86q0 61 62 101t197 74v8q1 123 -99 123 q-16 0 -32.5 -3.5t-26.5 -8t-10 -7.5q0 -1 6.5 -8.5t12.5 -20t6 -26.5q0 -20 -16.5 -36t-42.5 -16t-43.5 14.5t-17.5 36.5q0 45 72 89.5t150 44.5q80 0 119 -39t39 -134q0 -4 -0.5 -12t-0.5 -12l-7 -165v-6q0 -37 25 -37q16 0 47 25z"/>
<glyph glyph-name="aacute" horiz-adv-x="490" unicode="á" d="M401 697l-177 -182h-46l94 182h129zM287 105l4 137q-83 -23 -114.5 -50t-31.5 -61q0 -30 19.5 -47t48.5 -17q38 0 74 38zM490 62q-25 -34 -56.5 -56.5t-60.5 -22.5q-33 0 -55.5 20.5t-24.5 62.5h-5q-67 -81 -131 -81q-51 0 -87 32t-36 86q0 61 62 101t197 74v8 q1 123 -99 123q-16 0 -32.5 -3.5t-26.5 -8t-10 -7.5q0 -1 6.5 -8.5t12.5 -20t6 -26.5q0 -20 -16.5 -36t-42.5 -16t-43.5 14.5t-17.5 36.5q0 45 72 89.5t150 44.5q80 0 119 -39t39 -134q0 -4 -0.5 -12t-0.5 -12l-7 -165v-6q0 -37 25 -37q16 0 47 25z"/>
<glyph glyph-name="acircumflex" horiz-adv-x="490" unicode="â" d="M372 515h-37l-105 105h-2l-105 -105h-37l116 197h54zM287 105l4 137q-83 -23 -114.5 -50t-31.5 -61q0 -30 19.5 -47t48.5 -17q38 0 74 38zM490 62q-25 -34 -56.5 -56.5t-60.5 -22.5q-33 0 -55.5 20.5t-24.5 62.5h-5q-67 -81 -131 -81q-51 0 -87 32t-36 86q0 61 62 101 t197 74v8q1 123 -99 123q-16 0 -32.5 -3.5t-26.5 -8t-10 -7.5q0 -1 6.5 -8.5t12.5 -20t6 -26.5q0 -20 -16.5 -36t-42.5 -16t-43.5 14.5t-17.5 36.5q0 45 72 89.5t150 44.5q80 0 119 -39t39 -134q0 -4 -0.5 -12t-0.5 -12l-7 -165v-6q0 -37 25 -37q16 0 47 25z"/>
<glyph glyph-name="atilde" horiz-adv-x="490" unicode="ã" d="M403 658q-15 -135 -104 -135q-33 0 -86.5 35.5t-69.5 35.5q-15 0 -23 -12.5t-21 -49.5h-44q17 135 104 135q33 0 85.5 -35t68.5 -35q15 0 25.5 14t22.5 47h42zM287 105l4 137q-83 -23 -114.5 -50t-31.5 -61q0 -30 19.5 -47t48.5 -17q38 0 74 38zM490 62 q-25 -34 -56.5 -56.5t-60.5 -22.5q-33 0 -55.5 20.5t-24.5 62.5h-5q-67 -81 -131 -81q-51 0 -87 32t-36 86q0 61 62 101t197 74v8q1 123 -99 123q-16 0 -32.5 -3.5t-26.5 -8t-10 -7.5q0 -1 6.5 -8.5t12.5 -20t6 -26.5q0 -20 -16.5 -36t-42.5 -16t-43.5 14.5t-17.5 36.5 q0 45 72 89.5t150 44.5q80 0 119 -39t39 -134q0 -4 -0.5 -12t-0.5 -12l-7 -165v-6q0 -37 25 -37q16 0 47 25z"/>
<glyph glyph-name="adieresis" horiz-adv-x="490" unicode="ä" d="M191 606q0 -29 -17.5 -49t-47.5 -20t-48 20t-18 49t18 49.5t48 20.5t47.5 -20.5t17.5 -49.5zM406 606q0 -29 -18 -49t-48 -20t-47 20t-17 49t17 49.5t47 20.5t48 -20.5t18 -49.5zM287 105l4 137q-83 -23 -114.5 -50t-31.5 -61q0 -30 19.5 -47t48.5 -17q38 0 74 38z M490 62q-25 -34 -56.5 -56.5t-60.5 -22.5q-33 0 -55.5 20.5t-24.5 62.5h-5q-67 -81 -131 -81q-51 0 -87 32t-36 86q0 61 62 101t197 74v8q1 123 -99 123q-16 0 -32.5 -3.5t-26.5 -8t-10 -7.5q0 -1 6.5 -8.5t12.5 -20t6 -26.5q0 -20 -16.5 -36t-42.5 -16t-43.5 14.5 t-17.5 36.5q0 45 72 89.5t150 44.5q80 0 119 -39t39 -134q0 -4 -0.5 -12t-0.5 -12l-7 -165v-6q0 -37 25 -37q16 0 47 25z"/>
<glyph glyph-name="aring" horiz-adv-x="485" unicode="å" d="M287 105l4 137q-83 -23 -114.5 -50t-31.5 -61q0 -30 19.5 -47t48.5 -17q38 0 74 38zM297 613q0 28 -17.5 48t-46.5 20t-46.5 -20t-17.5 -48q0 -27 17.5 -47t46.5 -20t46.5 20t17.5 47zM490 62q-25 -34 -56.5 -56.5t-60.5 -22.5q-33 0 -55.5 20.5t-24.5 62.5h-5 q-67 -81 -131 -81q-51 0 -87 32t-36 86q0 61 62 101t197 74v8q1 123 -99 123q-16 0 -32.5 -3.5t-26.5 -8t-10 -7.5q0 -1 6.5 -8.5t12.5 -20t6 -26.5q0 -20 -16.5 -36t-42.5 -16t-43.5 14.5t-17.5 36.5q0 45 72 89.5t150 44.5q80 0 119 -39t39 -134q0 -4 -0.5 -12t-0.5 -12 l-7 -165v-6q0 -37 25 -37q16 0 47 25zM332 613q0 -42 -27.5 -71t-71.5 -29t-71.5 29t-27.5 71t27.5 71t71.5 29t71.5 -29t27.5 -71z"/>
<glyph glyph-name="ae" horiz-adv-x="737" unicode="æ" d="M289 241q-144 -38 -144 -110q0 -30 19.5 -47t49.5 -17q49 0 90 48q-17 45 -17 96q0 16 2 30zM583 298v14q0 53 -19 82.5t-51 29.5q-39 0 -67.5 -33.5t-34.5 -94.5zM318 88q-30 -46 -73 -74.5t-88 -28.5q-51 0 -87 32t-36 86q0 61 62 101t197 74v10v13q0 53 -26.5 80.5 t-72.5 27.5q-16 0 -32.5 -3.5t-26.5 -8t-10 -7.5q0 -1 6.5 -8.5t12.5 -20t6 -26.5q0 -20 -16.5 -36t-42.5 -16t-43.5 14.5t-17.5 36.5q0 45 72 89.5t151 44.5q97 0 129 -52q65 52 150 52q74 0 121 -41.5t47 -113.5q0 -29 -6 -55l-284 4v-11q1 -82 39.5 -131.5t101.5 -49.5 q73 0 125 63l22 -12q-25 -65 -76.5 -100.5t-123.5 -35.5q-58 0 -105.5 27.5t-74.5 75.5z"/>
<glyph glyph-name="ccedilla" horiz-adv-x="468" unicode="ç" d="M230 -15q-85 6 -141 68.5t-56 157.5q0 111 72 184t178 73q72 0 113.5 -29t41.5 -73q0 -32 -18.5 -47t-45.5 -15q-28 0 -46.5 24t-18.5 57q0 13 3 25v2q-15 10 -41 10q-49 0 -81.5 -43t-32.5 -121q0 -83 39 -135.5t101 -52.5q74 0 126 63l22 -12q-45 -116 -164 -133 l-41 -42q64 -2 100.5 -27t36.5 -68q0 -53 -60.5 -87t-161.5 -39l-10 27q157 18 157 81q0 24 -21.5 38t-62.5 14q-37 0 -69 -7v24z"/>
<glyph glyph-name="egrave" horiz-adv-x="483" unicode="è" d="M306 515h-45l-177 182h127zM328 298q0 3 0.5 8.5t0.5 8.5q0 51 -19 80t-51 29q-39 0 -67.5 -33.5t-34.5 -94.5zM444 121q-25 -65 -76.5 -100.5t-123.5 -35.5q-91 0 -151 63t-60 163q0 110 70 183.5t175 73.5q74 0 121 -41.5t47 -113.5q0 -29 -6 -55l-284 4v-11 q1 -82 39.5 -131.5t101.5 -49.5q73 0 125 63z"/>
<glyph glyph-name="eacute" horiz-adv-x="483" unicode="é" d="M410 697l-177 -182h-46l94 182h129zM328 298q0 3 0.5 8.5t0.5 8.5q0 51 -19 80t-51 29q-39 0 -67.5 -33.5t-34.5 -94.5zM444 121q-25 -65 -76.5 -100.5t-123.5 -35.5q-91 0 -151 63t-60 163q0 110 70 183.5t175 73.5q74 0 121 -41.5t47 -113.5q0 -29 -6 -55l-284 4v-11 q1 -82 39.5 -131.5t101.5 -49.5q73 0 125 63z"/>
<glyph glyph-name="ecircumflex" horiz-adv-x="483" unicode="ê" d="M384 515h-37l-105 105h-2l-105 -105h-37l116 197h54zM328 298q0 3 0.5 8.5t0.5 8.5q0 51 -19 80t-51 29q-39 0 -67.5 -33.5t-34.5 -94.5zM444 121q-25 -65 -76.5 -100.5t-123.5 -35.5q-91 0 -151 63t-60 163q0 110 70 183.5t175 73.5q74 0 121 -41.5t47 -113.5 q0 -29 -6 -55l-284 4v-11q1 -82 39.5 -131.5t101.5 -49.5q73 0 125 63z"/>
<glyph glyph-name="edieresis" horiz-adv-x="483" unicode="ë" d="M199 606q0 -29 -17.5 -49t-47.5 -20t-48 20t-18 49t18 49.5t48 20.5t47.5 -20.5t17.5 -49.5zM414 606q0 -29 -18 -49t-48 -20t-47 20t-17 49t17 49.5t47 20.5t48 -20.5t18 -49.5zM328 298q0 3 0.5 8.5t0.5 8.5q0 51 -19 80t-51 29q-39 0 -67.5 -33.5t-34.5 -94.5z M444 121q-25 -65 -76.5 -100.5t-123.5 -35.5q-91 0 -151 63t-60 163q0 110 70 183.5t175 73.5q74 0 121 -41.5t47 -113.5q0 -29 -6 -55l-284 4v-11q1 -82 39.5 -131.5t101.5 -49.5q73 0 125 63z"/>
<glyph glyph-name="igrave" horiz-adv-x="296" unicode="ì" d="M210 515h-45l-177 182h127zM270 0h-240l3 39l23 3q34 3 34 19v240q0 46 -8 60t-35 21l-20 6l1 31l179 49v-408q0 -16 38 -18l22 -3z"/>
<glyph glyph-name="iacute" horiz-adv-x="296" unicode="í" d="M306 697l-177 -182h-46l94 182h129zM270 0h-240l3 39l23 3q34 3 34 19v240q0 46 -8 60t-35 21l-20 6l1 31l179 49v-408q0 -16 38 -18l22 -3z"/>
<glyph glyph-name="icircumflex" horiz-adv-x="296" unicode="î" d="M291 515h-37l-105 105h-2l-105 -105h-37l116 197h54zM270 0h-240l3 39l23 3q34 3 34 19v240q0 46 -8 60t-35 21l-20 6l1 31l179 49v-408q0 -16 38 -18l22 -3z"/>
<glyph glyph-name="idieresis" horiz-adv-x="296" unicode="ï" d="M106 606q0 -29 -17.5 -49t-47.5 -20t-48 20t-18 49t18 49.5t48 20.5t47.5 -20.5t17.5 -49.5zM321 606q0 -29 -18 -49t-48 -20t-47 20t-17 49t17 49.5t47 20.5t48 -20.5t18 -49.5zM270 0h-240l3 39l23 3q34 3 34 19v240q0 46 -8 60t-35 21l-20 6l1 31l179 49v-408 q0 -16 38 -18l22 -3z"/>
<glyph glyph-name="eth" horiz-adv-x="538" unicode="ð" d="M160 253q0 -136 56 -192q25 -27 64 -27q46 0 73.5 45t27.5 120q0 137 -53 190q-29 29 -66 29q-47 0 -74.5 -45t-27.5 -120zM274 558l-143 -48v48l98 33q-40 26 -100 43l16 36q85 -16 155 -56l122 41v-48q-73 -24 -73 -25q73 -55 114 -136t42 -180q0 -125 -67.5 -203.5 t-168.5 -78.5q-106 0 -170.5 69.5t-64.5 171.5q0 104 62.5 172t150.5 68q77 0 122 -63q-26 93 -95 156z"/>
<glyph glyph-name="ntilde" horiz-adv-x="573" unicode="ñ" d="M460 658q-15 -135 -104 -135q-33 0 -86.5 35.5t-69.5 35.5q-15 0 -23 -12.5t-21 -49.5h-44q17 135 104 135q33 0 85.5 -35t68.5 -35q15 0 25.5 14t22.5 47h42zM561 0h-238l3 39l19 3q34 2 34 19v196q0 71 -21 97t-66 26q-46 0 -88 -31v-289q0 -16 38 -18l27 -3l3 -39 h-246l3 39l24 3q34 3 34 19v240q0 46 -8 60t-35 21l-20 6l1 31l179 49v-74h5q93 74 164 74q50 0 85 -35q38 -38 38 -115v-257q0 -8 8 -12t33 -7l21 -3z"/>
<glyph glyph-name="ograve" horiz-adv-x="549" unicode="ò" d="M315 515h-45l-177 182h127zM385 202q0 142 -47 190q-25 29 -66 29q-48 0 -78 -46t-30 -125q0 -145 46 -192q27 -27 68 -27q47 0 77 47t30 124zM515 234q0 -105 -71 -177t-179 -72q-106 0 -168.5 68.5t-62.5 169.5q0 103 72.5 174t179.5 71q104 0 166.5 -67.5t62.5 -166.5 z"/>
<glyph glyph-name="oacute" horiz-adv-x="549" unicode="ó" d="M447 697l-177 -182h-46l94 182h129zM385 202q0 142 -47 190q-25 29 -66 29q-48 0 -78 -46t-30 -125q0 -145 46 -192q27 -27 68 -27q47 0 77 47t30 124zM515 234q0 -105 -71 -177t-179 -72q-106 0 -168.5 68.5t-62.5 169.5q0 103 72.5 174t179.5 71q104 0 166.5 -67.5 t62.5 -166.5z"/>
<glyph glyph-name="ocircumflex" horiz-adv-x="549" unicode="ô" d="M416 515h-37l-105 105h-2l-105 -105h-37l116 197h54zM385 202q0 142 -47 190q-25 29 -66 29q-48 0 -78 -46t-30 -125q0 -145 46 -192q27 -27 68 -27q47 0 77 47t30 124zM515 234q0 -105 -71 -177t-179 -72q-106 0 -168.5 68.5t-62.5 169.5q0 103 72.5 174t179.5 71 q104 0 166.5 -67.5t62.5 -166.5z"/>
<glyph glyph-name="otilde" horiz-adv-x="549" unicode="õ" d="M447 658q-15 -135 -104 -135q-33 0 -86.5 35.5t-69.5 35.5q-15 0 -23 -12.5t-21 -49.5h-44q17 135 104 135q33 0 85.5 -35t68.5 -35q15 0 25.5 14t22.5 47h42zM385 202q0 142 -47 190q-25 29 -66 29q-48 0 -78 -46t-30 -125q0 -145 46 -192q27 -27 68 -27q47 0 77 47 t30 124zM515 234q0 -105 -71 -177t-179 -72q-106 0 -168.5 68.5t-62.5 169.5q0 103 72.5 174t179.5 71q104 0 166.5 -67.5t62.5 -166.5z"/>
<glyph glyph-name="odieresis" horiz-adv-x="549" unicode="ö" d="M231 606q0 -29 -17.5 -49t-47.5 -20t-48 20t-18 49t18 49.5t48 20.5t47.5 -20.5t17.5 -49.5zM446 606q0 -29 -18 -49t-48 -20t-47 20t-17 49t17 49.5t47 20.5t48 -20.5t18 -49.5zM385 202q0 142 -47 190q-25 29 -66 29q-48 0 -78 -46t-30 -125q0 -145 46 -192 q27 -27 68 -27q47 0 77 47t30 124zM515 234q0 -105 -71 -177t-179 -72q-106 0 -168.5 68.5t-62.5 169.5q0 103 72.5 174t179.5 71q104 0 166.5 -67.5t62.5 -166.5z"/>
<glyph glyph-name="divide" d="M444 206h-405l3 57h399zM294 375q0 -21 -15 -36.5t-37 -15.5t-36.5 15.5t-14.5 36.5t14.5 36.5t36.5 15.5t37 -15.5t15 -36.5zM294 95q0 -21 -14.5 -36.5t-36.5 -15.5t-37 15.5t-15 36.5t15 36t37 15t36.5 -15t14.5 -36z" unicode="÷"/>
<glyph glyph-name="oslash" horiz-adv-x="546" unicode="ø" d="M389 200q0 83 -28 139l-155 -269q29 -36 79 -36q47 0 75.5 44.5t28.5 121.5zM339 382q-29 36 -80 36q-48 0 -76 -44.5t-28 -121.5q0 -81 28 -139zM503 585q-91 -158 -92 -158q46 -32 72 -84.5t26 -114.5q0 -103 -67.5 -173.5t-171.5 -70.5q-55 0 -102 22l-77 -135l-40 12 l82 143q-46 32 -71.5 84.5t-25.5 114.5q0 103 68 173t172 70q56 0 100 -21l87 150z"/>
<glyph glyph-name="ugrave" horiz-adv-x="560" unicode="ù" d="M319 515h-45l-177 182h127zM550 34l-3 -29l-182 -20v74h-5q-92 -74 -164 -74q-50 0 -85 35q-38 38 -38 115l1 258q0 9 -7 12t-35 7l-20 2l-3 39h187l-6 -257q0 -70 21 -96.5t66 -26.5q48 0 88 31v290q0 8 -7.5 12t-30.5 6l-29 2l-4 39h188v-367q0 -30 17 -36z"/>
<glyph glyph-name="uacute" horiz-adv-x="560" unicode="ú" d="M438 697l-177 -182h-46l94 182h129zM550 34l-3 -29l-182 -20v74h-5q-92 -74 -164 -74q-50 0 -85 35q-38 38 -38 115l1 258q0 9 -7 12t-35 7l-20 2l-3 39h187l-6 -257q0 -70 21 -96.5t66 -26.5q48 0 88 31v290q0 8 -7.5 12t-30.5 6l-29 2l-4 39h188v-367q0 -30 17 -36z "/>
<glyph glyph-name="ucircumflex" horiz-adv-x="560" unicode="û" d="M410 515h-37l-105 105h-2l-105 -105h-37l116 197h54zM550 34l-3 -29l-182 -20v74h-5q-92 -74 -164 -74q-50 0 -85 35q-38 38 -38 115l1 258q0 9 -7 12t-35 7l-20 2l-3 39h187l-6 -257q0 -70 21 -96.5t66 -26.5q48 0 88 31v290q0 8 -7.5 12t-30.5 6l-29 2l-4 39h188v-367 q0 -30 17 -36z"/>
<glyph glyph-name="udieresis" horiz-adv-x="560" unicode="ü" d="M440 606q0 -29 -18 -49t-48 -20t-47 20t-17 49t17 49.5t47 20.5t48 -20.5t18 -49.5zM225 606q0 -29 -17.5 -49t-47.5 -20t-48 20t-18 49t18 49.5t48 20.5t47.5 -20.5t17.5 -49.5zM550 34l-3 -29l-182 -20v74h-5q-92 -74 -164 -74q-50 0 -85 35q-38 38 -38 115l1 258 q0 9 -7 12t-35 7l-20 2l-3 39h187l-6 -257q0 -70 21 -96.5t66 -26.5q48 0 88 31v290q0 8 -7.5 12t-30.5 6l-29 2l-4 39h188v-367q0 -30 17 -36z"/>
<glyph glyph-name="yacute" horiz-adv-x="483" unicode="ý" d="M400 697l-177 -182h-46l94 182h129zM506 453l-3 -38l-30 -6q-18 -3 -28.5 -16t-23.5 -44l-120 -314l-57 -168q-23 -67 -52 -98t-73 -31q-32 0 -54 18t-22 45q0 25 15 42.5t41 17.5q46 0 64 -42q23 10 43 73l26 76v6l-178 396q-7 16 -15.5 23t-28.5 12l-23 9l-4 39h248 l-3 -39l-30 -8q-20 -5 -20 -21q0 -9 4 -17l106 -250l81 231q7 21 7 30q0 20 -25 25l-33 11l-3 38h191z"/>
<glyph glyph-name="thorn" horiz-adv-x="552" unicode="þ" d="M392 202q0 79 -33 126.5t-85 47.5q-49 0 -85 -36v-249q53 -61 103 -61q42 0 71 46.5t29 125.5zM519 246q0 -108 -67.5 -184.5t-177.5 -76.5q-44 0 -83 13h-2v-184q0 -16 38 -18l34 -3l3 -39h-257l3 39l28 3q34 3 34 19v739q0 26 -17 34l-51 24l3 29l182 56v-310h5 q65 75 142 75q80 0 131.5 -62.5t51.5 -153.5z"/>
<glyph glyph-name="OE" horiz-adv-x="999" unicode="Œ" d="M476 45v522l-72 15q-105 0 -165.5 -73.5t-60.5 -185.5q0 -129 68 -203.5t198 -74.5h32zM953 195l-19 -195h-530q-161 0 -261 83t-100 215q0 137 100.5 232t276.5 95h516v-203h-63l-22 85q-14 51 -46.5 62.5t-157.5 11.5h-48v-243h29q49 0 67.5 6t25.5 25l24 68h49 l-23 -239h-47l-9 64q-3 19 -19 25.5t-71 6.5h-26v-250h48q90 0 129 5.5t57 20t30 49.5l23 76h67z"/>
<glyph glyph-name="oe" horiz-adv-x="834" unicode="œ" d="M384 201q0 143 -47 191q-27 29 -67 29q-48 0 -77.5 -45.5t-30.5 -124.5q0 -146 46 -193q27 -27 68 -27q47 0 77 46.5t31 123.5zM679 298q0 3 0.5 8.5t0.5 8.5q0 51 -19 80t-51 29q-40 0 -70.5 -33.5t-36.5 -94.5zM439 56q-71 -71 -176 -71q-104 0 -166.5 67.5 t-62.5 167.5q0 105 71.5 176.5t178.5 71.5t171 -75q69 75 174 75q74 0 121 -41.5t47 -113.5q0 -29 -6 -55l-289 4v-11q1 -82 41.5 -131.5t104.5 -49.5q73 0 125 63l22 -12q-25 -65 -77 -100.5t-124 -35.5q-97 0 -155 71z"/>
<glyph glyph-name="Scaron" horiz-adv-x="549" unicode="Š" d="M417 879l-116 -197h-54l-116 197h37l105 -105h2l105 105h37zM506 184q0 -83 -66.5 -141t-180.5 -59q-96 0 -197 29l-10 193h66l44 -149q55 -21 106 -21q61 1 92.5 29.5t31.5 70.5q0 51 -35 76.5t-114 51.5q-95 31 -142.5 71t-47.5 116q0 78 61 132.5t172 54.5h12 q50 0 125 -14l53 15v-208h-63l-40 137q-48 18 -96 18q-54 0 -84 -25.5t-30 -62.5q0 -24 9 -42t31 -31.5t42 -22t57 -21.5q104 -33 154 -75t50 -122z"/>
<glyph glyph-name="scaron" horiz-adv-x="432" unicode="š" d="M358 712l-116 -197h-54l-116 197h37l105 -105h2l105 105h37zM395 133q0 -63 -52 -105.5t-143 -42.5q-92 0 -154 24l-5 133h68l24 -91q40 -22 76 -22q37 0 62.5 20t25.5 52q0 19 -16 34.5t-33 23t-52 20.5q-7 3 -11 4q-69 25 -104.5 55.5t-35.5 90.5t48 100t129 40 q62 0 108 -16l44 11l5 -148h-63l-27 88q-33 20 -70 20q-34 0 -55 -17t-21 -43q0 -14 5.5 -24.5t11.5 -17.5t24 -15.5t28 -12.5t38 -14q34 -13 54.5 -22.5t44 -27t35 -41.5t11.5 -56z"/>
<glyph glyph-name="Ydieresis" horiz-adv-x="606" unicode="Ÿ" d="M276 773q0 -29 -17.5 -49t-47.5 -20t-48 20t-18 49t18 49.5t48 20.5t47.5 -20.5t17.5 -49.5zM491 773q0 -29 -18 -49t-48 -20t-47 20t-17 49t17 49.5t47 20.5t48 -20.5t18 -49.5zM618 625l-3 -41l-20 -6q-27 -8 -48 -28t-56 -78l-119 -206v-205q0 -13 36 -17l49 -4l3 -40 h-309l3 40l51 4q35 4 35 19v190l-171 285q-19 30 -49 38l-29 8l-3 41h285l-3 -41l-35 -6q-20 -3 -20 -24q0 -26 31 -82l89 -160h7l89 159q30 49 30 76q0 25 -32 31l-28 6l-3 41h220z"/>
<glyph glyph-name="circumflex" horiz-adv-x="400" unicode="ˆ" d="M343 515h-37l-105 105h-2l-105 -105h-37l116 197h54z"/>
<glyph glyph-name="tilde" horiz-adv-x="400" unicode="˜" d="M374 658q-15 -135 -104 -135q-33 0 -86.5 35.5t-69.5 35.5q-15 0 -23 -12.5t-21 -49.5h-44q17 135 104 135q33 0 85.5 -35t68.5 -35q15 0 25.5 14t22.5 47h42z"/>
<glyph glyph-name="thinspace" horiz-adv-x="76" unicode=" "/>
<glyph glyph-name="endash" horiz-adv-x="470" unicode="–" d="M442 215h-412l3 60h406z"/>
<glyph glyph-name="emdash" horiz-adv-x="940" unicode="—" d="M912 215h-882l3 60h876z"/>
<glyph glyph-name="quoteleft" horiz-adv-x="242" unicode="‘" d="M210 421q0 -29 -22 -50.5t-57 -21.5q-42 0 -72.5 31.5t-30.5 77.5q0 109 156 212l29 -25q-93 -63 -93 -132q0 -29 22.5 -50.5t45.5 -31.5z"/>
<glyph glyph-name="quotesinglbase" horiz-adv-x="242" unicode="‚" d="M216 27q0 -110 -155 -212l-30 24q93 63 93 132q0 29 -22.5 51t-45.5 32l-22 10q0 29 22 50.5t57 21.5q42 0 72.5 -31.5t30.5 -77.5z"/>
<glyph glyph-name="quotedblleft" horiz-adv-x="458" unicode="“" d="M210 421q0 -29 -22 -50.5t-57 -21.5q-42 0 -72.5 31.5t-30.5 77.5q0 109 156 212l29 -25q-93 -63 -93 -132q0 -29 22.5 -50.5t45.5 -31.5zM433 421q0 -29 -22 -50.5t-57 -21.5q-41 0 -72 31.5t-31 77.5q0 109 156 212l29 -25q-93 -64 -93 -132q0 -29 22.5 -50.5 t44.5 -31.5z"/>
<glyph glyph-name="quotedblright" horiz-adv-x="458" unicode="”" d="M216 550q0 -109 -155 -211l-30 24q93 63 93 132q0 29 -22.5 50.5t-45.5 31.5l-22 10q0 29 22 50.5t57 21.5q42 0 72.5 -31.5t30.5 -77.5zM440 550q0 -108 -156 -211l-29 24q93 64 93 132q0 29 -22.5 50.5t-45.5 31.5l-22 10q0 29 22 50.5t57 21.5q41 0 72 -31.5t31 -77.5 z"/>
<glyph glyph-name="dagger" horiz-adv-x="470" unicode="†" d="M442 434l-4 -46h-180v-543h-44v543h-179l-4 46h183v192h44v-192h184z"/>
<glyph glyph-name="daggerdbl" horiz-adv-x="470" unicode="‡" d="M442 20h-184v-175h-44v175h-183l4 45h179v338h-179l-4 45h183v178h44v-178h184l-4 -45h-180v-338h180z"/>
<glyph glyph-name="ellipsis" horiz-adv-x="696" unicode="…" d="M195 62q0 -31 -22.5 -54.5t-54.5 -23.5q-33 0 -55.5 23t-22.5 55t22.5 54.5t55.5 22.5t55 -22.5t22 -54.5zM427 62q0 -31 -22.5 -54.5t-54.5 -23.5q-33 0 -55.5 23t-22.5 55t22.5 54.5t55.5 22.5t55 -22.5t22 -54.5zM659 62q0 -31 -22.5 -54.5t-54.5 -23.5 q-33 0 -55.5 23t-22.5 55t22.5 54.5t55.5 22.5t55 -22.5t22 -54.5z"/>
<glyph glyph-name="perthousand" horiz-adv-x="1126" unicode="‰" d="M680 142q0 49 -32 84.5t-85 35.5t-85 -35.5t-32 -84.5q0 -52 32 -87t85 -35t85 35t32 87zM1060 142q0 49 -32 84.5t-85 35.5t-85 -35.5t-32 -84.5q0 -52 32 -87t85 -35t85 35t32 87zM300 482q0 52 -32 87t-85 35t-85 -35t-32 -87q0 -49 32 -84.5t85 -35.5t85 35.5 t32 84.5zM729 142q0 -70 -45.5 -118.5t-120.5 -48.5t-120.5 48t-45.5 119q0 69 45.5 117t120.5 48q74 0 120 -48t46 -117zM1109 142q0 -70 -45.5 -118.5t-120.5 -48.5t-120.5 48t-45.5 119q0 69 45.5 117t120.5 48q74 0 120 -48t46 -117zM654 639l-507 -654h-54l507 654h54z M349 482q0 -69 -45.5 -117t-120.5 -48q-74 0 -120 48t-46 117q0 70 45.5 118.5t120.5 48.5t120.5 -48t45.5 -119z"/>
<glyph glyph-name="guilsinglleft" horiz-adv-x="310" unicode="‹" d="M278 58l-11 -21l-234 154v60l234 154l11 -21l-145 -163z"/>
<glyph glyph-name="guilsinglright" horiz-adv-x="310" unicode="›" d="M286 191l-234 -154l-11 21l145 163l-145 163l11 21l234 -154v-60z"/>
<glyph glyph-name="fraction" horiz-adv-x="525" unicode="⁄" d="M528 638l-468 -653h-63l469 653h62z"/>
<glyph glyph-name="Euro" horiz-adv-x="529" unicode="€" d="M512 118q-25 -60 -75.5 -97t-117.5 -37q-91 0 -153 62t-82 170h-65l3 47h56q-1 11 -1 32q0 15 2 45h-60l3 47h64q24 109 96 175.5t173 66.5q65 0 106 -24.5t41 -61.5q0 -25 -16.5 -40.5t-40.5 -15.5q-29 0 -47.5 24t-21.5 58q-18 12 -43 12q-56 0 -94.5 -53.5 t-49.5 -140.5h201l3 -47h-208v-19q0 -31 3 -58h202l3 -47h-197q39 -152 159 -152q75 0 137 67z"/>
<glyph glyph-name="trademark" horiz-adv-x="937" unicode="™" d="M379 625v-145h-41l-5 19q-15 59 -30 76.5t-60 17.5h-1v-290q0 -11 12 -14l39 -6l2 -30h-189l3 30l38 6q13 3 13 14v290h-1q-39 0 -55 -19t-33 -75l-6 -19h-39l8 145h345zM917 253h-181l1 30l32 7q12 3 12 40v19l-4 232h-10l-98 -316h-68l-74 319h-10l-7 -195 q-1 -23 -1 -55q0 -27 2.5 -35.5t9.5 -10.5l32 -5l2 -30h-139l3 30l30 5q12 2 16.5 19t6.5 82l6 185q0 12 -13 15l-34 6l-2 30h169l55 -272h10l79 272h168l-2 -30l-34 -6q-14 -3 -14 -15l4 -225q1 -56 20 -59l31 -7z"/>
<glyph glyph-name="minus" d="M442 206h-405l3 57h399z" unicode="−"/>
<glyph glyph-name="approxequal" d="M154 158q-14 0 -22.5 -2t-20.5 -15.5t-21 -40.5h-50q10 53 39.5 84t71.5 31q27 0 90 -33t85 -33q14 0 22.5 2t20.5 15.5t21 40.5h50q-10 -53 -39.5 -84t-71.5 -31q-33 0 -96 33t-79 33zM154 325q-14 0 -22.5 -2t-20.5 -15.5t-21 -40.5h-50q10 53 39.5 84t71.5 31 q27 0 90 -33t85 -33q14 0 22.5 2t20.5 15.5t21 40.5h50q-10 -53 -39.5 -84t-71.5 -31q-33 0 -96 33t-79 33z" unicode="≈"/>
<glyph glyph-name="notequal" d="M140 -23l41 144h-142l3 57h155l32 113h-187l-3 57h206l38 134h56l-38 -134h140l-3 -57h-153l-32 -113h185l3 -57h-204l-41 -144h-56z" unicode="≠"/>
<glyph glyph-name="lessequal" d="M448 2h-416l3 57h410zM134 270l307 -128l-14 -51l-395 166v36l395 166l14 -51l-307 -128v-10z" unicode="≤"/>
<glyph glyph-name="greaterequal" d="M448 2h-416l3 57h410zM39 142l307 128v10l-307 128l14 51l395 -166v-36l-395 -166z" unicode="≥"/>
</font>
</defs>
</svg>
