<?xml version="1.0" encoding="UTF-8" standalone="no"?>
<!DOCTYPE svg  PUBLIC '-//W3C//DTD SVG 1.1//EN'  'http://www.w3.org/Graphics/SVG/1.1/DTD/svg11.dtd'>
<svg xmlns="http://www.w3.org/2000/svg">
<defs>
<font id="FreightDispProMedium-Regular" horiz-adv-x="379">
<font-face underline-position="-146" font-weight="500" descent="-200" panose-1="2 0 6 3 8 0 0 2 0 4" units-per-em="1000" unicode-range="U+0020-2265" bbox="-82 -271 979 864" x-height="430" underline-thickness="20" font-family="FreightDispProMedium" ascent="800" cap-height="625"/>
<missing-glyph horiz-adv-x="1000"/>
<glyph glyph-name=".notdef" horiz-adv-x="1000"/>
<glyph glyph-name=".null" horiz-adv-x="0"/>
<glyph glyph-name="nonmarkingreturn" horiz-adv-x="333"/>
<glyph glyph-name="space" horiz-adv-x="180" unicode=" "/>
<glyph glyph-name="exclam" horiz-adv-x="260" unicode="!" d="M131 -15q-26 0 -43.5 17.5t-17.5 41.5t17.5 41t43.5 17t42.5 -17t16.5 -41t-16.5 -41.5t-42.5 -17.5zM125 183l-44 407q0 2 -0.5 6t-0.5 6q0 38 50 38h2q51 0 51 -38q0 -2 -0.5 -6t-0.5 -6l-44 -407q0 -4 -6 -4q-7 0 -7 4z"/>
<glyph glyph-name="quotedbl" horiz-adv-x="334" unicode='&quot;' d="M3 403l107 243h2l66 -27l-161 -216h-14zM166 403l107 243h1l66 -27l-160 -216h-14z"/>
<glyph glyph-name="numbersign" horiz-adv-x="516" unicode="#" d="M149 206h165l56 211h-165zM74 -5l51 194h-135v17h140l55 211h-135v17h140l52 198h20l-53 -198h165l53 198h19l-52 -198h135v-17h-140l-55 -211h135v-17h-140l-51 -194h-19l51 194h-165l-52 -194h-19z"/>
<glyph glyph-name="dollar" horiz-adv-x="472" unicode="$" d="M168 16q32 -9 55 -9h6q58 0 97.5 37t39.5 92q0 52 -33 82.5t-97 54.5zM304 605q-31 13 -64 13q-50 0 -83 -33.5t-33 -79.5q0 -49 30 -78t89 -52zM142 -9q-55 9 -108 25l-7 160h17l59 -129q21 -14 47 -26l68 259q-1 1 -2 1q-2 1 -3 1q-83 30 -125.5 70.5t-42.5 111.5 q0 67 53.5 120.5t146.5 53.5q42 0 66 -5l29 106h19l-29 -109q17 -3 47 -11l41 13l1 -173h-16l-54 123q-12 8 -28 16l-60 -230q95 -34 143 -76.5t48 -117.5q0 -73 -63.5 -130.5t-164.5 -57.5q-30 0 -63 3l-41 -154h-19z"/>
<glyph glyph-name="percent" horiz-adv-x="594" unicode="%" d="M446 4q51 0 82.5 33.5t31.5 84.5q0 49 -31.5 83.5t-82.5 34.5t-82 -34.5t-31 -83.5q0 -51 31 -84.5t82 -33.5zM147 386q52 0 83.5 34t31.5 83q0 50 -31.5 84.5t-83.5 34.5q-51 0 -82 -34.5t-31 -84.5t31 -83.5t82 -33.5zM446 -17q-62 0 -99 40t-37 98q0 59 37 99.5 t99 40.5t99.5 -41t37.5 -99t-37.5 -98t-99.5 -40zM58 -14l452 654h24l-451 -654h-25zM147 365q-61 0 -98.5 40t-37.5 98t37.5 99t98.5 41q62 0 100 -41t38 -99t-38 -98t-100 -40z"/>
<glyph glyph-name="ampersand" horiz-adv-x="712" unicode="&amp;" d="M249 57q87 0 167 87q-67 153 -217 214q-54 -34 -76.5 -72t-22.5 -88q0 -59 43 -100t106 -41zM282 405q61 31 61 113q0 39 -22.5 71.5t-62.5 32.5q-39 0 -63 -28.5t-24 -67.5q0 -42 26 -69t85 -52zM206 -15q-89 0 -141.5 52.5t-52.5 126.5q0 70 46 123t125 80 q-90 46 -90 127q0 57 52 101.5t118 44.5q72 0 115.5 -35t43.5 -80q0 -87 -122 -128q49 -24 101 -76.5t80 -105.5q78 102 79 138q0 32 -71 39l-13 2l-3 14h245l-3 -14l-14 -2q-37 -5 -66 -25t-65 -67l-79 -103q39 -83 69 -115.5t70 -32.5q45 0 86 41l10 -12q-82 -93 -144 -93 q-53 0 -89.5 35t-67.5 105q-114 -140 -219 -140z"/>
<glyph glyph-name="quotesingle" horiz-adv-x="173" unicode="&apos;" d="M3 403l107 243h2l66 -27l-161 -216h-14z"/>
<glyph glyph-name="parenleft" horiz-adv-x="340" unicode="(" d="M326 -271q-43 23 -86 63.5t-84 97.5t-66.5 136.5t-25.5 165.5t25.5 165.5t66.5 137t84 97.5t86 63l11 -17q-57 -31 -111 -89t-96.5 -154.5t-42.5 -202.5q0 -82 24 -158t63 -131.5t80 -95t83 -62.5z"/>
<glyph glyph-name="parenright" horiz-adv-x="340" unicode=")" d="M14 -271l-11 16q42 23 83 62.5t79.5 95t62.5 131.5t24 158q0 81 -24 156.5t-62.5 131.5t-80 96t-82.5 62l11 17q43 -23 86 -63t84 -97.5t66.5 -137t25.5 -165.5t-25.5 -165.5t-66.5 -136.5t-84 -97.5t-86 -63.5z"/>
<glyph glyph-name="asterisk" horiz-adv-x="317" unicode="*" d="M202 313l-50 42l2 108q0 2 -3 3t-4 0l-58 -88l-66 -5q-1 0 -4 3t-2 4l24 63l101 28q2 1 2 5t-2 5l-101 31l-26 61q0 2 2.5 5t3.5 3l68 -4l57 -92q1 -1 5 0t4 3v110l49 40h1q8 0 8 -3l18 -62l-70 -87q0 -3 5 -8l105 37l53 -36q1 -2 1 -4l-1 -4l-53 -37l-105 39 q-1 0 -3.5 -3.5t-1.5 -5.5l68 -87l-18 -61q0 -3 -8 -3h-1z"/>
<glyph glyph-name="plus" horiz-adv-x="448" unicode="+" d="M213 27v198h-198l3 22h195v198h22v-198h195l3 -22h-198v-198h-22z"/>
<glyph glyph-name="comma" horiz-adv-x="194" unicode="," d="M36 -135l-10 8q35 19 59 50.5t24 64.5q0 30 -19.5 47.5t-40.5 17.5q-10 0 -18 -5q-3 8 -3 15q0 21 16.5 37.5t45.5 16.5q35 0 59.5 -23.5t24.5 -62.5q0 -46 -41.5 -93t-96.5 -73z"/>
<glyph glyph-name="hyphen" horiz-adv-x="294" unicode="-" d="M23 212l3 44h246l-2 -44h-247z"/>
<glyph glyph-name="period" horiz-adv-x="210" unicode="." d="M105 -13q-27 0 -45 18.5t-18 43.5q0 24 18 42t45 18t44.5 -17.5t17.5 -42.5t-17.5 -43.5t-44.5 -18.5z"/>
<glyph glyph-name="slash" horiz-adv-x="258" unicode="/" d="M13 -236l212 877h21l-211 -877h-22z"/>
<glyph glyph-name="zero" horiz-adv-x="548" unicode="0" d="M276 12q68 0 109.5 63t41.5 155q0 98 -42 163t-113 65q-67 0 -109 -62.5t-42 -150.5q0 -104 40.5 -168.5t114.5 -64.5zM273 -12q-105 0 -173 68.5t-68 177.5t69.5 179.5t173.5 70.5t172.5 -69.5t68.5 -178.5t-69 -178.5t-174 -69.5z"/>
<glyph glyph-name="one" horiz-adv-x="350" unicode="1" d="M58 0l3 15l43 4q37 3 37 18v389l-106 14l3 13l184 26v-444q0 -14 45 -16l42 -4l3 -15h-254z"/>
<glyph glyph-name="two" horiz-adv-x="451" unicode="2" d="M23 0l-3 23q101 80 151.5 126t77.5 87t27 81q0 45 -29.5 74.5t-73.5 29.5q-76 0 -126 -84l-11 6q68 140 183 140q57 0 97.5 -37.5t40.5 -91.5q0 -57 -45.5 -106.5t-161.5 -140.5q-29 -23 -45 -35v-2h186q50 0 74.5 20.5t49.5 79.5l8 19l15 -1l-34 -188h-381z"/>
<glyph glyph-name="three" horiz-adv-x="406" unicode="3" d="M129 -201q-54 0 -88 21.5t-34 49.5q0 20 14 34t35 14q28 0 48 -23t20 -55q0 -2 -0.5 -5t-0.5 -5l17 -3q18 -3 27 -3q51 0 92.5 42.5t41.5 106.5q0 71 -40.5 114t-106.5 43q-36 0 -82 -16l-5 13q16 11 48.5 31.5t46.5 30t36 27t31.5 30.5t17 31.5t7.5 39.5 q0 45 -28.5 74.5t-73.5 29.5q-84 0 -128 -84l-11 6q29 65 76 102.5t106 37.5q61 0 101 -36.5t40 -89.5t-35 -88.5t-107 -78.5v-2h9q79 0 127 -47t48 -119q0 -88 -73.5 -155.5t-175.5 -67.5z"/>
<glyph glyph-name="four" horiz-adv-x="476" unicode="4" d="M67 78h205v288h-2zM272 -184v197h-263l-1 12l317 450h25v-397h118l-17 -65h-101v-197h-78z"/>
<glyph glyph-name="five" horiz-adv-x="399" unicode="5" d="M108 -201q-59 0 -90.5 19t-31.5 51q0 21 14 34.5t35 13.5q28 0 48 -26.5t26 -60.5q18 -6 36 -6q54 0 94 44t40 110q0 75 -64 127t-176 73l74 290h260l-17 -84h-242l-34 -131q135 -28 204 -88t69 -143q0 -90 -72 -156.5t-173 -66.5z"/>
<glyph glyph-name="six" horiz-adv-x="498" unicode="6" d="M263 6q54 0 86.5 46t32.5 122q0 72 -41 122.5t-100 50.5q-66 0 -111 -45q-4 -4 -7.5 -28.5t-3.5 -43.5q0 -96 36.5 -160t107.5 -64zM252 -13q-101 0 -161 70.5t-60 172.5q0 171 125 288.5t313 134.5l1 -16q-137 -21 -221 -105.5t-117 -203.5l1 -2q70 63 155 63 q76 0 127 -52t51 -135q0 -97 -62.5 -156t-151.5 -59z"/>
<glyph glyph-name="seven" horiz-adv-x="435" unicode="7" d="M82 -184l290 569l-1 4h-147q-101 0 -131 -10t-43 -53l-10 -25h-17l20 167h376l3 -17l-278 -635h-62z"/>
<glyph glyph-name="eight" horiz-adv-x="481" unicode="8" d="M250 3q60 0 93 33.5t33 84.5q0 33 -14.5 60.5t-43.5 49.5t-55 36t-66 32q-84 -52 -84 -149q0 -58 38.5 -102.5t98.5 -44.5zM282 349q66 50 66 131q0 53 -32 99t-85 46q-48 0 -75.5 -34.5t-27.5 -80.5q0 -55 40.5 -91t113.5 -70zM238 -14q-86 0 -146 46.5t-60 117.5 q0 56 41 97.5t110 59.5v2q-63 33 -96.5 68.5t-33.5 88.5q0 64 52 119.5t138 55.5q79 0 132 -46t53 -115q0 -45 -35.5 -80.5t-94.5 -56.5v-2q74 -37 113 -75.5t39 -101.5q0 -72 -60.5 -125t-151.5 -53z"/>
<glyph glyph-name="nine" horiz-adv-x="498" unicode="9" d="M256 127q67 0 111 46q4 4 7.5 29t3.5 44q0 96 -36.5 159t-108.5 63q-54 0 -86 -45.5t-32 -121.5q0 -72 41 -123t100 -51zM28 -178l-1 15q137 22 220.5 106t117.5 204l-1 1q-69 -62 -155 -62q-77 0 -127.5 51.5t-50.5 135.5q0 96 62.5 155.5t151.5 59.5q100 0 160.5 -70.5 t60.5 -171.5q0 -171 -125 -289t-313 -135z"/>
<glyph glyph-name="colon" horiz-adv-x="208" unicode=":" d="M105 -13q-27 0 -45 18.5t-18 43.5q0 24 18 41.5t45 17.5t44.5 -17.5t17.5 -41.5q0 -25 -17.5 -43.5t-44.5 -18.5zM105 292q-26 0 -44.5 18.5t-18.5 43.5q0 24 18 41.5t45 17.5t44.5 -17.5t17.5 -41.5q0 -25 -17.5 -43.5t-44.5 -18.5z"/>
<glyph glyph-name="semicolon" horiz-adv-x="194" unicode=";" d="M36 -134l-10 8q35 18 59 49.5t24 64.5q0 30 -19 47t-41 17q-11 0 -18 -4q-3 8 -3 15q0 21 16.5 37t45.5 16q35 0 59.5 -23.5t24.5 -61.5q0 -47 -41 -93t-97 -72zM100 292q-26 0 -44.5 18t-18.5 43q0 24 18 42t45 18q26 0 44 -17.5t18 -42.5t-18 -43t-44 -18z"/>
<glyph glyph-name="less" horiz-adv-x="438" unicode="&lt;" d="M410 35l-397 193v14l397 193l8 -20l-368 -177v-4l368 -179z"/>
<glyph glyph-name="equal" horiz-adv-x="448" unicode="=" d="M26 138l3 22h390l3 -22h-396zM29 311l-3 22h396l-3 -22h-390z"/>
<glyph glyph-name="greater" horiz-adv-x="438" unicode="&gt;" d="M425 228l-397 -193l-8 20l368 179v4l-368 177l8 20l397 -193v-14z"/>
<glyph glyph-name="question" horiz-adv-x="318" unicode="?" d="M145 -14q-26 0 -43.5 17.5t-17.5 41.5q0 23 17.5 40t43.5 17t42.5 -17t16.5 -40q0 -24 -16.5 -41.5t-42.5 -17.5zM141 180q-27 23 -51.5 56.5t-24.5 57.5q0 43 22 62.5t84 45.5q56 24 76.5 38.5t20.5 35.5q0 35 -38.5 60t-113.5 25q-33 0 -71 -9q-12 17 -12 45 q0 43 71 43q82 0 133.5 -56t51.5 -127q0 -53 -20 -77.5t-76 -49.5q-5 -2 -18.5 -8t-18.5 -8.5t-14.5 -7.5t-13.5 -9t-9 -10t-7 -12.5t-2 -14.5q0 -33 47 -80h-16z"/>
<glyph glyph-name="at" horiz-adv-x="786" unicode="@" d="M312 107q21 0 63 52t83 126q24 48 24 63q-3 23 -28 45t-57 22q-22 0 -41 -17q-31 -30 -60 -103t-29 -124q0 -30 13.5 -47t31.5 -17zM393 -110q-157 0 -259 97.5t-102 251.5v10q3 162 117 277t271 115h4q145 -2 240.5 -90.5t95.5 -224.5v-8q-2 -110 -72 -188t-155 -78 q-56 0 -80 21.5t-24 53.5v7q0 13 7 45t14 48h-6q-56 -87 -94.5 -129t-74.5 -42q-37 0 -63.5 26t-26.5 63q0 59 43.5 134.5t96.5 123.5q63 60 116 60q24 0 39.5 -25.5t18.5 -61.5h4l34 101l68 -3l-61 -159l-37 -133q-9 -26 -9 -45q0 -48 65 -48q67 0 121 67t56 163v7 q0 127 -90 211t-226 86h-3q-149 0 -257.5 -110.5t-111.5 -264.5v-8q0 -146 97 -239t245 -93q83 0 154.5 39.5t108.5 99.5l10 -14q-40 -63 -114 -103t-160 -40z"/>
<glyph glyph-name="A" horiz-adv-x="617" unicode="A" d="M187 279h168l-77 251h-3q-87 -251 -88 -251zM361 259h-180l-35 -99q-26 -78 -26 -99t14 -29.5t49 -12.5l27 -4l3 -15h-221l3 15l19 3q31 5 46.5 19.5t35 56t56.5 145.5l111 312l-8 32q17 6 39 25t29 33h12l172 -528q18 -58 31 -75t43 -19l35 -4l3 -15h-280l3 15l37 4 q40 3 40 35q0 19 -15 67z"/>
<glyph glyph-name="B" horiz-adv-x="582" unicode="B" d="M209 347h51q73 1 110.5 37.5t37.5 90.5q0 130 -155 130h-44v-258zM271 18l20 2q68 2 109.5 44t41.5 101q0 73 -49 118t-127 45q-40 0 -57 -3v-289zM29 0l3 15l38 4q44 4 44 17v556q0 6 -9 9t-42 6l-30 3l-3 15h247q127 0 182 -38.5t55 -96.5q0 -56 -46 -95t-138 -53v-3 q104 -6 160 -53.5t56 -114.5q0 -78 -70 -124.5t-198 -46.5h-249z"/>
<glyph glyph-name="C" horiz-adv-x="683" unicode="C" d="M385 -15q-154 0 -253 88t-99 236t100 239.5t259 91.5q44 0 90.5 -11.5t72.5 -24.5l65 24l2 -198h-18l-73 153q-50 37 -142 37q-116 0 -183.5 -86.5t-67.5 -214.5q0 -139 72 -226.5t183 -87.5q67 0 111.5 28t85.5 87l30 72h19l-32 -170l-38 -2q-31 -13 -84 -24t-100 -11z "/>
<glyph glyph-name="D" horiz-adv-x="672" unicode="D" d="M277 19q125 2 193.5 83.5t68.5 200.5q0 63 -16.5 117t-50 96.5t-88.5 66.5t-126 24h-49v-568zM29 0l3 15l38 4q44 4 44 17v556q0 6 -9 9t-42 6l-30 3l-3 15l246 3h11q169 0 261.5 -84t92.5 -217q0 -141 -100.5 -234t-286.5 -93h-225z"/>
<glyph glyph-name="E" horiz-adv-x="593" unicode="E" d="M29 0l3 15l35 4q47 4 47 17v556q0 6 -9 9t-42 6l-30 3l-3 15h483l10 -192h-19l-10 38q-11 33 -18 49t-22 36t-34.5 29t-51.5 15.5t-78 6.5h-81v-277l40 1q75 2 102.5 14t40.5 52l10 30l17 -1l-21 -213l-17 1l-3 29q-3 42 -28 53.5t-107 14.5l-34 1v-290l94 -3q46 0 81 8 t56.5 19t38.5 31.5t25.5 37t20.5 45.5l12 37l20 -1l-31 -196h-497z"/>
<glyph glyph-name="F" horiz-adv-x="563" unicode="F" d="M29 0l3 15l40 4q42 4 42 17v556q0 5 -2.5 7t-13 4t-33.5 4l-32 3l-3 15h485l12 -192h-19l-10 38q-14 40 -24 59.5t-32 40.5t-57.5 28.5t-92.5 7.5h-83v-283l43 1q75 2 102.5 14t40.5 51l11 30l16 -1l-21 -212l-16 1l-3 29q-3 42 -28 53.5t-107 14.5l-38 1v-273 q0 -12 51 -15l52 -3l3 -15h-286z"/>
<glyph glyph-name="G" horiz-adv-x="706" unicode="G" d="M380 -14q-152 0 -249.5 88t-97.5 235q0 148 101.5 239.5t260.5 91.5q45 0 90.5 -10.5t68.5 -23.5l62 22l3 -198h-18l-70 153q-49 37 -141 37q-115 0 -183.5 -86.5t-68.5 -214.5q0 -138 72 -226t180 -88q77 0 127 34v202q0 10 -54 14l-42 4l-3 15h276l-3 -15l-38 -5 q-44 -4 -44 -16v-185h50l1 -11q-164 -56 -280 -56z"/>
<glyph glyph-name="H" horiz-adv-x="735" unicode="H" d="M29 0l3 15l38 4q44 4 44 17v556q0 6 -9 9t-42 6l-30 3l-3 15h266l-3 -15l-40 -4q-44 -4 -44 -17v-261h317v264q0 6 -9 9t-42 6l-32 3l-3 15h266l-3 -15l-38 -4q-44 -4 -44 -17v-556q0 -6 9 -9t42 -6l30 -3l3 -15h-266l3 15l40 4q44 4 44 17v273h-317v-276q0 -6 9 -9 t42 -6l32 -3l3 -15h-266z"/>
<glyph glyph-name="I" horiz-adv-x="344" unicode="I" d="M34 0l3 15l44 4q44 4 44 17v556q0 6 -9 9t-42 6l-36 3l-3 15h275l-3 -15l-43 -4q-44 -4 -44 -17v-556q0 -6 9 -9t42 -6l35 -3l3 -15h-275z"/>
<glyph glyph-name="J" horiz-adv-x="344" unicode="J" d="M42 -121q-37 0 -61.5 18t-24.5 45q0 23 16 38.5t41 15.5t41 -18t16 -42q0 -20 -10 -36q78 2 78 191v501q0 12 -51 15l-39 3l-3 15h278l-3 -15l-43 -4q-44 -4 -44 -17v-504q0 -68 -60 -137t-131 -69z"/>
<glyph glyph-name="K" horiz-adv-x="663" unicode="K" d="M29 0l3 15l40 4q42 4 42 17v556q0 5 -2.5 7t-13 4t-33.5 4l-32 3l-3 15h273l-3 -15l-47 -4q-44 -4 -44 -17v-312l163 164q110 111 110 141q0 20 -51 25l-40 3l-1 15h251l-3 -15l-18 -2q-43 -4 -69.5 -23.5t-106.5 -100.5q-24 -25 -38 -39l-52 -51l195 -304 q30 -47 43 -58.5t41 -14.5l25 -2l3 -15h-261l2 15l30 3q26 2 26 19q0 18 -30 69l-139 224l-80 -80v-217q0 -6 9 -9t42 -6l39 -3l3 -15h-273z"/>
<glyph glyph-name="L" horiz-adv-x="561" unicode="L" d="M29 0l3 15l40 4q42 4 42 17v556q0 5 -2.5 7t-13 4t-33.5 4l-32 3l-3 15h283l-3 -15l-57 -4q-44 -4 -44 -17v-567l78 -4q45 0 77.5 7.5t51.5 17t36 33t24.5 39.5t22.5 52l13 42h20l-29 -209h-474z"/>
<glyph glyph-name="M" horiz-adv-x="829" unicode="M" d="M19 0l3 15l31 3q39 2 51.5 18.5t14.5 68.5l13 464q-11 31 -52 37l-37 4l-3 15h198l179 -489h2l185 489h199l-3 -15l-55 -4q-40 -4 -40 -20l10 -498q2 -41 10.5 -53.5t38.5 -15.5l37 -4l3 -15h-270l3 15l50 5q20 2 27.5 14t7.5 42v14l-11 486h-3l-217 -570h-20l-203 545 q-1 4 -4.5 9l-7 10t-4.5 6l-11 -472v-16q0 -40 14.5 -54t57.5 -16l29 -3l3 -15h-226z"/>
<glyph glyph-name="N" horiz-adv-x="698" unicode="N" d="M567 -6l-431 550h-2l1 -439q0 -48 14.5 -64.5t56.5 -21.5l28 -4l3 -15h-216l3 15l28 4q34 3 48 21t14 67l3 431q-23 58 -78 69l-23 4l-3 15h180l375 -484l2 1l-1 377q0 48 -14.5 64.5t-56.5 21.5l-28 4l-3 15h216l-3 -15l-28 -4q-34 -3 -48 -21t-14 -67l-2 -524h-21z"/>
<glyph glyph-name="O" horiz-adv-x="735" unicode="O" d="M369 4q102 0 164.5 83t62.5 225q0 136 -66 222t-166 86q-101 0 -163.5 -83t-62.5 -225q0 -137 65.5 -222.5t165.5 -85.5zM363 -15q-143 0 -236.5 91t-93.5 233q0 130 99.5 230t238.5 100q143 0 237 -91t94 -234q0 -131 -99.5 -230t-239.5 -99z"/>
<glyph glyph-name="P" horiz-adv-x="560" unicode="P" d="M287 307q66 0 105.5 39.5t39.5 108.5q0 151 -149 151h-6h-68v-289q37 -10 78 -10zM19 0l3 15l48 4q44 4 44 17v556q0 6 -9 9t-42 6l-40 3l-3 15h277q117 0 177 -41.5t60 -112.5q0 -83 -69 -133t-176 -50q-42 0 -80 5v-260q0 -12 51 -15l52 -3l3 -15h-296z"/>
<glyph glyph-name="Q" horiz-adv-x="735" unicode="Q" d="M369 4q102 0 164.5 83t62.5 225q0 136 -66 222t-166 86q-101 0 -163.5 -83.5t-62.5 -224.5q0 -137 65.5 -222.5t165.5 -85.5zM628 -179q-100 0 -167.5 34.5t-106.5 129.5q-140 4 -230.5 94t-90.5 230q0 130 99.5 230t238.5 100q143 0 237 -91.5t94 -233.5 q0 -106 -67.5 -194t-172.5 -120q39 -85 92 -118.5t130 -33.5q36 0 68 4l2 -14q-47 -17 -126 -17z"/>
<glyph glyph-name="R" horiz-adv-x="634" unicode="R" d="M287 322q66 2 103.5 37.5t37.5 101.5q0 69 -39 107t-116 38h-14l-50 -2v-269q39 -13 78 -13zM19 0l3 15l48 4q16 2 30 7t14 10v556q0 6 -9 9t-42 6l-40 3l-3 15h266q121 0 182.5 -41.5t61.5 -120.5q0 -57 -41.5 -100t-109.5 -59l136 -207q31 -45 51 -60.5t53 -18.5l18 -3 l4 -15h-180l-17 30l-164 271q-66 13 -71 15v-283q0 -9 51 -15l42 -3l3 -15h-286z"/>
<glyph glyph-name="S" horiz-adv-x="501" unicode="S" d="M237 -14h-5q-78 0 -185 33l-7 158h17l32 -82q50 -90 154 -90q62 1 99.5 39.5t37.5 95.5t-36 88.5t-111 57.5q-85 30 -130 71t-45 111q0 67 53.5 118.5t146.5 52.5q62 0 132 -19l41 13l2 -174h-16l-54 125q-54 35 -109 35q-52 0 -84.5 -31.5t-32.5 -77.5q0 -53 36 -82 t107 -55q93 -34 139.5 -76.5t46.5 -117.5q0 -74 -64 -133.5t-165 -59.5z"/>
<glyph glyph-name="T" horiz-adv-x="646" unicode="T" d="M175 0l3 15l53 4q44 4 44 17v571h-30q-124 -5 -183 -126l-13 -41h-20l31 185h533l19 -185h-19l-11 38q-27 65 -67 96t-113 33h-32v-574q0 -6 9.5 -9t41.5 -6l46 -3l3 -15h-295z"/>
<glyph glyph-name="U" horiz-adv-x="694" unicode="U" d="M355 -14q-129 0 -187.5 54.5t-58.5 176.5v376q0 4 -3.5 6t-14.5 4t-33 4l-40 4l-3 15h283l-3 -15l-47 -4q-44 -4 -44 -17v-351q0 -111 46.5 -162t139.5 -51q86 0 135 56t49 161l-1 277q0 48 -15 65t-57 22l-28 4l-3 15h217l-3 -15l-29 -4q-34 -4 -47.5 -22t-13.5 -67 l-2 -280q-2 -252 -237 -252z"/>
<glyph glyph-name="V" horiz-adv-x="627" unicode="V" d="M298 -11l-192 524q-24 65 -34 78t-41 15l-37 5l-3 15h279l-3 -15l-42 -3q-24 -2 -33 -6.5t-9 -16.5q0 -14 19 -66l147 -414h5l120 334q31 90 31 120q0 25 -16 35.5t-54 14.5l-22 2l-3 15h226l-3 -15l-20 -4q-27 -3 -42 -14.5t-33 -47t-46 -115.5l-160 -441h-34z"/>
<glyph glyph-name="W" horiz-adv-x="970" unicode="W" d="M296 -11l-189 524q-22 60 -33.5 75t-44.5 18l-36 4l-3 15h278l-3 -15l-37 -3q-23 -2 -32 -6.5t-9 -18.5q0 -15 17 -63l140 -406h3l135 349l-18 51q-23 60 -35 75t-44 18l-36 4l-3 15h276l-3 -15l-37 -3q-22 -2 -31 -7t-9 -17q0 -16 17 -64l143 -404h3l113 319 q33 96 33 124q0 24 -15.5 33.5t-53.5 14.5l-26 4l-3 15h226l-3 -15l-18 -3q-38 -6 -57.5 -34t-60.5 -143l-158 -441h-25l-162 446h-2l-172 -446h-25z"/>
<glyph glyph-name="X" horiz-adv-x="642" unicode="X" d="M-4 0l3 15l23 3q39 4 65 26.5t76 92.5l116 165l-144 211q-46 70 -59 81q-13 10 -29 12l-35 4l-5 15h273l-2 -15l-39 -2q-31 -1 -31 -19q0 -19 46 -90l87 -132h2l82 122q40 59 40 84t-45 33l-30 4l-3 15h231l-3 -15l-23 -3q-40 -4 -66 -27t-75 -92l-97 -137l189 -279 q22 -32 33 -41.5t30 -11.5l33 -4l4 -15h-271l2 15l39 2q34 3 34 20q0 15 -23 49l-132 199h-2l-25 -37q-25 -37 -51 -74l-25 -38q-40 -59 -40 -84q0 -27 46 -33l29 -4l3 -15h-231z"/>
<glyph glyph-name="Y" horiz-adv-x="618" unicode="Y" d="M163 0l3 15l53 4q44 4 44 17v238l-156 269q-20 34 -36 47.5t-43 15.5l-30 4l-3 15h273l-3 -15l-28 -2q-40 -3 -40 -25q0 -16 27 -64l119 -211h2l94 174q36 67 36 90q0 28 -48 35l-23 3l-3 15h210l-3 -15l-23 -3q-31 -5 -56 -28.5t-61 -90.5l-110 -199v-256q0 -6 9.5 -9 t42.5 -6l45 -3l3 -15h-295z"/>
<glyph glyph-name="Z" horiz-adv-x="577" unicode="Z" d="M33 0v13l392 590v3h-108q-64 0 -108 -9.5t-69.5 -30t-38.5 -41t-24 -52.5l-8 -32h-18l12 184h475v-15l-391 -588v-3h122q66 0 109 8.5t70 30t40.5 43.5t30.5 62l11 35h21l-28 -198h-490z"/>
<glyph glyph-name="bracketleft" horiz-adv-x="325" unicode="[" d="M65 -239v872h247v-20h-224v-832h224v-20h-247z"/>
<glyph glyph-name="backslash" horiz-adv-x="246" unicode="\" d="M210 -236l-212 877h22l211 -877h-21z"/>
<glyph glyph-name="bracketright" horiz-adv-x="325" unicode="]" d="M12 -239v20h224v832h-224v20h247v-872h-247z"/>
<glyph glyph-name="asciicircum" d="M49 489l133 194h15l133 -194h-12l-127 110h-2l-129 -110h-11z" unicode="^"/>
<glyph glyph-name="underscore" horiz-adv-x="453" unicode="_" d="M11 -36l3 37h426l3 -37h-432z"/>
<glyph glyph-name="grave" d="M223 497l-179 187h96l93 -187h-10z" unicode="`"/>
<glyph glyph-name="a" horiz-adv-x="424" unicode="a" d="M180 42q44 0 83 38l6 156q-90 -21 -123 -50t-33 -69q0 -33 20 -54t47 -21zM334 -12q-63 0 -69 74l-2 1q-68 -74 -126 -74q-44 0 -76 29.5t-32 72.5q0 54 53.5 92.5t186.5 68.5l1 25v7q0 130 -98 130q-25 0 -50 -10.5t-25 -17.5q0 -1 12.5 -19.5t12.5 -34.5 q0 -18 -13.5 -31t-35.5 -13q-21 0 -35.5 12.5t-14.5 29.5q0 38 68.5 76.5t130.5 38.5q73 0 103.5 -31t30.5 -112q0 -19 -1 -29l-9 -185v-7q0 -42 31 -42q15 0 44 25l9 -9q-50 -67 -96 -67z"/>
<glyph glyph-name="b" horiz-adv-x="493" unicode="b" d="M260 7q53 0 85 55t32 138q0 77 -36 128.5t-95 51.5q-62 0 -109 -54v-227q19 -39 52.5 -65.5t70.5 -26.5zM55 -20v601q0 16 -6.5 24t-25.5 13l-36 13l1 10l149 40v-325l3 -1q74 84 153 84q77 0 127 -59.5t50 -150.5q0 -110 -68.5 -176.5t-160.5 -66.5q-56 0 -123 27h-1 l-54 -33h-8z"/>
<glyph glyph-name="c" horiz-adv-x="417" unicode="c" d="M223 -14q-86 0 -143 62.5t-57 155.5q0 102 64.5 171.5t163.5 69.5q63 0 105 -26t42 -67q0 -23 -15.5 -37.5t-35.5 -14.5q-22 0 -37 16t-15 39v6q0 14 7 26t7 13q-3 9 -22 18t-39 9q-58 0 -97 -52t-39 -135q0 -85 44 -138t111 -53q81 0 127 71l12 -6q-70 -128 -183 -128z "/>
<glyph glyph-name="d" horiz-adv-x="504" unicode="d" d="M251 45q59 0 104 49v235q-18 38 -51 63.5t-70 25.5q-55 0 -87 -54t-32 -136q0 -79 37.5 -131t98.5 -52zM355 -16v85h-3q-68 -82 -150 -82q-76 0 -127.5 60t-51.5 153q0 109 69 174t162 65q57 0 99 -18q2 1 2 0v168q0 17 -6.5 25t-25.5 12l-44 11l2 10l157 34v-619 q0 -23 14 -27l54 -13l-1 -11z"/>
<glyph glyph-name="e" horiz-adv-x="434" unicode="e" d="M117 296l197 1q1 56 -19.5 93t-61.5 37t-74 -38t-42 -93zM224 -14q-87 0 -144 62.5t-57 155.5q0 102 63 171.5t159 69.5q74 0 117 -38.5t43 -102.5q0 -11 -3 -26l-287 2q-3 -15 -3 -41q0 -85 44 -137.5t111 -52.5q84 0 132 71l11 -6q-71 -128 -186 -128z"/>
<glyph glyph-name="f" horiz-adv-x="301" unicode="f" d="M23 0l3 15l21 1q23 2 31 4.5t8 11.5v355l-79 2l15 41h62l2 26q8 102 67.5 159.5t133.5 57.5q36 0 56.5 -15.5t20.5 -37.5q0 -20 -14.5 -33.5t-35.5 -13.5t-39.5 18.5t-24.5 46.5l-2 6l-17 2q-35 -17 -48 -57t-13 -114v-45h124l-15 -42h-109v-357q0 -7 9 -10.5t38 -4.5 l39 -1l3 -15h-236z"/>
<glyph glyph-name="g" horiz-adv-x="457" unicode="g" d="M227 -225q63 0 104.5 34.5t41.5 84.5q0 83 -122 87h-13q-46 0 -94 -5q-25 -9 -45 -35t-20 -56q0 -49 42 -79.5t106 -30.5zM211 161q41 0 65 34t24 92q0 141 -89 141q-38 0 -61 -35t-23 -92q0 -63 23 -101.5t61 -38.5zM174 -249q-77 0 -121 29t-44 79q0 40 34 71t80 49v3 q-44 5 -71.5 26t-27.5 50q0 34 31.5 61t72.5 38l1 3q-38 15 -63 49t-25 80q0 66 49 110t122 44q62 0 117 -36l126 17l-7 -54l-99 15l-1 -4q35 -35 35 -85q0 -63 -50.5 -107t-123.5 -44q-30 0 -60 7q-23 -5 -38.5 -18t-15.5 -32q0 -43 77 -43q16 0 56 1.5t58 1.5 q68 0 107 -32t39 -88q0 -83 -71.5 -137t-186.5 -54z"/>
<glyph glyph-name="h" horiz-adv-x="505" unicode="h" d="M9 0l3 15l20 1q22 2 30.5 5t8.5 12v547q0 17 -6 25t-25 13l-36 12l1 11l150 39v-316l2 -1q31 25 49 38t52 28t65 15q48 0 79 -29q33 -34 33 -103v-280q0 -4 2 -6.5t13 -5t33 -4.5l17 -1l3 -15h-215l3 15l21 1q39 2 39 17v253q0 51 -22 74t-67 23q-60 0 -107 -41v-311 q0 -7 8.5 -10t38.5 -5l20 -1l3 -15h-216z"/>
<glyph glyph-name="i" horiz-adv-x="244" unicode="i" d="M18 0l3 15l21 1q23 2 31.5 5t8.5 12v276q0 45 -7.5 59t-34.5 20l-23 5l1 11l147 39v-412q0 -7 8.5 -10t38.5 -5l18 -1l3 -15h-215zM114 528q-27 0 -41.5 17.5t-14.5 38.5q0 22 14.5 40t41.5 18t41.5 -18t14.5 -40q0 -21 -14.5 -38.5t-41.5 -17.5z"/>
<glyph glyph-name="j" horiz-adv-x="233" unicode="j" d="M-9 -253q-33 0 -53 15.5t-20 39.5q0 21 15.5 35t35.5 14q49 0 72 -68q38 14 38 127v399q0 45 -7.5 59t-34.5 20l-23 5l1 11l147 39v-470q-2 -87 -57.5 -156.5t-113.5 -69.5zM112 528q-27 0 -42 17.5t-15 38.5q0 22 15 40t42 18q26 0 40.5 -18t14.5 -40q0 -21 -14.5 -38.5 t-40.5 -17.5z"/>
<glyph glyph-name="k" horiz-adv-x="479" unicode="k" d="M9 0l3 15l20 1q23 2 31 5.5t8 11.5v547q0 17 -6 25t-25 13l-36 12l1 11l150 39v-475l88 86q75 70 75 96q0 23 -50 27l-13 1l-2 15h199l-3 -15l-19 -2q-27 -3 -51.5 -21t-76.5 -69l-19 -19l-29 -27l126 -197q25 -38 37.5 -49.5t37.5 -13.5l17 -2l3 -15h-151l-20 35 l-110 183l-39 -37v-150q0 -7 8 -9.5t39 -5.5l17 -1l3 -15h-213z"/>
<glyph glyph-name="l" horiz-adv-x="241" unicode="l" d="M16 0l2 15l21 1q23 2 31 5t8 12v523q0 34 -6 45.5t-26 16.5l-35 12l1 11l150 39v-649q0 -7 8 -9.5t38 -5.5l19 -1l3 -15h-214z"/>
<glyph glyph-name="m" horiz-adv-x="766" unicode="m" d="M18 0l3 15l21 1q23 2 31.5 5t8.5 12v275q0 46 -7.5 60t-34.5 20l-23 5l1 11l148 39l-2 -79l3 -1q27 25 43 38.5t46.5 28t61.5 14.5q48 0 80 -30q20 -20 26 -54l2 -1q83 85 156 85q50 0 80 -29q33 -34 33 -107v-276q0 -4 2 -6.5t12.5 -5t32.5 -4.5l17 -1l3 -15h-214l3 15 l21 1q39 2 39 17v252q0 53 -20 75.5t-65 22.5q-28 0 -56 -13t-39 -31q1 -2 0 -9l-1 -6v-292q0 -4 2 -6.5t12.5 -5t32.5 -4.5l18 -1l3 -15h-213l3 15l20 1q38 2 38 17v252q0 53 -20 75.5t-63 22.5q-48 0 -98 -40v-312q0 -7 8.5 -10t37.5 -5l21 -1l2 -15h-216z"/>
<glyph glyph-name="n" horiz-adv-x="517" unicode="n" d="M18 0l3 15l21 1q23 2 31.5 5t8.5 12v275q0 46 -7.5 60t-34.5 20l-23 5l1 11l148 39l-2 -80h3q30 24 49 38t52.5 28.5t64.5 14.5q51 0 79 -29q33 -33 33 -104v-279q0 -4 2 -6.5t13 -5t33 -4.5l17 -1l3 -15h-213l3 15l20 1q38 2 38 17v252q0 52 -21.5 75t-67.5 23 q-59 0 -107 -41v-311q0 -7 8.5 -10t37.5 -5l21 -1l2 -15h-216z"/>
<glyph glyph-name="o" horiz-adv-x="504" unicode="o" d="M254 4q58 0 93.5 58t35.5 140q0 135 -54 190q-35 35 -80 35q-59 0 -93.5 -57.5t-34.5 -137.5q0 -138 53 -192q34 -36 80 -36zM249 -14q-99 0 -162.5 65.5t-63.5 162.5t66.5 164t165.5 67t162.5 -64t63.5 -160q0 -99 -66 -167t-166 -68z"/>
<glyph glyph-name="p" horiz-adv-x="505" unicode="p" d="M273 7q52 0 85 55.5t33 137.5q0 77 -36.5 128.5t-96.5 51.5q-62 0 -107 -54v-228q19 -39 52 -65t70 -26zM4 -251l3 15l21 1q40 3 40 16v528q0 45 -8 59t-34 20l-23 5l1 11l148 39l-1 -87l3 -1q72 84 152 84q77 0 127 -59.5t50 -150.5q0 -110 -68.5 -176.5t-160.5 -66.5 q-55 0 -102 19h-1v-226q0 -12 46 -14l36 -1l3 -15h-232z"/>
<glyph glyph-name="q" horiz-adv-x="498" unicode="q" d="M251 45q59 0 104 49v232q-18 39 -51 65.5t-70 26.5q-55 0 -87 -53t-32 -135q0 -79 37.5 -132t98.5 -53zM271 -251l3 15l35 1q46 2 46 15v289h-3q-68 -82 -150 -82q-76 0 -127.5 60t-51.5 153q0 109 69 174t162 65q71 0 123 -27h1l52 37h8v-668q0 -12 42 -16l20 -1l3 -15 h-232z"/>
<glyph glyph-name="r" horiz-adv-x="370" unicode="r" d="M18 0l3 15l21 1q23 2 31.5 5t8.5 12v275q0 46 -7.5 60t-34.5 20l-23 5l1 11l148 39l-2 -149h3q27 75 59 112.5t75 37.5q27 0 45.5 -16t18.5 -39t-15 -39.5t-39 -16.5q-21 0 -37.5 14t-20.5 40q-50 -16 -88 -134v-222q0 -13 47 -15l34 -1l3 -15h-231z"/>
<glyph glyph-name="s" horiz-adv-x="371" unicode="s" d="M170 -14q-71 0 -132 23l-8 127l19 1l22 -58q40 -75 108 -75q40 0 66.5 23.5t26.5 59.5q0 34 -27.5 56t-79.5 41q-29 11 -47 20t-38 24.5t-29.5 37.5t-9.5 51q0 55 42 91.5t108 36.5q51 0 94 -17l32 11l5 -126l-19 -1l-44 87q-34 28 -71 28t-58.5 -20t-21.5 -52 q0 -34 23.5 -51.5t79.5 -38.5q64 -24 97.5 -53t33.5 -85q0 -58 -46 -99.5t-126 -41.5z"/>
<glyph glyph-name="t" horiz-adv-x="332" unicode="t" d="M185 -14q-108 0 -107 116l6 283l-80 2l3 17l54 42l96 77l12 -3l-1 -89h154l-14 -42h-140l-7 -277q-1 -35 18 -53.5t56 -18.5q46 0 84 30l5 -10q-72 -74 -139 -74z"/>
<glyph glyph-name="u" horiz-adv-x="494" unicode="u" d="M345 -16v83h-2q-90 -81 -163 -81q-48 0 -80 30q-32 33 -32 104l1 279q0 8 -7.5 10t-41.5 5l-17 2l-3 15h154l-3 -286q0 -52 22 -74.5t68 -22.5q57 0 103 39v288q0 22 -9 29.5t-38 9.5l-21 2l-3 15h155v-361q0 -23 14 -27l54 -13l-1 -11z"/>
<glyph glyph-name="v" horiz-adv-x="463" unicode="v" d="M221 -10l-154 368q-15 34 -23 43t-31 11l-20 3l-4 15h220l-2 -15l-21 -2q-32 -1 -32 -21q0 -10 6 -26l108 -266l80 213q17 48 17 66q0 17 -12 24.5t-40 9.5l-18 2l-3 15h176l-3 -15l-18 -2q-29 -3 -40 -19t-41 -90l-121 -314h-24z"/>
<glyph glyph-name="w" horiz-adv-x="715" unicode="w" d="M208 -10l-137 356q-16 42 -26 53.5t-34 13.5l-19 2l-3 15h219l-2 -15l-19 -2q-37 -1 -37 -20q0 -8 6 -23l102 -271l90 218l-19 46q-13 30 -22.5 38.5t-35.5 11.5l-17 2l-3 15h217l-2 -15l-19 -2q-33 -1 -33 -22q0 -10 4 -21l111 -273l72 209q16 46 16 67q0 20 -12.5 28.5 t-41.5 11.5l-16 2l-3 15h176l-3 -15l-16 -2q-31 -2 -43 -19.5t-37 -91.5l-110 -312h-24l-128 303l-126 -303h-25z"/>
<glyph glyph-name="x" horiz-adv-x="464" unicode="x" d="M-2 0l3 14l26 4q24 4 44 21t59 69l67 90l-101 143q-30 42 -44.5 56t-34.5 16l-15 2l-3 15h215l-3 -15l-22 -3q-22 -1 -22 -16q0 -17 25 -52l59 -85h1l52 76q28 40 28 57t-30 20l-22 3l-3 15h176l-3 -15l-26 -3q-24 -2 -45 -20.5t-59 -70.5l-57 -76l111 -156 q29 -40 44.5 -55t33.5 -17l15 -2l3 -15h-215l3 14l19 4q24 3 24 18q0 14 -24 49l-69 99h-1l-61 -89q-30 -43 -30 -60t27 -18l27 -3l3 -14h-175z"/>
<glyph glyph-name="y" horiz-adv-x="460" unicode="y" d="M97 -258q-26 0 -44 15.5t-18 37.5q0 21 14 35.5t36 14.5q42 0 59 -43q25 7 52 84l36 108h-1l-164 364q-16 34 -24.5 43t-31.5 11l-20 3l-3 15h219l-3 -15l-19 -2q-32 -1 -32 -21q0 -11 7 -26l112 -259l75 208q16 48 16 64q0 17 -11.5 24t-40.5 10l-18 2l-3 15h177l-3 -15 l-19 -2q-30 -3 -41.5 -20t-38.5 -89l-111 -297l-42 -131q-22 -69 -48 -101.5t-67 -32.5z"/>
<glyph glyph-name="z" horiz-adv-x="432" unicode="z" d="M22 0v13l272 399h-46q-59 0 -92.5 -12t-49 -32t-31.5 -61l-12 -36h-19v159h351v-14l-271 -398l49 -1q85 1 127 25.5t71 78.5l21 38h18l-34 -159h-354z"/>
<glyph glyph-name="braceleft" horiz-adv-x="312" unicode="{" d="M294 -257q-89 5 -145.5 45t-56.5 106q0 45 20.5 112t20.5 99q0 41 -35 58.5t-104 22.5l-5 12l5 11q139 10 139 82q0 32 -20.5 99t-20.5 112q0 66 56 105.5t146 44.5l1 -14q-72 -9 -104 -34.5t-32 -69.5q0 -33 21.5 -101t21.5 -111q0 -49 -44.5 -81t-113.5 -41v-5 q69 -9 113.5 -41t44.5 -81q0 -42 -21.5 -110t-21.5 -100q0 -45 32 -71t104 -35z"/>
<glyph glyph-name="bar" horiz-adv-x="190" unicode="|" d="M86 -207v877h18v-877h-18z"/>
<glyph glyph-name="braceright" horiz-adv-x="312" unicode="}" d="M-3 -257l-1 14q71 9 103 35t32 71q0 32 -21 100t-21 110q0 49 44 81t113 41v5q-69 9 -113 41t-44 81q0 43 21 111t21 101q0 44 -32 69.5t-103 34.5l1 14q89 -5 145.5 -44.5t56.5 -105.5q0 -45 -21 -112t-21 -99q0 -72 140 -82l5 -11l-5 -12q-69 -5 -104.5 -22.5 t-35.5 -58.5q0 -32 21 -99t21 -112q0 -66 -56.5 -106t-145.5 -45z"/>
<glyph glyph-name="asciitilde" d="M264 155q-34 0 -92.5 32.5t-75.5 32.5q-20 0 -31.5 -11t-17.5 -46h-12q8 60 25.5 85.5t54.5 25.5q33 0 92 -32.5t76 -32.5q20 0 31.5 11t17.5 46h12q-7 -59 -25 -85t-55 -26z" unicode="~"/>
<glyph glyph-name="nbspace" horiz-adv-x="139" unicode=" "/>
<glyph glyph-name="exclamdown" horiz-adv-x="260" unicode="¡" d="M129 -19q-47 0 -47 37q0 2 0.5 6t0.5 6l40 408q1 4 6.5 4t6.5 -4l41 -408q0 -2 0.5 -6t0.5 -6q0 -37 -47 -37h-2zM130 518q-26 0 -43 17t-17 41t17 41.5t43 17.5t43 -17.5t17 -41.5t-17 -41t-43 -17z"/>
<glyph glyph-name="cent" horiz-adv-x="419" unicode="¢" d="M208 62l93 347q-23 18 -53 18q-58 0 -97 -52t-39 -135q0 -64 26 -110.5t70 -67.5zM149 -160l40 150q-74 13 -120 73.5t-46 143.5q0 101 64.5 169.5t163.5 68.5q27 0 58 -7l47 175h19l-49 -180q72 -25 72 -81q0 -21 -14.5 -36t-32.5 -15q-39 0 -50 37l-76 -282 q25 -7 44 -7q78 0 126 71l11 -6q-70 -128 -181 -128q-12 0 -18 1l-40 -147h-18z"/>
<glyph glyph-name="sterling" horiz-adv-x="516" unicode="£" d="M161 61q-58 37 -91 37q-23 0 -38.5 -13.5t-15.5 -36.5q0 -21 16 -34t41 -13q50 0 88 60zM161 284h-107l3 19h100q-9 43 -9 73q0 106 67 180.5t174 74.5q48 0 75.5 -19.5t27.5 -53.5q0 -20 -16.5 -35.5t-38.5 -15.5q-24 0 -37 16.5t-13 39.5q0 15 6 29q-15 15 -44 15 q-48 0 -82.5 -39t-34.5 -115q0 -17 2.5 -40.5t7 -56t6.5 -53.5h129l3 -19h-131q3 -28 3 -60q0 -55 -36 -122q9 -3 34.5 -11t38 -11.5t33 -9t36.5 -7.5t31 -2q42 0 62 23.5t29 90.5l13 -2q-2 -79 -38 -132.5t-97 -53.5q-33 0 -68.5 11t-55 21t-54.5 30q-53 -62 -107 -62 q-33 0 -52.5 16.5t-19.5 43.5q0 32 26.5 55t76.5 23q34 0 79 -13q4 24 4 36q0 36 -26 136z"/>
<glyph glyph-name="currency" horiz-adv-x="448" unicode="¤" d="M108 359q0 -48 34 -82t82 -34t82 34t34 82t-34 82t-82 34t-82 -34t-34 -82zM78 199l-14 14l57 57q-33 38 -33 89t33 89l-57 57l14 14l57 -57q40 33 89 33t89 -33l57 57l14 -14l-57 -57q33 -40 33 -89t-33 -89l57 -57l-14 -14l-57 57q-38 -33 -89 -33t-89 33z"/>
<glyph glyph-name="yen" horiz-adv-x="607" unicode="¥" d="M158 0l3 15l57 6q41 4 41 18v122h-181l3 19h178v108h-179l-1 20h170l-137 236q-21 34 -37 47t-42 15l-30 4l-3 15h272l-3 -15l-29 -2q-40 -3 -40 -25q0 -21 27 -64l112 -199h3l91 172q30 58 30 81q0 16 -12 23t-40 11l-23 3l-3 15h210l-3 -15l-23 -3q-32 -5 -53 -24.5 t-56 -85.5q-102 -189 -103 -189h177l-1 -20h-181v-108h180l3 -19h-183v-124q0 -12 48 -17l49 -5l3 -15h-294z"/>
<glyph glyph-name="brokenbar" horiz-adv-x="190" unicode="¦" d="M86 -154v335h18v-335h-18zM86 292v335h18v-335h-18z"/>
<glyph glyph-name="section" horiz-adv-x="390" unicode="§" d="M288 162q36 28 36 68q0 33 -22 58t-70 55q-13 8 -37 22.5t-37 22.5t-28.5 19.5t-26.5 22.5q-37 -27 -37 -67q0 -33 22 -57.5t70 -54.5q11 -7 37 -22.5t37.5 -23t28 -20t27.5 -23.5zM164 -50q-49 0 -81 18.5t-32 50.5q0 18 12 32t31 14q24 0 35.5 -16.5t11.5 -40.5 q0 -14 -2 -21q18 -18 50 -18q35 0 56 24t21 54q0 18 -8 33.5t-29.5 32.5t-36 26t-49.5 30q-62 37 -97.5 72.5t-35.5 82.5q0 75 84 115q-26 33 -26 72q0 51 44 90t111 39q49 0 79.5 -18.5t30.5 -50.5q0 -18 -13.5 -32t-33.5 -14q-23 0 -35 17t-12 40q0 10 3 21q-18 18 -42 18 q-34 0 -55 -23t-21 -52q0 -18 8.5 -34t29.5 -32.5t36 -26t49 -29.5q42 -25 66 -42t45.5 -47t21.5 -63q0 -77 -84 -119q27 -33 27 -72q0 -52 -45.5 -91.5t-113.5 -39.5z"/>
<glyph glyph-name="dieresis" d="M97 520q-26 0 -40.5 17.5t-14.5 37.5q0 21 14.5 39.5t40.5 18.5q25 0 39.5 -18.5t14.5 -39.5t-14 -38t-40 -17zM283 520q-26 0 -40.5 17.5t-14.5 37.5q0 21 14.5 39.5t40.5 18.5q25 0 39.5 -18.5t14.5 -39.5t-14 -38t-40 -17z" unicode="¨"/>
<glyph glyph-name="copyright" horiz-adv-x="713" unicode="©" d="M367 118q-92 0 -148.5 53t-56.5 138t58 140t150 55q54 0 96 -20l39 14l1 -121h-11l-46 90q-27 22 -82 22q-66 0 -104 -48.5t-38 -122.5q0 -82 42 -133.5t106 -51.5q39 0 64.5 17.5t47.5 52.5l21 41h11l-19 -105l-23 -2q-46 -19 -108 -19zM357 2q127 0 217.5 91.5 t90.5 219.5t-90.5 219.5t-217.5 91.5q-128 0 -218.5 -91.5t-90.5 -219.5t90.5 -219.5t218.5 -91.5zM357 -14q-136 0 -231.5 95.5t-95.5 231.5t95.5 232t231.5 96t231.5 -96t95.5 -232t-95.5 -231.5t-231.5 -95.5z"/>
<glyph glyph-name="ordfeminine" horiz-adv-x="330" unicode="ª" d="M143 332q29 0 62 35l4 104q-118 -27 -118 -84q0 -25 14.5 -40t37.5 -15zM95 286q-32 0 -54.5 21t-22.5 52q0 38 46.5 71t144.5 55l1 24q1 50 -23.5 74.5t-59.5 24.5q-13 0 -24.5 -4t-16.5 -9t-5 -8q0 -1 8.5 -16.5t8.5 -24.5q0 -14 -11.5 -24.5t-29.5 -10.5 q-16 0 -27.5 11t-11.5 27q0 30 55 58.5t108 28.5q44 0 72.5 -25t28.5 -71v-6l-6 -161v-5q0 -39 27 -39q17 0 34 19l4 -7q-33 -55 -79 -55q-50 0 -56 66h-1q-55 -66 -110 -66z"/>
<glyph glyph-name="guillemotleft" horiz-adv-x="452" unicode="«" d="M237 57l-217 155v19l217 155l5 -9l-133 -155l133 -156zM427 47l-217 165v19l217 166l5 -9l-136 -166l136 -166z"/>
<glyph glyph-name="logicalnot" horiz-adv-x="448" unicode="¬" d="M418 312v-180h-22v158h-382l3 22h401z"/>
<glyph glyph-name="uni00AD" horiz-adv-x="294" unicode="­" d="M23 212l3 44h246l-2 -44h-247z"/>
<glyph glyph-name="registered" horiz-adv-x="713" unicode="®" d="M347 320q39 1 61 21.5t22 59.5q0 79 -91 79h-12l-26 -1v-151q28 -8 46 -8zM188 130l2 13l30 4q24 4 24 11v313q0 7 -29 10l-24 3l-2 14h158q71 0 107.5 -26t36.5 -71q0 -34 -24.5 -60t-64.5 -34l78 -118q16 -25 28 -33t32 -11l15 -2l2 -13h-109l-9 17l-97 157 q-2 1 -18.5 3.5t-22.5 4.5v-155q0 -8 29 -10l26 -4l2 -13h-170zM357 2q127 0 217.5 91.5t90.5 219.5t-90.5 219.5t-217.5 91.5q-128 0 -218.5 -91.5t-90.5 -219.5t90.5 -219.5t218.5 -91.5zM357 -14q-136 0 -231.5 95.5t-95.5 231.5t95.5 232t231.5 96t231.5 -96t95.5 -232 t-95.5 -231.5t-231.5 -95.5z"/>
<glyph glyph-name="macron" horiz-adv-x="378" unicode="¯" d="M61 527l6 30h250l-4 -30h-252z"/>
<glyph glyph-name="degree" horiz-adv-x="322" unicode="°" d="M161 386q51 0 83 34t32 84t-32 84.5t-83 34.5t-82.5 -34.5t-31.5 -84.5t31.5 -84t82.5 -34zM161 366q-61 0 -99 40t-38 98t37.5 98.5t99.5 40.5t99.5 -40.5t37.5 -98.5t-37.5 -98t-99.5 -40z"/>
<glyph glyph-name="plusminus" horiz-adv-x="448" unicode="±" d="M420 27h-392l3 22h386zM213 84v162h-198l3 22h195v168h22v-168h195l3 -22h-198v-162h-22z"/>
<glyph glyph-name="twosuperior" horiz-adv-x="287" unicode="²" d="M15 267l-3 13q56 55 77.5 77.5t51 57.5t39 61t9.5 54q0 41 -22 61.5t-52 20.5q-48 0 -91 -58l-6 6q55 94 130 94q43 0 72.5 -26.5t29.5 -69.5q0 -34 -22.5 -71t-48.5 -63.5t-85 -81.5q-19 -18 -29 -27v-2h121q31 0 45 11t29 47l6 11h11l-26 -115h-236z"/>
<glyph glyph-name="threesuperior" horiz-adv-x="268" unicode="³" d="M97 248q-36 0 -58.5 12.5t-22.5 32.5q0 13 9 22t23 9q18 0 30 -14.5t12 -35.5v-6l6 -1q5 -1 11.5 -2t10.5 -1q35 0 59.5 25.5t24.5 62.5q0 44 -23 68t-65 24q-26 0 -51 -10l-5 8q13 8 37 22.5t34 21.5t23 18t18 23t5 26q0 26 -17 42.5t-45 16.5q-54 0 -87 -50l-7 6 q49 86 124 86q38 0 64.5 -22t26.5 -54q0 -11 -2.5 -20t-9.5 -18t-11 -14t-17.5 -13.5t-17.5 -11.5t-21 -12t-20 -11v-2q7 1 20 1q45 0 74 -27.5t29 -69.5q0 -52 -49 -92t-112 -40z"/>
<glyph glyph-name="acute" d="M145 497l93 187h97l-179 -187h-11z" unicode="´"/>
<glyph glyph-name="mu" horiz-adv-x="494" unicode="µ" d="M216 -251h-211l3 15l21 1q40 3 40 16v618q0 8 -7.5 10t-41.5 5l-17 2l-3 15h154l-3 -313q0 -72 84 -72q63 0 109 39v290q0 22 -9 29.5t-38 9.5l-21 2l-3 15h155v-361q0 -23 14 -27l54 -13l-1 -11l-150 -35v81h-2q-18 -28 -27.5 -40t-30.5 -25.5t-47 -13.5q-53 0 -84 60 h-2v-265q0 -13 40 -16l21 -1z"/>
<glyph glyph-name="mu" horiz-adv-x="494" unicode="μ" d="M216 -251h-211l3 15l21 1q40 3 40 16v618q0 8 -7.5 10t-41.5 5l-17 2l-3 15h154l-3 -313q0 -72 84 -72q63 0 109 39v290q0 22 -9 29.5t-38 9.5l-21 2l-3 15h155v-361q0 -23 14 -27l54 -13l-1 -11l-150 -35v81h-2q-18 -28 -27.5 -40t-30.5 -25.5t-47 -13.5q-53 0 -84 60 h-2v-265q0 -13 40 -16l21 -1z"/>
<glyph glyph-name="paragraph" horiz-adv-x="452" unicode="¶" d="M368 -32v293q-52 -8 -97 -8q-113 0 -177 50.5t-64 138.5q0 90 61.5 136.5t174.5 46.5h124v-657h-22z"/>
<glyph glyph-name="periodcentered" horiz-adv-x="211" unicode="·" d="M105 163q-27 0 -45 18.5t-18 43.5q0 24 18 42t45 18t44.5 -17.5t17.5 -42.5t-17.5 -43.5t-44.5 -18.5z"/>
<glyph glyph-name="cedilla" d="M97 -267l-5 11q76 14 114.5 35t38.5 55q0 56 -85 56q-32 0 -65 -10v11l102 113h21l-61 -67q20 2 29 2q52 0 85 -22t33 -59q0 -95 -207 -125z" unicode="¸"/>
<glyph glyph-name="onesuperior" horiz-adv-x="254" unicode="¹" d="M47 267l2 11l33 3q23 0 23 11v320l-69 9l2 8l128 21v-359q0 -10 28 -10l29 -3l1 -11h-177z"/>
<glyph glyph-name="ordmasculine" horiz-adv-x="392" unicode="º" d="M197 300q42 0 67 45t25 107q0 107 -36 143q-25 26 -59 26q-45 0 -69 -45t-24 -108q0 -106 37 -143q25 -25 59 -25zM195 285q-78 0 -129 50.5t-51 122.5q0 74 52 126.5t129 52.5q79 0 129 -50.5t50 -124.5q0 -75 -50.5 -126t-129.5 -51z"/>
<glyph glyph-name="guillemotright" horiz-adv-x="452" unicode="»" d="M27 47l-5 9l135 166l-135 166l5 9l217 -166v-19zM217 57l-5 9l132 156l-132 155l5 9l217 -155v-19z"/>
<glyph glyph-name="onequarter" horiz-adv-x="677" unicode="¼" d="M32 -121l580 751h29l-580 -751h-29zM47 267l2 11l33 3q23 0 23 11v320l-69 9l2 8l128 21v-359q0 -10 28 -10l29 -3l1 -11h-177zM416 8h126v175h-2zM542 -136v107h-161l-1 9l191 270h28v-242h70l-10 -37h-60v-107h-57z"/>
<glyph glyph-name="onehalf" horiz-adv-x="665" unicode="½" d="M32 -121l580 751h29l-580 -751h-29zM47 267l2 11l33 3q23 0 23 11v320l-69 9l2 8l128 21v-359q0 -10 28 -10l29 -3l1 -11h-177zM387 -137l-3 13q56 55 77.5 77.5t51 57.5t39 61t9.5 54q0 41 -22 61.5t-52 20.5q-48 0 -91 -58l-6 6q55 94 130 94q43 0 72.5 -26.5 t29.5 -69.5q0 -34 -22.5 -71t-48.5 -63.5t-85 -81.5q-19 -18 -29 -27v-2h121q31 0 45 11t29 47l6 11h11l-26 -115h-236z"/>
<glyph glyph-name="threequarters" horiz-adv-x="651" unicode="¾" d="M6 -121l580 751h29l-580 -751h-29zM97 248q-36 0 -58.5 12.5t-22.5 32.5q0 13 9 22t23 9q18 0 30 -14.5t12 -35.5v-6l6 -1q5 -1 11.5 -2t10.5 -1q35 0 59.5 25.5t24.5 62.5q0 44 -23 68t-65 24q-26 0 -51 -10l-5 8q13 8 37 22.5t34 21.5t23 18t18 23t5 26q0 26 -17 42.5 t-45 16.5q-54 0 -87 -50l-7 6q49 86 124 86q38 0 64.5 -22t26.5 -54q0 -11 -2.5 -20t-9.5 -18t-11 -14t-17.5 -13.5t-17.5 -11.5t-21 -12t-20 -11v-2q7 1 20 1q45 0 74 -27.5t29 -69.5q0 -52 -49 -92t-112 -40zM390 8h126v175h-2zM516 -136v107h-161l-1 9l191 270h28v-242 h70l-10 -37h-60v-107h-57z"/>
<glyph glyph-name="questiondown" horiz-adv-x="318" unicode="¿" d="M215 -14q-82 0 -133.5 56t-51.5 127q0 53 20 77t76 49q5 2 15 6.5t14.5 6.5t12.5 6t12 6.5t9.5 7t8.5 8t6 8.5t4 10.5t1 11.5q0 32 -47 79h16q27 -22 51.5 -55.5t24.5 -57.5q0 -43 -21.5 -62.5t-84.5 -46.5q-56 -24 -76.5 -38t-20.5 -35q0 -35 38.5 -60.5t113.5 -25.5 q33 0 71 9q12 -15 12 -45q0 -42 -71 -42zM174 523q-26 0 -42.5 17t-16.5 40q0 25 16.5 42.5t42.5 17.5t43.5 -18t17.5 -42q0 -23 -17.5 -40t-43.5 -17z"/>
<glyph glyph-name="Agrave" horiz-adv-x="617" unicode="À" d="M327 664l-179 187h96l93 -187h-10zM187 279h168l-77 251h-3q-87 -251 -88 -251zM361 259h-180l-35 -99q-26 -78 -26 -99t14 -29.5t49 -12.5l27 -4l3 -15h-221l3 15l19 3q31 5 46.5 19.5t35 56t56.5 145.5l111 312l-8 32q17 6 39 25t29 33h12l172 -528q18 -58 31 -75 t43 -19l35 -4l3 -15h-280l3 15l37 4q40 3 40 35q0 19 -15 67z"/>
<glyph glyph-name="Aacute" horiz-adv-x="617" unicode="Á" d="M272 664l93 187h97l-179 -187h-11zM187 279h168l-77 251h-3q-87 -251 -88 -251zM361 259h-180l-35 -99q-26 -78 -26 -99t14 -29.5t49 -12.5l27 -4l3 -15h-221l3 15l19 3q31 5 46.5 19.5t35 56t56.5 145.5l111 312l-8 32q17 6 39 25t29 33h12l172 -528q18 -58 31 -75 t43 -19l35 -4l3 -15h-280l3 15l37 4q40 3 40 35q0 19 -15 67z"/>
<glyph glyph-name="Acircumflex" horiz-adv-x="617" unicode="Â" d="M175 656l133 194h15l133 -194h-12l-127 110h-2l-129 -110h-11zM187 279h168l-77 251h-3q-87 -251 -88 -251zM361 259h-180l-35 -99q-26 -78 -26 -99t14 -29.5t49 -12.5l27 -4l3 -15h-221l3 15l19 3q31 5 46.5 19.5t35 56t56.5 145.5l111 312l-8 32q17 6 39 25t29 33h12 l172 -528q18 -58 31 -75t43 -19l35 -4l3 -15h-280l3 15l37 4q40 3 40 35q0 19 -15 67z"/>
<glyph glyph-name="Atilde" horiz-adv-x="617" unicode="Ã" d="M384 671q-34 0 -92.5 32.5t-75.5 32.5q-20 0 -31.5 -11t-17.5 -46h-12q8 60 25.5 85.5t54.5 25.5q33 0 92 -32.5t76 -32.5q20 0 31.5 11t17.5 46h12q-7 -59 -25 -85t-55 -26zM187 279h168l-77 251h-3q-87 -251 -88 -251zM361 259h-180l-35 -99q-26 -78 -26 -99t14 -29.5 t49 -12.5l27 -4l3 -15h-221l3 15l19 3q31 5 46.5 19.5t35 56t56.5 145.5l111 312l-8 32q17 6 39 25t29 33h12l172 -528q18 -58 31 -75t43 -19l35 -4l3 -15h-280l3 15l37 4q40 3 40 35q0 19 -15 67z"/>
<glyph glyph-name="Adieresis" horiz-adv-x="617" unicode="Ä" d="M217 687q-26 0 -40.5 17.5t-14.5 37.5q0 21 14.5 39.5t40.5 18.5q25 0 39.5 -18.5t14.5 -39.5t-14 -38t-40 -17zM403 687q-26 0 -40.5 17.5t-14.5 37.5q0 21 14.5 39.5t40.5 18.5q25 0 39.5 -18.5t14.5 -39.5t-14 -38t-40 -17zM187 279h168l-77 251h-3q-87 -251 -88 -251 zM361 259h-180l-35 -99q-26 -78 -26 -99t14 -29.5t49 -12.5l27 -4l3 -15h-221l3 15l19 3q31 5 46.5 19.5t35 56t56.5 145.5l111 312l-8 32q17 6 39 25t29 33h12l172 -528q18 -58 31 -75t43 -19l35 -4l3 -15h-280l3 15l37 4q40 3 40 35q0 19 -15 67z"/>
<glyph glyph-name="Aring" horiz-adv-x="617" unicode="Å" d="M310 624q33 0 53 21.5t20 53.5q0 31 -20 53.5t-53 22.5t-53 -22.5t-20 -53.5q0 -32 20 -53.5t53 -21.5zM187 279h168l-77 252h-3zM362 257h-183l-33 -97q-26 -78 -26 -99t14 -29.5t49 -12.5l27 -4l3 -15h-221l3 15l19 3q31 5 46.5 19.5t35 56t56.5 145.5l134 375 q-31 9 -48 32t-17 54q0 37 24.5 63t64.5 26t64.5 -26t24.5 -63q0 -29 -15 -51.5t-41 -31.5l164 -504q18 -58 31 -75t43 -19l35 -4l3 -15h-280l3 15l37 4q40 3 40 35q0 19 -15 67z"/>
<glyph glyph-name="AE" horiz-adv-x="841" unicode="Æ" d="M206 279h181v316h-4zM-52 0l3 15l34 5q31 5 61 38.5t88 136.5l204 360q9 15 9 25q0 21 -57 25l-35 3l-3 17h514l9 -192h-17l-11 38q-23 68 -34 86q-31 43 -121 48q-16 1 -35 1h-77v-276l30 1q74 2 98.5 13.5t37.5 52.5l10 30l16 -1l-21 -213l-15 1l-3 29q-3 43 -25.5 54 t-103.5 14l-24 1v-290l76 -3q58 0 97 10t63 32.5t36 42.5t27 56l11 37l19 -1l-30 -196h-486l3 15l51 6q40 4 40 18v218h-193l-52 -93q-43 -79 -43 -109t42 -36l30 -4l3 -15h-226z"/>
<glyph glyph-name="Ccedilla" horiz-adv-x="683" unicode="Ç" d="M373 -15q-150 4 -245 91.5t-95 232.5q0 148 100 239.5t259 91.5q44 0 90.5 -11.5t72.5 -24.5l65 24l2 -198h-18l-73 153q-50 37 -142 37q-116 0 -183.5 -86.5t-67.5 -214.5q0 -139 72 -226.5t183 -87.5q67 0 111.5 28t85.5 87l30 72h19l-32 -170l-38 -2q-74 -32 -175 -35 l-44 -48q20 2 29 2q52 0 85 -22t33 -59q0 -95 -207 -125l-5 11q76 14 114.5 35t38.5 55q0 56 -85 56q-32 0 -65 -10v11z"/>
<glyph glyph-name="Egrave" horiz-adv-x="593" unicode="È" d="M321 664l-179 187h96l93 -187h-10zM29 0l3 15l35 4q47 4 47 17v556q0 6 -9 9t-42 6l-30 3l-3 15h483l10 -192h-19l-10 38q-11 33 -18 49t-22 36t-34.5 29t-51.5 15.5t-78 6.5h-81v-277l40 1q75 2 102.5 14t40.5 52l10 30l17 -1l-21 -213l-17 1l-3 29q-3 42 -28 53.5 t-107 14.5l-34 1v-290l94 -3q46 0 81 8t56.5 19t38.5 31.5t25.5 37t20.5 45.5l12 37l20 -1l-31 -196h-497z"/>
<glyph glyph-name="Eacute" horiz-adv-x="593" unicode="É" d="M269 664l93 187h97l-179 -187h-11zM29 0l3 15l35 4q47 4 47 17v556q0 6 -9 9t-42 6l-30 3l-3 15h483l10 -192h-19l-10 38q-11 33 -18 49t-22 36t-34.5 29t-51.5 15.5t-78 6.5h-81v-277l40 1q75 2 102.5 14t40.5 52l10 30l17 -1l-21 -213l-17 1l-3 29q-3 42 -28 53.5 t-107 14.5l-34 1v-290l94 -3q46 0 81 8t56.5 19t38.5 31.5t25.5 37t20.5 45.5l12 37l20 -1l-31 -196h-497z"/>
<glyph glyph-name="Ecircumflex" horiz-adv-x="593" unicode="Ê" d="M157 656l133 194h15l133 -194h-12l-127 110h-2l-129 -110h-11zM29 0l3 15l35 4q47 4 47 17v556q0 6 -9 9t-42 6l-30 3l-3 15h483l10 -192h-19l-10 38q-11 33 -18 49t-22 36t-34.5 29t-51.5 15.5t-78 6.5h-81v-277l40 1q75 2 102.5 14t40.5 52l10 30l17 -1l-21 -213l-17 1 l-3 29q-3 42 -28 53.5t-107 14.5l-34 1v-290l94 -3q46 0 81 8t56.5 19t38.5 31.5t25.5 37t20.5 45.5l12 37l20 -1l-31 -196h-497z"/>
<glyph glyph-name="Edieresis" horiz-adv-x="593" unicode="Ë" d="M202 687q-26 0 -40.5 17.5t-14.5 37.5q0 21 14.5 39.5t40.5 18.5q25 0 39.5 -18.5t14.5 -39.5t-14 -38t-40 -17zM388 687q-26 0 -40.5 17.5t-14.5 37.5q0 21 14.5 39.5t40.5 18.5q25 0 39.5 -18.5t14.5 -39.5t-14 -38t-40 -17zM29 0l3 15l35 4q47 4 47 17v556q0 6 -9 9 t-42 6l-30 3l-3 15h483l10 -192h-19l-10 38q-11 33 -18 49t-22 36t-34.5 29t-51.5 15.5t-78 6.5h-81v-277l40 1q75 2 102.5 14t40.5 52l10 30l17 -1l-21 -213l-17 1l-3 29q-3 42 -28 53.5t-107 14.5l-34 1v-290l94 -3q46 0 81 8t56.5 19t38.5 31.5t25.5 37t20.5 45.5l12 37 l20 -1l-31 -196h-497z"/>
<glyph glyph-name="Igrave" horiz-adv-x="344" unicode="Ì" d="M194 664l-179 187h96l93 -187h-10zM34 0l3 15l44 4q44 4 44 17v556q0 6 -9 9t-42 6l-36 3l-3 15h275l-3 -15l-43 -4q-44 -4 -44 -17v-556q0 -6 9 -9t42 -6l35 -3l3 -15h-275z"/>
<glyph glyph-name="Iacute" horiz-adv-x="344" unicode="Í" d="M134 664l93 187h97l-179 -187h-11zM34 0l3 15l44 4q44 4 44 17v556q0 6 -9 9t-42 6l-36 3l-3 15h275l-3 -15l-43 -4q-44 -4 -44 -17v-556q0 -6 9 -9t42 -6l35 -3l3 -15h-275z"/>
<glyph glyph-name="Icircumflex" horiz-adv-x="344" unicode="Î" d="M32 656l133 194h15l133 -194h-12l-127 110h-2l-129 -110h-11zM34 0l3 15l44 4q44 4 44 17v556q0 6 -9 9t-42 6l-36 3l-3 15h275l-3 -15l-43 -4q-44 -4 -44 -17v-556q0 -6 9 -9t42 -6l35 -3l3 -15h-275z"/>
<glyph glyph-name="Idieresis" horiz-adv-x="344" unicode="Ï" d="M81 687q-26 0 -40.5 17.5t-14.5 37.5q0 21 14.5 39.5t40.5 18.5q25 0 39.5 -18.5t14.5 -39.5t-14 -38t-40 -17zM267 687q-26 0 -40.5 17.5t-14.5 37.5q0 21 14.5 39.5t40.5 18.5q25 0 39.5 -18.5t14.5 -39.5t-14 -38t-40 -17zM34 0l3 15l44 4q44 4 44 17v556q0 6 -9 9 t-42 6l-36 3l-3 15h275l-3 -15l-43 -4q-44 -4 -44 -17v-556q0 -6 9 -9t42 -6l35 -3l3 -15h-275z"/>
<glyph glyph-name="Eth" horiz-adv-x="668" unicode="Ð" d="M207 326h142l3 -21h-145v-266l68 -20q125 0 194.5 81.5t69.5 200.5q0 134 -71.5 220t-212.5 86h-48v-281zM114 305h-94l3 21h91v262q0 12 -48 17l-43 5l-3 15l253 3h11q168 0 261.5 -84t93.5 -217q0 -144 -100 -235.5t-287 -91.5h-233l3 15l51 6q41 4 41 18v266z"/>
<glyph glyph-name="Ntilde" horiz-adv-x="698" unicode="Ñ" d="M441 671q-34 0 -92.5 32.5t-75.5 32.5q-20 0 -31.5 -11t-17.5 -46h-12q8 60 25.5 85.5t54.5 25.5q32 0 91 -32.5t77 -32.5q20 0 31.5 11t17.5 46h12q-7 -59 -25 -85t-55 -26zM567 -6l-431 550h-2l1 -439q0 -48 14.5 -64.5t56.5 -21.5l28 -4l3 -15h-216l3 15l28 4 q34 3 48 21t14 67l3 431q-23 58 -78 69l-23 4l-3 15h180l375 -484l2 1l-1 377q0 48 -14.5 64.5t-56.5 21.5l-28 4l-3 15h216l-3 -15l-28 -4q-34 -3 -48 -21t-14 -67l-2 -524h-21z"/>
<glyph glyph-name="Ograve" horiz-adv-x="735" unicode="Ò" d="M397 664l-179 187h96l93 -187h-10zM369 4q102 0 164.5 83t62.5 225q0 136 -66 222t-166 86q-101 0 -163.5 -83t-62.5 -225q0 -137 65.5 -222.5t165.5 -85.5zM363 -15q-143 0 -236.5 91t-93.5 233q0 130 99.5 230t238.5 100q143 0 237 -91t94 -234q0 -131 -99.5 -230 t-239.5 -99z"/>
<glyph glyph-name="Oacute" horiz-adv-x="735" unicode="Ó" d="M326 664l93 187h97l-179 -187h-11zM369 4q102 0 164.5 83t62.5 225q0 136 -66 222t-166 86q-101 0 -163.5 -83t-62.5 -225q0 -137 65.5 -222.5t165.5 -85.5zM363 -15q-143 0 -236.5 91t-93.5 233q0 130 99.5 230t238.5 100q143 0 237 -91t94 -234q0 -131 -99.5 -230 t-239.5 -99z"/>
<glyph glyph-name="Ocircumflex" horiz-adv-x="735" unicode="Ô" d="M229 656l133 194h15l133 -194h-12l-127 110h-2l-129 -110h-11zM369 4q102 0 164.5 83t62.5 225q0 136 -66 222t-166 86q-101 0 -163.5 -83t-62.5 -225q0 -137 65.5 -222.5t165.5 -85.5zM363 -15q-143 0 -236.5 91t-93.5 233q0 130 99.5 230t238.5 100q143 0 237 -91 t94 -234q0 -131 -99.5 -230t-239.5 -99z"/>
<glyph glyph-name="Otilde" horiz-adv-x="735" unicode="Õ" d="M445 671q-34 0 -92.5 32.5t-75.5 32.5q-20 0 -31.5 -11t-17.5 -46h-12q8 60 25.5 85.5t54.5 25.5q32 0 91 -32.5t77 -32.5q20 0 31.5 11t17.5 46h12q-7 -59 -25 -85t-55 -26zM369 4q102 0 164.5 83t62.5 225q0 136 -66 222t-166 86q-101 0 -163.5 -83t-62.5 -225 q0 -137 65.5 -222.5t165.5 -85.5zM363 -15q-143 0 -236.5 91t-93.5 233q0 130 99.5 230t238.5 100q143 0 237 -91t94 -234q0 -131 -99.5 -230t-239.5 -99z"/>
<glyph glyph-name="Odieresis" horiz-adv-x="735" unicode="Ö" d="M278 687q-26 0 -40.5 17.5t-14.5 37.5q0 21 14.5 39.5t40.5 18.5q25 0 39.5 -18.5t14.5 -39.5t-14 -38t-40 -17zM464 687q-26 0 -40.5 17.5t-14.5 37.5q0 21 14.5 39.5t40.5 18.5q25 0 39.5 -18.5t14.5 -39.5t-14 -38t-40 -17zM369 4q102 0 164.5 83t62.5 225 q0 136 -66 222t-166 86q-101 0 -163.5 -83t-62.5 -225q0 -137 65.5 -222.5t165.5 -85.5zM363 -15q-143 0 -236.5 91t-93.5 233q0 130 99.5 230t238.5 100q143 0 237 -91t94 -234q0 -131 -99.5 -230t-239.5 -99z"/>
<glyph glyph-name="multiply" horiz-adv-x="448" unicode="×" d="M33 61l175 175l-175 175l16 16l175 -175l175 175l16 -16l-175 -175l175 -175l-16 -16l-175 175l-175 -175z"/>
<glyph glyph-name="Oslash" horiz-adv-x="735" unicode="Ø" d="M518 549l-285 -492q59 -53 136 -53q102 0 164.5 83t62.5 225q0 148 -78 237zM219 71l285 492q-62 57 -140 57q-101 0 -163.5 -83.5t-62.5 -224.5q0 -154 81 -241zM545 595q73 -42 115 -115t42 -166q0 -131 -99.5 -230t-239.5 -99q-81 0 -153 33l-52 -91h-22l57 99 q-74 41 -117 115t-43 168q0 130 99.5 230t238.5 100q87 0 157 -35l49 85h22z"/>
<glyph glyph-name="Ugrave" horiz-adv-x="694" unicode="Ù" d="M389 664l-179 187h96l93 -187h-10zM355 -14q-129 0 -187.5 54.5t-58.5 176.5v376q0 4 -3.5 6t-14.5 4t-33 4l-40 4l-3 15h283l-3 -15l-47 -4q-44 -4 -44 -17v-351q0 -111 46.5 -162t139.5 -51q86 0 135 56t49 161l-1 277q0 48 -15 65t-57 22l-28 4l-3 15h217l-3 -15 l-29 -4q-34 -4 -47.5 -22t-13.5 -67l-2 -280q-2 -252 -237 -252z"/>
<glyph glyph-name="Uacute" horiz-adv-x="694" unicode="Ú" d="M323 664l93 187h97l-179 -187h-11zM355 -14q-129 0 -187.5 54.5t-58.5 176.5v376q0 4 -3.5 6t-14.5 4t-33 4l-40 4l-3 15h283l-3 -15l-47 -4q-44 -4 -44 -17v-351q0 -111 46.5 -162t139.5 -51q86 0 135 56t49 161l-1 277q0 48 -15 65t-57 22l-28 4l-3 15h217l-3 -15 l-29 -4q-34 -4 -47.5 -22t-13.5 -67l-2 -280q-2 -252 -237 -252z"/>
<glyph glyph-name="Ucircumflex" horiz-adv-x="694" unicode="Û" d="M221 656l133 194h15l133 -194h-12l-127 110h-2l-129 -110h-11zM355 -14q-129 0 -187.5 54.5t-58.5 176.5v376q0 4 -3.5 6t-14.5 4t-33 4l-40 4l-3 15h283l-3 -15l-47 -4q-44 -4 -44 -17v-351q0 -111 46.5 -162t139.5 -51q86 0 135 56t49 161l-1 277q0 48 -15 65t-57 22 l-28 4l-3 15h217l-3 -15l-29 -4q-34 -4 -47.5 -22t-13.5 -67l-2 -280q-2 -252 -237 -252z"/>
<glyph glyph-name="Udieresis" horiz-adv-x="694" unicode="Ü" d="M284 687q-26 0 -40.5 17.5t-14.5 37.5q0 21 14.5 39.5t40.5 18.5q25 0 39.5 -18.5t14.5 -39.5t-14 -38t-40 -17zM470 687q-26 0 -40.5 17.5t-14.5 37.5q0 21 14.5 39.5t40.5 18.5q25 0 39.5 -18.5t14.5 -39.5t-14 -38t-40 -17zM355 -14q-129 0 -187.5 54.5t-58.5 176.5 v376q0 4 -3.5 6t-14.5 4t-33 4l-40 4l-3 15h283l-3 -15l-47 -4q-44 -4 -44 -17v-351q0 -111 46.5 -162t139.5 -51q86 0 135 56t49 161l-1 277q0 48 -15 65t-57 22l-28 4l-3 15h217l-3 -15l-29 -4q-34 -4 -47.5 -22t-13.5 -67l-2 -280q-2 -252 -237 -252z"/>
<glyph glyph-name="Yacute" horiz-adv-x="618" unicode="Ý" d="M290 664l93 187h97l-179 -187h-11zM163 0l3 15l53 4q44 4 44 17v238l-156 269q-20 34 -36 47.5t-43 15.5l-30 4l-3 15h273l-3 -15l-28 -2q-40 -3 -40 -25q0 -16 27 -64l119 -211h2l94 174q36 67 36 90q0 28 -48 35l-23 3l-3 15h210l-3 -15l-23 -3q-31 -5 -56 -28.5 t-61 -90.5l-110 -199v-256q0 -6 9.5 -9t42.5 -6l45 -3l3 -15h-295z"/>
<glyph glyph-name="Thorn" horiz-adv-x="564" unicode="Þ" d="M290 166q65 0 103.5 42t38.5 111q0 76 -39.5 118t-122.5 42h-3l-58 -1v-302q38 -10 81 -10zM19 0l3 15l48 4q44 4 44 17v556q0 6 -9 9t-42 6l-40 3l-3 15h283l-3 -15l-47 -4q-44 -5 -44 -17v-91l88 -1q116 0 176.5 -44.5t60.5 -118.5q0 -82 -69.5 -135.5t-175.5 -53.5 q-38 0 -80 7v-119q0 -12 51 -15l52 -3l3 -15h-296z"/>
<glyph glyph-name="germandbls" horiz-adv-x="515" unicode="ß" d="M323 416q67 -37 121 -106t54 -139q0 -73 -48 -128t-115 -55q-45 0 -76.5 23.5t-31.5 55.5q0 26 16 43t41 17t38 -14t13 -34t-12.5 -34.5t-33.5 -14.5h-2q14 -25 51 -25q39 0 62.5 29.5t23.5 78.5q0 75 -51 152t-144 132v10q67 12 98.5 44.5t31.5 94.5q0 43 -27 74t-66 31 q-51 0 -73.5 -37t-22.5 -121v-492h-147l3 14l23 2q15 1 22 2.5t11 4.5t4 9v354l-79 2l15 41l64 1l1 22q10 104 60 162t130 58q76 0 120.5 -35t44.5 -95q0 -49 -32.5 -80.5t-86.5 -46.5z"/>
<glyph glyph-name="agrave" horiz-adv-x="424" unicode="à" d="M243 497l-179 187h96l93 -187h-10zM180 42q44 0 83 38l6 156q-90 -21 -123 -50t-33 -69q0 -33 20 -54t47 -21zM334 -12q-63 0 -69 74l-2 1q-68 -74 -126 -74q-44 0 -76 29.5t-32 72.5q0 54 53.5 92.5t186.5 68.5l1 25v7q0 130 -98 130q-25 0 -50 -10.5t-25 -17.5 q0 -1 12.5 -19.5t12.5 -34.5q0 -18 -13.5 -31t-35.5 -13q-21 0 -35.5 12.5t-14.5 29.5q0 38 68.5 76.5t130.5 38.5q73 0 103.5 -31t30.5 -112q0 -19 -1 -29l-9 -185v-7q0 -42 31 -42q15 0 44 25l9 -9q-50 -67 -96 -67z"/>
<glyph glyph-name="aacute" horiz-adv-x="424" unicode="á" d="M171 497l93 187h97l-179 -187h-11zM180 42q44 0 83 38l6 156q-90 -21 -123 -50t-33 -69q0 -33 20 -54t47 -21zM334 -12q-63 0 -69 74l-2 1q-68 -74 -126 -74q-44 0 -76 29.5t-32 72.5q0 54 53.5 92.5t186.5 68.5l1 25v7q0 130 -98 130q-25 0 -50 -10.5t-25 -17.5 q0 -1 12.5 -19.5t12.5 -34.5q0 -18 -13.5 -31t-35.5 -13q-21 0 -35.5 12.5t-14.5 29.5q0 38 68.5 76.5t130.5 38.5q73 0 103.5 -31t30.5 -112q0 -19 -1 -29l-9 -185v-7q0 -42 31 -42q15 0 44 25l9 -9q-50 -67 -96 -67z"/>
<glyph glyph-name="acircumflex" horiz-adv-x="424" unicode="â" d="M62 489l133 194h15l133 -194h-12l-127 110h-2l-129 -110h-11zM180 42q44 0 83 38l6 156q-90 -21 -123 -50t-33 -69q0 -33 20 -54t47 -21zM334 -12q-63 0 -69 74l-2 1q-68 -74 -126 -74q-44 0 -76 29.5t-32 72.5q0 54 53.5 92.5t186.5 68.5l1 25v7q0 130 -98 130 q-25 0 -50 -10.5t-25 -17.5q0 -1 12.5 -19.5t12.5 -34.5q0 -18 -13.5 -31t-35.5 -13q-21 0 -35.5 12.5t-14.5 29.5q0 38 68.5 76.5t130.5 38.5q73 0 103.5 -31t30.5 -112q0 -19 -1 -29l-9 -185v-7q0 -42 31 -42q15 0 44 25l9 -9q-50 -67 -96 -67z"/>
<glyph glyph-name="atilde" horiz-adv-x="424" unicode="ã" d="M277 504q-34 0 -92.5 32.5t-75.5 32.5q-20 0 -31.5 -11t-17.5 -46h-12q8 60 25.5 85.5t54.5 25.5q32 0 91 -32.5t77 -32.5q20 0 31.5 11t17.5 46h12q-7 -59 -25 -85t-55 -26zM180 42q44 0 83 38l6 156q-90 -21 -123 -50t-33 -69q0 -33 20 -54t47 -21zM334 -12 q-63 0 -69 74l-2 1q-68 -74 -126 -74q-44 0 -76 29.5t-32 72.5q0 54 53.5 92.5t186.5 68.5l1 25v7q0 130 -98 130q-25 0 -50 -10.5t-25 -17.5q0 -1 12.5 -19.5t12.5 -34.5q0 -18 -13.5 -31t-35.5 -13q-21 0 -35.5 12.5t-14.5 29.5q0 38 68.5 76.5t130.5 38.5q73 0 103.5 -31 t30.5 -112q0 -19 -1 -29l-9 -185v-7q0 -42 31 -42q15 0 44 25l9 -9q-50 -67 -96 -67z"/>
<glyph glyph-name="adieresis" horiz-adv-x="424" unicode="ä" d="M106 520q-26 0 -40.5 17.5t-14.5 37.5q0 21 14.5 39.5t40.5 18.5q25 0 39.5 -18.5t14.5 -39.5t-14 -38t-40 -17zM292 520q-26 0 -40.5 17.5t-14.5 37.5q0 21 14.5 39.5t40.5 18.5q25 0 39.5 -18.5t14.5 -39.5t-14 -38t-40 -17zM180 42q44 0 83 38l6 156q-90 -21 -123 -50 t-33 -69q0 -33 20 -54t47 -21zM334 -12q-63 0 -69 74l-2 1q-68 -74 -126 -74q-44 0 -76 29.5t-32 72.5q0 54 53.5 92.5t186.5 68.5l1 25v7q0 130 -98 130q-25 0 -50 -10.5t-25 -17.5q0 -1 12.5 -19.5t12.5 -34.5q0 -18 -13.5 -31t-35.5 -13q-21 0 -35.5 12.5t-14.5 29.5 q0 38 68.5 76.5t130.5 38.5q73 0 103.5 -31t30.5 -112q0 -19 -1 -29l-9 -185v-7q0 -42 31 -42q15 0 44 25l9 -9q-50 -67 -96 -67z"/>
<glyph glyph-name="aring" horiz-adv-x="422" unicode="å" d="M180 42q44 0 83 38l6 156q-90 -21 -123 -50t-33 -69q0 -33 20 -54t47 -21zM208 518q33 0 52.5 22t19.5 54q0 31 -19.5 53t-52.5 22t-53 -22t-20 -53q0 -32 20 -54t53 -22zM334 -12q-63 0 -69 74l-2 1q-68 -74 -126 -74q-44 0 -76 29.5t-32 72.5q0 54 53.5 92.5 t186.5 68.5l1 25v7q0 130 -98 130q-25 0 -50 -10.5t-25 -17.5q0 -1 12.5 -19.5t12.5 -34.5q0 -18 -13.5 -31t-35.5 -13q-21 0 -35.5 12.5t-14.5 29.5q0 38 68.5 76.5t130.5 38.5q73 0 103.5 -31t30.5 -112q0 -19 -1 -29l-9 -185v-7q0 -42 31 -42q15 0 44 25l9 -9 q-50 -67 -96 -67zM208 504q-40 0 -64.5 26t-24.5 64q0 37 24.5 63.5t64.5 26.5t64.5 -26.5t24.5 -63.5q0 -38 -24.5 -64t-64.5 -26z"/>
<glyph glyph-name="ae" horiz-adv-x="677" unicode="æ" d="M180 39q27 0 49 14t57 50q-20 50 -20 104q0 10 2 28q-91 -23 -123 -51.5t-32 -69.5q0 -32 20.5 -53.5t46.5 -21.5zM359 296l197 2v8q0 53 -20.5 87t-60.5 34q-41 0 -74 -38t-42 -93zM137 -14q-44 0 -76 30t-32 73q0 55 53 94.5t187 68.5l1 26v15q0 121 -98 121 q-25 0 -50 -10.5t-25 -17.5q0 -1 12.5 -19.5t12.5 -34.5q0 -18 -13.5 -31t-35.5 -13q-21 0 -35.5 12.5t-14.5 29.5q0 39 68.5 77t135.5 38q88 0 111 -60q62 60 149 60q74 0 117 -38.5t43 -102.5q0 -11 -3 -26q-283 2 -287 2q-2 -20 -2 -41q0 -85 44 -137.5t110 -52.5 q85 0 133 71l11 -6q-71 -128 -187 -128q-57 0 -102.5 28.5t-69.5 74.5q-52 -55 -86 -79t-71 -24z"/>
<glyph glyph-name="ccedilla" horiz-adv-x="417" unicode="ç" d="M229 -14h-6q-86 0 -143 62.5t-57 155.5q0 102 64.5 171.5t163.5 69.5q63 0 105 -26t42 -67q0 -23 -15.5 -37.5t-35.5 -14.5q-22 0 -37 16t-15 39v6q0 14 7 26t7 13q-3 9 -22 18t-39 9q-58 0 -97 -52t-39 -135q0 -85 44 -138t111 -53q81 0 127 71l12 -6 q-62 -112 -154 -126l-47 -51q20 2 29 2q52 0 85 -22t33 -59q0 -95 -207 -125l-5 11q76 14 114.5 35t38.5 55q0 56 -85 56q-32 0 -65 -10v11z"/>
<glyph glyph-name="egrave" horiz-adv-x="434" unicode="è" d="M263 497l-179 187h96l93 -187h-10zM117 296l197 1q1 56 -19.5 93t-61.5 37t-74 -38t-42 -93zM224 -14q-87 0 -144 62.5t-57 155.5q0 102 63 171.5t159 69.5q74 0 117 -38.5t43 -102.5q0 -11 -3 -26l-287 2q-3 -15 -3 -41q0 -85 44 -137.5t111 -52.5q84 0 132 71l11 -6 q-71 -128 -186 -128z"/>
<glyph glyph-name="eacute" horiz-adv-x="434" unicode="é" d="M185 497l93 187h97l-179 -187h-11zM117 296l197 1q1 56 -19.5 93t-61.5 37t-74 -38t-42 -93zM224 -14q-87 0 -144 62.5t-57 155.5q0 102 63 171.5t159 69.5q74 0 117 -38.5t43 -102.5q0 -11 -3 -26l-287 2q-3 -15 -3 -41q0 -85 44 -137.5t111 -52.5q84 0 132 71l11 -6 q-71 -128 -186 -128z"/>
<glyph glyph-name="ecircumflex" horiz-adv-x="434" unicode="ê" d="M89 489l133 194h15l133 -194h-12l-127 110h-2l-129 -110h-11zM117 296l197 1q1 56 -19.5 93t-61.5 37t-74 -38t-42 -93zM224 -14q-87 0 -144 62.5t-57 155.5q0 102 63 171.5t159 69.5q74 0 117 -38.5t43 -102.5q0 -11 -3 -26l-287 2q-3 -15 -3 -41q0 -85 44 -137.5 t111 -52.5q84 0 132 71l11 -6q-71 -128 -186 -128z"/>
<glyph glyph-name="edieresis" horiz-adv-x="434" unicode="ë" d="M130 520q-26 0 -40.5 17.5t-14.5 37.5q0 21 14.5 39.5t40.5 18.5q25 0 39.5 -18.5t14.5 -39.5t-14 -38t-40 -17zM316 520q-26 0 -40.5 17.5t-14.5 37.5q0 21 14.5 39.5t40.5 18.5q25 0 39.5 -18.5t14.5 -39.5t-14 -38t-40 -17zM117 296l197 1q1 56 -19.5 93t-61.5 37 t-74 -38t-42 -93zM224 -14q-87 0 -144 62.5t-57 155.5q0 102 63 171.5t159 69.5q74 0 117 -38.5t43 -102.5q0 -11 -3 -26l-287 2q-3 -15 -3 -41q0 -85 44 -137.5t111 -52.5q84 0 132 71l11 -6q-71 -128 -186 -128z"/>
<glyph glyph-name="igrave" horiz-adv-x="244" unicode="ì" d="M154 497l-179 187h96l93 -187h-10zM18 0l3 15l21 1q23 2 31.5 5t8.5 12v276q0 45 -7.5 59t-34.5 20l-23 5l1 11l147 39v-412q0 -7 8.5 -10t38.5 -5l18 -1l3 -15h-215z"/>
<glyph glyph-name="iacute" horiz-adv-x="244" unicode="í" d="M84 497l93 187h97l-179 -187h-11zM18 0l3 15l21 1q23 2 31.5 5t8.5 12v276q0 45 -7.5 59t-34.5 20l-23 5l1 11l147 39v-412q0 -7 8.5 -10t38.5 -5l18 -1l3 -15h-215z"/>
<glyph glyph-name="icircumflex" horiz-adv-x="244" unicode="î" d="M18 0l3 15l21 1q23 2 31.5 5t8.5 12v276q0 45 -7.5 59t-34.5 20l-23 5l1 11l147 39v-412q0 -7 8.5 -10t38.5 -5l18 -1l3 -15h-215zM1 489l120 194h15l119 -194h-12l-114 110h-2l-114 -110h-12z"/>
<glyph glyph-name="idieresis" horiz-adv-x="244" unicode="ï" d="M36 520q-26 0 -40.5 17.5t-14.5 37.5q0 21 14.5 39.5t40.5 18.5q25 0 39.5 -18.5t14.5 -39.5t-14 -38t-40 -17zM222 520q-26 0 -40.5 17.5t-14.5 37.5q0 21 14.5 39.5t40.5 18.5q25 0 39.5 -18.5t14.5 -39.5t-14 -38t-40 -17zM18 0l3 15l21 1q23 2 31.5 5t8.5 12v276 q0 45 -7.5 59t-34.5 20l-23 5l1 11l147 39v-412q0 -7 8.5 -10t38.5 -5l18 -1l3 -15h-215z"/>
<glyph glyph-name="eth" horiz-adv-x="490" unicode="ð" d="M250 5q57 0 89.5 52t32.5 144q0 101 -35.5 163t-94.5 62q-57 0 -89.5 -51.5t-32.5 -141.5q0 -107 34 -167.5t96 -60.5zM225 556l-137 -44l2 22l113 37q-61 36 -132 50l5 14q92 -10 172 -49l124 40l2 -21l-101 -33q94 -55 145 -143t52 -183q0 -113 -62.5 -186.5 t-162.5 -73.5q-97 0 -159.5 65t-62.5 163q0 101 61.5 165t155.5 64q55 0 94 -18q-39 80 -109 131z"/>
<glyph glyph-name="ntilde" horiz-adv-x="517" unicode="ñ" d="M339 504q-34 0 -92.5 32.5t-75.5 32.5q-20 0 -31.5 -11t-17.5 -46h-12q8 60 25.5 85.5t54.5 25.5q33 0 91.5 -32.5t76.5 -32.5q20 0 31.5 11t17.5 46h12q-7 -59 -25 -85t-55 -26zM18 0l3 15l21 1q23 2 31.5 5t8.5 12v275q0 46 -7.5 60t-34.5 20l-23 5l1 11l148 39l-2 -80 h3q30 24 49 38t52.5 28.5t64.5 14.5q51 0 79 -29q33 -33 33 -104v-279q0 -4 2 -6.5t13 -5t33 -4.5l17 -1l3 -15h-213l3 15l20 1q38 2 38 17v252q0 52 -21.5 75t-67.5 23q-59 0 -107 -41v-311q0 -7 8.5 -10t37.5 -5l21 -1l2 -15h-216z"/>
<glyph glyph-name="ograve" horiz-adv-x="504" unicode="ò" d="M275 497l-179 187h96l93 -187h-10zM254 4q58 0 93.5 58t35.5 140q0 135 -54 190q-35 35 -80 35q-59 0 -93.5 -57.5t-34.5 -137.5q0 -138 53 -192q34 -36 80 -36zM249 -14q-99 0 -162.5 65.5t-63.5 162.5t66.5 164t165.5 67t162.5 -64t63.5 -160q0 -99 -66 -167t-166 -68z "/>
<glyph glyph-name="oacute" horiz-adv-x="504" unicode="ó" d="M217 497l93 187h97l-179 -187h-11zM254 4q58 0 93.5 58t35.5 140q0 135 -54 190q-35 35 -80 35q-59 0 -93.5 -57.5t-34.5 -137.5q0 -138 53 -192q34 -36 80 -36zM249 -14q-99 0 -162.5 65.5t-63.5 162.5t66.5 164t165.5 67t162.5 -64t63.5 -160q0 -99 -66 -167t-166 -68z "/>
<glyph glyph-name="ocircumflex" horiz-adv-x="504" unicode="ô" d="M111 489l133 194h15l133 -194h-12l-127 110h-2l-129 -110h-11zM254 4q58 0 93.5 58t35.5 140q0 135 -54 190q-35 35 -80 35q-59 0 -93.5 -57.5t-34.5 -137.5q0 -138 53 -192q34 -36 80 -36zM249 -14q-99 0 -162.5 65.5t-63.5 162.5t66.5 164t165.5 67t162.5 -64 t63.5 -160q0 -99 -66 -167t-166 -68z"/>
<glyph glyph-name="otilde" horiz-adv-x="504" unicode="õ" d="M326 504q-34 0 -92.5 32.5t-75.5 32.5q-20 0 -31.5 -11t-17.5 -46h-12q8 60 25.5 85.5t54.5 25.5q33 0 92 -32.5t76 -32.5q20 0 31.5 11t17.5 46h12q-7 -59 -25 -85t-55 -26zM254 4q58 0 93.5 58t35.5 140q0 135 -54 190q-35 35 -80 35q-59 0 -93.5 -57.5t-34.5 -137.5 q0 -138 53 -192q34 -36 80 -36zM249 -14q-99 0 -162.5 65.5t-63.5 162.5t66.5 164t165.5 67t162.5 -64t63.5 -160q0 -99 -66 -167t-166 -68z"/>
<glyph glyph-name="odieresis" horiz-adv-x="504" unicode="ö" d="M159 520q-26 0 -40.5 17.5t-14.5 37.5q0 21 14.5 39.5t40.5 18.5q25 0 39.5 -18.5t14.5 -39.5t-14 -38t-40 -17zM345 520q-26 0 -40.5 17.5t-14.5 37.5q0 21 14.5 39.5t40.5 18.5q25 0 39.5 -18.5t14.5 -39.5t-14 -38t-40 -17zM254 4q58 0 93.5 58t35.5 140 q0 135 -54 190q-35 35 -80 35q-59 0 -93.5 -57.5t-34.5 -137.5q0 -138 53 -192q34 -36 80 -36zM249 -14q-99 0 -162.5 65.5t-63.5 162.5t66.5 164t165.5 67t162.5 -64t63.5 -160q0 -99 -66 -167t-166 -68z"/>
<glyph glyph-name="divide" horiz-adv-x="448" unicode="÷" d="M273 98q0 -20 -14 -35t-35 -15t-35.5 15t-14.5 35q0 19 14.5 33t35.5 14t35 -14t14 -33zM424 225h-400l3 22h394zM273 377q0 -20 -14.5 -35t-35.5 -15t-35 15t-14 35q0 19 14 33.5t35 14.5t35.5 -14.5t14.5 -33.5z"/>
<glyph glyph-name="oslash" horiz-adv-x="504" unicode="ø" d="M153 69l183 315l-7 8q-35 35 -80 35q-59 0 -93.5 -57.5t-34.5 -137.5q0 -106 32 -163zM346 369l-183 -316q3 -5 11 -13q34 -36 80 -36q58 0 93.5 58t35.5 140q0 106 -37 167zM125 20q-48 30 -75 81t-27 113q0 97 66.5 164t165.5 67q57 0 103 -23l93 161h19l-97 -168 q50 -29 79 -80t29 -114q0 -99 -66 -167t-166 -68q-61 0 -110 26l-81 -140h-19z"/>
<glyph glyph-name="ugrave" horiz-adv-x="494" unicode="ù" d="M274 497l-179 187h96l93 -187h-10zM345 -16v83h-2q-90 -81 -163 -81q-48 0 -80 30q-32 33 -32 104l1 279q0 8 -7.5 10t-41.5 5l-17 2l-3 15h154l-3 -286q0 -52 22 -74.5t68 -22.5q57 0 103 39v288q0 22 -9 29.5t-38 9.5l-21 2l-3 15h155v-361q0 -23 14 -27l54 -13l-1 -11 z"/>
<glyph glyph-name="uacute" horiz-adv-x="494" unicode="ú" d="M202 497l93 187h97l-179 -187h-11zM345 -16v83h-2q-90 -81 -163 -81q-48 0 -80 30q-32 33 -32 104l1 279q0 8 -7.5 10t-41.5 5l-17 2l-3 15h154l-3 -286q0 -52 22 -74.5t68 -22.5q57 0 103 39v288q0 22 -9 29.5t-38 9.5l-21 2l-3 15h155v-361q0 -23 14 -27l54 -13l-1 -11 z"/>
<glyph glyph-name="ucircumflex" horiz-adv-x="494" unicode="û" d="M103 489l133 194h15l133 -194h-12l-127 110h-2l-129 -110h-11zM345 -16v83h-2q-90 -81 -163 -81q-48 0 -80 30q-32 33 -32 104l1 279q0 8 -7.5 10t-41.5 5l-17 2l-3 15h154l-3 -286q0 -52 22 -74.5t68 -22.5q57 0 103 39v288q0 22 -9 29.5t-38 9.5l-21 2l-3 15h155v-361 q0 -23 14 -27l54 -13l-1 -11z"/>
<glyph glyph-name="udieresis" horiz-adv-x="494" unicode="ü" d="M342 520q-26 0 -40.5 17.5t-14.5 37.5q0 21 14.5 39.5t40.5 18.5q25 0 39.5 -18.5t14.5 -39.5t-14 -38t-40 -17zM156 520q-26 0 -40.5 17.5t-14.5 37.5q0 21 14.5 39.5t40.5 18.5q25 0 39.5 -18.5t14.5 -39.5t-14 -38t-40 -17zM345 -16v83h-2q-90 -81 -163 -81 q-48 0 -80 30q-32 33 -32 104l1 279q0 8 -7.5 10t-41.5 5l-17 2l-3 15h154l-3 -286q0 -52 22 -74.5t68 -22.5q57 0 103 39v288q0 22 -9 29.5t-38 9.5l-21 2l-3 15h155v-361q0 -23 14 -27l54 -13l-1 -11z"/>
<glyph glyph-name="yacute" horiz-adv-x="460" unicode="ý" d="M199 497l93 187h97l-179 -187h-11zM97 -258q-26 0 -44 15.5t-18 37.5q0 21 14 35.5t36 14.5q42 0 59 -43q25 7 52 84l36 108h-1l-164 364q-16 34 -24.5 43t-31.5 11l-20 3l-3 15h219l-3 -15l-19 -2q-32 -1 -32 -21q0 -11 7 -26l112 -259l75 208q16 48 16 64 q0 17 -11.5 24t-40.5 10l-18 2l-3 15h177l-3 -15l-19 -2q-30 -3 -41.5 -20t-38.5 -89l-111 -297l-42 -131q-22 -69 -48 -101.5t-67 -32.5z"/>
<glyph glyph-name="thorn" horiz-adv-x="493" unicode="þ" d="M260 7q53 0 85 55t32 137q0 78 -36 129.5t-95 51.5q-62 0 -109 -54v-228q19 -39 52.5 -65t70.5 -26zM-9 -251l3 15l21 1q40 3 40 17v797q0 17 -6.5 25t-25.5 13l-36 13l1 11l149 39v-324l3 -1q74 84 153 84q77 0 127 -59.5t50 -151.5q0 -109 -68.5 -175.5t-160.5 -66.5 q-55 0 -102 19h-2v-226q0 -12 48 -14l35 -1l3 -15h-232z"/>
<glyph glyph-name="OE" horiz-adv-x="936" unicode="Œ" d="M416 21h49v568l-68 17q-126 -1 -195 -81.5t-69 -199.5q0 -133 71.5 -218.5t211.5 -85.5zM398 0h-5q-171 0 -265.5 83.5t-94.5 217.5q0 141 100.5 232.5t286.5 91.5h437l10 -192h-18l-11 38q-11 33 -17.5 49t-21 36t-34 28.5t-52.5 15t-79 6.5h-76v-276l36 1q76 2 103 14 t40 52l11 30l15 -1l-21 -213l-15 1l-3 29q-3 42 -28 53.5t-108 14.5l-30 1v-290l89 -3q47 0 82 8t56.5 19t38.5 32t25.5 37t20.5 45l11 37l20 -1l-31 -196h-472z"/>
<glyph glyph-name="oe" horiz-adv-x="795" unicode="œ" d="M254 4q58 0 93.5 57t35.5 140q0 131 -52 189q-35 37 -82 37q-60 0 -93.5 -56.5t-34.5 -140.5q0 -132 53 -189q33 -37 80 -37zM478 296l197 2q1 56 -20 92.5t-62 36.5q-40 0 -73 -38t-42 -93zM249 -14q-99 0 -162.5 64.5t-63.5 161.5q0 98 66.5 165.5t165.5 67.5 q115 0 179 -85q65 85 172 85q74 0 117 -38.5t43 -102.5q0 -11 -3 -26q-283 2 -288 2q-2 -20 -2 -41q0 -85 44 -137.5t111 -52.5q84 0 132 71l11 -6q-71 -128 -187 -128q-93 0 -156 82q-67 -82 -179 -82z"/>
<glyph glyph-name="Scaron" horiz-adv-x="501" unicode="Š" d="M251 670l-133 194h11l129 -110h2l128 110h11l-133 -194h-15zM237 -14h-5q-78 0 -185 33l-7 158h17l32 -82q50 -90 154 -90q62 1 99.5 39.5t37.5 95.5t-36 88.5t-111 57.5q-85 30 -130 71t-45 111q0 67 53.5 118.5t146.5 52.5q62 0 132 -19l41 13l2 -174h-16l-54 125 q-54 35 -109 35q-52 0 -84.5 -31.5t-32.5 -77.5q0 -53 36 -82t107 -55q93 -34 139.5 -76.5t46.5 -117.5q0 -74 -64 -133.5t-165 -59.5z"/>
<glyph glyph-name="scaron" horiz-adv-x="371" unicode="š" d="M178 475l-133 194h11l129 -110h2l128 110h11l-133 -194h-15zM170 -14q-71 0 -132 23l-8 127l19 1l22 -58q40 -75 108 -75q40 0 66.5 23.5t26.5 59.5q0 34 -27.5 56t-79.5 41q-29 11 -47 20t-38 24.5t-29.5 37.5t-9.5 51q0 55 42 91.5t108 36.5q51 0 94 -17l32 11l5 -126 l-19 -1l-44 87q-34 28 -71 28t-58.5 -20t-21.5 -52q0 -34 23.5 -51.5t79.5 -38.5q64 -24 97.5 -53t33.5 -85q0 -58 -46 -99.5t-126 -41.5z"/>
<glyph glyph-name="Ydieresis" horiz-adv-x="618" unicode="Ÿ" d="M220 687q-26 0 -40.5 17.5t-14.5 37.5q0 21 14.5 39.5t40.5 18.5q25 0 39.5 -18.5t14.5 -39.5t-14 -38t-40 -17zM406 687q-26 0 -40.5 17.5t-14.5 37.5q0 21 14.5 39.5t40.5 18.5q25 0 39.5 -18.5t14.5 -39.5t-14 -38t-40 -17zM163 0l3 15l53 4q44 4 44 17v238l-156 269 q-20 34 -36 47.5t-43 15.5l-30 4l-3 15h273l-3 -15l-28 -2q-40 -3 -40 -25q0 -16 27 -64l119 -211h2l94 174q36 67 36 90q0 28 -48 35l-23 3l-3 15h210l-3 -15l-23 -3q-31 -5 -56 -28.5t-61 -90.5l-110 -199v-256q0 -6 9.5 -9t42.5 -6l45 -3l3 -15h-295z"/>
<glyph glyph-name="circumflex" d="M49 489l133 194h15l133 -194h-12l-127 110h-2l-129 -110h-11z" unicode="ˆ"/>
<glyph glyph-name="tilde" d="M264 504q-34 0 -92.5 32.5t-75.5 32.5q-20 0 -31.5 -11t-17.5 -46h-12q8 60 25.5 85.5t54.5 25.5q33 0 92 -32.5t76 -32.5q20 0 31.5 11t17.5 46h12q-7 -59 -25 -85t-55 -26z" unicode="˜"/>
<glyph glyph-name="thinspace" horiz-adv-x="60" unicode=" "/>
<glyph glyph-name="endash" horiz-adv-x="439" unicode="–" d="M11 212l3 44h413l-1 -44h-415z"/>
<glyph glyph-name="emdash" horiz-adv-x="909" unicode="—" d="M11 212l3 44h884l-1 -44h-886z"/>
<glyph glyph-name="quoteleft" horiz-adv-x="196" unicode="‘" d="M109 402q-35 0 -59.5 25t-24.5 64q0 48 37.5 91.5t100.5 71.5l10 -8q-35 -19 -59 -50.5t-24 -64.5q0 -18 8.5 -31.5t20.5 -20.5t24 -11.5t20.5 -6t8.5 -2.5q0 -23 -16.5 -40t-46.5 -17z"/>
<glyph glyph-name="quotesinglbase" horiz-adv-x="196" unicode="‚" d="M35 -134l-11 8q35 18 59 49.5t24 64.5q0 18 -8.5 31.5t-20.5 20.5t-23.5 11.5t-20 6t-8.5 2.5q0 23 16.5 40.5t46.5 17.5q34 0 58.5 -25.5t24.5 -64.5q0 -48 -37.5 -91t-99.5 -71z"/>
<glyph glyph-name="quotedblleft" d="M109 402q-35 0 -59.5 25t-24.5 64q0 48 37.5 91.5t100.5 71.5l10 -8q-35 -19 -59 -50.5t-24 -64.5q0 -18 8.5 -31.5t20.5 -20.5t24 -11.5t20.5 -6t8.5 -2.5q0 -23 -16.5 -40t-46.5 -17zM296 402q-35 0 -59 25t-24 64q0 48 37.5 91t99.5 72l11 -8q-35 -19 -59.5 -50.5 t-24.5 -64.5q0 -18 8.5 -31.5t20.5 -20.5t24 -11.5t20.5 -6t8.5 -2.5q0 -23 -16.5 -40t-46.5 -17z" unicode="“"/>
<glyph glyph-name="quotedblright" d="M35 401l-11 8q35 18 59 49.5t24 64.5q0 18 -8.5 31.5t-20.5 20.5t-23.5 11.5t-20 6t-8.5 2.5q0 23 16.5 40.5t46.5 17.5q34 0 58.5 -25.5t24.5 -64.5q0 -48 -37.5 -91t-99.5 -71zM222 401l-10 8q35 18 59 49.5t24 64.5q0 18 -8.5 31.5t-20.5 20.5t-24 11.5t-20.5 6 t-8.5 2.5q0 23 16.5 40.5t46.5 17.5q35 0 59.5 -25.5t24.5 -64.5q0 -48 -37.5 -91t-100.5 -71z" unicode="”"/>
<glyph glyph-name="dagger" horiz-adv-x="444" unicode="†" d="M213 -156v563h-196l-1 19h197v199h19v-199h198l-2 -19h-196v-563h-19z"/>
<glyph glyph-name="daggerdbl" horiz-adv-x="444" unicode="‡" d="M213 -156v187h-197l1 20h196v366h-196l-1 20h197v188h19v-188h198l-2 -20h-196v-366h196l2 -20h-198v-187h-19z"/>
<glyph glyph-name="ellipsis" horiz-adv-x="631" unicode="…" d="M99 -13q-27 0 -45 18.5t-18 43.5q0 24 18 42t45 18t44.5 -17.5t17.5 -42.5t-18 -43.5t-44 -18.5zM316 -13q-27 0 -45 18.5t-18 43.5q0 24 18 42t45 18t44.5 -17.5t17.5 -42.5t-17.5 -43.5t-44.5 -18.5zM534 -13q-27 0 -45 18.5t-18 43.5q0 24 18 42t45 18q26 0 44 -17.5 t18 -42.5t-18 -43.5t-44 -18.5z"/>
<glyph glyph-name="perthousand" horiz-adv-x="924" unicode="‰" d="M442 4q52 0 85 35.5t33 87.5q0 49 -31.5 82t-80.5 33q-52 0 -85 -36.5t-33 -87.5q0 -50 31 -82t81 -32zM757 4q52 0 85.5 35.5t33.5 87.5q0 49 -31.5 82t-81.5 33q-52 0 -85 -36.5t-33 -87.5q0 -50 31 -82t81 -32zM199 384q52 0 85 35t33 86q0 50 -31 83.5t-81 33.5 q-52 0 -85 -36.5t-33 -87.5q0 -50 31 -82t81 -32zM440 -16q-59 0 -96 37.5t-37 94.5q0 61 40 103.5t102 42.5q59 0 96.5 -38.5t37.5 -95.5q0 -60 -40 -102t-103 -42zM756 -16q-60 0 -96.5 37.5t-36.5 94.5q0 61 39.5 103.5t101.5 42.5q59 0 96.5 -38.5t37.5 -95.5 q0 -60 -40 -102t-102 -42zM10 -14l598 654h26l-597 -654h-27zM198 364q-59 0 -96.5 38t-37.5 95q0 60 40 102.5t102 42.5q60 0 97.5 -38.5t37.5 -95.5q0 -60 -40 -102t-103 -42z"/>
<glyph glyph-name="guilsinglleft" horiz-adv-x="269" unicode="‹" d="M237 47l-217 165v19l217 166l5 -9l-133 -166l133 -166z"/>
<glyph glyph-name="guilsinglright" horiz-adv-x="269" unicode="›" d="M34 47l-6 9l133 166l-133 166l6 9l217 -166v-19z"/>
<glyph glyph-name="fraction" horiz-adv-x="479" unicode="⁄" d="M-8 -14l468 654h27l-468 -654h-27z"/>
<glyph glyph-name="Euro" horiz-adv-x="502" unicode="€" d="M303 -14q-84 0 -149.5 64t-82.5 170h-64l3 19h58q-3 33 -3 55q0 31 4 54h-62l3 19h62q22 121 101.5 192.5t175.5 71.5q62 0 99.5 -21t37.5 -56q0 -20 -14.5 -34t-35.5 -14q-26 0 -40 18.5t-14 42.5q0 12 3 21q-27 21 -51 21q-71 0 -120 -66.5t-59 -175.5h200l3 -19h-204 v-34q0 -39 4 -75h197l3 -19h-195q17 -81 67 -126.5t111 -45.5q92 0 147 80l12 -7q-76 -135 -197 -135z"/>
<glyph glyph-name="trademark" horiz-adv-x="559" unicode="™" d="M71 403l2 11l21 2q12 1 12 7v191h-7q-41 -1 -64 -57l-4 -9h-9l7 77h201l4 -76h-10l-3 9q-12 30 -25.5 43t-38.5 13h-8v-192q0 -4 14 -6l18 -2l1 -11h-111zM255 403l2 11l12 1q13 1 16.5 8.5t3.5 37.5l4 140q-4 10 -15 11l-16 3l-1 10h84l49 -162h4l56 162h86l-1 -10 l-18 -3q-13 -1 -13 -7l3 -168q1 -9 2.5 -13t4 -5.5t9.5 -2.5l15 -2l1 -11h-105v11l18 2q11 2 10 22l-2 165h-4l-71 -196h-17l-63 193q-3 -1 -4 0l-3 -141v-11q0 -20 3.5 -25.5t16.5 -7.5l13 -1l1 -11h-81z"/>
<glyph glyph-name="minus" horiz-adv-x="448" unicode="−" d="M410 225h-372l3 22h366z"/>
<glyph glyph-name="approxequal" horiz-adv-x="448" unicode="≈" d="M411 367h22q-17 -94 -106 -94q-33 0 -104 33.5t-102 33.5q-34 0 -54.5 -15t-29.5 -57h-22q17 94 106 94q33 0 104 -33.5t102 -33.5q36 0 55.5 15t28.5 57zM411 203h22q-17 -94 -106 -94q-33 0 -104 33.5t-102 33.5q-34 0 -54.5 -15t-29.5 -57h-22q17 94 106 94 q33 0 104 -33.5t102 -33.5q36 0 55.5 15t28.5 57z"/>
<glyph glyph-name="notequal" horiz-adv-x="448" unicode="≠" d="M29 311l-3 22h215l43 150h23l-43 -150h158l-3 -22h-161l-43 -151h204l3 -22h-213l-45 -160h-23l45 160h-160l3 22h163l43 151h-206z"/>
<glyph glyph-name="lessequal" horiz-adv-x="438" unicode="≤" d="M409 87l-396 173v14l396 173l8 -20l-366 -157v-4l366 -159zM418 27h-405l3 22h399z"/>
<glyph glyph-name="greaterequal" horiz-adv-x="438" unicode="≥" d="M425 260l-396 -173l-8 20l366 159v4l-366 157l8 20l396 -173v-14zM425 27h-405l3 22h399z"/>
</font>
</defs>
</svg>
