<?xml version="1.0" encoding="UTF-8" standalone="no"?>
<!DOCTYPE svg  PUBLIC '-//W3C//DTD SVG 1.1//EN'  'http://www.w3.org/Graphics/SVG/1.1/DTD/svg11.dtd'>
<svg xmlns="http://www.w3.org/2000/svg">
<defs>
<font id="FreightTextProMedium-Regular" horiz-adv-x="480">
<font-face underline-position="-113" font-weight="500" descent="-200" panose-1="2 0 6 3 7 0 0 2 0 4" units-per-em="1000" unicode-range="U+0020-2265" bbox="-67 -270 1109 864" x-height="448" underline-thickness="20" font-family="FreightTextProMedium" ascent="800" cap-height="625"/>
<missing-glyph horiz-adv-x="1000"/>
<glyph glyph-name=".notdef" horiz-adv-x="1000"/>
<glyph glyph-name=".null" horiz-adv-x="0"/>
<glyph glyph-name="nonmarkingreturn" horiz-adv-x="333"/>
<glyph glyph-name="space" horiz-adv-x="228" unicode=" "/>
<glyph glyph-name="exclam" horiz-adv-x="284" unicode="!" d="M202 45q0 -25 -16.5 -42.5t-42.5 -17.5t-43.5 18t-17.5 42t17.5 41t43.5 17t42.5 -17t16.5 -41zM195 596l-42 -400q0 -6 -10 -6t-10 6l-42 400q0 2 -0.5 4t-0.5 4q0 35 52 35h2q52 0 52 -35q0 -2 -0.5 -4t-0.5 -4z"/>
<glyph glyph-name="quotedbl" horiz-adv-x="370" unicode='&quot;' d="M202 618l-151 -215h-38l107 243h2zM364 618l-151 -215h-37l107 243h1z"/>
<glyph glyph-name="numbersign" horiz-adv-x="566" unicode="#" d="M348 218l50 186h-170l-51 -186h171zM576 404h-139l-50 -186h129v-38h-139l-50 -186h-39l50 186h-171l-50 -186h-39l50 186h-128v38h138l50 186h-128v38h138l52 189h39l-51 -189h170l51 189h39l-51 -189h129v-38z"/>
<glyph glyph-name="dollar" horiz-adv-x="510" unicode="$" d="M250 380l56 208q-32 7 -51 7q-53 0 -81.5 -28t-28.5 -68q0 -45 27 -71.5t78 -47.5zM261 276q-65 -240 -65 -241q33 -7 56 -7h8q61 1 96 34t35 77q0 29 -9.5 51t-30 38t-39.5 25.5t-51 22.5zM183 -12l-41 -154h-39l43 159q-35 6 -79 22l-14 178h37l45 -137q7 -4 25 -10 l66 244q-37 15 -60.5 27.5t-49 33.5t-38 50t-12.5 67q0 69 51.5 119.5t152.5 51.5q35 0 49 -1l27 100h39l-28 -104l30 -6l52 14v-199h-39l-29 124q-16 7 -29 11l-57 -212q37 -15 55 -23t48.5 -26t45 -36t26.5 -46.5t12 -63.5q0 -74 -63 -129.5t-168 -56.5q-29 0 -58 3z"/>
<glyph glyph-name="percent" horiz-adv-x="746" unicode="%" d="M680 142q0 49 -32 84.5t-85 35.5t-85 -35.5t-32 -84.5q0 -52 32 -87t85 -35t85 35t32 87zM300 482q0 52 -32 87t-85 35t-85 -35t-32 -87q0 -49 32 -84.5t85 -35.5t85 35.5t32 84.5zM729 142q0 -70 -45.5 -118.5t-120.5 -48.5t-120.5 48t-45.5 119q0 69 45.5 117t120.5 48 q74 0 120 -48t46 -117zM654 639l-507 -654h-54l507 654h54zM349 482q0 -69 -45.5 -117t-120.5 -48q-74 0 -120 48t-46 117q0 70 45.5 118.5t120.5 48.5t120.5 -48t45.5 -119z"/>
<glyph glyph-name="ampersand" horiz-adv-x="695" unicode="&amp;" d="M396 144q-31 65 -77.5 101t-122.5 68q-90 -57 -90 -135q0 -51 41.5 -88t98.5 -37q86 0 150 91zM341 494q0 41 -25 72.5t-69 31.5q-46 0 -74 -27t-28 -68q0 -48 28.5 -80.5t89.5 -57.5q78 39 78 129zM696 54q-67 -70 -134 -70q-53 0 -85 29t-62 90q-39 -50 -95 -84 t-117 -34q-83 0 -131 48t-48 115q0 60 39 109t103 76q-46 21 -70.5 57.5t-24.5 82.5q0 69 54.5 117.5t134.5 48.5q74 0 119 -39.5t45 -91.5q0 -105 -127 -160q103 -49 154 -136q59 80 59 105q0 18 -29 23l-20 3l-2 34h217l-4 -34l-21 -5q-68 -17 -107 -69l-71 -94 q34 -71 60.5 -97t66.5 -26q30 0 80 29z"/>
<glyph glyph-name="quotesingle" horiz-adv-x="208" unicode="&apos;" d="M202 618l-151 -215h-38l108 243h1z"/>
<glyph glyph-name="parenleft" horiz-adv-x="395" unicode="(" d="M358 -254q-43 21 -87 61.5t-85.5 97.5t-67.5 137t-26 167t26 167t67.5 137t85.5 97.5t87 61.5l26 -35q-89 -48 -164.5 -164.5t-75.5 -263.5t75.5 -263.5t164.5 -163.5z"/>
<glyph glyph-name="parenright" horiz-adv-x="395" unicode=")" d="M38 -254l-27 35q89 48 164.5 164.5t75.5 263.5t-75.5 263.5t-164.5 164.5l27 35q43 -21 86.5 -61t85 -97.5t67.5 -137.5t26 -167t-26 -167t-67.5 -137.5t-85 -97.5t-86.5 -61z"/>
<glyph glyph-name="asterisk" horiz-adv-x="349" unicode="*" d="M344 463l-53 -30l-92 34l-10 -13l60 -76l-11 -61l-21 -6l-45 43l4 97l-15 4l-52 -78l-62 -10l-14 18l28 58l91 24v18l-91 26l-29 56l13 18l64 -9l52 -81l16 5l-2 97l43 42l22 -7l11 -61l-62 -76l10 -13l92 33l53 -30v-22z"/>
<glyph glyph-name="plus" d="M449 208h-182v-185h-53v185h-183l3 53h180v184h53v-184h179z" unicode="+"/>
<glyph glyph-name="comma" horiz-adv-x="232" unicode="," d="M203 23q0 -57 -39.5 -104t-103.5 -95l-26 16q34 25 60 60t26 71q0 17 -8 31.5t-20 23.5t-23.5 15.5t-19.5 10t-8 4.5q0 26 19 43.5t51 17.5q34 0 63 -27.5t29 -66.5z"/>
<glyph glyph-name="hyphen" horiz-adv-x="328" unicode="-" d="M297 208h-264l3 53h258z"/>
<glyph glyph-name="period" horiz-adv-x="234" unicode="." d="M184 52q0 -27 -19 -47t-47 -20q-29 0 -48.5 20t-19.5 47t19.5 46t48.5 19t47.5 -19t18.5 -46z"/>
<glyph glyph-name="slash" horiz-adv-x="279" unicode="/" d="M7 -212l215 877h48l-215 -877h-48z"/>
<glyph glyph-name="zero" horiz-adv-x="558" unicode="0" d="M458 233q0 83 -50.5 136t-129.5 53t-128.5 -52t-49.5 -135t50.5 -136t129.5 -53t128.5 52t49.5 135zM521 235q0 -111 -68 -180.5t-175 -69.5t-174 68.5t-67 179.5t68 180.5t175 69.5t174 -68.5t67 -179.5z"/>
<glyph glyph-name="one" horiz-adv-x="379" unicode="1" d="M329 0h-265l3 35l64 11q23 7 23 23v339l-110 9l3 30l188 32v-410q0 -19 23 -23l68 -11z"/>
<glyph glyph-name="two" horiz-adv-x="468" unicode="2" d="M443 161l-11 -161h-396l-5 58q145 108 188 153q58 60 58 105q0 42 -28.5 68.5t-76.5 26.5q-31 0 -60 -19.5t-47 -44.5l-20 11q21 59 68.5 92t108.5 33t105 -37.5t44 -94.5q0 -34 -12 -62t-54.5 -66.5t-68.5 -57.5t-109 -77l-21 -15v-5h44q143 0 183 9t58 45l19 39h33z "/>
<glyph glyph-name="three" horiz-adv-x="423" unicode="3" d="M221 187v-2q74 -2 122 -43t48 -111q0 -91 -78 -161.5t-179 -70.5q-53 0 -88 21.5t-35 51.5q0 21 14.5 35t34.5 14q28 0 50.5 -23t27.5 -53q9 -2 26 -2q53 0 95.5 40t42.5 103t-36.5 101t-94.5 38q-42 0 -80 -17l-11 27q9 6 44 28t50 33t38.5 31.5t33.5 41t10 42.5 q0 42 -28 71t-73 29q-65 0 -111 -64q-9 2 -20 11q21 59 71 92t115 33q63 0 103 -36.5t40 -90.5q0 -48 -31 -88.5t-101 -80.5z"/>
<glyph glyph-name="four" horiz-adv-x="479" unicode="4" d="M286 88v272h-3l-209 -272h212zM475 20h-108v-204h-81v204h-278l-3 34l325 424h37v-390h115z"/>
<glyph glyph-name="five" horiz-adv-x="425" unicode="5" d="M111 254q266 -73 266 -229q0 -93 -73.5 -159.5t-171.5 -66.5q-53 0 -87.5 19.5t-34.5 49.5q0 21 14.5 35t34.5 14q28 0 50 -21.5t27 -50.5q9 -2 26 -2q61 0 101 41t40 103q0 131 -256 199l72 282h271l-3 -83h-242z"/>
<glyph glyph-name="six" horiz-adv-x="511" unicode="6" d="M384 171q0 71 -38 118t-95 47q-65 0 -113 -48q-9 -9 -9 -59q0 -82 39 -144t103 -62q53 0 83 43.5t30 104.5zM468 199q0 -98 -62.5 -158t-157.5 -60q-98 0 -153.5 73.5t-55.5 174.5q0 112 62 208t161 152t210 63l3 -32q-136 -18 -219 -96.5t-114 -191.5l1 -1q65 58 144 58 q83 0 132 -54.5t49 -135.5z"/>
<glyph glyph-name="seven" horiz-adv-x="467" unicode="7" d="M446 422l-312 -606h-55l300 571v5h-150h-26q-77 0 -93 -3.5t-24 -21.5l-28 -60h-33l20 161h396z"/>
<glyph glyph-name="eight" horiz-adv-x="498" unicode="8" d="M384 124q0 15 -3 28.5t-10.5 26t-13.5 22t-20.5 20.5t-21.5 16.5t-27 16.5t-26.5 14.5t-30 14.5t-28.5 14q-82 -63 -82 -149q0 -55 39.5 -92.5t99.5 -37.5q57 0 90.5 30.5t33.5 75.5zM352 481q0 49 -32.5 89t-84.5 40q-46 0 -74.5 -31t-28.5 -74q0 -23 9.5 -43.5 t20.5 -34t36.5 -30t39.5 -24t47 -23.5q67 46 67 131zM458 158q0 -73 -60 -123t-159 -50q-82 0 -140.5 46t-58.5 117q0 55 37.5 96.5t99.5 65.5v1q-57 31 -88.5 67.5t-31.5 91.5q0 64 53 117t144 53q74 0 126 -45t52 -114q0 -93 -118 -145v-1q69 -35 106.5 -74t37.5 -103z "/>
<glyph glyph-name="nine" horiz-adv-x="511" unicode="9" d="M381 240q0 82 -39 144t-103 62q-53 0 -83 -43.5t-30 -104.5q0 -71 38 -118t95 -47q65 0 113 48q9 9 9 59zM471 240q0 -112 -62 -208t-161 -152t-210 -63l-3 32q136 18 219 96.5t114 191.5l-1 1q-65 -58 -144 -58q-83 0 -132 54.5t-49 135.5q0 98 62.5 158t157.5 60 q98 0 153.5 -73.5t55.5 -174.5z"/>
<glyph glyph-name="colon" horiz-adv-x="232" unicode=":" d="M184 52q0 -27 -19 -47t-47 -20q-29 0 -48.5 20t-19.5 47t19.5 46t48.5 19t47.5 -19t18.5 -46zM184 358q0 -27 -19 -47t-47 -20q-29 0 -48.5 20t-19.5 47t19.5 46t48.5 19t47.5 -19t18.5 -46z"/>
<glyph glyph-name="semicolon" horiz-adv-x="232" unicode=";" d="M203 23q0 -57 -39.5 -104t-103.5 -95l-26 16q34 25 60 60t26 71q0 17 -8 31.5t-20 23.5t-23.5 15.5t-19.5 10t-8 4.5q0 26 19 43.5t51 17.5q34 0 63 -27.5t29 -66.5zM184 358q0 -27 -19 -47t-47 -20q-29 0 -48.5 20t-19.5 47t19.5 46t48.5 19t47.5 -19t18.5 -46z"/>
<glyph glyph-name="less" d="M430 33l-402 189v26l402 189l13 -49l-324 -151v-3l324 -152z" unicode="&lt;"/>
<glyph glyph-name="equal" d="M439 121h-398l3 53h392zM436 295h-392l-3 53h398z" unicode="="/>
<glyph glyph-name="greater" d="M452 222l-402 -189l-13 49l324 152v3l-324 151l13 49l402 -189v-26z" unicode="&gt;"/>
<glyph glyph-name="question" horiz-adv-x="363" unicode="?" d="M214 45q0 -25 -16.5 -42.5t-42.5 -17.5t-43.5 18t-17.5 42t17.5 41t43.5 17t42.5 -17t16.5 -41zM325 470q0 -57 -25 -82.5t-83 -48.5q-56 -22 -70 -37q-13 -14 -13 -34q0 -36 46 -82h-30q-68 56 -68 112q0 47 27.5 70t87.5 47q32 13 44.5 18.5t27 18.5t14.5 28 q0 33 -44 55t-110 22q-27 0 -67 -7q-11 14 -11 33q0 24 22 40t58 16q79 0 136.5 -51.5t57.5 -117.5z"/>
<glyph glyph-name="at" horiz-adv-x="834" unicode="@" d="M513 353q-10 21 -39.5 43.5t-59.5 22.5q-24 0 -36 -12q-26 -26 -52 -109.5t-26 -138.5q0 -26 17 -40.5t34 -14.5q18 0 60.5 61.5t85.5 138.5q16 29 16 49zM481 133l27 114h-14q-103 -196 -170 -196q-40 0 -71.5 30.5t-31.5 62.5q0 59 35 143.5t79 128.5q52 52 108 52 q32 0 57.5 -19t35.5 -54h11l22 59h53l-58 -163l-18 -163q-1 -4 -1 -13q0 -39 53 -39q64 0 109.5 57t52.5 150q1 8 1 23q0 124 -89.5 206t-223.5 87h-11q-134 0 -235 -96.5t-110 -232.5q-1 -9 -1 -27q0 -144 92.5 -236.5t224.5 -92.5q57 0 123 19l11 -36q-69 -23 -136 -23 q-150 0 -254.5 103.5t-104.5 264.5q0 19 1 29q10 154 123.5 260.5t265.5 106.5h13q152 -5 253.5 -98t101.5 -234q0 -17 -1 -25q-8 -113 -73.5 -178t-148.5 -65q-106 0 -106 64q0 16 5 31z"/>
<glyph glyph-name="A" horiz-adv-x="600" unicode="A" d="M365 267l-83 269h-6l-90 -269h179zM616 0h-272l3 35l49 8q15 3 21 8t6 17q0 17 -20 79l-25 78h-206l-24 -77q-22 -60 -22 -79q0 -21 24 -26l40 -8l3 -35h-209l3 35l28 7q23 5 36.5 19t31 53t49.5 129l116 325v36l90 42l189 -576q7 -20 32 -24l54 -11z"/>
<glyph glyph-name="B" horiz-adv-x="582" unicode="B" d="M419 460q0 59 -37.5 93t-113.5 34h-53v-247l67 1q70 1 103.5 37t33.5 82zM447 161q0 68 -50 104t-133 36h-49v-248l69 -15l24 1q57 2 98 34t41 88zM549 169q0 -81 -67 -125t-184 -44h-257l3 35l41 5q35 4 35 18v511q0 7 -6.5 10t-28.5 6l-41 5l-3 35h262q117 0 168.5 -38 t51.5 -100q0 -60 -43.5 -104.5t-113.5 -55.5v-5q93 -8 138 -51t45 -102z"/>
<glyph glyph-name="C" horiz-adv-x="682" unicode="C" d="M620 193l-22 -193l-51 9q-68 -24 -152 -24q-152 0 -250.5 85.5t-98.5 235.5q0 153 100 243t252 90q78 0 138 -20l80 15v-205h-46l-27 128q-67 40 -150 40q-107 0 -174 -78.5t-67 -199.5q0 -133 67 -213.5t187 -80.5q69 0 123 30l43 138h48z"/>
<glyph glyph-name="D" horiz-adv-x="687" unicode="D" d="M539 302q0 130 -76.5 207.5t-217.5 77.5h-30v-533l72 -15q118 0 185 74t67 189zM642 328q0 -141 -98 -234.5t-278 -93.5h-225l3 35l41 5q35 4 35 18v511q0 7 -6.5 10t-28.5 6l-41 5l-3 35l229 3h8q163 0 263.5 -84.5t100.5 -215.5z"/>
<glyph glyph-name="E" horiz-adv-x="594" unicode="E" d="M550 181l-19 -181h-490l3 35l41 5q35 4 35 18v511q0 7 -6.5 10t-28.5 6l-41 5l-3 35h491v-186h-48l-24 97q-7 25 -21 34t-51.5 12.5t-136.5 3.5h-36v-249h27q59 0 76 3.5t22 18.5l23 67h39l-21 -215h-38l-8 64q-2 15 -18 19.5t-78 4.5h-24v-260h28q104 0 147 4t58 13 t24 33l24 92h54z"/>
<glyph glyph-name="F" horiz-adv-x="564" unicode="F" d="M521 439h-48l-22 97q-5 16 -10.5 23.5t-15.5 14t-35.5 8.5t-56.5 3t-93 1h-25v-255h38q59 0 76 3.5t23 18.5l23 67h39l-22 -215h-37l-8 64q-2 15 -18.5 19.5t-77.5 4.5h-36v-237q0 -12 35 -16l61 -5l3 -35h-273l3 35l41 5q35 4 35 18v511q0 7 -6.5 10t-28.5 6l-41 5 l-3 35h480v-186z"/>
<glyph glyph-name="G" horiz-adv-x="716" unicode="G" d="M694 277l-3 -35l-43 -5q-35 -4 -35 -18v-150l60 -6l2 -27q-144 -51 -280 -51q-152 0 -250.5 86t-98.5 235q0 153 105 243t257 90q78 0 136 -20l80 15v-205h-47l-27 128q-63 40 -150 40q-106 0 -177 -79t-71 -199q0 -133 65 -213.5t181 -80.5q68 0 122 25v171q0 7 -7 10.5 t-28 5.5l-51 5l-3 35h263z"/>
<glyph glyph-name="H" horiz-adv-x="737" unicode="H" d="M696 0h-253l3 35l41 5q35 4 35 18v241h-307v-243q0 -12 35 -16l41 -5l3 -35h-253l3 35l41 5q35 4 35 18v511q0 7 -6.5 10t-28.5 6l-41 5l-3 35h253l-3 -35l-41 -5q-35 -4 -35 -18v-226h307v228q0 7 -7 10.5t-28 5.5l-41 5l-3 35h253l-3 -35l-41 -5q-35 -4 -35 -18v-511 q0 -7 6.5 -10t28.5 -6l41 -5z"/>
<glyph glyph-name="I" horiz-adv-x="360" unicode="I" d="M317 0h-273l3 35l51 5q35 4 35 18v511q0 7 -6.5 10t-28.5 6l-51 5l-3 35h273l-3 -35l-51 -5q-35 -4 -35 -18v-511q0 -12 35 -16l51 -5z"/>
<glyph glyph-name="J" horiz-adv-x="406" unicode="J" d="M384 625l-3 -35l-50 -5q-35 -4 -35 -18v-306q0 -135 -49 -205.5t-140 -70.5q-44 0 -72.5 18.5t-28.5 45.5q0 21 13.5 33.5t36.5 12.5q26 0 49 -21q17 -17 28 -54h1q24 8 37 24t21.5 63.5t8.5 134.5v327q0 7 -7 10.5t-28 5.5l-61 5l-3 35h282z"/>
<glyph glyph-name="K" horiz-adv-x="639" unicode="K" d="M635 0h-234l3 35l34 7q6 2 6 8q0 9 -8 20l-161 235l-60 -57v-192q0 -12 35 -16l41 -5l3 -35h-253l3 35l41 5q35 4 35 18v511q0 7 -6.5 10t-28.5 6l-41 5l-3 35h253l-3 -35l-41 -5q-35 -4 -35 -18v-263l184 179q59 58 59 81q0 18 -30 21l-41 5l-3 35h253l-3 -35l-34 -5 q-24 -4 -45.5 -17.5t-56.5 -48.5l-159 -156l203 -279q19 -26 30 -34t31 -11l29 -4z"/>
<glyph glyph-name="L" horiz-adv-x="574" unicode="L" d="M538 200l-22 -200h-475l3 35l41 5q35 4 35 18v511q0 7 -6.5 10t-28.5 6l-41 5l-3 35h262l-3 -35l-50 -5q-35 -4 -35 -18v-528h31q94 0 133.5 4t54.5 13t23 33l29 111h52z"/>
<glyph glyph-name="M" horiz-adv-x="855" unicode="M" d="M824 0h-265l3 35l56 7q22 3 22 103q0 18 -2 94l-12 323h-7l-194 -542h-48l-189 520h-12l-13 -297q-5 -118 -5 -146q0 -33 3.5 -43.5t13.5 -11.5l57 -7l3 -35h-217l3 35l56 7q11 2 17.5 13t12.5 55.5t11 132.5l13 246v16q0 64 -40 74l-60 11l-3 35h228l169 -468h5l164 468 h221l-3 -35l-68 -6q-24 -3 -24 -29l12 -316q4 -119 10.5 -157t22.5 -40l56 -7z"/>
<glyph glyph-name="N" horiz-adv-x="752" unicode="N" d="M719 625l-3 -35l-47 -8q-17 -3 -24.5 -8t-13 -27.5t-6.5 -56.5t-1 -108v-391h-51l-395 539h-5v-287q0 -74 1 -108t6.5 -56.5t12.5 -27.5t24 -8l48 -8l3 -35h-229l3 35l47 8q17 3 24.5 8t13 27.5t6.5 56.5t1 108v246q0 42 -9.5 63t-33.5 31l-47 7l-3 35h181l357 -489h5 v246q0 136 -6.5 165.5t-37.5 34.5l-48 8l-3 35h230z"/>
<glyph glyph-name="O" horiz-adv-x="745" unicode="O" d="M593 304q0 133 -65 214.5t-158 81.5t-155.5 -75.5t-62.5 -206.5q0 -134 64.5 -215.5t157.5 -81.5t156 76t63 207zM699 315q0 -136 -95.5 -233.5t-232.5 -97.5q-140 0 -232.5 90.5t-92.5 231.5q0 136 95.5 234t232.5 98q140 0 232.5 -90.5t92.5 -232.5z"/>
<glyph glyph-name="P" horiz-adv-x="573" unicode="P" d="M440 438q0 68 -39 108t-105 40h-81v-287q36 -9 76 -9q66 0 107.5 40t41.5 108zM542 458q0 -99 -69.5 -152.5t-175.5 -53.5q-28 0 -82 4v-200q0 -12 35 -16l60 -5l3 -35h-272l3 35l41 5q35 4 35 18v511q0 7 -6.5 10t-28.5 6l-41 5l-3 35h257q117 0 180.5 -47.5 t63.5 -119.5z"/>
<glyph glyph-name="Q" horiz-adv-x="745" unicode="Q" d="M593 304q0 133 -65 214.5t-158 81.5t-155.5 -75.5t-62.5 -206.5q0 -134 64.5 -215.5t157.5 -81.5t156 76t63 207zM754 -160q-56 -20 -130 -20q-101 0 -161 38t-105 126q-136 4 -224 93.5t-88 228.5q0 136 95.5 234t232.5 98q140 0 232.5 -90.5t92.5 -232.5 q0 -111 -64.5 -198.5t-166.5 -118.5q41 -71 95 -100t127 -29q19 0 61 4z"/>
<glyph glyph-name="R" horiz-adv-x="605" unicode="R" d="M425 452q0 133 -130 133q-3 0 -8 -0.5t-8 -0.5l-64 -2v-262l71 -6q65 5 102 39.5t37 98.5zM386 298l128 -198q24 -34 36.5 -44.5t28.5 -13.5l31 -7l4 -35h-161l-38 69l-120 210l-80 -3v-220q0 -12 35 -16l49 -5l3 -35h-261l3 35l41 5q35 4 35 18v511q0 7 -6.5 10t-28.5 6 l-41 5l-3 35h259q115 0 172 -41t57 -113q0 -62 -38.5 -106t-104.5 -67z"/>
<glyph glyph-name="S" horiz-adv-x="517" unicode="S" d="M472 171q0 -74 -64 -129.5t-170 -56.5h-8q-79 0 -169 30l-14 178h42l45 -137q62 -29 118 -29h4q61 1 95.5 34t34.5 78q0 26 -9 47t-20.5 33.5t-36 26.5t-39.5 20t-49 19q-33 13 -53 22t-45.5 25.5t-40 33.5t-24.5 43.5t-10 58.5q0 69 53 119.5t155 51.5h12q53 0 108 -11 l52 14v-199h-42l-31 128q-56 24 -113 24q-53 0 -82 -28t-29 -68q0 -19 4 -34.5t17 -29.5t19 -21t31 -19t30 -14t37 -15q8 -3 12 -5q34 -13 55 -22.5t48 -26.5t41.5 -34.5t25 -45t10.5 -61.5z"/>
<glyph glyph-name="T" horiz-adv-x="619" unicode="T" d="M584 429h-48l-23 97q-7 25 -16.5 35.5t-41 17t-96.5 7.5h-2v-530q0 -12 35 -16l60 -5l3 -35h-291l3 35l60 5q35 4 35 18v528h-2q-94 0 -121 -8.5t-37 -41.5l-28 -107h-50l17 196h543v-196z"/>
<glyph glyph-name="U" horiz-adv-x="714" unicode="U" d="M690 625l-3 -35l-47 -8q-17 -3 -24.5 -8t-13 -27.5t-6.5 -56.5t-1 -108v-178q0 -101 -64.5 -160t-176.5 -59q-114 0 -176.5 56.5t-62.5 167.5v360q0 7 -6.5 10t-28.5 6l-41 5l-3 35h253l-3 -35l-41 -5q-35 -4 -35 -18v-336q0 -190 179 -190q78 0 122 46t44 127v168 q0 136 -6.5 165.5t-37.5 34.5l-48 8l-3 35h230z"/>
<glyph glyph-name="V" horiz-adv-x="626" unicode="V" d="M643 625l-3 -35l-28 -7q-35 -8 -53.5 -39.5t-64.5 -161.5l-135 -383h-94l-193 556q-7 20 -31 24l-55 11l-3 35h272l-3 -35l-49 -8q-24 -4 -24 -20q0 -9 24 -84l132 -400h11l104 304q37 108 37 154q0 26 -10.5 37t-33.5 14l-24 3l-3 35h227z"/>
<glyph glyph-name="W" horiz-adv-x="925" unicode="W" d="M938 625l-3 -35l-22 -7q-24 -8 -35.5 -19.5t-28 -50t-47.5 -131.5l-125 -383h-60l-141 421h-3l-151 -421h-61l-188 556q-7 20 -31 24l-55 11l-3 35h273l-3 -35l-50 -8q-23 -4 -23 -21q0 -12 23 -83l112 -352h5l130 355l-25 74q-7 20 -32 24l-52 11l-3 35h269l-3 -35 l-52 -8q-21 -3 -21 -23q0 -16 21 -81l113 -353l5 1l80 256q39 124 39 160q0 20 -9 28t-30 12l-40 8l-3 35h230z"/>
<glyph glyph-name="X" horiz-adv-x="627" unicode="X" d="M628 0h-262l3 35l41 6q24 3 24 17q0 16 -49 89l-87 132h-5l-107 -164q-25 -32 -25 -50q0 -19 27 -24l33 -6l3 -35h-221l3 35l36 8q23 5 39.5 20t42.5 50l145 199l-170 243q-15 20 -35 24l-48 11l-3 35h262l-3 -35l-39 -6q-26 -4 -26 -19q0 -14 48 -88l71 -107h5l92 140 q23 34 23 51q0 18 -25 23l-34 6l-3 35h219l-3 -35l-35 -8q-23 -5 -41.5 -20.5t-42.5 -49.5l-125 -175l187 -267q14 -19 35 -24l47 -11z"/>
<glyph glyph-name="Y" horiz-adv-x="602" unicode="Y" d="M606 625l-3 -35l-14 -4q-30 -9 -50 -24t-43 -50l-141 -238v-218q0 -12 35 -16l60 -5l3 -35h-292l3 35l61 5q35 4 35 18v202l-180 286q-21 29 -53 36l-32 8l-3 35h256l-3 -35l-40 -6q-20 -3 -20 -20q0 -25 38 -86l100 -165h5l112 197q20 32 20 49q0 20 -29 26l-24 5l-3 35 h202z"/>
<glyph glyph-name="Z" horiz-adv-x="571" unicode="Z" d="M550 188l-21 -188h-490v36l390 545v5h-116q-83 0 -121 -7.5t-49.5 -19.5t-22.5 -43l-20 -83h-43v192h482v-37l-389 -545l-1 -5l121 1q87 0 128.5 6.5t54 17t22.5 37.5l24 88h51z"/>
<glyph glyph-name="bracketleft" horiz-adv-x="368" unicode="[" d="M348 -222h-254v873h254v-44h-203v-785h203v-44z"/>
<glyph glyph-name="backslash" horiz-adv-x="279" unicode="\" d="M271 -212h-48l-215 877h48z"/>
<glyph glyph-name="bracketright" horiz-adv-x="368" unicode="]" d="M20 -222v44h203v785h-203v44h254v-873h-254z"/>
<glyph glyph-name="asciicircum" horiz-adv-x="400" unicode="^" d="M327 510h-27l-99 108h-2l-99 -108h-27l106 187h42z"/>
<glyph glyph-name="underscore" horiz-adv-x="470" unicode="_" d="M479 -53h-488l3 53h482z"/>
<glyph glyph-name="grave" horiz-adv-x="400" unicode="`" d="M248 510h-22l-169 187h98z"/>
<glyph glyph-name="a" horiz-adv-x="448" unicode="a" d="M277 90l5 149q-92 -23 -128 -51.5t-36 -64.5q0 -33 21 -54t51 -21q40 0 87 42zM448 51q-52 -67 -98 -67q-63 0 -67 73h-5q-65 -72 -124 -72q-48 0 -84 34t-36 83q0 61 59.5 100t190.5 70v9q0 78 -24.5 107t-72.5 29q-24 0 -49 -8t-25 -15q0 -1 5.5 -8.5t11.5 -18.5t6 -23 q0 -20 -14.5 -34t-38.5 -14q-23 0 -37.5 13.5t-14.5 33.5q0 37 65.5 79t124.5 42q82 0 114 -36.5t32 -132.5q0 -24 -1 -37l-7 -170q-2 -39 23 -39q18 0 49 24z"/>
<glyph glyph-name="b" horiz-adv-x="515" unicode="b" d="M394 204q0 83 -34.5 132.5t-89.5 49.5q-65 0 -113 -59v-240q55 -61 114 -61q50 0 86.5 50t36.5 128zM483 241q0 -103 -63.5 -179.5t-170.5 -76.5q-19 0 -56.5 7t-56.5 15h-1l-48 -28h-12v599q0 19 -11 23l-67 28l3 25l157 43v-315h5q66 74 143 74q82 0 130 -61.5 t48 -153.5z"/>
<glyph glyph-name="c" horiz-adv-x="440" unicode="c" d="M415 99q-28 -55 -75.5 -84.5t-106.5 -29.5q-88 0 -144.5 64.5t-56.5 159.5q0 109 70 181.5t167 72.5q65 0 103.5 -28.5t38.5 -67.5q0 -29 -17 -41.5t-39 -12.5q-24 0 -40 20t-16 50q0 11 3 23v2q-22 16 -55 16q-56 0 -92.5 -46t-36.5 -123q0 -85 44 -141.5t111 -56.5 q75 0 122 53z"/>
<glyph glyph-name="d" horiz-adv-x="525" unicode="d" d="M358 95v256q-56 64 -114 64q-54 0 -88.5 -47.5t-34.5 -124.5q0 -86 37.5 -137t100.5 -51q54 0 99 40zM518 28l-3 -25l-157 -18v69h-3q-59 -68 -137 -68q-80 0 -133 63.5t-53 160.5q0 102 67 175t176 73q37 0 82 -14h1v160q0 19 -11 23l-71 21l4 25l160 24v-626 q0 -19 11 -23z"/>
<glyph glyph-name="e" horiz-adv-x="461" unicode="e" d="M329 295v15q0 54 -23.5 85t-62.5 31q-43 0 -78 -35.5t-44 -95.5h208zM415 99q-28 -55 -75.5 -84.5t-106.5 -29.5q-88 0 -144.5 64.5t-56.5 159.5q0 110 67.5 182t165.5 72q71 0 113.5 -41t42.5 -109q0 -30 -6 -54l-297 4v-11q0 -86 44 -140.5t111 -54.5q75 0 122 53z"/>
<glyph glyph-name="f" horiz-adv-x="321" unicode="f" d="M393 634q0 -24 -13.5 -36.5t-34.5 -12.5q-22 0 -40.5 17t-26.5 49l-1 4l-29 2q-72 -41 -72 -172v-37h137l-7 -50h-130v-342q0 -16 38 -18l54 -3l3 -35h-242l3 35l28 3q34 3 34 19v338l-82 5l6 48h71l1 21q5 102 67.5 165t144.5 63q38 0 64.5 -18t26.5 -45z"/>
<glyph glyph-name="g" horiz-adv-x="470" unicode="g" d="M366 -113q0 86 -105 90h-16q-15 0 -46.5 -1t-51.5 -1q-19 -7 -39.5 -30.5t-20.5 -55.5q0 -48 39.5 -77t103.5 -29q61 0 98.5 29.5t37.5 74.5zM311 300q0 70 -34 104q-25 25 -58 25q-41 0 -67.5 -32t-26.5 -82q0 -75 41 -116q22 -22 51 -22q41 0 63 22q31 30 31 101z M475 373l-109 19v-6q28 -37 28 -83q0 -66 -52 -113t-125 -47q-32 0 -60 7q-15 -7 -29 -20.5t-14 -26.5q0 -20 18.5 -33.5t45.5 -13.5q24 0 64 1.5t54 1.5q61 0 103.5 -39t42.5 -95q0 -79 -72.5 -129.5t-185.5 -50.5q-79 0 -126.5 32t-47.5 85q0 77 97 117v4 q-29 5 -48.5 27.5t-19.5 47.5q0 29 23 55.5t59 42.5l4 5q-85 40 -85 138q0 70 51.5 117t127.5 47q61 0 120 -28h136v-62z"/>
<glyph glyph-name="h" horiz-adv-x="531" unicode="h" d="M520 0h-215l3 35l26 3q34 2 34 19v209q0 71 -22.5 99.5t-69.5 28.5q-54 0 -111 -42v-296q0 -16 38 -18l34 -3l3 -35h-222l3 35l28 3q34 3 34 19v521q0 19 -11 23l-67 28l3 25l157 43v-305h5q86 71 160 71q51 0 82 -31q38 -38 38 -112v-263q0 -8 8 -12t33 -7l26 -3z"/>
<glyph glyph-name="i" horiz-adv-x="272" unicode="i" d="M247 0h-217l3 35l28 3q34 3 34 19v253q0 46 -7.5 60t-35.5 21l-24 6l1 27l148 39v-407q0 -16 38 -18l29 -3zM180 608q0 -25 -14 -42t-40 -17t-40 17t-14 42t14 42t40 17t40 -17t14 -42z"/>
<glyph glyph-name="j" horiz-adv-x="257" unicode="j" d="M174 -24q-7 -106 -60 -171.5t-108 -65.5q-32 0 -52.5 15.5t-20.5 44.5q0 21 16.5 35.5t36.5 14.5q46 0 71 -56q35 15 35 120v397q0 46 -7.5 60t-35.5 21l-24 6l1 27l148 39v-487zM177 608q0 -25 -14 -42t-40 -17t-40 17t-14 42t14 42t40 17t40 -17t14 -42z"/>
<glyph glyph-name="k" horiz-adv-x="492" unicode="k" d="M485 0h-143l-54 90l-83 125l-40 -37v-122q0 -8 7.5 -11.5t30.5 -6.5l24 -3l3 -35h-212l3 35l28 3q34 4 34 19v521q0 19 -11 23l-67 28l3 25l157 43v-468l69 64q65 60 75 79q4 8 4 14q0 21 -39 26l-15 2l-3 34h216l-3 -34l-15 -3q-26 -4 -54 -23.5t-87 -73.5l-49 -45 l134 -186q31 -42 51 -44l33 -4z"/>
<glyph glyph-name="l" horiz-adv-x="272" unicode="l" d="M247 0h-217l3 35l28 3q34 3 34 19v521q0 19 -11 23l-67 28l3 25l157 43v-641q0 -16 38 -18l29 -3z"/>
<glyph glyph-name="m" horiz-adv-x="812" unicode="m" d="M797 0h-215l3 35l26 3q34 2 34 19v209q0 128 -92 128q-48 0 -102 -46q1 -9 1 -28v-263q0 -8 8 -12t33 -7l26 -3l3 -35h-215l3 35l26 3q34 2 34 19v209q0 128 -92 128q-44 0 -101 -42v-296q0 -16 38 -18l34 -3l3 -35h-222l3 35l28 3q34 3 34 19v253q0 46 -7.5 60t-35.5 21 l-24 6l1 27l148 39v-71h3q81 71 152 71q51 0 82 -31q20 -20 29 -47h4q85 78 160 78q51 0 82 -31q38 -38 38 -112v-263q0 -8 8 -12t33 -7l26 -3z"/>
<glyph glyph-name="n" horiz-adv-x="547" unicode="n" d="M532 0h-215l3 35l26 3q34 2 34 19v209q0 71 -22.5 99.5t-69.5 28.5q-54 0 -111 -42v-296q0 -16 38 -18l34 -3l3 -35h-222l3 35l28 3q34 3 34 19v253q0 46 -7.5 60t-35.5 21l-24 6l1 27l148 39v-71h5q86 71 160 71q51 0 82 -31q38 -38 38 -112v-263q0 -8 8 -12t33 -7 l26 -3z"/>
<glyph glyph-name="o" horiz-adv-x="518" unicode="o" d="M395 195q0 133 -53 189q-35 38 -87 38q-57 0 -94.5 -45.5t-37.5 -123.5q0 -132 54 -189q35 -38 87 -38q55 0 93 45.5t38 123.5zM486 237q0 -105 -68 -178.5t-168 -73.5q-98 0 -158 68t-60 169t69 171t168 70q96 0 156.5 -64.5t60.5 -161.5z"/>
<glyph glyph-name="p" horiz-adv-x="525" unicode="p" d="M404 204q0 83 -34.5 132.5t-89.5 49.5q-65 0 -113 -59v-240q55 -61 114 -61q50 0 86.5 50t36.5 128zM493 241q0 -103 -63 -179.5t-170 -76.5q-47 0 -92 14h-1v-189q0 -16 38 -18l39 -3l3 -35h-227l3 35l28 3q34 3 34 19v499q0 46 -7.5 60t-35.5 21l-24 6l1 27l148 39v-81 h5q66 74 143 74q82 0 130 -61.5t48 -153.5z"/>
<glyph glyph-name="q" horiz-adv-x="514" unicode="q" d="M358 95v256q-56 64 -114 64q-54 0 -88.5 -47.5t-34.5 -124.5q0 -86 37.5 -137t100.5 -51q54 0 99 40zM510 -246h-227l3 35l38 3q34 2 34 19v243h-3q-59 -68 -137 -68q-80 0 -133 63.5t-53 160.5q0 102 67 175t176 73q50 0 104 -22h1l48 28h12v-653q0 -8 8 -12t33 -7 l26 -3z"/>
<glyph glyph-name="r" horiz-adv-x="385" unicode="r" d="M378 407q0 -25 -13.5 -40.5t-38.5 -15.5q-30 0 -51 33q-62 -36 -98 -107v-221q0 -16 38 -18l39 -3l3 -35h-227l3 35l28 3q34 3 34 19v253q0 46 -7.5 60t-35.5 21l-24 6l1 27l148 39v-128h5q43 70 72.5 99t63.5 29q28 0 44 -15.5t16 -40.5z"/>
<glyph glyph-name="s" horiz-adv-x="406" unicode="s" d="M365 130q0 -60 -47.5 -102.5t-127.5 -42.5q-79 0 -135 21l-6 132h50l23 -88q38 -28 80 -28q33 0 62 22.5t29 57.5q0 14 -7 25.5t-14.5 19t-26 17t-28 13t-34.5 13.5q-31 12 -49.5 21.5t-40 26t-32 39.5t-10.5 54q0 53 43 93.5t117 40.5q55 0 100 -17l31 13l6 -142h-49 l-20 83q-33 25 -76 25q-33 0 -56 -18.5t-23 -47.5q0 -31 23.5 -48t83.5 -41q31 -12 49.5 -21.5t41 -26.5t33 -40.5t10.5 -53.5z"/>
<glyph glyph-name="t" horiz-adv-x="356" unicode="t" d="M338 50q-27 -30 -64.5 -47.5t-72.5 -17.5q-53 0 -85.5 33t-32.5 103v5l7 269l-81 5l1 30l65 54l65 55l32 -6l-1 -85h164l-7 -50h-156l-8 -250v-6q0 -92 86 -92q38 0 83 25z"/>
<glyph glyph-name="u" horiz-adv-x="529" unicode="u" d="M522 28l-3 -25l-157 -18v71h-5q-86 -71 -160 -71q-51 0 -82 31q-38 38 -38 112l3 263q0 5 -1 8t-2.5 4.5t-5.5 2.5t-7.5 1t-12 1t-15.5 2l-24 3l-3 35h158l-8 -266q0 -71 22.5 -99.5t69.5 -28.5q54 0 111 42v296q0 8 -7.5 12t-30.5 6l-39 3l-4 35h163v-377q0 -19 11 -23z "/>
<glyph glyph-name="v" horiz-adv-x="468" unicode="v" d="M485 448l-3 -34l-25 -7q-22 -3 -33.5 -16.5t-28.5 -57.5l-132 -342h-51l-154 377q-9 21 -18.5 27.5t-33.5 10.5l-23 6l-4 36h225l-3 -35l-28 -4q-26 -3 -26 -21q0 -6 3 -15l111 -283l91 250q11 30 11 43q0 21 -30 24l-28 7l-3 34h183z"/>
<glyph glyph-name="w" horiz-adv-x="696" unicode="w" d="M712 448l-3 -34l-21 -5q-26 -4 -37.5 -17t-26.5 -59l-111 -342h-48l-111 290l-116 -290h-48l-134 377q-8 21 -17 29t-29 11l-22 4l-3 36h212l-3 -35l-23 -4q-28 -3 -28 -25q0 -5 3 -13l95 -275l91 238l-12 34q-8 21 -17.5 28t-33.5 11l-23 6l-3 35h216l-3 -34l-23 -5 q-28 -3 -28 -24q0 -6 3 -14l99 -278l73 240q8 29 8 43q0 29 -38 34l-20 4l-3 34h185z"/>
<glyph glyph-name="x" horiz-adv-x="481" unicode="x" d="M482 0h-216l3 34l20 6q24 4 24 17t-21 41l-66 92h-1l-69 -92q-25 -33 -25 -44q0 -12 26 -15l26 -5l3 -34h-192l3 34l29 6q21 3 36 15t48 51l92 112l-94 124q-28 37 -43 49t-38 16l-22 6l-3 35h218l-3 -34l-20 -6q-22 -3 -22 -15t23 -43l54 -76h1l57 76q24 32 24 44 t-25 15l-26 5l-3 34h195l-3 -34l-29 -6q-24 -3 -39 -15t-48 -51l-79 -96l104 -140q27 -36 42.5 -48.5t35.5 -16.5l20 -6z"/>
<glyph glyph-name="y" horiz-adv-x="459" unicode="y" d="M484 448l-3 -34l-26 -7q-22 -3 -33.5 -16.5t-28.5 -57.5l-117 -308l-50 -153q-23 -70 -48.5 -101.5t-66.5 -31.5q-32 0 -49.5 15t-17.5 40q0 23 12.5 38t36.5 15q38 0 59 -32q18 9 39 66l42 117v2l-178 368q-10 21 -18.5 27.5t-32.5 10.5l-21 6l-4 36h220l-3 -35l-25 -4 q-26 -2 -26 -20q0 -8 4 -16l120 -265l82 232q9 26 9 39q0 24 -34 28l-27 7l-3 34h188z"/>
<glyph glyph-name="z" horiz-adv-x="464" unicode="z" d="M415 415l-282 -378h40q102 0 136.5 11.5t53.5 50.5l35 72h48l-41 -171h-375v33l284 378h-25q-103 0 -134 -11t-39 -51l-19 -72h-50v171h368v-33z"/>
<glyph glyph-name="braceleft" horiz-adv-x="336" unicode="{" d="M302 -235q-92 5 -143.5 44.5t-51.5 106.5q0 44 29.5 102.5t29.5 90.5q0 71 -131 77l-11 29l11 28q131 4 131 77q0 32 -29.5 90.5t-29.5 103.5q0 67 51 106.5t144 44.5v-35q-57 -5 -90 -31t-33 -62q0 -32 29.5 -91t29.5 -104q0 -48 -42 -84.5t-86 -37.5v-12q44 -2 86 -38 t42 -84q0 -44 -29.5 -102t-29.5 -90q0 -36 33 -63.5t90 -32.5v-33z"/>
<glyph glyph-name="bar" horiz-adv-x="276" unicode="|" d="M115 -187v877h46v-877h-46z"/>
<glyph glyph-name="braceright" horiz-adv-x="336" unicode="}" d="M312 215l-11 -29q-131 -6 -131 -77q0 -32 29.5 -90.5t29.5 -102.5q0 -67 -51.5 -106.5t-143.5 -44.5v33q57 5 90 32.5t33 63.5q0 32 -29.5 90t-29.5 102q0 48 42 84t86 38v12q-44 1 -86 37.5t-42 84.5q0 45 29.5 104t29.5 91q0 36 -33 62t-90 31v35q93 -5 144 -44.5 t51 -106.5q0 -45 -29.5 -103.5t-29.5 -90.5q0 -73 131 -77z"/>
<glyph glyph-name="asciitilde" horiz-adv-x="400" unicode="~" d="M364 289q-20 -123 -98 -123q-36 0 -86.5 36.5t-66.5 36.5q-14 0 -25 -14t-26 -51h-26q20 123 98 123q28 0 58 -18.5t54.5 -36.5t40.5 -18q14 0 25 14t26 51h26z"/>
<glyph glyph-name="nbspace" horiz-adv-x="228" unicode=" "/>
<glyph glyph-name="exclamdown" horiz-adv-x="284" unicode="¡" d="M195 28q0 -2 0.5 -4t0.5 -4q0 -35 -52 -35h-2q-52 0 -52 35q0 2 0.5 4t0.5 4l42 400q1 6 10 6t10 -6zM202 579q0 -24 -16.5 -41t-42.5 -17t-43.5 17t-17.5 41t17.5 42t43.5 18t42.5 -17.5t16.5 -42.5z"/>
<glyph glyph-name="cent" horiz-adv-x="444" unicode="¢" d="M208 75l89 333q-22 13 -50 13q-56 0 -92.5 -44.5t-36.5 -121.5q0 -61 24 -109t66 -71zM223 -14l-41 -152h-39l43 159q-69 19 -111.5 82t-42.5 144q0 108 69.5 176t167.5 68q25 0 42 -4l47 176h39l-50 -186q31 -13 47.5 -35t16.5 -47q0 -22 -13.5 -35.5t-29.5 -13.5 q-34 0 -50 24l-75 -280q18 -5 36 -5q70 0 117 53l20 -11q-28 -54 -74.5 -84t-102.5 -30q-11 0 -16 1z"/>
<glyph glyph-name="sterling" horiz-adv-x="477" unicode="£" d="M136 299q0 14 -1.5 48.5t-1.5 48.5q0 108 56 171t148 63q51 0 79 -20.5t28 -56.5q0 -22 -15 -37t-36 -15q-25 0 -39.5 16.5t-14.5 43.5q0 11 1 16q-20 12 -44 12q-81 0 -81 -154q0 -14 1.5 -60.5t2.5 -75.5h160l3 -41h-162q1 -14 1 -44q0 -70 -36 -128v-5q9 -2 64 -17.5 t82 -15.5q36 0 55 19q21 21 46 76l22 -6v-11q0 -61 -31.5 -105.5t-93.5 -44.5q-26 0 -53 10.5t-39 18t-41 31t-31 24.5q-55 -67 -148 -87l-12 39q75 24 104.5 66t29.5 111q0 11 -0.5 34t-0.5 35h-107l3 41h102z"/>
<glyph glyph-name="currency" horiz-adv-x="435" unicode="¤" d="M318 359q0 43 -27.5 73t-72.5 30q-46 0 -73.5 -30t-27.5 -73q0 -42 27.5 -72.5t73.5 -30.5q45 0 72.5 30.5t27.5 72.5zM397 501l-56 -56q24 -41 24 -86q0 -46 -25 -86l62 -62l-36 -36l-61 61q-40 -26 -87 -26t-87 25l-56 -56l-35 35l56 56q-26 39 -26 89q0 49 25 87 l-58 58l36 36l58 -58q40 26 87 26q48 0 89 -27l55 55z"/>
<glyph glyph-name="yen" horiz-adv-x="612" unicode="¥" d="M599 625l-3 -35l-13 -4q-30 -10 -50 -24.5t-41 -49.5l-118 -207h162l3 -41h-182v-81h179l3 -41h-182v-72q0 -20 23 -24l74 -11l3 -35h-289l3 35l74 11q23 4 23 24v72h-175l3 41h172v81h-175l3 41h154l-153 241q-19 29 -53 36l-33 8l-3 35h251l-3 -35l-41 -6 q-20 -3 -20 -20q0 -24 39 -86l94 -157h5l104 189q17 32 17 48q0 21 -28 27l-23 5l-3 35h199z"/>
<glyph glyph-name="brokenbar" horiz-adv-x="276" unicode="¦" d="M115 -139v335h46v-335h-46zM115 307v335h46v-335h-46z"/>
<glyph glyph-name="section" horiz-adv-x="421" unicode="§" d="M337 223q0 23 -14.5 44t-29.5 33.5t-46 34.5q-13 9 -40.5 26t-48 32t-34.5 31q-17 -10 -29.5 -28.5t-12.5 -36.5q0 -23 14 -44t30 -33.5t46 -33.5q10 -7 40 -26t49.5 -33.5t34.5 -30.5q41 25 41 65zM395 260q0 -39 -24 -71.5t-59 -50.5q24 -34 24 -72q0 -51 -47.5 -91 t-113.5 -40q-42 0 -75.5 20t-33.5 54q0 22 14 36t35 14q50 0 67 -77q16 -6 35 -6q58 0 58 67q0 23 -19 47t-39 38.5t-59 39.5q-76 49 -99 74q-34 37 -34 81q0 39 23.5 71t58.5 49q-24 36 -24 73q0 45 46 84t107 39q42 0 75.5 -20t33.5 -54q0 -22 -14 -36t-35 -14 q-50 0 -67 77q-15 6 -28 6q-25 0 -41 -15.5t-16 -44.5q0 -22 19.5 -45.5t39.5 -38t59 -39.5q76 -49 99 -74q34 -37 34 -81z"/>
<glyph glyph-name="dieresis" horiz-adv-x="400" unicode="¨" d="M159 607q0 -26 -16 -44.5t-43 -18.5t-43 18.5t-16 44.5t16 44.5t43 18.5t43 -18.5t16 -44.5zM359 607q0 -26 -16 -44.5t-43 -18.5t-43 18.5t-16 44.5t16 44.5t43 18.5t43 -18.5t16 -44.5z"/>
<glyph glyph-name="copyright" horiz-adv-x="734" unicode="©" d="M508 258l-12 -121l-30 6q-40 -15 -86 -15q-89 0 -138.5 50t-49.5 129q0 83 51.5 136t132.5 53q42 0 80 -12l46 12v-131h-27l-23 73q-28 22 -81 22q-50 0 -83 -37t-33 -97q0 -74 35.5 -118.5t99.5 -44.5q36 0 56 16l34 79h28zM656 312q0 120 -84.5 207t-204.5 87 t-204.5 -87t-84.5 -207t84.5 -206.5t204.5 -86.5t204.5 86.5t84.5 206.5zM694 312q0 -136 -95.5 -231.5t-231.5 -95.5t-231.5 95.5t-95.5 231.5t95.5 232t231.5 96t231.5 -96t95.5 -232z"/>
<glyph glyph-name="ordfeminine" horiz-adv-x="347" unicode="ª" d="M211 369l3 96q-118 -24 -118 -74q0 -23 14 -37.5t36 -14.5q13 0 33 9.5t32 20.5zM346 326q-29 -40 -78 -40q-48 0 -55 54h-2q-59 -54 -103 -54q-34 0 -59 21.5t-25 57.5q0 88 191 125l1 27v7q0 34 -24.5 56t-56.5 22q-16 0 -30 -8t-14 -13q0 -1 3.5 -6t6.5 -13t3 -15 q0 -15 -10.5 -24.5t-28.5 -9.5t-29.5 11t-11.5 28q0 31 52.5 59t106.5 28q51 0 79 -29t26 -71l-6 -163q-1 -21 5.5 -30.5t22.5 -9.5q17 0 33 10z"/>
<glyph glyph-name="guillemotleft" horiz-adv-x="490" unicode="«" d="M265 76l-10 -20l-217 142v46l217 142l10 -20l-143 -145zM455 66l-10 -20l-217 152v46l217 152l10 -20l-153 -155z"/>
<glyph glyph-name="logicalnot" d="M445 309v-212h-53v159h-357l3 53h407z" unicode="¬"/>
<glyph glyph-name="uni00AD" horiz-adv-x="328" unicode="­" d="M297 208h-264l3 53h258z"/>
<glyph glyph-name="registered" horiz-adv-x="734" unicode="®" d="M437 391q0 65 -81 65h-12l-23 -1v-133l38 -5q78 5 78 74zM547 139h-99l-21 39l-67 107l-39 2v-98q0 -10 14 -13l33 -6l1 -31h-151l2 31l29 6q13 3 13 13v250q0 11 -13 14l-29 6l-2 31h152q65 0 98 -26.5t33 -63.5q0 -76 -84 -101l65 -98q18 -24 32 -27l31 -4zM656 312 q0 120 -84.5 207t-204.5 87t-204.5 -87t-84.5 -207t84.5 -206.5t204.5 -86.5t204.5 86.5t84.5 206.5zM694 312q0 -136 -95.5 -231.5t-231.5 -95.5t-231.5 95.5t-95.5 231.5t95.5 232t231.5 96t231.5 -96t95.5 -232z"/>
<glyph glyph-name="macron" horiz-adv-x="400" unicode="¯" d="M327 541h-252l3 41h246z"/>
<glyph glyph-name="degree" horiz-adv-x="410" unicode="°" d="M205 604q-53 0 -85 -35t-32 -87q0 -49 32 -84.5t85 -35.5t85 35.5t32 84.5q0 52 -32 87t-85 35zM371 482q0 -69 -45.5 -117t-120.5 -48q-74 0 -120 48t-46 117q0 70 45.5 118.5t120.5 48.5t120.5 -48t45.5 -119z"/>
<glyph glyph-name="plusminus" d="M449 238h-182v-165h-53v165h-183l3 53h180v163h53v-163h179zM448 6h-416l3 53h410z" unicode="±"/>
<glyph glyph-name="twosuperior" horiz-adv-x="330" unicode="²" d="M23 273l-4 35q15 14 42 38t40.5 36.5t33.5 32t30 32.5t21 29t15.5 30.5t4.5 29.5q0 32 -20.5 50t-53.5 18q-48 0 -96 -42l-10 14q61 84 144 84q54 0 87 -29t33 -73q0 -16 -4.5 -30.5t-17 -31t-22 -28t-33.5 -32.5t-36.5 -31t-46.5 -36.5t-49 -38.5v-4h47q88 0 110 3.5 t31 20.5l14 25h29l-23 -102h-266z"/>
<glyph glyph-name="threesuperior" horiz-adv-x="330" unicode="³" d="M118 258q-44 0 -70.5 14.5t-26.5 38.5q0 14 11 24.5t26 10.5q23 0 37.5 -17.5t17.5 -40.5q3 -1 19 -1q35 0 59.5 23.5t24.5 58.5t-23 53.5t-56 18.5q-26 0 -50 -12l-11 19q7 4 19.5 11.5t19.5 11.5t18 10.5t17 11.5t14 11.5t12.5 12t9 12t6.5 13t2 13.5q0 23 -18.5 37 t-48.5 14q-43 0 -92 -37l-13 16q67 75 149 75q44 0 76 -21.5t32 -53.5q0 -19 -8.5 -34.5t-31.5 -31.5t-35.5 -23t-47.5 -25v-2q21 8 41 8q40 0 69.5 -24.5t29.5 -64.5q0 -52 -53 -91t-125 -39z"/>
<glyph glyph-name="acute" horiz-adv-x="400" unicode="´" d="M343 697l-169 -187h-24l91 187h102z"/>
<glyph glyph-name="mu" horiz-adv-x="529" unicode="µ" d="M77 128l3 263q0 5 -1 8t-2.5 4.5t-5.5 2.5t-7.5 1t-12 1t-15.5 2l-24 3l-3 35h158l-8 -290q0 -57 22.5 -80.5t69.5 -23.5q54 0 111 42v296q0 8 -7.5 12t-30.5 6l-39 3l-4 35h163v-377q0 -19 11 -23l67 -20l-3 -25l-157 -18v71h-5q-2 -2 -9.5 -11t-10.5 -12t-10 -10.5 t-11 -10.5t-11 -8.5t-13 -8t-13.5 -5.5t-15.5 -4t-17 -1q-57 0 -85 55q-2 2 -2 3h-5l10 -280l-100 -9z"/>
<glyph glyph-name="mu" horiz-adv-x="529" unicode="μ" d="M77 128l3 263q0 5 -1 8t-2.5 4.5t-5.5 2.5t-7.5 1t-12 1t-15.5 2l-24 3l-3 35h158l-8 -290q0 -57 22.5 -80.5t69.5 -23.5q54 0 111 42v296q0 8 -7.5 12t-30.5 6l-39 3l-4 35h163v-377q0 -19 11 -23l67 -20l-3 -25l-157 -18v71h-5q-2 -2 -9.5 -11t-10.5 -12t-10 -10.5 t-11 -10.5t-11 -8.5t-13 -8t-13.5 -5.5t-15.5 -4t-17 -1q-57 0 -85 55q-2 2 -2 3h-5l10 -280l-100 -9z"/>
<glyph glyph-name="paragraph" horiz-adv-x="501" unicode="¶" d="M411 -32h-51v299q-48 -13 -88 -13q-114 0 -173 51.5t-59 133.5q0 91 60 138.5t156 47.5h155v-657z"/>
<glyph glyph-name="periodcentered" horiz-adv-x="232" unicode="·" d="M184 228q0 -27 -19 -47t-47 -20q-29 0 -48.5 20t-19.5 47t19.5 46t48.5 19t47.5 -19t18.5 -46z"/>
<glyph glyph-name="cedilla" horiz-adv-x="400" unicode="¸" d="M317 -148q0 -50 -56 -82.5t-154 -39.5l-9 24q157 19 157 86q0 24 -22 38.5t-63 14.5q-30 0 -62 -6v20l109 114h44l-75 -78q61 0 96 -24t35 -67z"/>
<glyph glyph-name="onesuperior" horiz-adv-x="330" unicode="¹" d="M54 273l2 28l64 8q15 3 15 14v274l-85 6l2 20l159 38v-338q0 -11 15 -14l53 -8l2 -28h-227z"/>
<glyph glyph-name="ordmasculine" horiz-adv-x="391" unicode="º" d="M288 441q0 100 -41 139q-24 24 -59 24q-38 0 -62 -33t-24 -88q0 -96 42 -140q22 -22 59 -22q36 0 60.5 32.5t24.5 87.5zM366 463q0 -75 -48.5 -126t-123.5 -51q-76 0 -123 50.5t-47 124.5q0 75 49 126.5t124 51.5q76 0 122.5 -50.5t46.5 -125.5z"/>
<glyph glyph-name="guillemotright" horiz-adv-x="490" unicode="»" d="M265 198l-217 -152l-10 20l153 155l-153 155l10 20l217 -152v-46zM455 198l-217 -142l-10 20l143 145l-143 145l10 20l217 -142v-46z"/>
<glyph glyph-name="onequarter" horiz-adv-x="715" unicode="¼" d="M54 273l2 28l64 8q15 3 15 14v274l-85 6l2 20l159 38v-338q0 -11 15 -14l53 -8l2 -28h-227zM84 -116l533 741h55l-533 -741h-55zM433 -2h136v168h-3zM569 -143v108h-170l-4 27l195 248h50v-242h67l-4 -33h-63v-108h-71z"/>
<glyph glyph-name="onehalf" horiz-adv-x="715" unicode="½" d="M408 -143l-4 35q15 14 42 38t40.5 36.5t33.5 32t30 32.5t21 29t15.5 30.5t4.5 29.5q0 32 -20.5 50t-53.5 18q-48 0 -96 -42l-10 14q61 84 144 84q54 0 87 -29t33 -73q0 -16 -4.5 -30.5t-17 -31t-22 -28t-33.5 -32.5t-36.5 -31t-46.5 -36.5t-49 -38.5v-4h47q88 0 110 3.5 t31 20.5l14 25h29l-23 -102h-266zM54 273l2 28l64 8q15 3 15 14v274l-85 6l2 20l159 38v-338q0 -11 15 -14l53 -8l2 -28h-227zM69 -116l533 741h55l-533 -741h-55z"/>
<glyph glyph-name="threequarters" horiz-adv-x="715" unicode="¾" d="M118 258q-44 0 -70.5 14.5t-26.5 38.5q0 14 11 24.5t26 10.5q23 0 37.5 -17.5t17.5 -40.5q3 -1 19 -1q35 0 59.5 23.5t24.5 58.5t-23 53.5t-56 18.5q-26 0 -50 -12l-11 19q7 4 19.5 11.5t19.5 11.5t18 10.5t17 11.5t14 11.5t12.5 12t9 12t6.5 13t2 13.5q0 23 -18.5 37 t-48.5 14q-43 0 -92 -37l-13 16q67 75 149 75q44 0 76 -21.5t32 -53.5q0 -19 -8.5 -34.5t-31.5 -31.5t-35.5 -23t-47.5 -25v-2q21 8 41 8q40 0 69.5 -24.5t29.5 -64.5q0 -52 -53 -91t-125 -39zM84 -116l533 741h55l-533 -741h-55zM433 -2h136v168h-3zM569 -143v108h-170 l-4 27l195 248h50v-242h67l-4 -33h-63v-108h-71z"/>
<glyph glyph-name="questiondown" horiz-adv-x="363" unicode="¿" d="M314 41q0 -24 -22 -40t-58 -16q-79 0 -136.5 51.5t-57.5 117.5q0 57 25 82.5t83 48.5q56 22 70 37q13 14 13 34q0 36 -46 82h30q68 -56 68 -112q0 -47 -27.5 -70t-87.5 -47q-32 -13 -44.5 -18.5t-27 -18.5t-14.5 -28q0 -33 44 -55t110 -22q27 0 67 7q11 -14 11 -33z M271 579q0 -24 -17.5 -41t-43.5 -17t-42.5 17t-16.5 41q0 25 16.5 42.5t42.5 17.5t43.5 -18t17.5 -42z"/>
<glyph glyph-name="Agrave" horiz-adv-x="600" unicode="À" d="M328 677h-22l-169 187h98zM365 267l-83 269h-6l-90 -269h179zM616 0h-272l3 35l49 8q15 3 21 8t6 17q0 17 -20 79l-25 78h-206l-24 -77q-22 -60 -22 -79q0 -21 24 -26l40 -8l3 -35h-209l3 35l28 7q23 5 36.5 19t31 53t49.5 129l116 325v36l90 42l189 -576q7 -20 32 -24 l54 -11z"/>
<glyph glyph-name="Aacute" horiz-adv-x="600" unicode="Á" d="M453 864l-169 -187h-24l91 187h102zM365 267l-83 269h-6l-90 -269h179zM616 0h-272l3 35l49 8q15 3 21 8t6 17q0 17 -20 79l-25 78h-206l-24 -77q-22 -60 -22 -79q0 -21 24 -26l40 -8l3 -35h-209l3 35l28 7q23 5 36.5 19t31 53t49.5 129l116 325v36l90 42l189 -576 q7 -20 32 -24l54 -11z"/>
<glyph glyph-name="Acircumflex" horiz-adv-x="600" unicode="Â" d="M427 677h-27l-99 108h-2l-99 -108h-27l106 187h42zM365 267l-83 269h-6l-90 -269h179zM616 0h-272l3 35l49 8q15 3 21 8t6 17q0 17 -20 79l-25 78h-206l-24 -77q-22 -60 -22 -79q0 -21 24 -26l40 -8l3 -35h-209l3 35l28 7q23 5 36.5 19t31 53t49.5 129l116 325v36l90 42 l189 -576q7 -20 32 -24l54 -11z"/>
<glyph glyph-name="Atilde" horiz-adv-x="600" unicode="Ã" d="M464 810q-20 -123 -98 -123q-36 0 -86.5 36.5t-66.5 36.5q-14 0 -25 -14t-26 -51h-26q20 123 98 123q28 0 58 -18t54.5 -36.5t40.5 -18.5q14 0 25 14t26 51h26zM365 267l-83 269h-6l-90 -269h179zM616 0h-272l3 35l49 8q15 3 21 8t6 17q0 17 -20 79l-25 78h-206l-24 -77 q-22 -60 -22 -79q0 -21 24 -26l40 -8l3 -35h-209l3 35l28 7q23 5 36.5 19t31 53t49.5 129l116 325v36l90 42l189 -576q7 -20 32 -24l54 -11z"/>
<glyph glyph-name="Adieresis" horiz-adv-x="600" unicode="Ä" d="M259 774q0 -26 -16 -44.5t-43 -18.5t-43 18.5t-16 44.5t16 44.5t43 18.5t43 -18.5t16 -44.5zM459 774q0 -26 -16 -44.5t-43 -18.5t-43 18.5t-16 44.5t16 44.5t43 18.5t43 -18.5t16 -44.5zM365 267l-83 269h-6l-90 -269h179zM616 0h-272l3 35l49 8q15 3 21 8t6 17 q0 17 -20 79l-25 78h-206l-24 -77q-22 -60 -22 -79q0 -21 24 -26l40 -8l3 -35h-209l3 35l28 7q23 5 36.5 19t31 53t49.5 129l116 325v36l90 42l189 -576q7 -20 32 -24l54 -11z"/>
<glyph glyph-name="Aring" horiz-adv-x="600" unicode="Å" d="M359 688q0 26 -16 44.5t-43 18.5t-43 -18.5t-16 -44.5t16 -44.5t43 -18.5t43 18.5t16 44.5zM365 267l-83 271h-6l-90 -271h179zM262 606q-24 10 -37.5 32.5t-13.5 49.5q0 38 24.5 64t64.5 26t64.5 -26t24.5 -64q0 -52 -40 -77l178 -541q7 -20 32 -24l54 -11l3 -35h-272 l3 35l49 8q15 3 21 8t6 17q0 17 -20 79l-25 78h-206l-24 -77q-22 -60 -22 -79q0 -21 24 -26l40 -8l3 -35h-209l3 35l28 7q23 5 36.5 19t31 53t49.5 129z"/>
<glyph glyph-name="AE" horiz-adv-x="803" unicode="Æ" d="M365 267v314h-10l-157 -314h167zM771 181l-19 -181h-467l3 35l54 11q23 4 23 24v155h-188l-31 -62q-41 -82 -41 -102q0 -13 19 -18l39 -8l3 -35h-216l3 35l29 7q27 8 40.5 17.5t40.5 51t73 132.5l140 278q10 22 10 32q0 26 -37 32l-27 5l-3 35h534v-186h-44l-24 97 q-4 16 -9 23t-14.5 14t-35 9t-57.5 3t-95 1h-21v-249h14q61 0 78 3.5t22 18.5l23 67h36l-21 -215h-35l-8 64q-2 15 -18 19.5t-79 4.5h-12v-260h11q108 0 151.5 4t58 13t22.5 33l25 92h50z"/>
<glyph glyph-name="Ccedilla" horiz-adv-x="682" unicode="Ç" d="M368 -14q-141 8 -231.5 92.5t-90.5 227.5q0 153 100 243t252 90q78 0 138 -20l80 15v-205h-46l-27 128q-67 40 -150 40q-107 0 -174 -78.5t-67 -199.5q0 -133 67 -213.5t187 -80.5q69 0 123 30l43 138h48l-22 -193l-51 9q-57 -21 -135 -24l-41 -42q61 0 96 -24t35 -67 q0 -50 -56 -82.5t-154 -39.5l-9 24q157 19 157 86q0 24 -22 38.5t-63 14.5q-31 0 -62 -6v20z"/>
<glyph glyph-name="Egrave" horiz-adv-x="594" unicode="È" d="M335 677h-22l-169 187h98zM550 181l-19 -181h-490l3 35l41 5q35 4 35 18v511q0 7 -6.5 10t-28.5 6l-41 5l-3 35h491v-186h-48l-24 97q-7 25 -21 34t-51.5 12.5t-136.5 3.5h-36v-249h27q59 0 76 3.5t22 18.5l23 67h39l-21 -215h-38l-8 64q-2 15 -18 19.5t-78 4.5h-24v-260 h28q104 0 147 4t58 13t24 33l24 92h54z"/>
<glyph glyph-name="Eacute" horiz-adv-x="594" unicode="É" d="M470 864l-169 -187h-24l91 187h102zM550 181l-19 -181h-490l3 35l41 5q35 4 35 18v511q0 7 -6.5 10t-28.5 6l-41 5l-3 35h491v-186h-48l-24 97q-7 25 -21 34t-51.5 12.5t-136.5 3.5h-36v-249h27q59 0 76 3.5t22 18.5l23 67h39l-21 -215h-38l-8 64q-2 15 -18 19.5t-78 4.5 h-24v-260h28q104 0 147 4t58 13t24 33l24 92h54z"/>
<glyph glyph-name="Ecircumflex" horiz-adv-x="594" unicode="Ê" d="M424 677h-27l-99 108h-2l-99 -108h-27l106 187h42zM550 181l-19 -181h-490l3 35l41 5q35 4 35 18v511q0 7 -6.5 10t-28.5 6l-41 5l-3 35h491v-186h-48l-24 97q-7 25 -21 34t-51.5 12.5t-136.5 3.5h-36v-249h27q59 0 76 3.5t22 18.5l23 67h39l-21 -215h-38l-8 64 q-2 15 -18 19.5t-78 4.5h-24v-260h28q104 0 147 4t58 13t24 33l24 92h54z"/>
<glyph glyph-name="Edieresis" horiz-adv-x="594" unicode="Ë" d="M256 774q0 -26 -16 -44.5t-43 -18.5t-43 18.5t-16 44.5t16 44.5t43 18.5t43 -18.5t16 -44.5zM456 774q0 -26 -16 -44.5t-43 -18.5t-43 18.5t-16 44.5t16 44.5t43 18.5t43 -18.5t16 -44.5zM550 181l-19 -181h-490l3 35l41 5q35 4 35 18v511q0 7 -6.5 10t-28.5 6l-41 5 l-3 35h491v-186h-48l-24 97q-7 25 -21 34t-51.5 12.5t-136.5 3.5h-36v-249h27q59 0 76 3.5t22 18.5l23 67h39l-21 -215h-38l-8 64q-2 15 -18 19.5t-78 4.5h-24v-260h28q104 0 147 4t58 13t24 33l24 92h54z"/>
<glyph glyph-name="Igrave" horiz-adv-x="360" unicode="Ì" d="M198 677h-22l-169 187h98zM317 0h-273l3 35l51 5q35 4 35 18v511q0 7 -6.5 10t-28.5 6l-51 5l-3 35h273l-3 -35l-51 -5q-35 -4 -35 -18v-511q0 -12 35 -16l51 -5z"/>
<glyph glyph-name="Iacute" horiz-adv-x="360" unicode="Í" d="M354 864l-169 -187h-24l91 187h102zM317 0h-273l3 35l51 5q35 4 35 18v511q0 7 -6.5 10t-28.5 6l-51 5l-3 35h273l-3 -35l-51 -5q-35 -4 -35 -18v-511q0 -12 35 -16l51 -5z"/>
<glyph glyph-name="Icircumflex" horiz-adv-x="360" unicode="Î" d="M307 677h-27l-99 108h-2l-99 -108h-27l106 187h42zM317 0h-273l3 35l51 5q35 4 35 18v511q0 7 -6.5 10t-28.5 6l-51 5l-3 35h273l-3 -35l-51 -5q-35 -4 -35 -18v-511q0 -12 35 -16l51 -5z"/>
<glyph glyph-name="Idieresis" horiz-adv-x="360" unicode="Ï" d="M139 774q0 -26 -16 -44.5t-43 -18.5t-43 18.5t-16 44.5t16 44.5t43 18.5t43 -18.5t16 -44.5zM339 774q0 -26 -16 -44.5t-43 -18.5t-43 18.5t-16 44.5t16 44.5t43 18.5t43 -18.5t16 -44.5zM317 0h-273l3 35l51 5q35 4 35 18v511q0 7 -6.5 10t-28.5 6l-51 5l-3 35h273 l-3 -35l-51 -5q-35 -4 -35 -18v-511q0 -12 35 -16l51 -5z"/>
<glyph glyph-name="Eth" horiz-adv-x="674" unicode="Ð" d="M208 339h116l3 -41h-119v-244l72 -15h16q112 0 177.5 73t65.5 185q0 134 -78.5 212t-222.5 78h-30v-248zM120 298h-87l3 41h84v216q0 20 -23 24l-54 11l-3 35l222 3h7q159 0 262 -84.5t103 -215.5q0 -151 -96.5 -239.5t-279.5 -88.5h-218l3 35l54 11q23 4 23 24v228z"/>
<glyph glyph-name="Ntilde" horiz-adv-x="752" unicode="Ñ" d="M540 810q-20 -123 -98 -123q-36 0 -86.5 36.5t-66.5 36.5q-14 0 -25 -14t-26 -51h-26q20 123 98 123q28 0 58 -18t54.5 -36.5t40.5 -18.5q14 0 25 14t26 51h26zM719 625l-3 -35l-47 -8q-17 -3 -24.5 -8t-13 -27.5t-6.5 -56.5t-1 -108v-391h-51l-395 539h-5v-287 q0 -74 1 -108t6.5 -56.5t12.5 -27.5t24 -8l48 -8l3 -35h-229l3 35l47 8q17 3 24.5 8t13 27.5t6.5 56.5t1 108v246q0 42 -9.5 63t-33.5 31l-47 7l-3 35h181l357 -489h5v246q0 136 -6.5 165.5t-37.5 34.5l-48 8l-3 35h230z"/>
<glyph glyph-name="Ograve" horiz-adv-x="745" unicode="Ò" d="M420 677h-22l-169 187h98zM593 304q0 133 -65 214.5t-158 81.5t-155.5 -75.5t-62.5 -206.5q0 -134 64.5 -215.5t157.5 -81.5t156 76t63 207zM699 315q0 -136 -95.5 -233.5t-232.5 -97.5q-140 0 -232.5 90.5t-92.5 231.5q0 136 95.5 234t232.5 98q140 0 232.5 -90.5 t92.5 -232.5z"/>
<glyph glyph-name="Oacute" horiz-adv-x="745" unicode="Ó" d="M515 864l-169 -187h-24l91 187h102zM593 304q0 133 -65 214.5t-158 81.5t-155.5 -75.5t-62.5 -206.5q0 -134 64.5 -215.5t157.5 -81.5t156 76t63 207zM699 315q0 -136 -95.5 -233.5t-232.5 -97.5q-140 0 -232.5 90.5t-92.5 231.5q0 136 95.5 234t232.5 98 q140 0 232.5 -90.5t92.5 -232.5z"/>
<glyph glyph-name="Ocircumflex" horiz-adv-x="745" unicode="Ô" d="M499 677h-27l-99 108h-2l-99 -108h-27l106 187h42zM593 304q0 133 -65 214.5t-158 81.5t-155.5 -75.5t-62.5 -206.5q0 -134 64.5 -215.5t157.5 -81.5t156 76t63 207zM699 315q0 -136 -95.5 -233.5t-232.5 -97.5q-140 0 -232.5 90.5t-92.5 231.5q0 136 95.5 234t232.5 98 q140 0 232.5 -90.5t92.5 -232.5z"/>
<glyph glyph-name="Otilde" horiz-adv-x="745" unicode="Õ" d="M536 810q-20 -123 -98 -123q-36 0 -86.5 36.5t-66.5 36.5q-14 0 -25 -14t-26 -51h-26q20 123 98 123q28 0 58 -18t54.5 -36.5t40.5 -18.5q14 0 25 14t26 51h26zM593 304q0 133 -65 214.5t-158 81.5t-155.5 -75.5t-62.5 -206.5q0 -134 64.5 -215.5t157.5 -81.5t156 76 t63 207zM699 315q0 -136 -95.5 -233.5t-232.5 -97.5q-140 0 -232.5 90.5t-92.5 231.5q0 136 95.5 234t232.5 98q140 0 232.5 -90.5t92.5 -232.5z"/>
<glyph glyph-name="Odieresis" horiz-adv-x="745" unicode="Ö" d="M331 774q0 -26 -16 -44.5t-43 -18.5t-43 18.5t-16 44.5t16 44.5t43 18.5t43 -18.5t16 -44.5zM531 774q0 -26 -16 -44.5t-43 -18.5t-43 18.5t-16 44.5t16 44.5t43 18.5t43 -18.5t16 -44.5zM593 304q0 133 -65 214.5t-158 81.5t-155.5 -75.5t-62.5 -206.5 q0 -134 64.5 -215.5t157.5 -81.5t156 76t63 207zM699 315q0 -136 -95.5 -233.5t-232.5 -97.5q-140 0 -232.5 90.5t-92.5 231.5q0 136 95.5 234t232.5 98q140 0 232.5 -90.5t92.5 -232.5z"/>
<glyph glyph-name="multiply" d="M446 403l-169 -168l169 -169l-38 -37l-168 168l-168 -168l-38 37l169 169l-169 168l38 37l168 -168l168 168z" unicode="×"/>
<glyph glyph-name="Oslash" horiz-adv-x="745" unicode="Ø" d="M583 297q0 138 -78 226q-262 -451 -263 -451q57 -43 125 -43q96 0 156 72.5t60 195.5zM475 551q-57 46 -128 46q-96 0 -156 -73t-60 -196q0 -141 81 -229zM674 318q0 -137 -86.5 -235t-230.5 -98q-80 0 -146 32l-53 -91h-46l64 111q-64 42 -100 112t-36 157 q0 137 86.5 235t230.5 98q81 0 149 -34l48 83h47l-60 -103q63 -43 98 -112t35 -155z"/>
<glyph glyph-name="Ugrave" horiz-adv-x="714" unicode="Ù" d="M405 677h-22l-169 187h98zM690 625l-3 -35l-47 -8q-17 -3 -24.5 -8t-13 -27.5t-6.5 -56.5t-1 -108v-178q0 -101 -64.5 -160t-176.5 -59q-114 0 -176.5 56.5t-62.5 167.5v360q0 7 -6.5 10t-28.5 6l-41 5l-3 35h253l-3 -35l-41 -5q-35 -4 -35 -18v-336q0 -190 179 -190 q78 0 122 46t44 127v168q0 136 -6.5 165.5t-37.5 34.5l-48 8l-3 35h230z"/>
<glyph glyph-name="Uacute" horiz-adv-x="714" unicode="Ú" d="M540 864l-169 -187h-24l91 187h102zM690 625l-3 -35l-47 -8q-17 -3 -24.5 -8t-13 -27.5t-6.5 -56.5t-1 -108v-178q0 -101 -64.5 -160t-176.5 -59q-114 0 -176.5 56.5t-62.5 167.5v360q0 7 -6.5 10t-28.5 6l-41 5l-3 35h253l-3 -35l-41 -5q-35 -4 -35 -18v-336 q0 -190 179 -190q78 0 122 46t44 127v168q0 136 -6.5 165.5t-37.5 34.5l-48 8l-3 35h230z"/>
<glyph glyph-name="Ucircumflex" horiz-adv-x="714" unicode="Û" d="M504 677h-27l-99 108h-2l-99 -108h-27l106 187h42zM690 625l-3 -35l-47 -8q-17 -3 -24.5 -8t-13 -27.5t-6.5 -56.5t-1 -108v-178q0 -101 -64.5 -160t-176.5 -59q-114 0 -176.5 56.5t-62.5 167.5v360q0 7 -6.5 10t-28.5 6l-41 5l-3 35h253l-3 -35l-41 -5q-35 -4 -35 -18 v-336q0 -190 179 -190q78 0 122 46t44 127v168q0 136 -6.5 165.5t-37.5 34.5l-48 8l-3 35h230z"/>
<glyph glyph-name="Udieresis" horiz-adv-x="714" unicode="Ü" d="M316 774q0 -26 -16 -44.5t-43 -18.5t-43 18.5t-16 44.5t16 44.5t43 18.5t43 -18.5t16 -44.5zM516 774q0 -26 -16 -44.5t-43 -18.5t-43 18.5t-16 44.5t16 44.5t43 18.5t43 -18.5t16 -44.5zM690 625l-3 -35l-47 -8q-17 -3 -24.5 -8t-13 -27.5t-6.5 -56.5t-1 -108v-178 q0 -101 -64.5 -160t-176.5 -59q-114 0 -176.5 56.5t-62.5 167.5v360q0 7 -6.5 10t-28.5 6l-41 5l-3 35h253l-3 -35l-41 -5q-35 -4 -35 -18v-336q0 -190 179 -190q78 0 122 46t44 127v168q0 136 -6.5 165.5t-37.5 34.5l-48 8l-3 35h230z"/>
<glyph glyph-name="Yacute" horiz-adv-x="602" unicode="Ý" d="M444 864l-169 -187h-24l91 187h102zM606 625l-3 -35l-14 -4q-30 -9 -50 -24t-43 -50l-141 -238v-218q0 -12 35 -16l60 -5l3 -35h-292l3 35l61 5q35 4 35 18v202l-180 286q-21 29 -53 36l-32 8l-3 35h256l-3 -35l-40 -6q-20 -3 -20 -20q0 -25 38 -86l100 -165h5l112 197 q20 32 20 49q0 20 -29 26l-24 5l-3 35h202z"/>
<glyph glyph-name="Thorn" horiz-adv-x="588" unicode="Þ" d="M440 311q0 72 -47 112.5t-131 40.5h-47v-285q40 -10 86 -10q65 0 102 38t37 104zM542 331q0 -95 -69.5 -148t-175.5 -53q-30 0 -82 5v-79q0 -12 35 -16l60 -5l3 -35h-272l3 35l41 5q35 4 35 18v511q0 7 -6.5 10t-28.5 6l-41 5l-3 35h253l-3 -35l-41 -5q-35 -5 -35 -18 v-64h83q118 0 181 -48t63 -124z"/>
<glyph glyph-name="germandbls" horiz-adv-x="520" unicode="ß" d="M329 423q70 -40 122.5 -107t52.5 -145q0 -73 -49.5 -130t-115.5 -57q-47 0 -80.5 25.5t-33.5 62.5q0 28 18 46.5t44 18.5q28 0 42.5 -15.5t14.5 -37.5q0 -40 -33 -54q16 -8 31 -8q37 0 63.5 32t26.5 79q0 67 -51 141t-144 127v26q67 11 98.5 42.5t31.5 89.5q0 39 -27 67 t-64 28q-100 0 -100 -148v-506h-147l3 35l34 3q28 1 28 19v338l-82 5l6 48l71 3l1 12q10 116 61.5 173.5t137.5 57.5q73 0 116 -37.5t43 -100.5q0 -97 -119 -133z"/>
<glyph glyph-name="agrave" horiz-adv-x="448" unicode="à" d="M250 510h-22l-169 187h98zM277 90l5 149q-92 -23 -128 -51.5t-36 -64.5q0 -33 21 -54t51 -21q40 0 87 42zM448 51q-52 -67 -98 -67q-63 0 -67 73h-5q-65 -72 -124 -72q-48 0 -84 34t-36 83q0 61 59.5 100t190.5 70v9q0 78 -24.5 107t-72.5 29q-24 0 -49 -8t-25 -15 q0 -1 5.5 -8.5t11.5 -18.5t6 -23q0 -20 -14.5 -34t-38.5 -14q-23 0 -37.5 13.5t-14.5 33.5q0 37 65.5 79t124.5 42q82 0 114 -36.5t32 -132.5q0 -24 -1 -37l-7 -170q-2 -39 23 -39q18 0 49 24z"/>
<glyph glyph-name="aacute" horiz-adv-x="448" unicode="á" d="M365 697l-169 -187h-24l91 187h102zM277 90l5 149q-92 -23 -128 -51.5t-36 -64.5q0 -33 21 -54t51 -21q40 0 87 42zM448 51q-52 -67 -98 -67q-63 0 -67 73h-5q-65 -72 -124 -72q-48 0 -84 34t-36 83q0 61 59.5 100t190.5 70v9q0 78 -24.5 107t-72.5 29q-24 0 -49 -8 t-25 -15q0 -1 5.5 -8.5t11.5 -18.5t6 -23q0 -20 -14.5 -34t-38.5 -14q-23 0 -37.5 13.5t-14.5 33.5q0 37 65.5 79t124.5 42q82 0 114 -36.5t32 -132.5q0 -24 -1 -37l-7 -170q-2 -39 23 -39q18 0 49 24z"/>
<glyph glyph-name="acircumflex" horiz-adv-x="448" unicode="â" d="M329 510h-27l-99 108h-2l-99 -108h-27l106 187h42zM277 90l5 149q-92 -23 -128 -51.5t-36 -64.5q0 -33 21 -54t51 -21q40 0 87 42zM448 51q-52 -67 -98 -67q-63 0 -67 73h-5q-65 -72 -124 -72q-48 0 -84 34t-36 83q0 61 59.5 100t190.5 70v9q0 78 -24.5 107t-72.5 29 q-24 0 -49 -8t-25 -15q0 -1 5.5 -8.5t11.5 -18.5t6 -23q0 -20 -14.5 -34t-38.5 -14q-23 0 -37.5 13.5t-14.5 33.5q0 37 65.5 79t124.5 42q82 0 114 -36.5t32 -132.5q0 -24 -1 -37l-7 -170q-2 -39 23 -39q18 0 49 24z"/>
<glyph glyph-name="atilde" horiz-adv-x="448" unicode="ã" d="M366 643q-20 -123 -98 -123q-36 0 -86.5 36.5t-66.5 36.5q-14 0 -25 -14t-26 -51h-26q20 123 98 123q28 0 58 -18.5t54.5 -36.5t40.5 -18q14 0 25 14t26 51h26zM277 90l5 149q-92 -23 -128 -51.5t-36 -64.5q0 -33 21 -54t51 -21q40 0 87 42zM448 51q-52 -67 -98 -67 q-63 0 -67 73h-5q-65 -72 -124 -72q-48 0 -84 34t-36 83q0 61 59.5 100t190.5 70v9q0 78 -24.5 107t-72.5 29q-24 0 -49 -8t-25 -15q0 -1 5.5 -8.5t11.5 -18.5t6 -23q0 -20 -14.5 -34t-38.5 -14q-23 0 -37.5 13.5t-14.5 33.5q0 37 65.5 79t124.5 42q82 0 114 -36.5 t32 -132.5q0 -24 -1 -37l-7 -170q-2 -39 23 -39q18 0 49 24z"/>
<glyph glyph-name="adieresis" horiz-adv-x="448" unicode="ä" d="M171 607q0 -26 -16 -44.5t-43 -18.5t-43 18.5t-16 44.5t16 44.5t43 18.5t43 -18.5t16 -44.5zM371 607q0 -26 -16 -44.5t-43 -18.5t-43 18.5t-16 44.5t16 44.5t43 18.5t43 -18.5t16 -44.5zM277 90l5 149q-92 -23 -128 -51.5t-36 -64.5q0 -33 21 -54t51 -21q40 0 87 42z M448 51q-52 -67 -98 -67q-63 0 -67 73h-5q-65 -72 -124 -72q-48 0 -84 34t-36 83q0 61 59.5 100t190.5 70v9q0 78 -24.5 107t-72.5 29q-24 0 -49 -8t-25 -15q0 -1 5.5 -8.5t11.5 -18.5t6 -23q0 -20 -14.5 -34t-38.5 -14q-23 0 -37.5 13.5t-14.5 33.5q0 37 65.5 79t124.5 42 q82 0 114 -36.5t32 -132.5q0 -24 -1 -37l-7 -170q-2 -39 23 -39q18 0 49 24z"/>
<glyph glyph-name="aring" horiz-adv-x="448" unicode="å" d="M277 90l5 149q-92 -23 -128 -51.5t-36 -64.5q0 -33 21 -54t51 -21q40 0 87 42zM276 607q0 26 -16 44.5t-43 18.5t-43 -18.5t-16 -44.5t16 -44.5t43 -18.5t43 18.5t16 44.5zM448 51q-52 -67 -98 -67q-63 0 -67 73h-5q-65 -72 -124 -72q-48 0 -84 34t-36 83q0 61 59.5 100 t190.5 70v9q0 78 -24.5 107t-72.5 29q-24 0 -49 -8t-25 -15q0 -1 5.5 -8.5t11.5 -18.5t6 -23q0 -20 -14.5 -34t-38.5 -14q-23 0 -37.5 13.5t-14.5 33.5q0 37 65.5 79t124.5 42q82 0 114 -36.5t32 -132.5q0 -24 -1 -37l-7 -170q-2 -39 23 -39q18 0 49 24zM306 607 q0 -38 -24.5 -64t-64.5 -26t-64.5 26t-24.5 64t24.5 64t64.5 26t64.5 -26t24.5 -64z"/>
<glyph glyph-name="ae" horiz-adv-x="709" unicode="æ" d="M577 295v15q0 54 -23.5 85t-62.5 31q-43 0 -78 -35.5t-44 -95.5h208zM282 238q-92 -23 -128 -51t-36 -64q0 -34 21 -54.5t54 -20.5q57 0 106 58q-19 49 -19 103q0 15 2 29zM312 83q-71 -98 -158 -98q-48 0 -84 34t-36 83q0 61 59.5 100t190.5 70l1 13q1 7 1 21 q0 58 -27.5 84.5t-71.5 26.5q-24 0 -49 -8t-25 -15q0 -1 5.5 -8.5t11.5 -18.5t6 -23q0 -20 -14.5 -34t-38.5 -14q-23 0 -37.5 13.5t-14.5 33.5q0 37 65.5 79t124.5 42q110 0 133 -67q68 66 159 66q71 0 113.5 -41t42.5 -109q0 -30 -6 -54l-297 4v-11q0 -86 44 -140.5 t111 -54.5q75 0 122 53l20 -11q-28 -55 -75.5 -84.5t-106.5 -29.5q-54 0 -98 26.5t-71 71.5z"/>
<glyph glyph-name="ccedilla" horiz-adv-x="440" unicode="ç" d="M216 -14q-81 7 -132.5 69.5t-51.5 153.5q0 109 70 181.5t167 72.5q65 0 103.5 -28.5t38.5 -67.5q0 -29 -17 -41.5t-39 -12.5q-24 0 -40 20t-16 50q0 11 3 23v2q-22 16 -55 16q-56 0 -92.5 -46t-36.5 -123q0 -85 44 -141.5t111 -56.5q75 0 122 53l20 -11 q-50 -100 -154 -112l-42 -44q61 0 96 -24t35 -67q0 -50 -56 -82.5t-154 -39.5l-9 24q157 19 157 86q0 24 -22 38.5t-63 14.5q-31 0 -62 -6v20z"/>
<glyph glyph-name="egrave" horiz-adv-x="461" unicode="è" d="M278 510h-22l-169 187h98zM329 295v15q0 54 -23.5 85t-62.5 31q-43 0 -78 -35.5t-44 -95.5h208zM415 99q-28 -55 -75.5 -84.5t-106.5 -29.5q-88 0 -144.5 64.5t-56.5 159.5q0 110 67.5 182t165.5 72q71 0 113.5 -41t42.5 -109q0 -30 -6 -54l-297 4v-11q0 -86 44 -140.5 t111 -54.5q75 0 122 53z"/>
<glyph glyph-name="eacute" horiz-adv-x="461" unicode="é" d="M373 697l-169 -187h-24l91 187h102zM329 295v15q0 54 -23.5 85t-62.5 31q-43 0 -78 -35.5t-44 -95.5h208zM415 99q-28 -55 -75.5 -84.5t-106.5 -29.5q-88 0 -144.5 64.5t-56.5 159.5q0 110 67.5 182t165.5 72q71 0 113.5 -41t42.5 -109q0 -30 -6 -54l-297 4v-11 q0 -86 44 -140.5t111 -54.5q75 0 122 53z"/>
<glyph glyph-name="ecircumflex" horiz-adv-x="461" unicode="ê" d="M357 510h-27l-99 108h-2l-99 -108h-27l106 187h42zM329 295v15q0 54 -23.5 85t-62.5 31q-43 0 -78 -35.5t-44 -95.5h208zM415 99q-28 -55 -75.5 -84.5t-106.5 -29.5q-88 0 -144.5 64.5t-56.5 159.5q0 110 67.5 182t165.5 72q71 0 113.5 -41t42.5 -109q0 -30 -6 -54 l-297 4v-11q0 -86 44 -140.5t111 -54.5q75 0 122 53z"/>
<glyph glyph-name="edieresis" horiz-adv-x="461" unicode="ë" d="M189 607q0 -26 -16 -44.5t-43 -18.5t-43 18.5t-16 44.5t16 44.5t43 18.5t43 -18.5t16 -44.5zM389 607q0 -26 -16 -44.5t-43 -18.5t-43 18.5t-16 44.5t16 44.5t43 18.5t43 -18.5t16 -44.5zM329 295v15q0 54 -23.5 85t-62.5 31q-43 0 -78 -35.5t-44 -95.5h208zM415 99 q-28 -55 -75.5 -84.5t-106.5 -29.5q-88 0 -144.5 64.5t-56.5 159.5q0 110 67.5 182t165.5 72q71 0 113.5 -41t42.5 -109q0 -30 -6 -54l-297 4v-11q0 -86 44 -140.5t111 -54.5q75 0 122 53z"/>
<glyph glyph-name="igrave" horiz-adv-x="272" unicode="ì" d="M179 510h-22l-169 187h98zM247 0h-217l3 35l28 3q34 3 34 19v253q0 46 -7.5 60t-35.5 21l-24 6l1 27l148 39v-407q0 -16 38 -18l29 -3z"/>
<glyph glyph-name="iacute" horiz-adv-x="272" unicode="í" d="M279 697l-169 -187h-24l91 187h102zM247 0h-217l3 35l28 3q34 3 34 19v253q0 46 -7.5 60t-35.5 21l-24 6l1 27l148 39v-407q0 -16 38 -18l29 -3z"/>
<glyph glyph-name="icircumflex" horiz-adv-x="272" unicode="î" d="M263 510h-27l-99 108h-2l-99 -108h-27l106 187h42zM247 0h-217l3 35l28 3q34 3 34 19v253q0 46 -7.5 60t-35.5 21l-24 6l1 27l148 39v-407q0 -16 38 -18l29 -3z"/>
<glyph glyph-name="idieresis" horiz-adv-x="272" unicode="ï" d="M95 607q0 -26 -16 -44.5t-43 -18.5t-43 18.5t-16 44.5t16 44.5t43 18.5t43 -18.5t16 -44.5zM295 607q0 -26 -16 -44.5t-43 -18.5t-43 18.5t-16 44.5t16 44.5t43 18.5t43 -18.5t16 -44.5zM247 0h-217l3 35l28 3q34 3 34 19v253q0 46 -7.5 60t-35.5 21l-24 6l1 27l148 39 v-407q0 -16 38 -18l29 -3z"/>
<glyph glyph-name="eth" horiz-adv-x="511" unicode="ð" d="M121 256q0 -58 16.5 -109.5t45.5 -80.5q38 -38 87 -38q55 0 91 43t36 121q0 59 -16 110t-45 80q-38 38 -87 38q-57 0 -92.5 -43t-35.5 -121zM280 565l-149 -50v43l108 36q-48 30 -109 47l12 30q83 -17 151 -59l129 43v-43q-87 -29 -88 -29q151 -121 153 -320 q0 -123 -63 -200.5t-166 -77.5q-99 0 -162.5 69t-63.5 170q0 105 63 170t145 65q101 0 153 -93q-26 125 -113 199z"/>
<glyph glyph-name="ntilde" horiz-adv-x="547" unicode="ñ" d="M437 643q-20 -123 -98 -123q-36 0 -86.5 36.5t-66.5 36.5q-14 0 -25 -14t-26 -51h-26q20 123 98 123q28 0 58 -18.5t54.5 -36.5t40.5 -18q14 0 25 14t26 51h26zM532 0h-215l3 35l26 3q34 2 34 19v209q0 71 -22.5 99.5t-69.5 28.5q-54 0 -111 -42v-296q0 -16 38 -18l34 -3 l3 -35h-222l3 35l28 3q34 3 34 19v253q0 46 -7.5 60t-35.5 21l-24 6l1 27l148 39v-71h5q86 71 160 71q51 0 82 -31q38 -38 38 -112v-263q0 -8 8 -12t33 -7l26 -3z"/>
<glyph glyph-name="ograve" horiz-adv-x="518" unicode="ò" d="M297 510h-22l-169 187h98zM395 195q0 133 -53 189q-35 38 -87 38q-57 0 -94.5 -45.5t-37.5 -123.5q0 -132 54 -189q35 -38 87 -38q55 0 93 45.5t38 123.5zM486 237q0 -105 -68 -178.5t-168 -73.5q-98 0 -158 68t-60 169t69 171t168 70q96 0 156.5 -64.5t60.5 -161.5z"/>
<glyph glyph-name="oacute" horiz-adv-x="518" unicode="ó" d="M412 697l-169 -187h-24l91 187h102zM395 195q0 133 -53 189q-35 38 -87 38q-57 0 -94.5 -45.5t-37.5 -123.5q0 -132 54 -189q35 -38 87 -38q55 0 93 45.5t38 123.5zM486 237q0 -105 -68 -178.5t-168 -73.5q-98 0 -158 68t-60 169t69 171t168 70q96 0 156.5 -64.5 t60.5 -161.5z"/>
<glyph glyph-name="ocircumflex" horiz-adv-x="518" unicode="ô" d="M386 510h-27l-99 108h-2l-99 -108h-27l106 187h42zM395 195q0 133 -53 189q-35 38 -87 38q-57 0 -94.5 -45.5t-37.5 -123.5q0 -132 54 -189q35 -38 87 -38q55 0 93 45.5t38 123.5zM486 237q0 -105 -68 -178.5t-168 -73.5q-98 0 -158 68t-60 169t69 171t168 70 q96 0 156.5 -64.5t60.5 -161.5z"/>
<glyph glyph-name="otilde" horiz-adv-x="518" unicode="õ" d="M423 643q-20 -123 -98 -123q-36 0 -86.5 36.5t-66.5 36.5q-14 0 -25 -14t-26 -51h-26q20 123 98 123q28 0 58 -18.5t54.5 -36.5t40.5 -18q14 0 25 14t26 51h26zM395 195q0 133 -53 189q-35 38 -87 38q-57 0 -94.5 -45.5t-37.5 -123.5q0 -132 54 -189q35 -38 87 -38 q55 0 93 45.5t38 123.5zM486 237q0 -105 -68 -178.5t-168 -73.5q-98 0 -158 68t-60 169t69 171t168 70q96 0 156.5 -64.5t60.5 -161.5z"/>
<glyph glyph-name="odieresis" horiz-adv-x="518" unicode="ö" d="M218 607q0 -26 -16 -44.5t-43 -18.5t-43 18.5t-16 44.5t16 44.5t43 18.5t43 -18.5t16 -44.5zM418 607q0 -26 -16 -44.5t-43 -18.5t-43 18.5t-16 44.5t16 44.5t43 18.5t43 -18.5t16 -44.5zM395 195q0 133 -53 189q-35 38 -87 38q-57 0 -94.5 -45.5t-37.5 -123.5 q0 -132 54 -189q35 -38 87 -38q55 0 93 45.5t38 123.5zM486 237q0 -105 -68 -178.5t-168 -73.5q-98 0 -158 68t-60 169t69 171t168 70q96 0 156.5 -64.5t60.5 -161.5z"/>
<glyph glyph-name="divide" horiz-adv-x="486" unicode="÷" d="M296 374q0 -21 -15 -36.5t-37 -15.5t-36.5 15.5t-14.5 36.5t14.5 36.5t36.5 15.5t37 -15.5t15 -36.5zM296 94q0 -21 -14.5 -36.5t-36.5 -15.5t-37 15.5t-15 36.5t15 36t37 15t36.5 -15t14.5 -36zM446 208h-405l3 53h399z"/>
<glyph glyph-name="oslash" horiz-adv-x="518" unicode="ø" d="M398 193q0 99 -44 162l-169 -293q39 -34 90 -34q53 0 88 44t35 121zM330 384q-38 36 -91 36q-54 0 -88.5 -43t-34.5 -122q0 -101 45 -165zM494 598l-103 -178q42 -32 65.5 -83.5t23.5 -112.5q0 -101 -64.5 -170t-160.5 -69q-53 0 -101 24l-79 -138h-40l90 156 q-90 68 -90 197q0 101 64.5 170t160.5 69q54 0 102 -24l92 159h40z"/>
<glyph glyph-name="ugrave" horiz-adv-x="529" unicode="ù" d="M292 510h-22l-169 187h98zM522 28l-3 -25l-157 -18v71h-5q-86 -71 -160 -71q-51 0 -82 31q-38 38 -38 112l3 263q0 5 -1 8t-2.5 4.5t-5.5 2.5t-7.5 1t-12 1t-15.5 2l-24 3l-3 35h158l-8 -266q0 -71 22.5 -99.5t69.5 -28.5q54 0 111 42v296q0 8 -7.5 12t-30.5 6l-39 3 l-4 35h163v-377q0 -19 11 -23z"/>
<glyph glyph-name="uacute" horiz-adv-x="529" unicode="ú" d="M407 697l-169 -187h-24l91 187h102zM522 28l-3 -25l-157 -18v71h-5q-86 -71 -160 -71q-51 0 -82 31q-38 38 -38 112l3 263q0 5 -1 8t-2.5 4.5t-5.5 2.5t-7.5 1t-12 1t-15.5 2l-24 3l-3 35h158l-8 -266q0 -71 22.5 -99.5t69.5 -28.5q54 0 111 42v296q0 8 -7.5 12t-30.5 6 l-39 3l-4 35h163v-377q0 -19 11 -23z"/>
<glyph glyph-name="ucircumflex" horiz-adv-x="529" unicode="û" d="M381 510h-27l-99 108h-2l-99 -108h-27l106 187h42zM522 28l-3 -25l-157 -18v71h-5q-86 -71 -160 -71q-51 0 -82 31q-38 38 -38 112l3 263q0 5 -1 8t-2.5 4.5t-5.5 2.5t-7.5 1t-12 1t-15.5 2l-24 3l-3 35h158l-8 -266q0 -71 22.5 -99.5t69.5 -28.5q54 0 111 42v296 q0 8 -7.5 12t-30.5 6l-39 3l-4 35h163v-377q0 -19 11 -23z"/>
<glyph glyph-name="udieresis" horiz-adv-x="529" unicode="ü" d="M409 607q0 -26 -16 -44.5t-43 -18.5t-43 18.5t-16 44.5t16 44.5t43 18.5t43 -18.5t16 -44.5zM209 607q0 -26 -16 -44.5t-43 -18.5t-43 18.5t-16 44.5t16 44.5t43 18.5t43 -18.5t16 -44.5zM522 28l-3 -25l-157 -18v71h-5q-86 -71 -160 -71q-51 0 -82 31q-38 38 -38 112 l3 263q0 5 -1 8t-2.5 4.5t-5.5 2.5t-7.5 1t-12 1t-15.5 2l-24 3l-3 35h158l-8 -266q0 -71 22.5 -99.5t69.5 -28.5q54 0 111 42v296q0 8 -7.5 12t-30.5 6l-39 3l-4 35h163v-377q0 -19 11 -23z"/>
<glyph glyph-name="yacute" horiz-adv-x="459" unicode="ý" d="M372 697l-169 -187h-24l91 187h102zM484 448l-3 -34l-26 -7q-22 -3 -33.5 -16.5t-28.5 -57.5l-117 -308l-50 -153q-23 -70 -48.5 -101.5t-66.5 -31.5q-32 0 -49.5 15t-17.5 40q0 23 12.5 38t36.5 15q38 0 59 -32q18 9 39 66l42 117v2l-178 368q-10 21 -18.5 27.5 t-32.5 10.5l-21 6l-4 36h220l-3 -35l-25 -4q-26 -2 -26 -20q0 -8 4 -16l120 -265l82 232q9 26 9 39q0 24 -34 28l-27 7l-3 34h188z"/>
<glyph glyph-name="thorn" horiz-adv-x="515" unicode="þ" d="M394 204q0 83 -34.5 132.5t-89.5 49.5q-65 0 -113 -59v-240q55 -61 114 -61q50 0 86.5 50t36.5 128zM483 241q0 -103 -63 -179.5t-170 -76.5q-46 0 -92 14h-1v-189q0 -16 38 -18l39 -3l3 -35h-227l3 35l28 3q34 3 34 19v767q0 19 -11 23l-67 28l3 25l157 43v-315h5 q66 74 143 74q82 0 130 -61.5t48 -153.5z"/>
<glyph glyph-name="OE" horiz-adv-x="944" unicode="Œ" d="M472 41v533l-72 15q-122 0 -190.5 -74t-68.5 -189q0 -130 79 -207.5t222 -77.5h30zM900 181l-19 -181h-464q-165 0 -268 84.5t-103 215.5q0 141 98 233.5t278 92.5l460 -1v-186h-44l-24 97q-4 16 -9 23t-14.5 14t-35 9t-57.5 3t-95 1h-43v-249h36q61 0 78 3.5t22 18.5 l23 67h36l-21 -215h-35l-8 64q-2 15 -18 19.5t-79 4.5h-34v-260h33q108 0 151.5 4t58 13t22.5 33l25 92h50z"/>
<glyph glyph-name="oe" horiz-adv-x="824" unicode="œ" d="M692 295v15q0 54 -23.5 85t-62.5 31q-43 0 -78 -35.5t-44 -95.5h208zM395 192v6q0 130 -53 186q-35 38 -87 38q-57 0 -94 -44t-38 -122v-6q0 -129 54 -186q35 -38 87 -38q55 0 92.5 44t38.5 122zM433 74q-70 -89 -183 -89q-97 0 -157.5 66t-60.5 164v9q3 101 71 170 t166 69q116 0 177 -92q68 92 182 92q71 0 113.5 -41t42.5 -109q0 -30 -6 -54l-297 4v-11q0 -86 44 -140.5t111 -54.5q75 0 122 53l20 -11q-28 -55 -75.5 -84.5t-106.5 -29.5q-106 0 -163 89z"/>
<glyph glyph-name="Scaron" horiz-adv-x="517" unicode="Š" d="M385 864l-106 -187h-42l-106 187h27l99 -108h2l99 108h27zM472 171q0 -74 -64 -129.5t-170 -56.5h-8q-79 0 -169 30l-14 178h42l45 -137q62 -29 118 -29h4q61 1 95.5 34t34.5 78q0 26 -9 47t-20.5 33.5t-36 26.5t-39.5 20t-49 19q-33 13 -53 22t-45.5 25.5t-40 33.5 t-24.5 43.5t-10 58.5q0 69 53 119.5t155 51.5h12q53 0 108 -11l52 14v-199h-42l-31 128q-56 24 -113 24q-53 0 -82 -28t-29 -68q0 -19 4 -34.5t17 -29.5t19 -21t31 -19t30 -14t37 -15q8 -3 12 -5q34 -13 55 -22.5t48 -26.5t41.5 -34.5t25 -45t10.5 -61.5z"/>
<glyph glyph-name="scaron" horiz-adv-x="406" unicode="š" d="M330 697l-106 -187h-42l-106 187h27l99 -108h2l99 108h27zM365 130q0 -60 -47.5 -102.5t-127.5 -42.5q-79 0 -135 21l-6 132h50l23 -88q38 -28 80 -28q33 0 62 22.5t29 57.5q0 14 -7 25.5t-14.5 19t-26 17t-28 13t-34.5 13.5q-31 12 -49.5 21.5t-40 26t-32 39.5t-10.5 54 q0 53 43 93.5t117 40.5q55 0 100 -17l31 13l6 -142h-49l-20 83q-33 25 -76 25q-33 0 -56 -18.5t-23 -47.5q0 -31 23.5 -48t83.5 -41q31 -12 49.5 -21.5t41 -26.5t33 -40.5t10.5 -53.5z"/>
<glyph glyph-name="Ydieresis" horiz-adv-x="602" unicode="Ÿ" d="M280 774q0 -26 -16 -44.5t-43 -18.5t-43 18.5t-16 44.5t16 44.5t43 18.5t43 -18.5t16 -44.5zM480 774q0 -26 -16 -44.5t-43 -18.5t-43 18.5t-16 44.5t16 44.5t43 18.5t43 -18.5t16 -44.5zM606 625l-3 -35l-14 -4q-30 -9 -50 -24t-43 -50l-141 -238v-218q0 -12 35 -16 l60 -5l3 -35h-292l3 35l61 5q35 4 35 18v202l-180 286q-21 29 -53 36l-32 8l-3 35h256l-3 -35l-40 -6q-20 -3 -20 -20q0 -25 38 -86l100 -165h5l112 197q20 32 20 49q0 20 -29 26l-24 5l-3 35h202z"/>
<glyph glyph-name="circumflex" horiz-adv-x="400" unicode="ˆ" d="M327 510h-27l-99 108h-2l-99 -108h-27l106 187h42z"/>
<glyph glyph-name="tilde" horiz-adv-x="400" unicode="˜" d="M364 643q-20 -123 -98 -123q-36 0 -86.5 36.5t-66.5 36.5q-14 0 -25 -14t-26 -51h-26q20 123 98 123q28 0 58 -18.5t54.5 -36.5t40.5 -18q14 0 25 14t26 51h26z"/>
<glyph glyph-name="thinspace" horiz-adv-x="76" unicode=" "/>
<glyph glyph-name="endash" horiz-adv-x="470" unicode="–" d="M445 208h-418l3 53h412z"/>
<glyph glyph-name="emdash" horiz-adv-x="940" unicode="—" d="M915 208h-888l3 53h882z"/>
<glyph glyph-name="quoteleft" horiz-adv-x="232" unicode="‘" d="M195 435q0 -26 -19 -43.5t-51 -17.5q-34 0 -63 27.5t-29 66.5q0 57 39.5 104t103.5 95l26 -16q-34 -25 -60 -60t-26 -71q0 -17 8 -31.5t20 -23.5t23.5 -15.5t19.5 -10t8 -4.5z"/>
<glyph glyph-name="quotesinglbase" horiz-adv-x="232" unicode="‚" d="M203 23q0 -57 -39.5 -104t-103.5 -95l-26 16q34 25 60 60t26 71q0 17 -8 31.5t-20 23.5t-23.5 15.5t-19.5 10t-8 4.5q0 26 19 43.5t51 17.5q34 0 63 -27.5t29 -66.5z"/>
<glyph glyph-name="quotedblleft" horiz-adv-x="434" unicode="“" d="M195 435q0 -26 -19 -43.5t-51 -17.5q-34 0 -63 27.5t-29 66.5q0 57 39.5 104t103.5 95l26 -16q-34 -25 -60 -60t-26 -71q0 -17 8 -31.5t20 -23.5t23.5 -15.5t19.5 -10t8 -4.5zM411 435q0 -26 -19 -43.5t-51 -17.5q-34 0 -63 27.5t-29 66.5q0 57 39.5 104t103.5 95l26 -16 q-34 -25 -60 -60t-26 -71q0 -17 8 -31.5t20 -23.5t23.5 -15.5t19.5 -10t8 -4.5z"/>
<glyph glyph-name="quotedblright" horiz-adv-x="434" unicode="”" d="M203 565q0 -57 -39.5 -104t-103.5 -95l-26 16q34 25 60 60t26 71q0 17 -8 31.5t-20 23.5t-23.5 15.5t-19.5 10t-8 4.5q0 26 19 43.5t51 17.5q34 0 63 -27.5t29 -66.5zM420 565q0 -57 -39.5 -104t-103.5 -95l-26 16q34 25 60 60t26 71q0 17 -8 31.5t-19.5 23.5t-23.5 15.5 t-20 10t-8 4.5q0 26 19 43.5t51 17.5q34 0 63 -27.5t29 -66.5z"/>
<glyph glyph-name="dagger" horiz-adv-x="470" unicode="†" d="M440 432l-4 -41h-180v-547h-40v547h-179l-4 41h183v193h40v-193h184z"/>
<glyph glyph-name="daggerdbl" horiz-adv-x="470" unicode="‡" d="M440 21h-184v-177h-40v177h-183l4 41h179v344h-179l-4 41h183v178h40v-178h184l-4 -41h-180v-344h180z"/>
<glyph glyph-name="ellipsis" horiz-adv-x="696" unicode="…" d="M184 52q0 -27 -19 -47t-47 -20q-29 0 -48.5 20t-19.5 47t19.5 46t48.5 19t47.5 -19t18.5 -46zM416 52q0 -27 -19 -47t-47 -20q-29 0 -48.5 20t-19.5 47t19.5 46t48.5 19t47.5 -19t18.5 -46zM648 52q0 -27 -19 -47t-47 -20q-29 0 -48.5 20t-19.5 47t19.5 46t48.5 19 t47.5 -19t18.5 -46z"/>
<glyph glyph-name="perthousand" horiz-adv-x="1126" unicode="‰" d="M680 142q0 49 -32 84.5t-85 35.5t-85 -35.5t-32 -84.5q0 -52 32 -87t85 -35t85 35t32 87zM1060 142q0 49 -32 84.5t-85 35.5t-85 -35.5t-32 -84.5q0 -52 32 -87t85 -35t85 35t32 87zM300 482q0 52 -32 87t-85 35t-85 -35t-32 -87q0 -49 32 -84.5t85 -35.5t85 35.5 t32 84.5zM729 142q0 -70 -45.5 -118.5t-120.5 -48.5t-120.5 48t-45.5 119q0 69 45.5 117t120.5 48q74 0 120 -48t46 -117zM1109 142q0 -70 -45.5 -118.5t-120.5 -48.5t-120.5 48t-45.5 119q0 69 45.5 117t120.5 48q74 0 120 -48t46 -117zM654 639l-507 -654h-54l507 654h54z M349 482q0 -69 -45.5 -117t-120.5 -48q-74 0 -120 48t-46 117q0 70 45.5 118.5t120.5 48.5t120.5 -48t45.5 -119z"/>
<glyph glyph-name="guilsinglleft" horiz-adv-x="310" unicode="‹" d="M265 66l-10 -20l-217 152v46l217 152l10 -20l-143 -155z"/>
<glyph glyph-name="guilsinglright" horiz-adv-x="310" unicode="›" d="M275 198l-217 -152l-10 20l143 155l-143 155l10 20l217 -152v-46z"/>
<glyph glyph-name="fraction" horiz-adv-x="525" unicode="⁄" d="M525 638l-467 -654h-58l468 654h57z"/>
<glyph glyph-name="Euro" horiz-adv-x="524" unicode="€" d="M507 109q-63 -124 -187 -124q-87 0 -148.5 62.5t-79.5 165.5h-67l3 41h58q-1 13 -1 39q0 14 2 42h-62l3 41h64q21 113 92.5 183t168.5 70q62 0 107 -24.5t45 -58.5q0 -22 -13.5 -36t-35.5 -14q-26 0 -42.5 21.5t-22.5 51.5q-25 16 -56 16q-66 0 -108 -56t-53 -153h199 l3 -41h-205v-22q0 -32 3 -59h199l3 -41h-195q18 -79 62.5 -120.5t106.5 -41.5q75 0 137 69z"/>
<glyph glyph-name="trademark" horiz-adv-x="917" unicode="™" d="M368 625v-136h-30l-6 19q-18 56 -35 72t-67 16h-1v-296q0 -11 12 -14l44 -6l1 -27h-181l2 27l44 6q13 3 13 14v296h-1q-42 0 -61.5 -17.5t-37.5 -70.5l-7 -19h-27l7 136h331zM895 253h-163l1 27l30 7q12 4 12 43v19l-4 232h-10l-107 -316h-50l-85 319h-10l-6 -195 q-2 -56 -2 -63q0 -36 13 -41l32 -5l1 -27h-132l2 27l30 5q7 1 11 7.5t7.5 29t4.5 67.5l6 188q0 13 -12 15l-35 6l-2 27h146l68 -278h10l90 278h148l-2 -27l-34 -6q-14 -3 -14 -15l4 -228q1 -59 20 -62l30 -7z"/>
<glyph glyph-name="minus" horiz-adv-x="486" unicode="−" d="M446 208h-405l3 53h399z"/>
<glyph glyph-name="approxequal" d="M154 156q-15 0 -24 -2t-22 -15.5t-22 -40.5h-46q10 53 39.5 82t71.5 29q27 0 90 -33t85 -33q15 0 24 2t22 15.5t22 40.5h46q-10 -53 -39.5 -82t-71.5 -29q-33 0 -96 33t-79 33zM154 325q-15 0 -24 -2t-22 -15.5t-22 -40.5h-46q10 53 39.5 82t71.5 29q27 0 90 -33t85 -33 q15 0 24 2t22 15.5t22 40.5h46q-10 -53 -39.5 -82t-71.5 -29q-33 0 -96 33t-79 33z" unicode="≈"/>
<glyph glyph-name="notequal" d="M142 -23l41 144h-142l3 53h154l34 121h-188l-3 53h206l38 134h52l-38 -134h140l-3 -53h-152l-34 -121h186l3 -53h-204l-41 -144h-52z" unicode="≠"/>
<glyph glyph-name="lessequal" d="M448 6h-416l3 53h410zM128 270l310 -129l-11 -48l-395 166v32l395 166l11 -48l-310 -129v-10z" unicode="≤"/>
<glyph glyph-name="greaterequal" d="M448 6h-416l3 53h410zM352 270v10l-310 129l11 48l395 -166v-32l-395 -166l-11 48z" unicode="≥"/>
</font>
</defs>
</svg>
