<?xml version="1.0" encoding="UTF-8" standalone="no"?>
<!DOCTYPE svg  PUBLIC '-//W3C//DTD SVG 1.1//EN'  'http://www.w3.org/Graphics/SVG/1.1/DTD/svg11.dtd'>
<svg xmlns="http://www.w3.org/2000/svg">
<defs>
<font id="FreightTextProBlack-Italic" horiz-adv-x="480">
<font-face slope="-12" underline-position="-113" font-weight="900" descent="-200" panose-1="2 0 10 3 8 0 0 9 0 4" units-per-em="1000" unicode-range="U+0020-2265" bbox="-204 -280 1100 864" x-height="473" underline-thickness="20" font-family="FreightTextProBlack" ascent="800" font-style="italic" cap-height="625"/>
<missing-glyph horiz-adv-x="1000"/>
<glyph glyph-name=".notdef" horiz-adv-x="1000"/>
<glyph glyph-name=".null" horiz-adv-x="0"/>
<glyph glyph-name="nonmarkingreturn" horiz-adv-x="333"/>
<glyph glyph-name="space" horiz-adv-x="228" unicode=" "/>
<glyph glyph-name="exclam" horiz-adv-x="304" unicode="!" d="M205 63q0 -32 -23 -55.5t-56 -23.5t-56 23t-23 56t23 56.5t56 23.5t56 -23.5t23 -56.5zM289 571l-125 -363q-3 -7 -15 -7q-14 0 -14 9l-2 371q0 26 22 42t55 16h5q33 0 55 -15t22 -38q0 -8 -3 -15z"/>
<glyph glyph-name="quotedbl" horiz-adv-x="390" unicode='&quot;' d="M243 610l-165 -207h-52l115 242h1zM423 610l-165 -207h-52l115 242h1z"/>
<glyph glyph-name="numbersign" horiz-adv-x="596" unicode="#" d="M381 232l39 160h-144l-40 -160h145zM614 392h-135l-41 -160h121l-2 -58h-137l-48 -180h-57l46 180h-143l-48 -180h-59l48 180h-120l2 58h136l41 160h-122l3 56h136l48 183h59l-47 -183h142l49 183h57l-47 -183h121z"/>
<glyph glyph-name="dollar" horiz-adv-x="567" unicode="$" d="M294 409l45 170h-18q-45 0 -72 -23t-27 -51q0 -55 72 -96zM295 224l-48 -181q6 -1 21 -1q49 0 76.5 25t27.5 66q0 29 -19.5 49.5t-57.5 41.5zM233 -14l-41 -152h-54l42 155q-62 7 -154 32l23 206l87 -3l33 -163l28 -8l51 189q-91 41 -132 83.5t-41 119.5q0 81 71 136.5 t181 55.5q18 0 26 -1l28 102h54l-29 -108q28 -5 98 -22l58 21l-28 -217l-82 3l-30 145l-32 9l-49 -179q92 -46 133.5 -85.5t41.5 -110.5q0 -98 -71.5 -153.5t-185.5 -55.5q-18 0 -26 1z"/>
<glyph glyph-name="percent" horiz-adv-x="746" unicode="%" d="M671 158q0 47 -32.5 78t-79.5 31q-54 0 -92 -42t-38 -97q0 -49 31.5 -79t78.5 -30q55 0 93.5 41.5t38.5 97.5zM335 490q0 50 -31.5 81.5t-80.5 31.5q-54 0 -92 -42t-38 -97q0 -49 32 -79t80 -30q55 0 92.5 39.5t37.5 95.5zM719 164q0 -77 -54 -132t-130 -55 q-68 0 -111 40t-43 107q0 78 52.5 132.5t129.5 54.5q66 0 111 -40t45 -107zM724 639l-630 -654h-59l630 654h59zM385 500q0 -78 -53.5 -132.5t-130.5 -54.5q-66 0 -111 41t-45 108q0 76 53.5 130.5t128.5 54.5q67 0 112.5 -40t45.5 -107z"/>
<glyph glyph-name="ampersand" horiz-adv-x="699" unicode="&amp;" d="M345 134l-147 162q-53 -56 -53 -112q0 -36 25.5 -57.5t69.5 -21.5q59 0 105 29zM382 508q0 35 -19.5 59.5t-48.5 24.5t-49 -23.5t-20 -59.5t15.5 -64t52.5 -64q34 25 51.5 60t17.5 67zM377 111h-2q-104 -125 -230 -125q-61 0 -102 45t-41 116q0 70 50.5 114.5t113.5 60.5 v2q-71 62 -71 138q0 82 73.5 129.5t164.5 47.5q87 0 141.5 -37t54.5 -97q0 -57 -51 -96.5t-132 -55.5v-2l124 -128h2l94 88v3q-32 28 -32 63q0 33 24 56t58 23q40 0 65.5 -25.5t25.5 -64.5q0 -53 -46.5 -90t-139.5 -68l-26 -9l154 -163l-151 -66z"/>
<glyph glyph-name="quotesingle" horiz-adv-x="210" unicode="&apos;" d="M243 610l-165 -207h-52l115 242h1z"/>
<glyph glyph-name="parenleft" horiz-adv-x="395" unicode="(" d="M359 -253q-45 22 -90 62.5t-87 97.5t-68 137t-26 166t26 165.5t68 137t87 97.5t90 63l29 -42q-41 -22 -81.5 -60.5t-77 -91t-59 -123.5t-22.5 -146q0 -145 75 -259t165 -161z"/>
<glyph glyph-name="parenright" horiz-adv-x="395" unicode=")" d="M38 -253l-30 41q90 49 164.5 163t74.5 259q0 144 -74.5 258t-164.5 163l30 42q44 -23 88.5 -63t86.5 -97.5t68 -137t26 -165.5t-26 -166t-68 -137t-86.5 -97.5t-88.5 -62.5z"/>
<glyph glyph-name="asterisk" horiz-adv-x="359" unicode="*" d="M396 463l-43 -44l-112 48l-10 -13l83 -92l-26 -52l-21 -8l-56 25l7 124l-15 4l-56 -108l-61 6l-15 17l5 62l118 32v21l-118 32l-5 62l15 17l61 6l56 -107l16 5l-8 122l56 25l21 -8l26 -52l-83 -92l10 -13l112 48l43 -45v-22z"/>
<glyph glyph-name="plus" d="M453 205h-182v-181h-61v181h-183l3 61h180v181h61v-181h179z" unicode="+"/>
<glyph glyph-name="comma" horiz-adv-x="232" unicode="," d="M187 53q0 -60 -56 -120t-151 -107l-25 29q117 70 117 140q0 17 -7 32t-17 25t-20.5 17.5t-17.5 11.5t-7 5q0 27 25 50t59 23q46 0 73 -31.5t27 -74.5z"/>
<glyph glyph-name="hyphen" horiz-adv-x="338" unicode="-" d="M307 221h-274l3 67h268z"/>
<glyph glyph-name="period" horiz-adv-x="232" unicode="." d="M185 72q0 -36 -25.5 -62t-62.5 -26t-62.5 25.5t-25.5 62.5t25.5 63t62.5 26q36 0 62 -26.5t26 -62.5z"/>
<glyph glyph-name="slash" horiz-adv-x="279" unicode="/" d="M2 -212l217 877h56l-217 -877h-56z"/>
<glyph glyph-name="zero" horiz-adv-x="525" unicode="0" d="M382 275q0 55 -32.5 92t-77.5 37q-35 0 -62 -20t-41.5 -51.5t-22 -64.5t-7.5 -63q0 -55 31.5 -91t75.5 -36q66 0 101 64t35 133zM481 275q0 -115 -66.5 -202.5t-170.5 -87.5q-88 0 -147 59.5t-59 160.5q0 116 67.5 204t170.5 88q88 0 146.5 -60t58.5 -162z"/>
<glyph glyph-name="one" horiz-adv-x="383" unicode="1" d="M331 0h-315l9 48l56 11q24 4 26 23l40 306l-103 11l8 38l262 67l-55 -422q-2 -19 20 -23l55 -11z"/>
<glyph glyph-name="two" horiz-adv-x="488" unicode="2" d="M449 177l-60 -177h-384l3 83q145 95 179 122q69 57 76 106q1 5 1 14q0 33 -19.5 54.5t-59.5 24.5h-9q-51 0 -122 -51l-10 32q45 47 109 79t125 32h13q65 -5 102.5 -37.5t37.5 -84.5q0 -12 -1 -18q-4 -28 -22 -54.5t-53 -52t-66 -44.5t-82.5 -48.5t-80.5 -47.5l-1 -5h48 q125 0 157 4.5t45 23.5l31 45h43z"/>
<glyph glyph-name="three" horiz-adv-x="453" unicode="3" d="M395 46q0 -66 -46.5 -122t-112.5 -86t-130 -30q-34 0 -68 9t-62 33t-28 60q0 29 20 50t49 21q40 0 57 -32t17 -75v-13q3 0 7 -0.5t7 -0.5q60 0 98.5 43.5t38.5 104.5q0 49 -30 80.5t-79 31.5q-22 0 -76 -13l-15 38q11 6 36 18.5t35.5 18t31 16.5t30 17.5t24 17.5 t21.5 19.5t14.5 20t10.5 23.5t3 25q0 38 -27.5 59.5t-66.5 21.5q-53 0 -126 -51l-11 33q46 48 109.5 80t125.5 32q60 0 106.5 -31.5t46.5 -88.5q0 -17 -4.5 -32.5t-10 -28t-18.5 -26t-21.5 -22.5t-27 -20.5t-27 -17t-30.5 -16t-29.5 -14t-30.5 -13.5t-26 -11v-7q35 11 71 11 q61 0 102.5 -37t41.5 -96z"/>
<glyph glyph-name="four" horiz-adv-x="567" unicode="4" d="M274 81l38 254h-5l-234 -254h201zM524 18h-118l-26 -202h-141l26 202h-263l-3 53l397 433l71 -22l-52 -401h125z"/>
<glyph glyph-name="five" horiz-adv-x="490" unicode="5" d="M463 483l-20 -123h-270l-36 -83q254 -96 254 -250q0 -98 -81 -162t-181 -64q-26 0 -54.5 5t-57.5 16t-48 32.5t-19 50.5q0 30 19.5 52t48.5 22q72 0 72 -95q0 -3 -0.5 -9.5t-0.5 -9.5q33 -15 64 -15q48 0 77 35.5t29 84.5q0 39 -21.5 72.5t-60 58.5t-69.5 40t-73 31 l126 311h302z"/>
<glyph glyph-name="six" horiz-adv-x="565" unicode="6" d="M374 242q0 56 -21.5 85t-52.5 29q-51 0 -95 -70q-21 -52 -21 -124q0 -58 22.5 -92.5t56.5 -34.5q45 0 78 61t33 146zM531 257q0 -115 -86 -193.5t-184 -78.5q-97 0 -160.5 63t-63.5 174q0 107 68.5 208.5t189 170t260.5 81.5l27 -44q-148 -33 -247.5 -109t-134.5 -184 l5 -3q85 92 179 92q60 0 103.5 -50.5t43.5 -126.5z"/>
<glyph glyph-name="seven" horiz-adv-x="500" unicode="7" d="M501 445l-398 -629h-91l368 553v1h-70q-118 0 -149.5 -6t-45.5 -27l-41 -60h-43l55 206h415v-38z"/>
<glyph glyph-name="eight" horiz-adv-x="560" unicode="8" d="M370 120q0 18 -7.5 35.5t-15.5 28.5t-28 26.5t-27.5 20.5t-34 19.5t-29.5 16.5q-60 -42 -60 -121q0 -50 29 -81t78 -31q41 0 68 22.5t27 63.5zM395 483q0 46 -24.5 76t-68.5 30q-40 0 -65 -24t-25 -63q0 -17 6.5 -33t14.5 -26.5t24.5 -23t25.5 -18.5t30 -18t27 -15 q55 41 55 115zM510 180q0 -87 -77 -140.5t-170 -53.5q-94 0 -165.5 40t-71.5 115q0 60 44 102t106 52v2q-101 63 -101 144q0 88 70.5 142.5t164.5 54.5q60 0 110 -15t83.5 -50t33.5 -86q0 -61 -42 -96t-106 -48v-2q121 -73 121 -161z"/>
<glyph glyph-name="nine" horiz-adv-x="565" unicode="9" d="M183 241q0 -57 22 -90.5t52 -33.5q51 0 95 70q21 63 21 134q0 58 -22.5 92.5t-56.5 34.5q-45 0 -78 -61t-33 -146zM26 226q0 115 86 193.5t184 78.5q97 0 160.5 -63t63.5 -174q0 -107 -68.5 -208.5t-189 -170t-260.5 -81.5l-27 44q146 33 246 107.5t136 175.5l-5 3 q-85 -92 -179 -92q-59 0 -103 55t-44 132z"/>
<glyph glyph-name="colon" horiz-adv-x="232" unicode=":" d="M185 72q0 -36 -25.5 -62t-62.5 -26t-62.5 25.5t-25.5 62.5t25.5 63t62.5 26q36 0 62 -26.5t26 -62.5zM227 371q0 -36 -25.5 -62t-62.5 -26t-62.5 25.5t-25.5 62.5t25.5 63t62.5 26q36 0 62 -26.5t26 -62.5z"/>
<glyph glyph-name="semicolon" horiz-adv-x="232" unicode=";" d="M187 43q0 -60 -56 -120t-151 -107l-25 29q117 70 117 140q0 17 -7 32t-17 25t-20.5 17.5t-17.5 11.5t-7 5q0 27 25 50t59 23q46 0 73 -31.5t27 -74.5zM227 371q0 -36 -25.5 -62t-62.5 -26t-62.5 25.5t-25.5 62.5t25.5 63t62.5 26q36 0 62 -26.5t26 -62.5z"/>
<glyph glyph-name="less" d="M433 33l-409 186v31l409 187l15 -55l-324 -146v-1l324 -147z" unicode="&lt;"/>
<glyph glyph-name="equal" d="M443 120h-406l3 61h400zM440 288h-400l-3 61h406z" unicode="="/>
<glyph glyph-name="greater" d="M456 219l-409 -186l-15 55l324 147v1l-324 146l15 55l409 -187v-31z" unicode="&gt;"/>
<glyph glyph-name="question" horiz-adv-x="403" unicode="?" d="M209 63q0 -32 -23 -55.5t-56 -23.5t-56 23t-23 56t23 56.5t56 23.5t56 -23.5t23 -56.5zM417 448q0 -39 -13.5 -68.5t-38.5 -47.5t-47 -28t-54 -19q-7 -2 -18.5 -5.5t-17.5 -5.5l-15 -5t-13.5 -5.5t-9 -5.5t-6.5 -7t-2 -8q0 -30 34 -53h-68q-27 14 -44 40t-17 53 q0 28 13.5 50t39.5 36.5t48.5 23t55.5 16.5q71 19 80 27q4 4 4 8q0 25 -37.5 43.5t-92.5 18.5q-35 0 -75 -8q-24 24 -24 52q0 39 31.5 64t86.5 25q80 0 140 -54.5t60 -136.5z"/>
<glyph glyph-name="at" horiz-adv-x="910" unicode="@" d="M537 355q-16 27 -48.5 46t-52.5 19q-17 0 -30 -13q-17 -17 -38.5 -80.5t-21.5 -106.5q0 -32 12.5 -52.5t32.5 -20.5q11 0 22 6.5t23 20.5t21 26.5t25 35.5t25 36zM482 102q0 12 7.5 36.5t19 56.5t14.5 43h-11q-12 -19 -36 -56.5t-36 -54t-30.5 -38.5t-36.5 -30.5 t-39 -8.5q-52 0 -84.5 34.5t-32.5 96.5q0 61 32 128t82 116q63 63 129 63q40 0 60.5 -21t32.5 -63h10l31 84h121l-62 -173l-51 -183q-3 -13 20.5 -25.5t55.5 -12.5q62 0 104 66.5t42 154.5q0 149 -98 233t-259 84q-157 0 -268.5 -115.5t-111.5 -270.5q0 -164 103 -264.5 t266 -100.5q59 0 130 21l12 -39q-78 -26 -150 -26q-173 0 -291.5 116t-118.5 286q0 181 125 308.5t310 127.5q174 0 286.5 -95.5t112.5 -259.5q0 -117 -71.5 -204.5t-179.5 -87.5q-51 0 -95 22t-44 52z"/>
<glyph glyph-name="A" horiz-adv-x="648" unicode="A" d="M346 247l-41 241h-12l-107 -241h160zM624 0h-326l3 46l26 3q24 3 34 12.5t10 31.5q0 23 -11 76l-5 23h-192l-3 -8q-20 -46 -20 -79q0 -47 36 -54l26 -5l3 -46h-250l3 46l20 6q29 7 43.5 19t38 52t70.5 140l143 300v43l164 34l117 -537q5 -22 14.5 -33.5t29.5 -16.5l23 -7 z"/>
<glyph glyph-name="B" horiz-adv-x="641" unicode="B" d="M450 464q0 50 -33 81.5t-85 31.5h-17l-32 -232h50q48 0 82.5 30.5t34.5 88.5zM423 168q0 59 -32.5 93t-79.5 34h-36l-33 -241l43 -7h7q59 0 95 36.5t36 84.5zM602 167q0 -59 -44 -103q-64 -64 -198 -64h-357l5 44l43 11q23 6 26 24l64 467q0 2 0.5 4t0.5 3q0 12 -21 17 l-40 11l-2 44h336q102 0 157.5 -35t55.5 -103q0 -66 -52 -106t-134 -58v-5q160 -35 160 -151z"/>
<glyph glyph-name="C" horiz-adv-x="682" unicode="C" d="M635 218l-46 -218l-69 14q-79 -31 -173 -31q-147 0 -222.5 77t-75.5 207q0 70 31 140t85 124q108 108 259 108q101 0 163 -29l99 29l-31 -240h-94l-32 156q-36 28 -82 28q-91 0 -150.5 -101t-59.5 -233q0 -120 57 -177q34 -34 86 -34q40 0 76 19l79 161h100z"/>
<glyph glyph-name="D" horiz-adv-x="712" unicode="D" d="M512 341q0 232 -172 232h-26l-70 -508l65 -15q87 6 145 82t58 209zM695 344q0 -136 -105 -241q-46 -47 -125 -75t-170 -28h-292l5 44l43 11q23 6 26 24l64 467q0 2 0.5 4t0.5 3q0 12 -21 17l-40 11l-2 44l283 1q161 0 247 -77t86 -205z"/>
<glyph glyph-name="E" horiz-adv-x="676" unicode="E" d="M632 212l-48 -212h-581l5 44l43 11q23 6 26 24l64 467q0 1 0.5 3t0.5 3q0 13 -21 18l-40 11l-2 44h591l-29 -225h-89l-10 69q-9 71 -42.5 88.5t-137.5 17.5h-48l-33 -236h16q68 0 89 42l35 69h64l-60 -268h-63l-3 63q-1 25 -16 34t-58 9h-12l-31 -238h62q99 0 138 19 t72 88l28 55h90z"/>
<glyph glyph-name="F" horiz-adv-x="641" unicode="F" d="M622 400h-89l-11 69q-12 71 -45.5 88.5t-135.5 17.5h-27l-34 -253h12q34 0 56 8t35 34l35 70h63l-60 -268h-63l4 62q0 25 -18 33.5t-64 8.5h-9l-25 -191q-3 -20 20 -24l53 -11l3 -44h-319l5 44l43 11q23 6 26 24l64 467q0 1 0.5 3t0.5 3q0 13 -21 18l-40 11l-2 44h571z "/>
<glyph glyph-name="G" horiz-adv-x="738" unicode="G" d="M714 288l-5 -44l-46 -11q-24 -6 -27 -24l-26 -140l58 -7l3 -38q-144 -41 -293 -41q-165 0 -247 74.5t-82 209.5q0 70 31 140t85 124q49 49 125.5 78.5t153.5 29.5q101 0 163 -29l99 29l-31 -233h-94l-32 149q-16 13 -46.5 20.5t-55.5 7.5q-91 0 -150.5 -101t-59.5 -233 q0 -120 57 -177q34 -34 92 -34q35 0 59 6l27 165v5q0 14 -24 19l-39 11l-3 44h308z"/>
<glyph glyph-name="H" horiz-adv-x="761" unicode="H" d="M703 0h-305l3 44l43 11q15 4 19.5 8.5t6.5 15.5l29 212h-225l-29 -212q-3 -19 20 -24l42 -11l3 -44h-305l3 44l43 11q23 6 26 24l64 467q0 1 0.5 3t0.5 3q0 13 -21 18l-41 11l-3 44h306l-3 -44l-45 -11q-23 -8 -26 -24l-27 -200h225l27 200q0 2 0.5 4t0.5 3q0 12 -21 17 l-40 11l-3 44h307l-5 -44l-44 -11q-23 -8 -26 -24l-64 -467q-3 -19 20 -24l41 -11z"/>
<glyph glyph-name="I" horiz-adv-x="386" unicode="I" d="M331 0h-326l3 44l53 11q23 6 26 24l64 467q0 1 0.5 3t0.5 3q0 14 -21 18l-51 11l-3 44h326l-3 -44l-55 -11q-23 -5 -26 -24l-64 -467q-3 -16 20 -24l52 -11z"/>
<glyph glyph-name="J" horiz-adv-x="475" unicode="J" d="M495 625l-4 -44l-43 -11q-23 -4 -26 -24l-40 -292q-19 -137 -82 -204t-177 -67q-62 0 -103 26.5t-41 72.5q0 29 22 49.5t48 20.5q93 0 95 -125h1q42 36 60 163l48 356q3 20 -20 24l-60 11l-2 44h324z"/>
<glyph glyph-name="K" horiz-adv-x="704" unicode="K" d="M663 0h-282l3 44l17 7q17 6 17 22q0 10 -6 25l-81 186l-17 -14q-16 -14 -33 -28l-17 -15l-19 -148q-3 -19 20 -24l41 -11l1 -44h-305l5 44l43 11q23 6 26 24l63 467q0 1 0.5 3t0.5 3q0 13 -21 18l-41 11l-1 44h305l-4 -44l-45 -11q-23 -8 -26 -24l-31 -244l167 167 q57 57 57 80q-3 17 -20 25l-24 8l-2 43h274l-4 -43l-37 -12q-50 -17 -139 -92l-97 -82l142 -287q16 -34 27.5 -44.5t35.5 -18.5l6 -2z"/>
<glyph glyph-name="L" horiz-adv-x="599" unicode="L" d="M566 212l-49 -212h-515l5 44l43 11q23 6 26 24l64 467q0 2 0.5 4t0.5 3q0 12 -21 17l-40 11l-2 44h304l-4 -44l-43 -11q-23 -8 -26 -24l-68 -496h31q72 0 108 22.5t68 84.5l28 55h90z"/>
<glyph glyph-name="M" horiz-adv-x="929" unicode="M" d="M879 0h-319l3 44l49 12q17 4 24 32.5t20 143.5l34 314h-15l-221 -526h-168l-49 534h-15l-53 -318q-22 -135 -22 -157q0 -20 14 -23l56 -12l3 -44h-227l3 44l49 12q13 4 19.5 11.5t17 47t24.5 121.5l51 304q0 2 0.5 4t0.5 4q0 20 -17 23l-56 10l-1 44h310l42 -460h15 l193 460h298l-4 -44l-53 -11q-24 -4 -26 -26l-37 -312q-13 -117 -13 -138q0 -22 5 -28.5t18 -9.5l45 -12z"/>
<glyph glyph-name="N" horiz-adv-x="715" unicode="N" d="M744 625l-3 -44l-48 -13q-20 -5 -34 -48t-30 -149l-53 -378h-138l-235 483h-10l-31 -222q-14 -103 -14 -142q0 -52 19 -55l58 -13l3 -44h-246l3 44l48 13q21 5 34.5 47.5t29.5 149.5l41 290q4 21 -17 26l-41 11l-2 44h233l216 -447h10l27 193q14 103 14 142q0 52 -19 55 l-58 13l-3 44h246z"/>
<glyph glyph-name="O" horiz-adv-x="735" unicode="O" d="M521 392q0 114 -45 163q-29 27 -69 27q-50 0 -87 -40.5t-55 -102.5t-26.5 -115.5t-8.5 -97.5q0 -114 45 -158q26 -28 69 -28q49 0 86 40t55.5 101t27 114t8.5 97zM704 348q0 -151 -119 -270q-93 -93 -237 -93q-130 0 -215.5 80.5t-85.5 208.5q0 152 102 254 q109 109 254 109q130 0 215.5 -80.5t85.5 -208.5z"/>
<glyph glyph-name="P" horiz-adv-x="613" unicode="P" d="M441 434q0 63 -36 103t-84 40h-8l-40 -288q18 -2 25 -2q65 0 104 39.5t39 107.5zM612 446q0 -93 -80.5 -149.5t-209.5 -56.5q-9 0 -27.5 1t-26.5 1l-22 -163q-2 -20 20 -24l52 -11l1 -44h-316l5 44l43 11q23 6 26 24l64 467q0 1 0.5 3t0.5 3q0 13 -21 18l-40 11l-2 44 h285q113 0 180.5 -46.5t67.5 -132.5z"/>
<glyph glyph-name="Q" horiz-adv-x="735" unicode="Q" d="M520 394q0 115 -46 163q-27 27 -68 27t-73.5 -28.5t-51 -70t-30.5 -93.5t-16 -93t-4 -75q0 -114 45 -158q26 -28 70 -28q49 0 86 41t54.5 102.5t25.5 115t8 97.5zM675 -170q-85 -25 -195 -26h-4q-92 0 -154 45t-115 165q-73 36 -116.5 104t-43.5 156q0 145 99 252 q104 111 255 111q130 0 216.5 -80.5t86.5 -208.5q0 -78 -30.5 -147.5t-84.5 -120.5q-33 -31 -83 -57t-101 -34q50 -69 103 -95t161 -32z"/>
<glyph glyph-name="R" horiz-adv-x="660" unicode="R" d="M449 449q0 57 -33 92.5t-81 35.5h-21l-37 -258l54 -11q51 9 84.5 44.5t33.5 96.5zM632 0h-210l-35 90l-79 171l-35 3l-27 -185q-1 -8 3 -12.5t17 -11.5l28 -11l3 -44h-292l3 44l43 11q23 6 26 24l62 467v5q0 14 -20 19l-40 11l-2 44h325q109 0 170 -42.5t61 -107.5 q0 -134 -173 -185l115 -206q13 -26 50 -38l6 -2z"/>
<glyph glyph-name="S" horiz-adv-x="567" unicode="S" d="M516 194q0 -98 -71.5 -153.5t-185.5 -55.5q-105 0 -233 36l23 206l87 -3l33 -163q52 -16 100 -16q46 0 72.5 24t26.5 63q0 20 -8 35t-31 30.5t-34.5 21.5t-48.5 24q-46 22 -73 38.5t-52 40t-35.5 53.5t-10.5 70q0 81 71 136.5t181 55.5q59 0 177 -29l58 21l-28 -217 l-82 3l-30 145q-46 16 -102 16q-43 0 -69 -21.5t-26 -48.5q0 -18 8.5 -34.5t17 -26.5t32.5 -24.5t33.5 -19t42.5 -20.5q82 -40 119.5 -79.5t37.5 -107.5z"/>
<glyph glyph-name="T" horiz-adv-x="662" unicode="T" d="M665 401h-83l-10 70q-5 35 -15 57.5t-25.5 32t-29 12t-34.5 2.5h-10l-66 -496q-3 -19 20 -24l50 -11l4 -44h-321l2 44l52 11q24 5 26 24l66 496h-6q-43 0 -72 -21t-58 -87l-29 -66h-92l49 224h610z"/>
<glyph glyph-name="U" horiz-adv-x="702" unicode="U" d="M742 625l-3 -44l-48 -13q-21 -5 -35 -48t-29 -149l-23 -159q-17 -118 -89 -178t-180 -60q-114 0 -182 55.5t-68 159.5q0 23 3 51l41 306q0 1 0.5 3t0.5 3q0 13 -21 18l-40 11l-3 44h305l-3 -44l-44 -11q-23 -8 -26 -24l-45 -322q-4 -36 -4 -64q0 -44 34 -78t92 -34 q72 0 112.5 43.5t54.5 143.5l20 136q13 95 13 142q0 52 -19 55l-57 13l-3 44h246z"/>
<glyph glyph-name="V" horiz-adv-x="634" unicode="V" d="M703 625l-3 -46l-21 -6q-29 -7 -43.5 -19.5t-37.5 -52t-71 -139.5l-175 -362h-136l-116 522q-8 41 -43 50l-23 7l-3 46h326l-3 -46l-28 -3q-24 -3 -34 -13t-10 -32t11 -75l57 -321h10l129 286q30 66 30 104q0 42 -38 49l-25 5l-3 46h250z"/>
<glyph glyph-name="W" horiz-adv-x="997" unicode="W" d="M1087 625l-3 -46l-22 -7q-32 -10 -50.5 -23t-45.5 -56t-69 -131l-179 -362h-135l-51 373h-10l-175 -373h-139l-107 522q-5 23 -14 34.5t-29 15.5l-29 7l-3 46h338l-3 -46l-32 -3q-39 -6 -39 -61q0 -23 6 -59l46 -318h10l148 323l-9 61q-3 23 -12.5 34.5t-30.5 15.5l-29 7 l-3 46h338l-3 -46l-32 -3q-21 -2 -30 -15t-9 -41q0 -24 6 -64l34 -318h10l102 222q53 125 53 169q0 37 -35 45l-17 5l-3 46h257z"/>
<glyph glyph-name="X" horiz-adv-x="650" unicode="X" d="M628 0h-324l2 44l26 7q28 7 28 38q0 22 -15 47l-52 107h-10l-67 -74q-50 -56 -50 -86q0 -25 35 -33l22 -6l4 -44h-259l3 44l43 11q9 2 19 8.5t21.5 17t20 18.5t22.5 22.5t20 20.5l143 144l-110 190q-53 90 -66 94l-34 11l-3 44h325l-3 -44l-26 -7q-27 -8 -27 -36 q0 -22 16 -49l41 -87h10l69 77q41 45 41 69q0 21 -28 27l-24 6l-3 44h241l-3 -44l-43 -11q-6 -2 -14 -7t-19 -14.5t-18.5 -16t-21.5 -20.5t-19 -19.5t-19 -20.5t-15 -16l-98 -96l123 -224q23 -43 35.5 -60t24.5 -21l33 -11z"/>
<glyph glyph-name="Y" horiz-adv-x="601" unicode="Y" d="M668 625l-3 -46l-21 -7q-27 -7 -52 -31.5t-84 -109.5l-123 -173l-23 -179q-3 -19 20 -24l49 -11l-4 -44h-322l9 44l53 11q23 4 26 24l22 167l-124 284q-16 33 -41 41l-22 8l-3 46h315l-3 -46l-38 -6q-28 -4 -28 -32q0 -25 22 -85l54 -154h10l88 127q55 80 55 113 q0 25 -31 31l-27 6l-3 46h229z"/>
<glyph glyph-name="Z" horiz-adv-x="641" unicode="Z" d="M592 211l-49 -211h-538l8 54l429 508v10h-98q-63 0 -92.5 -18.5t-55.5 -81.5l-30 -71h-89l29 224h545l-7 -55l-437 -508l-1 -10l105 -2h4q38 0 63 6t43 23.5t26 30t25 45.5l29 56h91z"/>
<glyph glyph-name="bracketleft" horiz-adv-x="368" unicode="[" d="M352 -222h-262v873h262v-51h-203v-770h203v-52z"/>
<glyph glyph-name="backslash" horiz-adv-x="279" unicode="\" d="M276 -212h-56l-217 877h56z"/>
<glyph glyph-name="bracketright" horiz-adv-x="368" unicode="]" d="M16 -222v52h203v770h-203v51h262v-873h-262z"/>
<glyph glyph-name="asciicircum" horiz-adv-x="400" unicode="^" d="M397 520h-68l-86 112h-2l-116 -112h-68l121 177h144z"/>
<glyph glyph-name="underscore" horiz-adv-x="470" unicode="_" d="M479 -53h-488l3 53h482z"/>
<glyph glyph-name="grave" horiz-adv-x="398" unicode="`" d="M306 520h-68l-159 177h154z"/>
<glyph glyph-name="a" horiz-adv-x="582" unicode="a" d="M380 324q-18 31 -51.5 51.5t-54.5 20.5q-18 0 -33 -15q-35 -36 -54.5 -94t-19.5 -113q0 -36 14 -59t36 -23q12 0 24.5 7t26 23.5t23.5 30t28.5 41t29.5 42.5zM400 388h10l33 83h135l-69 -192l-54 -206l26 -9l68 43l18 -23q-28 -44 -68 -72t-85 -28q-24 0 -64 17t-40 32 q0 12 10.5 42t26 69.5t20.5 53.5h-12q-15 -22 -42 -64.5t-40.5 -61.5t-34.5 -43.5t-41 -34t-43 -9.5q-57 0 -93.5 38.5t-36.5 106.5t35.5 142t91.5 130q69 69 143 69q85 0 106 -83z"/>
<glyph glyph-name="b" horiz-adv-x="567" unicode="b" d="M401 284q0 36 -14 59t-36 23q-14 0 -27.5 -8t-28.5 -26.5t-25.5 -34.5t-29 -47t-29.5 -48l-27 -88q18 -31 51.5 -51.5t54.5 -20.5q18 0 33 15q35 35 56.5 103.5t21.5 123.5zM544 328q0 -68 -35.5 -142t-91.5 -130q-71 -71 -176 -71q-35 0 -68.5 8.5t-57.5 21.5 t-42.5 27.5t-27 26.5t-7.5 18l97 454q2 10 2 14q0 24 -19 32l-52 25l8 32l240 53l-58 -226l-57 -212h12q56 112 101 163t102 51t93.5 -38.5t36.5 -106.5z"/>
<glyph glyph-name="c" horiz-adv-x="468" unicode="c" d="M338 390q-35 16 -75 16q-7 0 -15 -8q-25 -25 -50.5 -90.5t-25.5 -127.5q0 -48 24.5 -78t64.5 -30q21 0 136 74l19 -24q-96 -137 -214 -137q-85 0 -130.5 50t-45.5 130q0 113 89.5 210.5t210.5 97.5q60 0 100 -32t40 -83q0 -38 -23.5 -63.5t-54.5 -25.5q-33 0 -49.5 21.5 t-16.5 49.5q0 23 16 50z"/>
<glyph glyph-name="d" horiz-adv-x="582" unicode="d" d="M380 324q-18 31 -51.5 51.5t-54.5 20.5q-18 0 -33 -15q-35 -36 -54.5 -94t-19.5 -113q0 -36 14 -59t36 -23q12 0 24.5 7t26 23.5t23.5 30t28.5 41t29.5 42.5zM567 84q-28 -44 -68 -72t-85 -28q-22 0 -60.5 26.5t-38.5 42.5q0 12 9.5 37.5t23.5 59t19 48.5h-12 q-15 -22 -42 -64.5t-40.5 -61.5t-34.5 -43.5t-41 -34t-43 -9.5q-57 0 -93.5 38.5t-36.5 106.5t35.5 142t91.5 130q69 69 143 69q43 0 61.5 -21t29.5 -62h10l36 151q2 10 2 15q0 23 -19 31l-52 25l8 32l244 55l-123 -471l-36 -153l26 -9l68 43z"/>
<glyph glyph-name="e" horiz-adv-x="466" unicode="e" d="M169 205h5q48 29 66 40.5t45.5 33t37 39.5t9.5 40q0 20 -23.5 35t-44.5 15q-17 0 -26 -9q-20 -20 -43 -79t-26 -115zM173 164v-2q0 -37 24.5 -63.5t63.5 -26.5q21 0 136 74l19 -24q-96 -137 -214 -137q-88 0 -132 49.5t-44 130.5q0 113 87 210.5t206 97.5q68 0 103.5 -29 t35.5 -75q0 -15 -5.5 -28t-19 -26t-28.5 -24t-42.5 -26.5t-51 -27.5t-65 -33.5t-73.5 -39.5z"/>
<glyph glyph-name="f" horiz-adv-x="337" unicode="f" d="M506 592q0 -32 -21 -55t-53 -23q-36 0 -59.5 35.5t-28.5 85.5l-44 -8q-15 -47 -37 -179h126l3 -66h-141l-65 -309q-38 -183 -119 -264q-55 -55 -137 -55q-50 0 -84 27t-34 69q0 30 19 49t47 19q35 0 58.5 -27.5t27.5 -67.5l52 10q12 33 32 148l52 392l-82 9l3 40l96 38 q23 102 83 162q76 76 179 76q55 0 91 -29.5t36 -76.5z"/>
<glyph glyph-name="g" horiz-adv-x="497" unicode="g" d="M308 -168q0 22 -21 38t-83 35q-64 20 -106 38q-55 -25 -55 -81q0 -36 38 -58t108 -22q55 0 87 15t32 35zM314 368q0 14 -22 26t-45 12q-13 0 -18 -5q-24 -24 -39.5 -83t-15.5 -102q0 -30 18 -48q10 -10 28 -10q21 0 39 18q28 28 41.5 85.5t13.5 106.5zM506 351l-128 34 l-2 -10q65 -35 65 -104q0 -74 -60.5 -117.5t-151.5 -43.5q-25 0 -75 9q-7 -3 -13 -13t-6 -20q0 -26 82 -47l50 -13q83 -21 119.5 -53t36.5 -87q0 -67 -75.5 -114.5t-207.5 -47.5q-103 0 -159 30.5t-56 84.5q0 82 139 113v10q-37 25 -37 66q0 72 87 100v10q-36 19 -57 52.5 t-21 72.5q0 89 65.5 150t161.5 61q49 0 119 -21l154 4z"/>
<glyph glyph-name="h" horiz-adv-x="570" unicode="h" d="M553 84q-65 -100 -151 -100q-24 0 -64 17.5t-40 32.5q0 17 60 192q28 84 28 107q0 13 -14 20.5t-32 7.5q-25 0 -51.5 -41t-81.5 -157l-38 -163l-160 -5l39 152l87 394q2 10 2 14q0 24 -19 32l-52 25l8 32l240 53l-58 -226l-58 -241h12q64 152 104 192q51 51 115 51 q50 0 78 -24.5t28 -64.5q0 -46 -51 -195l-43 -116l26 -9l68 43z"/>
<glyph glyph-name="i" horiz-adv-x="307" unicode="i" d="M286 84q-65 -100 -151 -100q-23 0 -65.5 19.5t-39.5 31.5l93 344l-31 8l-54 -65l-23 25q24 52 58.5 89t77.5 37q11 0 32 -5.5t41.5 -13t35 -16.5t12.5 -15l-98 -350l26 -9l68 43zM327 627q0 -43 -25 -73.5t-57 -30.5q-36 0 -57.5 23.5t-21.5 56.5q0 43 25 74.5t57 31.5 q36 0 57.5 -24.5t21.5 -57.5z"/>
<glyph glyph-name="j" horiz-adv-x="282" unicode="j" d="M267 423l-86 -367q-38 -169 -122 -251q-69 -66 -143 -66q-53 0 -86.5 27t-33.5 69q0 30 19 49t47 19q35 0 58.5 -27.5t27.5 -67.5l37 8q13 35 40 150l98 412l-38 10l-52 -66l-23 25q24 52 58.5 89t77.5 37q11 0 32 -5t41.5 -12.5t35 -16.5t12.5 -16zM333 627 q0 -43 -25 -73.5t-57 -30.5q-36 0 -57.5 23.5t-21.5 56.5q0 43 25 74.5t57 31.5q36 0 57.5 -24.5t21.5 -57.5z"/>
<glyph glyph-name="k" horiz-adv-x="504" unicode="k" d="M507 103q-16 -45 -61 -80.5t-93 -35.5q-14 0 -34 8t-23 16l-70 194l-37 -15l-23 -190l-157 -5l39 152l87 394q2 10 2 14q0 24 -19 32l-52 25l8 32l237 53l-57 -224l-67 -241h7l186 99v15q-44 20 -44 67q0 33 24 56t59 23q41 0 68.5 -26t27.5 -64q0 -49 -42.5 -82 t-118.5 -59l-12 -4l76 -170h18l46 40z"/>
<glyph glyph-name="l" horiz-adv-x="296" unicode="l" d="M282 84q-65 -100 -151 -100q-23 0 -65 19.5t-39 31.5l111 506q2 10 2 14q0 24 -19 32l-52 25l8 32l234 53l-141 -624l26 -9l68 43z"/>
<glyph glyph-name="m" horiz-adv-x="893" unicode="m" d="M876 84q-65 -100 -151 -100q-24 0 -64 17.5t-40 32.5q0 17 60 192q28 84 28 107q0 13 -14 20.5t-32 7.5q-25 0 -52.5 -41.5t-83.5 -156.5l-44 -163l-163 -5l43 152q45 157 45 186q0 13 -14 20.5t-32 7.5q-25 0 -51.5 -41t-81.5 -157l-38 -163l-160 -5l39 152l48 232 l-29 8l-54 -65l-23 25q24 52 58.5 89t77.5 37q28 0 73.5 -12.5t45.5 -26.5q0 -53 -47 -204h12q64 152 104 192q51 51 115 51q50 0 78 -24.5t28 -64.5q0 -22 -8.5 -55.5t-19.5 -65t-11 -33.5h12q69 154 107 192q51 51 115 51q50 0 78 -24.5t28 -64.5q0 -60 -51 -195l-43 -116 l26 -9l68 43z"/>
<glyph glyph-name="n" horiz-adv-x="592" unicode="n" d="M575 84q-65 -100 -151 -100q-24 0 -64 17.5t-40 32.5q0 17 60 192q28 84 28 107q0 13 -14 20.5t-32 7.5q-25 0 -51.5 -41t-81.5 -157l-38 -163l-160 -5l39 152l48 232l-29 8l-54 -65l-23 25q24 52 58.5 89t77.5 37q28 0 73.5 -12.5t45.5 -26.5q0 -53 -47 -204h12 q64 152 104 192q51 51 115 51q50 0 78 -24.5t28 -64.5q0 -46 -51 -195l-43 -116l26 -9l68 43z"/>
<glyph glyph-name="o" horiz-adv-x="522" unicode="o" d="M351 320q0 43 -15.5 67.5t-43.5 24.5q-36 0 -64.5 -50.5t-44.5 -125.5q-12 -56 -12 -98q0 -43 15.5 -67.5t43.5 -24.5q36 0 64.5 51t44.5 126q12 54 12 97zM492 263q0 -113 -74 -195.5t-186 -82.5q-92 0 -147 58t-55 152q0 113 75 195.5t187 82.5q92 0 146 -58t54 -152z "/>
<glyph glyph-name="p" horiz-adv-x="583" unicode="p" d="M206 134q20 -34 51 -63t49 -29t33 15q35 35 56.5 103.5t21.5 123.5q0 36 -14 59t-36 23q-13 0 -28.5 -12t-36 -41t-33 -48.5t-39.5 -62.5zM194 50h-10l-46 -218q-3 -18 23 -24l64 -11l3 -43h-296l3 43l39 11q20 6 23 24l121 547l-29 8l-54 -65l-23 25q24 52 58.5 89 t77.5 37q24 0 69 -22t45 -37q0 -18 -5.5 -38.5t-18.5 -55.5t-15 -41h13q51 107 93 150.5t101 43.5q57 0 93.5 -38.5t36.5 -106.5q0 -70 -32.5 -144t-86.5 -128q-71 -71 -140 -71q-70 0 -107 65z"/>
<glyph glyph-name="q" horiz-adv-x="562" unicode="q" d="M380 324q-18 31 -51.5 51.5t-54.5 20.5q-18 0 -33 -15q-35 -36 -54.5 -94t-19.5 -113q0 -36 14 -59t36 -23q12 0 24.5 7t26 23.5t23.5 30t28.5 41t29.5 42.5zM355 198q-15 -22 -42 -64.5t-40.5 -61.5t-34.5 -43.5t-41 -34t-43 -9.5q-57 0 -93.5 38.5t-36.5 106.5 t35.5 142t91.5 130q69 69 143 69q85 0 106 -83h10l33 83h135l-69 -192l-94 -447q-3 -19 23 -24l44 -11l3 -43h-296l3 43l59 11q20 6 23 24l49 221l44 145h-12z"/>
<glyph glyph-name="r" horiz-adv-x="509" unicode="r" d="M379 380l-23 5l-144 -258l-21 -127l-160 -5l39 152l48 232l-29 8l-54 -65l-23 25q24 52 58.5 89t77.5 37q28 0 73.5 -12.5t45.5 -26.5q0 -52 -65 -244h12l80 164q34 72 60 98t76 26q38 0 65.5 -27.5t27.5 -76.5q0 -37 -23.5 -63t-54.5 -26q-30 0 -50.5 19.5t-20.5 48.5 q0 10 5 27z"/>
<glyph glyph-name="s" horiz-adv-x="418" unicode="s" d="M419 380q0 -37 -18 -56.5t-51 -19.5q-31 0 -49.5 19.5t-18.5 47.5q0 14 5 26q-39 24 -82 27q-13 -12 -22.5 -29.5t-9.5 -22.5q0 -8 10 -20.5t20.5 -23t29 -26.5t25.5 -22q8 -7 23 -21t21 -19.5t17 -16.5t15.5 -16t12 -14t10 -15t6.5 -14t5 -16t1 -16q0 -62 -61 -104.5 t-152 -42.5q-62 0 -111 24t-49 74q0 36 18.5 55.5t52.5 19.5q29 0 47.5 -19t18.5 -48q0 -13 -5 -25q15 -9 45.5 -18t51.5 -10q26 28 26 57q0 7 -4.5 14.5t-14 16.5t-18.5 17t-23.5 20t-23.5 20q-48 43 -65 60t-31.5 40t-14.5 47q0 68 58 105.5t142 37.5q66 0 114.5 -22 t48.5 -71z"/>
<glyph glyph-name="t" horiz-adv-x="359" unicode="t" d="M131 460l26 138h141l-31 -150h126l3 -66h-141l-73 -309l26 -9l68 43l18 -23q-65 -100 -151 -100q-23 0 -65.5 19.5t-39.5 31.5l76 337l-83 10l3 39z"/>
<glyph glyph-name="u" horiz-adv-x="592" unicode="u" d="M23 347q24 52 58.5 89t77.5 37q23 0 67.5 -27t44.5 -42q0 -6 -2 -14t-7 -24t-10 -30.5t-16 -45.5t-20 -58q-26 -78 -26 -97q0 -14 14 -26t30 -12q25 0 52 40.5t87 157.5l43 164l160 5l-49 -152l-51 -244l26 -9l63 43l18 -23q-62 -95 -148 -95q-24 0 -64.5 18t-40.5 33 q0 26 21.5 99.5t30.5 93.5h-12q-80 -162 -110 -192q-51 -51 -115 -51q-49 0 -76.5 29t-27.5 70q0 48 49 185l39 110l-29 8l-54 -65z"/>
<glyph glyph-name="v" horiz-adv-x="515" unicode="v" d="M432 191l-142 -187l-165 -19l-21 394l-29 8l-52 -65l-23 25q24 52 58.5 89t77.5 37q25 0 70.5 -17.5t45.5 -31.5l9 -365h15l101 182q31 60 31 86q0 24 -25.5 46t-59.5 28q12 30 39.5 52t64.5 22q41 0 70.5 -26t29.5 -64q0 -45 -21.5 -85.5t-73.5 -108.5z"/>
<glyph glyph-name="w" horiz-adv-x="796" unicode="w" d="M421 289h-12l-114 -285l-172 -19l-19 394l-28 8l-53 -65l-23 25q24 52 58.5 89t77.5 37q25 0 70.5 -17.5t45.5 -31.5l9 -365h14l128 319l-8 95l76 -12l69 -11l21 -391h14l83 182q3 7 9.5 20t9 19t6 15.5t5 16.5t1.5 15q0 25 -21.5 46.5t-53.5 27.5q11 30 37.5 52t61.5 22 q38 0 64 -26t26 -64q0 -45 -19 -84t-68 -110l-128 -187l-155 -19z"/>
<glyph glyph-name="x" horiz-adv-x="546" unicode="x" d="M512 315q-28 0 -43 16.5t-15 45.5q0 2 0.5 6t0.5 7l-28 5l-90 -149l58 -164h19l59 55l22 -25q-24 -52 -58.5 -89t-77.5 -37q-19 0 -63 18.5t-46 28.5l-20 130h-11q-29 -65 -48.5 -102t-37.5 -53.5t-29 -19.5t-33 -3q-43 0 -68.5 21t-25.5 55v2q1 36 19 59t46 23 t43.5 -16.5t15.5 -45.5q0 -2 -0.5 -6.5t-0.5 -6.5l26 -7l88 155l-63 159h-20l-58 -55l-22 25q57 126 135 126q24 0 65.5 -15t44.5 -32l21 -130h10q46 112 80 145.5t76 33.5q43 0 69 -21.5t26 -54.5q0 -36 -19 -60t-47 -24z"/>
<glyph glyph-name="y" horiz-adv-x="523" unicode="y" d="M526 382q0 -82 -147 -265l-82 -102l-52 -112q-35 -77 -79.5 -113t-102.5 -36q-48 0 -83 27.5t-35 68.5q0 30 18 49t45 19q36 0 57 -25.5t21 -68.5l18 -5l118 145l-87 26l-29 389l-29 8l-52 -65l-23 25q24 52 58.5 89t77.5 37q25 0 70 -17t46 -32l-1 -379h15l142 258v15 q-30 11 -45 31t-15 40q0 36 23.5 60t59.5 24q38 0 65.5 -25t27.5 -66z"/>
<glyph glyph-name="z" horiz-adv-x="447" unicode="z" d="M286 312q-65 29 -145 107l-13 -14q23 -30 23 -60q0 -25 -16 -42t-40 -19h-8q-29 0 -44.5 18t-15.5 44q0 46 40.5 83t100.5 44q73 0 105.5 -28t51.5 -82l14 1l28 110h7q33 0 56 -19.5t23 -51.5q0 -44 -33 -74.5t-93 -30.5l-171 -149q72 -32 160 -114l12 13q-23 27 -23 60 q0 25 16 42t40 19h7q29 0 45 -20t16 -46q0 -48 -38.5 -86t-101.5 -43q-70 0 -109 31.5t-62 93.5l-16 -1l-29 -112h-6q-33 0 -56.5 20.5t-23.5 52.5q0 44 33 72t92 28z"/>
<glyph glyph-name="braceleft" horiz-adv-x="362" unicode="{" d="M341 -212q-120 4 -177 44.5t-57 107.5q0 33 24.5 96.5t24.5 85.5q0 39 -22 56.5t-96 26.5l-11 35l11 33q68 11 93 28.5t25 54.5q0 22 -24.5 85.5t-24.5 96.5q0 67 57 107.5t177 44.5v-40q-56 -5 -76.5 -24.5t-20.5 -56.5q0 -27 24.5 -92t24.5 -103q0 -48 -44.5 -82 t-135.5 -47v-11q91 -12 135.5 -47t44.5 -83q0 -38 -24.5 -103t-24.5 -93q0 -37 20.5 -56t76.5 -24v-40z"/>
<glyph glyph-name="bar" horiz-adv-x="275" unicode="|" d="M111 -157v877h53v-877h-53z"/>
<glyph glyph-name="braceright" horiz-adv-x="362" unicode="}" d="M341 240l-11 -35q-73 -9 -95.5 -26.5t-22.5 -56.5q0 -22 24.5 -85.5t24.5 -96.5q0 -67 -57 -107.5t-176 -44.5v40q56 5 76.5 24t20.5 56q0 28 -24.5 93t-24.5 103q0 48 44.5 83t134.5 47v11q-91 13 -135 47.5t-44 81.5q0 38 24.5 103t24.5 92q0 37 -20.5 56.5t-76.5 24.5 v40q119 -4 176 -44.5t57 -107.5q0 -33 -24.5 -96.5t-24.5 -85.5q0 -37 25 -54.5t93 -28.5z"/>
<glyph glyph-name="asciitilde" horiz-adv-x="400" unicode="~" d="M267 258q16 0 28 13.5t27 43.5h56q-15 -81 -46 -114t-80 -33q-30 0 -81.5 34.5t-67.5 34.5q-5 0 -9.5 -1t-8 -4.5l-6 -6t-6 -9.5t-5.5 -10.5t-6 -13t-6 -14.5h-60q15 80 46.5 113.5t79.5 33.5q30 0 79.5 -33.5t65.5 -33.5z"/>
<glyph glyph-name="nbspace" horiz-adv-x="228" unicode=" "/>
<glyph glyph-name="exclamdown" horiz-adv-x="304" unicode="¡" d="M112 560q0 32 23 55.5t56 23.5t56 -23t23 -56t-23 -56.5t-56 -23.5t-56 23.5t-23 56.5zM28 52l125 363q3 7 15 7q14 0 14 -9l2 -371q0 -26 -22 -42t-55 -16h-5q-33 0 -55 15t-22 38q0 7 3 15z"/>
<glyph glyph-name="cent" horiz-adv-x="442" unicode="¢" d="M213 81q78 314 78 318q0 6 -42 6q-8 0 -18 -10q-22 -22 -40.5 -87.5t-18.5 -132.5q0 -71 41 -94zM247 -7l-39 -158h-56l37 150q-75 1 -119 54t-44 131q0 74 33.5 142.5t100 114.5t148.5 46h2l40 163h56l-42 -172q37 -12 59.5 -37t22.5 -58q0 -37 -21.5 -58t-53.5 -21 q-30 0 -48 20l-55 -233q30 12 119 69l19 -24q-72 -103 -159 -129z"/>
<glyph glyph-name="sterling" horiz-adv-x="577" unicode="£" d="M159 305q3 49 9 90q15 99 84.5 166.5t176.5 67.5q70 0 109 -26t39 -71q0 -32 -18 -51t-52 -19q-28 0 -46 20.5t-18 50.5q0 18 7 36q-16 16 -40 16q-64 0 -84 -149q-2 -17 -6 -44.5t-7 -48.5t-6 -38h134l3 -51h-146l-8 -32q-17 -65 -48 -102v-5q95 -25 149 -25q55 0 80 25 q21 21 35 61l29 -10v-20q0 -170 -146 -170q-35 0 -68.5 14t-51.5 28.5t-39 35t-24 23.5q-31 -38 -80.5 -65.5t-103.5 -35.5l-8 55q71 13 100 50.5t38 118.5l4 54h-113l3 51h113z"/>
<glyph glyph-name="currency" horiz-adv-x="435" unicode="¤" d="M312 359q0 40 -26 68.5t-68 28.5q-43 0 -69 -28.5t-26 -68.5q0 -39 26 -68t69 -29q42 0 68 29t26 68zM405 501l-56 -56q22 -38 22 -86q0 -44 -23 -86l62 -62l-44 -44l-61 61q-37 -24 -87 -24q-45 0 -87 23l-56 -56l-43 43l56 56q-24 38 -24 89q0 49 23 87l-58 58l44 44 l58 -58q37 24 87 24q51 0 89 -25l55 55z"/>
<glyph glyph-name="yen" horiz-adv-x="612" unicode="¥" d="M664 625l-3 -45l-24 -7q-29 -9 -52.5 -31t-75.5 -95l-102 -142h145l3 -51h-168l-10 -76h175l4 -51h-181l-7 -49q-3 -20 20 -24l53 -11l3 -43h-318l3 43l55 11q23 4 26 24l7 49h-157l2 51h165l10 76h-178l3 51h160l-112 237q-10 21 -30 27l-36 11l-3 45h305l-3 -45l-29 -6 q-20 -5 -20 -38q0 -30 15 -65l47 -144h10l82 120q54 79 54 103q0 20 -31 26l-21 4l-3 45h217z"/>
<glyph glyph-name="brokenbar" horiz-adv-x="275" unicode="¦" d="M111 -139v335h53v-335h-53zM111 307v335h53v-335h-53z"/>
<glyph glyph-name="section" horiz-adv-x="493" unicode="§" d="M378 227q0 28 -23.5 49t-68.5 47q-94 52 -123 73q-26 -14 -26 -48q0 -27 24.5 -48.5t72.5 -46.5q9 -5 54 -31t66 -41q24 15 24 46zM471 298q0 -89 -94 -139q33 -28 33 -68q0 -64 -59.5 -109t-145.5 -45q-78 0 -121 24.5t-43 66.5q0 30 21 50.5t49 20.5q34 0 63.5 -28.5 t29.5 -63.5q0 -1 -0.5 -4t-0.5 -5q21 -12 47 -12q27 0 43 15.5t16 39.5q0 10 -8.5 20t-30.5 24t-34.5 21t-46.5 26q-36 19 -55 30.5t-44.5 31t-37.5 40t-12 44.5q4 91 98 140q-33 28 -33 68q0 64 57 107.5t143 43.5q76 0 114 -23.5t38 -64.5q0 -31 -21 -52.5t-49 -21.5 q-31 0 -51.5 25.5t-20.5 60.5q0 9 1 14q-19 13 -52 13q-58 0 -58 -51q0 -29 103 -83q11 -6 16 -9q35 -20 53.5 -31.5t44 -31.5t37 -40.5t11.5 -43.5z"/>
<glyph glyph-name="dieresis" horiz-adv-x="400" unicode="¨" d="M205 605q0 -32 -19 -53.5t-52 -21.5t-53 21.5t-20 53.5t20 54.5t53 22.5t52 -22.5t19 -54.5zM433 605q0 -32 -19 -53.5t-52 -21.5t-52 21.5t-19 53.5t19 54.5t52 22.5t52 -22.5t19 -54.5z"/>
<glyph glyph-name="copyright" horiz-adv-x="801" unicode="©" d="M565 250l-11 -133l-46 10q-45 -20 -100 -20q-109 0 -162 59t-53 147q0 86 64.5 143t152.5 57q53 0 93 -17l59 16v-145h-58l-30 97q-25 16 -67 16q-52 0 -82.5 -40.5t-30.5 -120.5q0 -74 32 -127t88 -53q32 0 53 12l36 99h62zM727 311q0 135 -95.5 232.5t-230.5 97.5 t-231 -97.5t-96 -232.5t96 -232t231 -97t230.5 97t95.5 232zM771 311q0 -154 -108 -262.5t-262 -108.5q-155 0 -263 108t-108 263t108.5 263.5t262.5 108.5t262 -108.5t108 -263.5z"/>
<glyph glyph-name="ordfeminine" horiz-adv-x="425" unicode="ª" d="M312 532q-63 46 -85 46q-13 0 -24 -11q-14 -14 -26.5 -59.5t-12.5 -84.5q0 -58 38 -58q13 0 33.5 25.5t58.5 84.5zM320 576h7l17 62l99 -8l-46 -172l-24 -107l20 -6l49 47l14 -18q-57 -92 -116 -92q-16 0 -43.5 19t-27.5 31q0 8 7 27.5t20 51.5t21 56h-9q-32 -53 -48 -78 t-39 -55t-42.5 -41t-41.5 -11q-35 0 -57.5 25.5t-22.5 73.5q0 55 23 110.5t62 94.5q51 51 112 51q31 0 44.5 -15t21.5 -46z"/>
<glyph glyph-name="guillemotleft" horiz-adv-x="510" unicode="«" d="M245 64l-16 -22l-221 146v70l263 150l10 -22l-159 -165zM475 54l-16 -22l-229 156v70l275 160l10 -22l-185 -175z"/>
<glyph glyph-name="logicalnot" d="M445 313v-216h-61v155h-349l3 61h407z" unicode="¬"/>
<glyph glyph-name="uni00AD" horiz-adv-x="338" unicode="­" d="M307 221h-274l3 67h268z"/>
<glyph glyph-name="registered" horiz-adv-x="802" unicode="®" d="M466 391q0 38 -24 60t-59 22h-25v-151l32 -4q76 3 76 73zM600 120h-124l-23 43l-72 122l-23 2v-110q0 -9 14 -14l21 -7l4 -36h-182l3 36l28 7q15 4 15 14v271q0 11 -15 15l-28 7l-3 37h202q76 0 113.5 -27.5t37.5 -70.5q0 -79 -94 -105l86 -126q4 -6 14 -10l11 -5l12 -7z M728 314q0 135 -96 232.5t-231 97.5t-231 -97.5t-96 -232.5q0 -136 96 -232.5t231 -96.5q136 0 231.5 96.5t95.5 232.5zM772 314q0 -154 -108 -262.5t-263 -108.5t-263 108.5t-108 262.5t108.5 262.5t262.5 108.5t262.5 -108.5t108.5 -262.5z"/>
<glyph glyph-name="macron" horiz-adv-x="400" unicode="¯" d="M401 551h-340l15 75h320z"/>
<glyph glyph-name="degree" horiz-adv-x="410" unicode="°" d="M361 490q0 50 -31.5 81.5t-80.5 31.5q-54 0 -92 -42t-38 -97q0 -49 32 -79t80 -30q55 0 92.5 39.5t37.5 95.5zM411 500q0 -78 -53.5 -132.5t-130.5 -54.5q-66 0 -111 41t-45 108q0 76 53.5 130.5t128.5 54.5q67 0 112.5 -40t45.5 -107z"/>
<glyph glyph-name="plusminus" d="M449 234h-178v-159h-61v159h-179l3 61h176v161h61v-161h175zM448 0h-416l3 61h410z" unicode="±"/>
<glyph glyph-name="twosuperior" horiz-adv-x="330" unicode="²" d="M-13 273l-1 42q22 18 59 45t58 44t44 39.5t33.5 45.5t10.5 49q0 24 -18.5 37t-38.5 13q-46 0 -106 -40l-8 18q23 33 70.5 62t96.5 29q56 0 88 -26.5t32 -73.5q0 -27 -16 -52.5t-53 -53.5t-68.5 -47.5t-88.5 -51.5v-4h40h44q71 0 80 8l22 29h28l-40 -112h-268z"/>
<glyph glyph-name="threesuperior" horiz-adv-x="330" unicode="³" d="M116 258q-38 0 -80 19t-42 55q0 18 13.5 32t33.5 14q30 0 43.5 -22.5t13.5 -52.5q0 -2 -0.5 -6t-0.5 -6l1 -1q2 0 6 -0.5t8 -0.5q31 0 49 29t18 69q0 46 -40 46q-8 0 -14 -1.5t-12.5 -3.5t-11.5 -3l-13 28q76 37 96.5 52.5t20.5 42.5q0 16 -16.5 27t-40.5 11 q-53 0 -108 -48l-8 18q77 101 183 101q42 0 74.5 -20.5t32.5 -53.5q0 -16 -4.5 -29t-15 -23t-19 -17.5t-26.5 -15t-27 -11t-30.5 -10.5t-27.5 -9v-7q30 10 55 10q73 0 73 -76q0 -59 -56.5 -98t-127.5 -39z"/>
<glyph glyph-name="acute" horiz-adv-x="398" unicode="´" d="M423 697l-209 -177h-66l121 177h154z"/>
<glyph glyph-name="mu" horiz-adv-x="590" unicode="µ" d="M578 40l-3 -33l-207 -22v60h-5q-39 -60 -93 -60q-52 0 -80 61h-6l16 -285l-144 -7l13 388v252q0 7 -8 11t-33 8l-16 2l-3 43h215l-3 -289q0 -77 79 -77q34 0 68 31v272q0 8 -7.5 12t-30.5 6l-19 2l-4 43h213v-358q0 -42 23 -49z"/>
<glyph glyph-name="mu" horiz-adv-x="590" unicode="μ" d="M578 40l-3 -33l-207 -22v60h-5q-39 -60 -93 -60q-52 0 -80 61h-6l16 -285l-144 -7l13 388v252q0 7 -8 11t-33 8l-16 2l-3 43h215l-3 -289q0 -77 79 -77q34 0 68 31v272q0 8 -7.5 12t-30.5 6l-19 2l-4 43h213v-358q0 -42 23 -49z"/>
<glyph glyph-name="paragraph" horiz-adv-x="477" unicode="¶" d="M389 -32h-75l38 269q-4 0 -21 -1.5t-31 -1.5q-110 0 -180 51t-70 134q0 110 75.5 158t226.5 48h123z"/>
<glyph glyph-name="periodcentered" horiz-adv-x="232" unicode="·" d="M208 248q0 -36 -25.5 -62t-62.5 -26t-62.5 25.5t-25.5 62.5t25.5 63t62.5 26q36 0 62 -26.5t26 -62.5z"/>
<glyph glyph-name="cedilla" horiz-adv-x="400" unicode="¸" d="M15 -280l-7 30q80 9 124.5 30t44.5 48q0 49 -77 49q-43 0 -76 -8l2 28l137 124h56l-85 -72q62 -5 97 -28t35 -63q0 -58 -70.5 -96t-180.5 -42z"/>
<glyph glyph-name="onesuperior" horiz-adv-x="330" unicode="¹" d="M24 273l2 36l55 7q17 1 19 14l35 246l-67 13l5 25l190 50l-47 -334q-1 -4 3 -8.5t9 -5.5l37 -7l2 -36h-243z"/>
<glyph glyph-name="ordmasculine" horiz-adv-x="381" unicode="º" d="M295 526q0 67 -43 67q-26 0 -47 -37.5t-32 -91.5q-9 -50 -9 -71q0 -67 43 -67q26 0 47 37.5t32 91.5q9 49 9 71zM398 484q0 -82 -54.5 -142.5t-135.5 -60.5q-67 0 -107 42.5t-40 110.5q0 83 54.5 143t136.5 60q68 0 107 -42t39 -111z"/>
<glyph glyph-name="guillemotright" horiz-adv-x="510" unicode="»" d="M273 188l-275 -160l-10 22l183 175l-143 167l14 22l231 -156v-70zM493 188l-263 -150l-10 22l161 165l-123 157l16 22l219 -146v-70z"/>
<glyph glyph-name="onequarter" horiz-adv-x="715" unicode="¼" d="M44 273l2 36l55 7q17 1 19 14l35 246l-67 13l5 25l190 50l-47 -334q-1 -4 3 -8.5t9 -5.5l37 -7l2 -36h-243zM15 -116l633 741h63l-633 -741h-63zM418 -1h118l25 147h-8zM515 -143l17 99h-160l-4 37l238 257l69 -23l-36 -228h63l-9 -43h-58l-17 -99h-103z"/>
<glyph glyph-name="onehalf" horiz-adv-x="715" unicode="½" d="M352 -143l-1 42q22 18 59 45t58 44t44 39.5t33.5 45.5t10.5 49q0 24 -18.5 37t-38.5 13q-46 0 -106 -40l-8 18q23 33 70.5 62t96.5 29q56 0 88 -26.5t32 -73.5q0 -27 -16 -52.5t-53 -53.5t-68.5 -47.5t-88.5 -51.5v-4h40h44q71 0 80 8l22 29h28l-40 -112h-268zM44 273 l2 36l55 7q17 1 19 14l35 246l-67 13l5 25l190 50l-47 -334q-1 -4 3 -8.5t9 -5.5l37 -7l2 -36h-243zM15 -116l633 741h63l-633 -741h-63z"/>
<glyph glyph-name="threequarters" horiz-adv-x="715" unicode="¾" d="M136 258q-38 0 -80 19t-42 55q0 18 13.5 32t33.5 14q30 0 43.5 -22.5t13.5 -52.5q0 -2 -0.5 -6t-0.5 -6l1 -1q2 0 6 -0.5t8 -0.5q31 0 49 29t18 69q0 46 -40 46q-8 0 -14 -1.5t-12.5 -3.5t-11.5 -3l-13 28q76 37 96.5 52.5t20.5 42.5q0 16 -16.5 27t-40.5 11 q-53 0 -108 -48l-8 18q77 101 183 101q42 0 74.5 -20.5t32.5 -53.5q0 -16 -4.5 -29t-15 -23t-19 -17.5t-26.5 -15t-27 -11t-30.5 -10.5t-27.5 -9v-7q30 10 55 10q73 0 73 -76q0 -59 -56.5 -98t-127.5 -39zM15 -116l633 741h63l-633 -741h-63zM418 -1h118l25 147h-8z M515 -143l17 99h-160l-4 37l238 257l69 -23l-36 -228h63l-9 -43h-58l-17 -99h-103z"/>
<glyph glyph-name="questiondown" horiz-adv-x="403" unicode="¿" d="M0 175q0 39 13.5 68.5t38.5 47.5t47 28t54 19q7 2 18.5 5.5t17.5 5.5l15 5t13.5 5.5t9 5.5t6.5 7t2 8q0 30 -34 53h68q27 -14 44 -40t17 -53q0 -28 -13.5 -50t-39.5 -36.5t-48.5 -23t-55.5 -16.5q-71 -19 -80 -27q-4 -4 -4 -8q0 -25 37.5 -43.5t92.5 -18.5q35 0 75 8 q24 -24 24 -52q0 -39 -31.5 -64t-86.5 -25q-80 0 -140 54.5t-60 136.5zM208 560q0 32 23 55.5t56 23.5t56 -23t23 -56t-23 -56.5t-56 -23.5t-56 23.5t-23 56.5z"/>
<glyph glyph-name="Agrave" horiz-adv-x="648" unicode="À" d="M431 687h-68l-159 177h154zM346 247l-41 241h-12l-107 -241h160zM624 0h-326l3 46l26 3q24 3 34 12.5t10 31.5q0 23 -11 76l-5 23h-192l-3 -8q-20 -46 -20 -79q0 -47 36 -54l26 -5l3 -46h-250l3 46l20 6q29 7 43.5 19t38 52t70.5 140l143 300v43l164 34l117 -537 q5 -22 14.5 -33.5t29.5 -16.5l23 -7z"/>
<glyph glyph-name="Aacute" horiz-adv-x="648" unicode="Á" d="M578 864l-209 -177h-66l121 177h154zM346 247l-41 241h-12l-107 -241h160zM624 0h-326l3 46l26 3q24 3 34 12.5t10 31.5q0 23 -11 76l-5 23h-192l-3 -8q-20 -46 -20 -79q0 -47 36 -54l26 -5l3 -46h-250l3 46l20 6q29 7 43.5 19t38 52t70.5 140l143 300v43l164 34 l117 -537q5 -22 14.5 -33.5t29.5 -16.5l23 -7z"/>
<glyph glyph-name="Acircumflex" horiz-adv-x="648" unicode="Â" d="M521 687h-68l-86 112h-2l-116 -112h-68l121 177h144zM346 247l-41 241h-12l-107 -241h160zM624 0h-326l3 46l26 3q24 3 34 12.5t10 31.5q0 23 -11 76l-5 23h-192l-3 -8q-20 -46 -20 -79q0 -47 36 -54l26 -5l3 -46h-250l3 46l20 6q29 7 43.5 19t38 52t70.5 140l143 300v43 l164 34l117 -537q5 -22 14.5 -33.5t29.5 -16.5l23 -7z"/>
<glyph glyph-name="Atilde" horiz-adv-x="648" unicode="Ã" d="M552 840q-15 -81 -46 -114t-80 -33q-30 0 -81.5 34.5t-67.5 34.5q-5 0 -9.5 -1t-8 -4.5l-6 -6t-6 -9.5t-5.5 -10.5t-6 -13t-6 -14.5h-60q15 80 46.5 113.5t79.5 33.5q30 0 79.5 -33.5t65.5 -33.5t28 13.5t27 43.5h56zM346 247l-41 241h-12l-107 -241h160zM624 0h-326 l3 46l26 3q24 3 34 12.5t10 31.5q0 23 -11 76l-5 23h-192l-3 -8q-20 -46 -20 -79q0 -47 36 -54l26 -5l3 -46h-250l3 46l20 6q29 7 43.5 19t38 52t70.5 140l143 300v43l164 34l117 -537q5 -22 14.5 -33.5t29.5 -16.5l23 -7z"/>
<glyph glyph-name="Adieresis" horiz-adv-x="648" unicode="Ä" d="M329 772q0 -32 -19 -53.5t-52 -21.5t-53 21.5t-20 53.5t20 54.5t53 22.5t52 -22.5t19 -54.5zM557 772q0 -32 -19 -53.5t-52 -21.5t-52 21.5t-19 53.5t19 54.5t52 22.5t52 -22.5t19 -54.5zM346 247l-41 241h-12l-107 -241h160zM624 0h-326l3 46l26 3q24 3 34 12.5t10 31.5 q0 23 -11 76l-5 23h-192l-3 -8q-20 -46 -20 -79q0 -47 36 -54l26 -5l3 -46h-250l3 46l20 6q29 7 43.5 19t38 52t70.5 140l143 300v43l164 34l117 -537q5 -22 14.5 -33.5t29.5 -16.5l23 -7z"/>
<glyph glyph-name="Aring" horiz-adv-x="648" unicode="Å" d="M445 696q0 29 -19 51t-50 22t-50 -22t-19 -51t19 -50t50 -21t50 21t19 50zM344 242l-36 246h-15l-108 -246h159zM298 617q-31 31 -31 79q2 46 31.5 78t77.5 32q49 0 78 -32t29 -78q0 -56 -39 -87l110 -506q5 -22 14.5 -33.5t29.5 -16.5l23 -7l3 -46h-326l3 46l26 3 q24 3 34 12.5t10 31.5q0 23 -11 76l-5 23h-192l-3 -8q-20 -46 -20 -79q0 -47 36 -54l26 -5l3 -46h-250l3 46l20 6q22 6 32 10.5t28 28t36 59t56 113.5z"/>
<glyph glyph-name="AE" horiz-adv-x="952" unicode="Æ" d="M378 268l41 309h-7l-206 -309h172zM908 212l-48 -212h-587l9 43l45 11q23 5 26 24l19 141h-198l-20 -29q-44 -63 -44 -100q0 -32 36 -39l26 -5l3 -46h-250l3 46l20 6q27 8 44 21t44.5 48.5t84.5 121.5l165 248q19 28 19 48q0 29 -37 35l-41 8l2 43h717l-29 -225h-89 l-10 69q-9 71 -42.5 88.5t-137.5 17.5h-48l-33 -236h16q68 0 89 42l35 69h64l-60 -268h-63l-3 63q-1 25 -16 34t-58 9h-12l-31 -238h62q99 0 138 19t72 88l28 55h90z"/>
<glyph glyph-name="Ccedilla" horiz-adv-x="682" unicode="Ç" d="M323 -16q-135 7 -204.5 83t-69.5 200q0 70 31 140t85 124q108 108 259 108q101 0 163 -29l99 29l-31 -240h-94l-32 156q-36 28 -82 28q-91 0 -150.5 -101t-59.5 -233q0 -120 57 -177q34 -34 86 -34q40 0 76 19l79 161h100l-46 -218l-69 14q-65 -26 -144 -30l-41 -35 q62 -5 97 -28t35 -63q0 -58 -70.5 -96t-180.5 -42l-7 30q80 9 124.5 30t44.5 48q0 49 -77 49q-43 0 -76 -8l2 28z"/>
<glyph glyph-name="Egrave" horiz-adv-x="676" unicode="È" d="M455 687h-68l-159 177h154zM632 212l-48 -212h-581l5 44l43 11q23 6 26 24l64 467q0 1 0.5 3t0.5 3q0 13 -21 18l-40 11l-2 44h591l-29 -225h-89l-10 69q-9 71 -42.5 88.5t-137.5 17.5h-48l-33 -236h16q68 0 89 42l35 69h64l-60 -268h-63l-3 63q-1 25 -16 34t-58 9h-12 l-31 -238h62q99 0 138 19t72 88l28 55h90z"/>
<glyph glyph-name="Eacute" horiz-adv-x="676" unicode="É" d="M612 864l-209 -177h-66l121 177h154zM632 212l-48 -212h-581l5 44l43 11q23 6 26 24l64 467q0 1 0.5 3t0.5 3q0 13 -21 18l-40 11l-2 44h591l-29 -225h-89l-10 69q-9 71 -42.5 88.5t-137.5 17.5h-48l-33 -236h16q68 0 89 42l35 69h64l-60 -268h-63l-3 63q-1 25 -16 34 t-58 9h-12l-31 -238h62q99 0 138 19t72 88l28 55h90z"/>
<glyph glyph-name="Ecircumflex" horiz-adv-x="676" unicode="Ê" d="M535 687h-68l-86 112h-2l-116 -112h-68l121 177h144zM632 212l-48 -212h-581l5 44l43 11q23 6 26 24l64 467q0 1 0.5 3t0.5 3q0 13 -21 18l-40 11l-2 44h591l-29 -225h-89l-10 69q-9 71 -42.5 88.5t-137.5 17.5h-48l-33 -236h16q68 0 89 42l35 69h64l-60 -268h-63l-3 63 q-1 25 -16 34t-58 9h-12l-31 -238h62q99 0 138 19t72 88l28 55h90z"/>
<glyph glyph-name="Edieresis" horiz-adv-x="676" unicode="Ë" d="M353 772q0 -32 -19 -53.5t-52 -21.5t-53 21.5t-20 53.5t20 54.5t53 22.5t52 -22.5t19 -54.5zM581 772q0 -32 -19 -53.5t-52 -21.5t-52 21.5t-19 53.5t19 54.5t52 22.5t52 -22.5t19 -54.5zM632 212l-48 -212h-581l5 44l43 11q23 6 26 24l64 467q0 1 0.5 3t0.5 3 q0 13 -21 18l-40 11l-2 44h591l-29 -225h-89l-10 69q-9 71 -42.5 88.5t-137.5 17.5h-48l-33 -236h16q68 0 89 42l35 69h64l-60 -268h-63l-3 63q-1 25 -16 34t-58 9h-12l-31 -238h62q99 0 138 19t72 88l28 55h90z"/>
<glyph glyph-name="Igrave" horiz-adv-x="386" unicode="Ì" d="M300 687h-68l-159 177h154zM331 0h-326l3 44l53 11q23 6 26 24l64 467q0 1 0.5 3t0.5 3q0 14 -21 18l-51 11l-3 44h326l-3 -44l-55 -11q-23 -5 -26 -24l-64 -467q-3 -16 20 -24l52 -11z"/>
<glyph glyph-name="Iacute" horiz-adv-x="386" unicode="Í" d="M487 864l-209 -177h-66l121 177h154zM331 0h-326l3 44l53 11q23 6 26 24l64 467q0 1 0.5 3t0.5 3q0 14 -21 18l-51 11l-3 44h326l-3 -44l-55 -11q-23 -5 -26 -24l-64 -467q-3 -16 20 -24l52 -11z"/>
<glyph glyph-name="Icircumflex" horiz-adv-x="386" unicode="Î" d="M412 687h-68l-86 112h-2l-116 -112h-68l121 177h144zM331 0h-326l3 44l53 11q23 6 26 24l64 467q0 1 0.5 3t0.5 3q0 14 -21 18l-51 11l-3 44h326l-3 -44l-55 -11q-23 -5 -26 -24l-64 -467q-3 -16 20 -24l52 -11z"/>
<glyph glyph-name="Idieresis" horiz-adv-x="386" unicode="Ï" d="M208 772q0 -32 -19 -53.5t-52 -21.5t-53 21.5t-20 53.5t20 54.5t53 22.5t52 -22.5t19 -54.5zM436 772q0 -32 -19 -53.5t-52 -21.5t-52 21.5t-19 53.5t19 54.5t52 22.5t52 -22.5t19 -54.5zM331 0h-326l3 44l53 11q23 6 26 24l64 467q0 1 0.5 3t0.5 3q0 14 -21 18l-51 11 l-3 44h326l-3 -44l-55 -11q-23 -5 -26 -24l-64 -467q-3 -16 20 -24l52 -11z"/>
<glyph glyph-name="Eth" horiz-adv-x="712" unicode="Ð" d="M282 339h113l3 -51h-123l-31 -223l65 -15q87 6 145 82t58 209q0 232 -172 232h-26zM106 288h-62l3 51h66l28 207q0 2 0.5 4t0.5 3q0 12 -21 17l-40 11l-2 44l283 1q161 0 247 -77t86 -205q0 -136 -105 -241q-46 -47 -125 -75t-170 -28h-292l5 44l43 11q23 6 26 24z"/>
<glyph glyph-name="Ntilde" horiz-adv-x="715" unicode="Ñ" d="M605 840q-15 -81 -46 -114t-80 -33q-30 0 -81.5 34.5t-67.5 34.5q-5 0 -9.5 -1t-8 -4.5l-6 -6t-6 -9.5t-5.5 -10.5t-6 -13t-6 -14.5h-60q15 80 46.5 113.5t79.5 33.5q30 0 79.5 -33.5t65.5 -33.5t28 13.5t27 43.5h56zM744 625l-3 -44l-48 -13q-20 -5 -34 -48t-30 -149 l-53 -378h-138l-235 483h-10l-31 -222q-14 -103 -14 -142q0 -52 19 -55l58 -13l3 -44h-246l3 44l48 13q21 5 34.5 47.5t29.5 149.5l41 290q4 21 -17 26l-41 11l-2 44h233l216 -447h10l27 193q14 103 14 142q0 52 -19 55l-58 13l-3 44h246z"/>
<glyph glyph-name="Ograve" horiz-adv-x="735" unicode="Ò" d="M464 687h-68l-159 177h154zM521 392q0 114 -45 163q-29 27 -69 27q-50 0 -87 -40.5t-55 -102.5t-26.5 -115.5t-8.5 -97.5q0 -114 45 -158q26 -28 69 -28q49 0 86 40t55.5 101t27 114t8.5 97zM704 348q0 -151 -119 -270q-93 -93 -237 -93q-130 0 -215.5 80.5t-85.5 208.5 q0 152 102 254q109 109 254 109q130 0 215.5 -80.5t85.5 -208.5z"/>
<glyph glyph-name="Oacute" horiz-adv-x="735" unicode="Ó" d="M631 864l-209 -177h-66l121 177h154zM521 392q0 114 -45 163q-29 27 -69 27q-50 0 -87 -40.5t-55 -102.5t-26.5 -115.5t-8.5 -97.5q0 -114 45 -158q26 -28 69 -28q49 0 86 40t55.5 101t27 114t8.5 97zM704 348q0 -151 -119 -270q-93 -93 -237 -93q-130 0 -215.5 80.5 t-85.5 208.5q0 152 102 254q109 109 254 109q130 0 215.5 -80.5t85.5 -208.5z"/>
<glyph glyph-name="Ocircumflex" horiz-adv-x="735" unicode="Ô" d="M594 687h-68l-86 112h-2l-116 -112h-68l121 177h144zM521 392q0 114 -45 163q-29 27 -69 27q-50 0 -87 -40.5t-55 -102.5t-26.5 -115.5t-8.5 -97.5q0 -114 45 -158q26 -28 69 -28q49 0 86 40t55.5 101t27 114t8.5 97zM704 348q0 -151 -119 -270q-93 -93 -237 -93 q-130 0 -215.5 80.5t-85.5 208.5q0 152 102 254q109 109 254 109q130 0 215.5 -80.5t85.5 -208.5z"/>
<glyph glyph-name="Otilde" horiz-adv-x="735" unicode="Õ" d="M595 840q-15 -81 -46 -114t-80 -33q-30 0 -81.5 34.5t-67.5 34.5q-5 0 -9.5 -1t-8 -4.5l-6 -6t-6 -9.5t-5.5 -10.5t-6 -13t-6 -14.5h-60q15 80 46.5 113.5t79.5 33.5q30 0 79.5 -33.5t65.5 -33.5t28 13.5t27 43.5h56zM521 392q0 114 -45 163q-29 27 -69 27 q-50 0 -87 -40.5t-55 -102.5t-26.5 -115.5t-8.5 -97.5q0 -114 45 -158q26 -28 69 -28q49 0 86 40t55.5 101t27 114t8.5 97zM704 348q0 -151 -119 -270q-93 -93 -237 -93q-130 0 -215.5 80.5t-85.5 208.5q0 152 102 254q109 109 254 109q130 0 215.5 -80.5t85.5 -208.5z"/>
<glyph glyph-name="Odieresis" horiz-adv-x="735" unicode="Ö" d="M392 772q0 -32 -19 -53.5t-52 -21.5t-53 21.5t-20 53.5t20 54.5t53 22.5t52 -22.5t19 -54.5zM620 772q0 -32 -19 -53.5t-52 -21.5t-52 21.5t-19 53.5t19 54.5t52 22.5t52 -22.5t19 -54.5zM521 392q0 114 -45 163q-29 27 -69 27q-50 0 -87 -40.5t-55 -102.5t-26.5 -115.5 t-8.5 -97.5q0 -114 45 -158q26 -28 69 -28q49 0 86 40t55.5 101t27 114t8.5 97zM704 348q0 -151 -119 -270q-93 -93 -237 -93q-130 0 -215.5 80.5t-85.5 208.5q0 152 102 254q109 109 254 109q130 0 215.5 -80.5t85.5 -208.5z"/>
<glyph glyph-name="multiply" d="M449 401l-166 -165l166 -166l-44 -43l-165 166l-165 -166l-44 43l166 166l-166 165l44 43l165 -165l165 165z" unicode="×"/>
<glyph glyph-name="Oslash" horiz-adv-x="735" unicode="Ø" d="M522 503l-248 -428q40 -40 82 -40q50 0 88 41t57 102t28 115.5t9 98.5q0 63 -16 111zM252 117l249 429q-24 41 -82 41q-51 0 -89 -41t-56.5 -103.5t-27.5 -117t-9 -99.5q0 -65 15 -109zM199 25q-65 38 -102.5 101.5t-37.5 144.5q0 155 102 257q109 109 254 109 q67 0 125 -23l43 74h47l-54 -92q65 -37 102.5 -100.5t37.5 -144.5q0 -154 -119 -273q-93 -93 -237 -93q-67 0 -125 23l-48 -82h-46z"/>
<glyph glyph-name="Ugrave" horiz-adv-x="702" unicode="Ù" d="M488 687h-68l-159 177h154zM742 625l-3 -44l-48 -13q-21 -5 -35 -48t-29 -149l-23 -159q-17 -118 -89 -178t-180 -60q-114 0 -182 55.5t-68 159.5q0 23 3 51l41 306q0 1 0.5 3t0.5 3q0 13 -21 18l-40 11l-3 44h305l-3 -44l-44 -11q-23 -8 -26 -24l-45 -322q-4 -36 -4 -64 q0 -44 34 -78t92 -34q72 0 112.5 43.5t54.5 143.5l20 136q13 95 13 142q0 52 -19 55l-57 13l-3 44h246z"/>
<glyph glyph-name="Uacute" horiz-adv-x="702" unicode="Ú" d="M655 864l-209 -177h-66l121 177h154zM742 625l-3 -44l-48 -13q-21 -5 -35 -48t-29 -149l-23 -159q-17 -118 -89 -178t-180 -60q-114 0 -182 55.5t-68 159.5q0 23 3 51l41 306q0 1 0.5 3t0.5 3q0 13 -21 18l-40 11l-3 44h305l-3 -44l-44 -11q-23 -8 -26 -24l-45 -322 q-4 -36 -4 -64q0 -44 34 -78t92 -34q72 0 112.5 43.5t54.5 143.5l20 136q13 95 13 142q0 52 -19 55l-57 13l-3 44h246z"/>
<glyph glyph-name="Ucircumflex" horiz-adv-x="702" unicode="Û" d="M601 687h-68l-86 112h-2l-116 -112h-68l121 177h144zM742 625l-3 -44l-48 -13q-21 -5 -35 -48t-29 -149l-23 -159q-17 -118 -89 -178t-180 -60q-114 0 -182 55.5t-68 159.5q0 23 3 51l41 306q0 1 0.5 3t0.5 3q0 13 -21 18l-40 11l-3 44h305l-3 -44l-44 -11 q-23 -8 -26 -24l-45 -322q-4 -36 -4 -64q0 -44 34 -78t92 -34q72 0 112.5 43.5t54.5 143.5l20 136q13 95 13 142q0 52 -19 55l-57 13l-3 44h246z"/>
<glyph glyph-name="Udieresis" horiz-adv-x="702" unicode="Ü" d="M376 772q0 -32 -19 -53.5t-52 -21.5t-53 21.5t-20 53.5t20 54.5t53 22.5t52 -22.5t19 -54.5zM604 772q0 -32 -19 -53.5t-52 -21.5t-52 21.5t-19 53.5t19 54.5t52 22.5t52 -22.5t19 -54.5zM742 625l-3 -44l-48 -13q-21 -5 -35 -48t-29 -149l-23 -159q-17 -118 -89 -178 t-180 -60q-114 0 -182 55.5t-68 159.5q0 23 3 51l41 306q0 1 0.5 3t0.5 3q0 13 -21 18l-40 11l-3 44h305l-3 -44l-44 -11q-23 -8 -26 -24l-45 -322q-4 -36 -4 -64q0 -44 34 -78t92 -34q72 0 112.5 43.5t54.5 143.5l20 136q13 95 13 142q0 52 -19 55l-57 13l-3 44h246z"/>
<glyph glyph-name="Yacute" horiz-adv-x="601" unicode="Ý" d="M604 864l-209 -177h-66l121 177h154zM668 625l-3 -46l-21 -7q-27 -7 -52 -31.5t-84 -109.5l-123 -173l-23 -179q-3 -19 20 -24l49 -11l-4 -44h-322l9 44l53 11q23 4 26 24l22 167l-124 284q-16 33 -41 41l-22 8l-3 46h315l-3 -46l-38 -6q-28 -4 -28 -32q0 -25 22 -85 l54 -154h10l88 127q55 80 55 113q0 25 -31 31l-27 6l-3 46h229z"/>
<glyph glyph-name="Thorn" horiz-adv-x="613" unicode="Þ" d="M426 314q0 63 -36 103t-84 40h-8l-40 -288q18 -2 25 -2q65 0 104 39.5t39 107.5zM597 326q0 -93 -80.5 -149.5t-209.5 -56.5q-9 0 -27.5 1t-26.5 1l-7 -43q-2 -20 20 -24l52 -11l1 -44h-316l5 44l43 11q23 6 26 24l64 467q0 1 0.5 3t0.5 3q0 13 -21 18l-41 11l-3 44h306 l-3 -44l-45 -11q-23 -8 -26 -24l-5 -41h45q113 0 180.5 -46.5t67.5 -132.5z"/>
<glyph glyph-name="germandbls" horiz-adv-x="629" unicode="ß" d="M438 418q143 -89 143 -216q0 -92 -60.5 -154.5t-153.5 -62.5q-54 0 -93.5 28t-39.5 78q0 37 22 58t52 21q29 0 48 -18.5t19 -45.5q0 -30 -26 -55q14 -7 28 -7q28 0 50 24t22 72q0 67 -39 137t-110 115l4 44q61 0 100.5 34.5t39.5 89.5q0 84 -67 84q-40 0 -66 -43.5 t-48 -152.5l-77 -375q-38 -183 -119 -264q-55 -55 -137 -55q-50 0 -84 27t-34 69q0 30 19 49t47 19q35 0 58.5 -27.5t27.5 -67.5l52 10q12 33 32 148l52 392l-82 9l3 40l96 38q25 113 96 175.5t177 62.5q99 0 149 -45.5t50 -109.5q0 -52 -41.5 -86t-109.5 -39z"/>
<glyph glyph-name="agrave" horiz-adv-x="582" unicode="à" d="M418 520h-68l-159 177h154zM380 324q-18 31 -51.5 51.5t-54.5 20.5q-18 0 -33 -15q-35 -36 -54.5 -94t-19.5 -113q0 -36 14 -59t36 -23q12 0 24.5 7t26 23.5t23.5 30t28.5 41t29.5 42.5zM400 388h10l33 83h135l-69 -192l-54 -206l26 -9l68 43l18 -23q-28 -44 -68 -72 t-85 -28q-24 0 -64 17t-40 32q0 12 10.5 42t26 69.5t20.5 53.5h-12q-15 -22 -42 -64.5t-40.5 -61.5t-34.5 -43.5t-41 -34t-43 -9.5q-57 0 -93.5 38.5t-36.5 106.5t35.5 142t91.5 130q69 69 143 69q85 0 106 -83z"/>
<glyph glyph-name="aacute" horiz-adv-x="582" unicode="á" d="M565 697l-209 -177h-66l121 177h154zM380 324q-18 31 -51.5 51.5t-54.5 20.5q-18 0 -33 -15q-35 -36 -54.5 -94t-19.5 -113q0 -36 14 -59t36 -23q12 0 24.5 7t26 23.5t23.5 30t28.5 41t29.5 42.5zM400 388h10l33 83h135l-69 -192l-54 -206l26 -9l68 43l18 -23 q-28 -44 -68 -72t-85 -28q-24 0 -64 17t-40 32q0 12 10.5 42t26 69.5t20.5 53.5h-12q-15 -22 -42 -64.5t-40.5 -61.5t-34.5 -43.5t-41 -34t-43 -9.5q-57 0 -93.5 38.5t-36.5 106.5t35.5 142t91.5 130q69 69 143 69q85 0 106 -83z"/>
<glyph glyph-name="acircumflex" horiz-adv-x="582" unicode="â" d="M528 520h-68l-86 112h-2l-116 -112h-68l121 177h144zM380 324q-18 31 -51.5 51.5t-54.5 20.5q-18 0 -33 -15q-35 -36 -54.5 -94t-19.5 -113q0 -36 14 -59t36 -23q12 0 24.5 7t26 23.5t23.5 30t28.5 41t29.5 42.5zM400 388h10l33 83h135l-69 -192l-54 -206l26 -9l68 43 l18 -23q-28 -44 -68 -72t-85 -28q-24 0 -64 17t-40 32q0 12 10.5 42t26 69.5t20.5 53.5h-12q-15 -22 -42 -64.5t-40.5 -61.5t-34.5 -43.5t-41 -34t-43 -9.5q-57 0 -93.5 38.5t-36.5 106.5t35.5 142t91.5 130q69 69 143 69q85 0 106 -83z"/>
<glyph glyph-name="atilde" horiz-adv-x="582" unicode="ã" d="M549 673q-15 -81 -46 -114t-80 -33q-30 0 -81.5 34.5t-67.5 34.5q-5 0 -9.5 -1t-8 -4.5l-6 -6t-6 -9.5t-5.5 -10.5t-6 -13t-6 -14.5h-60q15 80 46.5 113.5t79.5 33.5q30 0 79.5 -33.5t65.5 -33.5t28 13.5t27 43.5h56zM380 324q-18 31 -51.5 51.5t-54.5 20.5 q-18 0 -33 -15q-35 -36 -54.5 -94t-19.5 -113q0 -36 14 -59t36 -23q12 0 24.5 7t26 23.5t23.5 30t28.5 41t29.5 42.5zM400 388h10l33 83h135l-69 -192l-54 -206l26 -9l68 43l18 -23q-28 -44 -68 -72t-85 -28q-24 0 -64 17t-40 32q0 12 10.5 42t26 69.5t20.5 53.5h-12 q-15 -22 -42 -64.5t-40.5 -61.5t-34.5 -43.5t-41 -34t-43 -9.5q-57 0 -93.5 38.5t-36.5 106.5t35.5 142t91.5 130q69 69 143 69q85 0 106 -83z"/>
<glyph glyph-name="adieresis" horiz-adv-x="582" unicode="ä" d="M316 605q0 -32 -19 -53.5t-52 -21.5t-53 21.5t-20 53.5t20 54.5t53 22.5t52 -22.5t19 -54.5zM544 605q0 -32 -19 -53.5t-52 -21.5t-52 21.5t-19 53.5t19 54.5t52 22.5t52 -22.5t19 -54.5zM380 324q-18 31 -51.5 51.5t-54.5 20.5q-18 0 -33 -15q-35 -36 -54.5 -94 t-19.5 -113q0 -36 14 -59t36 -23q12 0 24.5 7t26 23.5t23.5 30t28.5 41t29.5 42.5zM400 388h10l33 83h135l-69 -192l-54 -206l26 -9l68 43l18 -23q-28 -44 -68 -72t-85 -28q-24 0 -64 17t-40 32q0 12 10.5 42t26 69.5t20.5 53.5h-12q-15 -22 -42 -64.5t-40.5 -61.5 t-34.5 -43.5t-41 -34t-43 -9.5q-57 0 -93.5 38.5t-36.5 106.5t35.5 142t91.5 130q69 69 143 69q85 0 106 -83z"/>
<glyph glyph-name="aring" horiz-adv-x="582" unicode="å" d="M380 324q-18 31 -51.5 51.5t-54.5 20.5q-18 0 -33 -15q-35 -36 -54.5 -94t-19.5 -113q0 -36 14 -59t36 -23q12 0 24.5 7t26 23.5t23.5 30t28.5 41t29.5 42.5zM448 619q0 29 -19 51t-50 22t-50 -22t-19 -51t19 -50t50 -21t50 21t19 50zM400 388h10l33 83h135l-69 -192 l-54 -206l26 -9l68 43l18 -23q-28 -44 -68 -72t-85 -28q-24 0 -64 17t-40 32q0 12 10.5 42t26 69.5t20.5 53.5h-12q-15 -22 -42 -64.5t-40.5 -61.5t-34.5 -43.5t-41 -34t-43 -9.5q-57 0 -93.5 38.5t-36.5 106.5t35.5 142t91.5 130q69 69 143 69q85 0 106 -83zM486 619 q0 -46 -29 -78t-78 -32t-79 32t-30 78q2 46 31.5 78t77.5 32q49 0 78 -32t29 -78z"/>
<glyph glyph-name="ae" horiz-adv-x="769" unicode="æ" d="M380 324q-18 31 -51.5 51.5t-54.5 20.5q-18 0 -33 -15q-35 -36 -54.5 -94t-19.5 -113q0 -36 14 -59t36 -23q12 0 26 11.5t28.5 34t27 44t30 53t29.5 50.5zM477 205q48 29 66 40.5t45.5 33t37 39.5t9.5 40q0 20 -23.5 35t-44.5 15q-17 0 -26 -9q-20 -20 -43 -79t-26 -115 h5zM399 355q95 118 223 118q68 0 103.5 -29t35.5 -75q0 -15 -5.5 -28t-19 -26t-28.5 -24t-42.5 -26.5t-51 -27.5t-65 -33.5t-73.5 -39.5v-2q0 -37 24.5 -63.5t63.5 -26.5q21 0 136 74l19 -24q-96 -137 -214 -137q-84 0 -128 47t-49 123v4q-4 -6 -21 -34t-23 -36t-21.5 -30.5 t-25 -31t-24.5 -21t-29.5 -17t-29.5 -4.5q-57 0 -93.5 38.5t-36.5 106.5t35.5 142t91.5 130q69 69 143 69q47 0 72.5 -27.5t32.5 -88.5z"/>
<glyph glyph-name="ccedilla" horiz-adv-x="468" unicode="ç" d="M178 -14q-73 7 -112.5 56t-39.5 123q0 113 89.5 210.5t210.5 97.5q60 0 100 -32t40 -83q0 -38 -23.5 -63.5t-54.5 -25.5q-33 0 -49.5 21.5t-16.5 49.5q0 23 16 50q-35 16 -75 16q-7 0 -15 -8q-25 -25 -50.5 -90.5t-25.5 -127.5q0 -48 24.5 -78t64.5 -30q21 0 136 74 l19 -24q-81 -116 -182 -134l-46 -39q62 -5 97 -28t35 -63q0 -58 -70.5 -96t-180.5 -42l-7 30q80 9 124.5 30t44.5 48q0 49 -77 49q-43 0 -76 -8l2 28z"/>
<glyph glyph-name="egrave" horiz-adv-x="466" unicode="è" d="M360 520h-68l-159 177h154zM169 205h5q48 29 66 40.5t45.5 33t37 39.5t9.5 40q0 20 -23.5 35t-44.5 15q-17 0 -26 -9q-20 -20 -43 -79t-26 -115zM173 164v-2q0 -37 24.5 -63.5t63.5 -26.5q21 0 136 74l19 -24q-96 -137 -214 -137q-88 0 -132 49.5t-44 130.5 q0 113 87 210.5t206 97.5q68 0 103.5 -29t35.5 -75q0 -15 -5.5 -28t-19 -26t-28.5 -24t-42.5 -26.5t-51 -27.5t-65 -33.5t-73.5 -39.5z"/>
<glyph glyph-name="eacute" horiz-adv-x="466" unicode="é" d="M507 697l-209 -177h-66l121 177h154zM169 205h5q48 29 66 40.5t45.5 33t37 39.5t9.5 40q0 20 -23.5 35t-44.5 15q-17 0 -26 -9q-20 -20 -43 -79t-26 -115zM173 164v-2q0 -37 24.5 -63.5t63.5 -26.5q21 0 136 74l19 -24q-96 -137 -214 -137q-88 0 -132 49.5t-44 130.5 q0 113 87 210.5t206 97.5q68 0 103.5 -29t35.5 -75q0 -15 -5.5 -28t-19 -26t-28.5 -24t-42.5 -26.5t-51 -27.5t-65 -33.5t-73.5 -39.5z"/>
<glyph glyph-name="ecircumflex" horiz-adv-x="466" unicode="ê" d="M450 520h-68l-86 112h-2l-116 -112h-68l121 177h144zM169 205h5q48 29 66 40.5t45.5 33t37 39.5t9.5 40q0 20 -23.5 35t-44.5 15q-17 0 -26 -9q-20 -20 -43 -79t-26 -115zM173 164v-2q0 -37 24.5 -63.5t63.5 -26.5q21 0 136 74l19 -24q-96 -137 -214 -137 q-88 0 -132 49.5t-44 130.5q0 113 87 210.5t206 97.5q68 0 103.5 -29t35.5 -75q0 -15 -5.5 -28t-19 -26t-28.5 -24t-42.5 -26.5t-51 -27.5t-65 -33.5t-73.5 -39.5z"/>
<glyph glyph-name="edieresis" horiz-adv-x="466" unicode="ë" d="M258 605q0 -32 -19 -53.5t-52 -21.5t-53 21.5t-20 53.5t20 54.5t53 22.5t52 -22.5t19 -54.5zM486 605q0 -32 -19 -53.5t-52 -21.5t-52 21.5t-19 53.5t19 54.5t52 22.5t52 -22.5t19 -54.5zM169 205h5q48 29 66 40.5t45.5 33t37 39.5t9.5 40q0 20 -23.5 35t-44.5 15 q-17 0 -26 -9q-20 -20 -43 -79t-26 -115zM173 164v-2q0 -37 24.5 -63.5t63.5 -26.5q21 0 136 74l19 -24q-96 -137 -214 -137q-88 0 -132 49.5t-44 130.5q0 113 87 210.5t206 97.5q68 0 103.5 -29t35.5 -75q0 -15 -5.5 -28t-19 -26t-28.5 -24t-42.5 -26.5t-51 -27.5 t-65 -33.5t-73.5 -39.5z"/>
<glyph glyph-name="igrave" horiz-adv-x="307" unicode="ì" d="M250 520h-68l-159 177h154zM286 84q-65 -100 -151 -100q-23 0 -65.5 19.5t-39.5 31.5l93 344l-31 8l-54 -65l-23 25q24 52 58.5 89t77.5 37q11 0 32 -5.5t41.5 -13t35 -16.5t12.5 -15l-98 -350l26 -9l68 43z"/>
<glyph glyph-name="iacute" horiz-adv-x="307" unicode="í" d="M387 697l-209 -177h-66l121 177h154zM286 84q-65 -100 -151 -100q-23 0 -65.5 19.5t-39.5 31.5l93 344l-31 8l-54 -65l-23 25q24 52 58.5 89t77.5 37q11 0 32 -5.5t41.5 -13t35 -16.5t12.5 -15l-98 -350l26 -9l68 43z"/>
<glyph glyph-name="icircumflex" horiz-adv-x="307" unicode="î" d="M360 520h-68l-86 112h-2l-116 -112h-68l121 177h144zM286 84q-65 -100 -151 -100q-23 0 -65.5 19.5t-39.5 31.5l93 344l-31 8l-54 -65l-23 25q24 52 58.5 89t77.5 37q11 0 32 -5.5t41.5 -13t35 -16.5t12.5 -15l-98 -350l26 -9l68 43z"/>
<glyph glyph-name="idieresis" horiz-adv-x="307" unicode="ï" d="M168 605q0 -32 -19 -53.5t-52 -21.5t-53 21.5t-20 53.5t20 54.5t53 22.5t52 -22.5t19 -54.5zM396 605q0 -32 -19 -53.5t-52 -21.5t-52 21.5t-19 53.5t19 54.5t52 22.5t52 -22.5t19 -54.5zM286 84q-65 -100 -151 -100q-23 0 -65.5 19.5t-39.5 31.5l93 344l-31 8l-54 -65 l-23 25q24 52 58.5 89t77.5 37q11 0 32 -5.5t41.5 -13t35 -16.5t12.5 -15l-98 -350l26 -9l68 43z"/>
<glyph glyph-name="eth" horiz-adv-x="522" unicode="ð" d="M183 236q-12 -56 -12 -98q0 -43 15.5 -67.5t43.5 -24.5q36 0 64.5 51t44.5 126q12 54 12 97t-15.5 67.5t-43.5 24.5q-36 0 -64.5 -50.5t-44.5 -125.5zM306 552l-147 -29l12 52l94 18q-32 27 -81 49l29 38q83 -26 143 -69l129 25l-13 -51l-67 -13q100 -97 102 -237 q0 -147 -80.5 -248.5t-194.5 -101.5q-92 0 -147 58t-55 152q0 111 72.5 194.5t174.5 83.5q50 0 79 -26q-14 60 -50 105z"/>
<glyph glyph-name="ntilde" horiz-adv-x="592" unicode="ñ" d="M534 673q-15 -81 -46 -114t-80 -33q-30 0 -81.5 34.5t-67.5 34.5q-5 0 -9.5 -1t-8 -4.5l-6 -6t-6 -9.5t-5.5 -10.5t-6 -13t-6 -14.5h-60q15 80 46.5 113.5t79.5 33.5q30 0 79.5 -33.5t65.5 -33.5t28 13.5t27 43.5h56zM575 84q-65 -100 -151 -100q-24 0 -64 17.5t-40 32.5 q0 17 60 192q28 84 28 107q0 13 -14 20.5t-32 7.5q-25 0 -51.5 -41t-81.5 -157l-38 -163l-160 -5l39 152l48 232l-29 8l-54 -65l-23 25q24 52 58.5 89t77.5 37q28 0 73.5 -12.5t45.5 -26.5q0 -53 -47 -204h12q64 152 104 192q51 51 115 51q50 0 78 -24.5t28 -64.5 q0 -46 -51 -195l-43 -116l26 -9l68 43z"/>
<glyph glyph-name="ograve" horiz-adv-x="522" unicode="ò" d="M358 520h-68l-159 177h154zM351 320q0 43 -15.5 67.5t-43.5 24.5q-36 0 -64.5 -50.5t-44.5 -125.5q-12 -56 -12 -98q0 -43 15.5 -67.5t43.5 -24.5q36 0 64.5 51t44.5 126q12 54 12 97zM492 263q0 -113 -74 -195.5t-186 -82.5q-92 0 -147 58t-55 152q0 113 75 195.5 t187 82.5q92 0 146 -58t54 -152z"/>
<glyph glyph-name="oacute" horiz-adv-x="522" unicode="ó" d="M535 697l-209 -177h-66l121 177h154zM351 320q0 43 -15.5 67.5t-43.5 24.5q-36 0 -64.5 -50.5t-44.5 -125.5q-12 -56 -12 -98q0 -43 15.5 -67.5t43.5 -24.5q36 0 64.5 51t44.5 126q12 54 12 97zM492 263q0 -113 -74 -195.5t-186 -82.5q-92 0 -147 58t-55 152 q0 113 75 195.5t187 82.5q92 0 146 -58t54 -152z"/>
<glyph glyph-name="ocircumflex" horiz-adv-x="522" unicode="ô" d="M478 520h-68l-86 112h-2l-116 -112h-68l121 177h144zM351 320q0 43 -15.5 67.5t-43.5 24.5q-36 0 -64.5 -50.5t-44.5 -125.5q-12 -56 -12 -98q0 -43 15.5 -67.5t43.5 -24.5q36 0 64.5 51t44.5 126q12 54 12 97zM492 263q0 -113 -74 -195.5t-186 -82.5q-92 0 -147 58 t-55 152q0 113 75 195.5t187 82.5q92 0 146 -58t54 -152z"/>
<glyph glyph-name="otilde" horiz-adv-x="522" unicode="õ" d="M517 673q-15 -81 -46 -114t-80 -33q-30 0 -81.5 34.5t-67.5 34.5q-5 0 -9.5 -1t-8 -4.5l-6 -6t-6 -9.5t-5.5 -10.5t-6 -13t-6 -14.5h-60q15 80 46.5 113.5t79.5 33.5q30 0 79.5 -33.5t65.5 -33.5t28 13.5t27 43.5h56zM351 320q0 43 -15.5 67.5t-43.5 24.5 q-36 0 -64.5 -50.5t-44.5 -125.5q-12 -56 -12 -98q0 -43 15.5 -67.5t43.5 -24.5q36 0 64.5 51t44.5 126q12 54 12 97zM492 263q0 -113 -74 -195.5t-186 -82.5q-92 0 -147 58t-55 152q0 113 75 195.5t187 82.5q92 0 146 -58t54 -152z"/>
<glyph glyph-name="odieresis" horiz-adv-x="522" unicode="ö" d="M286 605q0 -32 -19 -53.5t-52 -21.5t-53 21.5t-20 53.5t20 54.5t53 22.5t52 -22.5t19 -54.5zM514 605q0 -32 -19 -53.5t-52 -21.5t-52 21.5t-19 53.5t19 54.5t52 22.5t52 -22.5t19 -54.5zM351 320q0 43 -15.5 67.5t-43.5 24.5q-36 0 -64.5 -50.5t-44.5 -125.5 q-12 -56 -12 -98q0 -43 15.5 -67.5t43.5 -24.5q36 0 64.5 51t44.5 126q12 54 12 97zM492 263q0 -113 -74 -195.5t-186 -82.5q-92 0 -147 58t-55 152q0 113 75 195.5t187 82.5q92 0 146 -58t54 -152z"/>
<glyph glyph-name="divide" d="M294 97q0 -22 -15.5 -38t-38.5 -16t-38 16t-15 38t15 38t38 16t38.5 -16t15.5 -38zM442 205h-404l3 61h398zM294 374q0 -22 -15.5 -38t-38.5 -16t-38 16t-15 38t15 38t38 16t38.5 -16t15.5 -38z" unicode="÷"/>
<glyph glyph-name="oslash" horiz-adv-x="522" unicode="ø" d="M354 349l-167 -288q17 -20 43 -20q37 0 67.5 52t46.5 129q12 54 12 98q0 11 -2 29zM168 109l167 288q-17 20 -43 20q-37 0 -67.5 -51.5t-46.5 -128.5q-12 -56 -12 -99q0 -11 2 -29zM115 17q-85 57 -85 178q0 113 75 195.5t187 82.5q43 0 79 -14l80 139h47l-91 -157 q85 -54 85 -178q0 -113 -74 -195.5t-186 -82.5q-44 0 -81 14l-74 -128h-46z"/>
<glyph glyph-name="ugrave" horiz-adv-x="592" unicode="ù" d="M393 520h-68l-159 177h154zM23 347q24 52 58.5 89t77.5 37q23 0 67.5 -27t44.5 -42q0 -6 -2 -14t-7 -24t-10 -30.5t-16 -45.5t-20 -58q-26 -78 -26 -97q0 -14 14 -26t30 -12q25 0 52 40.5t87 157.5l43 164l160 5l-49 -152l-51 -244l26 -9l63 43l18 -23q-62 -95 -148 -95 q-24 0 -64.5 18t-40.5 33q0 26 21.5 99.5t30.5 93.5h-12q-80 -162 -110 -192q-51 -51 -115 -51q-49 0 -76.5 29t-27.5 70q0 48 49 185l39 110l-29 8l-54 -65z"/>
<glyph glyph-name="uacute" horiz-adv-x="592" unicode="ú" d="M550 697l-209 -177h-66l121 177h154zM23 347q24 52 58.5 89t77.5 37q23 0 67.5 -27t44.5 -42q0 -6 -2 -14t-7 -24t-10 -30.5t-16 -45.5t-20 -58q-26 -78 -26 -97q0 -14 14 -26t30 -12q25 0 52 40.5t87 157.5l43 164l160 5l-49 -152l-51 -244l26 -9l63 43l18 -23 q-62 -95 -148 -95q-24 0 -64.5 18t-40.5 33q0 26 21.5 99.5t30.5 93.5h-12q-80 -162 -110 -192q-51 -51 -115 -51q-49 0 -76.5 29t-27.5 70q0 48 49 185l39 110l-29 8l-54 -65z"/>
<glyph glyph-name="ucircumflex" horiz-adv-x="592" unicode="û" d="M513 520h-68l-86 112h-2l-116 -112h-68l121 177h144zM23 347q24 52 58.5 89t77.5 37q23 0 67.5 -27t44.5 -42q0 -6 -2 -14t-7 -24t-10 -30.5t-16 -45.5t-20 -58q-26 -78 -26 -97q0 -14 14 -26t30 -12q25 0 52 40.5t87 157.5l43 164l160 5l-49 -152l-51 -244l26 -9l63 43 l18 -23q-62 -95 -148 -95q-24 0 -64.5 18t-40.5 33q0 26 21.5 99.5t30.5 93.5h-12q-80 -162 -110 -192q-51 -51 -115 -51q-49 0 -76.5 29t-27.5 70q0 48 49 185l39 110l-29 8l-54 -65z"/>
<glyph glyph-name="udieresis" horiz-adv-x="592" unicode="ü" d="M311 605q0 -32 -19 -53.5t-52 -21.5t-53 21.5t-20 53.5t20 54.5t53 22.5t52 -22.5t19 -54.5zM539 605q0 -32 -19 -53.5t-52 -21.5t-52 21.5t-19 53.5t19 54.5t52 22.5t52 -22.5t19 -54.5zM23 347q24 52 58.5 89t77.5 37q23 0 67.5 -27t44.5 -42q0 -6 -2 -14t-7 -24 t-10 -30.5t-16 -45.5t-20 -58q-26 -78 -26 -97q0 -14 14 -26t30 -12q25 0 52 40.5t87 157.5l43 164l160 5l-49 -152l-51 -244l26 -9l63 43l18 -23q-62 -95 -148 -95q-24 0 -64.5 18t-40.5 33q0 26 21.5 99.5t30.5 93.5h-12q-80 -162 -110 -192q-51 -51 -115 -51 q-49 0 -76.5 29t-27.5 70q0 48 49 185l39 110l-29 8l-54 -65z"/>
<glyph glyph-name="yacute" horiz-adv-x="523" unicode="ý" d="M535 697l-209 -177h-66l121 177h154zM526 382q0 -82 -147 -265l-82 -102l-52 -112q-35 -77 -79.5 -113t-102.5 -36q-48 0 -83 27.5t-35 68.5q0 30 18 49t45 19q36 0 57 -25.5t21 -68.5l18 -5l118 145l-87 26l-29 389l-29 8l-52 -65l-23 25q24 52 58.5 89t77.5 37 q25 0 70 -17t46 -32l-1 -379h15l142 258v15q-30 11 -45 31t-15 40q0 36 23.5 60t59.5 24q38 0 65.5 -25t27.5 -66z"/>
<glyph glyph-name="thorn" horiz-adv-x="567" unicode="þ" d="M401 284q0 36 -14 59t-36 23q-13 0 -28.5 -12t-36 -41t-33 -48.5t-39.5 -62.5l-31 -88q18 -31 52 -51.5t55 -20.5q18 0 33 15q35 35 56.5 103.5t21.5 123.5zM544 328q0 -70 -32.5 -144t-86.5 -128q-71 -71 -140 -71q-70 0 -107 65h-10l-46 -218q-3 -18 23 -24l64 -11 l3 -43h-296l3 43l39 11q18 6 23 24l154 709q2 10 2 14q0 24 -19 32l-52 25l8 32l240 53l-58 -226l-49 -192h13q51 107 93 150.5t101 43.5q57 0 93.5 -38.5t36.5 -106.5z"/>
<glyph glyph-name="OE" horiz-adv-x="1031" unicode="Œ" d="M498 560l-66 15q-87 -6 -144.5 -82t-57.5 -209q0 -112 44 -172t128 -60h26zM987 212l-48 -212h-558h-3q-160 0 -245.5 76.5t-85.5 204.5q0 136 105 241q47 47 125.5 75t169.5 28h578l-29 -225h-89l-10 69q-9 71 -42.5 88.5t-137.5 17.5h-48l-33 -236h16q68 0 89 42l35 69 h64l-60 -268h-63l-3 63q-1 25 -16 34t-58 9h-12l-31 -238h62q99 0 138 19t72 88l28 55h90z"/>
<glyph glyph-name="oe" horiz-adv-x="774" unicode="œ" d="M351 320q0 43 -15.5 67.5t-43.5 24.5q-36 0 -64.5 -50.5t-44.5 -125.5q-12 -56 -12 -98q0 -43 15.5 -67.5t43.5 -24.5q36 0 64.5 51t44.5 126q12 54 12 97zM482 205q48 29 66 40.5t45.5 33t37 39.5t9.5 40q0 20 -23.5 35t-44.5 15q-17 0 -26 -9q-20 -20 -43 -79t-26 -115 h5zM766 369q0 -15 -5.5 -28t-19 -26t-28.5 -24t-42.5 -26.5t-51 -27.5t-65 -33.5t-73.5 -39.5v-2q0 -37 24.5 -63.5t63.5 -26.5q21 0 136 74l19 -24q-96 -137 -214 -137q-92 0 -129 65q-65 -65 -149 -65q-92 0 -147 58t-55 152q0 113 75 195.5t187 82.5q108 0 152 -81 q73 81 183 81q68 0 103.5 -29t35.5 -75z"/>
<glyph glyph-name="Scaron" horiz-adv-x="567" unicode="Š" d="M542 864l-121 -177h-144l-73 177h66l86 -112h2l116 112h68zM516 194q0 -98 -71.5 -153.5t-185.5 -55.5q-105 0 -233 36l23 206l87 -3l33 -163q52 -16 100 -16q46 0 72.5 24t26.5 63q0 20 -8 35t-31 30.5t-34.5 21.5t-48.5 24q-46 22 -73 38.5t-52 40t-35.5 53.5t-10.5 70 q0 81 71 136.5t181 55.5q59 0 177 -29l58 21l-28 -217l-82 3l-30 145q-46 16 -102 16q-43 0 -69 -21.5t-26 -48.5q0 -18 8.5 -34.5t17 -26.5t32.5 -24.5t33.5 -19t42.5 -20.5q82 -40 119.5 -79.5t37.5 -107.5z"/>
<glyph glyph-name="scaron" horiz-adv-x="418" unicode="š" d="M458 697l-121 -177h-144l-73 177h66l86 -112h2l116 112h68zM419 380q0 -37 -18 -56.5t-51 -19.5q-31 0 -49.5 19.5t-18.5 47.5q0 14 5 26q-39 24 -82 27q-13 -12 -22.5 -29.5t-9.5 -22.5q0 -8 10 -20.5t20.5 -23t29 -26.5t25.5 -22q8 -7 23 -21t21 -19.5t17 -16.5 t15.5 -16t12 -14t10 -15t6.5 -14t5 -16t1 -16q0 -62 -61 -104.5t-152 -42.5q-62 0 -111 24t-49 74q0 36 18.5 55.5t52.5 19.5q29 0 47.5 -19t18.5 -48q0 -13 -5 -25q15 -9 45.5 -18t51.5 -10q26 28 26 57q0 7 -4.5 14.5t-14 16.5t-18.5 17t-23.5 20t-23.5 20q-48 43 -65 60 t-31.5 40t-14.5 47q0 68 58 105.5t142 37.5q66 0 114.5 -22t48.5 -71z"/>
<glyph glyph-name="Ydieresis" horiz-adv-x="601" unicode="Ÿ" d="M345 772q0 -32 -19 -53.5t-52 -21.5t-53 21.5t-20 53.5t20 54.5t53 22.5t52 -22.5t19 -54.5zM573 772q0 -32 -19 -53.5t-52 -21.5t-52 21.5t-19 53.5t19 54.5t52 22.5t52 -22.5t19 -54.5zM668 625l-3 -46l-21 -7q-27 -7 -52 -31.5t-84 -109.5l-123 -173l-23 -179 q-3 -19 20 -24l49 -11l-4 -44h-322l9 44l53 11q23 4 26 24l22 167l-124 284q-16 33 -41 41l-22 8l-3 46h315l-3 -46l-38 -6q-28 -4 -28 -32q0 -25 22 -85l54 -154h10l88 127q55 80 55 113q0 25 -31 31l-27 6l-3 46h229z"/>
<glyph glyph-name="circumflex" horiz-adv-x="400" unicode="ˆ" d="M397 520h-68l-86 112h-2l-116 -112h-68l121 177h144z"/>
<glyph glyph-name="tilde" horiz-adv-x="400" unicode="˜" d="M428 673q-15 -81 -46 -114t-80 -33q-30 0 -81.5 34.5t-67.5 34.5q-5 0 -9.5 -1t-8 -4.5l-6 -6t-6 -9.5t-5.5 -10.5t-6 -13t-6 -14.5h-60q15 80 46.5 113.5t79.5 33.5q30 0 79.5 -33.5t65.5 -33.5t28 13.5t27 43.5h56z"/>
<glyph glyph-name="thinspace" horiz-adv-x="76" unicode=" "/>
<glyph glyph-name="endash" horiz-adv-x="470" unicode="–" d="M439 221h-406l3 67h400z"/>
<glyph glyph-name="emdash" horiz-adv-x="940" unicode="—" d="M909 221h-876l3 67h870z"/>
<glyph glyph-name="quoteleft" horiz-adv-x="252" unicode="‘" d="M232 397q0 -27 -25 -50t-59 -23q-46 0 -73 31.5t-27 74.5q0 60 56 120t151 107l25 -29q-117 -70 -117 -140q0 -17 7 -32t17.5 -25t20.5 -17.5t17 -11.5t7 -5z"/>
<glyph glyph-name="quotesinglbase" horiz-adv-x="252" unicode="‚" d="M187 53q0 -60 -56 -120t-151 -107l-25 29q117 70 117 140q0 17 -7 32t-17 25t-20.5 17.5t-17.5 11.5t-7 5q0 27 25 50t59 23q46 0 73 -31.5t27 -74.5z"/>
<glyph glyph-name="quotedblleft" horiz-adv-x="481" unicode="“" d="M232 397q0 -27 -25 -50t-59 -23q-46 0 -73 31.5t-27 74.5q0 60 56 120t151 107l25 -29q-117 -70 -117 -140q0 -17 7 -32t17.5 -25t20.5 -17.5t17 -11.5t7 -5zM461 397q0 -27 -25 -50t-59 -23q-46 0 -73 31.5t-27 74.5q0 60 56 120t151 107l25 -29q-117 -70 -117 -140 q0 -17 7 -32t17 -25t20.5 -17.5t17.5 -11.5t7 -5z"/>
<glyph glyph-name="quotedblright" horiz-adv-x="481" unicode="”" d="M275 553q0 -60 -56 -120t-151 -107l-25 29q117 70 117 140q0 17 -7 32t-17 25t-20.5 17.5t-17.5 11.5t-7 5q0 27 25 50t59 23q46 0 73 -31.5t27 -74.5zM504 553q0 -60 -56 -120t-151 -107l-25 29q117 70 117 140q0 17 -7 32t-17.5 25t-20.5 17.5t-17 11.5t-7 5 q0 27 25 50t59 23q46 0 73 -31.5t27 -74.5z"/>
<glyph glyph-name="dagger" horiz-adv-x="470" unicode="†" d="M470 436l-4 -51h-180v-539h-48v539h-179l-4 51h183v191h48v-191h184z"/>
<glyph glyph-name="daggerdbl" horiz-adv-x="470" unicode="‡" d="M472 19h-184v-173h-48v173h-183l4 49h179v332h-179l-4 49h183v178h48v-178h184l-4 -49h-180v-332h180z"/>
<glyph glyph-name="ellipsis" horiz-adv-x="696" unicode="…" d="M185 72q0 -36 -25.5 -62t-62.5 -26t-62.5 25.5t-25.5 62.5t25.5 63t62.5 26q36 0 62 -26.5t26 -62.5zM417 72q0 -36 -25.5 -62t-62.5 -26t-62.5 25.5t-25.5 62.5t25.5 63t62.5 26q36 0 62 -26.5t26 -62.5zM649 72q0 -36 -25.5 -62t-62.5 -26t-62.5 25.5t-25.5 62.5 t25.5 63t62.5 26q36 0 62 -26.5t26 -62.5z"/>
<glyph glyph-name="perthousand" horiz-adv-x="1126" unicode="‰" d="M671 158q0 47 -32.5 78t-79.5 31q-54 0 -92 -42t-38 -97q0 -49 31.5 -79t78.5 -30q55 0 93.5 41.5t38.5 97.5zM1052 158q0 47 -32.5 78t-79.5 31q-54 0 -92 -42t-38 -97q0 -49 31.5 -79t78.5 -30q55 0 93.5 41.5t38.5 97.5zM335 490q0 50 -31.5 81.5t-80.5 31.5 q-54 0 -92 -42t-38 -97q0 -49 32 -79t80 -30q55 0 92.5 39.5t37.5 95.5zM719 164q0 -77 -54 -132t-130 -55q-68 0 -111 40t-43 107q0 78 52.5 132.5t129.5 54.5q66 0 111 -40t45 -107zM1100 164q0 -77 -54 -132t-130 -55q-68 0 -111 40t-43 107q0 78 52.5 132.5t129.5 54.5 q66 0 111 -40t45 -107zM724 639l-630 -654h-59l630 654h59zM385 500q0 -78 -53.5 -132.5t-130.5 -54.5q-66 0 -111 41t-45 108q0 76 53.5 130.5t128.5 54.5q67 0 112.5 -40t45.5 -107z"/>
<glyph glyph-name="guilsinglleft" horiz-adv-x="300" unicode="‹" d="M263 54l-14 -22l-231 156v70l277 160l10 -22l-183 -175z"/>
<glyph glyph-name="guilsinglright" horiz-adv-x="300" unicode="›" d="M289 184l-269 -156l-10 22l167 171l-127 171l14 22l231 -156z"/>
<glyph glyph-name="fraction" horiz-adv-x="525" unicode="⁄" d="M530 638l-469 -653h-66l469 653h66z"/>
<glyph glyph-name="Euro" horiz-adv-x="534" unicode="€" d="M208 219q20 -144 141 -144q67 0 132 57l17 -16q-27 -58 -82.5 -94.5t-119.5 -36.5q-97 0 -155.5 65t-67.5 169h-60l3 53h56v1q2 36 9 72h-52l3 53h63q35 102 109 166.5t180 64.5q67 0 108.5 -24.5t42.5 -61.5q0 -31 -19 -51t-47 -20q-31 0 -50 23.5t-19 59.5q0 9 1 14 q-17 10 -36 10q-47 0 -85.5 -52t-59.5 -129h203l3 -53h-217q-5 -38 -5 -66v-7h203l3 -53h-202z"/>
<glyph glyph-name="trademark" horiz-adv-x="956" unicode="™" d="M420 625v-153h-52l-4 19q-13 62 -26 81t-53 19h-1v-286q0 -11 12 -14l34 -6l3 -32h-196l3 32l34 6q13 3 13 14v286h-1q-36 0 -50 -20.5t-29 -79.5l-5 -19h-49l8 153h359zM968 253h-199l1 32l35 7q12 3 12 39v18l-5 232h-10l-88 -316h-86l-64 319h-10l-7 -195 q-1 -21 -1 -51q0 -45 12 -48l32 -5l3 -32h-146l3 32l30 5q13 2 17 17.5t6 81.5l6 183q0 12 -13 15l-34 6l-2 32h193l42 -266h10l67 266h188l-2 -32l-33 -6q-14 -3 -14 -15l4 -223q0 -24 3 -36.5t6.5 -15.5t10.5 -5l31 -7z"/>
<glyph glyph-name="minus" d="M442 205h-404l3 61h398z" unicode="−"/>
<glyph glyph-name="approxequal" d="M154 160q-21 0 -34.5 -11t-23.5 -47h-56q10 54 39.5 86.5t71.5 32.5q30 0 91.5 -33t83.5 -33q21 0 34.5 11.5t23.5 46.5h56q-10 -54 -39.5 -86.5t-71.5 -32.5q-37 0 -98.5 33t-76.5 33zM154 323q-21 0 -34.5 -11t-23.5 -47h-56q10 54 39.5 86.5t71.5 32.5q30 0 91.5 -33 t83.5 -33q21 0 34.5 11.5t23.5 46.5h56q-10 -54 -39.5 -86.5t-71.5 -32.5q-37 0 -98.5 33t-76.5 33z" unicode="≈"/>
<glyph glyph-name="notequal" d="M138 -23l40 143h-141l3 61h156l30 107h-186l-3 61h206l38 133h61l-38 -133h139l-3 -61h-153l-30 -107h183l3 -61h-204l-40 -143h-61z" unicode="≠"/>
<glyph glyph-name="lessequal" d="M448 0h-416l3 61h410zM139 270l302 -126l-14 -55l-395 166v40l395 166l14 -55l-302 -126v-10z" unicode="≤"/>
<glyph glyph-name="greaterequal" d="M448 0h-416l3 61h410zM39 144l302 126v10l-302 126l14 55l395 -166v-40l-395 -166z" unicode="≥"/>
</font>
</defs>
</svg>
