<?xml version="1.0" encoding="UTF-8" standalone="no"?>
<!DOCTYPE svg  PUBLIC '-//W3C//DTD SVG 1.1//EN'  'http://www.w3.org/Graphics/SVG/1.1/DTD/svg11.dtd'>
<svg xmlns="http://www.w3.org/2000/svg">
<defs>
<font id="FreightDispProBlack-Italic" horiz-adv-x="448">
<font-face slope="-12" underline-position="-146" font-weight="900" descent="-200" panose-1="2 0 10 3 2 0 0 9 0 4" units-per-em="1000" unicode-range="U+0020-2265" bbox="-209 -263 1094 857" x-height="456" underline-thickness="20" font-family="FreightDispProBlack" ascent="800" font-style="italic" cap-height="625"/>
<missing-glyph horiz-adv-x="1000"/>
<glyph glyph-name=".notdef" horiz-adv-x="1000"/>
<glyph glyph-name=".null" horiz-adv-x="0"/>
<glyph glyph-name="nonmarkingreturn" horiz-adv-x="333"/>
<glyph glyph-name="space" horiz-adv-x="180" unicode=" "/>
<glyph glyph-name="exclam" horiz-adv-x="293" unicode="!" d="M116 -13q-31 0 -53 22.5t-22 53.5t22 52.5t53 21.5q30 0 52 -22t22 -52q0 -31 -22 -53.5t-52 -22.5zM151 207q-1 -5 -8 -5q-6 0 -6 6v365q0 29 17.5 48t55.5 19q10 0 16 -1h4q69 -8 69 -53q0 -11 -7 -30z"/>
<glyph glyph-name="quotedbl" horiz-adv-x="365" unicode='&quot;' d="M36 403l141 241h1l82 -39l-200 -202h-24zM216 403l141 241h1l82 -39l-200 -202h-24z"/>
<glyph glyph-name="numbersign" horiz-adv-x="525" unicode="#" d="M181 210h157l53 203h-158zM98 -5l51 192h-134l1 23h139l53 203h-134l1 22h140l51 197h26l-52 -197h157l52 197h25l-51 -197h132v-22h-139l-53 -203h133l-1 -23h-139l-50 -192h-25l50 192h-157l-51 -192h-25z"/>
<glyph glyph-name="dollar" horiz-adv-x="525" unicode="$" d="M382 598q-33 12 -65 12q-45 0 -76 -29t-31 -65q0 -35 24 -60t69 -49zM171 28q34 -17 81 -17q55 0 86 33t31 81q0 40 -27 66.5t-81 54.5l-23 -54l-44 -110zM135 0q-56 14 -112 42l16 181l29 -2l35 -119q20 -39 48 -62l90 216q-2 2 -3 2q-75 39 -115.5 80.5t-40.5 105.5 q0 78 65.5 135t161.5 57q39 0 84 -12l48 115h25l-50 -121q26 -8 54 -20l64 15l-29 -192l-27 1l-62 160q-8 6 -12 7l-80 -193l16 -8q74 -38 115 -80.5t41 -110.5q0 -88 -69.5 -149.5t-175.5 -61.5q-40 0 -94 9l-66 -160h-25z"/>
<glyph glyph-name="percent" horiz-adv-x="608" unicode="%" d="M440 4q52 0 85 35.5t33 87.5q0 49 -31.5 82t-80.5 33q-52 0 -85 -36.5t-33 -87.5q0 -50 31 -82t81 -32zM197 384q52 0 85 35t33 86q0 50 -31 83.5t-81 33.5q-52 0 -85 -36.5t-33 -87.5q0 -50 31 -82t81 -32zM438 -16q-59 0 -96 37.5t-37 94.5q0 61 40 103.5t102 42.5 q59 0 96.5 -38.5t37.5 -95.5q0 -60 -40 -102t-103 -42zM8 -14l598 654h26l-597 -654h-27zM196 364q-59 0 -96.5 38t-37.5 95q0 60 40 102.5t102 42.5q60 0 97.5 -38.5t37.5 -95.5q0 -60 -40 -102t-103 -42z"/>
<glyph glyph-name="ampersand" horiz-adv-x="771" unicode="&amp;" d="M297 430q12 -62 71 -62q13 0 23 8t10 17q0 16 -21.5 27t-53.5 11q-20 0 -29 -1zM661 409q43 -18 67.5 -52.5t24.5 -77.5q0 -124 -115 -209t-271 -85q-161 0 -247 69.5t-86 178.5q0 63 40.5 112t107.5 76q-14 28 -14 57q0 71 47.5 116t122.5 45q63 0 102.5 -41t39.5 -99 q0 -8 -2 -24l-18 4v9q0 35 -21.5 56.5t-60.5 21.5t-61.5 -29t-22.5 -65q0 -17 1 -25q10 1 31 1q46 0 74.5 -18.5t28.5 -46.5q0 -27 -23.5 -44.5t-60.5 -17.5q-43 0 -83.5 21.5t-65.5 56.5q-39 -30 -39 -91q0 -101 83 -161t225 -60q116 0 191.5 56t75.5 136q0 47 -31 79.5 t-77 32.5q-24 0 -55 -32.5t-31 -58.5q0 -33 20.5 -52t52.5 -19q-32 15 -32 53q0 23 15 39.5t41 16.5q24 0 39.5 -16.5t15.5 -42.5q0 -29 -22.5 -48t-59.5 -19q-56 0 -95 37.5t-39 94.5q0 43 25.5 74.5t62 51t72.5 38t61.5 44.5t25.5 61q0 20 -23.5 36.5t-57.5 16.5 q17 -4 27.5 -20.5t10.5 -36.5q0 -24 -16 -41.5t-47 -17.5q-28 0 -46 17t-18 45q0 32 26 52t65 20q61 0 103.5 -41t42.5 -100q0 -41 -29 -71.5t-98 -62.5z"/>
<glyph glyph-name="quotesingle" horiz-adv-x="186" unicode="&apos;" d="M36 403l141 241h1l82 -39l-200 -202h-24z"/>
<glyph glyph-name="parenleft" horiz-adv-x="340" unicode="(" d="M253 -263q-78 50 -139 156.5t-61 241.5q0 38 6 80q13 85 50.5 160.5t86.5 128.5t98 88.5t96 55.5l12 -20q-46 -19 -93.5 -54.5t-93.5 -86.5t-81 -123t-47 -151q-6 -40 -6 -80q0 -128 56.5 -229t129.5 -148z"/>
<glyph glyph-name="parenright" horiz-adv-x="340" unicode=")" d="M-58 -263l-12 19q45 19 92.5 54.5t93.5 86.5t81 123t47 152q6 40 6 80q0 127 -56.5 228t-128.5 149l14 19q77 -50 138 -157t61 -241q0 -38 -6 -80q-13 -85 -50 -161t-86 -128.5t-98 -88.5t-96 -55z"/>
<glyph glyph-name="asterisk" horiz-adv-x="332" unicode="*" d="M252 301l-60 27l19 135q0 1 -2.5 2t-4.5 1.5t-2 -0.5l-71 -111l-65 15q-6 6 -6 7l7 67l130 26q3 1 3.5 6t-3.5 6l-125 45l2 68q0 1 4 3t5 2l66 6l53 -120q0 -1 2 -1t4.5 1t2.5 2l2 135l65 18q7 0 7 -3l28 -57l-97 -95l6 -8l127 43l39 -55q1 -2 1 -3q0 -4 -2 -6l-46 -47 l-119 63q-1 0 -4 -4t-2 -5l81 -108l-37 -52z"/>
<glyph glyph-name="plus" d="M214 25v198h-198l3 26h195v198h26v-198h195l3 -26h-198v-198h-26z" unicode="+"/>
<glyph glyph-name="comma" horiz-adv-x="222" unicode="," d="M-29 -140l-9 11q120 50 120 132q0 28 -19.5 46.5t-42.5 18.5q-10 0 -17 -3q-1 4 -1 12q0 28 22.5 53t58.5 25q44 0 67.5 -28.5t23.5 -67.5q0 -59 -56 -115t-147 -84z"/>
<glyph glyph-name="hyphen" horiz-adv-x="297" unicode="-" d="M23 216l10 48h247l-7 -48h-250z"/>
<glyph glyph-name="period" horiz-adv-x="228" unicode="." d="M85 -13q-32 0 -54.5 23t-22.5 56q0 32 23 55t54 23t54.5 -23.5t23.5 -54.5q0 -32 -23 -55.5t-55 -23.5z"/>
<glyph glyph-name="slash" horiz-adv-x="258" unicode="/" d="M12 -236l212 877h24l-212 -877h-24z"/>
<glyph glyph-name="zero" horiz-adv-x="565" unicode="0" d="M247 12q43 0 79 61t54.5 141t18.5 150q0 110 -78 110q-41 0 -77 -63t-54 -143.5t-18 -146.5q0 -109 75 -109zM266 -14q-102 0 -166 61.5t-64 159.5q0 119 78.5 206t191.5 87q102 0 165.5 -62t63.5 -159q0 -119 -78 -206t-191 -87z"/>
<glyph glyph-name="one" horiz-adv-x="370" unicode="1" d="M1 0l6 19l30 4q43 3 45 17l74 396l-88 16l5 16l245 29l-86 -458q-3 -11 44 -16l26 -4v-19h-301z"/>
<glyph glyph-name="two" horiz-adv-x="494" unicode="2" d="M-14 0l3 57q165 96 225 149.5t60 117.5q0 40 -25 66t-71 27h-3q-56 0 -108 -58l-8 11q93 129 213 129h5q69 -1 111 -37t42 -90v-5q-1 -26 -14.5 -50.5t-32 -43t-58 -44t-71 -43.5t-93.5 -51q-34 -18 -52 -28l-1 -4h201q46 0 73 20.5t65 79.5l14 22l18 -1l-93 -224h-400z "/>
<glyph glyph-name="three" horiz-adv-x="459" unicode="3" d="M110 -197q-74 0 -122 25.5t-48 74.5q0 26 19 47t49 21q33 0 53.5 -24.5t20.5 -58.5q0 -26 -12 -51q17 -11 36 -11q60 0 101 52.5t41 119.5q0 61 -33.5 96.5t-90.5 35.5q-30 0 -71 -13l-7 17q130 58 177 94t47 96q0 40 -27.5 65.5t-68.5 25.5q-65 0 -119 -70l-8 13 q96 140 220 140q67 0 110.5 -35t43.5 -90q0 -57 -50 -96t-151 -76v-4q12 3 26 3q68 0 111 -45t43 -107q0 -97 -91.5 -171t-198.5 -74z"/>
<glyph glyph-name="four" horiz-adv-x="542" unicode="4" d="M56 86h196l53 271h-4zM202 -184l34 190h-261v25l416 461l75 -7l-75 -399l112 -1l-24 -79h-104l-36 -190h-137z"/>
<glyph glyph-name="five" d="M86 -200q-68 0 -113 26t-45 68q0 31 21 55t51 24q31 0 49.5 -20.5t18.5 -48.5q0 -30 -20 -54q25 -25 63 -25q53 0 90 44.5t37 107.5q0 69 -60 117t-158 63l146 325h280l-23 -124h-286l-37 -84q129 -18 199 -80t70 -149q0 -97 -87.5 -171t-195.5 -74z" unicode="5"/>
<glyph glyph-name="six" horiz-adv-x="552" unicode="6" d="M249 7q35 0 64 39.5t44.5 95t15.5 108.5q0 58 -23.5 87.5t-63.5 29.5q-31 0 -57 -24q-48 -102 -48 -219t68 -117zM260 -16q-103 0 -164 62t-61 163q0 82 40.5 160.5t110.5 139.5t174 98t223 37h13l10 -18q-134 -9 -230.5 -79.5t-144.5 -179.5l3 -1q76 51 137 51 q68 0 111.5 -49.5t43.5 -123.5q0 -106 -78.5 -183t-187.5 -77z"/>
<glyph glyph-name="seven" horiz-adv-x="483" unicode="7" d="M21 -184l382 550l-1 1h-142q-72 0 -110.5 -7t-55 -21t-27.5 -43l-15 -25h-19l67 213h394l-1 -19l-352 -649h-120z"/>
<glyph glyph-name="eight" horiz-adv-x="533" unicode="8" d="M250 7q47 0 79.5 33t32.5 81q0 85 -147 164q-29 -17 -46 -58t-17 -88q0 -57 27.5 -94.5t70.5 -37.5zM346 365q29 16 45.5 57t16.5 82q0 50 -25.5 82t-67.5 32q-44 0 -72 -32t-28 -77q0 -41 32 -74.5t99 -69.5zM251 -15q-94 0 -162.5 47t-68.5 119q0 57 48 97.5t122 48.5 v2q-106 61 -106 147q0 77 69.5 135t155.5 58q97 0 162.5 -41t65.5 -110q0 -56 -48 -90t-120 -44v-2q124 -66 124 -166q0 -80 -75 -140.5t-167 -60.5z"/>
<glyph glyph-name="nine" horiz-adv-x="552" unicode="9" d="M272 111q29 0 56 25q49 107 49 221q0 56 -17.5 87t-50.5 31q-52 0 -88 -79.5t-36 -164.5q0 -58 23.5 -89t63.5 -31zM-39 -163l-9 18q133 10 229.5 80t144.5 176l-2 1q-73 -51 -137 -51q-68 0 -111.5 51t-43.5 125q0 106 78.5 183t187.5 77q103 0 164 -62t61 -163 q0 -82 -40 -160.5t-110 -139.5t-173.5 -98t-222.5 -37h-16z"/>
<glyph glyph-name="colon" horiz-adv-x="226" unicode=":" d="M85 -13q-32 0 -54.5 23t-22.5 56q0 32 23 55t54 23t54.5 -23.5t23.5 -54.5q0 -32 -23 -55.5t-55 -23.5zM141 280q-32 0 -54.5 23t-22.5 56q0 32 22.5 54.5t53.5 22.5q32 0 55.5 -23t23.5 -54q0 -32 -23 -55.5t-55 -23.5z"/>
<glyph glyph-name="semicolon" horiz-adv-x="222" unicode=";" d="M-29 -143l-9 12q120 50 120 131q0 28 -20 46.5t-43 18.5q-9 0 -16 -3q-1 4 -1 12q0 28 22.5 53t58.5 25q44 0 67.5 -29t23.5 -67q0 -59 -56 -114.5t-147 -84.5zM139 280q-32 0 -55 23t-23 55t23 55t54 23t55 -23.5t24 -54.5q0 -32 -23.5 -55t-54.5 -23z"/>
<glyph glyph-name="less" horiz-adv-x="438" unicode="&lt;" d="M414 32l-400 194v18l400 194l10 -24l-370 -177l1 -1q66 -32 191.5 -93.5t177.5 -86.5z"/>
<glyph glyph-name="equal" d="M27 136l3 26h394l3 -26h-400zM30 309l-3 26h400l-3 -26h-394z" unicode="="/>
<glyph glyph-name="greater" horiz-adv-x="438" unicode="&gt;" d="M430 226l-400 -194l-10 24l369 179v1q-60 29 -185 89t-184 89l10 24l400 -194v-18z"/>
<glyph glyph-name="question" horiz-adv-x="361" unicode="?" d="M131 -13q-30 0 -52 22.5t-22 53.5t22 52.5t52 21.5q31 0 53 -22t22 -52q0 -31 -22 -53.5t-53 -22.5zM154 185q-29 23 -47.5 54t-18.5 59q0 41 39 63t109 34q100 14 100 46q0 30 -46.5 53t-116.5 23q-26 0 -58 -4q-25 23 -25 52q0 33 24 54.5t65 21.5q82 0 136 -60 t54 -142q0 -131 -113 -157q-67 -14 -87 -23t-20 -25q0 -20 30 -47z"/>
<glyph glyph-name="at" horiz-adv-x="812" unicode="@" d="M338 132q50 0 121 130q29 58 29 78q-5 31 -28 59.5t-42 28.5q-12 0 -27 -15q-28 -27 -59 -101t-31 -126q0 -24 10.5 -39t26.5 -15zM420 -121q-164 0 -270.5 101.5t-106.5 258.5q0 170 117.5 291.5t284.5 121.5q152 0 250.5 -89.5t98.5 -232.5q0 -113 -70.5 -197.5 t-168.5 -84.5q-49 0 -82.5 24.5t-33.5 63.5q0 22 28 100h-4q-59 -99 -96 -140t-84 -41q-44 0 -74.5 29.5t-31.5 76.5q0 57 33 121.5t90 119.5q70 73 140 73q32 0 49.5 -24.5t17.5 -62.5q0 -2 -0.5 -7t-0.5 -8h4l45 117l120 -3l-67 -173l-47 -134q-4 -16 -4 -22 q0 -23 17.5 -37t51.5 -14q53 0 100 64.5t47 156.5q0 136 -92.5 220.5t-237.5 84.5q-156 0 -267 -116t-111 -276q0 -151 99.5 -247t257.5 -96q83 0 155 39.5t110 100.5l10 -15q-41 -63 -115.5 -103.5t-161.5 -40.5z"/>
<glyph glyph-name="A" horiz-adv-x="651" unicode="A" d="M188 266h141l-25 221h-5zM332 240h-157l-33 -65q-53 -98 -53 -120q0 -15 13.5 -22.5t44.5 -11.5l19 -3l2 -18h-223l3 18l20 3q27 4 39.5 8t31 26t34.5 50.5t52 97.5l165 317l-2 46q32 4 73 27t60 50h23l72 -513q9 -62 24.5 -83.5t44.5 -24.5l26 -4v-18h-335l3 18l24 2 q27 3 37.5 13t10.5 33q0 14 -5 47z"/>
<glyph glyph-name="B" horiz-adv-x="635" unicode="B" d="M339 346q60 0 95.5 41t35.5 108q0 48 -28 76.5t-80 32.5h-27l-49 -252q24 -6 53 -6zM270 21h16q64 0 106 49t42 115q0 61 -39.5 102t-97.5 41h-15l-55 -288zM-23 0l4 17l39 7q41 5 44 18l104 543q2 7 -5.5 10t-38.5 7l-30 6l-1 17h304q113 0 173.5 -37t60.5 -102 q0 -61 -52 -100t-142 -48v-3q76 -15 120.5 -55t44.5 -100q0 -84 -71 -132t-210 -48h-344z"/>
<glyph glyph-name="C" horiz-adv-x="685" unicode="C" d="M373 -12q-152 0 -237 85.5t-85 209.5q0 91 43 170.5t130 132t201 52.5q113 0 183 -45l82 26l-22 -209l-34 1l-58 158q-49 41 -115 41q-71 0 -126.5 -58.5t-82 -141.5t-26.5 -171q0 -109 44.5 -168t126.5 -59q95 0 157 100l54 103l34 -1l-47 -206l-45 4q-76 -24 -177 -24z "/>
<glyph glyph-name="D" horiz-adv-x="711" unicode="D" d="M292 23q70 1 124.5 52.5t83.5 136.5t29 189q0 200 -159 200h-36l-107 -563zM-22 0l3 17l41 7q40 5 42 18l105 543q1 7 -7 10t-37 7l-30 6l-1 17h282h3q153 0 237.5 -77t84.5 -201q0 -143 -110 -245t-298 -102h-315z"/>
<glyph glyph-name="E" horiz-adv-x="641" unicode="E" d="M-22 0l3 17l41 7q40 5 42 18l105 543q1 7 -7 10t-37 7l-30 6l-1 17h532l-9 -216h-33l-5 29q-21 95 -65.5 129.5t-125.5 34.5h-21l-33 -1l-52 -272l33 1q96 5 128 81l16 36h25l-60 -265h-24v34q0 47 -19.5 67t-78.5 23l-24 2l-54 -283l70 -4q94 2 158 40t107 127l13 25h33 l-60 -213h-567z"/>
<glyph glyph-name="F" horiz-adv-x="604" unicode="F" d="M-22 0l3 17l41 7q40 5 42 18l105 543q1 7 -7 10t-37 7l-30 6l-1 17h539l-22 -216h-33l-4 29q-17 100 -56 132t-127 32l-57 -3l-53 -278l32 1q97 5 128 81l17 37h24l-60 -266h-23l1 33q1 47 -20 69t-80 22h-23l-51 -258q-1 -7 7 -10.5t36 -6.5l42 -5l1 -18h-334z"/>
<glyph glyph-name="G" horiz-adv-x="733" unicode="G" d="M382 -16q-152 0 -242 81.5t-90 214.5q0 150 108 254t276 104q122 0 191 -43l81 24l-26 -213l-33 1l-60 165q-18 17 -51 28.5t-63 11.5q-105 0 -176 -110.5t-71 -268.5q0 -106 42 -165.5t114 -59.5q41 0 63 11l42 218q1 3 -2 5.5t-11 4.5t-18.5 3.5t-27.5 3.5l-30 5l-2 18 h333l-5 -18l-47 -5q-32 -3 -34 -18l-38 -182l60 7v-15q-56 -25 -134 -43.5t-149 -18.5z"/>
<glyph glyph-name="H" horiz-adv-x="755" unicode="H" d="M-22 0l3 17l41 7q40 4 42 18l105 543q1 7 -7 10t-37 7l-30 6l-2 17h323l-4 -17l-39 -7q-40 -6 -42 -18l-49 -253h232l50 255q1 7 -6.5 10t-37.5 7l-29 6l-1 17h323l-4 -17l-40 -7q-41 -6 -43 -18l-104 -543q-2 -7 6 -10t37 -7l31 -6l1 -17h-322l3 17l39 7q40 5 43 18 l50 264h-232l-52 -266q-1 -7 7 -10t37 -7l29 -6l2 -17h-323z"/>
<glyph glyph-name="I" horiz-adv-x="385" unicode="I" d="M-11 0l3 17l43 7q41 4 43 18l104 543q2 7 -6 10t-37 7l-35 6l-2 17h331l-4 -17l-43 -7q-40 -4 -43 -18l-104 -543q-1 -7 7 -10t37 -7l34 -6l1 -17h-329z"/>
<glyph glyph-name="J" horiz-adv-x="378" unicode="J" d="M-57 -180q-54 0 -87 25t-33 63q0 30 24 52t54 22q32 0 52 -21t20 -53q0 -35 -24 -65h1q90 0 129 198l103 543q2 8 -6.5 11.5t-36.5 6.5l-38 6l-1 17h330l-4 -17l-39 -7q-41 -4 -43 -19l-102 -531q-8 -49 -54.5 -102.5t-114 -91t-130.5 -37.5z"/>
<glyph glyph-name="K" horiz-adv-x="715" unicode="K" d="M-22 0l4 17l39 7q41 4 43 18l104 543q2 7 -6 10t-37 7l-31 6l-2 17h325l-3 -17l-41 -7q-41 -4 -43 -18l-53 -285l176 156q104 91 104 121q0 21 -55 29l-22 4l-3 17h279l-3 -17l-33 -6q-30 -4 -64 -22.5t-60 -39t-97 -79.5l-38 -32l125 -318q23 -58 37.5 -73t43.5 -19 l10 -2l1 -17h-307l3 17l11 3q22 3 31.5 10t9.5 23q0 21 -20 78l-70 187l-66 -56l-44 -222q-1 -7 7 -10t37 -7l31 -6l3 -17h-326z"/>
<glyph glyph-name="L" horiz-adv-x="611" unicode="L" d="M-22 0l3 17l40 7q41 5 43 18l105 543q1 7 -7 10t-37 7l-30 6l-2 17h331l-4 -17l-47 -7q-41 -7 -42 -18l-107 -558q51 -4 60 -4q70 0 125 40.5t118 146.5l13 26h32l-56 -234h-538z"/>
<glyph glyph-name="M" horiz-adv-x="884" unicode="M" d="M-27 0l3 17l28 5q40 3 55.5 21.5t24.5 68.5l100 445q-10 41 -54 45l-37 5l-1 18h272l62 -426l5 -1l228 427h262l-4 -17l-42 -7q-41 -4 -43 -19l-97 -496q-2 -24 -2 -29q0 -19 8 -24.5t35 -9.5l32 -6l1 -17h-331l3 17l49 7q23 2 31.5 14t12.5 50l92 482h-6l-306 -564h-61 l-79 540h-6l-96 -442q-5 -27 -5 -38q0 -23 13.5 -32.5t48.5 -11.5l29 -5l2 -17h-227z"/>
<glyph glyph-name="N" horiz-adv-x="702" unicode="N" d="M500 -6l-295 515h-4l-81 -401q-3 -16 -3 -30q0 -28 15 -41t51 -15l29 -5l2 -17h-233l3 17l28 5q40 4 56.5 25.5t23.5 68.5l87 422q-29 57 -80 63l-18 4l-2 20h256l228 -402h5l58 294q3 17 3 30q0 28 -15 41t-51 15l-29 5l-2 17h233l-4 -17l-27 -5q-40 -4 -56.5 -25.5 t-23.5 -68.5l-105 -515h-49z"/>
<glyph glyph-name="O" horiz-adv-x="743" unicode="O" d="M352 11q63 0 111.5 65.5t72 158.5t23.5 192q0 81 -32.5 132.5t-99.5 51.5q-52 0 -93 -45.5t-64 -115t-34.5 -139t-11.5 -128.5q0 -77 30.5 -124.5t97.5 -47.5zM365 -14q-137 0 -223 86t-86 217q0 139 102 243.5t255 104.5q138 0 226.5 -87.5t88.5 -218.5 q0 -140 -102.5 -242.5t-260.5 -102.5z"/>
<glyph glyph-name="P" horiz-adv-x="619" unicode="P" d="M316 293q65 0 108.5 53t43.5 131q0 54 -27.5 88t-76.5 39h-29l-59 -305q36 -6 40 -6zM-22 0l3 17l41 7q40 5 42 18l105 543q1 7 -7 10t-37 7l-30 6l-1 17h290q121 0 187 -45t66 -121q0 -87 -72.5 -138.5t-197.5 -51.5q-55 0 -93 9l-48 -238q-1 -7 7 -10.5t36 -6.5l41 -5 l1 -18h-333z"/>
<glyph glyph-name="Q" horiz-adv-x="743" unicode="Q" d="M352 10q64 0 113 66t71.5 159.5t22.5 192.5q0 81 -32.5 132.5t-99.5 51.5q-52 0 -93.5 -46t-64 -115.5t-34 -139t-11.5 -129.5q0 -76 31.5 -124t96.5 -48zM560 -187q-125 0 -195.5 40t-112.5 155q-90 28 -143 104t-53 177q0 140 102 244t255 104q138 0 226.5 -88 t88.5 -218q0 -118 -77.5 -214t-203.5 -122q31 -91 78.5 -123.5t157.5 -33.5l2 -13q-56 -12 -125 -12z"/>
<glyph glyph-name="R" horiz-adv-x="668" unicode="R" d="M345 330q60 2 97.5 45.5t37.5 105.5q0 53 -34 87.5t-92 34.5h-20l-50 -264q36 -9 61 -9zM-22 0l3 17l41 7q40 4 42 18l104 543q2 7 -6 10t-37 7l-31 6l-1 17h307q108 0 179 -41.5t71 -111.5q0 -64 -48.5 -105t-141.5 -48l89 -201q22 -56 36.5 -73.5t47.5 -25.5l7 -2 l1 -17h-227l-107 308l-26 8l-55 -276q-1 -7 7 -10t36 -7l34 -5l2 -18h-327z"/>
<glyph glyph-name="S" horiz-adv-x="544" unicode="S" d="M258 -14q-116 0 -228 56l16 181l29 -2l35 -119q46 -91 149 -91q55 0 86 33t31 81q0 19 -8.5 36.5t-16.5 28t-32 26t-33 20.5t-41 22q-75 39 -115.5 80.5t-40.5 105.5q0 78 65.5 135t161.5 57q65 0 161 -38l64 15l-29 -192l-27 1l-62 160q-41 28 -100 28q-45 0 -75.5 -29 t-30.5 -65q0 -22 9.5 -40.5t31 -34.5t38.5 -26t51 -27q74 -38 115 -80.5t41 -110.5q0 -88 -69.5 -149.5t-175.5 -61.5z"/>
<glyph glyph-name="T" horiz-adv-x="680" unicode="T" d="M137 0l3 17l44 7q41 4 43 18l107 562h-11q-56 -3 -110.5 -51.5t-93.5 -112.5l-17 -31h-32l65 216h574l-29 -215h-27l-7 32q-39 159 -137 162h-13l-108 -564q-1 -7 7.5 -10.5t36.5 -6.5l34 -6l2 -17h-331z"/>
<glyph glyph-name="U" horiz-adv-x="706" unicode="U" d="M358 -20q-124 0 -193.5 52t-69.5 150q0 32 8 80l61 323q1 7 -6 10t-36 7l-31 6l-2 17h325l-4 -17l-40 -7q-40 -5 -43 -18l-61 -323q-9 -48 -9 -89q0 -134 151 -134q140 0 170 169l64 311q3 15 3 28q0 28 -15.5 42.5t-52.5 16.5l-30 4l-2 17h235l-4 -17l-28 -4 q-39 -4 -55 -26t-23 -69l-65 -311q-20 -106 -83.5 -162t-163.5 -56z"/>
<glyph glyph-name="V" horiz-adv-x="665" unicode="V" d="M269 -3l-105 505q-15 63 -26.5 80.5t-39.5 20.5l-25 4l-1 18h327l-3 -18l-27 -2q-29 -2 -40 -9t-11 -25q0 -16 10 -59l64 -332h5l147 264q60 105 60 128q0 15 -13 22t-44 10l-19 3l-2 18h223l-4 -18l-18 -3q-27 -4 -40 -8.5t-32.5 -26t-36.5 -50t-55 -96.5l-246 -426h-48 z"/>
<glyph glyph-name="W" horiz-adv-x="1000" unicode="W" d="M258 -11l-104 513q-12 60 -24 79t-39 22l-21 4l-1 18h328l-4 -18l-30 -2q-28 -1 -39 -10t-11 -28q0 -6 4 -30l64 -358h5l157 283l-7 42q-8 55 -20.5 76t-38.5 23l-27 4l-2 18h339l-4 -18l-29 -2q-30 -2 -41.5 -12t-11.5 -36q0 -6 2 -28l47 -346h4l132 245q54 104 59 128 q1 6 1 11q0 17 -13.5 25t-45.5 12l-19 3l-2 18h228l-4 -18l-16 -4q-53 -9 -75 -34t-87 -145l-240 -435h-50l-68 434h-4l-246 -434h-46z"/>
<glyph glyph-name="X" horiz-adv-x="664" unicode="X" d="M-42 0l3 17l39 6q33 4 61.5 27.5t104.5 106.5q16 17 24 26l89 93l-96 217q-34 80 -47 94q-12 13 -30 15l-32 6l-2 17h339l-4 -17l-24 -3q-43 -5 -43 -35q0 -14 9 -38l53 -131l5 -1l49 54q54 60 74 86.5t20 39.5q0 18 -56 24l-22 4l-1 17h239l-3 -17l-32 -6 q-40 -5 -75.5 -35.5t-128.5 -131.5l-54 -55l112 -255q25 -61 38 -81.5t33 -22.5l24 -4l1 -17h-329l3 17l25 3q45 5 45 35q0 13 -9 34l-68 166h-4l-18 -19q-17 -20 -34 -39l-18 -19q-97 -106 -97 -130q0 -12 13.5 -17.5t44.5 -9.5l22 -4l2 -17h-245z"/>
<glyph glyph-name="Y" horiz-adv-x="649" unicode="Y" d="M117 0l5 17l44 7q41 4 43 18l45 233l-87 238q-19 51 -32.5 68t-42.5 22l-16 4l-1 18h329l-3 -18l-19 -3q-59 -5 -59 -39q0 -13 6 -29l73 -222l5 -1l90 122q81 111 81 138q0 25 -60 31l-23 3l-1 18h236l-4 -18l-25 -4q-41 -6 -69.5 -34t-114.5 -144l-98 -133l-49 -252 q-1 -7 7 -10t37 -7l33 -6v-17h-330z"/>
<glyph glyph-name="Z" horiz-adv-x="635" unicode="Z" d="M-8 0l3 20l469 574l-1 5l-79 2q-76 0 -140 -40.5t-105 -122.5l-12 -29h-31l46 216h525l-3 -20l-481 -574l-1 -4l79 -4q9 -1 27 -1q85 0 141.5 42.5t132.5 156.5l15 28h32l-78 -249h-539z"/>
<glyph glyph-name="bracketleft" horiz-adv-x="325" unicode="[" d="M-5 -239l130 872h249l-1 -23h-224l-127 -827h224l-2 -22h-249z"/>
<glyph glyph-name="backslash" horiz-adv-x="246" unicode="\" d="M209 -236l-212 877h24l212 -877h-24z"/>
<glyph glyph-name="bracketright" horiz-adv-x="325" unicode="]" d="M-58 -239l2 22h224l127 827h-224l1 23h249l-130 -872h-249z"/>
<glyph glyph-name="asciicircum" horiz-adv-x="379" unicode="^" d="M85 492l164 191h49l91 -191h-25l-106 90h-2l-146 -90h-25z"/>
<glyph glyph-name="underscore" horiz-adv-x="453" unicode="_" d="M-21 -36l3 37h425l3 -37h-431z"/>
<glyph glyph-name="grave" horiz-adv-x="420" unicode="`" d="M340 500l-191 184h136l80 -184h-25z"/>
<glyph glyph-name="a" horiz-adv-x="551" unicode="a" d="M190 73q29 0 59.5 34.5t72.5 111.5q8 16 20 46.5t12 38.5q-6 38 -32 68t-50 30q-10 0 -26 -15q-34 -35 -64.5 -114t-30.5 -137q0 -63 39 -63zM382 -14q-20 0 -56 29.5t-36 45.5q0 24 49 150h-5q-38 -66 -57 -96.5t-46 -65.5t-50.5 -48t-50.5 -13q-51 0 -84.5 33t-33.5 86 q0 62 37 134t99 134q81 81 152 81q35 0 53.5 -26.5t18.5 -67.5q0 -8 -2 -24h5l44 110l132 -3l-78 -207l-53 -163l45 -6l66 86l9 -9q-33 -67 -78.5 -113.5t-79.5 -46.5z"/>
<glyph glyph-name="b" horiz-adv-x="522" unicode="b" d="M220 9q26 0 45 19q40 40 72.5 124t32.5 146q0 73 -44 73q-51 0 -138 -192q-10 -25 -20.5 -63t-10.5 -51q6 -22 25 -39t38 -17zM195 -15q-58 0 -111 34.5t-53 79.5q0 9 3 18l130 475q1 4 1 11q0 16 -10 19l-72 10l4 13l236 28l-31 -112q-36 -118 -107 -336q-2 -7 1 -7t5 5 q57 126 101.5 179.5t97.5 53.5q55 0 86.5 -35t31.5 -88q0 -69 -33 -138.5t-87 -123.5q-84 -86 -193 -86z"/>
<glyph glyph-name="c" horiz-adv-x="418" unicode="c" d="M171 -13q-68 0 -112.5 46t-44.5 119q0 72 36 141.5t104.5 116t149.5 46.5q50 0 85.5 -26t35.5 -67q0 -36 -21.5 -61t-51.5 -25t-49 19t-19 45q0 21 13 40.5t30 25.5q-33 20 -47 20q-16 0 -40 -22q-31 -31 -57 -102.5t-26 -140.5q0 -46 21 -72.5t58 -26.5q60 0 125 95 l12 -10q-84 -161 -202 -161z"/>
<glyph glyph-name="d" horiz-adv-x="551" unicode="d" d="M190 73q29 0 59.5 34.5t72.5 111.5q8 16 20 46.5t12 38.5q-6 37 -32 67.5t-50 30.5q-10 0 -26 -15q-34 -35 -64.5 -114t-30.5 -137q0 -63 39 -63zM382 -14q-19 0 -54.5 32t-35.5 49q0 5 1 11.5t2 12t4 14.5t5 15.5t7 19l8 20t9.5 24.5t10.5 27h-5q-38 -66 -57 -96.5 t-46 -65.5t-50.5 -48t-50.5 -13q-51 0 -84.5 33t-33.5 86q0 62 37 134t99 134q81 81 152 81q33 0 50 -25.5t17 -65.5q0 -9 -2 -27h6l77 254q2 8 2 12q0 16 -11 18l-71 10l3 13l238 29l-141 -452l-48 -147l45 -6l66 86l9 -9q-33 -67 -78.5 -113.5t-79.5 -46.5z"/>
<glyph glyph-name="e" horiz-adv-x="424" unicode="e" d="M165 231q152 51 152 137q0 24 -15 41t-32 17q-15 0 -29 -12q-24 -24 -47 -75.5t-32 -106.5zM175 -13q-71 0 -116 46t-45 119q0 71 37 141t104.5 116.5t145.5 46.5q53 0 88 -26t35 -66q0 -51 -63.5 -84t-198.5 -69q-5 -23 -5 -57q0 -41 22.5 -66t59.5 -25q71 0 136 95 l12 -10q-84 -161 -212 -161z"/>
<glyph glyph-name="f" horiz-adv-x="331" unicode="f" d="M-57 -200q-50 0 -81 24t-31 62q0 27 19 46.5t50 19.5q27 0 47 -19t20 -46q0 -24 -19 -49q18 -8 27 -8q24 8 44 63.5t49 195.5l48 283l-92 4l19 52l89 12q33 128 79 174q59 59 159 59q55 0 89.5 -27t34.5 -68q0 -31 -19.5 -51t-49.5 -20q-31 0 -49.5 19.5t-18.5 46.5 q0 38 32 61q-30 11 -41 11q-49 -17 -87 -208l112 -1l-10 -59h-114l-64 -289q-35 -159 -106 -231q-59 -57 -136 -57z"/>
<glyph glyph-name="g" horiz-adv-x="457" unicode="g" d="M182 -226q53 0 87 21t34 52q0 46 -99 78q-14 5 -57.5 18.5t-64.5 21.5q-57 -22 -57 -89q0 -49 40.5 -75.5t116.5 -26.5zM195 152q15 0 33 18q29 29 46.5 91.5t17.5 109.5q0 23 -13.5 40t-32.5 17q-14 0 -30 -14q-25 -26 -42 -86t-20 -106v-5q0 -38 17 -55q10 -10 24 -10z M148 -252q-107 0 -170.5 30.5t-63.5 82.5q0 37 41.5 66.5t106.5 44.5v4q-61 35 -61 77q0 35 34.5 61t77.5 38v5q-39 22 -60.5 55.5t-21.5 71.5q0 71 61.5 121.5t140.5 50.5h6q70 -3 116 -37l135 17l-18 -82l-110 39l-1 -5q51 -41 51 -102q0 -66 -58.5 -110.5t-135.5 -44.5 h-9q-38 1 -78 17q-26 -12 -26 -40q0 -15 17 -22t77 -22l41 -10q76 -19 120.5 -52t44.5 -93q0 -63 -76 -112t-181 -49z"/>
<glyph glyph-name="h" horiz-adv-x="543" unicode="h" d="M373 -14q-18 0 -53.5 27.5t-35.5 47.5q0 8 2 17.5t7.5 24.5t10.5 29t15.5 40.5t18.5 48.5q36 93 36 106q0 8 -17 17t-32 9q-40 0 -154 -240l-36 -115l-143 2l52 160l126 432q2 8 2 12q0 16 -11 18l-71 10l4 13l235 28l-32 -112q-82 -282 -123 -389l7 -2q94 192 141 239 q48 46 87 46q49 0 79 -24.5t30 -53.5q0 -44 -48 -167l-53 -135l42 -6l70 86l10 -9q-36 -67 -84 -113.5t-82 -46.5z"/>
<glyph glyph-name="i" horiz-adv-x="301" unicode="i" d="M122 -14q-18 0 -53.5 27.5t-35.5 47.5q0 8 25.5 84.5t50.5 148.5l25 72l-52 5l-60 -92l-11 10q32 69 74.5 118t75.5 49q20 0 64 -25t44 -44q0 -10 -26.5 -88t-52.5 -151l-26 -73l42 -6l70 86l9 -9q-37 -68 -83 -114t-80 -46zM259 511q-33 0 -53 21.5t-20 52.5 q0 38 22.5 64.5t51.5 26.5q34 0 54 -21.5t19 -52.5q0 -38 -22.5 -64.5t-51.5 -26.5z"/>
<glyph glyph-name="j" horiz-adv-x="284" unicode="j" d="M-114 -253q-38 0 -66.5 23t-28.5 62q0 28 19.5 48t51.5 20q28 0 45.5 -21t17.5 -49q0 -33 -25 -55l47 12q19 22 34 62t38 119l122 397l-54 6l-60 -92l-11 10q33 69 75.5 118t74.5 49q20 0 64 -25t44 -44t-52 -176t-79 -211q-44 -116 -110 -182q-71 -71 -147 -71zM268 511 q-33 0 -53 21t-20 52q0 38 22.5 64.5t51.5 26.5q33 0 53 -20.5t20 -51.5q0 -39 -22.5 -65.5t-51.5 -26.5z"/>
<glyph glyph-name="k" horiz-adv-x="483" unicode="k" d="M324 -12q-17 0 -39 7t-29 16q0 68 -8.5 120.5t-18.5 74t-18 21.5q-3 0 -10.5 -3t-8.5 -5l-57 -221l-146 2l11 33t23 69.5t19 57.5q18 54 48 162t51 189l21 81q2 8 2 12q0 16 -10 18l-72 10l4 13l238 28l-30 -112q-55 -188 -99 -320q4 1 9 2t11.5 2t9.5 2q33 11 84 36 t63 35v6q-52 20 -52 68q0 29 22 50t53 21q33 0 55.5 -21.5t22.5 -52.5q0 -44 -36.5 -71.5t-115.5 -52.5l-29 -9q36 -3 61.5 -58.5t32.5 -119.5l27 -2l58 85l12 -10q-32 -69 -76.5 -116t-82.5 -47z"/>
<glyph glyph-name="l" horiz-adv-x="281" unicode="l" d="M104 -14q-18 0 -53.5 27t-35.5 47q0 1 1 2v2l149 528q1 4 1 11q0 16 -10 19l-72 10l4 13l231 28l-171 -598l42 -6l71 86l9 -9q-36 -67 -84 -113.5t-82 -46.5z"/>
<glyph glyph-name="m" horiz-adv-x="845" unicode="m" d="M671 -14q-18 0 -53 27.5t-35 47.5q0 8 2 17t7.5 25t10.5 29t16 41t19 48q36 93 36 106q0 8 -18.5 17t-33.5 9q-42 0 -154 -240l-39 -115l-142 2l46 141q10 32 26.5 78.5t26 74.5t9.5 35q0 8 -17 16t-32 8q-39 0 -151 -240l-37 -115l-141 2l52 161l54 205l-43 6l-61 -93 l-11 10q32 68 76 117.5t77 49.5q19 0 58.5 -26t39.5 -46q0 -23 -19 -87t-44 -125l8 -1q98 199 140 238q18 19 43 33t44 14q48 0 76 -27.5t28 -57.5q0 -37 -65 -199l7 -1q96 194 143 238q18 19 43 33t44 14q49 0 79 -25t30 -53q0 -48 -47 -168l-53 -135l42 -6l70 86l10 -9 q-37 -68 -85 -114t-82 -46z"/>
<glyph glyph-name="n" horiz-adv-x="572" unicode="n" d="M397 -14q-18 0 -53 27.5t-35 47.5q0 8 2 17.5t7.5 25t10.5 29t15.5 40.5t18.5 48q36 93 36 106q0 8 -17 17t-32 9q-42 0 -154 -240l-36 -115l-143 2l52 161l54 205l-43 6l-61 -93l-11 10q32 68 76 117.5t77 49.5q19 0 59.5 -26t40.5 -46q0 -23 -19 -87t-44 -125l7 -1 q97 195 142 238q47 47 87 47q48 0 78 -25t30 -53q0 -48 -47 -168l-53 -135l42 -6l70 86l10 -9q-36 -67 -84.5 -113.5t-82.5 -46.5z"/>
<glyph glyph-name="o" horiz-adv-x="469" unicode="o" d="M186 14q62 0 110 166q31 99 31 168q0 39 -13 59.5t-33 20.5q-28 0 -58.5 -45t-55.5 -131q-27 -89 -27 -160q0 -36 12 -57t34 -21zM201 -14q-81 0 -131.5 56.5t-50.5 143.5q0 104 75 187t171 83q77 0 130 -59.5t53 -147.5q0 -102 -74.5 -182.5t-172.5 -80.5z"/>
<glyph glyph-name="p" horiz-adv-x="540" unicode="p" d="M254 10q23 0 44 21q39 39 67.5 122.5t28.5 148.5q0 37 -14 55.5t-36 18.5q-53 0 -135 -193q-30 -75 -30 -99q6 -26 29 -50t46 -24zM-103 -251l3 17l25 4q21 2 28.5 5.5t9.5 11.5l160 579l-43 5l-61 -92l-11 10q32 68 76 117.5t77 49.5q19 0 58.5 -26t39.5 -45 q0 -26 -23 -95h5q39 86 79 126t90 40q54 0 85 -41.5t31 -110.5q0 -115 -83 -216.5t-190 -101.5q-24 0 -48 14.5t-35 37.5h-5l-70 -252q-2 -7 8.5 -11t37.5 -5l41 -4l2 -17h-287z"/>
<glyph glyph-name="q" horiz-adv-x="536" unicode="q" d="M190 73q29 0 59.5 34.5t72.5 111.5q8 16 20 46.5t12 38.5q-6 37 -32 67.5t-50 30.5q-10 0 -26 -15q-34 -35 -64.5 -114t-30.5 -137q0 -63 39 -63zM120 -251l3 17l41 4q39 2 44 19q43 155 77 261q51 155 54 161h-5q-38 -66 -57 -96.5t-46 -65.5t-50.5 -48t-50.5 -13 q-51 0 -84.5 33t-33.5 86q0 62 37 134t99 134q81 81 152 81q35 0 53.5 -26.5t18.5 -67.5q0 -8 -2 -24h5l44 110l132 -3l-86 -230l-120 -428q-2 -7 8.5 -11t33.5 -6l25 -4l3 -17h-295z"/>
<glyph glyph-name="r" horiz-adv-x="478" unicode="r" d="M160 -2l-142 3l51 160l54 205l-43 6l-61 -93l-11 10q32 68 76 117.5t77 49.5q19 0 59.5 -26t40.5 -46q0 -34 -60 -200h5q95 190 116 211q24 35 44.5 49t50.5 14q35 0 62.5 -24.5t27.5 -65.5q0 -39 -22.5 -66.5t-56.5 -27.5q-30 0 -48 18.5t-18 43.5q0 30 25 51l-31 10 q-36 -16 -155 -257z"/>
<glyph glyph-name="s" horiz-adv-x="398" unicode="s" d="M157 -14q-68 0 -114 26t-46 75q0 34 18.5 56t50.5 22q25 0 42 -18t17 -45q0 -25 -27 -46q7 -13 32.5 -30.5t57.5 -18.5q25 3 42.5 23t17.5 45q0 9 -5 19.5t-18 23.5t-21.5 20.5t-29 24.5t-27.5 23q-47 40 -67.5 68t-20.5 61q0 61 52.5 101t126.5 40q61 0 107.5 -25 t46.5 -66q0 -33 -17.5 -54t-46.5 -21t-47.5 18.5t-18.5 45.5q0 25 26 44q-1 1 -6.5 7.5t-10 10.5t-12.5 9.5t-18.5 8.5t-22.5 3q-22 -4 -39.5 -24.5t-17.5 -41.5q0 -10 6 -21t18.5 -23.5t22 -21t27 -22t23.5 -18.5q32 -29 47 -44.5t31 -41.5t16 -50q0 -60 -57 -101.5 t-138 -41.5z"/>
<glyph glyph-name="t" horiz-adv-x="339" unicode="t" d="M145 -14q-34 0 -76 26.5t-42 47.5q0 12 36 141t50 171l-82 4l19 53l82 11l41 130h131l-37 -132l102 -1l-10 -60h-109l-91 -301l69 -6l63 85l10 -9q-79 -160 -156 -160z"/>
<glyph glyph-name="u" horiz-adv-x="572" unicode="u" d="M408 -14q-19 0 -57 28t-38 48q0 23 19.5 87t43.5 122l-7 2q-101 -198 -143 -240q-48 -46 -87 -46q-48 0 -78 26t-30 55q0 45 47 165l51 133l-43 6l-65 -93l-11 10q35 69 81.5 118t80.5 49q18 0 55 -30.5t36 -50.5q-1 -8 -3 -16.5t-7 -23t-10 -27.5t-15 -38.5t-18 -47.5 q-35 -90 -35 -104q0 -8 17 -18.5t32 -10.5q40 0 155 240l38 116l142 -2l-54 -161l-56 -208l42 -7l64 86l10 -9q-33 -67 -78.5 -112.5t-78.5 -45.5z"/>
<glyph glyph-name="v" horiz-adv-x="455" unicode="v" d="M163 -14q-48 0 -86.5 30.5t-38.5 66.5q0 16 9.5 37.5t29.5 50t37 50t46.5 57t43.5 52.5l-146 19l-42 -70l-12 10q80 169 129 169q29 0 67.5 -10.5t38.5 -28.5q0 -19 -27.5 -121t-27.5 -138q0 -43 23 -63t54 -20t81 85.5t60 145.5q-9 -3 -18 -3q-30 0 -54 22t-24 54 q0 30 21.5 53t56.5 23q34 0 56.5 -22t22.5 -61q0 -52 -44 -137.5t-105 -151.5q-82 -99 -151 -99z"/>
<glyph glyph-name="w" horiz-adv-x="662" unicode="w" d="M131 -14q-46 0 -74 25.5t-28 65.5q0 26 22.5 67.5t47 73t55.5 69t35 42.5l-128 20l-41 -70l-12 10q78 169 129 169q15 0 39.5 -5.5t45.5 -15t20 -18.5q-4 -14 -25 -66.5t-38 -107t-17 -92.5q0 -36 17.5 -52.5t40.5 -16.5q13 0 55 41t80.5 96.5t38.5 88.5l-20 7 q-20 7 -39.5 24.5t-19.5 44.5q0 30 21.5 50.5t52.5 20.5q32 0 53.5 -21t21.5 -51q0 -27 -28.5 -69t-38.5 -67q-15 -34 -15 -70q0 -47 30 -71t67 -24q46 0 93.5 86.5t47.5 148.5v7q-13 -11 -36 -11q-28 0 -50 17.5t-22 50.5q0 32 20 53t50 21q38 0 60 -27t22 -72 q0 -65 -35 -142t-85 -133q-32 -41 -66.5 -69t-58.5 -28q-44 0 -67 28.5t-23 64.5q0 40 42 143q-135 -236 -240 -236z"/>
<glyph glyph-name="x" horiz-adv-x="514" unicode="x" d="M54 -14q-30 0 -53.5 20t-23.5 54q0 32 19.5 53.5t46.5 21.5q26 0 40.5 -15t14.5 -37q0 -16 -10 -34q0 -1 7 -3.5t9 -2.5q15 0 43 43.5t52 106.5q-46 167 -75 169l-38 1l-54 -82l-12 9q32 71 71.5 118.5t76.5 47.5q55 0 87 -42.5t50 -127.5h5q36 94 66.5 132.5t78.5 38.5 q30 0 53.5 -20t23.5 -54q0 -33 -19.5 -54t-46.5 -21q-26 0 -40.5 15.5t-14.5 37.5q0 18 10 34q0 1 -7 3t-9 2q-13 0 -40.5 -41.5t-49.5 -100.5q44 -177 72 -177h41l53 81l12 -9q-76 -167 -142 -167q-56 0 -89.5 46t-52.5 134h-5q-42 -104 -71 -142t-79 -38z"/>
<glyph glyph-name="y" horiz-adv-x="483" unicode="y" d="M1 -201q-51 0 -82 25t-31 63q0 29 21 50t49 21q29 0 49 -18.5t20 -47.5q0 -26 -17 -53l35 -10q10 2 29.5 12.5t34 19.5t38.5 25t29 19q0 9 0.5 26t0.5 26q0 171 -26 298.5t-58 127.5l-15 3l-61 -107l-12 10q16 35 20.5 44.5t19 37t23 36.5t23 24t30.5 20t34 5 q51 0 78 -34.5t40 -124.5t13 -261v-16l6 -1q43 48 89 150t51 155q-23 -13 -44 -13q-29 0 -48 21t-19 47q0 32 20.5 53.5t54.5 21.5q37 0 60 -27.5t23 -68.5q0 -73 -55 -175.5t-139 -197.5q-68 -79 -146 -132.5t-138 -53.5z"/>
<glyph glyph-name="z" horiz-adv-x="438" unicode="z" d="M262 -24q-36 0 -63.5 19.5t-40.5 43t-27.5 48.5t-26.5 32h-6l-44 -133h-2q-28 0 -50 17t-22 43q0 35 35.5 65t86.5 35l211 161h-9q-24 0 -48 15.5t-40 34.5t-37 34.5t-41 15.5q-2 0 -16 -15t-14 -20q0 -2 2 -2q25 -5 39 -23t14 -41q0 -25 -18 -41t-44 -17h-3 q-29 0 -45 20.5t-16 46.5q0 48 61 91.5t108 49.5q34 0 59.5 -18t36 -39t19.5 -43t13 -26l5 1l36 125q28 0 51.5 -16.5t23.5 -40.5q0 -40 -31 -66t-80 -31l-210 -159h5q27 0 56 -19t49.5 -42t44 -42t39.5 -19q3 0 20 22.5t17 27.5q0 1 -1 1q-31 1 -46.5 19t-15.5 44 q0 25 17 41.5t41 16.5h3q30 0 45.5 -21t15.5 -47q0 -51 -49 -97.5t-108 -51.5z"/>
<glyph glyph-name="braceleft" horiz-adv-x="345" unicode="{" d="M261 -250q-99 14 -158 57.5t-59 101.5q0 11 1 16q5 34 45.5 103t43.5 87q1 5 1 15q0 28 -25 41.5t-90 22.5l-4 14l5 14q75 11 103.5 26.5t34.5 52.5q0 1 0.5 4t0.5 5q0 19 -14.5 89t-14.5 102q0 14 1 20q10 62 83 99.5t182 38.5l1 -17q-64 -4 -96.5 -18.5t-37.5 -44.5 q-1 -6 -1 -18q0 -26 13 -92.5t13 -96.5q0 -9 -2 -23q-9 -60 -60 -93t-163 -45l-1 -6q99 -9 141.5 -37t42.5 -77q0 -7 -2 -23q-5 -35 -47 -112.5t-46 -105.5q-1 -3 -1 -9q0 -50 113 -74z"/>
<glyph glyph-name="bar" horiz-adv-x="190" unicode="|" d="M84 -207v877h22v-877h-22z"/>
<glyph glyph-name="braceright" horiz-adv-x="345" unicode="}" d="M-55 -250l-1 17q65 4 97 18t36 45q2 12 2 20q0 26 -13 93t-13 97q0 14 1 21q10 60 61 93t162 44v7q-97 10 -139.5 37t-42.5 76q0 6 2 24q5 34 47 112t46 105q0 1 0.5 4t0.5 4q0 51 -113 75l2 17q99 -14 158.5 -58t59.5 -102q0 -10 -1 -15q-5 -33 -46 -102t-44 -88 q-1 -5 -1 -14q0 -28 25.5 -41.5t90.5 -23.5l4 -13l-6 -15q-76 -10 -104 -26t-33 -53q-1 -3 -1 -11q0 -20 14 -89t14 -100q0 -13 -1 -19q-9 -62 -82 -100t-182 -39z"/>
<glyph glyph-name="asciitilde" horiz-adv-x="406" unicode="~" d="M290 150q-33 0 -97.5 32.5t-84.5 32.5q-15 0 -26 -11t-22 -45q-21 0 -23 -1q20 83 44.5 113t69.5 30q33 0 95.5 -32.5t82.5 -32.5q16 0 28.5 11.5t24.5 44.5q19 0 21 1q-21 -83 -44.5 -113t-68.5 -30z"/>
<glyph glyph-name="nbspace" horiz-adv-x="152" unicode=" "/>
<glyph glyph-name="exclamdown" horiz-adv-x="293" unicode="¡" d="M209 488q-30 0 -52.5 22.5t-22.5 52.5q0 31 22.5 53t52.5 22q31 0 53 -22t22 -53t-22 -53t-53 -22zM95 -13q-69 7 -69 52q0 11 7 30l140 349q3 6 9 6t6 -6l-1 -366q0 -29 -17 -47.5t-54 -18.5q-11 0 -17 1h-4z"/>
<glyph glyph-name="cent" horiz-adv-x="410" unicode="¢" d="M284 337v4q0 29 22 51l8 20q-21 14 -34 14q-23 0 -47 -22q-31 -31 -57 -102.5t-26 -140.5q0 -53 30 -80zM143 -11q-58 10 -93.5 54t-35.5 108q0 113 84 208.5t206 95.5q14 0 26 -3l66 162h25l-67 -167q32 -11 51.5 -33.5t19.5 -51.5q0 -36 -21.5 -60.5t-51.5 -24.5 q-37 0 -56 27q-95 -235 -96 -235q15 -6 34 -6q62 0 127 94l12 -10q-84 -160 -202 -160h-4l-59 -146h-25z"/>
<glyph glyph-name="sterling" horiz-adv-x="574" unicode="£" d="M166 67q-29 19 -42.5 27.5t-36 17.5t-40.5 9q-25 0 -42.5 -18t-17.5 -44q0 -21 17.5 -37t41.5 -16q61 0 120 61zM202 290h-124l3 23h111q-29 64 -29 102q0 96 79 157.5t189 61.5q75 0 120.5 -27.5t45.5 -72.5q0 -33 -19.5 -54.5t-53.5 -21.5q-33 0 -50.5 20.5t-17.5 49.5 q0 39 29 66q-5 8 -21 14.5t-32 6.5q-38 0 -67.5 -24t-40.5 -71q-4 -17 -4 -41q0 -17 3.5 -57t3.5 -64q0 -21 -3 -45h130l3 -23h-137q-9 -42 -24 -73q-17 -38 -41 -76q142 -44 186 -44q36 0 55.5 21.5t35.5 82.5l16 -3q-17 -90 -65 -149.5t-119 -59.5q-82 0 -180 66 q-73 -66 -138 -66q-34 0 -56.5 21t-22.5 51q0 46 36.5 79t99.5 33q46 0 117 -22q8 24 8 45q0 36 -26 94z"/>
<glyph glyph-name="currency" d="M116 359q0 -47 33.5 -80.5t80.5 -33.5t80.5 33.5t33.5 80.5t-33.5 80.5t-80.5 33.5t-80.5 -33.5t-33.5 -80.5zM84 197l-16 16l57 57q-33 38 -33 89t33 89l-57 57l16 16l57 -57q40 33 89 33t89 -33l57 57l16 -16l-57 -57q33 -40 33 -89t-33 -89l57 -57l-16 -16l-57 57 q-38 -33 -89 -33t-89 33z" unicode="¤"/>
<glyph glyph-name="yen" horiz-adv-x="634" unicode="¥" d="M252 280h-185v22h177l-81 215q-17 48 -30 64.5t-41 21.5l-21 4l-1 18h327l-4 -18l-15 -2q-59 -7 -59 -41q0 -10 5 -23l72 -218l5 -1l88 119q80 109 80 134q0 24 -60 30l-21 2l-1 18h232l-3 -18l-27 -4q-40 -6 -67 -32.5t-114 -140.5l-93 -127v-1h185l-2 -22h-188l-5 -27 q-5 -27 -11 -53l-5 -27h190l3 -22h-197l-22 -111q-1 -7 7.5 -10.5t36.5 -6.5l34 -6l2 -17h-329l3 17l45 6q41 4 43 19l21 109h-179l3 22h180z"/>
<glyph glyph-name="brokenbar" horiz-adv-x="190" unicode="¦" d="M84 -154v335h22v-335h-22zM84 292v335h22v-335h-22z"/>
<glyph glyph-name="section" horiz-adv-x="453" unicode="§" d="M330 189q39 19 39 54q0 16 -7 30t-24.5 28t-32.5 23.5t-44 25.5q-76 41 -106 69q-40 -18 -40 -55q0 -30 25.5 -52t83.5 -54q88 -52 106 -69zM178 -33q-72 0 -114 25t-42 65q0 27 19.5 46.5t47.5 19.5q29 0 48 -19.5t19 -45.5q0 -28 -21 -50q30 -20 62 -20q29 0 50 19.5 t21 44.5q0 18 -18 36.5t-37 31t-55 32.5q-32 18 -49.5 29.5t-40.5 30t-34 39.5t-11 45q1 44 34 78.5t86 54.5q-26 29 -26 65q0 63 56.5 104.5t128.5 41.5q71 0 109.5 -24.5t38.5 -64.5q0 -27 -19.5 -47.5t-46.5 -20.5q-28 0 -45.5 18.5t-17.5 44.5q0 30 22 53q-27 20 -59 20 q-31 0 -49.5 -19.5t-18.5 -43.5q0 -19 18 -38t35.5 -30t56.5 -33q25 -14 39 -22.5t35 -24t32 -28.5t19.5 -31.5t8.5 -37.5q0 -44 -33.5 -78t-86.5 -54q27 -30 27 -66q0 -63 -58.5 -104.5t-130.5 -41.5z"/>
<glyph glyph-name="dieresis" horiz-adv-x="410" unicode="¨" d="M164 509q-30 0 -48.5 20t-18.5 47t18.5 47.5t48.5 20.5t48.5 -20t18.5 -48t-18.5 -47.5t-48.5 -19.5zM378 509q-30 0 -48.5 20t-18.5 47t18.5 47.5t48.5 20.5t48.5 -20t18.5 -48t-18.5 -47.5t-48.5 -19.5z"/>
<glyph glyph-name="copyright" horiz-adv-x="733" unicode="©" d="M398 113q-102 0 -160 57t-58 140q0 85 61 142.5t161 57.5q55 0 93 -21l45 13l4 -131h-20l-53 103q-25 19 -68 19q-56 0 -88.5 -48t-32.5 -131q0 -81 33.5 -133t85.5 -52q72 0 108 67l25 61l21 -1l-17 -120l-27 1q-52 -24 -113 -24zM385 -8q132 0 224 94t92 226 q0 133 -92.5 227.5t-223.5 94.5q-132 0 -224.5 -95t-92.5 -227t92.5 -226t224.5 -94zM385 -28q-141 0 -240.5 99.5t-99.5 240.5q0 142 99.5 242t240.5 100q140 0 239.5 -100t99.5 -242q0 -141 -99.5 -240.5t-239.5 -99.5z"/>
<glyph glyph-name="ordfeminine" horiz-adv-x="430" unicode="ª" d="M205 342q40 0 100 114q24 51 24 63q-8 29 -27.5 51.5t-38.5 22.5q-8 0 -19 -11q-24 -24 -48 -86t-24 -107q0 -47 33 -47zM152 276q-37 0 -62 24.5t-26 64.5q0 49 27.5 105t74.5 103q62 63 123 63q51 0 51 -70q0 -14 -1 -21h3l33 85l102 -5l-59 -169l-37 -112l36 -5l50 71 l8 -7q-27 -52 -62.5 -89.5t-61.5 -37.5q-15 0 -42 24t-27 37q0 15 39 120h-4q-56 -100 -90 -140.5t-75 -40.5z"/>
<glyph glyph-name="guillemotleft" horiz-adv-x="476" unicode="«" d="M206 41l-195 168l3 33l258 161l4 -9l-139 -179l77 -163zM422 31l-203 178l3 33l270 171l5 -9l-157 -189l90 -174z"/>
<glyph glyph-name="logicalnot" d="M423 314v-184h-26v158h-382l3 26h405z" unicode="¬"/>
<glyph glyph-name="uni00AD" horiz-adv-x="297" unicode="­" d="M23 216l10 48h247l-7 -48h-250z"/>
<glyph glyph-name="registered" horiz-adv-x="718" unicode="®" d="M370 321q79 2 79 83q0 40 -26 60.5t-67 20.5h-3l-24 -1v-154q11 -6 41 -9zM183 124l1 17l24 3q25 3 25 11v317q0 6 -29 11l-19 4l-2 16h188q178 0 178 -98q0 -34 -25.5 -60.5t-68.5 -37.5l72 -114q13 -21 24 -31t17.5 -12t26.5 -7l6 -3l2 -16h-148l-11 20l-85 159 q-1 0 -13.5 3t-16.5 5v-157q0 -7 28 -10l21 -3l2 -17h-197zM385 -7q132 0 224 93.5t92 226.5t-92.5 227.5t-223.5 94.5q-132 0 -224.5 -95t-92.5 -227q0 -133 92.5 -226.5t224.5 -93.5zM385 -27q-141 0 -240.5 99.5t-99.5 240.5q0 142 99.5 241.5t240.5 99.5t240 -99.5 t99 -241.5q0 -141 -99 -240.5t-240 -99.5z"/>
<glyph glyph-name="macron" horiz-adv-x="378" unicode="¯" d="M102 530l21 65h271l-15 -65h-277z"/>
<glyph glyph-name="degree" horiz-adv-x="321" unicode="°" d="M213 381q52 0 84.5 35.5t32.5 87.5q0 49 -31 82.5t-81 33.5q-53 0 -86 -36.5t-33 -87.5q0 -49 32 -82t82 -33zM212 360q-60 0 -98.5 39t-38.5 97q0 60 41 103t103 43q59 0 97.5 -38.5t38.5 -96.5q0 -61 -40.5 -104t-102.5 -43z"/>
<glyph glyph-name="plusminus" d="M425 25h-396l3 26h390zM214 82v162h-198l3 26h195v168h26v-168h195l3 -26h-198v-162h-26z" unicode="±"/>
<glyph glyph-name="twosuperior" horiz-adv-x="342" unicode="²" d="M1 267l4 50q14 9 39 25q54 34 76.5 50t47.5 38.5t33 42.5t8 46q-1 25 -20 39.5t-44 14.5q-23 0 -45.5 -12t-35.5 -30l-6 7q79 115 170 115q57 0 86 -27.5t29 -68.5q0 -25 -11 -45t-37.5 -39t-51 -33t-72 -38.5t-80.5 -43.5v-2h140q31 0 49 10t37 45l10 16l12 -1l-68 -159 h-270z"/>
<glyph glyph-name="threesuperior" horiz-adv-x="325" unicode="³" d="M109 251q-54 0 -89.5 20t-35.5 56q0 20 15.5 35.5t35.5 15.5q29 0 44.5 -19t15.5 -47q0 -23 -10 -43q9 -3 12 -3q35 0 61.5 30t26.5 68q0 28 -18 47t-46 19q-14 0 -38 -9l-6 13q85 39 101 53q22 18 22 43q0 20 -15 32.5t-42 12.5q-23 0 -49 -16.5t-39 -38.5l-5 8 q29 56 73.5 90.5t95.5 34.5q45 0 74 -20.5t29 -52.5q0 -65 -123 -105v-3q11 3 20 3q42 -3 65 -24.5t23 -57.5q0 -58 -59 -100t-139 -42z"/>
<glyph glyph-name="acute" horiz-adv-x="420" unicode="´" d="M187 500l135 184h144l-257 -184h-22z"/>
<glyph glyph-name="mu" horiz-adv-x="561" unicode="µ" d="M277 -251h-271l3 17l21 2q23 2 31 4.5t8 11.5v623q0 9 -50 14l-15 1l-3 17h213v-303q-1 -38 14 -50t54 -12q52 0 75 13v318q0 8 -9 11t-39 5l-15 1l-4 17h211v-318q0 -36 6.5 -49t28.5 -19l28 -7l-2 -12l-206 -50l2 80h-3q-10 -24 -17.5 -38t-22.5 -27t-33 -13 q-39 0 -65 66h-3v-268q0 -9 8 -11.5t31 -4.5l21 -2z"/>
<glyph glyph-name="mu" horiz-adv-x="561" unicode="μ" d="M277 -251h-271l3 17l21 2q23 2 31 4.5t8 11.5v623q0 9 -50 14l-15 1l-3 17h213v-303q-1 -38 14 -50t54 -12q52 0 75 13v318q0 8 -9 11t-39 5l-15 1l-4 17h211v-318q0 -36 6.5 -49t28.5 -19l28 -7l-2 -12l-206 -50l2 80h-3q-10 -24 -17.5 -38t-22.5 -27t-33 -13 q-39 0 -65 66h-3v-268q0 -9 8 -11.5t31 -4.5l21 -2z"/>
<glyph glyph-name="paragraph" horiz-adv-x="446" unicode="¶" d="M317 -31l51 268q-3 0 -10 -0.5t-11 -0.5q-124 0 -205 51t-81 135q0 97 69 150.5t209 53.5h131l-124 -657h-29z"/>
<glyph glyph-name="periodcentered" horiz-adv-x="230" unicode="·" d="M118 164q-32 0 -54.5 23t-22.5 56q0 32 23 55t54 23t54.5 -23.5t23.5 -54.5q0 -32 -23 -55.5t-55 -23.5z"/>
<glyph glyph-name="cedilla" horiz-adv-x="403" unicode="¸" d="M10 -263l-2 12q89 8 129.5 25t40.5 51q0 28 -28 41.5t-65 13.5q-39 0 -61 -6l1 13l139 117h26l-76 -63h12q59 0 96.5 -24.5t37.5 -61.5q0 -33 -20.5 -56.5t-56.5 -36.5t-77 -19t-89 -6h-7z"/>
<glyph glyph-name="onesuperior" horiz-adv-x="262" unicode="¹" d="M7 267l-1 14l18 2q34 0 38 11l60 305l-52 7l3 10l171 38l-69 -361q0 -2 6 -4.5t14 -4t14 -1.5l9 -2l1 -14h-212z"/>
<glyph glyph-name="ordmasculine" horiz-adv-x="366" unicode="º" d="M199 295q48 0 86 126q23 81 23 132q0 62 -35 62q-21 0 -45 -34.5t-43 -101.5q-22 -71 -22 -124q0 -60 36 -60zM211 273q-62 0 -101 43.5t-39 110.5q0 80 58 144.5t131 64.5q60 0 100.5 -46t40.5 -114q0 -79 -57 -141t-133 -62z"/>
<glyph glyph-name="guillemotright" horiz-adv-x="474" unicode="»" d="M-18 30l-4 9l155 189l-89 174l7 10l205 -177l-3 -32zM201 40l-4 9l139 179l-76 164l8 10l194 -167l-3 -32z"/>
<glyph glyph-name="onequarter" horiz-adv-x="659" unicode="¼" d="M-8 -121l678 751h27l-678 -751h-27zM7 267l-1 14l18 2q34 0 38 11l60 305l-52 7l3 10l171 38l-69 -361q0 -2 6 -4.5t14 -4t14 -1.5l9 -2l1 -14h-212zM356 8h122l32 160h-2zM451 -136l15 83h-167v19l270 287l69 -7l-48 -238h63l-34 -61h-41l-15 -83h-112z"/>
<glyph glyph-name="onehalf" horiz-adv-x="728" unicode="½" d="M-8 -121l678 751h27l-678 -751h-27zM381 -137l4 50q14 9 39 25q54 34 76.5 50t47.5 38.5t33 42.5t8 46q-1 25 -20 39.5t-44 14.5q-23 0 -45.5 -12t-35.5 -30l-6 7q79 115 170 115q57 0 86 -27.5t29 -68.5q0 -25 -11 -45t-37.5 -39t-51 -33t-72 -38.5t-80.5 -43.5v-2h140 q31 0 49 10t37 45l10 16l12 -1l-68 -159h-270zM7 267l-1 14l18 2q34 0 38 11l60 305l-52 7l3 10l171 38l-69 -361q0 -2 6 -4.5t14 -4t14 -1.5l9 -2l1 -14h-212z"/>
<glyph glyph-name="threequarters" horiz-adv-x="682" unicode="¾" d="M15 -121l678 751h27l-678 -751h-27zM109 251q-54 0 -89.5 20t-35.5 56q0 20 15.5 35.5t35.5 15.5q29 0 44.5 -19t15.5 -47q0 -23 -10 -43q9 -3 12 -3q35 0 61.5 30t26.5 68q0 28 -18 47t-46 19q-14 0 -38 -9l-6 13q85 39 101 53q22 18 22 43q0 20 -15 32.5t-42 12.5 q-23 0 -49 -16.5t-39 -38.5l-5 8q29 56 73.5 90.5t95.5 34.5q45 0 74 -20.5t29 -52.5q0 -65 -123 -105v-3q11 3 20 3q42 -3 65 -24.5t23 -57.5q0 -58 -59 -100t-139 -42zM379 8h122l32 160h-2zM474 -136l15 83h-167v19l270 287l69 -7l-48 -238h63l-34 -61h-41l-15 -83h-112z "/>
<glyph glyph-name="questiondown" horiz-adv-x="361" unicode="¿" d="M214 -15q-83 0 -137 60t-54 142q0 130 113 157q67 14 87 23t20 25q0 19 -29 47l24 2q29 -23 47.5 -54t18.5 -60q0 -41 -38.5 -62.5t-109.5 -33.5q-99 -15 -99 -46t46 -53.5t117 -22.5q25 0 57 4q26 -23 26 -52q0 -33 -24 -54.5t-65 -21.5zM261 488q-30 0 -52.5 22.5 t-22.5 52.5q0 31 22.5 53t52.5 22q31 0 53 -22t22 -53t-22 -53t-53 -22z"/>
<glyph glyph-name="Agrave" horiz-adv-x="651" unicode="À" d="M406 667l-191 184h136l80 -184h-25zM188 266h141l-25 221h-5zM332 240h-157l-33 -65q-53 -98 -53 -120q0 -15 13.5 -22.5t44.5 -11.5l19 -3l2 -18h-223l3 18l20 3q27 4 39.5 8t31 26t34.5 50.5t52 97.5l165 317l-2 46q32 4 73 27t60 50h23l72 -513q9 -62 24.5 -83.5 t44.5 -24.5l26 -4v-18h-335l3 18l24 2q27 3 37.5 13t10.5 33q0 14 -5 47z"/>
<glyph glyph-name="Aacute" horiz-adv-x="651" unicode="Á" d="M325 667l135 184h144l-257 -184h-22zM188 266h141l-25 221h-5zM332 240h-157l-33 -65q-53 -98 -53 -120q0 -15 13.5 -22.5t44.5 -11.5l19 -3l2 -18h-223l3 18l20 3q27 4 39.5 8t31 26t34.5 50.5t52 97.5l165 317l-2 46q32 4 73 27t60 50h23l72 -513q9 -62 24.5 -83.5 t44.5 -24.5l26 -4v-18h-335l3 18l24 2q27 3 37.5 13t10.5 33q0 14 -5 47z"/>
<glyph glyph-name="Acircumflex" horiz-adv-x="651" unicode="Â" d="M234 659l164 191h49l91 -191h-25l-106 90h-2l-146 -90h-25zM188 266h141l-25 221h-5zM332 240h-157l-33 -65q-53 -98 -53 -120q0 -15 13.5 -22.5t44.5 -11.5l19 -3l2 -18h-223l3 18l20 3q27 4 39.5 8t31 26t34.5 50.5t52 97.5l165 317l-2 46q32 4 73 27t60 50h23l72 -513 q9 -62 24.5 -83.5t44.5 -24.5l26 -4v-18h-335l3 18l24 2q27 3 37.5 13t10.5 33q0 14 -5 47z"/>
<glyph glyph-name="Atilde" horiz-adv-x="651" unicode="Ã" d="M473 673q-33 0 -97.5 32.5t-84.5 32.5q-15 0 -26 -11t-22 -45q-21 0 -23 -1q20 83 44.5 113t69.5 30q33 0 95.5 -32.5t82.5 -32.5q16 0 28.5 11.5t24.5 44.5q19 0 21 1q-21 -83 -44.5 -113t-68.5 -30zM188 266h141l-25 221h-5zM332 240h-157l-33 -65q-53 -98 -53 -120 q0 -15 13.5 -22.5t44.5 -11.5l19 -3l2 -18h-223l3 18l20 3q27 4 39.5 8t31 26t34.5 50.5t52 97.5l165 317l-2 46q32 4 73 27t60 50h23l72 -513q9 -62 24.5 -83.5t44.5 -24.5l26 -4v-18h-335l3 18l24 2q27 3 37.5 13t10.5 33q0 14 -5 47z"/>
<glyph glyph-name="Adieresis" horiz-adv-x="651" unicode="Ä" d="M298 676q-30 0 -48.5 20t-18.5 47t18.5 47.5t48.5 20.5t48.5 -20t18.5 -48t-18.5 -47.5t-48.5 -19.5zM512 676q-30 0 -48.5 20t-18.5 47t18.5 47.5t48.5 20.5t48.5 -20t18.5 -48t-18.5 -47.5t-48.5 -19.5zM188 266h141l-25 221h-5zM332 240h-157l-33 -65 q-53 -98 -53 -120q0 -15 13.5 -22.5t44.5 -11.5l19 -3l2 -18h-223l3 18l20 3q27 4 39.5 8t31 26t34.5 50.5t52 97.5l165 317l-2 46q32 4 73 27t60 50h23l72 -513q9 -62 24.5 -83.5t44.5 -24.5l26 -4v-18h-335l3 18l24 2q27 3 37.5 13t10.5 33q0 14 -5 47z"/>
<glyph glyph-name="Aring" horiz-adv-x="651" unicode="Å" d="M188 266h141l-24 221h-6zM405 622q35 0 55.5 22.5t20.5 55.5q0 32 -20.5 55.5t-55.5 23.5q-34 0 -55 -23.5t-21 -55.5q0 -33 21 -55.5t55 -22.5zM332 240h-157l-33 -65q-53 -98 -53 -120q0 -15 13.5 -22.5t44.5 -11.5l19 -3l2 -18h-223l3 18l20 3q27 4 39.5 8t31 25.5 t35 51t51.5 97.5l219 422q-34 29 -34 75q1 40 27 68t68 28q43 0 69 -28t26 -68q0 -61 -52 -85l68 -485q9 -62 24.5 -83.5t44.5 -24.5l26 -4v-18h-335l3 18l24 2q27 3 37.5 13t10.5 33q0 14 -5 47z"/>
<glyph glyph-name="AE" horiz-adv-x="922" unicode="Æ" d="M225 272h164l52 281h-4zM384 247h-178l-53 -70q-82 -107 -82 -129q0 -21 54 -27l20 -3l3 -18h-224l3 18l18 3q48 7 76.5 33t116.5 142l267 348q13 20 13 31q0 25 -59 29l-38 4v17h586l-10 -216h-32l-5 29q-21 95 -65.5 129.5t-125.5 34.5h-21l-33 -1l-52 -272l33 1 q96 5 128 81l16 36h24l-60 -265h-23v34q0 47 -20 67t-78 23l-24 2l-54 -283l70 -4q94 2 158 40t107 127l13 25h33l-60 -213h-578l1 5q1 5 3 9l1 5l49 6q44 6 44 19z"/>
<glyph glyph-name="Ccedilla" horiz-adv-x="685" unicode="Ç" d="M339 -11q-137 10 -212.5 93.5t-75.5 200.5q0 91 43 170.5t130 132t201 52.5q113 0 183 -45l82 26l-22 -209l-34 1l-58 158q-49 41 -115 41q-71 0 -126.5 -58.5t-82 -141.5t-26.5 -171q0 -109 44.5 -168t126.5 -59q95 0 157 100l54 103l34 -1l-47 -206l-45 4 q-76 -24 -177 -24h-9l-57 -47h12q59 0 96.5 -24.5t37.5 -61.5q0 -33 -20.5 -56.5t-56.5 -36.5t-77 -19t-89 -6h-7l-2 12q89 8 129.5 25t40.5 51q0 28 -28 41.5t-65 13.5q-38 0 -61 -6l1 13z"/>
<glyph glyph-name="Egrave" horiz-adv-x="641" unicode="È" d="M430 667l-191 184h136l80 -184h-25zM-22 0l3 17l41 7q40 5 42 18l105 543q1 7 -7 10t-37 7l-30 6l-1 17h532l-9 -216h-33l-5 29q-21 95 -65.5 129.5t-125.5 34.5h-21l-33 -1l-52 -272l33 1q96 5 128 81l16 36h25l-60 -265h-24v34q0 47 -19.5 67t-78.5 23l-24 2l-54 -283 l70 -4q94 2 158 40t107 127l13 25h33l-60 -213h-567z"/>
<glyph glyph-name="Eacute" horiz-adv-x="641" unicode="É" d="M324 667l135 184h144l-257 -184h-22zM-22 0l3 17l41 7q40 5 42 18l105 543q1 7 -7 10t-37 7l-30 6l-1 17h532l-9 -216h-33l-5 29q-21 95 -65.5 129.5t-125.5 34.5h-21l-33 -1l-52 -272l33 1q96 5 128 81l16 36h25l-60 -265h-24v34q0 47 -19.5 67t-78.5 23l-24 2l-54 -283 l70 -4q94 2 158 40t107 127l13 25h33l-60 -213h-567z"/>
<glyph glyph-name="Ecircumflex" horiz-adv-x="641" unicode="Ê" d="M235 659l164 191h49l91 -191h-25l-106 90h-2l-146 -90h-25zM-22 0l3 17l41 7q40 5 42 18l105 543q1 7 -7 10t-37 7l-30 6l-1 17h532l-9 -216h-33l-5 29q-21 95 -65.5 129.5t-125.5 34.5h-21l-33 -1l-52 -272l33 1q96 5 128 81l16 36h25l-60 -265h-24v34q0 47 -19.5 67 t-78.5 23l-24 2l-54 -283l70 -4q94 2 158 40t107 127l13 25h33l-60 -213h-567z"/>
<glyph glyph-name="Edieresis" horiz-adv-x="641" unicode="Ë" d="M281 676q-30 0 -48.5 20t-18.5 47t18.5 47.5t48.5 20.5t48.5 -20t18.5 -48t-18.5 -47.5t-48.5 -19.5zM495 676q-30 0 -48.5 20t-18.5 47t18.5 47.5t48.5 20.5t48.5 -20t18.5 -48t-18.5 -47.5t-48.5 -19.5zM-22 0l3 17l41 7q40 5 42 18l105 543q1 7 -7 10t-37 7l-30 6 l-1 17h532l-9 -216h-33l-5 29q-21 95 -65.5 129.5t-125.5 34.5h-21l-33 -1l-52 -272l33 1q96 5 128 81l16 36h25l-60 -265h-24v34q0 47 -19.5 67t-78.5 23l-24 2l-54 -283l70 -4q94 2 158 40t107 127l13 25h33l-60 -213h-567z"/>
<glyph glyph-name="Igrave" horiz-adv-x="385" unicode="Ì" d="M300 667l-191 184h136l80 -184h-25zM-11 0l3 17l43 7q41 4 43 18l104 543q2 7 -6 10t-37 7l-35 6l-2 17h331l-4 -17l-43 -7q-40 -4 -43 -18l-104 -543q-1 -7 7 -10t37 -7l34 -6l1 -17h-329z"/>
<glyph glyph-name="Iacute" horiz-adv-x="385" unicode="Í" d="M224 667l135 184h144l-257 -184h-22zM-11 0l3 17l43 7q41 4 43 18l104 543q2 7 -6 10t-37 7l-35 6l-2 17h331l-4 -17l-43 -7q-40 -4 -43 -18l-104 -543q-1 -7 7 -10t37 -7l34 -6l1 -17h-329z"/>
<glyph glyph-name="Icircumflex" horiz-adv-x="385" unicode="Î" d="M113 659l164 191h49l91 -191h-25l-106 90h-2l-146 -90h-25zM-11 0l3 17l43 7q41 4 43 18l104 543q2 7 -6 10t-37 7l-35 6l-2 17h331l-4 -17l-43 -7q-40 -4 -43 -18l-104 -543q-1 -7 7 -10t37 -7l34 -6l1 -17h-329z"/>
<glyph glyph-name="Idieresis" horiz-adv-x="385" unicode="Ï" d="M166 676q-30 0 -48.5 20t-18.5 47t18.5 47.5t48.5 20.5t48.5 -20t18.5 -48t-18.5 -47.5t-48.5 -19.5zM380 676q-30 0 -48.5 20t-18.5 47t18.5 47.5t48.5 20.5t48.5 -20t18.5 -48t-18.5 -47.5t-48.5 -19.5zM-11 0l3 17l43 7q41 4 43 18l104 543q2 7 -6 10t-37 7l-35 6 l-2 17h331l-4 -17l-43 -7q-40 -4 -43 -18l-104 -543q-1 -7 7 -10t37 -7l34 -6l1 -17h-329z"/>
<glyph glyph-name="Eth" horiz-adv-x="711" unicode="Ð" d="M282 326h103l2 -24h-110l-50 -264l65 -15q70 1 124.5 52.5t83.5 136.5t29 189q0 200 -159 200h-36zM114 302h-76l4 24h77l50 259q1 7 -7 10t-37 7l-30 6l-1 17h282h3q153 0 237.5 -77t84.5 -201q0 -143 -110 -245t-298 -102h-315l3 17l41 7q40 5 42 18z"/>
<glyph glyph-name="Ntilde" horiz-adv-x="702" unicode="Ñ" d="M515 673q-33 0 -97.5 32.5t-84.5 32.5q-15 0 -26 -11t-22 -45q-21 0 -23 -1q20 83 44.5 113t69.5 30q33 0 95.5 -32.5t82.5 -32.5q16 0 28.5 11.5t24.5 44.5q19 0 21 1q-21 -83 -44.5 -113t-68.5 -30zM500 -6l-295 515h-4l-81 -401q-3 -16 -3 -30q0 -28 15 -41t51 -15 l29 -5l2 -17h-233l3 17l28 5q40 4 56.5 25.5t23.5 68.5l87 422q-29 57 -80 63l-18 4l-2 20h256l228 -402h5l58 294q3 17 3 30q0 28 -15 41t-51 15l-29 5l-2 17h233l-4 -17l-27 -5q-40 -4 -56.5 -25.5t-23.5 -68.5l-105 -515h-49z"/>
<glyph glyph-name="Ograve" horiz-adv-x="743" unicode="Ò" d="M462 667l-191 184h136l80 -184h-25zM352 11q63 0 111.5 65.5t72 158.5t23.5 192q0 81 -32.5 132.5t-99.5 51.5q-52 0 -93 -45.5t-64 -115t-34.5 -139t-11.5 -128.5q0 -77 30.5 -124.5t97.5 -47.5zM365 -14q-137 0 -223 86t-86 217q0 139 102 243.5t255 104.5 q138 0 226.5 -87.5t88.5 -218.5q0 -140 -102.5 -242.5t-260.5 -102.5z"/>
<glyph glyph-name="Oacute" horiz-adv-x="743" unicode="Ó" d="M408 667l135 184h144l-257 -184h-22zM352 11q63 0 111.5 65.5t72 158.5t23.5 192q0 81 -32.5 132.5t-99.5 51.5q-52 0 -93 -45.5t-64 -115t-34.5 -139t-11.5 -128.5q0 -77 30.5 -124.5t97.5 -47.5zM365 -14q-137 0 -223 86t-86 217q0 139 102 243.5t255 104.5 q138 0 226.5 -87.5t88.5 -218.5q0 -140 -102.5 -242.5t-260.5 -102.5z"/>
<glyph glyph-name="Ocircumflex" horiz-adv-x="743" unicode="Ô" d="M302 659l164 191h49l91 -191h-25l-106 90h-2l-146 -90h-25zM352 11q63 0 111.5 65.5t72 158.5t23.5 192q0 81 -32.5 132.5t-99.5 51.5q-52 0 -93 -45.5t-64 -115t-34.5 -139t-11.5 -128.5q0 -77 30.5 -124.5t97.5 -47.5zM365 -14q-137 0 -223 86t-86 217q0 139 102 243.5 t255 104.5q138 0 226.5 -87.5t88.5 -218.5q0 -140 -102.5 -242.5t-260.5 -102.5z"/>
<glyph glyph-name="Otilde" horiz-adv-x="743" unicode="Õ" d="M532 673q-33 0 -97.5 32.5t-84.5 32.5q-15 0 -26 -11t-22 -45q-21 0 -23 -1q20 83 44.5 113t69.5 30q33 0 95.5 -32.5t82.5 -32.5q16 0 28.5 11.5t24.5 44.5q19 0 21 1q-21 -83 -44.5 -113t-68.5 -30zM352 11q63 0 111.5 65.5t72 158.5t23.5 192q0 81 -32.5 132.5 t-99.5 51.5q-52 0 -93 -45.5t-64 -115t-34.5 -139t-11.5 -128.5q0 -77 30.5 -124.5t97.5 -47.5zM365 -14q-137 0 -223 86t-86 217q0 139 102 243.5t255 104.5q138 0 226.5 -87.5t88.5 -218.5q0 -140 -102.5 -242.5t-260.5 -102.5z"/>
<glyph glyph-name="Odieresis" horiz-adv-x="743" unicode="Ö" d="M358 676q-30 0 -48.5 20t-18.5 47t18.5 47.5t48.5 20.5t48.5 -20t18.5 -48t-18.5 -47.5t-48.5 -19.5zM572 676q-30 0 -48.5 20t-18.5 47t18.5 47.5t48.5 20.5t48.5 -20t18.5 -48t-18.5 -47.5t-48.5 -19.5zM352 11q63 0 111.5 65.5t72 158.5t23.5 192q0 81 -32.5 132.5 t-99.5 51.5q-52 0 -93 -45.5t-64 -115t-34.5 -139t-11.5 -128.5q0 -77 30.5 -124.5t97.5 -47.5zM365 -14q-137 0 -223 86t-86 217q0 139 102 243.5t255 104.5q138 0 226.5 -87.5t88.5 -218.5q0 -140 -102.5 -242.5t-260.5 -102.5z"/>
<glyph glyph-name="multiply" d="M34 61l175 175l-175 175l18 18l175 -175l175 175l18 -18l-175 -175l175 -175l-18 -18l-175 175l-175 -175z" unicode="×"/>
<glyph glyph-name="Oslash" horiz-adv-x="743" unicode="Ø" d="M548 509q-307 -425 -308 -425q31 -74 113 -74q63 0 111.5 65.5t71.5 159t23 191.5q0 49 -11 83zM233 106l308 425q-33 80 -115 80q-52 0 -93 -46t-63.5 -115t-34 -138.5t-11.5 -129.5q0 -41 9 -76zM600 581q60 -43 94 -108.5t34 -142.5q0 -140 -102.5 -242t-260.5 -102 q-92 0 -165 42l-73 -101h-23l80 111q-61 41 -94.5 106t-33.5 144q0 139 102 243.5t255 104.5q97 0 171 -45l71 98h23z"/>
<glyph glyph-name="Ugrave" horiz-adv-x="706" unicode="Ù" d="M483 667l-191 184h136l80 -184h-25zM358 -20q-124 0 -193.5 52t-69.5 150q0 32 8 80l61 323q1 7 -6 10t-36 7l-31 6l-2 17h325l-4 -17l-40 -7q-40 -5 -43 -18l-61 -323q-9 -48 -9 -89q0 -134 151 -134q140 0 170 169l64 311q3 15 3 28q0 28 -15.5 42.5t-52.5 16.5l-30 4 l-2 17h235l-4 -17l-28 -4q-39 -4 -55 -26t-23 -69l-65 -311q-20 -106 -83.5 -162t-163.5 -56z"/>
<glyph glyph-name="Uacute" horiz-adv-x="706" unicode="Ú" d="M422 667l135 184h144l-257 -184h-22zM358 -20q-124 0 -193.5 52t-69.5 150q0 32 8 80l61 323q1 7 -6 10t-36 7l-31 6l-2 17h325l-4 -17l-40 -7q-40 -5 -43 -18l-61 -323q-9 -48 -9 -89q0 -134 151 -134q140 0 170 169l64 311q3 15 3 28q0 28 -15.5 42.5t-52.5 16.5l-30 4 l-2 17h235l-4 -17l-28 -4q-39 -4 -55 -26t-23 -69l-65 -311q-20 -106 -83.5 -162t-163.5 -56z"/>
<glyph glyph-name="Ucircumflex" horiz-adv-x="706" unicode="Û" d="M311 659l164 191h49l91 -191h-25l-106 90h-2l-146 -90h-25zM358 -20q-124 0 -193.5 52t-69.5 150q0 32 8 80l61 323q1 7 -6 10t-36 7l-31 6l-2 17h325l-4 -17l-40 -7q-40 -5 -43 -18l-61 -323q-9 -48 -9 -89q0 -134 151 -134q140 0 170 169l64 311q3 15 3 28 q0 28 -15.5 42.5t-52.5 16.5l-30 4l-2 17h235l-4 -17l-28 -4q-39 -4 -55 -26t-23 -69l-65 -311q-20 -106 -83.5 -162t-163.5 -56z"/>
<glyph glyph-name="Udieresis" horiz-adv-x="706" unicode="Ü" d="M358 676q-30 0 -48.5 20t-18.5 47t18.5 47.5t48.5 20.5t48.5 -20t18.5 -48t-18.5 -47.5t-48.5 -19.5zM572 676q-30 0 -48.5 20t-18.5 47t18.5 47.5t48.5 20.5t48.5 -20t18.5 -48t-18.5 -47.5t-48.5 -19.5zM358 -20q-124 0 -193.5 52t-69.5 150q0 32 8 80l61 323 q1 7 -6 10t-36 7l-31 6l-2 17h325l-4 -17l-40 -7q-40 -5 -43 -18l-61 -323q-9 -48 -9 -89q0 -134 151 -134q140 0 170 169l64 311q3 15 3 28q0 28 -15.5 42.5t-52.5 16.5l-30 4l-2 17h235l-4 -17l-28 -4q-39 -4 -55 -26t-23 -69l-65 -311q-20 -106 -83.5 -162t-163.5 -56z "/>
<glyph glyph-name="Yacute" horiz-adv-x="649" unicode="Ý" d="M390 667l135 184h144l-257 -184h-22zM117 0l5 17l44 7q41 4 43 18l45 233l-87 238q-19 51 -32.5 68t-42.5 22l-16 4l-1 18h329l-3 -18l-19 -3q-59 -5 -59 -39q0 -13 6 -29l73 -222l5 -1l90 122q81 111 81 138q0 25 -60 31l-23 3l-1 18h236l-4 -18l-25 -4 q-41 -6 -69.5 -34t-114.5 -144l-98 -133l-49 -252q-1 -7 7 -10t37 -7l33 -6v-17h-330z"/>
<glyph glyph-name="Thorn" horiz-adv-x="619" unicode="Þ" d="M299 167q65 0 108.5 53.5t43.5 130.5q0 54 -27.5 88t-76.5 39h-30l-58 -304q26 -7 40 -7zM-16 0l1 5l2 10l1 5l40 6q40 5 43 18l104 539q1 7 -6.5 10t-37.5 7l-30 5l-2 20h323l-1 -5l-2 -10l-1 -5l-38 -6q-41 -6 -44 -18l-16 -81h12h12.5t10.5 -0.5t9 -0.5h3 q121 0 187 -45.5t66 -120.5q0 -87 -72.5 -138.5t-197.5 -51.5q-56 0 -94 9l-23 -110q-1 -7 7 -10.5t37 -6.5l40 -5l1 -20h-334z"/>
<glyph glyph-name="germandbls" horiz-adv-x="575" unicode="ß" d="M408 417q65 -39 102.5 -99t37.5 -124q0 -89 -56 -148.5t-138 -59.5q-58 0 -92 26t-34 66q0 30 19.5 50t47.5 20t44.5 -18.5t16.5 -43.5q0 -40 -36 -62q6 -15 36 -15q33 0 52.5 33.5t19.5 91.5q0 69 -36 140t-105 122l2 20q154 21 154 148q0 37 -19.5 61.5t-52.5 24.5 q-42 0 -61 -41.5t-46 -162.5q-1 -7 -2 -10l-77 -348q-35 -159 -106 -231q-59 -57 -136 -57q-50 0 -81 24t-31 62q0 27 19 46.5t50 19.5q27 0 47 -19t20 -46q0 -24 -19 -49q18 -8 27 -8q24 8 44 63.5t49 195.5l48 283l-92 4l19 52l89 12q32 119 86 176.5t156 57.5 q88 0 137 -39t49 -102q0 -49 -42 -80t-110 -36z"/>
<glyph glyph-name="agrave" horiz-adv-x="551" unicode="à" d="M404 500l-191 184h136l80 -184h-25zM190 73q29 0 59.5 34.5t72.5 111.5q8 16 20 46.5t12 38.5q-6 38 -32 68t-50 30q-10 0 -26 -15q-34 -35 -64.5 -114t-30.5 -137q0 -63 39 -63zM382 -14q-20 0 -56 29.5t-36 45.5q0 24 49 150h-5q-38 -66 -57 -96.5t-46 -65.5t-50.5 -48 t-50.5 -13q-51 0 -84.5 33t-33.5 86q0 62 37 134t99 134q81 81 152 81q35 0 53.5 -26.5t18.5 -67.5q0 -8 -2 -24h5l44 110l132 -3l-78 -207l-53 -163l45 -6l66 86l9 -9q-33 -67 -78.5 -113.5t-79.5 -46.5z"/>
<glyph glyph-name="aacute" horiz-adv-x="551" unicode="á" d="M288 500l135 184h144l-257 -184h-22zM190 73q29 0 59.5 34.5t72.5 111.5q8 16 20 46.5t12 38.5q-6 38 -32 68t-50 30q-10 0 -26 -15q-34 -35 -64.5 -114t-30.5 -137q0 -63 39 -63zM382 -14q-20 0 -56 29.5t-36 45.5q0 24 49 150h-5q-38 -66 -57 -96.5t-46 -65.5 t-50.5 -48t-50.5 -13q-51 0 -84.5 33t-33.5 86q0 62 37 134t99 134q81 81 152 81q35 0 53.5 -26.5t18.5 -67.5q0 -8 -2 -24h5l44 110l132 -3l-78 -207l-53 -163l45 -6l66 86l9 -9q-33 -67 -78.5 -113.5t-79.5 -46.5z"/>
<glyph glyph-name="acircumflex" horiz-adv-x="551" unicode="â" d="M176 492l164 191h49l91 -191h-25l-106 90h-2l-146 -90h-25zM190 73q29 0 59.5 34.5t72.5 111.5q8 16 20 46.5t12 38.5q-6 38 -32 68t-50 30q-10 0 -26 -15q-34 -35 -64.5 -114t-30.5 -137q0 -63 39 -63zM382 -14q-20 0 -56 29.5t-36 45.5q0 24 49 150h-5 q-38 -66 -57 -96.5t-46 -65.5t-50.5 -48t-50.5 -13q-51 0 -84.5 33t-33.5 86q0 62 37 134t99 134q81 81 152 81q35 0 53.5 -26.5t18.5 -67.5q0 -8 -2 -24h5l44 110l132 -3l-78 -207l-53 -163l45 -6l66 86l9 -9q-33 -67 -78.5 -113.5t-79.5 -46.5z"/>
<glyph glyph-name="atilde" horiz-adv-x="551" unicode="ã" d="M425 506q-33 0 -97.5 32.5t-84.5 32.5q-15 0 -26 -11t-22 -45q-21 0 -23 -1q20 83 44.5 113t69.5 30q33 0 95.5 -32.5t82.5 -32.5q16 0 28.5 11.5t24.5 44.5q19 0 21 1q-21 -83 -44.5 -113t-68.5 -30zM190 73q29 0 59.5 34.5t72.5 111.5q8 16 20 46.5t12 38.5 q-6 38 -32 68t-50 30q-10 0 -26 -15q-34 -35 -64.5 -114t-30.5 -137q0 -63 39 -63zM382 -14q-20 0 -56 29.5t-36 45.5q0 24 49 150h-5q-38 -66 -57 -96.5t-46 -65.5t-50.5 -48t-50.5 -13q-51 0 -84.5 33t-33.5 86q0 62 37 134t99 134q81 81 152 81q35 0 53.5 -26.5 t18.5 -67.5q0 -8 -2 -24h5l44 110l132 -3l-78 -207l-53 -163l45 -6l66 86l9 -9q-33 -67 -78.5 -113.5t-79.5 -46.5z"/>
<glyph glyph-name="adieresis" horiz-adv-x="551" unicode="ä" d="M249 509q-30 0 -48.5 20t-18.5 47t18.5 47.5t48.5 20.5t48.5 -20t18.5 -48t-18.5 -47.5t-48.5 -19.5zM463 509q-30 0 -48.5 20t-18.5 47t18.5 47.5t48.5 20.5t48.5 -20t18.5 -48t-18.5 -47.5t-48.5 -19.5zM190 73q29 0 59.5 34.5t72.5 111.5q8 16 20 46.5t12 38.5 q-6 38 -32 68t-50 30q-10 0 -26 -15q-34 -35 -64.5 -114t-30.5 -137q0 -63 39 -63zM382 -14q-20 0 -56 29.5t-36 45.5q0 24 49 150h-5q-38 -66 -57 -96.5t-46 -65.5t-50.5 -48t-50.5 -13q-51 0 -84.5 33t-33.5 86q0 62 37 134t99 134q81 81 152 81q35 0 53.5 -26.5 t18.5 -67.5q0 -8 -2 -24h5l44 110l132 -3l-78 -207l-53 -163l45 -6l66 86l9 -9q-33 -67 -78.5 -113.5t-79.5 -46.5z"/>
<glyph glyph-name="aring" horiz-adv-x="551" unicode="å" d="M190 73q29 0 59.5 34.5t72.5 111.5q8 16 20 46.5t12 38.5q-6 38 -32 68t-50 30q-10 0 -26 -15q-34 -35 -64.5 -114t-30.5 -137q0 -63 39 -63zM359 519q34 0 55 22.5t21 55.5t-21 56t-55 23q-35 0 -55.5 -23t-20.5 -56t20.5 -55.5t55.5 -22.5zM382 -14q-20 0 -56 29.5 t-36 45.5q0 24 49 150h-5q-38 -66 -57 -96.5t-46 -65.5t-50.5 -48t-50.5 -13q-51 0 -84.5 33t-33.5 86q0 62 37 134t99 134q81 81 152 81q35 0 53.5 -26.5t18.5 -67.5q0 -8 -2 -24h5l44 110l132 -3l-78 -207l-53 -163l45 -6l66 86l9 -9q-33 -67 -78.5 -113.5t-79.5 -46.5z M359 501q-43 0 -69 28t-26 68t26 68t69 28q42 0 68 -28t26 -68t-26 -68t-68 -28z"/>
<glyph glyph-name="ae" horiz-adv-x="725" unicode="æ" d="M190 73q28 0 59.5 39.5t74.5 121.5q30 54 30 70q-6 38 -32 68t-50 30q-10 0 -26 -15q-34 -35 -64.5 -114t-30.5 -137q0 -63 39 -63zM466 231q76 27 112.5 57.5t36.5 79.5q0 25 -14.5 41.5t-33.5 16.5q-14 0 -30 -14q-22 -22 -43.5 -73t-30.5 -107zM130 -12 q-51 0 -84.5 33t-33.5 86q0 62 37 134t99 134q81 81 152 81q36 0 56 -30t20 -78q0 -3 -0.5 -8.5t-0.5 -8.5q89 125 228 125q58 0 91.5 -28t33.5 -67q0 -18 -6.5 -33t-23.5 -28t-35.5 -23t-53.5 -22t-64.5 -21t-81.5 -23q-5 -23 -5 -57q0 -91 80 -91q73 0 138 95l12 -10 q-84 -160 -211 -160q-70 0 -115.5 44.5t-46.5 116.5q0 21 1 31q-57 -100 -97 -146t-89 -46z"/>
<glyph glyph-name="ccedilla" horiz-adv-x="418" unicode="ç" d="M159 -13q-64 5 -104.5 50t-40.5 115q0 72 36 141.5t104.5 116t149.5 46.5q50 0 85.5 -26t35.5 -67q0 -36 -21.5 -61t-51.5 -25t-49 19t-19 45q0 21 13 40.5t30 25.5q-33 20 -47 20q-16 0 -40 -22q-31 -31 -57 -102.5t-26 -140.5q0 -46 21 -72.5t58 -26.5q60 0 125 95 l12 -10q-79 -153 -188 -160l-56 -47h12q59 0 96.5 -24.5t37.5 -61.5q0 -33 -20.5 -56.5t-56.5 -36.5t-77 -19t-89 -6h-7l-2 12q89 8 129.5 25t40.5 51q0 28 -28 41.5t-65 13.5q-38 0 -61 -6l1 13z"/>
<glyph glyph-name="egrave" horiz-adv-x="424" unicode="è" d="M297 500l-191 184h136l80 -184h-25zM165 231q152 51 152 137q0 24 -15 41t-32 17q-15 0 -29 -12q-24 -24 -47 -75.5t-32 -106.5zM175 -13q-71 0 -116 46t-45 119q0 71 37 141t104.5 116.5t145.5 46.5q53 0 88 -26t35 -66q0 -51 -63.5 -84t-198.5 -69q-5 -23 -5 -57 q0 -41 22.5 -66t59.5 -25q71 0 136 95l12 -10q-84 -161 -212 -161z"/>
<glyph glyph-name="eacute" horiz-adv-x="424" unicode="é" d="M241 500l135 184h144l-257 -184h-22zM165 231q152 51 152 137q0 24 -15 41t-32 17q-15 0 -29 -12q-24 -24 -47 -75.5t-32 -106.5zM175 -13q-71 0 -116 46t-45 119q0 71 37 141t104.5 116.5t145.5 46.5q53 0 88 -26t35 -66q0 -51 -63.5 -84t-198.5 -69q-5 -23 -5 -57 q0 -41 22.5 -66t59.5 -25q71 0 136 95l12 -10q-84 -161 -212 -161z"/>
<glyph glyph-name="ecircumflex" horiz-adv-x="424" unicode="ê" d="M123 492l164 191h49l91 -191h-25l-106 90h-2l-146 -90h-25zM165 231q152 51 152 137q0 24 -15 41t-32 17q-15 0 -29 -12q-24 -24 -47 -75.5t-32 -106.5zM175 -13q-71 0 -116 46t-45 119q0 71 37 141t104.5 116.5t145.5 46.5q53 0 88 -26t35 -66q0 -51 -63.5 -84 t-198.5 -69q-5 -23 -5 -57q0 -41 22.5 -66t59.5 -25q71 0 136 95l12 -10q-84 -161 -212 -161z"/>
<glyph glyph-name="edieresis" horiz-adv-x="424" unicode="ë" d="M188 509q-30 0 -48.5 20t-18.5 47t18.5 47.5t48.5 20.5t48.5 -20t18.5 -48t-18.5 -47.5t-48.5 -19.5zM402 509q-30 0 -48.5 20t-18.5 47t18.5 47.5t48.5 20.5t48.5 -20t18.5 -48t-18.5 -47.5t-48.5 -19.5zM165 231q152 51 152 137q0 24 -15 41t-32 17q-15 0 -29 -12 q-24 -24 -47 -75.5t-32 -106.5zM175 -13q-71 0 -116 46t-45 119q0 71 37 141t104.5 116.5t145.5 46.5q53 0 88 -26t35 -66q0 -51 -63.5 -84t-198.5 -69q-5 -23 -5 -57q0 -41 22.5 -66t59.5 -25q71 0 136 95l12 -10q-84 -161 -212 -161z"/>
<glyph glyph-name="igrave" horiz-adv-x="301" unicode="ì" d="M226 500l-191 184h136l80 -184h-25zM122 -14q-18 0 -53.5 27.5t-35.5 47.5q0 8 25.5 84.5t50.5 148.5l25 72l-52 5l-60 -92l-11 10q32 69 74.5 118t75.5 49q20 0 64 -25t44 -44q0 -10 -26.5 -88t-52.5 -151l-26 -73l42 -6l70 86l9 -9q-37 -68 -83 -114t-80 -46z"/>
<glyph glyph-name="iacute" horiz-adv-x="301" unicode="í" d="M149 500l135 184h144l-257 -184h-22zM122 -14q-18 0 -53.5 27.5t-35.5 47.5q0 8 25.5 84.5t50.5 148.5l25 72l-52 5l-60 -92l-11 10q32 69 74.5 118t75.5 49q20 0 64 -25t44 -44q0 -10 -26.5 -88t-52.5 -151l-26 -73l42 -6l70 86l9 -9q-37 -68 -83 -114t-80 -46z"/>
<glyph glyph-name="icircumflex" horiz-adv-x="301" unicode="î" d="M122 -14q-18 0 -53.5 27.5t-35.5 47.5q0 8 25.5 84.5t50.5 148.5l25 72l-52 5l-60 -92l-11 10q32 69 74.5 118t75.5 49q20 0 64 -25t44 -44q0 -10 -26.5 -88t-52.5 -151l-26 -73l42 -6l70 86l9 -9q-37 -68 -83 -114t-80 -46zM68 494l157 190h48l86 -190h-26l-99 89h-2 l-138 -89h-26z"/>
<glyph glyph-name="idieresis" horiz-adv-x="301" unicode="ï" d="M119 509q-30 0 -48.5 20t-18.5 47t18.5 47.5t48.5 20.5t48.5 -20t18.5 -48t-18.5 -47.5t-48.5 -19.5zM333 509q-30 0 -48.5 20t-18.5 47t18.5 47.5t48.5 20.5t48.5 -20t18.5 -48t-18.5 -47.5t-48.5 -19.5zM122 -14q-18 0 -53.5 27.5t-35.5 47.5q0 8 25.5 84.5t50.5 148.5 l25 72l-52 5l-60 -92l-11 10q32 69 74.5 118t75.5 49q20 0 64 -25t44 -44q0 -10 -26.5 -88t-52.5 -151l-26 -73l42 -6l70 86l9 -9q-37 -68 -83 -114t-80 -46z"/>
<glyph glyph-name="eth" horiz-adv-x="469" unicode="ð" d="M186 14q62 0 110 165q31 100 31 168q0 39 -13 59.5t-33 20.5q-28 0 -58.5 -44.5t-55.5 -130.5q-27 -89 -27 -160q0 -36 12 -57t34 -21zM258 550l-134 -26l2 6l2 12l2 6l111 22q-37 40 -84 62l11 15q83 -20 145 -63l119 24l-5 -24l-90 -18q115 -98 115 -265 q0 -127 -75.5 -221t-175.5 -94q-81 0 -131.5 56.5t-50.5 143.5q0 103 74.5 186.5t166.5 83.5q30 0 58 -13q-23 61 -60 107z"/>
<glyph glyph-name="ntilde" horiz-adv-x="572" unicode="ñ" d="M433 506q-33 0 -97.5 32.5t-84.5 32.5q-15 0 -26 -11t-22 -45q-21 0 -23 -1q20 83 44.5 113t69.5 30q33 0 95.5 -32.5t82.5 -32.5q16 0 28.5 11.5t24.5 44.5q19 0 21 1q-21 -83 -44.5 -113t-68.5 -30zM397 -14q-18 0 -53 27.5t-35 47.5q0 8 2 17.5t7.5 25t10.5 29 t15.5 40.5t18.5 48q36 93 36 106q0 8 -17 17t-32 9q-42 0 -154 -240l-36 -115l-143 2l52 161l54 205l-43 6l-61 -93l-11 10q32 68 76 117.5t77 49.5q19 0 59.5 -26t40.5 -46q0 -23 -19 -87t-44 -125l7 -1q97 195 142 238q47 47 87 47q48 0 78 -25t30 -53q0 -48 -47 -168 l-53 -135l42 -6l70 86l10 -9q-36 -67 -84.5 -113.5t-82.5 -46.5z"/>
<glyph glyph-name="ograve" horiz-adv-x="469" unicode="ò" d="M310 500l-191 184h136l80 -184h-25zM186 14q62 0 110 166q31 99 31 168q0 39 -13 59.5t-33 20.5q-28 0 -58.5 -45t-55.5 -131q-27 -89 -27 -160q0 -36 12 -57t34 -21zM201 -14q-81 0 -131.5 56.5t-50.5 143.5q0 104 75 187t171 83q77 0 130 -59.5t53 -147.5 q0 -102 -74.5 -182.5t-172.5 -80.5z"/>
<glyph glyph-name="oacute" horiz-adv-x="469" unicode="ó" d="M251 500l135 184h144l-257 -184h-22zM186 14q62 0 110 166q31 99 31 168q0 39 -13 59.5t-33 20.5q-28 0 -58.5 -45t-55.5 -131q-27 -89 -27 -160q0 -36 12 -57t34 -21zM201 -14q-81 0 -131.5 56.5t-50.5 143.5q0 104 75 187t171 83q77 0 130 -59.5t53 -147.5 q0 -102 -74.5 -182.5t-172.5 -80.5z"/>
<glyph glyph-name="ocircumflex" horiz-adv-x="469" unicode="ô" d="M139 492l164 191h49l91 -191h-25l-106 90h-2l-146 -90h-25zM186 14q62 0 110 166q31 99 31 168q0 39 -13 59.5t-33 20.5q-28 0 -58.5 -45t-55.5 -131q-27 -89 -27 -160q0 -36 12 -57t34 -21zM201 -14q-81 0 -131.5 56.5t-50.5 143.5q0 104 75 187t171 83q77 0 130 -59.5 t53 -147.5q0 -102 -74.5 -182.5t-172.5 -80.5z"/>
<glyph glyph-name="otilde" horiz-adv-x="469" unicode="õ" d="M387 506q-33 0 -97.5 32.5t-84.5 32.5q-15 0 -26 -11t-22 -45q-21 0 -23 -1q20 83 44.5 113t69.5 30q33 0 95.5 -32.5t82.5 -32.5q16 0 28.5 11.5t24.5 44.5q19 0 21 1q-21 -83 -44.5 -113t-68.5 -30zM186 14q62 0 110 166q31 99 31 168q0 39 -13 59.5t-33 20.5 q-28 0 -58.5 -45t-55.5 -131q-27 -89 -27 -160q0 -36 12 -57t34 -21zM201 -14q-81 0 -131.5 56.5t-50.5 143.5q0 104 75 187t171 83q77 0 130 -59.5t53 -147.5q0 -102 -74.5 -182.5t-172.5 -80.5z"/>
<glyph glyph-name="odieresis" horiz-adv-x="469" unicode="ö" d="M204 509q-30 0 -48.5 20t-18.5 47t18.5 47.5t48.5 20.5t48.5 -20t18.5 -48t-18.5 -47.5t-48.5 -19.5zM418 509q-30 0 -48.5 20t-18.5 47t18.5 47.5t48.5 20.5t48.5 -20t18.5 -48t-18.5 -47.5t-48.5 -19.5zM186 14q62 0 110 166q31 99 31 168q0 39 -13 59.5t-33 20.5 q-28 0 -58.5 -45t-55.5 -131q-27 -89 -27 -160q0 -36 12 -57t34 -21zM201 -14q-81 0 -131.5 56.5t-50.5 143.5q0 104 75 187t171 83q77 0 130 -59.5t53 -147.5q0 -102 -74.5 -182.5t-172.5 -80.5z"/>
<glyph glyph-name="divide" d="M278 98q0 -21 -15 -36.5t-36 -15.5q-22 0 -37 15.5t-15 36.5q0 20 15 34.5t37 14.5q21 0 36 -14.5t15 -34.5zM429 223h-404l3 26h398zM278 377q0 -21 -15 -36.5t-37 -15.5q-21 0 -36 15.5t-15 36.5q0 20 15 35t36 15q22 0 37 -15t15 -35z" unicode="÷"/>
<glyph glyph-name="oslash" horiz-adv-x="469" unicode="ø" d="M327 337q-186 -258 -187 -258q5 -65 46 -65q62 0 110 165q27 86 31 158zM141 112l185 256q-7 59 -45 59q-28 0 -58.5 -44.5t-55.5 -130.5q-22 -75 -26 -140zM381 411q67 -60 67 -162t-74.5 -182.5t-172.5 -80.5q-59 0 -104 32l-106 -146h-23l114 158q-63 57 -63 156 q0 104 75 187t171 83q55 0 101 -33l116 162h24z"/>
<glyph glyph-name="ugrave" horiz-adv-x="572" unicode="ù" d="M347 500l-191 184h136l80 -184h-25zM408 -14q-19 0 -57 28t-38 48q0 23 19.5 87t43.5 122l-7 2q-101 -198 -143 -240q-48 -46 -87 -46q-48 0 -78 26t-30 55q0 45 47 165l51 133l-43 6l-65 -93l-11 10q35 69 81.5 118t80.5 49q18 0 55 -30.5t36 -50.5q-1 -8 -3 -16.5 t-7 -23t-10 -27.5t-15 -38.5t-18 -47.5q-35 -90 -35 -104q0 -8 17 -18.5t32 -10.5q40 0 155 240l38 116l142 -2l-54 -161l-56 -208l42 -7l64 86l10 -9q-33 -67 -78.5 -112.5t-78.5 -45.5z"/>
<glyph glyph-name="uacute" horiz-adv-x="572" unicode="ú" d="M294 500l135 184h144l-257 -184h-22zM408 -14q-19 0 -57 28t-38 48q0 23 19.5 87t43.5 122l-7 2q-101 -198 -143 -240q-48 -46 -87 -46q-48 0 -78 26t-30 55q0 45 47 165l51 133l-43 6l-65 -93l-11 10q35 69 81.5 118t80.5 49q18 0 55 -30.5t36 -50.5q-1 -8 -3 -16.5 t-7 -23t-10 -27.5t-15 -38.5t-18 -47.5q-35 -90 -35 -104q0 -8 17 -18.5t32 -10.5q40 0 155 240l38 116l142 -2l-54 -161l-56 -208l42 -7l64 86l10 -9q-33 -67 -78.5 -112.5t-78.5 -45.5z"/>
<glyph glyph-name="ucircumflex" horiz-adv-x="572" unicode="û" d="M195 492l164 191h49l91 -191h-25l-106 90h-2l-146 -90h-25zM408 -14q-19 0 -57 28t-38 48q0 23 19.5 87t43.5 122l-7 2q-101 -198 -143 -240q-48 -46 -87 -46q-48 0 -78 26t-30 55q0 45 47 165l51 133l-43 6l-65 -93l-11 10q35 69 81.5 118t80.5 49q18 0 55 -30.5 t36 -50.5q-1 -8 -3 -16.5t-7 -23t-10 -27.5t-15 -38.5t-18 -47.5q-35 -90 -35 -104q0 -8 17 -18.5t32 -10.5q40 0 155 240l38 116l142 -2l-54 -161l-56 -208l42 -7l64 86l10 -9q-33 -67 -78.5 -112.5t-78.5 -45.5z"/>
<glyph glyph-name="udieresis" horiz-adv-x="572" unicode="ü" d="M257 509q-30 0 -48.5 20t-18.5 47t18.5 47.5t48.5 20.5t48.5 -20t18.5 -48t-18.5 -47.5t-48.5 -19.5zM471 509q-30 0 -48.5 20t-18.5 47t18.5 47.5t48.5 20.5t48.5 -20t18.5 -48t-18.5 -47.5t-48.5 -19.5zM408 -14q-19 0 -57 28t-38 48q0 23 19.5 87t43.5 122l-7 2 q-101 -198 -143 -240q-48 -46 -87 -46q-48 0 -78 26t-30 55q0 45 47 165l51 133l-43 6l-65 -93l-11 10q35 69 81.5 118t80.5 49q18 0 55 -30.5t36 -50.5q-1 -8 -3 -16.5t-7 -23t-10 -27.5t-15 -38.5t-18 -47.5q-35 -90 -35 -104q0 -8 17 -18.5t32 -10.5q40 0 155 240l38 116 l142 -2l-54 -161l-56 -208l42 -7l64 86l10 -9q-33 -67 -78.5 -112.5t-78.5 -45.5z"/>
<glyph glyph-name="yacute" horiz-adv-x="483" unicode="ý" d="M263 500l135 184h144l-257 -184h-22zM1 -201q-51 0 -82 25t-31 63q0 29 21 50t49 21q29 0 49 -18.5t20 -47.5q0 -26 -17 -53l35 -10q10 2 29.5 12.5t34 19.5t38.5 25t29 19q0 9 0.5 26t0.5 26q0 171 -26 298.5t-58 127.5l-15 3l-61 -107l-12 10q16 35 20.5 44.5t19 37 t23 36.5t23 24t30.5 20t34 5q51 0 78 -34.5t40 -124.5t13 -261v-16l6 -1q43 48 89 150t51 155q-23 -13 -44 -13q-29 0 -48 21t-19 47q0 32 20.5 53.5t54.5 21.5q37 0 60 -27.5t23 -68.5q0 -73 -55 -175.5t-139 -197.5q-68 -79 -146 -132.5t-138 -53.5z"/>
<glyph glyph-name="thorn" horiz-adv-x="519" unicode="þ" d="M233 10q23 0 45 21q38 39 65 120.5t27 146.5q0 73 -44 73q-52 0 -137 -192q-33 -81 -33 -101q6 -25 29.5 -46.5t47.5 -21.5zM-124 -251l3 17l25 4q21 2 28.5 5.5t9.5 11.5l222 804q1 4 1 11q0 16 -10 19l-72 10l4 14l236 28l-31 -113q-66 -215 -105 -330q-2 -7 2 -6 q3 0 5 4q56 125 99.5 176.5t96.5 51.5q55 0 85.5 -40t30.5 -105q0 -118 -84.5 -221.5t-189.5 -103.5q-24 0 -48 14.5t-35 37.5h-5l-70 -252q-1 -5 3 -8t14.5 -5t29.5 -3l40 -4l2 -17h-287z"/>
<glyph glyph-name="OE" horiz-adv-x="1004" unicode="Œ" d="M389 24l35 1l108 563l-66 14q-105 -1 -171 -110t-66 -268q0 -200 160 -200zM383 0q-155 0 -240.5 77t-85.5 201q0 143 110.5 245t298.5 102h523l-10 -216h-32l-5 29q-21 95 -66.5 129.5t-125.5 34.5h-20l-34 -2l-52 -271l34 1q96 5 127 81l17 36h24l-60 -265h-24l1 34 q0 47 -20 67t-78 23l-24 2l-54 -282l70 -5q93 2 157 40t108 127l13 25h32l-59 -213h-525z"/>
<glyph glyph-name="oe" horiz-adv-x="710" unicode="œ" d="M186 14q62 0 110 166q31 99 31 168q0 38 -12.5 59t-33.5 21q-28 0 -58.5 -45t-55.5 -131q-27 -89 -27 -160q0 -36 12.5 -57t33.5 -21zM451 231q75 27 111.5 57.5t36.5 79.5q0 25 -14.5 41.5t-32.5 16.5q-16 0 -30 -14q-22 -22 -43.5 -73t-30.5 -107zM201 -14 q-80 0 -131 56.5t-51 143.5q0 103 75 186.5t171 83.5q93 0 138 -86q78 86 185 86q56 0 90.5 -27t34.5 -68q0 -51 -57.5 -79.5t-208.5 -70.5q-4 -24 -4 -57q0 -43 21 -67t59 -24q73 0 137 95l12 -10q-83 -161 -212 -161q-79 0 -116 62q-65 -63 -143 -63z"/>
<glyph glyph-name="Scaron" horiz-adv-x="544" unicode="Š" d="M320 666l-91 191h25l105 -90h3l145 90h26l-165 -191h-48zM258 -14q-116 0 -228 56l16 181l29 -2l35 -119q46 -91 149 -91q55 0 86 33t31 81q0 19 -8.5 36.5t-16.5 28t-32 26t-33 20.5t-41 22q-75 39 -115.5 80.5t-40.5 105.5q0 78 65.5 135t161.5 57q65 0 161 -38l64 15 l-29 -192l-27 1l-62 160q-41 28 -100 28q-45 0 -75.5 -29t-30.5 -65q0 -22 9.5 -40.5t31 -34.5t38.5 -26t51 -27q74 -38 115 -80.5t41 -110.5q0 -88 -69.5 -149.5t-175.5 -61.5z"/>
<glyph glyph-name="scaron" horiz-adv-x="398" unicode="š" d="M224 492l-91 191h25l105 -90h3l145 90h26l-165 -191h-48zM157 -14q-68 0 -114 26t-46 75q0 34 18.5 56t50.5 22q25 0 42 -18t17 -45q0 -25 -27 -46q7 -13 32.5 -30.5t57.5 -18.5q25 3 42.5 23t17.5 45q0 9 -5 19.5t-18 23.5t-21.5 20.5t-29 24.5t-27.5 23 q-47 40 -67.5 68t-20.5 61q0 61 52.5 101t126.5 40q61 0 107.5 -25t46.5 -66q0 -33 -17.5 -54t-46.5 -21t-47.5 18.5t-18.5 45.5q0 25 26 44q-1 1 -6.5 7.5t-10 10.5t-12.5 9.5t-18.5 8.5t-22.5 3q-22 -4 -39.5 -24.5t-17.5 -41.5q0 -10 6 -21t18.5 -23.5t22 -21t27 -22 t23.5 -18.5q32 -29 47 -44.5t31 -41.5t16 -50q0 -60 -57 -101.5t-138 -41.5z"/>
<glyph glyph-name="Ydieresis" horiz-adv-x="649" unicode="Ÿ" d="M321 676q-30 0 -48.5 20t-18.5 47t18.5 47.5t48.5 20.5t48.5 -20t18.5 -48t-18.5 -47.5t-48.5 -19.5zM535 676q-30 0 -48.5 20t-18.5 47t18.5 47.5t48.5 20.5t48.5 -20t18.5 -48t-18.5 -47.5t-48.5 -19.5zM117 0l5 17l44 7q41 4 43 18l45 233l-87 238q-19 51 -32.5 68 t-42.5 22l-16 4l-1 18h329l-3 -18l-19 -3q-59 -5 -59 -39q0 -13 6 -29l73 -222l5 -1l90 122q81 111 81 138q0 25 -60 31l-23 3l-1 18h236l-4 -18l-25 -4q-41 -6 -69.5 -34t-114.5 -144l-98 -133l-49 -252q-1 -7 7 -10t37 -7l33 -6v-17h-330z"/>
<glyph glyph-name="circumflex" horiz-adv-x="379" unicode="ˆ" d="M85 492l164 191h49l91 -191h-25l-106 90h-2l-146 -90h-25z"/>
<glyph glyph-name="tilde" horiz-adv-x="406" unicode="˜" d="M337 506q-33 0 -97.5 32.5t-84.5 32.5q-15 0 -26 -11t-22 -45q-21 0 -23 -1q20 83 44.5 113t69.5 30q33 0 95.5 -32.5t82.5 -32.5q16 0 28.5 11.5t24.5 44.5q19 0 21 1q-21 -83 -44.5 -113t-68.5 -30z"/>
<glyph glyph-name="thinspace" horiz-adv-x="60" unicode=" "/>
<glyph glyph-name="endash" horiz-adv-x="439" unicode="–" d="M14 220l7 41h407l-1 -41h-413z"/>
<glyph glyph-name="emdash" horiz-adv-x="909" unicode="—" d="M14 220l7 41h877l-1 -41h-883z"/>
<glyph glyph-name="quoteleft" horiz-adv-x="221" unicode="‘" d="M147 349q-43 0 -66 28.5t-23 67.5q0 59 56 115t147 84l9 -11q-123 -51 -123 -128q0 -35 24 -55.5t53 -28.5q0 -29 -22 -50.5t-55 -21.5z"/>
<glyph glyph-name="quotesinglbase" horiz-adv-x="221" unicode="‚" d="M-33 -140l-9 12q123 51 123 128q0 34 -24.5 55t-52.5 28q0 29 22 51t55 22q43 0 66 -28.5t23 -67.5q0 -59 -56 -115t-147 -85z"/>
<glyph glyph-name="quotedblleft" horiz-adv-x="429" unicode="“" d="M147 349q-43 0 -66 28.5t-23 67.5q0 59 56 115t147 84l9 -11q-123 -51 -123 -128q0 -35 24 -55.5t53 -28.5q0 -29 -22 -50.5t-55 -21.5zM355 349q-43 0 -66 28.5t-23 67.5q0 59 56 115t147 84l9 -11q-123 -51 -123 -128q0 -35 24 -55.5t53 -28.5q0 -29 -22 -50.5 t-55 -21.5z"/>
<glyph glyph-name="quotedblright" horiz-adv-x="429" unicode="”" d="M67 357l-9 12q123 51 123 128q0 34 -24.5 55t-52.5 28q0 29 22 51t55 22q43 0 66 -28.5t23 -67.5q0 -59 -56 -115t-147 -85zM275 357l-9 12q123 51 123 128q0 34 -24.5 55t-52.5 28q0 29 22 51t55 22q43 0 66 -28.5t23 -67.5q0 -59 -56 -115t-147 -85z"/>
<glyph glyph-name="dagger" horiz-adv-x="444" unicode="†" d="M164 -155l84 560h-195v23h197l30 198h22l-30 -198h197l-3 -23h-195l-85 -560h-22z"/>
<glyph glyph-name="daggerdbl" horiz-adv-x="444" unicode="‡" d="M164 -155l29 186h-197l3 22h196l55 362h-195v22h197l29 189h22l-29 -189h197l-3 -22h-195l-56 -362h195l1 -22h-198l-28 -186h-23z"/>
<glyph glyph-name="ellipsis" horiz-adv-x="683" unicode="…" d="M86 -13q-32 0 -55 23t-23 56q0 32 23 55t54 23t54 -23.5t24 -54.5q0 -32 -23 -55.5t-54 -23.5zM313 -13q-32 0 -55 23t-23 56q0 32 23.5 55t54.5 23q32 0 54.5 -24t22.5 -56q0 -31 -23 -54t-54 -23zM541 -13q-32 0 -55 23t-23 56q0 32 23.5 55t54.5 23q32 0 54.5 -24 t22.5 -56q0 -31 -23 -54t-54 -23z"/>
<glyph glyph-name="perthousand" horiz-adv-x="924" unicode="‰" d="M440 4q52 0 85 35.5t33 87.5q0 49 -31.5 82t-80.5 33q-52 0 -85 -36.5t-33 -87.5q0 -50 31 -82t81 -32zM755 4q52 0 85.5 35.5t33.5 87.5q0 49 -31.5 82t-81.5 33q-52 0 -85 -36.5t-33 -87.5q0 -50 31 -82t81 -32zM197 384q52 0 85 35t33 86q0 50 -31 83.5t-81 33.5 q-52 0 -85 -36.5t-33 -87.5q0 -50 31 -82t81 -32zM438 -16q-59 0 -96 37.5t-37 94.5q0 61 40 103.5t102 42.5q59 0 96.5 -38.5t37.5 -95.5q0 -60 -40 -102t-103 -42zM754 -16q-60 0 -96.5 37.5t-36.5 94.5q0 61 39.5 103.5t101.5 42.5q59 0 96.5 -38.5t37.5 -95.5 q0 -60 -40 -102t-102 -42zM8 -14l598 654h26l-597 -654h-27zM196 364q-59 0 -96.5 38t-37.5 95q0 60 40 102.5t102 42.5q60 0 97.5 -38.5t37.5 -95.5q0 -60 -40 -102t-103 -42z"/>
<glyph glyph-name="guilsinglleft" horiz-adv-x="290" unicode="‹" d="M233 31l-219 178l3 34l286 170l4 -9l-161 -189l94 -174z"/>
<glyph glyph-name="guilsinglright" horiz-adv-x="291" unicode="›" d="M-7 30l-4 9l158 189l-91 174l7 10l219 -177l-5 -34z"/>
<glyph glyph-name="fraction" horiz-adv-x="506" unicode="⁄" d="M-42 -13l590 653h31l-591 -653h-30z"/>
<glyph glyph-name="Euro" horiz-adv-x="530" unicode="€" d="M299 -12q-104 0 -162.5 67t-66.5 174h-63l3 23h59v14q2 54 12 92h-50l3 23h54q37 108 126.5 179.5t203.5 71.5q66 0 107.5 -31.5t41.5 -75.5q0 -31 -21.5 -53.5t-54.5 -22.5q-31 0 -49 19.5t-18 48.5q0 43 36 76l-6 5q-7 4 -10 6t-12.5 4t-21.5 2q-57 0 -106 -66.5 t-69 -162.5h191l3 -23h-200q-6 -41 -6 -82q0 -17 1 -24h178l3 -23h-180q10 -78 49.5 -121.5t105.5 -43.5q72 0 123 62l10 -8q-37 -61 -93 -95.5t-121 -34.5z"/>
<glyph glyph-name="trademark" horiz-adv-x="579" unicode="™" d="M161 403l1 12l18 3q10 1 10 7v188h-3q-37 0 -58 -64l-3 -8h-17l7 84h214l4 -85h-18l-2 8q-10 32 -22 48.5t-34 16.5h-6v-189q0 -4 13 -6l15 -3l1 -12h-120zM348 403l2 12l12 2q13 1 16 7t5 37l4 134q-9 13 -19 16l-17 2l-1 12h106l39 -148h4l46 148h106l-2 -12l-18 -2 q-13 -3 -13 -8l5 -166q0 -11 3 -14t13 -5l15 -3l1 -12h-124v12l19 3q11 1 11 20l-3 165h-4l-65 -196h-28l-55 187q-4 1 -4 0l-3 -135v-11q0 -20 3.5 -25.5t15.5 -5.5l13 -2l2 -12h-85z"/>
<glyph glyph-name="minus" d="M415 223h-376l3 26h370z" unicode="−"/>
<glyph glyph-name="approxequal" d="M412 369h26q-19 -98 -108 -98q-34 0 -106 34q-68 33 -100 33q-34 0 -53.5 -15t-28.5 -57h-26q19 98 108 98q34 0 106 -34q68 -33 100 -33q35 0 54 15t28 57zM412 205h26q-19 -98 -108 -98q-34 0 -106 34q-68 33 -100 33q-34 0 -53.5 -15t-28.5 -57h-26q19 98 108 98 q34 0 106 -34q68 -33 100 -33q35 0 54 15t28 57z" unicode="≈"/>
<glyph glyph-name="notequal" d="M30 309l-3 26h215l43 150h28l-43 -150h157l-3 -26h-161l-42 -147h203l3 -26h-213l-45 -160h-28l45 160h-159l3 26h163l42 147h-205z" unicode="≠"/>
<glyph glyph-name="lessequal" horiz-adv-x="438" unicode="≤" d="M413 84l-399 174v18l399 174l10 -24l-368 -157l1 -1q58 -25 183.5 -80t183.5 -80zM423 25h-409l3 26h403z"/>
<glyph glyph-name="greaterequal" horiz-adv-x="438" unicode="≥" d="M430 258l-399 -174l-10 24l367 159v1q-345 149 -367 158l10 24l399 -174v-18zM430 25h-409l3 26h403z"/>
</font>
</defs>
</svg>
