<?xml version="1.0" encoding="UTF-8" standalone="no"?>
<!DOCTYPE svg  PUBLIC '-//W3C//DTD SVG 1.1//EN'  'http://www.w3.org/Graphics/SVG/1.1/DTD/svg11.dtd'>
<svg xmlns="http://www.w3.org/2000/svg">
<defs>
<font id="FreightDispProSemibold-Regular" horiz-adv-x="448">
<font-face underline-position="-146" font-weight="600" descent="-200" panose-1="2 0 6 3 8 0 0 2 0 4" units-per-em="1000" unicode-range="U+0020-2265" bbox="-88 -270 990 864" x-height="432" underline-thickness="20" font-family="FreightDispProSemibold" ascent="800" cap-height="625"/>
<missing-glyph horiz-adv-x="1000"/>
<glyph glyph-name=".notdef" horiz-adv-x="1000"/>
<glyph glyph-name=".null" horiz-adv-x="0"/>
<glyph glyph-name="nonmarkingreturn" horiz-adv-x="333"/>
<glyph glyph-name="space" horiz-adv-x="180" unicode=" "/>
<glyph glyph-name="exclam" horiz-adv-x="268" unicode="!" d="M135 -14q-27 0 -45.5 18.5t-18.5 44.5q0 25 18.5 43.5t45.5 18.5t45 -18.5t18 -43.5q0 -26 -18 -44.5t-45 -18.5zM129 189l-51 394q-1 5 -1 14q0 43 57 43h2q58 0 58 -44q0 -9 -1 -13l-51 -394q0 -5 -6 -5q-7 0 -7 5z"/>
<glyph glyph-name="quotedbl" horiz-adv-x="344" unicode='&quot;' d="M2 403l107 242h2l71 -28l-165 -214h-15zM170 403l107 242h1l71 -28l-164 -214h-15z"/>
<glyph glyph-name="numbersign" horiz-adv-x="518" unicode="#" d="M151 207h163l55 209h-162zM74 -5l51 194h-134v18h140l54 209h-134v18h139l53 198h21l-53 -198h163l53 198h20l-52 -198h135v-18h-140l-54 -209h134v-18h-140l-51 -194h-20l51 194h-163l-52 -194h-21z"/>
<glyph glyph-name="dollar" horiz-adv-x="486" unicode="$" d="M311 605q-30 11 -62 11q-51 0 -83 -31t-32 -75q0 -47 29.5 -74.5t89.5 -50.5zM178 19q30 -10 55 -10h6q59 0 96.5 34.5t37.5 88.5q0 51 -33 80.5t-97 54.5zM150 -8q-56 8 -111 25l-8 165h20l58 -125q23 -20 50 -31l65 248l-6 2q-85 30 -129 70t-44 112t57.5 126t151.5 54 q31 0 64 -5l28 106h21q-29 -109 -29 -110q9 -1 51 -12l43 14l1 -178h-19l-63 132l-22 12q-57 -218 -57 -219h1q95 -33 144.5 -76t49.5 -121q0 -77 -65.5 -136t-167.5 -59q-36 0 -64 4l-40 -153h-21z"/>
<glyph glyph-name="percent" horiz-adv-x="594" unicode="%" d="M446 4q51 0 82.5 33.5t31.5 84.5q0 49 -31.5 83.5t-82.5 34.5t-82 -34.5t-31 -83.5q0 -51 31 -84.5t82 -33.5zM147 386q52 0 83.5 34t31.5 83q0 50 -31.5 84.5t-83.5 34.5q-51 0 -82 -34.5t-31 -84.5t31 -83.5t82 -33.5zM446 -17q-62 0 -99 40t-37 98q0 59 37 99.5 t99 40.5t99.5 -41t37.5 -99t-37.5 -98t-99.5 -40zM58 -14l452 654h24l-451 -654h-25zM147 365q-61 0 -98.5 40t-37.5 98t37.5 99t98.5 41q62 0 100 -41t38 -99t-38 -98t-100 -40z"/>
<glyph glyph-name="ampersand" horiz-adv-x="718" unicode="&amp;" d="M259 62q83 0 154 77q-66 154 -211 212q-89 -54 -89 -150q0 -59 42.5 -99t103.5 -40zM293 407q53 30 53 109q0 40 -22 72t-60 32q-37 0 -59.5 -27t-22.5 -66q0 -40 26.5 -68t84.5 -52zM204 -14q-87 0 -139 51t-52 125q0 70 47 121.5t125 76.5q-43 21 -68.5 55.5 t-25.5 75.5q0 59 55.5 103t124.5 44q73 0 119 -34t46 -81q0 -43 -33.5 -75t-91.5 -49q47 -23 98 -74.5t80 -103.5q73 98 74 131q5 36 -69 43l-14 3l-3 14h248l-3 -14l-16 -3q-36 -4 -63 -23t-64 -67l-80 -102q40 -85 70.5 -118t71.5 -33q43 0 82 39l10 -12q-86 -93 -153 -93 q-55 0 -91.5 33t-66.5 101q-112 -134 -218 -134z"/>
<glyph glyph-name="quotesingle" horiz-adv-x="179" unicode="&apos;" d="M2 403l107 242h2l71 -28l-165 -214h-15z"/>
<glyph glyph-name="parenleft" horiz-adv-x="340" unicode="(" d="M326 -269q-43 23 -86 63.5t-84 97.5t-66.5 136.5t-25.5 165.5t25.5 165.5t66.5 137t84 97.5t86 63l11 -17q-41 -23 -82.5 -63t-80 -95.5t-62.5 -131t-24 -156.5q0 -82 24 -158t62.5 -131t79.5 -94.5t83 -62.5z"/>
<glyph glyph-name="parenright" horiz-adv-x="340" unicode=")" d="M14 -269l-11 16q42 23 83 63t79.5 95t62.5 131t24 158q0 81 -24 156.5t-62.5 131t-80 95.5t-82.5 63l11 17q43 -23 86 -63t84 -97.5t66.5 -137t25.5 -165.5t-25.5 -165.5t-66.5 -136.5t-84 -97.5t-86 -63.5z"/>
<glyph glyph-name="asterisk" horiz-adv-x="321" unicode="*" d="M205 311l-52 37l3 115q-1 2 -7 3l-60 -96l-65 -1q-2 0 -5 3t-2 4l18 64l109 30q1 2 1 6t-1 5l-109 32l-20 63q3 7 7 7h67l59 -98q1 -1 4.5 0t3.5 3l-2 117l53 35h1q8 0 8 -3l22 -60l-75 -91q-1 -1 1 -5t4 -3l109 41l51 -40q1 -2 1 -4l-1 -5l-51 -40l-109 43q-2 0 -4 -3.5 t-1 -5.5l73 -91l-22 -59q0 -3 -8 -3h-1z"/>
<glyph glyph-name="plus" d="M213 27v198h-198l3 22h195v198h22v-198h195l3 -22h-198v-198h-22z" unicode="+"/>
<glyph glyph-name="comma" horiz-adv-x="201" unicode="," d="M38 -140l-11 10q39 22 62.5 53t23.5 64q0 32 -20.5 50t-44.5 18q-11 0 -19 -5q-3 8 -3 16q0 24 18 42t49 18q38 0 63.5 -25.5t25.5 -65.5q0 -48 -42 -97.5t-102 -77.5z"/>
<glyph glyph-name="hyphen" horiz-adv-x="295" unicode="-" d="M23 213l3 45h247l-2 -45h-248z"/>
<glyph glyph-name="period" horiz-adv-x="215" unicode="." d="M108 -13q-28 0 -48 20t-20 47q0 26 20 45t48 19t47 -19t19 -45q0 -27 -19 -47t-47 -20z"/>
<glyph glyph-name="slash" horiz-adv-x="258" unicode="/" d="M13 -233l212 877h22l-212 -877h-22z"/>
<glyph glyph-name="zero" horiz-adv-x="560" unicode="0" d="M281 11q63 0 102 63.5t39 156.5q0 105 -38 168.5t-105 63.5q-63 0 -102.5 -62.5t-39.5 -153.5q0 -111 37.5 -173.5t106.5 -62.5zM277 -12q-107 0 -176 69t-69 179q0 109 72 180.5t179 71.5q106 0 175.5 -70t69.5 -179q0 -110 -71.5 -180.5t-179.5 -70.5z"/>
<glyph glyph-name="one" horiz-adv-x="355" unicode="1" d="M54 0l3 16l39 4q38 3 38 18v388l-102 12l3 14l199 32v-448q0 -14 45 -16l38 -4l3 -16h-266z"/>
<glyph glyph-name="two" horiz-adv-x="463" unicode="2" d="M24 0l-4 32q147 114 199 169t52 113q0 45 -29.5 74.5t-73.5 29.5q-77 0 -124 -82l-11 6q31 69 80.5 107t112.5 38q60 0 101.5 -37t41.5 -92q0 -15 -3 -29.5t-11.5 -29.5t-15.5 -26.5t-24.5 -28.5t-28.5 -27t-37 -30.5t-39.5 -31t-47.5 -36t-51 -38.5v-2l192 -1 q49 0 72.5 21t49.5 80l9 19l16 -1l-37 -197h-389z"/>
<glyph glyph-name="three" horiz-adv-x="419" unicode="3" d="M139 -201q-58 0 -94.5 22.5t-36.5 54.5q0 22 15 37t37 15q32 0 52.5 -26t20.5 -62q0 -2 -0.5 -5.5t-0.5 -5.5l14 -3q15 -2 23 -2q52 0 91 43t39 108q0 70 -39 112.5t-104 42.5q-37 0 -83 -17l-5 14q11 7 43.5 26.5t42 26t32.5 22.5t30.5 25.5t19 24t15 29.5t3.5 32 q0 45 -29 75t-74 30q-82 0 -125 -82l-11 6q28 68 77.5 106.5t112.5 38.5q64 0 105 -36.5t41 -89.5q0 -54 -36 -89.5t-107 -75.5v-2h2q83 0 133 -48t50 -121q0 -90 -75 -158t-179 -68z"/>
<glyph glyph-name="four" horiz-adv-x="493" unicode="4" d="M72 81h201v284h-2zM273 -184v194h-262l-1 15l317 454h40v-398h118l-18 -71h-100v-194h-94z"/>
<glyph glyph-name="five" horiz-adv-x="410" unicode="5" d="M116 -200q-129 0 -129 76q0 22 15 37t38 15q31 0 51 -29.5t21 -65.5q18 -8 41 -8q52 0 89.5 42.5t37.5 106.5q0 77 -63.5 127.5t-179.5 67.5l77 303h269l-17 -95h-253l-31 -121q143 -24 213.5 -83.5t70.5 -145.5q0 -91 -75 -159t-175 -68z"/>
<glyph glyph-name="six" horiz-adv-x="514" unicode="6" d="M270 7q51 0 80.5 45.5t29.5 123.5q0 76 -38 124t-95 48q-60 0 -98 -40q-11 -18 -11 -76q0 -99 33.5 -162t98.5 -63zM259 -13q-103 0 -165.5 71t-62.5 176q0 170 128.5 289t319.5 134l3 -16q-134 -20 -218 -105.5t-115 -200.5l1 -2q73 61 153 61q78 0 128.5 -52t50.5 -137 q0 -95 -65 -156.5t-158 -61.5z"/>
<glyph glyph-name="seven" horiz-adv-x="449" unicode="7" d="M81 -184l299 564v3h-153q-102 0 -133 -11t-43 -54l-10 -25h-18l22 179h388l3 -17l-278 -639h-77z"/>
<glyph glyph-name="eight" horiz-adv-x="494" unicode="8" d="M257 5q55 0 87.5 32.5t32.5 80.5q0 32 -14 58t-42 47.5t-55 36t-68 32.5q-71 -46 -71 -138q0 -58 36.5 -103.5t93.5 -45.5zM292 354q58 45 58 126q0 55 -31.5 99.5t-81.5 44.5q-46 0 -73 -33.5t-27 -78.5q0 -53 39.5 -88t115.5 -70zM246 -14q-91 0 -152.5 46t-61.5 118 q0 54 41 94t108 57v2q-63 31 -97.5 67.5t-33.5 90.5q0 69 53.5 124.5t143.5 55.5q85 0 141 -44.5t56 -114.5q0 -45 -36.5 -79.5t-96.5 -54.5v-2q73 -34 112.5 -74t39.5 -102q0 -75 -61.5 -129.5t-155.5 -54.5z"/>
<glyph glyph-name="nine" horiz-adv-x="514" unicode="9" d="M266 129q58 0 98 40q10 16 10 77q0 95 -33 159t-99 64q-50 0 -80 -44.5t-30 -122.5q0 -75 38 -124t96 -49zM33 -180l-3 15q135 21 218.5 106.5t114.5 200.5l-2 2q-68 -60 -152 -60q-78 0 -128.5 51.5t-50.5 136.5q0 96 66 157.5t158 61.5q102 0 165 -71.5t63 -176.5 q0 -169 -129 -288t-320 -135z"/>
<glyph glyph-name="colon" horiz-adv-x="213" unicode=":" d="M108 -13q-28 0 -48 19.5t-20 46.5q0 26 20 45t48 19t47 -19t19 -45q0 -27 -19 -46.5t-47 -19.5zM108 289q-28 0 -48 19.5t-20 46.5q0 26 20 45t48 19t47 -19t19 -45t-19 -46t-47 -20z"/>
<glyph glyph-name="semicolon" horiz-adv-x="201" unicode=";" d="M38 -138l-11 9q39 21 62.5 52t23.5 64q0 32 -21 49.5t-45 17.5q-11 0 -18 -4q-3 8 -3 15q0 23 18.5 41.5t48.5 18.5q38 0 63.5 -25.5t25.5 -64.5q0 -49 -42 -97.5t-102 -75.5zM102 289q-28 0 -47 19.5t-19 46.5q0 26 19.5 45t46.5 19q28 0 47.5 -19t19.5 -45 q0 -27 -19.5 -46.5t-47.5 -19.5z"/>
<glyph glyph-name="less" horiz-adv-x="438" unicode="&lt;" d="M410 35l-397 193v14l397 193l8 -20l-368 -177v-4l368 -179z"/>
<glyph glyph-name="equal" d="M26 138l3 22h390l3 -22h-396zM29 311l-3 22h396l-3 -22h-390z" unicode="="/>
<glyph glyph-name="greater" horiz-adv-x="438" unicode="&gt;" d="M425 228l-397 -193l-8 20l368 179v4l-368 177l8 20l397 -193v-14z"/>
<glyph glyph-name="question" horiz-adv-x="330" unicode="?" d="M152 -14q-27 0 -45.5 19t-18.5 45q0 24 18.5 42.5t45.5 18.5t45.5 -18t18.5 -43q0 -26 -18.5 -45t-45.5 -19zM148 181q-30 22 -54.5 56t-24.5 59q0 41 25 61.5t86 43.5q55 22 75.5 35.5t20.5 33.5q0 32 -39.5 55.5t-111.5 23.5q-33 0 -76 -9q-18 18 -18 50q0 50 75 50 q84 0 139 -59.5t55 -134.5q0 -54 -20 -78.5t-73 -47.5q-6 -2 -16.5 -6.5t-15.5 -6.5t-13.5 -6t-12 -6.5t-9.5 -6t-8.5 -7t-5.5 -8t-4 -9t-1 -10.5q0 -31 44 -72z"/>
<glyph glyph-name="at" horiz-adv-x="792" unicode="@" d="M315 113q23 0 61.5 46.5t78.5 119.5q25 53 25 67q-3 25 -27.5 48.5t-53.5 23.5q-19 0 -38 -16q-30 -29 -59.5 -102.5t-29.5 -124.5q0 -29 12.5 -45.5t30.5 -16.5zM396 -113q-159 0 -262 99t-103 254v6q2 164 117.5 281t275.5 117h2q147 -2 243 -90.5t96 -226.5v-6 q-1 -111 -71.5 -190.5t-158.5 -79.5q-54 0 -80.5 23t-26.5 57q0 16 7.5 47.5t15.5 50.5h-6q-56 -89 -94.5 -131t-77.5 -42t-66 27t-28 66q0 58 41 130.5t95 123.5q66 63 122 63q27 0 43 -26.5t17 -64.5h4l37 105l81 -3l-62 -162l-40 -134q-7 -21 -7 -39q0 -48 65 -48 q64 0 116.5 66t53.5 161v6q0 129 -90.5 213t-229.5 86h-2q-151 0 -260 -112t-111 -268v-6q0 -147 97.5 -241t248.5 -94q83 0 154.5 39.5t108.5 100.5l10 -15q-41 -63 -114.5 -103t-160.5 -40z"/>
<glyph glyph-name="A" horiz-adv-x="633" unicode="A" d="M187 276h164l-76 243h-3zM358 255h-178l-32 -91q-27 -79 -27 -103q0 -20 13.5 -28.5t48.5 -12.5l26 -4l3 -16h-222l3 16l18 3q31 5 47.5 19t34.5 52.5t54 137.5l113 315l-9 33q21 7 46.5 27.5t33.5 38.5h15l175 -525q19 -58 34 -76.5t44 -20.5l33 -4l3 -16h-295l3 16 l33 4q40 3 40 34q0 17 -15 64z"/>
<glyph glyph-name="B" horiz-adv-x="596" unicode="B" d="M222 346h42q70 1 108.5 36t38.5 92q0 130 -151 130h-38v-258zM280 18l16 2q65 3 105.5 44.5t40.5 102.5q0 72 -48 116t-124 44q-34 0 -48 -3v-289zM26 0l3 16l37 4q44 4 44 17v554q0 6 -9 9t-42 6l-29 3l-3 16h258q247 0 247 -137q0 -55 -46.5 -93.5t-135.5 -51.5v-3 q101 -7 157 -53t56 -114q0 -80 -70 -126.5t-204 -46.5h-263z"/>
<glyph glyph-name="C" horiz-adv-x="688" unicode="C" d="M388 -14q-158 0 -257 88t-99 234t100 238.5t263 92.5q91 0 161 -34l69 22l3 -203h-22l-78 161q-49 33 -133 33q-111 0 -175 -85t-64 -216q0 -139 67.5 -224.5t172.5 -85.5q66 0 110 28t82 85l34 80h23l-31 -178l-40 -1q-31 -13 -85 -24t-101 -11z"/>
<glyph glyph-name="D" horiz-adv-x="684" unicode="D" d="M290 19q115 2 178.5 83t63.5 200q0 137 -65.5 220.5t-196.5 83.5h-48v-568zM26 0l3 16l37 4q44 4 44 17v554q0 6 -9 9t-42 6l-29 3l-3 16l265 2h8q170 0 262 -83t92 -220q0 -138 -101.5 -231t-278.5 -93h-248z"/>
<glyph glyph-name="E" horiz-adv-x="606" unicode="E" d="M26 0l3 16l35 4q46 4 46 17v554q0 6 -9 9t-42 6l-29 3l-3 16h501l9 -198h-22l-10 35q-17 55 -36.5 83.5t-60.5 44.5t-111 16l-75 -1v-275h39q68 3 96 17t41 54l11 31l19 -1l-23 -226l-19 1l-3 30q-4 43 -28.5 56.5t-100.5 16.5l-32 2v-288l89 -3q71 0 117 20.5t67.5 49 t40.5 78.5l11 33l23 -1l-28 -200h-516z"/>
<glyph glyph-name="F" horiz-adv-x="573" unicode="F" d="M26 0l3 16l39 4q42 4 42 17v554q0 6 -8.5 9t-41.5 6l-30 3l-3 16h501l10 -194h-22l-10 35q-19 55 -38 81.5t-59.5 42.5t-111.5 16l-75 -1v-282l41 1q68 2 96 15.5t41 53.5l12 32l18 -1l-23 -225h-18l-4 30q-3 44 -28 58t-100 16l-35 1v-270q0 -12 51 -15l49 -3l3 -16 h-299z"/>
<glyph glyph-name="G" horiz-adv-x="714" unicode="G" d="M382 -15q-156 0 -253 89t-97 234q0 147 100.5 239t264.5 92q45 0 91 -10t69 -23l66 21l3 -202h-22l-75 159q-47 34 -135 34q-110 0 -174 -85.5t-64 -215.5q0 -142 67.5 -226.5t168.5 -84.5q71 0 116 31v204q0 10 -56 14l-39 4l-3 16h290l-3 -16l-39 -5q-41 -3 -41 -15 v-183l54 2l1 -11q-61 -25 -143.5 -43.5t-146.5 -18.5z"/>
<glyph glyph-name="H" horiz-adv-x="743" unicode="H" d="M26 0l3 16l37 4q44 4 44 17v554q0 6 -9 9t-42 6l-29 3l-3 16h281l-3 -16l-39 -4q-44 -4 -44 -17v-259h298v262q0 6 -9 9t-42 6l-30 3l-3 16h281l-3 -16l-38 -4q-43 -4 -43 -17v-554q0 -6 9 -9t42 -6l29 -3l3 -16h-281l3 16l39 4q43 4 43 17v271h-298v-274q0 -6 9 -9 t42 -6l31 -3l3 -16h-281z"/>
<glyph glyph-name="I" horiz-adv-x="354" unicode="I" d="M32 0l3 16l43 4q43 4 43 17v554q0 6 -9 9t-42 6l-35 3l-3 16h290l-3 -16l-42 -4q-43 -4 -43 -17v-554q0 -6 9 -9t42 -6l34 -3l3 -16h-290z"/>
<glyph glyph-name="J" horiz-adv-x="354" unicode="J" d="M33 -135q-41 0 -68 19.5t-27 49.5q0 24 17.5 41t44.5 17q28 0 45 -19t17 -46q0 -20 -11 -40q80 3 80 196v508q0 12 -51 15l-37 3l-3 16h291l-3 -16l-41 -4q-43 -4 -43 -17v-499q0 -75 -67.5 -149.5t-143.5 -74.5z"/>
<glyph glyph-name="K" horiz-adv-x="677" unicode="K" d="M26 0l3 16l39 4q42 4 42 17v554q0 6 -8.5 9t-41.5 6l-30 3l-3 16h286l-3 -16l-44 -4q-44 -4 -44 -17v-306l160 162q102 105 102 134q0 22 -53 28l-36 3l-1 16h259l-3 -16l-22 -3q-43 -4 -70.5 -24t-108.5 -102l-31 -31l-46 -45l194 -309q30 -48 44.5 -61t43.5 -16l22 -2 l3 -16h-277l3 16l24 3q29 3 29 20q0 18 -33 74l-130 214l-73 -73v-220q0 -6 9 -9t42 -6l36 -3l3 -16h-286z"/>
<glyph glyph-name="L" horiz-adv-x="569" unicode="L" d="M26 0l3 16l39 4q42 4 42 17v554q0 6 -8.5 9t-41.5 6l-30 3l-3 16h295l-3 -16l-53 -4q-44 -4 -44 -17v-565l67 -4q51 0 85.5 9t58.5 31.5t38.5 47.5t34.5 71l12 37h23l-29 -215h-486z"/>
<glyph glyph-name="M" horiz-adv-x="843" unicode="M" d="M17 0l3 16l30 3q39 2 51.5 19t14.5 69l13 460q-14 32 -56 38l-36 4l-3 16h218l170 -469h2l175 469h219l-3 -16l-54 -4q-40 -4 -40 -20l10 -498q1 -40 10 -52t39 -15l37 -4l3 -16h-289l3 16l50 5q20 2 27.5 14t7.5 41v13l-12 486h-3l-214 -569h-26l-201 545q-1 3 -13 19 l-10 -466v-16q0 -39 14.5 -53t56.5 -16l29 -3l3 -16h-226z"/>
<glyph glyph-name="N" horiz-adv-x="704" unicode="N" d="M566 -6l-428 538h-2l1 -427q0 -49 14.5 -65t58.5 -20l28 -4l3 -16h-221l3 16l28 4q35 3 49 21t14 68l3 427q-28 59 -83 69l-22 5l-3 16h202l362 -461l2 1l-1 353q0 49 -14.5 65.5t-57.5 20.5l-29 4l-3 16h220l-3 -16l-28 -4q-34 -3 -48 -21.5t-14 -68.5l-2 -521h-29z"/>
<glyph glyph-name="O" horiz-adv-x="740" unicode="O" d="M373 6q98 0 154.5 79.5t56.5 225.5q0 140 -60.5 223.5t-156.5 83.5q-97 0 -154 -80t-57 -225q0 -141 60 -224t157 -83zM366 -14q-146 0 -240 90t-94 234q0 132 101 230.5t241 98.5q146 0 240 -91t94 -235q0 -132 -100.5 -229.5t-241.5 -97.5z"/>
<glyph glyph-name="P" horiz-adv-x="576" unicode="P" d="M290 306q63 0 101.5 40t38.5 108q0 151 -145 151h-3h-60v-290q36 -9 68 -9zM18 0l3 16l45 4q44 4 44 17v554q0 6 -9 9t-42 6l-37 3l-3 16h282q124 0 187 -41t63 -115q0 -83 -72 -132.5t-186 -49.5q-29 0 -71 4v-257q0 -12 51 -15l48 -3l3 -16h-306z"/>
<glyph glyph-name="Q" horiz-adv-x="740" unicode="Q" d="M373 6q97 0 154 80t57 225q0 139 -60.5 223t-156.5 84q-97 0 -154 -80.5t-57 -225.5q0 -140 60 -223t157 -83zM617 -180q-99 0 -165 36t-108 131q-138 7 -225 97t-87 226q0 131 101 229.5t241 98.5q147 0 240.5 -91.5t93.5 -233.5q0 -104 -66 -189.5t-169 -119.5 q39 -85 90 -119.5t127 -34.5q27 0 67 5l2 -15q-60 -20 -142 -20z"/>
<glyph glyph-name="R" horiz-adv-x="651" unicode="R" d="M288 323q67 2 104.5 37.5t37.5 101.5q0 68 -38.5 105.5t-112.5 37.5h-11l-46 -1v-271q34 -10 66 -10zM18 0l3 16l45 4q44 4 44 17v554q0 6 -9 9t-42 6l-37 3l-3 16h282q249 0 249 -160q0 -57 -41 -99.5t-110 -58.5l133 -206q31 -47 50.5 -63t51.5 -19l17 -3l4 -16h-195 l-18 33l-156 268q-49 7 -64 13v-280q0 -10 51 -15l39 -3l3 -16h-297z"/>
<glyph glyph-name="S" horiz-adv-x="513" unicode="S" d="M243 -14q-91 0 -194 33l-9 165h21l36 -91q52 -86 152 -86q62 1 98 36.5t36 91.5t-37 86.5t-114 57.5q-86 31 -131 71t-45 111q0 72 56 124.5t151 53.5q58 0 136 -21l42 14l2 -179h-19l-62 134q-49 30 -103 30q-51 0 -83 -29.5t-32 -73.5q0 -51 36 -78.5t108 -54.5 q93 -32 140.5 -75.5t47.5 -120.5q0 -78 -65.5 -138.5t-167.5 -60.5z"/>
<glyph glyph-name="T" horiz-adv-x="655" unicode="T" d="M175 0l3 16l49 4q44 4 44 17v569h-27q-123 -5 -180 -132l-13 -38h-23l28 189h550l16 -189h-21l-11 36q-26 63 -67.5 98t-109.5 36h-29v-572q0 -6 9 -9t42 -6l42 -3l3 -16h-305z"/>
<glyph glyph-name="U" horiz-adv-x="698" unicode="U" d="M357 -16q-130 0 -191 53.5t-61 170.5v384q0 4 -3.5 6t-14.5 4t-33 4l-37 4l-3 16h294l-3 -16l-44 -4q-43 -4 -43 -17v-354q0 -204 179 -204q86 0 133 53.5t47 157.5l-1 277q0 49 -15 66t-58 21l-29 4l-3 16h221l-3 -16l-28 -4q-35 -4 -48.5 -22.5t-13.5 -68.5l-2 -279 q-2 -252 -240 -252z"/>
<glyph glyph-name="V" horiz-adv-x="640" unicode="V" d="M303 -9l-197 519q-25 65 -36 79t-42 16l-34 5l-2 16h291l-2 -16l-39 -3q-24 -2 -33.5 -6.5t-9.5 -16.5q0 -13 20 -66l146 -394h5l115 318q32 91 32 119q0 24 -15.5 33.5t-52.5 13.5l-22 2l-3 16h226l-3 -16l-20 -4q-41 -5 -61 -33.5t-62 -143.5l-162 -438h-39z"/>
<glyph glyph-name="W" horiz-adv-x="977" unicode="W" d="M296 -11l-192 521q-22 60 -35 76t-44 19l-33 4l-3 16h293l-3 -16l-36 -3q-23 -2 -32 -7t-9 -18q0 -16 14 -56l140 -396h3l127 332l-17 50q-23 58 -36 74.5t-43 19.5l-34 4l-3 16h292l-3 -16l-35 -3q-23 -2 -32 -7t-9 -18q0 -16 15 -58l136 -391h3l106 301q33 96 33 124 q0 24 -15.5 33.5t-53.5 14.5l-25 4l-3 16h228l-3 -16l-18 -3q-22 -4 -34 -9.5t-26 -26t-26 -49.5t-34 -91l-158 -441h-32l-159 442h-3l-169 -442h-32z"/>
<glyph glyph-name="X" horiz-adv-x="648" unicode="X" d="M-4 0l3 16l27 3q38 4 64.5 28.5t80.5 99.5l105 148l-142 213q-47 72 -60.5 83.5t-30.5 13.5l-34 4l-5 16h291l-3 -16l-35 -2q-32 -2 -32 -21q0 -21 38 -79l86 -132h2l71 106q47 68 47 93t-48 31l-29 4l-3 16h234l-3 -16l-25 -3q-40 -4 -67.5 -29t-81.5 -101l-84 -117 l182 -274q27 -39 39 -51t31 -14l31 -4l4 -16h-286l2 16l35 2q35 3 35 22q0 16 -21 47l-124 191h-2l-90 -131q-46 -68 -46 -94q0 -27 49 -33l27 -4l3 -16h-235z"/>
<glyph glyph-name="Y" horiz-adv-x="626" unicode="Y" d="M162 0l3 16l49 4q44 4 44 17v238l-150 260q-22 38 -38.5 52.5t-43.5 17.5l-26 4l-3 16h287l-3 -16l-25 -2q-43 -4 -43 -26q0 -17 23 -57l119 -212h2l87 160q40 75 40 99q0 16 -12 23.5t-40 11.5l-24 3l-3 16h218l-3 -16l-24 -3q-34 -6 -58 -30.5t-67 -101.5l-100 -182 v-258q0 -6 9 -9t42 -6l41 -3l3 -16h-304z"/>
<glyph glyph-name="Z" horiz-adv-x="590" unicode="Z" d="M32 0v15l385 586v3l-102 1q-110 0 -158.5 -34.5t-73.5 -106.5l-8 -31h-22l11 192h486v-16l-387 -585v-3l113 -1h9q112 0 160 35t84 123l11 33h24l-29 -211h-503z"/>
<glyph glyph-name="bracketleft" horiz-adv-x="325" unicode="[" d="M65 -237v872h248v-21h-224v-830h224v-21h-248z"/>
<glyph glyph-name="backslash" horiz-adv-x="246" unicode="\" d="M210 -233l-212 877h22l212 -877h-22z"/>
<glyph glyph-name="bracketright" horiz-adv-x="325" unicode="]" d="M12 -237v21h224v830h-224v21h248v-872h-248z"/>
<glyph glyph-name="asciicircum" horiz-adv-x="379" unicode="^" d="M46 490l135 195h17l135 -195h-14l-128 104h-2l-130 -104h-13z"/>
<glyph glyph-name="underscore" horiz-adv-x="453" unicode="_" d="M11 -36l3 37h426l3 -37h-432z"/>
<glyph glyph-name="grave" horiz-adv-x="390" unicode="`" d="M233 498l-191 186h108l96 -186h-13z"/>
<glyph glyph-name="a" horiz-adv-x="443" unicode="a" d="M190 50q40 0 76 36l6 152q-84 -20 -115.5 -48t-31.5 -68q0 -31 19.5 -51.5t45.5 -20.5zM344 -12q-67 0 -75 79l-2 1q-71 -79 -131 -79q-44 0 -76 29.5t-32 72.5q0 55 54.5 93.5t189.5 70.5l1 26v7q0 126 -99 126q-25 0 -47 -9.5t-22 -16.5q0 -1 13.5 -20t13.5 -36 q0 -19 -15.5 -33.5t-38.5 -14.5t-38.5 13t-15.5 32q0 42 71 80t138 38q75 0 108 -32.5t33 -113.5q0 -3 -0.5 -11t-0.5 -12l-9 -183v-7q0 -43 32 -43q16 0 44 26l9 -9q-55 -74 -105 -74z"/>
<glyph glyph-name="b" horiz-adv-x="510" unicode="b" d="M269 7q49 0 79 54.5t30 136.5q0 78 -34.5 128.5t-91.5 50.5t-100 -47v-234q20 -39 52 -64t65 -25zM54 -21v590q0 22 -6.5 30.5t-26.5 14.5l-33 12l1 11l163 44v-323l4 -1q73 85 152 85q77 0 128 -60.5t51 -151.5q0 -110 -71 -177t-165 -67q-59 0 -127 28h-1l-60 -35h-9z "/>
<glyph glyph-name="c" horiz-adv-x="429" unicode="c" d="M227 -15q-88 0 -146 62.5t-58 156.5q0 103 66.5 173t167.5 70q66 0 109.5 -27t43.5 -69q0 -25 -16.5 -40.5t-39.5 -15.5q-24 0 -40 17.5t-16 41.5v7q0 13 7.5 26.5t7.5 14.5q-2 9 -19.5 17.5t-36.5 8.5q-55 0 -91.5 -50.5t-36.5 -133.5q0 -86 42 -138t109 -52 q80 0 126 73l11 -6q-66 -136 -190 -136z"/>
<glyph glyph-name="d" horiz-adv-x="521" unicode="d" d="M260 50q52 0 97 45v239q-19 38 -50.5 62.5t-64.5 24.5q-51 0 -80.5 -53.5t-29.5 -135.5q0 -79 35 -130.5t93 -51.5zM357 -16v86l-3 1q-68 -84 -151 -84q-76 0 -128 61t-52 153q0 110 71 175.5t166 65.5q57 0 95 -17q2 1 2 0v153q0 22 -7 31t-26 13l-42 11l2 11l171 36 v-607q0 -20 4 -27t15 -10l48 -11l-1 -12z"/>
<glyph glyph-name="e" horiz-adv-x="445" unicode="e" d="M132 297l183 1q1 56 -18 93t-58 37q-38 0 -68.5 -37.5t-38.5 -93.5zM228 -15q-88 0 -146.5 63t-58.5 157q0 103 65.5 173t163.5 70q76 0 120.5 -40.5t44.5 -102.5q0 -13 -3 -28q-273 3 -283 3q-3 -14 -3 -39q1 -84 43.5 -135.5t108.5 -51.5q84 0 130 73l11 -6 q-66 -136 -193 -136z"/>
<glyph glyph-name="f" horiz-adv-x="315" unicode="f" d="M22 0l3 16l21 1q23 2 31 4.5t8 11.5v350l-79 2l17 47l60 -1l3 37q6 94 68.5 149.5t139.5 55.5q41 0 63.5 -16.5t22.5 -41.5q0 -22 -15.5 -36.5t-38.5 -14.5t-41.5 19t-25.5 53l-2 6l-18 3q-31 -14 -43 -51t-12 -109v-53h126l-14 -48h-112v-352q0 -7 9 -10.5t38 -4.5 l38 -1l3 -16h-250z"/>
<glyph glyph-name="g" horiz-adv-x="470" unicode="g" d="M218 166q39 0 60.5 32.5t21.5 92.5q0 138 -82 138q-36 0 -56.5 -33.5t-20.5 -93.5q0 -63 21 -99.5t56 -36.5zM235 -221q63 0 103.5 33t40.5 81q0 77 -118 83h-17q-29 0 -97 -4q-23 -10 -40.5 -34t-17.5 -53q0 -47 41 -76.5t105 -29.5zM182 -247q-82 0 -127 28t-45 78 q0 71 115 116v2q-44 5 -72.5 28t-28.5 54q0 35 32 63t75 39v2q-39 15 -64.5 48.5t-25.5 80.5q0 65 51 109.5t127 44.5q65 0 119 -34l131 16l-7 -56l-100 15l-1 -4q35 -33 35 -83q0 -64 -51.5 -107.5t-129.5 -43.5q-32 0 -62 6q-22 -5 -37 -18t-15 -30q0 -41 77 -41 q16 0 59.5 1.5t61.5 1.5q68 0 107.5 -33t39.5 -90q0 -83 -73.5 -138t-190.5 -55z"/>
<glyph glyph-name="h" horiz-adv-x="522" unicode="h" d="M10 0l3 16l18 1q22 2 30.5 5t8.5 12v534q0 22 -6 31t-26 14l-33 12l1 11l164 44v-315l2 -1q31 25 50.5 39.5t53 29t64.5 14.5q47 0 80 -31q33 -36 33 -107v-276q0 -4 2 -6.5t13 -5t33 -4.5l15 -1l3 -16h-226l3 16l20 1q38 2 38 17v248q0 52 -21.5 74t-65.5 22 q-53 0 -97 -36v-310q0 -7 8 -10t37 -5l19 -1l3 -16h-227z"/>
<glyph glyph-name="i" horiz-adv-x="259" unicode="i" d="M19 0l3 16l19 1q23 2 31.5 5t8.5 12v272q0 45 -7.5 59t-34.5 20l-22 5l1 12l162 44v-414q0 -7 8.5 -10t38.5 -5l16 -1l3 -16h-227zM122 522q-29 0 -46 20t-17 44q0 25 17 44.5t46 19.5q30 0 47 -19.5t17 -44.5q0 -24 -17 -44t-47 -20z"/>
<glyph glyph-name="j" horiz-adv-x="247" unicode="j" d="M-10 -254q-36 0 -57 16.5t-21 43.5q0 22 16 37t38 15q29 0 47 -23t20 -54q45 10 45 143v382q0 45 -7.5 59t-34.5 20l-23 5l1 12l163 44v-470q-2 -84 -63 -157t-124 -73zM120 522q-30 0 -47.5 20t-17.5 44q0 25 17.5 44.5t47.5 19.5q29 0 46 -19.5t17 -44.5q0 -24 -17 -44 t-46 -20z"/>
<glyph glyph-name="k" horiz-adv-x="498" unicode="k" d="M10 0l3 16l18 1q23 2 31 5.5t8 11.5v534q0 22 -6 31t-26 14l-33 12l1 11l164 44v-472l77 74q83 76 83 104q0 26 -53 30l-13 1l-2 16h212l-3 -16l-19 -2q-31 -4 -58.5 -24.5t-92.5 -82.5l-23 -22l126 -205q24 -38 36.5 -49.5t36.5 -13.5l16 -2l3 -16h-165l-20 36l-104 182 l-37 -34v-152q0 -7 8 -9.5t38 -5.5l17 -1l2 -16h-225z"/>
<glyph glyph-name="l" horiz-adv-x="254" unicode="l" d="M17 0l3 16l19 1q22 2 30 5t8 12v516q0 35 -6.5 46.5t-26.5 16.5l-33 12l2 11l163 44v-648q0 -7 8.5 -10t36.5 -5l17 -1l3 -16h-224z"/>
<glyph glyph-name="m" horiz-adv-x="790" unicode="m" d="M19 0l3 16l19 1q23 2 31.5 5t8.5 12v271q0 45 -8 59.5t-34 20.5l-23 5l1 12l164 44l-2 -81l2 -1q27 25 45 39.5t49.5 29t61.5 14.5q48 0 80 -32q21 -19 27 -54l3 -1q85 87 160 87q49 0 80 -31q34 -34 34 -117v-266q0 -4 2 -6.5t12.5 -5t32.5 -4.5l15 -1l3 -16h-225l3 16 l20 1q37 2 37 17v247q0 53 -20 75t-63 22q-27 0 -52.5 -11.5t-34.5 -28.5v-7t-0.5 -11.5t-0.5 -7.5v-280q0 -4 2 -6t12.5 -4.5t31.5 -4.5l16 -1l3 -16h-223l3 16l19 1q37 2 37 17v247q0 53 -20 75t-63 22q-41 0 -89 -34v-312q0 -7 8.5 -10t36.5 -5l19 -1l2 -16h-226z"/>
<glyph glyph-name="n" horiz-adv-x="533" unicode="n" d="M19 0l3 16l19 1q23 2 31.5 5t8.5 12v271q0 45 -8 59.5t-34 20.5l-23 5l1 12l164 44l-2 -82h2q30 25 50.5 39.5t54 29t63.5 14.5q50 0 80 -31q33 -33 33 -108v-275q0 -12 49 -16l15 -1l3 -16h-225l3 16l19 1q23 1 30 5t7 12v247q0 53 -21 75t-65 22q-53 0 -98 -36v-310 q0 -7 8.5 -10t36.5 -5l19 -1l2 -16h-226z"/>
<glyph glyph-name="o" horiz-adv-x="515" unicode="o" d="M259 5q54 0 87 57t33 142q0 140 -52 194q-30 30 -71 30q-56 0 -88 -56.5t-32 -140.5q0 -143 51 -195q29 -31 72 -31zM254 -14q-103 0 -167 66t-64 163q0 98 68 165t170 67t166.5 -64.5t64.5 -160.5q0 -100 -67.5 -168t-170.5 -68z"/>
<glyph glyph-name="p" horiz-adv-x="522" unicode="p" d="M282 7q49 0 79 54.5t30 136.5q0 78 -35 128.5t-92 50.5q-56 0 -98 -47v-235q20 -39 51.5 -63.5t64.5 -24.5zM3 -251l3 16l21 1q40 3 40 16v524q0 45 -8 59t-34 20l-22 5l1 12l163 44l-2 -88l4 -1q71 85 152 85q77 0 127.5 -60.5t50.5 -151.5q0 -110 -70 -177t-164 -67 q-57 0 -98 18h-1v-224q0 -12 46 -14l35 -1l3 -16h-247z"/>
<glyph glyph-name="q" horiz-adv-x="515" unicode="q" d="M260 50q52 0 97 45v237q-20 38 -51 63.5t-64 25.5q-51 0 -80.5 -52.5t-29.5 -135.5q0 -78 35.5 -130.5t92.5 -52.5zM273 -251l3 16l35 1q46 2 46 15v289l-3 1q-68 -84 -151 -84q-76 0 -128 61t-52 153q0 111 71 176t166 65q71 0 127 -28h1l59 37h8v-669q0 -12 42 -16 l20 -1l2 -16h-246z"/>
<glyph glyph-name="r" horiz-adv-x="388" unicode="r" d="M19 0l3 16l19 1q23 2 31.5 5t8.5 12v271q0 45 -8 59.5t-34 20.5l-23 5l1 12l164 44l-2 -149h3q27 75 59 112.5t75 37.5q29 0 48.5 -17.5t19.5 -44.5q0 -24 -16 -41.5t-41 -17.5q-24 0 -41.5 15t-21.5 41q-48 -15 -85 -129v-221q0 -13 48 -15l30 -1l3 -16h-241z"/>
<glyph glyph-name="s" horiz-adv-x="382" unicode="s" d="M176 -14q-77 0 -140 24l-7 127l22 1l23 -58q42 -75 109 -75q39 0 64.5 22.5t25.5 57.5q0 33 -27 54t-80 40q-62 23 -95 51.5t-33 83.5q0 59 44 96t114 37q54 0 96 -17l36 11l5 -130l-20 -1l-52 93q-33 25 -68 25q-36 0 -56.5 -19.5t-20.5 -50.5q0 -33 23.5 -50.5 t79.5 -38.5q32 -12 51.5 -22t41 -26t31.5 -39t10 -53q0 -59 -47 -101t-130 -42z"/>
<glyph glyph-name="t" horiz-adv-x="344" unicode="t" d="M192 -13q-115 0 -114 123l5 271l-80 3l9 25l63 48l92 74l15 -3l-1 -96h154l-14 -47h-140l-6 -260q-1 -80 75 -80q45 0 83 29l5 -10q-73 -77 -146 -77z"/>
<glyph glyph-name="u" horiz-adv-x="511" unicode="u" d="M347 -16l1 85h-3q-93 -83 -166 -83q-45 0 -79 32q-33 33 -33 108l2 275q0 7 -8 9.5t-42 5.5l-16 2l-3 15h169l-3 -281q0 -52 21.5 -74.5t65.5 -22.5q49 0 94 35v293q0 19 -9 25t-39 8l-19 2l-3 15h169v-350q0 -19 4 -26.5t15 -10.5l47 -12l-1 -11z"/>
<glyph glyph-name="v" horiz-adv-x="472" unicode="v" d="M220 -10l-155 372q-14 32 -22.5 41t-30.5 11l-20 3l-3 16h236l-2 -16l-22 -3q-33 -1 -33 -21q0 -9 6 -24l104 -260l76 202q18 46 18 68q0 17 -11.5 24.5t-39.5 10.5l-19 3l-3 16h178l-3 -16l-18 -2q-29 -4 -41 -20.5t-41 -89.5l-121 -315h-33z"/>
<glyph glyph-name="w" horiz-adv-x="729" unicode="w" d="M209 -10l-141 362q-15 38 -25 49t-33 13l-18 3l-3 15h231l-2 -15l-20 -3q-33 -1 -33 -20q0 -8 5 -23l99 -264l85 214l-18 44q-12 29 -22.5 38t-33.5 11l-17 3l-3 15h231l-2 -15l-20 -3q-32 -1 -32 -21q0 -7 5 -22l103 -263l68 197q15 44 15 67q0 20 -12 29.5t-40 12.5 l-17 3l-3 15h178l-3 -15l-17 -3q-30 -2 -42.5 -20t-37.5 -91l-110 -313h-33l-125 305l-124 -305h-33z"/>
<glyph glyph-name="x" horiz-adv-x="476" unicode="x" d="M-2 0l3 15l25 4q26 4 45.5 21.5t62.5 71.5l64 84l-103 148q-27 39 -42.5 53.5t-34.5 16.5l-16 3l-3 15h233l-3 -15l-20 -3q-23 -1 -23 -17q0 -13 22 -46l58 -87h1l47 67q32 44 32 63q0 17 -34 20l-20 3l-3 15h179l-3 -15l-25 -4q-26 -4 -47 -22t-61 -72l-54 -69l112 -162 q27 -37 43 -52.5t33 -17.5l15 -2l4 -16h-232l3 15l18 3q24 3 24 18t-21 45l-67 100h-2l-56 -80q-34 -46 -34 -64q0 -17 33 -19l23 -3l2 -15h-178z"/>
<glyph glyph-name="y" horiz-adv-x="470" unicode="y" d="M100 -258q-28 0 -47.5 16t-19.5 41q0 23 15 38.5t39 15.5q49 0 62 -48q16 4 27.5 23t25.5 59l35 103h-5l-167 371q-15 32 -23.5 41t-31.5 12l-20 3l-3 15h235l-3 -15l-20 -3q-32 -1 -32 -20q0 -11 7 -25l108 -254l72 198q16 44 16 65q0 18 -11.5 25.5t-39.5 10.5l-19 3 l-3 15h179l-3 -15l-20 -3q-29 -3 -41 -20t-39 -89l-110 -296l-44 -134q-23 -69 -50.5 -101t-68.5 -32z"/>
<glyph glyph-name="z" horiz-adv-x="443" unicode="z" d="M22 0v14l266 399h-45q-78 -1 -110 -23t-55 -79l-16 -43h-20v164h365v-14l-269 -399h49q81 1 123.5 27.5t70.5 79.5l21 39h19l-33 -165h-366z"/>
<glyph glyph-name="braceleft" horiz-adv-x="321" unicode="{" d="M303 -255q-93 5 -152.5 48t-59.5 108q0 42 23 110t23 96q0 39 -33 56.5t-103 23.5l-5 13l5 12q65 5 100.5 23t35.5 58q0 28 -23 95.5t-23 109.5q0 66 59 108.5t153 47.5l2 -14q-133 -17 -133 -100q0 -32 23.5 -101.5t23.5 -110.5q0 -52 -45.5 -84.5t-125.5 -41.5v-5 q80 -9 125.5 -41.5t45.5 -84.5q0 -41 -23.5 -110t-23.5 -100q0 -85 133 -102z"/>
<glyph glyph-name="bar" horiz-adv-x="190" unicode="|" d="M86 -207v877h18v-877h-18z"/>
<glyph glyph-name="braceright" horiz-adv-x="321" unicode="}" d="M2 -255l-2 14q133 17 133 102q0 31 -23.5 100t-23.5 110q0 52 45 84.5t125 41.5v5q-80 9 -125 41.5t-45 84.5q0 41 23.5 110.5t23.5 101.5q0 83 -133 100l2 14q93 -5 152.5 -47.5t59.5 -108.5q0 -42 -23.5 -109.5t-23.5 -95.5q0 -40 36 -58t101 -23l5 -12l-5 -13 q-70 -6 -103.5 -23.5t-33.5 -56.5q0 -28 23.5 -96t23.5 -110q0 -65 -59.5 -108t-152.5 -48z"/>
<glyph glyph-name="asciitilde" horiz-adv-x="386" unicode="~" d="M269 155q-34 0 -95 32.5t-79 32.5q-19 0 -29.5 -11t-16.5 -46h-15q8 65 26.5 92t57.5 27q32 0 93 -32.5t79 -32.5q19 0 30.5 11t17.5 45h14q-7 -64 -25.5 -91t-57.5 -27z"/>
<glyph glyph-name="nbspace" horiz-adv-x="139" unicode=" "/>
<glyph glyph-name="exclamdown" horiz-adv-x="268" unicode="¡" d="M133 -17q-55 0 -55 42q0 9 1 13l48 395q1 5 7 5t7 -5l48 -395q1 -4 1 -13q0 -42 -55 -42h-2zM134 510q-27 0 -45 18.5t-18 44.5q0 25 18.5 44t44.5 19q27 0 45.5 -19t18.5 -44q0 -26 -18.5 -44.5t-45.5 -18.5z"/>
<glyph glyph-name="cent" horiz-adv-x="429" unicode="¢" d="M215 72l90 339q-23 17 -48 17q-55 0 -91.5 -50.5t-36.5 -133.5q0 -62 23 -106.5t63 -65.5zM154 -160l39 149q-75 14 -122.5 74t-47.5 144q0 103 66.5 172t167.5 69q26 0 56 -7l46 172h20l-48 -176q36 -11 57.5 -34t21.5 -52q0 -23 -15.5 -39t-36.5 -16q-41 0 -53 38 l-73 -270q25 -10 50 -10q77 0 125 72l11 -5q-67 -136 -189 -136q-11 0 -17 1l-39 -146h-19z"/>
<glyph glyph-name="sterling" horiz-adv-x="533" unicode="£" d="M171 62q-67 41 -97 41q-25 0 -40.5 -13.5t-15.5 -37.5q0 -23 16.5 -36.5t42.5 -13.5q54 0 94 60zM166 286h-108l3 20h100q-14 47 -14 83q0 102 69 172t177 70q54 0 84 -21t30 -59q0 -22 -17.5 -39t-41.5 -17q-26 0 -40.5 18.5t-14.5 43.5q0 20 8 35q-13 16 -44 16 q-46 0 -77.5 -37t-31.5 -110q0 -22 7.5 -78t9.5 -77h129l3 -20h-130q2 -16 2 -48q0 -59 -36 -126q125 -41 170 -41q44 0 64.5 23.5t30.5 89.5l13 -2q-1 -82 -39.5 -139t-102.5 -57q-78 0 -179 64q-54 -64 -113 -64q-34 0 -55 18.5t-21 47.5q0 36 29.5 61t81.5 25 q32 0 84 -14q2 16 2 25q0 37 -32 137z"/>
<glyph glyph-name="currency" d="M108 359q0 -48 34 -82t82 -34t82 34t34 82t-34 82t-82 34t-82 -34t-34 -82zM78 199l-14 14l57 57q-33 38 -33 89t33 89l-57 57l14 14l57 -57q40 33 89 33t89 -33l57 57l14 -14l-57 -57q33 -40 33 -89t-33 -89l57 -57l-14 -14l-57 57q-38 -33 -89 -33t-89 33z" unicode="¤"/>
<glyph glyph-name="yen" horiz-adv-x="614" unicode="¥" d="M156 0l3 16l54 6q41 4 41 18v118h-182l3 20h179v108h-180l-1 20h170l-33 58l-68 116l-33 57q-23 38 -39.5 52t-43.5 16l-28 4l-3 16h291l-3 -16l-28 -2q-40 -3 -40 -27q0 -18 24 -59l112 -204h3l76 144q41 80 41 107q0 18 -13 26t-43 12l-23 3l-3 16h221l-3 -16l-22 -3 q-33 -6 -57 -28t-59 -89q-98 -183 -99 -183h178l-1 -20h-182v-108h181l3 -20h-184v-120q0 -12 48 -17l46 -5l3 -16h-306z"/>
<glyph glyph-name="brokenbar" horiz-adv-x="190" unicode="¦" d="M86 -154v335h18v-335h-18zM86 292v335h18v-335h-18z"/>
<glyph glyph-name="section" horiz-adv-x="405" unicode="§" d="M300 170q34 26 34 62q0 34 -24 57.5t-78 53.5q-12 7 -35.5 20t-36 20t-28 18t-26.5 21q-34 -26 -34 -61q0 -34 24.5 -57.5t76.5 -53.5q9 -5 28.5 -16t29 -16.5t24.5 -14t25.5 -16.5t19.5 -17zM174 -50q-53 0 -87 19.5t-34 53.5q0 20 13.5 35t33.5 15q26 0 40 -17.5 t14 -42.5q0 -15 -4 -27q19 -16 49 -16q33 0 54 23t21 51q0 24 -19.5 46t-39.5 34.5t-65 36.5q-31 17 -51 30t-43 32.5t-34 42t-11 48.5q0 74 85 117q-29 34 -29 75q0 54 47.5 94t113.5 40q54 0 86 -19t32 -54q0 -21 -14.5 -35.5t-35.5 -14.5q-25 0 -38.5 18t-13.5 44 q0 13 3 25q-19 16 -42 16q-33 0 -53 -22t-20 -49q0 -18 8.5 -33.5t30 -31.5t36 -25t48.5 -27q33 -18 52 -30.5t42.5 -31.5t34.5 -41.5t11 -48.5q0 -38 -24 -69t-62 -50q30 -35 30 -75q0 -55 -49 -95.5t-116 -40.5z"/>
<glyph glyph-name="dieresis" horiz-adv-x="387" unicode="¨" d="M97 517q-27 0 -42.5 18t-15.5 40q0 23 15.5 42t42.5 19t42.5 -19t15.5 -42q0 -22 -15.5 -40t-42.5 -18zM290 517q-27 0 -42.5 18t-15.5 40q0 23 15.5 42t42.5 19t42.5 -19t15.5 -42q0 -22 -15.5 -40t-42.5 -18z"/>
<glyph glyph-name="copyright" horiz-adv-x="718" unicode="©" d="M371 117q-95 0 -152 54t-57 138q0 85 58.5 140.5t153.5 55.5q57 0 95 -20l41 14l1 -124h-13l-48 94q-27 22 -78 22q-64 0 -100.5 -49t-36.5 -125q0 -82 40 -133.5t101 -51.5q70 0 110 69l23 46h13l-18 -109l-24 -1q-51 -20 -109 -20zM360 -1q128 0 219 92t91 222 q0 129 -91 221.5t-219 92.5q-129 0 -220.5 -92.5t-91.5 -221.5q0 -130 91 -222t221 -92zM360 -18q-137 0 -234 97t-97 234t97 234t234 97t233.5 -97t96.5 -234t-96.5 -234t-233.5 -97z"/>
<glyph glyph-name="ordfeminine" horiz-adv-x="344" unicode="ª" d="M151 335q27 0 58 31l4 104q-111 -26 -111 -82q0 -24 13.5 -38.5t35.5 -14.5zM98 284q-32 0 -55 21.5t-23 52.5q0 83 193 127l1 26q1 47 -22.5 71.5t-59.5 24.5q-14 0 -24.5 -4t-15 -8t-4.5 -7q0 -2 8.5 -17t8.5 -26q0 -15 -12.5 -26.5t-31.5 -11.5q-18 0 -30.5 11.5 t-12.5 28.5q0 32 58.5 60.5t113.5 28.5q49 0 77.5 -26t28.5 -75v-7l-6 -152v-5q0 -40 27 -40q17 0 35 18l3 -8q-38 -57 -84 -57q-54 0 -61 67h-1q-54 -67 -111 -67z"/>
<glyph glyph-name="guillemotleft" horiz-adv-x="458" unicode="«" d="M238 53l-220 157v23l220 157l5 -8l-126 -160l126 -161zM435 43l-222 167v23l222 168l5 -9l-132 -170l132 -171z"/>
<glyph glyph-name="logicalnot" d="M418 312v-180h-22v158h-382l3 22h401z" unicode="¬"/>
<glyph glyph-name="uni00AD" horiz-adv-x="295" unicode="­" d="M23 213l3 45h247l-2 -45h-248z"/>
<glyph glyph-name="registered" horiz-adv-x="718" unicode="®" d="M348 320q39 0 60.5 21.5t21.5 60.5q0 80 -92 80h-9l-25 -1v-153q26 -8 44 -8zM182 128l2 14l28 3q24 6 24 11v315q0 8 -29 11l-22 3l-2 14h166q75 0 113.5 -25.5t38.5 -71.5q0 -34 -24.5 -60t-65.5 -35l77 -117q16 -26 28 -34.5t33 -11.5l13 -2l3 -14h-120l-10 18 l-94 157q-3 1 -17.5 4t-19.5 5v-157q0 -7 28 -9l25 -4l2 -14h-177zM360 -1q128 0 219.5 92t91.5 222q0 129 -91.5 221.5t-219.5 92.5q-129 0 -220.5 -92.5t-91.5 -221.5q0 -130 91 -222t221 -92zM360 -17q-137 0 -234 96.5t-97 233.5t97 234t234 97t233.5 -97t96.5 -234 t-96.5 -233.5t-233.5 -96.5z"/>
<glyph glyph-name="macron" horiz-adv-x="378" unicode="¯" d="M57 528l8 39h256l-6 -39h-258z"/>
<glyph glyph-name="degree" horiz-adv-x="322" unicode="°" d="M161 386q51 0 83 34t32 84t-32 84.5t-83 34.5t-82.5 -34.5t-31.5 -84.5t31.5 -84t82.5 -34zM161 366q-61 0 -99 40t-38 98t37.5 98.5t99.5 40.5t99.5 -40.5t37.5 -98.5t-37.5 -98t-99.5 -40z"/>
<glyph glyph-name="plusminus" d="M420 27h-392l3 22h386zM213 84v162h-198l3 22h195v168h22v-168h195l3 -22h-198v-162h-22z" unicode="±"/>
<glyph glyph-name="twosuperior" horiz-adv-x="301" unicode="²" d="M18 267l-4 20q105 101 129 132q44 55 44 105q0 38 -20.5 58.5t-52.5 20.5q-51 0 -89 -57l-7 6q50 102 137 102q47 0 77.5 -27.5t30.5 -70.5q0 -17 -4 -32.5t-15.5 -32.5t-21 -29.5t-31 -32.5t-34 -31.5t-42 -36.5t-43.5 -37v-2h127q30 0 44 11.5t30 47.5l6 12h11 l-29 -126h-243z"/>
<glyph glyph-name="threesuperior" horiz-adv-x="282" unicode="³" d="M104 248q-40 0 -64.5 14t-24.5 38q0 15 10 24.5t26 9.5q20 0 32 -15t12 -37q0 -9 -1 -14l5 -1q5 -1 11 -2t10 -1q33 0 55.5 25.5t22.5 62.5q0 42 -22 66.5t-62 24.5q-28 0 -52 -11l-5 10q8 4 25 13.5t23.5 13t19 11t17.5 12t12.5 11.5t10.5 13t5.5 14t2.5 17 q0 26 -16.5 41.5t-44.5 15.5q-55 0 -87 -51l-7 6q47 95 133 95q41 0 69 -22t28 -55q0 -34 -26 -54.5t-76 -42.5v-2q7 1 21 1q46 0 75 -27t29 -69q0 -53 -50 -94t-117 -41z"/>
<glyph glyph-name="acute" horiz-adv-x="390" unicode="´" d="M143 498l96 186h109l-191 -186h-14z"/>
<glyph glyph-name="mu" horiz-adv-x="511" unicode="µ" d="M228 -251h-227l3 16l21 1q40 3 40 16v619q0 7 -7.5 9.5t-40.5 5.5l-16 2l-3 15h169l-3 -326q0 -56 83 -56q61 0 98 29v303q0 19 -9 25t-39 8l-19 2l-3 15h169v-350q0 -19 4 -26.5t15 -10.5l47 -12l-1 -11l-164 -39l1 75h-3q-26 -39 -46 -56t-50 -17q-52 0 -80 62h-3v-266 q0 -13 40 -16l21 -1z"/>
<glyph glyph-name="mu" horiz-adv-x="511" unicode="μ" d="M228 -251h-227l3 16l21 1q40 3 40 16v619q0 7 -7.5 9.5t-40.5 5.5l-16 2l-3 15h169l-3 -326q0 -56 83 -56q61 0 98 29v303q0 19 -9 25t-39 8l-19 2l-3 15h169v-350q0 -19 4 -26.5t15 -10.5l47 -12l-1 -11l-164 -39l1 75h-3q-26 -39 -46 -56t-50 -17q-52 0 -80 62h-3v-266 q0 -13 40 -16l21 -1z"/>
<glyph glyph-name="paragraph" horiz-adv-x="450" unicode="¶" d="M367 -32v288q-42 -7 -91 -7q-115 0 -181.5 50.5t-66.5 138.5q0 92 63.5 139.5t187.5 47.5h112v-657h-24z"/>
<glyph glyph-name="periodcentered" horiz-adv-x="216" unicode="·" d="M108 164q-28 0 -48 20t-20 47q0 26 20 45t48 19t47 -19t19 -45q0 -27 -19 -47t-47 -20z"/>
<glyph glyph-name="cedilla" horiz-adv-x="385" unicode="¸" d="M98 -270l-5 12q77 14 115.5 34.5t38.5 54.5q0 55 -86 55q-35 0 -68 -11v12l107 117h22l-62 -67q22 2 31 2q53 0 86.5 -22.5t33.5 -59.5q0 -99 -213 -127z"/>
<glyph glyph-name="onesuperior" horiz-adv-x="257" unicode="¹" d="M42 267l2 12l30 3q25 0 25 11v316l-66 7l2 9l140 26v-359q0 -10 29 -10l25 -3l2 -12h-189z"/>
<glyph glyph-name="ordmasculine" horiz-adv-x="399" unicode="º" d="M200 298q40 0 63 44t23 109q0 111 -35 146q-23 23 -53 23q-43 0 -65.5 -44.5t-22.5 -109.5q0 -109 37 -147q21 -21 53 -21zM198 282q-80 0 -131 50.5t-51 123.5q0 75 52.5 128t131.5 53q81 0 131.5 -51t50.5 -125q0 -76 -51.5 -127.5t-132.5 -51.5z"/>
<glyph glyph-name="guillemotright" horiz-adv-x="458" unicode="»" d="M25 43l-5 8l131 171l-131 170l5 9l223 -168v-23zM223 53l-5 8l124 161l-124 159l5 9l219 -157v-23z"/>
<glyph glyph-name="onequarter" horiz-adv-x="683" unicode="¼" d="M35 -121l580 751h29l-580 -751h-29zM42 267l2 12l30 3q25 0 25 11v316l-66 7l2 9l140 26v-359q0 -10 29 -10l25 -3l2 -12h-189zM410 8h124v171h-2zM534 -136v101h-161l-2 11l195 274h39v-242h70l-11 -43h-59v-101h-71z"/>
<glyph glyph-name="onehalf" horiz-adv-x="682" unicode="½" d="M35 -121l580 751h29l-580 -751h-29zM42 267l2 12l30 3q25 0 25 11v316l-66 7l2 9l140 26v-359q0 -10 29 -10l25 -3l2 -12h-189zM393 -137l-4 20q105 101 129 132q44 55 44 105q0 38 -20.5 58.5t-52.5 20.5q-51 0 -89 -57l-7 6q50 102 137 102q47 0 77.5 -27.5t30.5 -70.5 q0 -17 -4 -32.5t-15.5 -32.5t-21 -29.5t-31 -32.5t-34 -31.5t-42 -36.5t-43.5 -37v-2h127q30 0 44 11.5t30 47.5l6 12h11l-29 -126h-243z"/>
<glyph glyph-name="threequarters" horiz-adv-x="668" unicode="¾" d="M20 -121l580 751h29l-580 -751h-29zM104 248q-40 0 -64.5 14t-24.5 38q0 15 10 24.5t26 9.5q20 0 32 -15t12 -37q0 -9 -1 -14l5 -1q5 -1 11 -2t10 -1q33 0 55.5 25.5t22.5 62.5q0 42 -22 66.5t-62 24.5q-28 0 -52 -11l-5 10q8 4 25 13.5t23.5 13t19 11t17.5 12t12.5 11.5 t10.5 13t5.5 14t2.5 17q0 26 -16.5 41.5t-44.5 15.5q-55 0 -87 -51l-7 6q47 95 133 95q41 0 69 -22t28 -55q0 -34 -26 -54.5t-76 -42.5v-2q7 1 21 1q46 0 75 -27t29 -69q0 -53 -50 -94t-117 -41zM395 8h124v171h-2zM519 -136v101h-161l-2 11l195 274h39v-242h70l-11 -43h-59 v-101h-71z"/>
<glyph glyph-name="questiondown" horiz-adv-x="330" unicode="¿" d="M225 -14q-85 0 -139.5 59.5t-54.5 134.5q0 54 20 78.5t73 46.5l15 6t14 6t12.5 5.5t12 5.5t9.5 5.5t8.5 6.5t6.5 6.5t5.5 7.5t2.5 8.5t1 9.5q0 29 -44 71l16 2q30 -23 55 -56.5t25 -58.5q0 -41 -24.5 -61.5t-87.5 -44.5q-55 -21 -75.5 -34.5t-20.5 -33.5 q0 -33 39.5 -56.5t111.5 -23.5q33 0 76 9q18 -16 18 -50q0 -49 -75 -49zM179 514q-27 0 -45 18t-18 43q0 26 18 45t45 19t45.5 -19t18.5 -45q0 -24 -18.5 -42.5t-45.5 -18.5z"/>
<glyph glyph-name="Agrave" horiz-adv-x="633" unicode="À" d="M333 665l-191 186h108l96 -186h-13zM187 276h164l-76 243h-3zM358 255h-178l-32 -91q-27 -79 -27 -103q0 -20 13.5 -28.5t48.5 -12.5l26 -4l3 -16h-222l3 16l18 3q31 5 47.5 19t34.5 52.5t54 137.5l113 315l-9 33q21 7 46.5 27.5t33.5 38.5h15l175 -525q19 -58 34 -76.5 t44 -20.5l33 -4l3 -16h-295l3 16l33 4q40 3 40 34q0 17 -15 64z"/>
<glyph glyph-name="Aacute" horiz-adv-x="633" unicode="Á" d="M272 665l96 186h109l-191 -186h-14zM187 276h164l-76 243h-3zM358 255h-178l-32 -91q-27 -79 -27 -103q0 -20 13.5 -28.5t48.5 -12.5l26 -4l3 -16h-222l3 16l18 3q31 5 47.5 19t34.5 52.5t54 137.5l113 315l-9 33q21 7 46.5 27.5t33.5 38.5h15l175 -525q19 -58 34 -76.5 t44 -20.5l33 -4l3 -16h-295l3 16l33 4q40 3 40 34q0 17 -15 64z"/>
<glyph glyph-name="Acircumflex" horiz-adv-x="633" unicode="Â" d="M178 657l135 195h17l135 -195h-14l-128 104h-2l-130 -104h-13zM187 276h164l-76 243h-3zM358 255h-178l-32 -91q-27 -79 -27 -103q0 -20 13.5 -28.5t48.5 -12.5l26 -4l3 -16h-222l3 16l18 3q31 5 47.5 19t34.5 52.5t54 137.5l113 315l-9 33q21 7 46.5 27.5t33.5 38.5h15 l175 -525q19 -58 34 -76.5t44 -20.5l33 -4l3 -16h-295l3 16l33 4q40 3 40 34q0 17 -15 64z"/>
<glyph glyph-name="Atilde" horiz-adv-x="633" unicode="Ã" d="M393 672q-34 0 -95 32.5t-79 32.5q-19 0 -29.5 -11t-16.5 -46h-15q8 65 26.5 92t57.5 27q32 0 93 -32.5t79 -32.5q19 0 30.5 11t17.5 45h14q-7 -64 -25.5 -91t-57.5 -27zM187 276h164l-76 243h-3zM358 255h-178l-32 -91q-27 -79 -27 -103q0 -20 13.5 -28.5t48.5 -12.5 l26 -4l3 -16h-222l3 16l18 3q31 5 47.5 19t34.5 52.5t54 137.5l113 315l-9 33q21 7 46.5 27.5t33.5 38.5h15l175 -525q19 -58 34 -76.5t44 -20.5l33 -4l3 -16h-295l3 16l33 4q40 3 40 34q0 17 -15 64z"/>
<glyph glyph-name="Adieresis" horiz-adv-x="633" unicode="Ä" d="M221 684q-27 0 -42.5 18t-15.5 40q0 23 15.5 42t42.5 19t42.5 -19t15.5 -42q0 -22 -15.5 -40t-42.5 -18zM414 684q-27 0 -42.5 18t-15.5 40q0 23 15.5 42t42.5 19t42.5 -19t15.5 -42q0 -22 -15.5 -40t-42.5 -18zM187 276h164l-76 243h-3zM358 255h-178l-32 -91 q-27 -79 -27 -103q0 -20 13.5 -28.5t48.5 -12.5l26 -4l3 -16h-222l3 16l18 3q31 5 47.5 19t34.5 52.5t54 137.5l113 315l-9 33q21 7 46.5 27.5t33.5 38.5h15l175 -525q19 -58 34 -76.5t44 -20.5l33 -4l3 -16h-295l3 16l33 4q40 3 40 34q0 17 -15 64z"/>
<glyph glyph-name="Aring" horiz-adv-x="633" unicode="Å" d="M316 623q33 0 53.5 22t20.5 54t-20.5 54.5t-53.5 22.5t-53 -22.5t-20 -54.5t20 -54t53 -22zM187 276h164l-19 61q-19 61 -38 121l-19 61h-3zM359 253h-180l-31 -89q-27 -79 -27 -103q0 -20 13.5 -28.5t48.5 -12.5l26 -4l3 -16h-222l3 16l18 3q32 5 48 18.5t34.5 53 t53.5 137.5l139 387q-60 20 -60 85q0 38 24.5 64.5t65.5 26.5t66 -26.5t25 -64.5q0 -28 -14 -50t-39 -32l167 -501q19 -58 34 -76.5t44 -20.5l33 -4l3 -16h-295l3 16l33 4q40 3 40 34q0 17 -15 64z"/>
<glyph glyph-name="AE" horiz-adv-x="859" unicode="Æ" d="M206 277h177v318h-3zM-50 0l3 16l34 5q32 5 62.5 38.5t85.5 135.5l198 358q9 18 9 26q0 22 -57 26l-37 3l-3 17h539l8 -198h-20l-11 35q-13 43 -23.5 66t-32 42.5t-55 27t-87.5 7.5l-69 -1v-274h29q67 3 93 16.5t39 54.5l11 31l18 -1l-23 -226l-17 1l-4 30 q-3 43 -25.5 56.5t-97.5 16.5l-23 2v-288l73 -3q72 0 118 20.5t67.5 49t40.5 78.5l10 33l22 -1l-27 -200h-508l3 16l50 6q40 4 40 18v215h-189l-49 -89q-40 -76 -40 -107q0 -33 44 -39l29 -4l3 -16h-231z"/>
<glyph glyph-name="Ccedilla" horiz-adv-x="688" unicode="Ç" d="M378 -14q-154 3 -250 91t-96 231q0 146 100 238.5t263 92.5q91 0 161 -34l69 22l3 -203h-22l-78 161q-49 33 -133 33q-111 0 -175 -85t-64 -216q0 -139 67.5 -224.5t172.5 -85.5q66 0 110 28t82 85l34 80h23l-31 -178l-40 -1q-77 -32 -175 -35l-45 -49q22 2 31 2 q53 0 86.5 -22.5t33.5 -59.5q0 -99 -213 -127l-5 12q77 14 115.5 34.5t38.5 54.5q0 55 -86 55q-35 0 -68 -11v12z"/>
<glyph glyph-name="Egrave" horiz-adv-x="606" unicode="È" d="M334 665l-191 186h108l96 -186h-13zM26 0l3 16l35 4q46 4 46 17v554q0 6 -9 9t-42 6l-29 3l-3 16h501l9 -198h-22l-10 35q-17 55 -36.5 83.5t-60.5 44.5t-111 16l-75 -1v-275h39q68 3 96 17t41 54l11 31l19 -1l-23 -226l-19 1l-3 30q-4 43 -28.5 56.5t-100.5 16.5l-32 2 v-288l89 -3q71 0 117 20.5t67.5 49t40.5 78.5l11 33l23 -1l-28 -200h-516z"/>
<glyph glyph-name="Eacute" horiz-adv-x="606" unicode="É" d="M264 665l96 186h109l-191 -186h-14zM26 0l3 16l35 4q46 4 46 17v554q0 6 -9 9t-42 6l-29 3l-3 16h501l9 -198h-22l-10 35q-17 55 -36.5 83.5t-60.5 44.5t-111 16l-75 -1v-275h39q68 3 96 17t41 54l11 31l19 -1l-23 -226l-19 1l-3 30q-4 43 -28.5 56.5t-100.5 16.5l-32 2 v-288l89 -3q71 0 117 20.5t67.5 49t40.5 78.5l11 33l23 -1l-28 -200h-516z"/>
<glyph glyph-name="Ecircumflex" horiz-adv-x="606" unicode="Ê" d="M162 657l135 195h17l135 -195h-14l-128 104h-2l-130 -104h-13zM26 0l3 16l35 4q46 4 46 17v554q0 6 -9 9t-42 6l-29 3l-3 16h501l9 -198h-22l-10 35q-17 55 -36.5 83.5t-60.5 44.5t-111 16l-75 -1v-275h39q68 3 96 17t41 54l11 31l19 -1l-23 -226l-19 1l-3 30 q-4 43 -28.5 56.5t-100.5 16.5l-32 2v-288l89 -3q71 0 117 20.5t67.5 49t40.5 78.5l11 33l23 -1l-28 -200h-516z"/>
<glyph glyph-name="Edieresis" horiz-adv-x="606" unicode="Ë" d="M207 684q-27 0 -42.5 18t-15.5 40q0 23 15.5 42t42.5 19t42.5 -19t15.5 -42q0 -22 -15.5 -40t-42.5 -18zM400 684q-27 0 -42.5 18t-15.5 40q0 23 15.5 42t42.5 19t42.5 -19t15.5 -42q0 -22 -15.5 -40t-42.5 -18zM26 0l3 16l35 4q46 4 46 17v554q0 6 -9 9t-42 6l-29 3 l-3 16h501l9 -198h-22l-10 35q-17 55 -36.5 83.5t-60.5 44.5t-111 16l-75 -1v-275h39q68 3 96 17t41 54l11 31l19 -1l-23 -226l-19 1l-3 30q-4 43 -28.5 56.5t-100.5 16.5l-32 2v-288l89 -3q71 0 117 20.5t67.5 49t40.5 78.5l11 33l23 -1l-28 -200h-516z"/>
<glyph glyph-name="Igrave" horiz-adv-x="354" unicode="Ì" d="M203 665l-191 186h108l96 -186h-13zM32 0l3 16l43 4q43 4 43 17v554q0 6 -9 9t-42 6l-35 3l-3 16h290l-3 -16l-42 -4q-43 -4 -43 -17v-554q0 -6 9 -9t42 -6l34 -3l3 -16h-290z"/>
<glyph glyph-name="Iacute" horiz-adv-x="354" unicode="Í" d="M136 665l96 186h109l-191 -186h-14zM32 0l3 16l43 4q43 4 43 17v554q0 6 -9 9t-42 6l-35 3l-3 16h290l-3 -16l-42 -4q-43 -4 -43 -17v-554q0 -6 9 -9t42 -6l34 -3l3 -16h-290z"/>
<glyph glyph-name="Icircumflex" horiz-adv-x="354" unicode="Î" d="M34 657l135 195h17l135 -195h-14l-128 104h-2l-130 -104h-13zM32 0l3 16l43 4q43 4 43 17v554q0 6 -9 9t-42 6l-35 3l-3 16h290l-3 -16l-42 -4q-43 -4 -43 -17v-554q0 -6 9 -9t42 -6l34 -3l3 -16h-290z"/>
<glyph glyph-name="Idieresis" horiz-adv-x="354" unicode="Ï" d="M82 684q-27 0 -42.5 18t-15.5 40q0 23 15.5 42t42.5 19t42.5 -19t15.5 -42q0 -22 -15.5 -40t-42.5 -18zM275 684q-27 0 -42.5 18t-15.5 40q0 23 15.5 42t42.5 19t42.5 -19t15.5 -42q0 -22 -15.5 -40t-42.5 -18zM32 0l3 16l43 4q43 4 43 17v554q0 6 -9 9t-42 6l-35 3 l-3 16h290l-3 -16l-42 -4q-43 -4 -43 -17v-554q0 -6 9 -9t42 -6l34 -3l3 -16h-290z"/>
<glyph glyph-name="Eth" horiz-adv-x="681" unicode="Ð" d="M221 326h133l3 -22h-136v-265l68 -19q114 0 178.5 80.5t64.5 199.5q0 138 -66 221.5t-198 83.5h-47v-279zM110 304h-90l3 22h87v261q0 11 -48 17l-40 5l-3 16l271 2h8q169 0 261.5 -82.5t92.5 -220.5q0 -140 -101 -232t-278 -92h-255l3 16l48 6q41 4 41 18v264z"/>
<glyph glyph-name="Ntilde" horiz-adv-x="704" unicode="Ñ" d="M444 672q-34 0 -95 32.5t-79 32.5q-19 0 -29.5 -11t-16.5 -46h-15q8 65 26.5 92t57.5 27q32 0 93 -32.5t79 -32.5q19 0 30.5 11t17.5 45h14q-7 -64 -25.5 -91t-57.5 -27zM566 -6l-428 538h-2l1 -427q0 -49 14.5 -65t58.5 -20l28 -4l3 -16h-221l3 16l28 4q35 3 49 21 t14 68l3 427q-28 59 -83 69l-22 5l-3 16h202l362 -461l2 1l-1 353q0 49 -14.5 65.5t-57.5 20.5l-29 4l-3 16h220l-3 -16l-28 -4q-34 -3 -48 -21.5t-14 -68.5l-2 -521h-29z"/>
<glyph glyph-name="Ograve" horiz-adv-x="740" unicode="Ò" d="M400 665l-191 186h108l96 -186h-13zM373 6q98 0 154.5 79.5t56.5 225.5q0 140 -60.5 223.5t-156.5 83.5q-97 0 -154 -80t-57 -225q0 -141 60 -224t157 -83zM366 -14q-146 0 -240 90t-94 234q0 132 101 230.5t241 98.5q146 0 240 -91t94 -235q0 -132 -100.5 -229.5 t-241.5 -97.5z"/>
<glyph glyph-name="Oacute" horiz-adv-x="740" unicode="Ó" d="M328 665l96 186h109l-191 -186h-14zM373 6q98 0 154.5 79.5t56.5 225.5q0 140 -60.5 223.5t-156.5 83.5q-97 0 -154 -80t-57 -225q0 -141 60 -224t157 -83zM366 -14q-146 0 -240 90t-94 234q0 132 101 230.5t241 98.5q146 0 240 -91t94 -235q0 -132 -100.5 -229.5 t-241.5 -97.5z"/>
<glyph glyph-name="Ocircumflex" horiz-adv-x="740" unicode="Ô" d="M228 657l135 195h17l135 -195h-14l-128 104h-2l-130 -104h-13zM373 6q98 0 154.5 79.5t56.5 225.5q0 140 -60.5 223.5t-156.5 83.5q-97 0 -154 -80t-57 -225q0 -141 60 -224t157 -83zM366 -14q-146 0 -240 90t-94 234q0 132 101 230.5t241 98.5q146 0 240 -91t94 -235 q0 -132 -100.5 -229.5t-241.5 -97.5z"/>
<glyph glyph-name="Otilde" horiz-adv-x="740" unicode="Õ" d="M450 672q-34 0 -95 32.5t-79 32.5q-19 0 -29.5 -11t-16.5 -46h-15q8 65 26.5 92t57.5 27q32 0 93 -32.5t79 -32.5q19 0 30.5 11t17.5 45h14q-7 -64 -25.5 -91t-57.5 -27zM373 6q98 0 154.5 79.5t56.5 225.5q0 140 -60.5 223.5t-156.5 83.5q-97 0 -154 -80t-57 -225 q0 -141 60 -224t157 -83zM366 -14q-146 0 -240 90t-94 234q0 132 101 230.5t241 98.5q146 0 240 -91t94 -235q0 -132 -100.5 -229.5t-241.5 -97.5z"/>
<glyph glyph-name="Odieresis" horiz-adv-x="740" unicode="Ö" d="M275 684q-27 0 -42.5 18t-15.5 40q0 23 15.5 42t42.5 19t42.5 -19t15.5 -42q0 -22 -15.5 -40t-42.5 -18zM468 684q-27 0 -42.5 18t-15.5 40q0 23 15.5 42t42.5 19t42.5 -19t15.5 -42q0 -22 -15.5 -40t-42.5 -18zM373 6q98 0 154.5 79.5t56.5 225.5q0 140 -60.5 223.5 t-156.5 83.5q-97 0 -154 -80t-57 -225q0 -141 60 -224t157 -83zM366 -14q-146 0 -240 90t-94 234q0 132 101 230.5t241 98.5q146 0 240 -91t94 -235q0 -132 -100.5 -229.5t-241.5 -97.5z"/>
<glyph glyph-name="multiply" d="M33 61l175 175l-175 175l16 16l175 -175l175 175l16 -16l-175 -175l175 -175l-16 -16l-175 175l-175 -175z" unicode="×"/>
<glyph glyph-name="Oslash" horiz-adv-x="740" unicode="Ø" d="M517 542l-278 -480q56 -56 134 -56q98 0 154.5 79.5t56.5 225.5q0 71 -17 123t-50 108zM225 76l279 482q-57 60 -137 60q-97 0 -154 -80.5t-57 -224.5q0 -150 69 -237zM548 596q75 -40 117.5 -114t42.5 -169q0 -132 -100.5 -229.5t-241.5 -97.5q-29 0 -80.5 15.5 t-72.5 15.5l-52 -90h-22l57 98q-76 41 -120 115t-44 170q0 132 101 230.5t241 98.5q86 0 157 -34l49 84h22q-30 -51 -54 -93z"/>
<glyph glyph-name="Ugrave" horiz-adv-x="698" unicode="Ù" d="M393 665l-191 186h108l96 -186h-13zM357 -16q-130 0 -191 53.5t-61 170.5v384q0 4 -3.5 6t-14.5 4t-33 4l-37 4l-3 16h294l-3 -16l-44 -4q-43 -4 -43 -17v-354q0 -204 179 -204q86 0 133 53.5t47 157.5l-1 277q0 49 -15 66t-58 21l-29 4l-3 16h221l-3 -16l-28 -4 q-35 -4 -48.5 -22.5t-13.5 -68.5l-2 -279q-2 -252 -240 -252z"/>
<glyph glyph-name="Uacute" horiz-adv-x="698" unicode="Ú" d="M331 665l96 186h109l-191 -186h-14zM357 -16q-130 0 -191 53.5t-61 170.5v384q0 4 -3.5 6t-14.5 4t-33 4l-37 4l-3 16h294l-3 -16l-44 -4q-43 -4 -43 -17v-354q0 -204 179 -204q86 0 133 53.5t47 157.5l-1 277q0 49 -15 66t-58 21l-29 4l-3 16h221l-3 -16l-28 -4 q-35 -4 -48.5 -22.5t-13.5 -68.5l-2 -279q-2 -252 -240 -252z"/>
<glyph glyph-name="Ucircumflex" horiz-adv-x="698" unicode="Û" d="M226 657l135 195h17l135 -195h-14l-128 104h-2l-130 -104h-13zM357 -16q-130 0 -191 53.5t-61 170.5v384q0 4 -3.5 6t-14.5 4t-33 4l-37 4l-3 16h294l-3 -16l-44 -4q-43 -4 -43 -17v-354q0 -204 179 -204q86 0 133 53.5t47 157.5l-1 277q0 49 -15 66t-58 21l-29 4l-3 16 h221l-3 -16l-28 -4q-35 -4 -48.5 -22.5t-13.5 -68.5l-2 -279q-2 -252 -240 -252z"/>
<glyph glyph-name="Udieresis" horiz-adv-x="698" unicode="Ü" d="M477 684q-27 0 -42.5 18t-15.5 40q0 23 15.5 42t42.5 19t42.5 -19t15.5 -42q0 -22 -15.5 -40t-42.5 -18zM284 684q-27 0 -42.5 18t-15.5 40q0 23 15.5 42t42.5 19t42.5 -19t15.5 -42q0 -22 -15.5 -40t-42.5 -18zM357 -16q-130 0 -191 53.5t-61 170.5v384q0 4 -3.5 6 t-14.5 4t-33 4l-37 4l-3 16h294l-3 -16l-44 -4q-43 -4 -43 -17v-354q0 -204 179 -204q86 0 133 53.5t47 157.5l-1 277q0 49 -15 66t-58 21l-29 4l-3 16h221l-3 -16l-28 -4q-35 -4 -48.5 -22.5t-13.5 -68.5l-2 -279q-2 -252 -240 -252z"/>
<glyph glyph-name="Yacute" horiz-adv-x="626" unicode="Ý" d="M289 665l96 186h109l-191 -186h-14zM162 0l3 16l49 4q44 4 44 17v238l-150 260q-22 38 -38.5 52.5t-43.5 17.5l-26 4l-3 16h287l-3 -16l-25 -2q-43 -4 -43 -26q0 -17 23 -57l119 -212h2l87 160q40 75 40 99q0 16 -12 23.5t-40 11.5l-24 3l-3 16h218l-3 -16l-24 -3 q-34 -6 -58 -30.5t-67 -101.5l-100 -182v-258q0 -6 9 -9t42 -6l41 -3l3 -16h-304z"/>
<glyph glyph-name="Thorn" horiz-adv-x="582" unicode="Þ" d="M293 168q62 0 99.5 41.5t37.5 109.5q0 158 -156 158l-50 -1v-300q36 -8 69 -8zM20 0l3 16l45 4q44 4 44 17v554q0 6 -9 8.5t-43 6.5l-36 3l-3 16h294l-3 -16l-44 -4q-44 -4 -44 -17v-92h77q123 0 186.5 -43.5t63.5 -119.5q0 -83 -72 -134.5t-185 -51.5q-38 0 -70 5v-118 q0 -12 51 -14l48 -4l3 -16h-306z"/>
<glyph glyph-name="germandbls" horiz-adv-x="538" unicode="ß" d="M343 420q70 -37 123 -105t53 -139q0 -75 -50.5 -131.5t-119.5 -56.5q-49 0 -81 23t-32 58q0 27 16.5 44.5t42.5 17.5t39.5 -14.5t13.5 -35.5q0 -19 -10.5 -34t-28.5 -18q4 -8 16.5 -15.5t29.5 -7.5q35 0 57 27.5t22 74.5q0 76 -50 153t-144 131v18q66 13 96 44t30 92 q0 44 -25 74t-64 30q-50 0 -71 -34.5t-21 -116.5v-498h-162l3 15l22 2q15 1 22 2.5t11 4.5t4 9v349l-79 2l17 47h62l2 33q7 96 61.5 152t137.5 56q82 0 129.5 -35t47.5 -97q0 -92 -120 -121z"/>
<glyph glyph-name="agrave" horiz-adv-x="443" unicode="à" d="M252 498l-191 186h108l96 -186h-13zM190 50q40 0 76 36l6 152q-84 -20 -115.5 -48t-31.5 -68q0 -31 19.5 -51.5t45.5 -20.5zM344 -12q-67 0 -75 79l-2 1q-71 -79 -131 -79q-44 0 -76 29.5t-32 72.5q0 55 54.5 93.5t189.5 70.5l1 26v7q0 126 -99 126q-25 0 -47 -9.5 t-22 -16.5q0 -1 13.5 -20t13.5 -36q0 -19 -15.5 -33.5t-38.5 -14.5t-38.5 13t-15.5 32q0 42 71 80t138 38q75 0 108 -32.5t33 -113.5q0 -3 -0.5 -11t-0.5 -12l-9 -183v-7q0 -43 32 -43q16 0 44 26l9 -9q-55 -74 -105 -74z"/>
<glyph glyph-name="aacute" horiz-adv-x="443" unicode="á" d="M174 498l96 186h109l-191 -186h-14zM190 50q40 0 76 36l6 152q-84 -20 -115.5 -48t-31.5 -68q0 -31 19.5 -51.5t45.5 -20.5zM344 -12q-67 0 -75 79l-2 1q-71 -79 -131 -79q-44 0 -76 29.5t-32 72.5q0 55 54.5 93.5t189.5 70.5l1 26v7q0 126 -99 126q-25 0 -47 -9.5 t-22 -16.5q0 -1 13.5 -20t13.5 -36q0 -19 -15.5 -33.5t-38.5 -14.5t-38.5 13t-15.5 32q0 42 71 80t138 38q75 0 108 -32.5t33 -113.5q0 -3 -0.5 -11t-0.5 -12l-9 -183v-7q0 -43 32 -43q16 0 44 26l9 -9q-55 -74 -105 -74z"/>
<glyph glyph-name="acircumflex" horiz-adv-x="443" unicode="â" d="M68 490l135 195h17l135 -195h-14l-128 104h-2l-130 -104h-13zM190 50q40 0 76 36l6 152q-84 -20 -115.5 -48t-31.5 -68q0 -31 19.5 -51.5t45.5 -20.5zM344 -12q-67 0 -75 79l-2 1q-71 -79 -131 -79q-44 0 -76 29.5t-32 72.5q0 55 54.5 93.5t189.5 70.5l1 26v7 q0 126 -99 126q-25 0 -47 -9.5t-22 -16.5q0 -1 13.5 -20t13.5 -36q0 -19 -15.5 -33.5t-38.5 -14.5t-38.5 13t-15.5 32q0 42 71 80t138 38q75 0 108 -32.5t33 -113.5q0 -3 -0.5 -11t-0.5 -12l-9 -183v-7q0 -43 32 -43q16 0 44 26l9 -9q-55 -74 -105 -74z"/>
<glyph glyph-name="atilde" horiz-adv-x="443" unicode="ã" d="M288 505q-34 0 -95 32.5t-79 32.5q-19 0 -29.5 -11t-16.5 -46h-15q8 65 26.5 92t57.5 27q32 0 93 -32.5t79 -32.5q19 0 30.5 11t17.5 45h14q-7 -64 -25.5 -91t-57.5 -27zM190 50q40 0 76 36l6 152q-84 -20 -115.5 -48t-31.5 -68q0 -31 19.5 -51.5t45.5 -20.5zM344 -12 q-67 0 -75 79l-2 1q-71 -79 -131 -79q-44 0 -76 29.5t-32 72.5q0 55 54.5 93.5t189.5 70.5l1 26v7q0 126 -99 126q-25 0 -47 -9.5t-22 -16.5q0 -1 13.5 -20t13.5 -36q0 -19 -15.5 -33.5t-38.5 -14.5t-38.5 13t-15.5 32q0 42 71 80t138 38q75 0 108 -32.5t33 -113.5 q0 -3 -0.5 -11t-0.5 -12l-9 -183v-7q0 -43 32 -43q16 0 44 26l9 -9q-55 -74 -105 -74z"/>
<glyph glyph-name="adieresis" horiz-adv-x="443" unicode="ä" d="M112 517q-27 0 -42.5 18t-15.5 40q0 23 15.5 42t42.5 19t42.5 -19t15.5 -42q0 -22 -15.5 -40t-42.5 -18zM305 517q-27 0 -42.5 18t-15.5 40q0 23 15.5 42t42.5 19t42.5 -19t15.5 -42q0 -22 -15.5 -40t-42.5 -18zM190 50q40 0 76 36l6 152q-84 -20 -115.5 -48t-31.5 -68 q0 -31 19.5 -51.5t45.5 -20.5zM344 -12q-67 0 -75 79l-2 1q-71 -79 -131 -79q-44 0 -76 29.5t-32 72.5q0 55 54.5 93.5t189.5 70.5l1 26v7q0 126 -99 126q-25 0 -47 -9.5t-22 -16.5q0 -1 13.5 -20t13.5 -36q0 -19 -15.5 -33.5t-38.5 -14.5t-38.5 13t-15.5 32q0 42 71 80 t138 38q75 0 108 -32.5t33 -113.5q0 -3 -0.5 -11t-0.5 -12l-9 -183v-7q0 -43 32 -43q16 0 44 26l9 -9q-55 -74 -105 -74z"/>
<glyph glyph-name="aring" horiz-adv-x="441" unicode="å" d="M190 50q40 0 76 36l6 152q-84 -20 -115.5 -48t-31.5 -68q0 -31 19.5 -51.5t45.5 -20.5zM212 518q33 0 53 22.5t20 54.5q0 31 -20 53.5t-53 22.5q-34 0 -54 -22t-20 -54t20 -54.5t54 -22.5zM344 -12q-67 0 -75 79l-2 1q-71 -79 -131 -79q-44 0 -76 29.5t-32 72.5 q0 55 54.5 93.5t189.5 70.5l1 26v7q0 126 -99 126q-25 0 -47 -9.5t-22 -16.5q0 -1 13.5 -20t13.5 -36q0 -19 -15.5 -33.5t-38.5 -14.5t-38.5 13t-15.5 32q0 42 71 80t138 38q75 0 108 -32.5t33 -113.5q0 -3 -0.5 -11t-0.5 -12l-9 -183v-7q0 -43 32 -43q16 0 44 26l9 -9 q-55 -74 -105 -74zM212 503q-41 0 -66 26.5t-25 65.5q0 38 25 64.5t66 26.5t65.5 -26.5t24.5 -64.5q0 -39 -24.5 -65.5t-65.5 -26.5z"/>
<glyph glyph-name="ae" horiz-adv-x="690" unicode="æ" d="M189 48q44 0 99 58q-18 43 -18 107q0 17 1 24q-84 -21 -115 -49t-31 -68q0 -31 19.5 -51.5t44.5 -20.5zM376 297l183 2v8q0 52 -19 86.5t-57 34.5t-68.5 -37.5t-38.5 -93.5zM136 -13q-44 0 -76 30t-32 72q0 56 54.5 95.5t189.5 71.5l1 26v14q0 59 -26.5 88.5t-72.5 29.5 q-25 0 -47 -9.5t-22 -16.5q0 -1 13.5 -20t13.5 -36q0 -19 -15.5 -33.5t-38.5 -14.5t-38.5 13t-15.5 32q0 42 70.5 80t141.5 38q86 0 111 -56q62 57 149 57q77 0 121 -40t44 -103q0 -13 -3 -28q-270 3 -283 3q-2 -9 -2 -39q0 -83 42.5 -134.5t108.5 -51.5q85 0 131 72l11 -6 q-66 -134 -194 -134q-60 0 -106 28.5t-70 76.5q-47 -53 -84.5 -79t-75.5 -26z"/>
<glyph glyph-name="ccedilla" horiz-adv-x="429" unicode="ç" d="M231 -15h-4q-88 0 -146 62.5t-58 156.5q0 103 66.5 173t167.5 70q66 0 109.5 -27t43.5 -69q0 -25 -16.5 -40.5t-39.5 -15.5q-24 0 -40 17.5t-16 41.5v7q0 13 7.5 26.5t7.5 14.5q-2 9 -19.5 17.5t-36.5 8.5q-55 0 -91.5 -50.5t-36.5 -133.5q0 -86 42 -138t109 -52 q80 0 126 73l11 -6q-60 -121 -163 -134l-46 -50q22 2 31 2q53 0 86.5 -22.5t33.5 -59.5q0 -99 -213 -127l-5 12q77 14 115.5 34.5t38.5 54.5q0 55 -86 55q-35 0 -68 -11v12z"/>
<glyph glyph-name="egrave" horiz-adv-x="445" unicode="è" d="M271 498l-191 186h108l96 -186h-13zM132 297l183 1q1 56 -18 93t-58 37q-38 0 -68.5 -37.5t-38.5 -93.5zM228 -15q-88 0 -146.5 63t-58.5 157q0 103 65.5 173t163.5 70q76 0 120.5 -40.5t44.5 -102.5q0 -13 -3 -28q-273 3 -283 3q-3 -14 -3 -39q1 -84 43.5 -135.5 t108.5 -51.5q84 0 130 73l11 -6q-66 -136 -193 -136z"/>
<glyph glyph-name="eacute" horiz-adv-x="445" unicode="é" d="M189 498l96 186h109l-191 -186h-14zM132 297l183 1q1 56 -18 93t-58 37q-38 0 -68.5 -37.5t-38.5 -93.5zM228 -15q-88 0 -146.5 63t-58.5 157q0 103 65.5 173t163.5 70q76 0 120.5 -40.5t44.5 -102.5q0 -13 -3 -28q-273 3 -283 3q-3 -14 -3 -39q1 -84 43.5 -135.5 t108.5 -51.5q84 0 130 73l11 -6q-66 -136 -193 -136z"/>
<glyph glyph-name="ecircumflex" horiz-adv-x="445" unicode="ê" d="M92 490l135 195h17l135 -195h-14l-128 104h-2l-130 -104h-13zM132 297l183 1q1 56 -18 93t-58 37q-38 0 -68.5 -37.5t-38.5 -93.5zM228 -15q-88 0 -146.5 63t-58.5 157q0 103 65.5 173t163.5 70q76 0 120.5 -40.5t44.5 -102.5q0 -13 -3 -28q-273 3 -283 3q-3 -14 -3 -39 q1 -84 43.5 -135.5t108.5 -51.5q84 0 130 73l11 -6q-66 -136 -193 -136z"/>
<glyph glyph-name="edieresis" horiz-adv-x="445" unicode="ë" d="M134 517q-27 0 -42.5 18t-15.5 40q0 23 15.5 42t42.5 19t42.5 -19t15.5 -42q0 -22 -15.5 -40t-42.5 -18zM327 517q-27 0 -42.5 18t-15.5 40q0 23 15.5 42t42.5 19t42.5 -19t15.5 -42q0 -22 -15.5 -40t-42.5 -18zM132 297l183 1q1 56 -18 93t-58 37q-38 0 -68.5 -37.5 t-38.5 -93.5zM228 -15q-88 0 -146.5 63t-58.5 157q0 103 65.5 173t163.5 70q76 0 120.5 -40.5t44.5 -102.5q0 -13 -3 -28q-273 3 -283 3q-3 -14 -3 -39q1 -84 43.5 -135.5t108.5 -51.5q84 0 130 73l11 -6q-66 -136 -193 -136z"/>
<glyph glyph-name="igrave" horiz-adv-x="259" unicode="ì" d="M166 498l-191 186h108l96 -186h-13zM19 0l3 16l19 1q23 2 31.5 5t8.5 12v272q0 45 -7.5 59t-34.5 20l-22 5l1 12l162 44v-414q0 -7 8.5 -10t38.5 -5l16 -1l3 -16h-227z"/>
<glyph glyph-name="iacute" horiz-adv-x="259" unicode="í" d="M83 498l96 186h109l-191 -186h-14zM19 0l3 16l19 1q23 2 31.5 5t8.5 12v272q0 45 -7.5 59t-34.5 20l-22 5l1 12l162 44v-414q0 -7 8.5 -10t38.5 -5l16 -1l3 -16h-227z"/>
<glyph glyph-name="icircumflex" horiz-adv-x="259" unicode="î" d="M19 0l3 16l19 1q23 2 31.5 5t8.5 12v272q0 45 -7.5 59t-34.5 20l-22 5l1 12l162 44v-414q0 -7 8.5 -10t38.5 -5l16 -1l3 -16h-227zM1 490l125 195h16l125 -195h-14l-118 104h-2l-119 -104h-13z"/>
<glyph glyph-name="idieresis" horiz-adv-x="259" unicode="ï" d="M38 517q-27 0 -42.5 18t-15.5 40q0 23 15.5 42t42.5 19t42.5 -19t15.5 -42q0 -22 -15.5 -40t-42.5 -18zM231 517q-27 0 -42.5 18t-15.5 40q0 23 15.5 42t42.5 19t42.5 -19t15.5 -42q0 -22 -15.5 -40t-42.5 -18zM19 0l3 16l19 1q23 2 31.5 5t8.5 12v272q0 45 -7.5 59 t-34.5 20l-22 5l1 12l162 44v-414q0 -7 8.5 -10t38.5 -5l16 -1l3 -16h-227z"/>
<glyph glyph-name="eth" horiz-adv-x="503" unicode="ð" d="M256 6q54 0 84 52t30 146q0 102 -33 163.5t-89 61.5q-53 0 -83 -53t-30 -143q0 -110 30.5 -168.5t90.5 -58.5zM227 555l-135 -44l2 23l111 36q-55 35 -130 50l6 15q95 -10 174 -48l121 39l2 -22l-96 -31q95 -54 147 -141t53 -184q0 -114 -64.5 -187.5t-166.5 -73.5 q-101 0 -164.5 65.5t-63.5 163.5q0 101 63.5 166t159.5 65q45 0 82 -13q-39 74 -101 121z"/>
<glyph glyph-name="ntilde" horiz-adv-x="533" unicode="ñ" d="M347 505q-34 0 -95 32.5t-79 32.5q-19 0 -29.5 -11t-16.5 -46h-15q8 65 26.5 92t57.5 27q32 0 93 -32.5t79 -32.5q19 0 30.5 11t17.5 45h14q-7 -64 -25.5 -91t-57.5 -27zM19 0l3 16l19 1q23 2 31.5 5t8.5 12v271q0 45 -8 59.5t-34 20.5l-23 5l1 12l164 44l-2 -82h2 q30 25 50.5 39.5t54 29t63.5 14.5q50 0 80 -31q33 -33 33 -108v-275q0 -12 49 -16l15 -1l3 -16h-225l3 16l19 1q23 1 30 5t7 12v247q0 53 -21 75t-65 22q-53 0 -98 -36v-310q0 -7 8.5 -10t36.5 -5l19 -1l2 -16h-226z"/>
<glyph glyph-name="ograve" horiz-adv-x="515" unicode="ò" d="M282 498l-191 186h108l96 -186h-13zM259 5q54 0 87 57t33 142q0 140 -52 194q-30 30 -71 30q-56 0 -88 -56.5t-32 -140.5q0 -143 51 -195q29 -31 72 -31zM254 -14q-103 0 -167 66t-64 163q0 98 68 165t170 67t166.5 -64.5t64.5 -160.5q0 -100 -67.5 -168t-170.5 -68z"/>
<glyph glyph-name="oacute" horiz-adv-x="515" unicode="ó" d="M218 498l96 186h109l-191 -186h-14zM259 5q54 0 87 57t33 142q0 140 -52 194q-30 30 -71 30q-56 0 -88 -56.5t-32 -140.5q0 -143 51 -195q29 -31 72 -31zM254 -14q-103 0 -167 66t-64 163q0 98 68 165t170 67t166.5 -64.5t64.5 -160.5q0 -100 -67.5 -168t-170.5 -68z"/>
<glyph glyph-name="ocircumflex" horiz-adv-x="515" unicode="ô" d="M114 490l135 195h17l135 -195h-14l-128 104h-2l-130 -104h-13zM259 5q54 0 87 57t33 142q0 140 -52 194q-30 30 -71 30q-56 0 -88 -56.5t-32 -140.5q0 -143 51 -195q29 -31 72 -31zM254 -14q-103 0 -167 66t-64 163q0 98 68 165t170 67t166.5 -64.5t64.5 -160.5 q0 -100 -67.5 -168t-170.5 -68z"/>
<glyph glyph-name="otilde" horiz-adv-x="515" unicode="õ" d="M333 505q-34 0 -95 32.5t-79 32.5q-19 0 -29.5 -11t-16.5 -46h-15q8 65 26.5 92t57.5 27q32 0 93 -32.5t79 -32.5q19 0 30.5 11t17.5 45h14q-7 -64 -25.5 -91t-57.5 -27zM259 5q54 0 87 57t33 142q0 140 -52 194q-30 30 -71 30q-56 0 -88 -56.5t-32 -140.5 q0 -143 51 -195q29 -31 72 -31zM254 -14q-103 0 -167 66t-64 163q0 98 68 165t170 67t166.5 -64.5t64.5 -160.5q0 -100 -67.5 -168t-170.5 -68z"/>
<glyph glyph-name="odieresis" horiz-adv-x="515" unicode="ö" d="M161 517q-27 0 -42.5 18t-15.5 40q0 23 15.5 42t42.5 19t42.5 -19t15.5 -42q0 -22 -15.5 -40t-42.5 -18zM354 517q-27 0 -42.5 18t-15.5 40q0 23 15.5 42t42.5 19t42.5 -19t15.5 -42q0 -22 -15.5 -40t-42.5 -18zM259 5q54 0 87 57t33 142q0 140 -52 194q-30 30 -71 30 q-56 0 -88 -56.5t-32 -140.5q0 -143 51 -195q29 -31 72 -31zM254 -14q-103 0 -167 66t-64 163q0 98 68 165t170 67t166.5 -64.5t64.5 -160.5q0 -100 -67.5 -168t-170.5 -68z"/>
<glyph glyph-name="divide" d="M273 98q0 -20 -14 -35t-35 -15t-35.5 15t-14.5 35q0 19 14.5 33t35.5 14t35 -14t14 -33zM424 225h-400l3 22h394zM273 377q0 -20 -14.5 -35t-35.5 -15t-35 15t-14 35q0 19 14 33.5t35 14.5t35.5 -14.5t14.5 -33.5z" unicode="÷"/>
<glyph glyph-name="oslash" horiz-adv-x="515" unicode="ø" d="M349 366l-179 -308q5 -8 17 -22q29 -31 72 -31q54 0 87 57t33 142q0 104 -30 162zM161 76l178 307q-2 3 -4 5.5t-4.5 5t-3.5 4.5q-31 31 -71 31q-56 0 -88 -57t-32 -141q0 -99 25 -155zM128 19q-49 30 -77 82t-28 114q0 98 68 165t170 67q55 0 103 -21l90 156h20 l-95 -164q53 -29 83 -81t30 -115q0 -100 -67.5 -168t-170.5 -68q-61 0 -111 25l-80 -139h-20z"/>
<glyph glyph-name="ugrave" horiz-adv-x="511" unicode="ù" d="M281 498l-191 186h108l96 -186h-13zM347 -16l1 85h-3q-93 -83 -166 -83q-45 0 -79 32q-33 33 -33 108l2 275q0 7 -8 9.5t-42 5.5l-16 2l-3 15h169l-3 -281q0 -52 21.5 -74.5t65.5 -22.5q49 0 94 35v293q0 19 -9 25t-39 8l-19 2l-3 15h169v-350q0 -19 4 -26.5t15 -10.5 l47 -12l-1 -11z"/>
<glyph glyph-name="uacute" horiz-adv-x="511" unicode="ú" d="M209 498l96 186h109l-191 -186h-14zM347 -16l1 85h-3q-93 -83 -166 -83q-45 0 -79 32q-33 33 -33 108l2 275q0 7 -8 9.5t-42 5.5l-16 2l-3 15h169l-3 -281q0 -52 21.5 -74.5t65.5 -22.5q49 0 94 35v293q0 19 -9 25t-39 8l-19 2l-3 15h169v-350q0 -19 4 -26.5t15 -10.5 l47 -12l-1 -11z"/>
<glyph glyph-name="ucircumflex" horiz-adv-x="511" unicode="û" d="M108 490l135 195h17l135 -195h-14l-128 104h-2l-130 -104h-13zM347 -16l1 85h-3q-93 -83 -166 -83q-45 0 -79 32q-33 33 -33 108l2 275q0 7 -8 9.5t-42 5.5l-16 2l-3 15h169l-3 -281q0 -52 21.5 -74.5t65.5 -22.5q49 0 94 35v293q0 19 -9 25t-39 8l-19 2l-3 15h169v-350 q0 -19 4 -26.5t15 -10.5l47 -12l-1 -11z"/>
<glyph glyph-name="udieresis" horiz-adv-x="511" unicode="ü" d="M355 517q-27 0 -42.5 18t-15.5 40q0 23 15.5 42t42.5 19t42.5 -19t15.5 -42q0 -22 -15.5 -40t-42.5 -18zM162 517q-27 0 -42.5 18t-15.5 40q0 23 15.5 42t42.5 19t42.5 -19t15.5 -42q0 -22 -15.5 -40t-42.5 -18zM347 -16l1 85h-3q-93 -83 -166 -83q-45 0 -79 32 q-33 33 -33 108l2 275q0 7 -8 9.5t-42 5.5l-16 2l-3 15h169l-3 -281q0 -52 21.5 -74.5t65.5 -22.5q49 0 94 35v293q0 19 -9 25t-39 8l-19 2l-3 15h169v-350q0 -19 4 -26.5t15 -10.5l47 -12l-1 -11z"/>
<glyph glyph-name="yacute" horiz-adv-x="470" unicode="ý" d="M202 498l96 186h109l-191 -186h-14zM100 -258q-28 0 -47.5 16t-19.5 41q0 23 15 38.5t39 15.5q49 0 62 -48q16 4 27.5 23t25.5 59l35 103h-5l-167 371q-15 32 -23.5 41t-31.5 12l-20 3l-3 15h235l-3 -15l-20 -3q-32 -1 -32 -20q0 -11 7 -25l108 -254l72 198q16 44 16 65 q0 18 -11.5 25.5t-39.5 10.5l-19 3l-3 15h179l-3 -15l-20 -3q-29 -3 -41 -20t-39 -89l-110 -296l-44 -134q-23 -69 -50.5 -101t-68.5 -32z"/>
<glyph glyph-name="thorn" horiz-adv-x="510" unicode="þ" d="M269 7q49 0 79 54.5t30 136.5q0 78 -34.5 128.5t-91.5 50.5t-100 -47v-235q20 -38 52 -63t65 -25zM-10 -251l3 16l21 1q23 2 31.5 5t8.5 12v785q0 22 -6.5 30.5t-26.5 14.5l-33 12l1 11l163 44v-322l4 -1q73 85 152 85q77 0 128 -60.5t51 -152.5q0 -110 -70.5 -176.5 t-164.5 -66.5q-58 0 -97 18h-3v-224q0 -12 48 -14l35 -1l3 -16h-248z"/>
<glyph glyph-name="OE" horiz-adv-x="951" unicode="Œ" d="M416 22h48v567l-68 16q-116 -1 -180.5 -81t-64.5 -199q0 -137 66.5 -220t198.5 -83zM392 0h-3q-170 0 -263.5 82.5t-93.5 220.5t101.5 230t278.5 92h462l8 -198h-20l-11 36q-24 80 -64 111t-141 31h-5l-67 -1v-274h34q68 3 96 17t41 54l11 31l18 -1l-23 -226l-17 1l-4 30 q-3 44 -28 57.5t-101 16.5l-27 1v-288l83 -3q55 0 93.5 10.5t63.5 31.5t40 44.5t29 60.5l10 34l23 -1l-29 -200h-495z"/>
<glyph glyph-name="oe" horiz-adv-x="801" unicode="œ" d="M258 4q55 0 87.5 57t32.5 143q0 137 -50 193q-32 32 -73 32q-56 0 -87 -56t-32 -144q0 -139 51 -193q30 -32 71 -32zM488 297l183 2q1 55 -18.5 92t-57.5 37t-69 -37.5t-38 -93.5zM254 -15q-103 0 -167 65.5t-64 164.5q1 97 69 165t170 68q110 0 176 -79q66 79 170 79 q76 0 120.5 -40.5t44.5 -102.5q0 -13 -3 -28q-271 3 -285 3q-1 -9 -1 -39q0 -83 42.5 -135t109.5 -52q84 0 130 73l11 -6q-66 -136 -194 -136q-91 0 -153 76q-69 -76 -176 -76z"/>
<glyph glyph-name="Scaron" horiz-adv-x="513" unicode="Š" d="M255 669l-135 195h13l130 -104h2l129 104h13l-135 -195h-17zM243 -14q-91 0 -194 33l-9 165h21l36 -91q52 -86 152 -86q62 1 98 36.5t36 91.5t-37 86.5t-114 57.5q-86 31 -131 71t-45 111q0 72 56 124.5t151 53.5q58 0 136 -21l42 14l2 -179h-19l-62 134q-49 30 -103 30 q-51 0 -83 -29.5t-32 -73.5q0 -51 36 -78.5t108 -54.5q93 -32 140.5 -75.5t47.5 -120.5q0 -78 -65.5 -138.5t-167.5 -60.5z"/>
<glyph glyph-name="scaron" horiz-adv-x="382" unicode="š" d="M181 478l-135 195h13l130 -104h2l129 104h13l-135 -195h-17zM176 -14q-77 0 -140 24l-7 127l22 1l23 -58q42 -75 109 -75q39 0 64.5 22.5t25.5 57.5q0 33 -27 54t-80 40q-62 23 -95 51.5t-33 83.5q0 59 44 96t114 37q54 0 96 -17l36 11l5 -130l-20 -1l-52 93 q-33 25 -68 25q-36 0 -56.5 -19.5t-20.5 -50.5q0 -33 23.5 -50.5t79.5 -38.5q32 -12 51.5 -22t41 -26t31.5 -39t10 -53q0 -59 -47 -101t-130 -42z"/>
<glyph glyph-name="Ydieresis" horiz-adv-x="626" unicode="Ÿ" d="M224 684q-27 0 -42.5 18t-15.5 40q0 23 15.5 42t42.5 19t42.5 -19t15.5 -42q0 -22 -15.5 -40t-42.5 -18zM417 684q-27 0 -42.5 18t-15.5 40q0 23 15.5 42t42.5 19t42.5 -19t15.5 -42q0 -22 -15.5 -40t-42.5 -18zM162 0l3 16l49 4q44 4 44 17v238l-150 260 q-22 38 -38.5 52.5t-43.5 17.5l-26 4l-3 16h287l-3 -16l-25 -2q-43 -4 -43 -26q0 -17 23 -57l119 -212h2l87 160q40 75 40 99q0 16 -12 23.5t-40 11.5l-24 3l-3 16h218l-3 -16l-24 -3q-34 -6 -58 -30.5t-67 -101.5l-100 -182v-258q0 -6 9 -9t42 -6l41 -3l3 -16h-304z"/>
<glyph glyph-name="circumflex" horiz-adv-x="379" unicode="ˆ" d="M46 490l135 195h17l135 -195h-14l-128 104h-2l-130 -104h-13z"/>
<glyph glyph-name="tilde" horiz-adv-x="386" unicode="˜" d="M269 505q-34 0 -95 32.5t-79 32.5q-19 0 -29.5 -11t-16.5 -46h-15q8 65 26.5 92t57.5 27q32 0 93 -32.5t79 -32.5q19 0 30.5 11t17.5 45h14q-7 -64 -25.5 -91t-57.5 -27z"/>
<glyph glyph-name="thinspace" horiz-adv-x="60" unicode=" "/>
<glyph glyph-name="endash" horiz-adv-x="439" unicode="–" d="M12 214l3 43h411v-43h-414z"/>
<glyph glyph-name="emdash" horiz-adv-x="909" unicode="—" d="M12 214l3 43h882v-43h-885z"/>
<glyph glyph-name="quoteleft" horiz-adv-x="203" unicode="‘" d="M112 389q-39 0 -64.5 27t-25.5 66q0 50 39.5 96t107.5 76l10 -9q-39 -22 -62 -53t-23 -65q0 -19 9 -33t21 -21.5t24.5 -12t21.5 -6.5t9 -3q0 -24 -17.5 -43t-49.5 -19z"/>
<glyph glyph-name="quotesinglbase" horiz-adv-x="203" unicode="‚" d="M36 -139l-12 10q39 21 62.5 51.5t23.5 64.5q0 19 -9 33.5t-21 21.5t-24.5 12t-21.5 6.5t-9 2.5q0 24 18 44t49 20q38 0 63.5 -27.5t25.5 -67.5q0 -50 -39.5 -95.5t-105.5 -75.5z"/>
<glyph glyph-name="quotedblleft" horiz-adv-x="392" unicode="“" d="M112 389q-39 0 -64.5 27t-25.5 66q0 50 39.5 96t107.5 76l10 -9q-39 -22 -62 -53t-23 -65q0 -19 9 -33t21 -21.5t24.5 -12t21.5 -6.5t9 -3q0 -24 -17.5 -43t-49.5 -19zM304 389q-38 0 -63 27t-25 66q0 50 39.5 95.5t105.5 76.5l11 -9q-39 -22 -62.5 -53t-23.5 -65 q0 -19 9 -33t21.5 -21.5t25 -12t21.5 -6.5t9 -3q0 -24 -18 -43t-50 -19z"/>
<glyph glyph-name="quotedblright" horiz-adv-x="392" unicode="”" d="M36 387l-12 10q39 21 62.5 51.5t23.5 64.5q0 19 -9 33.5t-21 21.5t-24.5 12t-21.5 6.5t-9 2.5q0 24 18 44t49 20q38 0 63.5 -27.5t25.5 -67.5q0 -50 -39.5 -95.5t-105.5 -75.5zM228 387l-11 10q39 21 62.5 51.5t23.5 64.5q0 19 -9 33.5t-21.5 21.5t-25 12t-21.5 6.5 t-9 2.5q0 24 18 44t49 20q39 0 64.5 -27.5t25.5 -67.5q0 -50 -39.5 -95.5t-106.5 -75.5z"/>
<glyph glyph-name="dagger" horiz-adv-x="444" unicode="†" d="M212 -156v563h-195l-2 19h197v199h20v-199h198l-2 -19h-196v-563h-20z"/>
<glyph glyph-name="daggerdbl" horiz-adv-x="444" unicode="‡" d="M212 -156v187h-197l2 21h195v365h-195l-2 20h197v188h20v-188h198l-2 -20h-196v-365h196l2 -21h-198v-187h-20z"/>
<glyph glyph-name="ellipsis" horiz-adv-x="644" unicode="…" d="M103 -13q-28 0 -47.5 20t-19.5 47q0 26 19.5 45t47.5 19t47 -19t19 -45q0 -27 -19 -47t-47 -20zM323 -13q-28 0 -47.5 20t-19.5 47q0 26 19.5 45t47.5 19t47 -19t19 -45q0 -27 -19 -47t-47 -20zM543 -13q-27 0 -46.5 20t-19.5 47q0 26 19.5 45t46.5 19q28 0 47 -19 t19 -45q0 -27 -19 -47t-47 -20z"/>
<glyph glyph-name="perthousand" horiz-adv-x="910" unicode="‰" d="M446 3q51 0 82.5 33.5t31.5 84.5q0 50 -31.5 85t-82.5 35t-82 -35t-31 -85q0 -51 31 -84.5t82 -33.5zM762 3q51 0 82.5 33.5t31.5 84.5q0 50 -31.5 85t-82.5 35t-82.5 -35t-31.5 -85q0 -51 31.5 -84.5t82.5 -33.5zM147 385q52 0 83.5 34t31.5 84t-31.5 85t-83.5 35 q-51 0 -82 -35t-31 -85t31 -84t82 -34zM446 -17q-62 0 -99 40t-37 98q0 59 37 99.5t99 40.5t99.5 -41t37.5 -99t-37.5 -98t-99.5 -40zM762 -17q-62 0 -99.5 40t-37.5 98t37.5 99t99.5 41t99.5 -41t37.5 -99t-37.5 -98t-99.5 -40zM58 -14l452 654h24l-451 -654h-25zM147 365 q-61 0 -98.5 40t-37.5 98t37.5 99t98.5 41q62 0 100 -41t38 -99t-38 -98t-100 -40z"/>
<glyph glyph-name="guilsinglleft" horiz-adv-x="275" unicode="‹" d="M245 43l-226 167v23l226 168l5 -9l-130 -170l130 -171z"/>
<glyph glyph-name="guilsinglright" horiz-adv-x="275" unicode="›" d="M32 43l-6 9l131 170l-131 170l6 9l226 -168v-23z"/>
<glyph glyph-name="fraction" horiz-adv-x="479" unicode="⁄" d="M-9 -14l469 654h28l-469 -654h-28z"/>
<glyph glyph-name="Euro" horiz-adv-x="509" unicode="€" d="M306 -14q-87 0 -153 64t-83 172h-64l3 20h58q-3 30 -3 53q0 32 4 56h-62l3 20h63q23 118 101.5 188.5t176.5 70.5q65 0 104 -22t39 -60q0 -22 -16 -37.5t-40 -15.5q-27 0 -42.5 19t-15.5 45q0 18 7 31q-23 18 -48 18q-67 0 -112.5 -65.5t-55.5 -171.5h196l3 -20h-200v-34 q0 -40 4 -75h193l3 -20h-190q17 -79 64.5 -123.5t109.5 -44.5q90 0 143 79l11 -6q-71 -141 -201 -141z"/>
<glyph glyph-name="trademark" horiz-adv-x="564" unicode="™" d="M71 403l2 11l20 3q12 1 12 7v190h-6q-23 -1 -37 -15.5t-26 -43.5l-3 -9h-12l7 79h205l4 -78h-12l-3 8q-12 31 -25 45t-37 14h-8v-191q0 -4 14 -6l17 -3l1 -11h-113zM256 403l2 11l12 2q13 1 16.5 8.5t3.5 36.5l4 138q-4 10 -16 13l-16 2l-1 11h90l46 -158h4l54 158h90 l-1 -11l-18 -2q-13 -3 -13 -8l4 -167q1 -12 3.5 -15t12.5 -5l15 -3l1 -11h-110v11l18 3q11 1 10 21l-2 165h-4l-69 -196h-20l-61 191h-4l-3 -139v-11q0 -20 3.5 -25.5t16.5 -6.5l13 -2l1 -11h-82z"/>
<glyph glyph-name="minus" d="M410 225h-372l3 22h366z" unicode="−"/>
<glyph glyph-name="approxequal" d="M411 367h22q-17 -94 -106 -94q-33 0 -104 33.5t-102 33.5q-34 0 -54.5 -15t-29.5 -57h-22q17 94 106 94q33 0 104 -33.5t102 -33.5q36 0 55.5 15t28.5 57zM411 203h22q-17 -94 -106 -94q-33 0 -104 33.5t-102 33.5q-34 0 -54.5 -15t-29.5 -57h-22q17 94 106 94 q33 0 104 -33.5t102 -33.5q36 0 55.5 15t28.5 57z" unicode="≈"/>
<glyph glyph-name="notequal" d="M29 311l-3 22h215l43 150h23l-43 -150h158l-3 -22h-161l-43 -151h204l3 -22h-213l-45 -160h-23l45 160h-160l3 22h163l43 151h-206z" unicode="≠"/>
<glyph glyph-name="lessequal" horiz-adv-x="438" unicode="≤" d="M409 87l-396 173v14l396 173l8 -20l-366 -157v-4l366 -159zM418 27h-405l3 22h399z"/>
<glyph glyph-name="greaterequal" horiz-adv-x="438" unicode="≥" d="M425 260l-396 -173l-8 20l366 159v4l-366 157l8 20l396 -173v-14zM425 27h-405l3 22h399z"/>
</font>
</defs>
</svg>
