<?xml version="1.0" encoding="UTF-8" standalone="no"?>
<!DOCTYPE svg  PUBLIC '-//W3C//DTD SVG 1.1//EN'  'http://www.w3.org/Graphics/SVG/1.1/DTD/svg11.dtd'>
<svg xmlns="http://www.w3.org/2000/svg">
<defs>
<font id="FreightDispProSemibold-Italic" horiz-adv-x="448">
<font-face slope="-12" underline-position="-146" font-weight="600" descent="-200" panose-1="2 0 6 3 8 0 0 9 0 4" units-per-em="1000" unicode-range="U+0020-2265" bbox="-180 -264 1050 852" x-height="447" underline-thickness="20" font-family="FreightDispProSemibold" ascent="800" font-style="italic" cap-height="625"/>
<missing-glyph horiz-adv-x="1000"/>
<glyph glyph-name=".notdef" horiz-adv-x="1000"/>
<glyph glyph-name=".null" horiz-adv-x="0"/>
<glyph glyph-name="nonmarkingreturn" horiz-adv-x="333"/>
<glyph glyph-name="space" horiz-adv-x="180" unicode=" "/>
<glyph glyph-name="exclam" horiz-adv-x="268" unicode="!" d="M104 -14q-27 0 -45.5 19t-18.5 45q0 24 18.5 42.5t44.5 18.5q27 0 45 -18.5t18 -42.5q0 -26 -18 -45t-44 -19zM135 194q-1 -4 -6 -4q-3 0 -5 1.5t-1 3.5l24 395q4 50 51 50q2 0 6 -0.5t6 -0.5h4q51 -4 51 -38q0 -12 -4 -23z"/>
<glyph glyph-name="quotedbl" horiz-adv-x="342" unicode='&quot;' d="M38 403l141 242h2l66 -30l-188 -212h-21zM206 403l141 242h1l66 -30l-188 -212h-20z"/>
<glyph glyph-name="numbersign" horiz-adv-x="518" unicode="#" d="M168 207h163l55 209h-163zM91 -5l51 193h-136v19h141l54 209h-135v18h141l52 198h21l-53 -198h163l53 198h21l-52 -198h134v-18h-140l-54 -209h134v-19h-140l-50 -193h-21l51 193h-163l-52 -193h-20z"/>
<glyph glyph-name="dollar" horiz-adv-x="506" unicode="$" d="M362 602q-33 14 -68 14q-48 0 -82.5 -30t-34.5 -75q0 -38 24.5 -67t71.5 -56zM143 21q32 -13 72 -13q61 0 99.5 38.5t39.5 94.5q0 72 -107 132q-104 -251 -104 -252zM112 -2q-59 12 -110 39l21 161h20l22 -92q19 -51 61 -76l104 252l-1 1q-71 40 -108.5 80.5t-37.5 99.5 q0 70 59.5 122t147.5 52q38 0 83 -9l46 111h22l-48 -116q12 -3 54 -18l47 11l-30 -175l-18 1l-39 133l-26 18l-90 -215l9 -5q74 -40 113 -83t39 -103q0 -81 -67 -140.5t-170 -59.5q-41 0 -83 8l-66 -160h-21z"/>
<glyph glyph-name="percent" horiz-adv-x="608" unicode="%" d="M442 4q52 0 85 35.5t33 87.5q0 49 -31.5 82t-80.5 33q-52 0 -85 -36.5t-33 -87.5q0 -50 31 -82t81 -32zM199 384q52 0 85 35t33 86q0 50 -31 83.5t-81 33.5q-52 0 -85 -36.5t-33 -87.5q0 -50 31 -82t81 -32zM440 -16q-59 0 -96 37.5t-37 94.5q0 61 40 103.5t102 42.5 q59 0 96.5 -38.5t37.5 -95.5q0 -60 -40 -102t-103 -42zM10 -14l598 654h26l-597 -654h-27zM198 364q-59 0 -96.5 38t-37.5 95q0 60 40 102.5t102 42.5q60 0 97.5 -38.5t37.5 -95.5q0 -60 -40 -102t-103 -42z"/>
<glyph glyph-name="ampersand" horiz-adv-x="733" unicode="&amp;" d="M273 435q9 -33 31.5 -53t51.5 -20q10 0 17 6.5t7 14.5q0 21 -26.5 36.5t-64.5 15.5h-16zM630 381q40 -15 63 -49.5t23 -80.5q0 -109 -107.5 -187t-257.5 -78q-146 0 -236.5 69.5t-90.5 176.5q0 67 42.5 120.5t112.5 80.5q-7 25 -7 44q0 67 48 114.5t116 47.5h2 q55 0 91.5 -42t36.5 -102q0 -8 -2 -24l-17 3v9q0 41 -23.5 69.5t-64.5 28.5q-39 0 -65 -32t-26 -78q0 -13 1 -20q7 1 20 1q51 0 83.5 -22.5t32.5 -55.5q0 -25 -21 -41t-55 -16q-43 0 -82.5 27.5t-59.5 69.5q-73 -36 -73 -123q0 -109 85.5 -169.5t240.5 -60.5q114 0 186 54 t72 136q0 47 -29.5 81.5t-69.5 34.5q-36 0 -71.5 -29.5t-35.5 -57.5q0 -27 21 -42.5t55 -16.5q-21 9 -21 35q0 18 12 31.5t33 13.5q20 0 32.5 -12.5t12.5 -32.5q0 -23 -17 -39t-45 -16q-50 0 -85 34t-35 88q0 40 28 68t67.5 43.5t79 30.5t67.5 38.5t28 57.5q0 28 -21.5 46 t-58.5 19q21 -10 21 -40q0 -19 -11.5 -32.5t-34.5 -13.5q-22 0 -35.5 13.5t-13.5 35.5q0 24 20.5 41t48.5 17q53 0 89 -40t36 -98q0 -44 -29.5 -72t-105.5 -56z"/>
<glyph glyph-name="quotesingle" horiz-adv-x="176" unicode="&apos;" d="M38 403l141 242h2l66 -30l-188 -212h-21z"/>
<glyph glyph-name="parenleft" horiz-adv-x="340" unicode="(" d="M252 -264q-77 50 -137.5 156t-60.5 242q0 39 6 81q13 85 50 160.5t86 128.5t98 89t95 55l12 -19q-45 -19 -92.5 -54.5t-94 -86.5t-81.5 -123t-47 -152q-6 -40 -6 -80q0 -128 57 -230t129 -149z"/>
<glyph glyph-name="parenright" horiz-adv-x="340" unicode=")" d="M-58 -264l-11 19q45 19 92 54.5t93.5 86.5t81.5 123t47 152q6 42 6 80q0 128 -56.5 229.5t-128.5 149.5l13 18q77 -50 137.5 -156t60.5 -241q0 -39 -6 -81q-13 -85 -50 -161t-86 -129t-98 -89t-95 -55z"/>
<glyph glyph-name="asterisk" horiz-adv-x="321" unicode="*" d="M244 308l-51 40l13 115q0 1 -4 3t-5 1l-67 -91l-65 4l-4 7l22 62l110 22q2 1 2 5t-2 6l-105 41l-15 63l6 7l67 -6l52 -101q0 -1 2 -1t4.5 1t2.5 2l7 116l54 31h1l7 -2l17 -62l-81 -85q-1 -1 1.5 -5t4.5 -4l111 34l47 -45q1 -7 0 -8l-54 -36l-104 50q-2 1 -5 -2t-2 -5 l66 -97l-26 -58q0 -2 -6 -2h-1z"/>
<glyph glyph-name="plus" d="M216 27v198h-198l3 22h195v198h22v-198h195l3 -22h-198v-198h-22z" unicode="+"/>
<glyph glyph-name="comma" horiz-adv-x="201" unicode="," d="M-31 -129l-8 9q48 19 80 51.5t32 69.5q0 25 -17 41t-37 16q-9 0 -19 -5q-1 4 -1 11q0 24 18 43.5t48 19.5q35 0 57.5 -24.5t22.5 -59.5q0 -53 -52 -101.5t-124 -70.5z"/>
<glyph glyph-name="hyphen" horiz-adv-x="295" unicode="-" d="M23 213l10 45h245l-7 -45h-248z"/>
<glyph glyph-name="period" horiz-adv-x="214" unicode="." d="M77 -13q-27 0 -46.5 19.5t-19.5 46.5t19 46t46 19q28 0 47 -19t19 -46t-19 -46.5t-46 -19.5z"/>
<glyph glyph-name="slash" horiz-adv-x="258" unicode="/" d="M13 -236l212 877h22l-212 -877h-22z"/>
<glyph glyph-name="zero" horiz-adv-x="530" unicode="0" d="M234 5q68 0 117 100.5t49 224.5q0 65 -27 101.5t-74 36.5q-68 0 -116 -101.5t-48 -228.5q0 -65 25.5 -99t73.5 -34zM244 -13q-93 0 -150 60.5t-57 158.5q0 116 74.5 198.5t179.5 82.5q93 0 150 -61t57 -157q0 -117 -74.5 -199.5t-179.5 -82.5z"/>
<glyph glyph-name="one" horiz-adv-x="355" unicode="1" d="M12 0l4 16l43 4q39 1 42 18l73 391l-99 16l5 14l203 24l-85 -447q-1 -4 2 -7t13.5 -5.5t28.5 -3.5l38 -4l1 -16h-269z"/>
<glyph glyph-name="two" horiz-adv-x="458" unicode="2" d="M-14 0l1 32q185 126 244.5 180.5t59.5 112.5q0 47 -27.5 73t-73.5 26h-3q-62 0 -118 -65l-6 11q38 54 88 85t105 31h2q60 0 99 -34t39 -84q0 -17 -3.5 -33t-13.5 -32t-19 -28t-29 -29t-34 -28t-43.5 -31t-47.5 -31t-56.5 -35.5l-60.5 -38.5v-4h180q47 0 76.5 21.5 t64.5 78.5l12 19h17l-81 -197h-372z"/>
<glyph glyph-name="three" horiz-adv-x="419" unicode="3" d="M97 -199q-64 0 -108.5 19.5t-44.5 61.5q0 21 15.5 37.5t39.5 16.5t42.5 -19t18.5 -46q0 -19 -8 -34q26 -15 55 -15q62 0 105 51t43 120q0 62 -37 99t-102 37q-33 0 -63 -9l-6 13q123 54 174.5 93.5t51.5 101.5q0 41 -27.5 69t-70.5 28q-35 0 -69.5 -21.5t-59.5 -54.5 l-7 12q35 55 87.5 90t113.5 35q59 0 99 -35t40 -87q0 -110 -190 -179v-3q8 2 14 2q70 -4 112 -49.5t42 -107.5q0 -88 -81 -157t-179 -69z"/>
<glyph glyph-name="four" horiz-adv-x="493" unicode="4" d="M45 80h204l55 282h-4zM200 -184l36 200h-263v16l406 450l38 -2l-75 -400h112l-19 -64h-106l-37 -200h-92z"/>
<glyph glyph-name="five" horiz-adv-x="414" unicode="5" d="M67 -200q-58 5 -92.5 26.5t-33.5 57.5q2 22 18 37t38 15h4q28 -1 42.5 -24t14.5 -54q0 -16 -2 -23q19 -11 45 -14h6q52 0 93 42.5t45 107.5v9q0 71 -59 123t-153 74l114 295h262l-25 -95h-251l-43 -117q116 -26 181 -87t65 -143v-10q-5 -90 -79.5 -155.5t-172.5 -65.5 q-2 0 -8 0.5t-9 0.5z"/>
<glyph glyph-name="six" horiz-adv-x="508" unicode="6" d="M233 6q57 0 98 65t41 151q0 63 -28.5 101.5t-79.5 38.5q-49 0 -98 -47q-31 -76 -31 -154q0 -155 98 -155zM237 -13q-92 0 -146.5 63.5t-54.5 157.5q0 78 38 154t104.5 136.5t168 98.5t218.5 40l3 -15q-143 -15 -246 -92t-154 -191l5 -1q73 62 150 62q70 0 111.5 -45 t41.5 -121q0 -102 -72.5 -174.5t-166.5 -72.5z"/>
<glyph glyph-name="seven" horiz-adv-x="443" unicode="7" d="M34 -184l365 564l-1 3h-137q-103 0 -136.5 -11t-53.5 -54l-14 -25h-17l56 179h371v-17l-357 -639h-76z"/>
<glyph glyph-name="eight" horiz-adv-x="494" unicode="8" d="M237 3q54 0 87.5 35t34.5 86q0 35 -23.5 69.5t-48.5 54.5t-71 53q-101 -48 -101 -163q0 -59 32 -97t90 -38zM316 350q85 45 85 150q0 51 -25.5 87t-74.5 36t-78.5 -34.5t-29.5 -83.5q0 -44 32 -80t91 -75zM233 -16q-87 0 -149.5 47.5t-62.5 118.5q0 63 50.5 106t128.5 54 v2q-99 71 -100 150q0 71 59 124.5t142 53.5q81 0 136.5 -43t55.5 -110q0 -59 -44.5 -95.5t-116.5 -50.5v-2q119 -81 119 -172q0 -77 -65 -130t-153 -53z"/>
<glyph glyph-name="nine" horiz-adv-x="508" unicode="9" d="M251 112q46 0 98 48q32 78 32 154q0 156 -99 156q-56 0 -97 -65.5t-41 -151.5q0 -63 28.5 -102t78.5 -39zM-49 -161l-3 15q142 15 245 92t154 190h-4q-75 -62 -151 -62q-70 0 -111.5 46t-41.5 122q0 102 72.5 174.5t167.5 72.5q92 0 146 -63.5t54 -157.5q0 -78 -38 -154 t-104.5 -136.5t-167.5 -98.5t-218 -40z"/>
<glyph glyph-name="colon" horiz-adv-x="213" unicode=":" d="M77 -13q-27 0 -46.5 19.5t-19.5 46.5q0 26 19 45t46 19q28 0 47 -19t19 -45q0 -27 -19 -46.5t-46 -19.5zM134 289q-27 0 -46.5 19.5t-19.5 46.5q0 26 19 45t46 19q28 0 47 -19t19 -45q0 -27 -19 -46.5t-46 -19.5z"/>
<glyph glyph-name="semicolon" horiz-adv-x="201" unicode=";" d="M-31 -130l-8 10q48 19 80 51.5t32 68.5q0 25 -16.5 40.5t-37.5 15.5q-12 0 -19 -4q-1 3 -1 11q0 24 18 43t48 19q35 0 57.5 -24.5t22.5 -58.5q0 -53 -52 -101t-124 -71zM130 289q-28 0 -48 19.5t-20 45.5t19.5 45.5t47.5 19.5q27 0 46.5 -19.5t19.5 -45.5t-19 -45.5 t-46 -19.5z"/>
<glyph glyph-name="less" horiz-adv-x="438" unicode="&lt;" d="M413 35l-397 193v14l397 193l8 -20l-368 -177v-4l368 -179z"/>
<glyph glyph-name="equal" d="M29 138l3 22h390l3 -22h-396zM32 311l-3 22h396l-3 -22h-390z" unicode="="/>
<glyph glyph-name="greater" horiz-adv-x="438" unicode="&gt;" d="M428 228l-397 -193l-8 20l368 179v4l-368 177l8 20l397 -193v-14z"/>
<glyph glyph-name="question" horiz-adv-x="331" unicode="?" d="M117 -14q-27 0 -45.5 19t-18.5 45q0 24 18.5 42.5t44.5 18.5q27 0 45 -18t18 -43q0 -26 -18 -45t-44 -19zM145 184q-27 24 -45.5 54.5t-18.5 55.5q0 41 32 64t99 40q63 16 86 29t23 38q0 33 -43.5 59.5t-118.5 26.5q-22 0 -50 -4q-9 12 -9 30q0 63 70 63q78 0 126.5 -52 t48.5 -122q0 -63 -28.5 -97.5t-90.5 -53.5q-59 -17 -79.5 -29t-20.5 -37q0 -29 36 -63z"/>
<glyph glyph-name="at" horiz-adv-x="793" unicode="@" d="M325 113q22 0 61 47t78 119q26 50 26 67q-4 25 -28.5 48.5t-52.5 23.5q-19 0 -37 -16q-31 -29 -60.5 -102.5t-29.5 -124.5q0 -29 12.5 -45.5t30.5 -16.5zM407 -113q-159 0 -262.5 99t-103.5 254v6q2 164 117.5 281t275.5 117h2q147 -2 243 -90.5t96 -226.5v-6 q-2 -111 -72 -190.5t-158 -79.5q-54 0 -80.5 22t-26.5 56v6q0 13 7.5 44.5t14.5 49.5h-4q-58 -90 -96 -131.5t-77 -41.5q-38 0 -65.5 27t-27.5 66q0 58 40.5 130.5t94.5 123.5q66 63 122 63q27 0 42.5 -26.5t17.5 -64.5h4l37 105l81 -3l-63 -162l-39 -134q-7 -20 -7 -38 q0 -49 65 -49q64 0 116 66t53 161v6q0 129 -90.5 213t-228.5 86h-2q-151 0 -260 -112t-111 -268v-8q0 -146 97.5 -239.5t247.5 -93.5q83 0 155 39.5t109 100.5l10 -15q-40 -63 -114 -103t-160 -40z"/>
<glyph glyph-name="A" horiz-adv-x="618" unicode="A" d="M196 276h155l-6 61q-6 61 -13 123l-6 61h-4zM354 253h-170l-46 -91q-49 -90 -49 -111q0 -27 57 -31l30 -4l2 -16h-223l3 16l22 4q42 7 65 33.5t88 146.5l182 349l-3 39q22 4 51 20t41 32h15l64 -520q8 -59 20 -77.5t43 -21.5l34 -5v-16h-290l3 16l35 3q25 2 34.5 13 t9.5 35q0 16 -3 37z"/>
<glyph glyph-name="B" horiz-adv-x="594" unicode="B" d="M310 347q72 0 111 42t39 103q0 53 -33.5 82.5t-97.5 30.5h-34l-49 -253q23 -5 64 -5zM240 20h37q71 1 113 49.5t42 115.5q0 66 -44.5 105t-117.5 39h-28l-56 -292zM-14 0l3 16l42 6q42 5 44 18l105 547q1 6 -7 9.5t-38 7.5l-32 5l-1 16h258q111 0 163.5 -39.5t52.5 -99.5 q0 -63 -53 -102t-147 -47q2 -2 2 -3q82 -13 127.5 -55.5t45.5 -99.5q0 -86 -75.5 -132.5t-215.5 -46.5h-274z"/>
<glyph glyph-name="C" horiz-adv-x="669" unicode="C" d="M366 -14q-146 0 -230.5 80.5t-84.5 206.5q0 148 105.5 257t267.5 109q103 0 172 -39l73 19l-30 -193l-21 1l-38 144q-53 46 -141 46q-81 0 -143.5 -54t-93.5 -137t-31 -177q0 -112 54 -177t150 -65q104 0 180 98l43 76l22 -1l-51 -173l-41 2q-69 -23 -162 -23z"/>
<glyph glyph-name="D" horiz-adv-x="676" unicode="D" d="M252 19q136 1 214.5 103t78.5 257q0 102 -49.5 164t-152.5 62h-49l-107 -566zM-14 0l3 16l43 6q41 6 43 18l105 547q1 6 -7 9.5t-38 7.5l-32 5l-1 16l250 1h3q151 0 231 -73.5t80 -191.5q0 -150 -109.5 -255.5t-296.5 -105.5h-274z"/>
<glyph glyph-name="E" horiz-adv-x="601" unicode="E" d="M-14 0l3 16l40 6q44 6 46 18l105 547q1 6 -7 9.5t-38 7.5l-31 5l-2 16h474l-2 -198h-22l-6 36q-12 42 -23 65.5t-32.5 43t-55 27t-85.5 7.5h-5l-51 -1l-52 -275l37 1q67 2 96 16t48 54l15 31l19 -1l-50 -226l-19 1l2 30q1 5 1 14q0 34 -25 45.5t-96 14.5l-32 1l-54 -288 l87 -4q104 1 158 37t95 111l17 34l23 -1l-63 -200h-515z"/>
<glyph glyph-name="F" horiz-adv-x="573" unicode="F" d="M-14 0l3 16l45 6q39 4 41 18l105 547q1 5 -1.5 7t-11.5 5t-29 5l-34 5l-2 16h482l-8 -198h-23l-6 36q-11 42 -21.5 65t-31 43t-54.5 27.5t-87 7.5l-59 -1l-53 -282l39 1q68 2 97 16t47 53l15 32l18 -1l-49 -225h-18l2 30v8q0 38 -24.5 51t-96.5 15l-34 1l-51 -266 q-1 -5 2 -8t13 -5.5t29 -3.5l47 -5l2 -16h-293z"/>
<glyph glyph-name="G" horiz-adv-x="701" unicode="G" d="M357 -15q-142 0 -224 79t-82 206q0 150 105.5 259.5t270.5 109.5q104 0 173 -39l73 18l-31 -195h-20l-39 148q-50 46 -140 46q-119 0 -195.5 -110t-76.5 -260q0 -110 52.5 -176t144.5 -66q52 0 90 19l42 212q2 7 -8.5 10.5t-42.5 6.5l-39 5l-2 16h287l-5 -16l-41 -5 q-40 -5 -42 -18l-37 -188l55 4v-12q-138 -54 -268 -54z"/>
<glyph glyph-name="H" horiz-adv-x="731" unicode="H" d="M-13 0l3 16l42 6q41 5 44 18l104 547q1 3 0 5t-6 4t-14 4t-25 4l-31 5l-1 16h279l-4 -16l-43 -6q-42 -5 -44 -18l-49 -256h287l50 258q2 7 -6.5 10t-38.5 7l-33 5l-1 16h279l-4 -16l-41 -6q-42 -5 -44 -18l-105 -547q-1 -7 6.5 -9.5t38.5 -7.5l32 -5l1 -16h-279l3 16 l43 6q42 4 44 18l51 268h-287l-52 -270q-1 -7 7 -10t38 -7l34 -5l1 -16h-279z"/>
<glyph glyph-name="I" horiz-adv-x="354" unicode="I" d="M-7 0l3 16l47 6q42 4 44 18l105 547q1 4 -2 7t-13 5.5t-30 4.5l-37 5l-2 16h288l-4 -16l-46 -6q-42 -6 -44 -18l-105 -547q-1 -7 7 -10t38 -7l37 -5l2 -16h-288z"/>
<glyph glyph-name="J" horiz-adv-x="353" unicode="J" d="M-23 -136q-45 0 -71 19t-26 50q0 25 18 42.5t45 17.5t43 -17t16 -41q0 -28 -19 -51h6q79 0 112 184l101 519q1 4 -2 7t-12.5 5.5t-29.5 4.5l-41 5l-1 16h289l-4 -16l-45 -6q-41 -5 -43 -18l-104 -527q-11 -69 -84 -131.5t-148 -62.5z"/>
<glyph glyph-name="K" horiz-adv-x="675" unicode="K" d="M-14 0l3 16l45 6q39 4 41 18l105 547q1 5 -1.5 7t-11.5 5t-29 5l-34 5l-2 16h285l-4 -16l-49 -6q-41 -4 -44 -18l-56 -301l183 157q132 114 132 141q0 17 -47 23l-33 4l-1 16h256l-3 -15l-21 -3q-44 -4 -85 -32t-154 -124l-58 -50l131 -306q21 -49 33 -61t40 -16l24 -2 l2 -16h-271l3 16l25 3q35 3 35 30q0 19 -17 65l-90 214l-91 -76l-41 -214q-1 -7 7 -10.5t37 -6.5l40 -5l2 -16h-286z"/>
<glyph glyph-name="L" horiz-adv-x="571" unicode="L" d="M-14 0l3 16l45 6q39 4 41 18l104 547q1 4 -1 6.5t-11.5 5.5t-29.5 5l-34 5l-2 16h294l-3 -16l-58 -6q-41 -4 -43 -18l-107 -562q70 -4 72 -4q95 0 143 34.5t97 123.5l18 38h23l-62 -215h-489z"/>
<glyph glyph-name="M" horiz-adv-x="830" unicode="M" d="M-21 0l3 16l29 4q41 3 55.5 19t24.5 68l106 474q-12 21 -47 24l-36 4l-2 16h213l72 -478l3 -1l269 479h206l-4 -16l-43 -6q-42 -5 -44 -18l-95 -498q-2 -24 -2 -29q0 -20 8.5 -26.5t34.5 -10.5l33 -5l1 -16h-284l3 16l47 6q24 2 34 15.5t14 51.5l92 483h-4l-320 -566h-36 l-86 549q-1 4 -4 9.5t-3 6.5l-102 -467q-4 -20 -4 -38q0 -25 13.5 -34.5t48.5 -11.5l29 -4l2 -16h-225z"/>
<glyph glyph-name="N" horiz-adv-x="680" unicode="N" d="M500 -6l-297 541h-3l-86 -429q-3 -21 -3 -35q0 -26 13 -36.5t47 -14.5l28 -4l1 -16h-219l3 16l28 4q36 4 53.5 23t24.5 66l88 430q-18 56 -69 65l-21 5l-2 16h199l249 -462h3l71 356q3 21 3 36q0 26 -13 36.5t-46 13.5l-28 4l-2 16h220l-3 -16l-28 -4q-36 -3 -54 -22 t-25 -67l-104 -522h-28z"/>
<glyph glyph-name="O" horiz-adv-x="725" unicode="O" d="M351 8q70 0 127 60.5t86 148t29 177.5q0 98 -48 160.5t-135 62.5q-73 0 -130 -64.5t-84 -152t-27 -173.5q0 -97 48 -158t134 -61zM359 -14q-135 0 -219.5 86.5t-84.5 214.5q0 91 42.5 170.5t123.5 130t182 50.5q135 0 220 -87t85 -215q0 -143 -99.5 -246.5t-249.5 -103.5 z"/>
<glyph glyph-name="P" horiz-adv-x="572" unicode="P" d="M317 303q71 0 113.5 53.5t42.5 130.5q0 54 -29.5 85.5t-83.5 32.5h-65l-55 -287q43 -15 77 -15zM-21 0l3 16l50 6q41 4 43 18l105 547q1 5 -1.5 7.5t-13 5t-30.5 4.5l-39 5l-1 16h276q104 0 162 -43t58 -112q0 -83 -71 -135t-180 -52q-43 0 -104 13l-50 -258q-1 -5 2 -8 t13 -5.5t29 -3.5l52 -5l1 -16h-304z"/>
<glyph glyph-name="Q" horiz-adv-x="726" unicode="Q" d="M351 8q71 0 128 60.5t85.5 148t28.5 177.5q0 98 -48 160.5t-135 62.5q-56 0 -103 -37.5t-76.5 -96.5t-45.5 -126t-16 -130q0 -97 48.5 -158t133.5 -61zM562 -183q-119 0 -190.5 40.5t-100.5 141.5q-100 25 -158 104t-58 184q0 91 42.5 170.5t123.5 130t182 50.5 q135 0 220 -87t85 -215q0 -130 -85.5 -230t-217.5 -116q27 -86 84 -118.5t163 -32.5h6l1 -14q-34 -8 -97 -8z"/>
<glyph glyph-name="R" horiz-adv-x="633" unicode="R" d="M329 326q68 2 110 45.5t42 114.5q0 54 -34.5 86.5t-96.5 32.5h-56l-49 -262q43 -17 84 -17zM-21 0l3 16l50 6q41 4 43 18l104 547q1 4 -1.5 7t-12.5 5.5t-30 4.5l-40 5l-1 16h284q101 0 161 -41.5t60 -107.5q0 -69 -54.5 -114.5t-142.5 -53.5l97 -205q21 -47 39 -63.5 t50 -21.5l15 -2l1 -16h-185l-126 306q-3 1 -24.5 7t-27.5 9l-55 -284q0 -4 5.5 -7.5t15.5 -5.5t23 -4l42 -5l2 -16h-295z"/>
<glyph glyph-name="S" horiz-adv-x="508" unicode="S" d="M227 -13q-120 0 -213 50l22 162h19l22 -93q38 -98 151 -98q61 0 100 38.5t39 94.5q0 44 -32 76.5t-94 65.5q-71 39 -108 80t-37 101q0 69 59.5 121.5t147.5 52.5q71 0 156 -33l48 12l-31 -176l-18 1l-39 134q-50 40 -113 40q-49 0 -83.5 -30t-34.5 -74q0 -45 28.5 -74.5 t95.5 -64.5q74 -41 112.5 -83t38.5 -105q0 -79 -66.5 -138.5t-169.5 -59.5z"/>
<glyph glyph-name="T" horiz-adv-x="655" unicode="T" d="M136 0l3 16l55 6q41 4 43 18l107 566h-31q-122 -5 -198 -135l-18 -39h-23l56 193h551l-25 -193h-19l-6 37q-11 67 -44.5 101t-101.5 36h-29l-108 -568q-1 -4 2 -7t13 -5.5t29 -4.5l44 -5l2 -16h-302z"/>
<glyph glyph-name="U" horiz-adv-x="692" unicode="U" d="M348 -16q-112 0 -180 45t-68 133q0 34 10 81l65 344q1 5 -1.5 7.5t-12.5 5t-30 4.5l-39 5l-2 16h293l-4 -16l-49 -6q-41 -4 -44 -18l-64 -335q-8 -45 -8 -78q0 -146 169 -146q73 0 118.5 45t63.5 142l61 306q4 28 4 35q0 26 -13.5 36.5t-46.5 14.5l-28 4l-2 16h220 l-4 -16l-27 -4q-36 -4 -53.5 -22.5t-24.5 -66.5l-63 -310q-43 -222 -240 -222z"/>
<glyph glyph-name="V" horiz-adv-x="629" unicode="V" d="M256 -9l-93 517q-12 65 -20 79t-40 18l-32 4l-2 16h287l-3 -16l-39 -3q-27 -2 -37 -8.5t-10 -23.5q0 -6 6 -42l67 -403h4l183 343q48 85 48 104q0 25 -57 29l-30 4l-2 16h223l-4 -16l-21 -4q-42 -7 -65 -33.5t-90 -146.5l-238 -434h-35z"/>
<glyph glyph-name="W" horiz-adv-x="964" unicode="W" d="M251 -11l-90 519q-10 61 -20 77t-41 20l-32 4l-1 16h287l-4 -16l-36 -3q-26 -2 -36 -10t-10 -27q0 -11 3 -31l64 -415h4l188 342l-7 43q-11 61 -20.5 77.5t-41.5 19.5l-33 4l-2 16h289l-4 -16l-36 -3q-27 -2 -37.5 -9.5t-10.5 -28.5q0 -14 3 -33l61 -410l3 -1l176 345 q44 80 44 102q0 15 -13 22.5t-45 11.5l-25 4l-2 16h224l-4 -16l-21 -5q-40 -6 -63.5 -31t-73.5 -115l-247 -469h-37l-68 438h-3l-246 -438h-36z"/>
<glyph glyph-name="X" horiz-adv-x="648" unicode="X" d="M-43 0l3 16l30 3q40 5 68.5 27.5t100.5 102.5l134 150l-95 199q-30 66 -43 84.5t-39 21.5l-31 5l-3 16h280l-4 -16l-29 -2q-37 -3 -37 -28q0 -21 20 -64l63 -140h3l95 110q68 76 68 95t-54 25l-24 4l-2 16h236l-4 -16l-26 -3q-42 -5 -72 -28t-102 -103l-105 -120l30 -65 l62 -130l30 -65q20 -44 32.5 -58t34.5 -17l28 -4l2 -16h-275l3 16l30 2q40 3 40 28q0 14 -10 33l-90 200h-4l-29 -35l-60 -68l-29 -34q-69 -77 -69 -96t55 -26l24 -4l2 -16h-238z"/>
<glyph glyph-name="Y" horiz-adv-x="624" unicode="Y" d="M121 0l4 16l54 6q42 4 44 18l46 236l-98 252q-16 42 -30 57t-42 19l-27 5l-1 16h286l-4 -16l-26 -2q-49 -4 -49 -34q0 -16 11 -44l79 -219l4 -1l118 165q21 29 28 39.5t18 26.5t14 24t3 15q0 11 -12 16.5t-41 9.5l-27 4l-2 16h224l-4 -16l-26 -4q-34 -5 -63.5 -31 t-87.5 -105l-133 -184l-48 -247q-1 -4 2 -7t13.5 -5.5t29.5 -4.5l44 -5l1 -16h-302z"/>
<glyph glyph-name="Z" horiz-adv-x="587" unicode="Z" d="M-9 0l3 16l492 585l-1 4h-102q-111 0 -165.5 -35.5t-86.5 -105.5l-13 -31h-20l37 192h489l-3 -16l-495 -585v-3l112 -1h9q60 0 101 9t71 31t49.5 47.5t44.5 70.5l15 33h23l-58 -211h-502z"/>
<glyph glyph-name="bracketleft" horiz-adv-x="325" unicode="[" d="M-4 -239l130 872h247l-1 -21h-224l-127 -830h224l-2 -21h-247z"/>
<glyph glyph-name="backslash" horiz-adv-x="246" unicode="\" d="M210 -236l-212 877h22l212 -877h-22z"/>
<glyph glyph-name="bracketright" horiz-adv-x="325" unicode="]" d="M-57 -239l2 21h224l127 830h-224l1 21h247l-130 -872h-247z"/>
<glyph glyph-name="asciicircum" horiz-adv-x="379" unicode="^" d="M101 490l156 193h36l83 -193h-16l-97 109h-3l-146 -109h-13z"/>
<glyph glyph-name="underscore" horiz-adv-x="453" unicode="_" d="M-28 -36l3 37h424l3 -37h-430z"/>
<glyph glyph-name="grave" horiz-adv-x="389" unicode="`" d="M288 498l-152 186h101l66 -186h-15z"/>
<glyph glyph-name="a" horiz-adv-x="478" unicode="a" d="M153 54q45 0 141 182q8 14 17 42t9 38q-5 31 -30.5 55.5t-54.5 24.5q-21 0 -40 -19q-31 -32 -59 -111.5t-28 -139.5q0 -35 12 -53.5t33 -18.5zM328 -13q-17 0 -50.5 17.5t-33.5 28.5q0 30 48 160h-4q-79 -131 -105 -161q-38 -44 -75 -44q-40 0 -67.5 29.5t-27.5 78.5 q0 72 39 147t96 132q69 71 133 71q28 0 40 -23.5t12 -74.5h5l36 99l89 -3l-73 -202l-56 -192l46 -6l69 89l9 -7q-31 -64 -67 -101.5t-63 -37.5z"/>
<glyph glyph-name="b" horiz-adv-x="449" unicode="b" d="M186 8q24 0 47 23q40 40 71.5 123t31.5 148q0 81 -48 81q-30 0 -64.5 -51.5t-82.5 -156.5q-10 -23 -18.5 -57t-8.5 -46q8 -27 28 -45.5t44 -18.5zM155 -16q-47 0 -88 24.5t-41 63.5q0 10 3 20l135 507q6 23 -6 25l-74 10l3 12l191 27l-31 -114q-76 -247 -105 -337 q-2 -5 0 -6q2 -2 5 4q56 122 100 175t88 53q43 0 69.5 -34t26.5 -88q0 -65 -31.5 -139t-90.5 -132q-32 -33 -73.5 -52t-80.5 -19z"/>
<glyph glyph-name="c" horiz-adv-x="370" unicode="c" d="M149 -13q-58 0 -96 43t-38 106q0 112 79.5 212.5t181.5 100.5q43 0 75 -23.5t32 -57.5q0 -26 -16.5 -44.5t-39.5 -18.5q-22 0 -37.5 13.5t-15.5 32.5q0 32 31 52q-27 22 -51 22q-22 0 -51 -29q-35 -35 -62 -107.5t-27 -138.5q0 -103 77 -103q32 0 59.5 20t66.5 71l10 -8 q-87 -143 -178 -143z"/>
<glyph glyph-name="d" horiz-adv-x="478" unicode="d" d="M153 54q46 0 141 182q8 14 17 42t9 38q-5 30 -30.5 54.5t-54.5 24.5q-20 0 -40 -18q-31 -32 -59 -111.5t-28 -139.5q0 -35 12 -53.5t33 -18.5zM328 -13q-17 0 -50.5 18t-33.5 29q0 28 47 159h-4q-78 -131 -105 -162q-37 -43 -74 -43q-40 0 -67.5 29.5t-27.5 78.5 q0 72 39 147t96 131q72 74 132 74q48 0 52 -100h5l74 251q4 24 -7 25l-84 10l3 12l203 27l-128 -407l-64 -216l46 -6l69 89l9 -8q-31 -64 -67 -101t-63 -37z"/>
<glyph glyph-name="e" horiz-adv-x="378" unicode="e" d="M125 228q92 29 132.5 61.5t40.5 81.5q0 22 -15.5 37t-34.5 15q-21 0 -45 -22q-23 -23 -45.5 -70t-34.5 -102zM150 -13q-59 0 -97 43t-38 106q0 112 79 212.5t176 100.5q49 0 80 -23.5t31 -61.5q0 -48 -60 -80.5t-199 -71.5q-8 -32 -8 -64q0 -49 21 -75t61 -26 q32 0 61.5 20.5t67.5 70.5l10 -8q-85 -143 -185 -143z"/>
<glyph glyph-name="f" horiz-adv-x="282" unicode="f" d="M-76 -200q-37 0 -61.5 18.5t-24.5 47.5q0 21 15 37.5t39 16.5q22 0 38 -17t16 -41q0 -16 -8 -31h33q23 6 43.5 64t49.5 201l53 292l-86 2l13 38l85 8q31 126 86 181q54 54 130 54q43 0 70 -20t27 -51q0 -23 -17 -39.5t-39 -16.5q-23 0 -37 14.5t-14 35.5q0 23 17 43 q-34 5 -46 5q-52 -15 -88 -208h106l-9 -44h-106l-60 -272q-44 -205 -110 -273q-45 -45 -115 -45z"/>
<glyph glyph-name="g" horiz-adv-x="410" unicode="g" d="M158 -225q53 0 90 26t37 62q0 30 -31.5 51t-86.5 40q-13 5 -42.5 14.5t-43.5 15.5q-37 -11 -60.5 -37t-23.5 -61q0 -48 44.5 -79.5t116.5 -31.5zM171 151q29 0 56 27q28 28 43.5 80t16.5 96q0 30 -15.5 50.5t-38.5 20.5q-21 0 -44 -21q-28 -29 -45.5 -81.5t-17.5 -93.5 q0 -46 17 -65q13 -13 28 -13zM117 -246q-92 0 -148 31.5t-56 85.5q0 39 43.5 72t104.5 48v4q-61 31 -61 73q0 29 30.5 54t72.5 36v3q-61 44 -61 116q0 68 56 119.5t125 51.5h2q57 -2 99 -31l127 16l-15 -69l-114 33v-5q45 -45 45 -99q0 -63 -54.5 -111t-120.5 -48h-2 q-40 0 -70 16q-20 -4 -32 -17.5t-12 -29.5q0 -17 18 -26.5t78 -29.5l30 -9q75 -25 116 -56t41 -80q0 -59 -69.5 -103.5t-172.5 -44.5z"/>
<glyph glyph-name="h" horiz-adv-x="481" unicode="h" d="M321 -13q-17 0 -48 16.5t-31 29.5q0 8 8 32.5t27.5 76.5t27.5 74q44 117 44 130t-15 24t-31 11q-22 0 -69.5 -71.5t-108.5 -202.5l-36 -110l-96 4q1 2 11.5 35t23 72t17.5 52q13 40 43 150t54 200l24 89q6 23 -6 25l-74 10l3 12l190 27l-31 -114q-102 -348 -122 -398 l7 -1q99 198 149 248q39 39 78 39q33 0 58 -19.5t25 -44.5q0 -39 -48 -168q-60 -157 -62 -165l44 -6l70 89l10 -8q-31 -62 -70 -100t-66 -38z"/>
<glyph glyph-name="i" horiz-adv-x="262" unicode="i" d="M108 -13q-17 0 -50 16t-33 28q0 5 119 354l-53 5l-65 -95l-11 8q32 66 70 106t69 40q21 0 49 -20t28 -39q0 -11 -25 -84t-56 -159.5t-34 -95.5l49 -7l70 89l9 -8q-31 -63 -69.5 -100.5t-66.5 -37.5zM238 525q-25 0 -40.5 16.5t-15.5 40.5q0 31 17 52t39 21 q27 0 42.5 -16.5t15.5 -40.5q-1 -30 -18 -51.5t-40 -21.5z"/>
<glyph glyph-name="j" horiz-adv-x="246" unicode="j" d="M-107 -253q-28 0 -50.5 17.5t-22.5 45.5q0 21 15 36.5t38 15.5q22 0 36.5 -15t14.5 -37q0 -18 -11 -35l41 13q28 35 75 203l113 394l-51 5l-68 -95l-9 8q31 65 69.5 105.5t69.5 40.5q20 0 48.5 -20t28.5 -39t-43 -159t-68 -200q-58 -170 -122 -234q-48 -50 -104 -50z M237 525q-26 0 -41 16t-15 41q0 31 17.5 51.5t39.5 20.5q26 0 41.5 -15.5t15.5 -39.5q0 -31 -17.5 -52.5t-40.5 -21.5z"/>
<glyph glyph-name="k" horiz-adv-x="437" unicode="k" d="M291 -13q-14 0 -31.5 7.5t-24.5 16.5q-5 96 -20.5 159.5t-35.5 63.5q-6 0 -13.5 -3t-12 -6t-4.5 -4l-60 -224l-97 4l11 33t22.5 69t18.5 57q17 54 47 163.5t51 192.5l21 83q3 8 1.5 16t-6.5 9l-75 10l4 12l191 27l-30 -114q-64 -217 -95 -314q8 3 26 3q45 17 101 46.5 t64 40.5v5q-41 14 -41 56q0 21 17.5 38t40.5 17q25 0 42.5 -17t17.5 -42q0 -36 -29.5 -62.5t-111.5 -57.5l-52 -20q35 -6 61 -69t34 -133l27 -2l64 94l9 -7q-27 -64 -63 -106t-69 -42z"/>
<glyph glyph-name="l" horiz-adv-x="244" unicode="l" d="M88 -13q-10 0 -30 8t-35.5 18.5t-13.5 17.5l155 568q6 23 -7 25l-74 10l4 12l189 27l-177 -623l43 -6l70 89l9 -8q-31 -63 -68.5 -100.5t-64.5 -37.5z"/>
<glyph glyph-name="m" horiz-adv-x="732" unicode="m" d="M578 -13q-17 0 -49.5 16.5t-32.5 29.5q0 12 64 183q44 117 44 130t-15.5 24t-32.5 11q-42 0 -170 -274l-36 -110l-97 4l49 153q10 30 27.5 77t27.5 76t10 38q0 14 -13.5 25t-29.5 11q-44 0 -173 -274l-34 -110l-96 4l51 160l60 225l-43 5l-66 -96l-10 8q31 67 66.5 106.5 t65.5 39.5q18 0 47.5 -20.5t29.5 -39.5q0 -20 -22 -90.5t-47 -136.5l7 -2q102 209 144 249q37 39 78 39q32 0 53 -22t21 -51q0 -41 -68 -213l6 -2q107 214 143 249q39 39 78 39q33 0 58 -20t25 -44q0 -40 -48 -169q-60 -154 -63 -165l45 -6l70 89l9 -7q-31 -63 -68.5 -101 t-64.5 -38z"/>
<glyph glyph-name="n" horiz-adv-x="505" unicode="n" d="M351 -13q-17 0 -49.5 16.5t-32.5 29.5q0 5 3.5 17.5t10.5 32.5t14 38.5t17.5 47l17.5 47.5q45 119 45 130q0 13 -15.5 24t-31.5 11q-22 0 -69.5 -71.5t-109.5 -202.5l-34 -110l-96 4l51 160l60 224l-43 5l-66 -95l-10 8q31 66 68 106t67 40q17 0 45.5 -20.5t28.5 -39.5 q0 -21 -21 -92t-46 -135l5 -2q100 201 150 249q39 39 78 39q33 0 57.5 -19.5t24.5 -44.5q0 -45 -48 -169l-62 -165l45 -6l70 89l9 -7q-32 -64 -69 -101.5t-64 -37.5z"/>
<glyph glyph-name="o" horiz-adv-x="425" unicode="o" d="M163 8q40 0 74 49t56 124q21 70 21 140q0 48 -14.5 76.5t-39.5 28.5q-34 0 -71.5 -56.5t-60.5 -130.5q-20 -71 -20 -129q0 -45 14.5 -73.5t40.5 -28.5zM173 -13q-68 0 -110 54t-42 135q0 98 71 184.5t154 86.5q68 0 112.5 -54.5t44.5 -135.5q0 -98 -72 -184t-158 -86z "/>
<glyph glyph-name="p" horiz-adv-x="469" unicode="p" d="M209 6q23 0 51 28q38 38 69 121t31 143q0 43 -13.5 65t-36.5 22q-36 0 -73.5 -63t-85.5 -184q-15 -45 -15 -66q7 -24 29 -45t44 -21zM-104 -251l2 16l29 4q21 2 28.5 5t9.5 12l167 599l-43 5l-66 -95l-10 8q31 66 66.5 106t65.5 40q18 0 47 -21t29 -39q0 -27 -29 -106h6 q41 86 79 125t83 39q41 0 67 -40t26 -102q0 -117 -79.5 -217.5t-173.5 -100.5q-48 0 -73 45h-2l-68 -248q-1 -4 2.5 -7t14 -5.5t28.5 -2.5l42 -4l1 -16h-249z"/>
<glyph glyph-name="q" horiz-adv-x="460" unicode="q" d="M153 54q46 0 141 182q8 14 17 42t9 38q-5 30 -30.5 54.5t-54.5 24.5q-20 0 -40 -18q-31 -32 -59 -111.5t-28 -139.5q0 -35 12 -53.5t33 -18.5zM80 -251l3 16l40 4q39 1 44 19l78 260q2 4 23 70t25 76h-5q-78 -132 -107 -165q-37 -41 -73 -41q-40 0 -67.5 29.5t-27.5 78.5 q0 72 39 147t96 131q72 74 132 74q49 0 53 -100h5l34 93l90 -3l-74 -202l-128 -450q-2 -8 8 -11.5t32 -5.5l28 -4l3 -16h-251z"/>
<glyph glyph-name="r" horiz-adv-x="409" unicode="r" d="M118 -3l-97 4l51 160l60 225l-43 5l-66 -96l-10 8q31 67 66.5 106.5t65.5 39.5q18 0 47.5 -20.5t29.5 -39.5q0 -40 -62 -206h6q84 172 112 209q10 13 18 21q32 37 66 37h3q30 -1 49.5 -21t19.5 -48q0 -29 -17.5 -49.5t-40.5 -20.5h-2q-21 1 -34 14.5t-13 31.5q0 22 18 40 l-24 8q-21 -12 -56 -69.5t-106 -193.5z"/>
<glyph glyph-name="s" horiz-adv-x="340" unicode="s" d="M126 -13q-56 0 -96 23t-40 65q0 24 16 41t40 17q18 0 31 -14t13 -33q0 -26 -24 -46q13 -11 38.5 -22t46.5 -12q29 3 48 28t20 51q0 9 -4 19t-7.5 17t-14 18.5t-15.5 16t-19.5 17.5t-18.5 17q-28 27 -42 42t-27 39t-13 47q0 57 48 93.5t108 36.5q53 0 88.5 -20.5 t35.5 -61.5q0 -25 -15 -40.5t-38 -15.5q-20 0 -33.5 14.5t-13.5 33.5q0 25 25 44q-2 1 -9 5.5t-12 7t-12.5 6t-15.5 5.5t-17 2q-28 -2 -45.5 -25.5t-18.5 -47.5q0 -9 3.5 -18.5t7.5 -16.5t13.5 -18t15 -16t18.5 -17.5t17 -16.5q54 -53 69 -77q17 -29 17 -57q-1 -55 -53 -93 t-115 -38z"/>
<glyph glyph-name="t" horiz-adv-x="297" unicode="t" d="M119 -13q-22 0 -61.5 15.5t-37.5 26.5q0 3 47 176.5t50 181.5l-79 3l13 38l80 11l36 128h93l-36 -133h97l-2 -44h-107l-102 -339l63 -7l68 89l9 -8q-31 -64 -67 -101t-64 -37z"/>
<glyph glyph-name="u" horiz-adv-x="505" unicode="u" d="M356 -14q-16 0 -43.5 21t-27.5 40q0 21 21 93.5t45 134.5l-5 1q-101 -202 -149 -250q-40 -38 -78 -38q-33 0 -58 20t-25 44q0 41 48 168l61 165l-45 6l-67 -96l-10 7q31 66 68 106.5t64 40.5q17 0 49.5 -17.5t32.5 -30.5q-1 -15 -63 -181q-44 -119 -44 -130 q0 -13 15 -24.5t32 -11.5q22 0 69 71.5t110 202.5l34 111l96 -4l-51 -160q-59 -218 -62 -226l43 -6l68 89l9 -7q-31 -64 -68.5 -101.5t-68.5 -37.5z"/>
<glyph glyph-name="v" horiz-adv-x="421" unicode="v" d="M139 -13q-37 0 -69 26t-32 58q1 51 134 275l9 15l-107 18l-55 -79l-9 8q67 143 119 143q23 0 62 -8t39 -17q0 -10 -49.5 -127.5t-49.5 -160.5q0 -40 24.5 -61t56.5 -21q21 0 59.5 52t69 120t32.5 108q-3 -1 -11 -1q-23 0 -43 16.5t-20 39.5t16.5 41t41.5 18q27 0 45 -19 t18 -50q0 -52 -45.5 -144.5t-102.5 -155.5q-76 -94 -133 -94z"/>
<glyph glyph-name="w" horiz-adv-x="607" unicode="w" d="M116 -13q-33 0 -58 24.5t-25 58.5q0 31 26 85t67.5 122t49.5 84l-102 18l-54 -79l-9 8q67 143 119 143q23 0 62 -8.5t39 -16.5q-1 -11 -28.5 -68.5t-54.5 -123.5t-27 -100q0 -35 19.5 -50.5t41.5 -15.5q8 0 54.5 46.5t91.5 111.5t45 102l-6 3q-6 3 -14.5 8t-16.5 11.5 t-14 17.5t-6 24q0 24 16.5 40t40.5 16t40.5 -17t16.5 -42q0 -27 -29 -66t-41 -68q-21 -56 -21 -98q0 -47 24.5 -68t54.5 -21q28 0 63.5 48.5t60 113.5t23.5 111q-4 -2 -14 -2q-22 0 -41 14.5t-19 37.5q0 24 16 41.5t39 17.5q27 0 45 -20t18 -52q0 -56 -39 -148.5t-90 -151.5 q-65 -91 -112 -91q-32 0 -52.5 26.5t-20.5 57.5q0 43 45 158q-68 -118 -122 -180t-102 -62z"/>
<glyph glyph-name="x" horiz-adv-x="461" unicode="x" d="M50 -13q-30 0 -51.5 16.5t-21.5 44.5q0 27 15 44.5t38 17.5q20 0 31.5 -12.5t11.5 -30.5q0 -14 -8 -28q0 -2 9.5 -7t10.5 -4q14 2 49.5 56t57.5 109q-10 64 -28.5 127.5t-32.5 63.5l-38 1l-46 -76l-11 8q57 132 124 132q40 0 62.5 -39t40.5 -125h3q39 95 66 130t65 35 q29 0 50.5 -17t21.5 -44t-15 -44t-37 -17q-20 0 -32.5 13t-12.5 31q0 12 7 24q0 1 -8.5 4t-11.5 3q-12 -2 -41.5 -49t-46.5 -93q34 -208 63 -208h37l47 75l11 -9q-60 -132 -123 -132q-42 0 -66 45t-41 135h-3q-48 -107 -77 -143.5t-69 -36.5z"/>
<glyph glyph-name="y" horiz-adv-x="438" unicode="y" d="M-34 -203q-42 0 -66 19t-24 50q0 23 16.5 38.5t38.5 15.5q23 0 39 -15.5t16 -39.5q0 -16 -7 -31l32 -9q29 7 80.5 46t86.5 75v18q0 168 -23 298.5t-55 130.5l-18 1l-63 -99l-10 8q36 78 63 112t67 34q68 0 93 -83.5t27 -321.5l5 -1q40 60 81.5 161.5t43.5 150.5 q-17 -9 -31 -9q-23 0 -39.5 16t-16.5 35q0 23 15 39.5t40 16.5q27 0 46 -21t19 -56q0 -84 -66 -210t-140 -201q-159 -168 -250 -168z"/>
<glyph glyph-name="z" horiz-adv-x="389" unicode="z" d="M243 -22q-30 0 -58 15t-45 33.5t-36 38.5t-31 26h-8l-30 -104q-22 2 -39 16t-17 32q0 25 20.5 43.5t49.5 25.5l248 224q-5 -1 -15 -1q-22 0 -45.5 10.5t-37.5 21.5t-37 31t-28 24h-1q-4 0 -17 -13t-13 -17q0 -1 1 -1q19 -5 30 -18.5t11 -30.5q0 -20 -13.5 -34t-35.5 -14 t-35.5 15t-13.5 36q0 39 47.5 75t92.5 38q40 -2 63 -23.5t35.5 -47.5t20.5 -31l6 1l28 100q21 -2 38 -16t17 -32q0 -49 -67 -67l-248 -223q6 1 19 1q82 0 190 -98q3 -1 14 14t11 19l-1 1q-20 4 -32 19.5t-12 33.5q0 20 13.5 33.5t35.5 13.5h2q21 0 33.5 -15.5t12.5 -37.5 q0 -39 -40 -76.5t-83 -40.5z"/>
<glyph glyph-name="braceleft" horiz-adv-x="320" unicode="{" d="M249 -249q-85 11 -137.5 51t-52.5 97q0 5 2 19q6 42 39.5 108t37.5 93q1 4 1 13q0 32 -30.5 48.5t-94.5 26.5l-5 12l7 13q44 2 72.5 7.5t50 21.5t25.5 42q1 7 1 22q0 22 -8.5 74t-8.5 81q0 18 3 37q10 62 73 98t156 36h4l1 -16q-71 -3 -106 -23.5t-41 -61.5q-2 -9 -2 -28 q0 -23 8.5 -74t8.5 -79q0 -17 -3 -35q-7 -49 -56 -79t-126 -35v-3q-1 -3 -1 -4q69 -12 108 -42t39 -75q0 -10 -1 -15q-6 -40 -40.5 -109t-39.5 -100q-1 -5 -1 -15q0 -68 119 -91z"/>
<glyph glyph-name="bar" horiz-adv-x="190" unicode="|" d="M86 -207v877h18v-877h-18z"/>
<glyph glyph-name="braceright" horiz-adv-x="320" unicode="}" d="M-56 -248l-1 15q71 3 105.5 24t41.5 62q1 6 1 18q0 26 -16 85.5t-16 90.5q0 7 2 23q7 50 56 80t126 35v7q-67 12 -106 42t-39 74q0 11 1 16q6 40 48 107.5t47 99.5q1 5 1 15q0 67 -118 91l2 15q85 -12 137.5 -51.5t52.5 -96.5q0 -5 -2 -19q-7 -41 -48.5 -106t-45.5 -94 q-1 -4 -1 -10q0 -33 33 -51t92 -27l5 -11l-6 -12q-72 -3 -107 -18.5t-41 -54.5q-1 -5 -1 -16q0 -24 16 -83t16 -91q0 -7 -2 -23q-10 -63 -73 -99.5t-156 -36.5h-4z"/>
<glyph glyph-name="asciitilde" horiz-adv-x="378" unicode="~" d="M260 155q-33 0 -90.5 32.5t-75.5 32.5t-30 -11t-22 -46h-15q15 66 36.5 92.5t60.5 26.5q32 0 89 -32.5t75 -32.5q19 0 31 11t23 45q15 0 16 1q-17 -66 -38.5 -92.5t-59.5 -26.5z"/>
<glyph glyph-name="nbspace" horiz-adv-x="142" unicode=" "/>
<glyph glyph-name="exclamdown" horiz-adv-x="268" unicode="¡" d="M90 -17q-52 4 -52 37q0 10 5 23l126 385q1 3 4 4t5.5 -0.5t2.5 -3.5l-25 -396q-4 -49 -53 -49h-10h-3zM200 510q-26 0 -44.5 18.5t-18.5 44.5q0 25 18 44t44 19q27 0 46 -19t19 -44q0 -26 -18.5 -44.5t-45.5 -18.5z"/>
<glyph glyph-name="cent" horiz-adv-x="367" unicode="¢" d="M292 412q-20 12 -38 12q-23 0 -53 -28q-34 -35 -61.5 -107.5t-27.5 -138.5q0 -67 35 -91zM119 -9q-46 10 -75 50.5t-29 93.5q0 112 79.5 212.5t181.5 100.5q16 0 29 -3l70 169h21l-72 -175q59 -23 59 -72q0 -25 -16.5 -43.5t-39.5 -18.5q-33 0 -48 26l-115 -280 q11 -4 27 -4q32 0 59.5 20t66.5 71l10 -9q-42 -68 -84.5 -105t-93.5 -37q-7 0 -11 1l-61 -148h-20z"/>
<glyph glyph-name="sterling" horiz-adv-x="531" unicode="£" d="M143 62q-65 43 -99 43q-24 0 -40.5 -16t-17.5 -39q0 -19 15 -33.5t36 -14.5q56 0 106 60zM180 286h-110l4 20h103q-5 32 -5 59v10q3 105 76.5 181t182.5 76q60 0 94 -22.5t32 -59.5q0 -25 -16.5 -42t-41.5 -17t-38.5 15.5t-13.5 38.5q0 25 16 46q-17 20 -54 20 q-42 0 -76 -32t-46 -96q-5 -24 -6 -85t-4 -92h129l2 -20h-134q-3 -30 -12 -60q-14 -58 -53 -116q133 -43 172 -43q42 0 64 22t41 82l12 -3q-16 -78 -59.5 -129t-104.5 -51q-73 0 -174 63q-63 -63 -124 -63q-29 0 -48 18t-18 44q1 37 29.5 62t78.5 25q35 0 100 -18 q14 37 14 64v8q0 33 -12 95z"/>
<glyph glyph-name="currency" d="M114 359q0 -48 34 -82t82 -34t82 34t34 82t-34 82t-82 34t-82 -34t-34 -82zM84 199l-14 14l57 57q-33 38 -33 89t33 89l-57 57l14 14l57 -57q40 33 89 33t89 -33l57 57l14 -14l-57 -57q33 -40 33 -89t-33 -89l57 -57l-14 -14l-57 57q-38 -33 -89 -33t-89 33z" unicode="¤"/>
<glyph glyph-name="yen" horiz-adv-x="614" unicode="¥" d="M267 286h-181v20h176l-91 230q-13 37 -27 51.5t-42 17.5l-26 4l-2 16h284l-3 -16l-26 -2q-48 -4 -48 -34q0 -15 13 -49l73 -200l3 -1l115 158q56 77 56 98t-51 27l-21 3l-1 16h213l-3 -16l-24 -3q-35 -6 -61 -27.5t-83 -97.5l-127 -175h176v-5.5t-1 -9.5v-5h-182 l-20 -107h183l2 -20h-189l-23 -121q-1 -4 2 -7t13 -5.5t29 -4.5l45 -5l2 -16h-302l3 16l55 6q42 4 44 18l23 119h-178l4 20h178z"/>
<glyph glyph-name="brokenbar" horiz-adv-x="190" unicode="¦" d="M86 -154v335h18v-335h-18zM86 292v335h18v-335h-18z"/>
<glyph glyph-name="section" horiz-adv-x="406" unicode="§" d="M289 163q49 27 49 73q0 28 -20 51t-61 54q-93 68 -112 92q-49 -26 -49 -73q0 -27 20 -50t63 -54q89 -65 110 -93zM147 -46q-55 0 -93.5 21.5t-38.5 55.5q0 23 15 39t37 16q23 0 35.5 -15t12.5 -37q0 -19 -11 -38q18 -22 59 -22q35 0 57.5 23.5t22.5 50.5q-1 30 -27 58 t-77 65q-53 37 -82.5 70.5t-29.5 75.5q0 43 31 76.5t79 50.5q-18 27 -18 60q0 56 48 95.5t117 39.5q53 0 90 -22t37 -56q0 -21 -16 -36.5t-38 -15.5q-23 0 -35 14.5t-12 36.5q0 21 11 40q-16 20 -51 20q-36 0 -57.5 -22t-21.5 -49q0 -31 26.5 -59t77.5 -65q35 -25 55.5 -42 t39 -45.5t18.5 -57.5q0 -44 -31.5 -77.5t-80.5 -50.5q19 -28 19 -62q0 -56 -50.5 -96t-117.5 -40z"/>
<glyph glyph-name="dieresis" horiz-adv-x="387" unicode="¨" d="M163 517q-26 0 -41.5 18t-15.5 40q0 23 15.5 42t41.5 19q27 0 42.5 -19t15.5 -42q0 -22 -15.5 -40t-42.5 -18zM356 517q-26 0 -41.5 18t-15.5 40q0 23 15.5 42t41.5 19q27 0 42.5 -19t15.5 -42q0 -22 -15.5 -40t-42.5 -18z"/>
<glyph glyph-name="copyright" horiz-adv-x="718" unicode="©" d="M381 117q-94 0 -151 54t-57 138q0 85 58.5 141t152.5 56q55 0 95 -21l41 14l2 -124h-13l-48 94q-26 21 -79 21q-63 0 -100 -48.5t-37 -124.5q0 -82 40 -133.5t101 -51.5q39 0 64 17t48 52l21 46h14l-19 -109l-24 -1q-44 -20 -109 -20zM370 -1q129 0 219.5 92t90.5 222 q0 129 -91 221.5t-219 92.5q-129 0 -220 -92.5t-91 -221.5q0 -130 91 -222t220 -92zM370 -18q-137 0 -233.5 97t-96.5 234t96.5 234t233.5 97t233.5 -97t96.5 -234t-96.5 -234t-233.5 -97z"/>
<glyph glyph-name="ordfeminine" horiz-adv-x="372" unicode="ª" d="M176 336q34 0 107 139q19 38 19 59q-5 24 -24 42t-42 18q-17 0 -30 -13q-24 -24 -44.5 -83t-20.5 -106q0 -27 9.5 -41.5t25.5 -14.5zM139 285q-30 0 -50.5 23t-20.5 61q0 54 29.5 111.5t72.5 99.5q52 55 103 55q22 0 30 -18t9 -58h3l28 77l67 -3l-55 -158l-41 -142l35 -5 l54 73l6 -5q-25 -50 -53 -80.5t-49 -30.5q-13 0 -37.5 15t-24.5 24q0 13 40 127h-3q-68 -114 -93 -141q-25 -25 -50 -25z"/>
<glyph glyph-name="guillemotleft" horiz-adv-x="458" unicode="«" d="M205 54l-189 159l2 23l250 155l4 -10l-157 -165l98 -151zM400 44l-189 169l2 23l254 166l5 -11l-167 -175l103 -162z"/>
<glyph glyph-name="logicalnot" d="M421 312v-180h-22v158h-382l3 22h401z" unicode="¬"/>
<glyph glyph-name="uni00AD" horiz-adv-x="295" unicode="­" d="M23 213l10 45h245l-7 -45h-248z"/>
<glyph glyph-name="registered" horiz-adv-x="714" unicode="®" d="M360 320q81 2 81 82q0 38 -24 58.5t-68 20.5h-9l-25 -1v-151q15 -6 45 -9zM193 128l1 14l29 3q24 4 24 11v317q0 7 -28 9l-24 4l-2 13h166q76 0 114.5 -25.5t38.5 -71.5q0 -34 -24.5 -60t-66.5 -35l77 -117q17 -27 29 -35t33 -11l13 -3l2 -13h-119l-10 18l-94 158 q-2 1 -17 3.5t-20 4.5v-157q0 -6 28 -10l25 -3l2 -14h-177zM370 0q129 0 219.5 91.5t90.5 221.5q0 129 -90.5 221.5t-219.5 92.5t-220 -92.5t-91 -221.5q0 -130 91 -221.5t220 -91.5zM370 -17q-137 0 -233.5 96.5t-96.5 233.5t96.5 234t233.5 97t233.5 -97t96.5 -234 t-96.5 -233.5t-233.5 -96.5z"/>
<glyph glyph-name="macron" horiz-adv-x="378" unicode="¯" d="M113 528l14 39h254l-10 -39h-258z"/>
<glyph glyph-name="degree" horiz-adv-x="321" unicode="°" d="M212 381q52 0 84.5 36t32.5 88q1 48 -30.5 81.5t-81.5 34.5q-53 0 -85.5 -37t-32.5 -89q0 -49 31.5 -81.5t81.5 -32.5zM211 360q-60 0 -98.5 39t-38.5 97q0 61 41 104t103 43q60 0 98 -39t38 -96q0 -61 -40.5 -104.5t-102.5 -43.5z"/>
<glyph glyph-name="plusminus" d="M423 27h-392l3 22h386zM216 84v162h-198l3 22h195v168h22v-168h195l3 -22h-198v-162h-22z" unicode="±"/>
<glyph glyph-name="twosuperior" horiz-adv-x="297" unicode="²" d="M-12 267l1 23q14 11 40.5 31t38 29t32 25.5t29.5 24.5t24 22t21 22.5t15 21t12.5 23t6 22.5t2.5 25q-1 32 -21 50t-48 18q-45 0 -84 -46l-5 7q61 89 138 89q44 0 72 -26.5t29 -65.5q0 -27 -10 -49.5t-35.5 -46t-47 -40t-68 -48t-74.5 -52.5v-2h124q29 0 48 12t39 45l8 12 h11l-52 -126h-246z"/>
<glyph glyph-name="threesuperior" horiz-adv-x="282" unicode="³" d="M93 247q-43 0 -73 13.5t-30 41.5q0 14 11 25t27 11q18 0 30.5 -13.5t12.5 -32.5q0 -12 -6 -24q16 -9 31 -9q38 0 64.5 31t26.5 72q0 34 -21.5 55t-58.5 21q-16 0 -39 -7l-4 10q41 18 60 27.5t40.5 23.5t29 28t7.5 32q0 23 -16.5 38.5t-42.5 15.5q-24 0 -48 -14t-40 -35 l-4 7q23 40 59.5 65t78.5 25q38 0 65 -21.5t27 -51.5q0 -68 -124 -108v-2q4 1 14 1q43 -3 68.5 -28.5t25.5 -63.5q0 -53 -52 -93t-119 -40z"/>
<glyph glyph-name="acute" horiz-adv-x="389" unicode="´" d="M194 498l127 186h108l-221 -186h-14z"/>
<glyph glyph-name="mu" horiz-adv-x="511" unicode="µ" d="M232 -251h-227l3 16l21 1q40 3 40 16v619q0 7 -7.5 9.5t-40.5 5.5l-16 2l-3 15h169l-3 -326q0 -56 83 -56q61 0 98 29v303q0 19 -9 25t-39 8l-19 2l-3 15h169v-350q0 -19 4 -26.5t15 -10.5l47 -12l-1 -11l-164 -39l1 75h-3q-26 -39 -46 -56t-50 -17q-52 0 -80 62h-3v-266 q0 -13 40 -16l21 -1z"/>
<glyph glyph-name="mu" horiz-adv-x="511" unicode="μ" d="M232 -251h-227l3 16l21 1q40 3 40 16v619q0 7 -7.5 9.5t-40.5 5.5l-16 2l-3 15h169l-3 -326q0 -56 83 -56q61 0 98 29v303q0 19 -9 25t-39 8l-19 2l-3 15h169v-350q0 -19 4 -26.5t15 -10.5l47 -12l-1 -11l-164 -39l1 75h-3q-26 -39 -46 -56t-50 -17q-52 0 -80 62h-3v-266 q0 -13 40 -16l21 -1z"/>
<glyph glyph-name="paragraph" horiz-adv-x="450" unicode="¶" d="M321 -31l52 281q-12 -3 -22 -3q-129 0 -206.5 49t-77.5 133q0 97 69.5 147t189.5 50h143l-124 -657h-24z"/>
<glyph glyph-name="periodcentered" horiz-adv-x="216" unicode="·" d="M104 163q-27 0 -46.5 19.5t-19.5 46.5t19 46t46 19q28 0 47 -19t19 -46t-19 -46.5t-46 -19.5z"/>
<glyph glyph-name="cedilla" horiz-adv-x="385" unicode="¸" d="M5 -261l-1 11q168 16 168 87q0 50 -86 50q-29 0 -56 -6l2 12l125 111h23l-73 -66h12q53 0 87 -22t34 -57q0 -40 -34 -67t-84.5 -39t-116.5 -14z"/>
<glyph glyph-name="onesuperior" horiz-adv-x="256" unicode="¹" d="M17 267l2 12l30 2q28 2 29 12l62 316l-63 10l3 8l142 24l-70 -359q-2 -10 28 -11l23 -2l2 -12h-188z"/>
<glyph glyph-name="ordmasculine" horiz-adv-x="330" unicode="º" d="M182 299q31 0 57.5 38t44.5 96q14 52 14 107q0 79 -41 79q-26 0 -54.5 -43.5t-46.5 -101.5q-16 -51 -16 -98q0 -35 11 -56t31 -21zM190 283q-52 0 -84 41t-32 102q0 75 54.5 143t118.5 68q52 0 86 -42t34 -104q0 -76 -55 -142t-122 -66z"/>
<glyph glyph-name="guillemotright" horiz-adv-x="458" unicode="»" d="M-11 43l-4 9l165 175l-103 163l8 11l190 -170l-2 -23zM187 53l-3 9l157 165l-99 153l8 10l189 -159l-2 -23z"/>
<glyph glyph-name="onequarter" horiz-adv-x="649" unicode="¼" d="M-14 -121l678 751h27l-678 -751h-27zM17 267l2 12l30 2q28 2 29 12l62 316l-63 10l3 8l142 24l-70 -359q-2 -10 28 -11l23 -2l2 -12h-188zM377 8h124l34 170h-3zM474 -136l19 101h-162v11l250 276l37 -4l-47 -240h66l-16 -43h-58l-20 -101h-69z"/>
<glyph glyph-name="onehalf" horiz-adv-x="677" unicode="½" d="M-14 -121l678 751h27l-678 -751h-27zM17 267l2 12l30 2q28 2 29 12l62 316l-63 10l3 8l142 24l-70 -359q-2 -10 28 -11l23 -2l2 -12h-188zM362 -137l1 23q14 11 40.5 31t38 29t32 25.5t29.5 24.5t24 22t21 22.5t15 21t12.5 23t6 22.5t2.5 25q-1 32 -21 50t-48 18 q-45 0 -84 -46l-5 7q61 89 138 89q44 0 72 -26.5t29 -65.5q0 -27 -10 -49.5t-35.5 -46t-47 -40t-68 -48t-74.5 -52.5v-2h124q29 0 48 12t39 45l8 12h11l-52 -126h-246z"/>
<glyph glyph-name="threequarters" horiz-adv-x="636" unicode="¾" d="M-28 -121l678 751h27l-678 -751h-27zM93 247q-43 0 -73 13.5t-30 41.5q0 14 11 25t27 11q18 0 30.5 -13.5t12.5 -32.5q0 -12 -6 -24q16 -9 31 -9q38 0 64.5 31t26.5 72q0 34 -21.5 55t-58.5 21q-16 0 -39 -7l-4 10q41 18 60 27.5t40.5 23.5t29 28t7.5 32q0 23 -16.5 38.5 t-42.5 15.5q-24 0 -48 -14t-40 -35l-4 7q23 40 59.5 65t78.5 25q38 0 65 -21.5t27 -51.5q0 -68 -124 -108v-2q4 1 14 1q43 -3 68.5 -28.5t25.5 -63.5q0 -53 -52 -93t-119 -40zM363 8h124l34 170h-3zM460 -136l19 101h-162v11l250 276l37 -4l-47 -240h66l-16 -43h-58 l-20 -101h-69z"/>
<glyph glyph-name="questiondown" horiz-adv-x="331" unicode="¿" d="M195 -13q-79 0 -127.5 52.5t-48.5 121.5q0 63 28.5 97.5t90.5 53.5q59 17 79.5 29t20.5 37q0 28 -35 63l16 2q63 -56 63 -110q0 -41 -31.5 -63.5t-98.5 -39.5q-64 -17 -86.5 -30t-22.5 -39q0 -32 43.5 -58.5t119.5 -26.5q23 0 49 4q10 -13 10 -30q0 -63 -70 -63zM248 516 q-26 0 -44.5 18t-18.5 43q0 26 18 45t45 19q26 0 44.5 -19t18.5 -45q0 -25 -18 -43t-45 -18z"/>
<glyph glyph-name="Agrave" horiz-adv-x="618" unicode="À" d="M392 665l-152 186h101l66 -186h-15zM196 276h155l-6 61q-6 61 -13 123l-6 61h-4zM354 253h-170l-46 -91q-49 -90 -49 -111q0 -27 57 -31l30 -4l2 -16h-223l3 16l22 4q42 7 65 33.5t88 146.5l182 349l-3 39q22 4 51 20t41 32h15l64 -520q8 -59 20 -77.5t43 -21.5l34 -5 v-16h-290l3 16l35 3q25 2 34.5 13t9.5 35q0 16 -3 37z"/>
<glyph glyph-name="Aacute" horiz-adv-x="618" unicode="Á" d="M331 665l127 186h108l-221 -186h-14zM196 276h155l-6 61q-6 61 -13 123l-6 61h-4zM354 253h-170l-46 -91q-49 -90 -49 -111q0 -27 57 -31l30 -4l2 -16h-223l3 16l22 4q42 7 65 33.5t88 146.5l182 349l-3 39q22 4 51 20t41 32h15l64 -520q8 -59 20 -77.5t43 -21.5l34 -5 v-16h-290l3 16l35 3q25 2 34.5 13t9.5 35q0 16 -3 37z"/>
<glyph glyph-name="Acircumflex" horiz-adv-x="618" unicode="Â" d="M242 657l155 193h36l84 -193h-16l-97 109h-3l-146 -109h-13zM196 276h155l-6 61q-6 61 -13 123l-6 61h-4zM354 253h-170l-46 -91q-49 -90 -49 -111q0 -27 57 -31l30 -4l2 -16h-223l3 16l22 4q42 7 65 33.5t88 146.5l182 349l-3 39q22 4 51 20t41 32h15l64 -520 q8 -59 20 -77.5t43 -21.5l34 -5v-16h-290l3 16l35 3q25 2 34.5 13t9.5 35q0 16 -3 37z"/>
<glyph glyph-name="Atilde" horiz-adv-x="618" unicode="Ã" d="M460 672q-33 0 -90.5 32.5t-75.5 32.5t-30 -11t-22 -46h-15q15 66 36.5 92.5t60.5 26.5q32 0 89 -32.5t75 -32.5q19 0 31 11t23 45q15 0 16 1q-17 -66 -38.5 -92.5t-59.5 -26.5zM196 276h155l-6 61q-6 61 -13 123l-6 61h-4zM354 253h-170l-46 -91q-49 -90 -49 -111 q0 -27 57 -31l30 -4l2 -16h-223l3 16l22 4q42 7 65 33.5t88 146.5l182 349l-3 39q22 4 51 20t41 32h15l64 -520q8 -59 20 -77.5t43 -21.5l34 -5v-16h-290l3 16l35 3q25 2 34.5 13t9.5 35q0 16 -3 37z"/>
<glyph glyph-name="Adieresis" horiz-adv-x="618" unicode="Ä" d="M292 684q-26 0 -41.5 18t-15.5 40q0 23 15.5 42t41.5 19q27 0 42.5 -19t15.5 -42q0 -22 -15.5 -40t-42.5 -18zM485 684q-26 0 -41.5 18t-15.5 40q0 23 15.5 42t41.5 19q27 0 42.5 -19t15.5 -42q0 -22 -15.5 -40t-42.5 -18zM196 276h155l-6 61q-6 61 -13 123l-6 61h-4z M354 253h-170l-46 -91q-49 -90 -49 -111q0 -27 57 -31l30 -4l2 -16h-223l3 16l22 4q42 7 65 33.5t88 146.5l182 349l-3 39q22 4 51 20t41 32h15l64 -520q8 -59 20 -77.5t43 -21.5l34 -5v-16h-290l3 16l35 3q25 2 34.5 13t9.5 35q0 16 -3 37z"/>
<glyph glyph-name="Aring" horiz-adv-x="618" unicode="Å" d="M196 276h155l-6 61l-12 122l-6 61h-5q-125 -244 -126 -244zM398 623q34 0 54 22t20 54t-20 54.5t-54 22.5q-33 0 -53 -22.5t-20 -54.5t20 -54t53 -22zM354 253h-169l-47 -91q-49 -90 -49 -111q0 -27 57 -31l30 -4l2 -16h-223l3 16l22 4q42 7 65 33.5t88 146.5l220 420 q-45 23 -45 79q0 38 25 65t65 27q41 0 66 -27t25 -65q0 -31 -18 -55t-48 -31l60 -493q8 -59 20 -77.5t43 -21.5l34 -5v-16h-290l3 16l35 3q25 2 34.5 13t9.5 35q0 16 -3 37z"/>
<glyph glyph-name="AE" horiz-adv-x="856" unicode="Æ" d="M219 277h162l54 286h-3zM377 254h-175l-62 -84q-73 -96 -80 -116q-2 -6 -2 -10q0 -18 51 -24l25 -4l3 -16h-218l3 16l22 4q45 6 70.5 28.5t99.5 118.5l292 393q12 15 12 25q0 16 -49 20l-41 4l-2 16h506l-2 -198h-22l-6 36q-16 55 -32.5 82.5t-55 43.5t-107.5 16h-5h-48 l-52 -275l33 1q68 2 97 16t47 54l15 31l18 -1l-49 -226l-19 1l3 30q1 5 1 14q0 34 -25.5 45.5t-96.5 14.5l-28 1l-54 -288l84 -3q103 1 156.5 36.5t95.5 110.5l17 34l23 -1l-64 -200h-512v4l2 8l1 4l46 6q42 4 44 18z"/>
<glyph glyph-name="Ccedilla" horiz-adv-x="669" unicode="Ç" d="M339 -13q-134 8 -211 87t-77 199q0 148 105.5 257t267.5 109q103 0 172 -39l73 19l-30 -193l-21 1l-38 144q-53 46 -141 46q-81 0 -143.5 -54t-93.5 -137t-31 -177q0 -112 54 -177t150 -65q104 0 180 98l43 76l22 -1l-51 -173l-41 2q-69 -23 -162 -23h-5l-53 -48h12 q53 0 87 -22t34 -57q0 -40 -34 -67t-84.5 -39t-116.5 -14l-1 11q168 16 168 87q0 50 -86 50q-29 0 -56 -6l2 12z"/>
<glyph glyph-name="Egrave" horiz-adv-x="601" unicode="È" d="M388 665l-152 186h101l66 -186h-15zM-14 0l3 16l40 6q44 6 46 18l105 547q1 6 -7 9.5t-38 7.5l-31 5l-2 16h474l-2 -198h-22l-6 36q-12 42 -23 65.5t-32.5 43t-55 27t-85.5 7.5h-5l-51 -1l-52 -275l37 1q67 2 96 16t48 54l15 31l19 -1l-50 -226l-19 1l2 30q1 5 1 14 q0 34 -25 45.5t-96 14.5l-32 1l-54 -288l87 -4q104 1 158 37t95 111l17 34l23 -1l-63 -200h-515z"/>
<glyph glyph-name="Eacute" horiz-adv-x="601" unicode="É" d="M311 665l127 186h108l-221 -186h-14zM-14 0l3 16l40 6q44 6 46 18l105 547q1 6 -7 9.5t-38 7.5l-31 5l-2 16h474l-2 -198h-22l-6 36q-12 42 -23 65.5t-32.5 43t-55 27t-85.5 7.5h-5l-51 -1l-52 -275l37 1q67 2 96 16t48 54l15 31l19 -1l-50 -226l-19 1l2 30q1 5 1 14 q0 34 -25 45.5t-96 14.5l-32 1l-54 -288l87 -4q104 1 158 37t95 111l17 34l23 -1l-63 -200h-515z"/>
<glyph glyph-name="Ecircumflex" horiz-adv-x="601" unicode="Ê" d="M223 657l155 193h36l84 -193h-16l-97 109h-3l-146 -109h-13zM-14 0l3 16l40 6q44 6 46 18l105 547q1 6 -7 9.5t-38 7.5l-31 5l-2 16h474l-2 -198h-22l-6 36q-12 42 -23 65.5t-32.5 43t-55 27t-85.5 7.5h-5l-51 -1l-52 -275l37 1q67 2 96 16t48 54l15 31l19 -1l-50 -226 l-19 1l2 30q1 5 1 14q0 34 -25 45.5t-96 14.5l-32 1l-54 -288l87 -4q104 1 158 37t95 111l17 34l23 -1l-63 -200h-515z"/>
<glyph glyph-name="Edieresis" horiz-adv-x="601" unicode="Ë" d="M270 684q-26 0 -41.5 18t-15.5 40q0 23 15.5 42t41.5 19q27 0 42.5 -19t15.5 -42q0 -22 -15.5 -40t-42.5 -18zM463 684q-26 0 -41.5 18t-15.5 40q0 23 15.5 42t41.5 19q27 0 42.5 -19t15.5 -42q0 -22 -15.5 -40t-42.5 -18zM-14 0l3 16l40 6q44 6 46 18l105 547 q1 6 -7 9.5t-38 7.5l-31 5l-2 16h474l-2 -198h-22l-6 36q-12 42 -23 65.5t-32.5 43t-55 27t-85.5 7.5h-5l-51 -1l-52 -275l37 1q67 2 96 16t48 54l15 31l19 -1l-50 -226l-19 1l2 30q1 5 1 14q0 34 -25 45.5t-96 14.5l-32 1l-54 -288l87 -4q104 1 158 37t95 111l17 34l23 -1 l-63 -200h-515z"/>
<glyph glyph-name="Igrave" horiz-adv-x="354" unicode="Ì" d="M278 665l-152 186h101l66 -186h-15zM-7 0l3 16l47 6q42 4 44 18l105 547q1 4 -2 7t-13 5.5t-30 4.5l-37 5l-2 16h288l-4 -16l-46 -6q-42 -6 -44 -18l-105 -547q-1 -7 7 -10t38 -7l37 -5l2 -16h-288z"/>
<glyph glyph-name="Iacute" horiz-adv-x="354" unicode="Í" d="M216 665l127 186h108l-221 -186h-14zM-7 0l3 16l47 6q42 4 44 18l105 547q1 4 -2 7t-13 5.5t-30 4.5l-37 5l-2 16h288l-4 -16l-46 -6q-42 -6 -44 -18l-105 -547q-1 -7 7 -10t38 -7l37 -5l2 -16h-288z"/>
<glyph glyph-name="Icircumflex" horiz-adv-x="354" unicode="Î" d="M115 657l155 193h36l84 -193h-16l-97 109h-3l-146 -109h-13zM-7 0l3 16l47 6q42 4 44 18l105 547q1 4 -2 7t-13 5.5t-30 4.5l-37 5l-2 16h288l-4 -16l-46 -6q-42 -6 -44 -18l-105 -547q-1 -7 7 -10t38 -7l37 -5l2 -16h-288z"/>
<glyph glyph-name="Idieresis" horiz-adv-x="354" unicode="Ï" d="M169 684q-26 0 -41.5 18t-15.5 40q0 23 15.5 42t41.5 19q27 0 42.5 -19t15.5 -42q0 -22 -15.5 -40t-42.5 -18zM362 684q-26 0 -41.5 18t-15.5 40q0 23 15.5 42t41.5 19q27 0 42.5 -19t15.5 -42q0 -22 -15.5 -40t-42.5 -18zM-7 0l3 16l47 6q42 4 44 18l105 547q1 4 -2 7 t-13 5.5t-30 4.5l-37 5l-2 16h288l-4 -16l-46 -6q-42 -6 -44 -18l-105 -547q-1 -7 7 -10t38 -7l37 -5l2 -16h-288z"/>
<glyph glyph-name="Eth" horiz-adv-x="676" unicode="Ð" d="M241 326h131l2 -22h-137l-50 -265l65 -20q136 1 214.5 103t78.5 257q0 102 -49.5 164t-152.5 62h-49zM126 304h-87l4 22h87l50 261q1 6 -7 9.5t-38 7.5l-32 5l-1 16l250 1h3q151 0 231 -73.5t80 -191.5q0 -151 -109.5 -256t-296.5 -105h-274l3 16l43 6q41 6 43 18z"/>
<glyph glyph-name="Ntilde" horiz-adv-x="680" unicode="Ñ" d="M490 672q-33 0 -90.5 32.5t-75.5 32.5t-30 -11t-22 -46h-15q15 66 36.5 92.5t60.5 26.5q32 0 89 -32.5t75 -32.5q19 0 31 11t23 45q15 0 16 1q-17 -66 -38.5 -92.5t-59.5 -26.5zM500 -6l-297 541h-3l-86 -429q-3 -21 -3 -35q0 -26 13 -36.5t47 -14.5l28 -4l1 -16h-219 l3 16l28 4q36 4 53.5 23t24.5 66l88 430q-18 56 -69 65l-21 5l-2 16h199l249 -462h3l71 356q3 21 3 36q0 26 -13 36.5t-46 13.5l-28 4l-2 16h220l-3 -16l-28 -4q-36 -3 -54 -22t-25 -67l-104 -522h-28z"/>
<glyph glyph-name="Ograve" horiz-adv-x="725" unicode="Ò" d="M442 665l-152 186h101l66 -186h-15zM351 8q70 0 127 60.5t86 148t29 177.5q0 98 -48 160.5t-135 62.5q-73 0 -130 -64.5t-84 -152t-27 -173.5q0 -97 48 -158t134 -61zM359 -14q-135 0 -219.5 86.5t-84.5 214.5q0 91 42.5 170.5t123.5 130t182 50.5q135 0 220 -87t85 -215 q0 -143 -99.5 -246.5t-249.5 -103.5z"/>
<glyph glyph-name="Oacute" horiz-adv-x="725" unicode="Ó" d="M382 665l127 186h108l-221 -186h-14zM351 8q70 0 127 60.5t86 148t29 177.5q0 98 -48 160.5t-135 62.5q-73 0 -130 -64.5t-84 -152t-27 -173.5q0 -97 48 -158t134 -61zM359 -14q-135 0 -219.5 86.5t-84.5 214.5q0 91 42.5 170.5t123.5 130t182 50.5q135 0 220 -87 t85 -215q0 -143 -99.5 -246.5t-249.5 -103.5z"/>
<glyph glyph-name="Ocircumflex" horiz-adv-x="725" unicode="Ô" d="M290 657l155 193h36l84 -193h-16l-97 109h-3l-146 -109h-13zM351 8q70 0 127 60.5t86 148t29 177.5q0 98 -48 160.5t-135 62.5q-73 0 -130 -64.5t-84 -152t-27 -173.5q0 -97 48 -158t134 -61zM359 -14q-135 0 -219.5 86.5t-84.5 214.5q0 91 42.5 170.5t123.5 130 t182 50.5q135 0 220 -87t85 -215q0 -143 -99.5 -246.5t-249.5 -103.5z"/>
<glyph glyph-name="Otilde" horiz-adv-x="725" unicode="Õ" d="M510 672q-33 0 -90.5 32.5t-75.5 32.5t-30 -11t-22 -46h-15q15 66 36.5 92.5t60.5 26.5q32 0 89 -32.5t75 -32.5q19 0 31 11t23 45q15 0 16 1q-17 -66 -38.5 -92.5t-59.5 -26.5zM351 8q70 0 127 60.5t86 148t29 177.5q0 98 -48 160.5t-135 62.5q-73 0 -130 -64.5 t-84 -152t-27 -173.5q0 -97 48 -158t134 -61zM359 -14q-135 0 -219.5 86.5t-84.5 214.5q0 91 42.5 170.5t123.5 130t182 50.5q135 0 220 -87t85 -215q0 -143 -99.5 -246.5t-249.5 -103.5z"/>
<glyph glyph-name="Odieresis" horiz-adv-x="725" unicode="Ö" d="M340 684q-26 0 -41.5 18t-15.5 40q0 23 15.5 42t41.5 19q27 0 42.5 -19t15.5 -42q0 -22 -15.5 -40t-42.5 -18zM533 684q-26 0 -41.5 18t-15.5 40q0 23 15.5 42t41.5 19q27 0 42.5 -19t15.5 -42q0 -22 -15.5 -40t-42.5 -18zM351 8q70 0 127 60.5t86 148t29 177.5 q0 98 -48 160.5t-135 62.5q-73 0 -130 -64.5t-84 -152t-27 -173.5q0 -97 48 -158t134 -61zM359 -14q-135 0 -219.5 86.5t-84.5 214.5q0 91 42.5 170.5t123.5 130t182 50.5q135 0 220 -87t85 -215q0 -143 -99.5 -246.5t-249.5 -103.5z"/>
<glyph glyph-name="multiply" d="M36 61l175 175l-175 175l16 16l175 -175l175 175l16 -16l-175 -175l175 -175l-16 -16l-175 175l-175 -175z" unicode="×"/>
<glyph glyph-name="Oslash" horiz-adv-x="725" unicode="Ø" d="M558 536q-339 -469 -340 -469q49 -59 134 -59q70 0 127 60.5t85.5 148t28.5 177.5q0 84 -35 142zM206 83l340 470q-50 64 -136 64q-56 0 -103 -37.5t-76.5 -96.5t-45.5 -126t-16 -130q0 -84 37 -144zM589 580q56 -41 87.5 -105t31.5 -139q0 -143 -99.5 -246.5 t-249.5 -103.5q-96 0 -167 45l-75 -104h-24l83 114q-57 42 -89 106t-32 140q0 91 42.5 170.5t123.5 130t182 50.5q96 0 170 -47l72 98h23z"/>
<glyph glyph-name="Ugrave" horiz-adv-x="692" unicode="Ù" d="M470 665l-152 186h101l66 -186h-15zM348 -16q-112 0 -180 45t-68 133q0 34 10 81l65 344q1 5 -1.5 7.5t-12.5 5t-30 4.5l-39 5l-2 16h293l-4 -16l-49 -6q-41 -4 -44 -18l-64 -335q-8 -45 -8 -78q0 -146 169 -146q73 0 118.5 45t63.5 142l61 306q4 28 4 35 q0 26 -13.5 36.5t-46.5 14.5l-28 4l-2 16h220l-4 -16l-27 -4q-36 -4 -53.5 -22.5t-24.5 -66.5l-63 -310q-43 -222 -240 -222z"/>
<glyph glyph-name="Uacute" horiz-adv-x="692" unicode="Ú" d="M405 665l127 186h108l-221 -186h-14zM348 -16q-112 0 -180 45t-68 133q0 34 10 81l65 344q1 5 -1.5 7.5t-12.5 5t-30 4.5l-39 5l-2 16h293l-4 -16l-49 -6q-41 -4 -44 -18l-64 -335q-8 -45 -8 -78q0 -146 169 -146q73 0 118.5 45t63.5 142l61 306q4 28 4 35 q0 26 -13.5 36.5t-46.5 14.5l-28 4l-2 16h220l-4 -16l-27 -4q-36 -4 -53.5 -22.5t-24.5 -66.5l-63 -310q-43 -222 -240 -222z"/>
<glyph glyph-name="Ucircumflex" horiz-adv-x="692" unicode="Û" d="M307 657l155 193h36l84 -193h-16l-97 109h-3l-146 -109h-13zM348 -16q-112 0 -180 45t-68 133q0 34 10 81l65 344q1 5 -1.5 7.5t-12.5 5t-30 4.5l-39 5l-2 16h293l-4 -16l-49 -6q-41 -4 -44 -18l-64 -335q-8 -45 -8 -78q0 -146 169 -146q73 0 118.5 45t63.5 142l61 306 q4 28 4 35q0 26 -13.5 36.5t-46.5 14.5l-28 4l-2 16h220l-4 -16l-27 -4q-36 -4 -53.5 -22.5t-24.5 -66.5l-63 -310q-43 -222 -240 -222z"/>
<glyph glyph-name="Udieresis" horiz-adv-x="692" unicode="Ü" d="M348 684q-26 0 -41.5 18t-15.5 40q0 23 15.5 42t41.5 19q27 0 42.5 -19t15.5 -42q0 -22 -15.5 -40t-42.5 -18zM541 684q-26 0 -41.5 18t-15.5 40q0 23 15.5 42t41.5 19q27 0 42.5 -19t15.5 -42q0 -22 -15.5 -40t-42.5 -18zM348 -16q-112 0 -180 45t-68 133q0 34 10 81 l65 344q1 5 -1.5 7.5t-12.5 5t-30 4.5l-39 5l-2 16h293l-4 -16l-49 -6q-41 -4 -44 -18l-64 -335q-8 -45 -8 -78q0 -146 169 -146q73 0 118.5 45t63.5 142l61 306q4 28 4 35q0 26 -13.5 36.5t-46.5 14.5l-28 4l-2 16h220l-4 -16l-27 -4q-36 -4 -53.5 -22.5t-24.5 -66.5 l-63 -310q-43 -222 -240 -222z"/>
<glyph glyph-name="Yacute" horiz-adv-x="624" unicode="Ý" d="M367 665l127 186h108l-221 -186h-14zM121 0l4 16l54 6q42 4 44 18l46 236l-98 252q-16 42 -30 57t-42 19l-27 5l-1 16h286l-4 -16l-26 -2q-49 -4 -49 -34q0 -16 11 -44l79 -219l4 -1l118 165q21 29 28 39.5t18 26.5t14 24t3 15q0 11 -12 16.5t-41 9.5l-27 4l-2 16h224 l-4 -16l-26 -4q-34 -5 -63.5 -31t-87.5 -105l-133 -184l-48 -247q-1 -4 2 -7t13.5 -5.5t29.5 -4.5l44 -5l1 -16h-302z"/>
<glyph glyph-name="Thorn" horiz-adv-x="572" unicode="Þ" d="M295 176q71 0 113.5 53t42.5 129q0 54 -29.5 86t-83.5 33h-66l-54 -287q47 -14 77 -14zM-19 0l3 16l49 6q42 5 45 18l104 547q1 4 -1.5 7t-12.5 5.5t-30 4.5l-39 5l-1 16h291l-4 -16l-48 -6q-41 -5 -44 -18l-17 -87h74q103 0 160.5 -43.5t57.5 -112.5q0 -83 -70 -135 t-180 -52q-46 0 -104 13l-26 -130q-1 -7 7.5 -10.5t37.5 -6.5l51 -5l2 -16h-305z"/>
<glyph glyph-name="germandbls" horiz-adv-x="513" unicode="ß" d="M354 417q54 -38 92 -99.5t38 -123.5v-10q-2 -79 -55 -138t-124 -59h-3q-48 1 -80 29t-31 63q1 27 19.5 44.5t43.5 17.5h2q24 -1 38.5 -16t14.5 -35t-14 -35.5t-39 -17.5q3 -9 17 -19.5t31 -11.5h1q38 0 64 38.5t28 95.5v8q0 66 -36 134.5t-105 121.5l2 13q147 12 151 143 v5q0 36 -19 61t-52 25q-48 0 -69.5 -46.5t-48.5 -170.5l-68 -316q-45 -206 -111 -273q-45 -45 -114 -45q-37 0 -61.5 18.5t-24.5 47.5q0 21 14.5 37.5t38.5 16.5q23 0 38.5 -16.5t15.5 -40.5q0 -17 -8 -32h34q23 6 42.5 63.5t49.5 201.5l53 292l-85 2l13 38l84 8 q30 123 80.5 179t131.5 56q71 0 111.5 -34.5t40.5 -88.5v-8q-2 -51 -41 -82t-100 -41z"/>
<glyph glyph-name="agrave" horiz-adv-x="478" unicode="à" d="M329 498l-152 186h101l66 -186h-15zM153 54q45 0 141 182q8 14 17 42t9 38q-5 31 -30.5 55.5t-54.5 24.5q-21 0 -40 -19q-31 -32 -59 -111.5t-28 -139.5q0 -35 12 -53.5t33 -18.5zM328 -13q-17 0 -50.5 17.5t-33.5 28.5q0 30 48 160h-4q-79 -131 -105 -161 q-38 -44 -75 -44q-40 0 -67.5 29.5t-27.5 78.5q0 72 39 147t96 132q69 71 133 71q28 0 40 -23.5t12 -74.5h5l36 99l89 -3l-73 -202l-56 -192l46 -6l69 89l9 -7q-31 -64 -67 -101.5t-63 -37.5z"/>
<glyph glyph-name="aacute" horiz-adv-x="478" unicode="á" d="M247 498l127 186h108l-221 -186h-14zM153 54q45 0 141 182q8 14 17 42t9 38q-5 31 -30.5 55.5t-54.5 24.5q-21 0 -40 -19q-31 -32 -59 -111.5t-28 -139.5q0 -35 12 -53.5t33 -18.5zM328 -13q-17 0 -50.5 17.5t-33.5 28.5q0 30 48 160h-4q-79 -131 -105 -161 q-38 -44 -75 -44q-40 0 -67.5 29.5t-27.5 78.5q0 72 39 147t96 132q69 71 133 71q28 0 40 -23.5t12 -74.5h5l36 99l89 -3l-73 -202l-56 -192l46 -6l69 89l9 -7q-31 -64 -67 -101.5t-63 -37.5z"/>
<glyph glyph-name="acircumflex" horiz-adv-x="478" unicode="â" d="M148 490l155 193h36l84 -193h-16l-97 109h-3l-146 -109h-13zM153 54q45 0 141 182q8 14 17 42t9 38q-5 31 -30.5 55.5t-54.5 24.5q-21 0 -40 -19q-31 -32 -59 -111.5t-28 -139.5q0 -35 12 -53.5t33 -18.5zM328 -13q-17 0 -50.5 17.5t-33.5 28.5q0 30 48 160h-4 q-79 -131 -105 -161q-38 -44 -75 -44q-40 0 -67.5 29.5t-27.5 78.5q0 72 39 147t96 132q69 71 133 71q28 0 40 -23.5t12 -74.5h5l36 99l89 -3l-73 -202l-56 -192l46 -6l69 89l9 -7q-31 -64 -67 -101.5t-63 -37.5z"/>
<glyph glyph-name="atilde" horiz-adv-x="478" unicode="ã" d="M386 505q-33 0 -90.5 32.5t-75.5 32.5t-30 -11t-22 -46h-15q15 66 36.5 92.5t60.5 26.5q32 0 89 -32.5t75 -32.5q19 0 31 11t23 45q15 0 16 1q-17 -66 -38.5 -92.5t-59.5 -26.5zM153 54q45 0 141 182q8 14 17 42t9 38q-5 31 -30.5 55.5t-54.5 24.5q-21 0 -40 -19 q-31 -32 -59 -111.5t-28 -139.5q0 -35 12 -53.5t33 -18.5zM328 -13q-17 0 -50.5 17.5t-33.5 28.5q0 30 48 160h-4q-79 -131 -105 -161q-38 -44 -75 -44q-40 0 -67.5 29.5t-27.5 78.5q0 72 39 147t96 132q69 71 133 71q28 0 40 -23.5t12 -74.5h5l36 99l89 -3l-73 -202 l-56 -192l46 -6l69 89l9 -7q-31 -64 -67 -101.5t-63 -37.5z"/>
<glyph glyph-name="adieresis" horiz-adv-x="478" unicode="ä" d="M207 517q-26 0 -41.5 18t-15.5 40q0 23 15.5 42t41.5 19q27 0 42.5 -19t15.5 -42q0 -22 -15.5 -40t-42.5 -18zM400 517q-26 0 -41.5 18t-15.5 40q0 23 15.5 42t41.5 19q27 0 42.5 -19t15.5 -42q0 -22 -15.5 -40t-42.5 -18zM153 54q45 0 141 182q8 14 17 42t9 38 q-5 31 -30.5 55.5t-54.5 24.5q-21 0 -40 -19q-31 -32 -59 -111.5t-28 -139.5q0 -35 12 -53.5t33 -18.5zM328 -13q-17 0 -50.5 17.5t-33.5 28.5q0 30 48 160h-4q-79 -131 -105 -161q-38 -44 -75 -44q-40 0 -67.5 29.5t-27.5 78.5q0 72 39 147t96 132q69 71 133 71 q28 0 40 -23.5t12 -74.5h5l36 99l89 -3l-73 -202l-56 -192l46 -6l69 89l9 -7q-31 -64 -67 -101.5t-63 -37.5z"/>
<glyph glyph-name="aring" horiz-adv-x="478" unicode="å" d="M153 54q45 0 141 182q8 14 17 42t9 38q-5 31 -30.5 55.5t-54.5 24.5q-21 0 -40 -19q-31 -32 -59 -111.5t-28 -139.5q0 -35 12 -53.5t33 -18.5zM308 518q33 0 53.5 22.5t20.5 54.5q0 31 -20.5 53.5t-53.5 22.5q-34 0 -54 -22t-20 -54t20 -54.5t54 -22.5zM328 -13 q-17 0 -50.5 17.5t-33.5 28.5q0 30 48 160h-4q-79 -131 -105 -161q-38 -44 -75 -44q-40 0 -67.5 29.5t-27.5 78.5q0 72 39 147t96 132q69 71 133 71q28 0 40 -23.5t12 -74.5h5l36 99l89 -3l-73 -202l-56 -192l46 -6l69 89l9 -7q-31 -64 -67 -101.5t-63 -37.5zM308 503 q-41 0 -66 26.5t-25 65.5q0 38 25 64.5t66 26.5t65.5 -26.5t24.5 -64.5q0 -39 -24.5 -65.5t-65.5 -26.5z"/>
<glyph glyph-name="ae" horiz-adv-x="634" unicode="æ" d="M149 55q47 0 143 185q24 49 27 70q-5 35 -31 60.5t-56 25.5q-21 0 -40 -19q-31 -32 -57.5 -109t-26.5 -137q0 -35 11.5 -55.5t29.5 -20.5zM382 228q95 30 133.5 62t38.5 81q0 22 -15 37t-35 15t-45 -22q-22 -22 -44.5 -69.5t-34.5 -102.5zM105 -13q-40 0 -66 32t-26 81 q0 72 38 145t95 130q71 73 132 73q30 0 47.5 -29t19.5 -81q80 111 182 111q50 0 80.5 -24.5t30.5 -61.5q0 -48 -58 -79.5t-201 -71.5q-8 -32 -8 -64q0 -101 82 -101q62 0 129 91l9 -8q-84 -143 -183 -143q-59 0 -97 43t-39 106q0 21 2 32q-59 -96 -95.5 -138.5t-73.5 -42.5z "/>
<glyph glyph-name="ccedilla" horiz-adv-x="370" unicode="ç" d="M137 -13q-53 5 -87.5 47.5t-34.5 101.5q0 112 79.5 212.5t181.5 100.5q43 0 75 -23.5t32 -57.5q0 -26 -16.5 -44.5t-39.5 -18.5q-22 0 -37.5 13.5t-15.5 32.5q0 32 31 52q-27 22 -51 22q-22 0 -51 -29q-35 -35 -62 -107.5t-27 -138.5q0 -103 77 -103q32 0 59.5 20 t66.5 71l10 -8q-82 -134 -166 -142l-55 -50h12q53 0 87 -22t34 -57q0 -40 -34 -67t-84.5 -39t-116.5 -14l-1 11q168 16 168 87q0 50 -86 50q-29 0 -56 -6l2 12z"/>
<glyph glyph-name="egrave" horiz-adv-x="378" unicode="è" d="M276 498l-152 186h101l66 -186h-15zM125 228q92 29 132.5 61.5t40.5 81.5q0 22 -15.5 37t-34.5 15q-21 0 -45 -22q-23 -23 -45.5 -70t-34.5 -102zM150 -13q-59 0 -97 43t-38 106q0 112 79 212.5t176 100.5q49 0 80 -23.5t31 -61.5q0 -48 -60 -80.5t-199 -71.5 q-8 -32 -8 -64q0 -49 21 -75t61 -26q32 0 61.5 20.5t67.5 70.5l10 -8q-85 -143 -185 -143z"/>
<glyph glyph-name="eacute" horiz-adv-x="378" unicode="é" d="M222 498l127 186h108l-221 -186h-14zM125 228q92 29 132.5 61.5t40.5 81.5q0 22 -15.5 37t-34.5 15q-21 0 -45 -22q-23 -23 -45.5 -70t-34.5 -102zM150 -13q-59 0 -97 43t-38 106q0 112 79 212.5t176 100.5q49 0 80 -23.5t31 -61.5q0 -48 -60 -80.5t-199 -71.5 q-8 -32 -8 -64q0 -49 21 -75t61 -26q32 0 61.5 20.5t67.5 70.5l10 -8q-85 -143 -185 -143z"/>
<glyph glyph-name="ecircumflex" horiz-adv-x="378" unicode="ê" d="M120 490l155 193h36l84 -193h-16l-97 109h-3l-146 -109h-13zM125 228q92 29 132.5 61.5t40.5 81.5q0 22 -15.5 37t-34.5 15q-21 0 -45 -22q-23 -23 -45.5 -70t-34.5 -102zM150 -13q-59 0 -97 43t-38 106q0 112 79 212.5t176 100.5q49 0 80 -23.5t31 -61.5 q0 -48 -60 -80.5t-199 -71.5q-8 -32 -8 -64q0 -49 21 -75t61 -26q32 0 61.5 20.5t67.5 70.5l10 -8q-85 -143 -185 -143z"/>
<glyph glyph-name="edieresis" horiz-adv-x="378" unicode="ë" d="M171 517q-26 0 -41.5 18t-15.5 40q0 23 15.5 42t41.5 19q27 0 42.5 -19t15.5 -42q0 -22 -15.5 -40t-42.5 -18zM364 517q-26 0 -41.5 18t-15.5 40q0 23 15.5 42t41.5 19q27 0 42.5 -19t15.5 -42q0 -22 -15.5 -40t-42.5 -18zM125 228q92 29 132.5 61.5t40.5 81.5 q0 22 -15.5 37t-34.5 15q-21 0 -45 -22q-23 -23 -45.5 -70t-34.5 -102zM150 -13q-59 0 -97 43t-38 106q0 112 79 212.5t176 100.5q49 0 80 -23.5t31 -61.5q0 -48 -60 -80.5t-199 -71.5q-8 -32 -8 -64q0 -49 21 -75t61 -26q32 0 61.5 20.5t67.5 70.5l10 -8 q-85 -143 -185 -143z"/>
<glyph glyph-name="igrave" horiz-adv-x="262" unicode="ì" d="M204 498l-152 186h101l66 -186h-15zM108 -13q-17 0 -50 16t-33 28q0 5 119 354l-53 5l-65 -95l-11 8q32 66 70 106t69 40q21 0 49 -20t28 -39q0 -11 -25 -84t-56 -159.5t-34 -95.5l49 -7l70 89l9 -8q-31 -63 -69.5 -100.5t-66.5 -37.5z"/>
<glyph glyph-name="iacute" horiz-adv-x="262" unicode="í" d="M137 498l127 186h108l-221 -186h-14zM108 -13q-17 0 -50 16t-33 28q0 5 119 354l-53 5l-65 -95l-11 8q32 66 70 106t69 40q21 0 49 -20t28 -39q0 -11 -25 -84t-56 -159.5t-34 -95.5l49 -7l70 89l9 -8q-31 -63 -69.5 -100.5t-66.5 -37.5z"/>
<glyph glyph-name="icircumflex" horiz-adv-x="262" unicode="î" d="M108 -13q-17 0 -50 16t-33 28q0 5 119 354l-53 5l-65 -95l-11 8q32 66 70 106t69 40q21 0 49 -20t28 -39q0 -11 -25 -84t-56 -159.5t-34 -95.5l49 -7l70 89l9 -8q-31 -63 -69.5 -100.5t-66.5 -37.5zM52 492l148 192h36l77 -192h-16l-92 109h-3l-136 -109h-14z"/>
<glyph glyph-name="idieresis" horiz-adv-x="262" unicode="ï" d="M109 517q-26 0 -41.5 18t-15.5 40q0 23 15.5 42t41.5 19q27 0 42.5 -19t15.5 -42q0 -22 -15.5 -40t-42.5 -18zM302 517q-26 0 -41.5 18t-15.5 40q0 23 15.5 42t41.5 19q27 0 42.5 -19t15.5 -42q0 -22 -15.5 -40t-42.5 -18zM108 -13q-17 0 -50 16t-33 28q0 5 119 354 l-53 5l-65 -95l-11 8q32 66 70 106t69 40q21 0 49 -20t28 -39q0 -11 -25 -84t-56 -159.5t-34 -95.5l49 -7l70 89l9 -8q-31 -63 -69.5 -100.5t-66.5 -37.5z"/>
<glyph glyph-name="eth" horiz-adv-x="428" unicode="ð" d="M163 8q40 0 75.5 50t56.5 123q21 70 21 140q0 47 -15.5 75.5t-40.5 28.5q-34 0 -72 -56t-60 -130q-20 -71 -20 -129q0 -45 14.5 -73.5t40.5 -28.5zM240 557l-131 -37l6 22l111 31q-38 42 -88 63l8 17q74 -21 130 -66l125 34l-5 -21l-102 -28q114 -105 116 -267 q0 -122 -73.5 -220t-163.5 -98q-68 0 -110 54t-42 135q0 98 70 184t153 86q39 0 63 -24q-23 81 -67 135z"/>
<glyph glyph-name="ntilde" horiz-adv-x="505" unicode="ñ" d="M384 505q-33 0 -90.5 32.5t-75.5 32.5t-30 -11t-22 -46h-15q15 66 36.5 92.5t60.5 26.5q32 0 89 -32.5t75 -32.5q19 0 31 11t23 45q15 0 16 1q-17 -66 -38.5 -92.5t-59.5 -26.5zM351 -13q-17 0 -49.5 16.5t-32.5 29.5q0 5 3.5 17.5t10.5 32.5t14 38.5t17.5 47l17.5 47.5 q45 119 45 130q0 13 -15.5 24t-31.5 11q-22 0 -69.5 -71.5t-109.5 -202.5l-34 -110l-96 4l51 160l60 224l-43 5l-66 -95l-10 8q31 66 68 106t67 40q17 0 45.5 -20.5t28.5 -39.5q0 -21 -21 -92t-46 -135l5 -2q100 201 150 249q39 39 78 39q33 0 57.5 -19.5t24.5 -44.5 q0 -45 -48 -169l-62 -165l45 -6l70 89l9 -7q-32 -64 -69 -101.5t-64 -37.5z"/>
<glyph glyph-name="ograve" horiz-adv-x="425" unicode="ò" d="M299 498l-152 186h101l66 -186h-15zM163 8q40 0 74 49t56 124q21 70 21 140q0 48 -14.5 76.5t-39.5 28.5q-34 0 -71.5 -56.5t-60.5 -130.5q-20 -71 -20 -129q0 -45 14.5 -73.5t40.5 -28.5zM173 -13q-68 0 -110 54t-42 135q0 98 71 184.5t154 86.5q68 0 112.5 -54.5 t44.5 -135.5q0 -98 -72 -184t-158 -86z"/>
<glyph glyph-name="oacute" horiz-adv-x="425" unicode="ó" d="M228 498l127 186h108l-221 -186h-14zM163 8q40 0 74 49t56 124q21 70 21 140q0 48 -14.5 76.5t-39.5 28.5q-34 0 -71.5 -56.5t-60.5 -130.5q-20 -71 -20 -129q0 -45 14.5 -73.5t40.5 -28.5zM173 -13q-68 0 -110 54t-42 135q0 98 71 184.5t154 86.5q68 0 112.5 -54.5 t44.5 -135.5q0 -98 -72 -184t-158 -86z"/>
<glyph glyph-name="ocircumflex" horiz-adv-x="425" unicode="ô" d="M133 490l155 193h36l84 -193h-16l-97 109h-3l-146 -109h-13zM163 8q40 0 74 49t56 124q21 70 21 140q0 48 -14.5 76.5t-39.5 28.5q-34 0 -71.5 -56.5t-60.5 -130.5q-20 -71 -20 -129q0 -45 14.5 -73.5t40.5 -28.5zM173 -13q-68 0 -110 54t-42 135q0 98 71 184.5t154 86.5 q68 0 112.5 -54.5t44.5 -135.5q0 -98 -72 -184t-158 -86z"/>
<glyph glyph-name="otilde" horiz-adv-x="425" unicode="õ" d="M356 505q-33 0 -90.5 32.5t-75.5 32.5t-30 -11t-22 -46h-15q15 66 36.5 92.5t60.5 26.5q32 0 89 -32.5t75 -32.5q19 0 31 11t23 45q15 0 16 1q-17 -66 -38.5 -92.5t-59.5 -26.5zM163 8q40 0 74 49t56 124q21 70 21 140q0 48 -14.5 76.5t-39.5 28.5q-34 0 -71.5 -56.5 t-60.5 -130.5q-20 -71 -20 -129q0 -45 14.5 -73.5t40.5 -28.5zM173 -13q-68 0 -110 54t-42 135q0 98 71 184.5t154 86.5q68 0 112.5 -54.5t44.5 -135.5q0 -98 -72 -184t-158 -86z"/>
<glyph glyph-name="odieresis" horiz-adv-x="425" unicode="ö" d="M192 517q-26 0 -41.5 18t-15.5 40q0 23 15.5 42t41.5 19q27 0 42.5 -19t15.5 -42q0 -22 -15.5 -40t-42.5 -18zM385 517q-26 0 -41.5 18t-15.5 40q0 23 15.5 42t41.5 19q27 0 42.5 -19t15.5 -42q0 -22 -15.5 -40t-42.5 -18zM163 8q40 0 74 49t56 124q21 70 21 140 q0 48 -14.5 76.5t-39.5 28.5q-34 0 -71.5 -56.5t-60.5 -130.5q-20 -71 -20 -129q0 -45 14.5 -73.5t40.5 -28.5zM173 -13q-68 0 -110 54t-42 135q0 98 71 184.5t154 86.5q68 0 112.5 -54.5t44.5 -135.5q0 -98 -72 -184t-158 -86z"/>
<glyph glyph-name="divide" d="M276 98q0 -20 -14 -35t-35 -15t-35.5 15t-14.5 35q0 19 14.5 33t35.5 14t35 -14t14 -33zM427 225h-400l3 22h394zM276 377q0 -20 -14.5 -35t-35.5 -15t-35 15t-14 35q0 19 14 33.5t35 14.5t35.5 -14.5t14.5 -33.5z" unicode="÷"/>
<glyph glyph-name="oslash" horiz-adv-x="425" unicode="ø" d="M313 341l-200 -277q13 -55 50 -55q40 0 74 48.5t56 122.5q21 72 21 141q0 19 -1 20zM109 88l201 278q-13 59 -50 59q-34 0 -72 -56t-60 -130q-20 -71 -20 -129q0 -15 1 -22zM353 398q50 -53 50 -141q0 -99 -72 -184.5t-158 -85.5q-54 0 -91 34l-107 -149h-21l115 161 q-48 54 -48 143q0 97 71 183.5t154 86.5q54 0 95 -36l122 170h22q-81 -112 -132 -182z"/>
<glyph glyph-name="ugrave" horiz-adv-x="505" unicode="ù" d="M335 498l-152 186h101l66 -186h-15zM356 -14q-16 0 -43.5 21t-27.5 40q0 21 21 93.5t45 134.5l-5 1q-101 -202 -149 -250q-40 -38 -78 -38q-33 0 -58 20t-25 44q0 41 48 168l61 165l-45 6l-67 -96l-10 7q31 66 68 106.5t64 40.5q17 0 49.5 -17.5t32.5 -30.5 q-1 -15 -63 -181q-44 -119 -44 -130q0 -13 15 -24.5t32 -11.5q22 0 69 71.5t110 202.5l34 111l96 -4l-51 -160q-59 -218 -62 -226l43 -6l68 89l9 -7q-31 -64 -68.5 -101.5t-68.5 -37.5z"/>
<glyph glyph-name="uacute" horiz-adv-x="505" unicode="ú" d="M268 498l127 186h108l-221 -186h-14zM356 -14q-16 0 -43.5 21t-27.5 40q0 21 21 93.5t45 134.5l-5 1q-101 -202 -149 -250q-40 -38 -78 -38q-33 0 -58 20t-25 44q0 41 48 168l61 165l-45 6l-67 -96l-10 7q31 66 68 106.5t64 40.5q17 0 49.5 -17.5t32.5 -30.5 q-1 -15 -63 -181q-44 -119 -44 -130q0 -13 15 -24.5t32 -11.5q22 0 69 71.5t110 202.5l34 111l96 -4l-51 -160q-59 -218 -62 -226l43 -6l68 89l9 -7q-31 -64 -68.5 -101.5t-68.5 -37.5z"/>
<glyph glyph-name="ucircumflex" horiz-adv-x="505" unicode="û" d="M176 490l155 193h36l84 -193h-16l-97 109h-3l-146 -109h-13zM356 -14q-16 0 -43.5 21t-27.5 40q0 21 21 93.5t45 134.5l-5 1q-101 -202 -149 -250q-40 -38 -78 -38q-33 0 -58 20t-25 44q0 41 48 168l61 165l-45 6l-67 -96l-10 7q31 66 68 106.5t64 40.5q17 0 49.5 -17.5 t32.5 -30.5q-1 -15 -63 -181q-44 -119 -44 -130q0 -13 15 -24.5t32 -11.5q22 0 69 71.5t110 202.5l34 111l96 -4l-51 -160q-59 -218 -62 -226l43 -6l68 89l9 -7q-31 -64 -68.5 -101.5t-68.5 -37.5z"/>
<glyph glyph-name="udieresis" horiz-adv-x="505" unicode="ü" d="M427 517q-26 0 -41.5 18t-15.5 40q0 23 15.5 42t41.5 19q27 0 42.5 -19t15.5 -42q0 -22 -15.5 -40t-42.5 -18zM234 517q-26 0 -41.5 18t-15.5 40q0 23 15.5 42t41.5 19q27 0 42.5 -19t15.5 -42q0 -22 -15.5 -40t-42.5 -18zM356 -14q-16 0 -43.5 21t-27.5 40q0 21 21 93.5 t45 134.5l-5 1q-101 -202 -149 -250q-40 -38 -78 -38q-33 0 -58 20t-25 44q0 41 48 168l61 165l-45 6l-67 -96l-10 7q31 66 68 106.5t64 40.5q17 0 49.5 -17.5t32.5 -30.5q-1 -15 -63 -181q-44 -119 -44 -130q0 -13 15 -24.5t32 -11.5q22 0 69 71.5t110 202.5l34 111l96 -4 l-51 -160q-59 -218 -62 -226l43 -6l68 89l9 -7q-31 -64 -68.5 -101.5t-68.5 -37.5z"/>
<glyph glyph-name="yacute" horiz-adv-x="438" unicode="ý" d="M249 498l127 186h108l-221 -186h-14zM-34 -203q-42 0 -66 19t-24 50q0 23 16.5 38.5t38.5 15.5q23 0 39 -15.5t16 -39.5q0 -16 -7 -31l32 -9q29 7 80.5 46t86.5 75v18q0 168 -23 298.5t-55 130.5l-18 1l-63 -99l-10 8q36 78 63 112t67 34q68 0 93 -83.5t27 -321.5l5 -1 q40 60 81.5 161.5t43.5 150.5q-17 -9 -31 -9q-23 0 -39.5 16t-16.5 35q0 23 15 39.5t40 16.5q27 0 46 -21t19 -56q0 -84 -66 -210t-140 -201q-159 -168 -250 -168z"/>
<glyph glyph-name="thorn" horiz-adv-x="443" unicode="þ" d="M184 6q24 0 50 28q38 38 68.5 120.5t30.5 142.5q0 86 -45 86q-30 0 -64.5 -52t-82.5 -156q-10 -23 -20.5 -58.5t-10.5 -45.5q7 -25 29 -45t45 -20zM-130 -251l2 16l29 4q21 2 29 5t10 12l224 812q6 23 -6 25l-74 10l3 13l191 27l-31 -114q-53 -173 -105 -336 q-2 -6 1 -6.5t5 4.5q56 122 99.5 174.5t87.5 52.5q43 0 67.5 -39.5t24.5 -101.5q0 -77 -37 -151.5t-96 -121.5t-120 -47q-48 0 -73 45h-2l-68 -248q-1 -4 2.5 -7t14.5 -5.5t29 -2.5l41 -4l2 -16h-250z"/>
<glyph glyph-name="OE" horiz-adv-x="950" unicode="Œ" d="M379 20l47 1l108 566l-66 19q-119 -1 -195.5 -84.5t-91.5 -224.5q-3 -27 -3 -54q0 -99 49.5 -161t151.5 -62zM361 0q-149 0 -226.5 74.5t-77.5 191.5q0 13 2 39q16 139 122.5 229.5t279.5 90.5h465l-5 -198h-20l-5 36q-15 55 -32.5 82.5t-56 43.5t-106.5 16h-5l-47 -1 l-52 -274l32 1q67 2 97.5 17t48.5 54l13 30l18 -1l-50 -226l-18 1l3 30q1 5 1 14q0 34 -25.5 45.5t-96.5 14.5l-27 1l-55 -288l83 -3q104 1 157.5 36.5t95.5 110.5l17 34l23 -1l-64 -200h-489z"/>
<glyph glyph-name="oe" horiz-adv-x="654" unicode="œ" d="M163 8q40 0 74 49t56 124q21 70 21 140q0 48 -14.5 76.5t-39.5 28.5q-34 0 -71.5 -56.5t-60.5 -130.5q-20 -71 -20 -129q0 -45 14.5 -73.5t40.5 -28.5zM402 228q94 30 132.5 62t38.5 81q0 22 -15 37t-34 15q-22 0 -46 -22q-22 -22 -44.5 -69.5t-34.5 -102.5zM173 -13 q-68 0 -110 53.5t-42 135.5q0 97 70.5 184t154.5 87q93 0 131 -95q75 97 170 97q50 0 80.5 -24t30.5 -62q0 -48 -58.5 -79.5t-201.5 -71.5q-8 -32 -8 -64q0 -101 81 -101q63 0 130 91l10 -8q-85 -142 -185 -142q-79 0 -111 73q-64 -74 -142 -74z"/>
<glyph glyph-name="Scaron" horiz-adv-x="508" unicode="Š" d="M312 659l-83 193h15l98 -109h3l144 109h15l-156 -193h-36zM227 -13q-120 0 -213 50l22 162h19l22 -93q38 -98 151 -98q61 0 100 38.5t39 94.5q0 44 -32 76.5t-94 65.5q-71 39 -108 80t-37 101q0 69 59.5 121.5t147.5 52.5q71 0 156 -33l48 12l-31 -176l-18 1l-39 134 q-50 40 -113 40q-49 0 -83.5 -30t-34.5 -74q0 -45 28.5 -74.5t95.5 -64.5q74 -41 112.5 -83t38.5 -105q0 -79 -66.5 -138.5t-169.5 -59.5z"/>
<glyph glyph-name="scaron" horiz-adv-x="340" unicode="š" d="M222 490l-83 193h15l98 -109h3l144 109h15l-156 -193h-36zM126 -13q-56 0 -96 23t-40 65q0 24 16 41t40 17q18 0 31 -14t13 -33q0 -26 -24 -46q13 -11 38.5 -22t46.5 -12q29 3 48 28t20 51q0 9 -4 19t-7.5 17t-14 18.5t-15.5 16t-19.5 17.5t-18.5 17q-28 27 -42 42 t-27 39t-13 47q0 57 48 93.5t108 36.5q53 0 88.5 -20.5t35.5 -61.5q0 -25 -15 -40.5t-38 -15.5q-20 0 -33.5 14.5t-13.5 33.5q0 25 25 44q-2 1 -9 5.5t-12 7t-12.5 6t-15.5 5.5t-17 2q-28 -2 -45.5 -25.5t-18.5 -47.5q0 -9 3.5 -18.5t7.5 -16.5t13.5 -18t15 -16t18.5 -17.5 t17 -16.5q54 -53 69 -77q17 -29 17 -57q-1 -55 -53 -93t-115 -38z"/>
<glyph glyph-name="Ydieresis" horiz-adv-x="624" unicode="Ÿ" d="M302 684q-26 0 -41.5 18t-15.5 40q0 23 15.5 42t41.5 19q27 0 42.5 -19t15.5 -42q0 -22 -15.5 -40t-42.5 -18zM495 684q-26 0 -41.5 18t-15.5 40q0 23 15.5 42t41.5 19q27 0 42.5 -19t15.5 -42q0 -22 -15.5 -40t-42.5 -18zM121 0l4 16l54 6q42 4 44 18l46 236l-98 252 q-16 42 -30 57t-42 19l-27 5l-1 16h286l-4 -16l-26 -2q-49 -4 -49 -34q0 -16 11 -44l79 -219l4 -1l118 165q21 29 28 39.5t18 26.5t14 24t3 15q0 11 -12 16.5t-41 9.5l-27 4l-2 16h224l-4 -16l-26 -4q-34 -5 -63.5 -31t-87.5 -105l-133 -184l-48 -247q-1 -4 2 -7t13.5 -5.5 t29.5 -4.5l44 -5l1 -16h-302z"/>
<glyph glyph-name="circumflex" horiz-adv-x="379" unicode="ˆ" d="M101 490l155 193h36l84 -193h-16l-97 109h-3l-146 -109h-13z"/>
<glyph glyph-name="tilde" horiz-adv-x="386" unicode="˜" d="M324 505q-33 0 -90.5 32.5t-75.5 32.5t-30 -11t-22 -46h-15q15 66 36.5 92.5t60.5 26.5q32 0 89 -32.5t75 -32.5q19 0 31 11t23 45q15 0 16 1q-17 -66 -38.5 -92.5t-59.5 -26.5z"/>
<glyph glyph-name="thinspace" horiz-adv-x="60" unicode=" "/>
<glyph glyph-name="endash" horiz-adv-x="439" unicode="–" d="M13 214l9 43h410l-6 -43h-413z"/>
<glyph glyph-name="emdash" horiz-adv-x="909" unicode="—" d="M13 214l9 43h880l-5 -43h-884z"/>
<glyph glyph-name="quoteleft" horiz-adv-x="202" unicode="‘" d="M148 389q-35 0 -56 24t-21 58q0 56 51 104.5t135 72.5l6 -8q-50 -21 -83.5 -54.5t-33.5 -69.5q0 -15 6 -27.5t16.5 -20t19 -12.5t17.5 -8.5t10 -3.5q-3 -23 -21 -39t-46 -16z"/>
<glyph glyph-name="quotesinglbase" horiz-adv-x="202" unicode="‚" d="M-33 -131l-9 10q48 19 80 51t32 68q0 15 -6.5 27.5t-17 20t-20.5 12.5t-19 8.5t-10 3.5q2 23 20.5 40t45.5 17q35 0 57 -25t22 -61q0 -54 -48.5 -101.5t-126.5 -70.5z"/>
<glyph glyph-name="quotedblleft" horiz-adv-x="392" unicode="“" d="M149 389q-35 0 -56.5 24.5t-21.5 59.5q0 55 48.5 102t126.5 70l8 -8q-48 -20 -79.5 -52t-31.5 -67q0 -15 6.5 -28t17 -21t20 -13t18.5 -8.5t10 -3.5q-2 -22 -20 -38.5t-46 -16.5zM342 389q-35 0 -56.5 24t-21.5 60q0 55 48.5 102t125.5 70l9 -8q-48 -20 -79.5 -52 t-31.5 -67q0 -15 6.5 -28t17 -21t20 -13t18.5 -8.5t10 -3.5q-2 -22 -20.5 -38.5t-45.5 -16.5z"/>
<glyph glyph-name="quotedblright" horiz-adv-x="392" unicode="”" d="M69 395l-9 10q48 19 80 51t32 68q0 15 -6.5 27.5t-17 20t-20 12.5t-18.5 8.5t-10 3.5q2 23 20.5 40t45.5 17q35 0 57 -25t22 -61q0 -54 -48.5 -101.5t-127.5 -70.5zM262 395l-9 10q48 19 79.5 51t31.5 68q0 15 -6.5 27.5t-17 20t-20 12.5t-18 8.5t-9.5 3.5q2 23 20 40 t45 17q35 0 57 -25t22 -61q0 -54 -48.5 -101.5t-126.5 -70.5z"/>
<glyph glyph-name="dagger" horiz-adv-x="444" unicode="†" d="M165 -156l84 562h-195v21h197l30 198h20l-30 -198h197l-3 -21h-195l-85 -562h-20z"/>
<glyph glyph-name="daggerdbl" horiz-adv-x="444" unicode="‡" d="M165 -156l29 187h-197l3 21h196l55 364h-195v21h197l29 188h20l-29 -188h197l-3 -21h-195l-56 -364h195l1 -21h-198l-28 -187h-21z"/>
<glyph glyph-name="ellipsis" horiz-adv-x="644" unicode="…" d="M73 -13q-28 0 -47.5 19.5t-19.5 46.5t19 46t47 19q27 0 46 -19t20 -46q0 -27 -19 -46.5t-46 -19.5zM292 -13q-27 0 -46.5 19.5t-19.5 46.5q0 26 19 45.5t46 19.5q28 0 47 -19t19 -46t-18.5 -46.5t-46.5 -19.5zM512 -13q-27 0 -46.5 19.5t-19.5 46.5t19 46t47 19 q27 0 46 -19t19 -46t-19 -46.5t-46 -19.5z"/>
<glyph glyph-name="perthousand" horiz-adv-x="924" unicode="‰" d="M442 4q52 0 85 35.5t33 87.5q0 49 -31.5 82t-80.5 33q-52 0 -85 -36.5t-33 -87.5q0 -50 31 -82t81 -32zM757 4q52 0 85.5 35.5t33.5 87.5q0 49 -31.5 82t-81.5 33q-52 0 -85 -36.5t-33 -87.5q0 -50 31 -82t81 -32zM199 384q52 0 85 35t33 86q0 50 -31 83.5t-81 33.5 q-52 0 -85 -36.5t-33 -87.5q0 -50 31 -82t81 -32zM440 -16q-59 0 -96 37.5t-37 94.5q0 61 40 103.5t102 42.5q59 0 96.5 -38.5t37.5 -95.5q0 -60 -40 -102t-103 -42zM756 -16q-60 0 -96.5 37.5t-36.5 94.5q0 61 39.5 103.5t101.5 42.5q59 0 96.5 -38.5t37.5 -95.5 q0 -60 -40 -102t-102 -42zM10 -14l598 654h26l-597 -654h-27zM198 364q-59 0 -96.5 38t-37.5 95q0 60 40 102.5t102 42.5q60 0 97.5 -38.5t37.5 -95.5q0 -60 -40 -102t-103 -42z"/>
<glyph glyph-name="guilsinglleft" horiz-adv-x="272" unicode="‹" d="M211 44l-194 169l2 23l259 166l4 -10l-168 -176l104 -162z"/>
<glyph glyph-name="guilsinglright" horiz-adv-x="273" unicode="›" d="M0 43l-4 9l164 175l-100 162l7 12l193 -170l-3 -24z"/>
<glyph glyph-name="fraction" horiz-adv-x="507" unicode="⁄" d="M-41 -14l590 654h29l-591 -654h-28z"/>
<glyph glyph-name="Euro" horiz-adv-x="505" unicode="€" d="M289 -13q-95 0 -151 68t-66 167h-68l3 20h63q0 2 0.5 8t0.5 8q0 52 11 93h-54l3 20h56q35 114 124.5 187.5t191.5 73.5q65 0 105 -25.5t40 -62.5q0 -24 -16.5 -41.5t-41.5 -17.5t-39 17t-14 41q0 27 15 46q-25 22 -58 22q-75 0 -129 -65.5t-76 -174.5h197l3 -20h-203 q-8 -43 -8 -85q0 -16 1 -24h184l3 -20h-185q9 -82 52.5 -129.5t113.5 -47.5q68 0 133 63l8 -10q-39 -53 -91 -82t-108 -29z"/>
<glyph glyph-name="trademark" horiz-adv-x="564" unicode="™" d="M160 403l1 11l20 3q11 1 11 7v190h-6q-39 0 -62 -59l-4 -9h-11l8 79h204l3 -78h-12l-2 8q-12 31 -25 45t-37 14h-7v-191q0 -4 13 -6l18 -3v-11h-112zM344 403l2 11l12 2q12 1 16 8t5 37l4 138q-6 10 -17 13l-16 2l-1 11h89l47 -158h4l53 158h92l-1 -11l-19 -2 q-13 -3 -13 -8l4 -167q0 -12 3 -15t12 -5l15 -3l1 -11h-109v11l18 3q11 1 11 21l-3 165h-4l-69 -196h-20l-61 191q-4 1 -4 0l-3 -139v-11q0 -20 3.5 -25.5t15.5 -6.5l13 -2l2 -11h-82z"/>
<glyph glyph-name="minus" d="M413 225h-372l3 22h366z" unicode="−"/>
<glyph glyph-name="approxequal" d="M414 367h22q-17 -94 -106 -94q-33 0 -104 33.5t-102 33.5q-34 0 -54.5 -15t-29.5 -57h-22q17 94 106 94q33 0 104 -33.5t102 -33.5q36 0 55.5 15t28.5 57zM414 203h22q-17 -94 -106 -94q-33 0 -104 33.5t-102 33.5q-34 0 -54.5 -15t-29.5 -57h-22q17 94 106 94 q33 0 104 -33.5t102 -33.5q36 0 55.5 15t28.5 57z" unicode="≈"/>
<glyph glyph-name="notequal" d="M32 311l-3 22h215l43 150h23l-43 -150h158l-3 -22h-161l-43 -151h204l3 -22h-213l-45 -160h-23l45 160h-160l3 22h163l43 151h-206z" unicode="≠"/>
<glyph glyph-name="lessequal" horiz-adv-x="438" unicode="≤" d="M412 87l-396 173v14l396 173l8 -20l-366 -157v-4l366 -159zM421 27h-405l3 22h399z"/>
<glyph glyph-name="greaterequal" horiz-adv-x="438" unicode="≥" d="M428 260l-396 -173l-8 20l366 159v4l-366 157l8 20l396 -173v-14zM428 27h-405l3 22h399z"/>
</font>
</defs>
</svg>
