<?xml version="1.0" encoding="UTF-8" standalone="no"?>
<!DOCTYPE svg  PUBLIC '-//W3C//DTD SVG 1.1//EN'  'http://www.w3.org/Graphics/SVG/1.1/DTD/svg11.dtd'>
<svg xmlns="http://www.w3.org/2000/svg">
<defs>
<font id="FreightTextProSemibold-Regular" horiz-adv-x="480">
<font-face underline-position="-113" font-weight="600" descent="-200" panose-1="2 0 6 3 8 0 0 2 0 4" units-per-em="1000" unicode-range="U+0020-2265" bbox="-73 -273 1109 872" x-height="451" underline-thickness="20" font-family="FreightTextProSemibold" ascent="800" cap-height="625"/>
<missing-glyph horiz-adv-x="1000"/>
<glyph glyph-name=".notdef" horiz-adv-x="1000"/>
<glyph glyph-name=".null" horiz-adv-x="0"/>
<glyph glyph-name="nonmarkingreturn" horiz-adv-x="333"/>
<glyph glyph-name="space" horiz-adv-x="228" unicode=" "/>
<glyph glyph-name="exclam" horiz-adv-x="289" unicode="!" d="M210 50q0 -27 -18.5 -46t-45.5 -19q-28 0 -47 19t-19 46q0 26 19 44.5t47 18.5q27 0 45.5 -18.5t18.5 -44.5zM204 591l-47 -392q0 -7 -11 -7q-10 0 -12 7l-47 392q0 1 -0.5 4t-0.5 4q0 40 59 40h2q58 0 58 -40q0 -1 -0.5 -4t-0.5 -4z"/>
<glyph glyph-name="quotedbl" horiz-adv-x="383" unicode='&quot;' d="M206 616l-154 -213h-42l109 243h2zM373 616l-155 -213h-40l109 243h1z"/>
<glyph glyph-name="numbersign" horiz-adv-x="574" unicode="#" d="M348 221l48 180h-163l-49 -180h164zM579 401h-139l-48 -180h127v-42h-138l-50 -185h-44l50 185h-164l-50 -185h-44l50 185h-126v42h137l48 180h-126v43h138l51 187h44l-50 -187h163l50 187h44l-50 -187h127v-43z"/>
<glyph glyph-name="dollar" horiz-adv-x="528" unicode="$" d="M270 265q-60 -226 -60 -227q28 -6 55 -6q61 1 94.5 32t33.5 74q0 49 -30.5 76t-92.5 51zM257 388l52 197q-25 5 -43 5q-53 0 -82 -26t-29 -65q0 -42 26 -66.5t76 -44.5zM197 -13l-39 -146h-44l40 151q-39 6 -88 22l-12 185h50l44 -144q3 -2 10.5 -4.5t9.5 -3.5l61 232 q-82 31 -125 70t-43 111q0 73 56.5 125.5t161.5 53.5q31 0 44 -1l26 100h44l-27 -105q26 -4 39 -7l52 14v-203h-50l-33 131q-13 5 -23 8l-53 -203q45 -17 73.5 -30.5t58.5 -36.5t44.5 -55t14.5 -74q0 -78 -64.5 -134.5t-173.5 -57.5q-37 0 -54 2z"/>
<glyph glyph-name="percent" horiz-adv-x="746" unicode="%" d="M680 142q0 49 -32 84.5t-85 35.5t-85 -35.5t-32 -84.5q0 -52 32 -87t85 -35t85 35t32 87zM300 482q0 52 -32 87t-85 35t-85 -35t-32 -87q0 -49 32 -84.5t85 -35.5t85 35.5t32 84.5zM729 142q0 -70 -45.5 -118.5t-120.5 -48.5t-120.5 48t-45.5 119q0 69 45.5 117t120.5 48 q74 0 120 -48t46 -117zM654 639l-507 -654h-54l507 654h54zM349 482q0 -69 -45.5 -117t-120.5 -48q-74 0 -120 48t-46 117q0 70 45.5 118.5t120.5 48.5t120.5 -48t45.5 -119z"/>
<glyph glyph-name="ampersand" horiz-adv-x="706" unicode="&amp;" d="M396 140q-31 65 -77.5 102.5t-119.5 67.5q-76 -52 -77 -124q0 -52 39.5 -88.5t94.5 -36.5q37 0 74.5 20.5t65.5 58.5zM343 496q0 41 -23.5 71t-64.5 30q-42 0 -67.5 -26t-25.5 -64q0 -45 27 -77t86 -57q68 39 68 123zM707 59q-73 -75 -146 -75q-52 0 -86 28.5t-61 86.5 q-92 -114 -211 -114q-82 0 -130 47t-48 115q0 61 40 110t103 73q-46 22 -71.5 59.5t-25.5 84.5q0 69 57.5 117t141.5 48q75 0 122 -38t47 -92q0 -50 -33 -90t-96 -64q99 -46 153 -134q52 69 52 87q4 8 4 15q0 16 -26 21l-23 5l-2 36h219l-3 -36l-26 -6q-57 -15 -94 -63 l-78 -97q34 -69 59 -97t67 -28q35 0 79 27z"/>
<glyph glyph-name="quotesingle" horiz-adv-x="216" unicode="&apos;" d="M206 616l-154 -213h-42l110 243h1z"/>
<glyph glyph-name="parenleft" horiz-adv-x="395" unicode="(" d="M358 -247q-43 21 -87.5 61.5t-86 97.5t-67.5 137t-26 167q0 86 26 166t67.5 137.5t85.5 97.5t88 62l27 -37q-40 -21 -80.5 -60t-77 -92.5t-59.5 -125.5t-23 -148q0 -147 75.5 -263t164.5 -163z"/>
<glyph glyph-name="parenright" horiz-adv-x="395" unicode=")" d="M38 -247l-28 36q40 21 80.5 60t77 92.5t59.5 126t23 148.5t-23 148t-59.5 125.5t-77 92.5t-80.5 60l28 37q43 -22 87 -62t85.5 -97.5t67.5 -137.5t26 -166q0 -87 -26 -167t-67.5 -137t-85.5 -97.5t-87 -61.5z"/>
<glyph glyph-name="asterisk" horiz-adv-x="352" unicode="*" d="M348 463l-51 -34l-97 38l-10 -13l66 -80l-15 -59l-21 -6l-47 38l4 104l-15 4l-53 -86l-61 -6l-15 18l22 59l98 26v19l-98 28l-22 57l13 18l63 -5l53 -88l16 5l-3 103l46 38l22 -7l15 -59l-68 -80l10 -13l97 37l51 -34v-22z"/>
<glyph glyph-name="plus" d="M450 207h-182v-184h-55v184h-183l3 55h180v183h55v-183h179z" unicode="+"/>
<glyph glyph-name="comma" horiz-adv-x="232" unicode="," d="M206 25q0 -101 -150 -206l-27 21q89 62 89 131q0 27 -21 48t-42 31l-21 10q0 27 20.5 46.5t53.5 19.5q38 0 68 -29.5t30 -71.5z"/>
<glyph glyph-name="hyphen" horiz-adv-x="331" unicode="-" d="M300 211h-267l3 57h261z"/>
<glyph glyph-name="period" horiz-adv-x="233" unicode="." d="M189 57q0 -29 -20.5 -50.5t-51.5 -21.5q-30 0 -51.5 21.5t-21.5 50.5t21 50t52 21t51.5 -21t20.5 -50z"/>
<glyph glyph-name="slash" horiz-adv-x="279" unicode="/" d="M6 -203l215 877h50l-215 -877h-50z"/>
<glyph glyph-name="zero" horiz-adv-x="564" unicode="0" d="M452 235q0 80 -47.5 130.5t-123.5 50.5t-123 -49.5t-47 -129.5t48 -131t124 -51t122.5 50t46.5 130zM526 237q0 -112 -68.5 -182t-176.5 -70t-175.5 69t-67.5 181t68.5 182t176.5 70t175.5 -69t67.5 -181z"/>
<glyph glyph-name="one" horiz-adv-x="380" unicode="1" d="M338 0h-278l3 38l62 11q23 7 23 23v331l-109 9l3 32l205 41v-413q0 -19 23 -23l65 -11z"/>
<glyph glyph-name="two" horiz-adv-x="478" unicode="2" d="M452 165l-12 -165h-403l-6 64q140 104 182 146q58 59 58 105q0 41 -27 67t-72 26q-59 0 -109 -66l-21 11q21 64 72.5 99t115.5 35t108 -37t44 -95q0 -43 -34 -87t-68.5 -70.5t-126.5 -89.5q-24 -17 -37 -26v-5h50q74 0 111.5 1.5t64 7t36 14t18.5 25.5l21 40h35z"/>
<glyph glyph-name="three" horiz-adv-x="431" unicode="3" d="M225 188v-3q77 0 126.5 -42t49.5 -113q0 -93 -78 -162t-183 -69q-56 0 -93 23.5t-37 57.5q0 22 15 37.5t37 15.5q31 0 53 -26t27 -60q7 -2 21 -2q53 0 93.5 39t40.5 103q0 61 -35 98t-92 37q-40 0 -81 -18l-12 30q11 7 40 25.5t42.5 27.5t35.5 26t32 30t18.5 31t8.5 37 q0 41 -28 69t-72 28q-65 0 -113 -66q-8 2 -21 11q21 63 74.5 98.5t120.5 35.5q65 0 107 -37t42 -90q0 -50 -33.5 -90.5t-105.5 -81.5z"/>
<glyph glyph-name="four" horiz-adv-x="501" unicode="4" d="M289 89v270h-4l-203 -270h207zM495 17h-110v-201h-96v201h-277l-4 36l321 429h56v-393h117z"/>
<glyph glyph-name="five" horiz-adv-x="436" unicode="5" d="M116 259q271 -71 271 -229q0 -94 -76 -162t-173 -68q-59 0 -95.5 21.5t-36.5 56.5q0 22 15 37.5t37 15.5q29 0 51.5 -23.5t27.5 -57.5q17 -5 31 -5q56 0 93.5 40t37.5 98q0 133 -252 196l74 293h278l-3 -93h-249z"/>
<glyph glyph-name="six" horiz-adv-x="525" unicode="6" d="M379 173q0 73 -35.5 118t-89.5 45q-58 0 -99 -41q-8 -14 -8 -59q0 -82 35.5 -145t95.5 -63q48 0 74.5 41t26.5 104zM482 204q0 -97 -65.5 -159.5t-160.5 -62.5q-100 0 -158.5 74t-58.5 180q0 169 128.5 290.5t307.5 132.5l7 -35q-133 -18 -215.5 -96t-110.5 -186l1 -2 q67 57 146 57q81 0 130 -54.5t49 -138.5z"/>
<glyph glyph-name="seven" horiz-adv-x="482" unicode="7" d="M461 428l-313 -612h-64l299 566v4h-138q-103 0 -124 -3.5t-30 -23.5l-30 -60h-35l22 173h408z"/>
<glyph glyph-name="eight" horiz-adv-x="514" unicode="8" d="M385 120q0 15 -3 28.5t-10 25.5t-13 21t-20 19.5t-21.5 16.5t-26 16t-26 13.5t-29 14t-27.5 13.5q-72 -56 -73 -136q0 -55 37.5 -92.5t95.5 -37.5q53 0 84.5 28t31.5 70zM355 479q0 49 -31.5 87.5t-81.5 38.5q-44 0 -71 -28.5t-27 -68.5v-2q0 -27 10 -48t33.5 -39.5 t40.5 -28t53 -27.5q9 -5 14 -7q60 42 60 123zM473 162q0 -74 -61.5 -125.5t-163.5 -51.5q-86 0 -146.5 44.5t-60.5 115.5q0 54 36 96t98 63v1q-57 31 -88.5 68t-31.5 93q1 66 55.5 120t150.5 54q80 0 134.5 -44t54.5 -113q0 -96 -120 -143v-1q67 -35 105.5 -74.5 t37.5 -102.5z"/>
<glyph glyph-name="nine" horiz-adv-x="525" unicode="9" d="M375 237q0 81 -35.5 144t-94.5 63q-49 0 -75.5 -41t-26.5 -103q0 -73 35.5 -118t90.5 -45q57 0 99 40q7 12 7 60zM484 236q0 -112 -60 -207t-159.5 -151.5t-216.5 -64.5l-8 35q133 18 215.5 96.5t111.5 185.5l-2 2q-68 -57 -145 -57q-80 0 -130 55t-50 138q0 97 65.5 160 t160.5 63q101 0 159.5 -74.5t58.5 -180.5z"/>
<glyph glyph-name="colon" horiz-adv-x="232" unicode=":" d="M189 57q0 -29 -20.5 -50.5t-51.5 -21.5q-30 0 -51.5 21.5t-21.5 50.5t21 50t52 21t51.5 -20.5t20.5 -50.5zM189 361q0 -29 -20.5 -50.5t-51.5 -21.5q-30 0 -51.5 21.5t-21.5 50.5t21 50t52 21t51.5 -20.5t20.5 -50.5z"/>
<glyph glyph-name="semicolon" horiz-adv-x="232" unicode=";" d="M206 25q0 -101 -150 -206l-27 21q89 62 89 131q0 27 -21 48t-42 31l-21 10q0 27 20.5 46.5t53.5 19.5q38 0 68 -29.5t30 -71.5zM187 361q0 -29 -20.5 -50.5t-51.5 -21.5q-30 0 -51.5 21.5t-21.5 50.5t21 50t52 21t51.5 -20.5t20.5 -50.5z"/>
<glyph glyph-name="less" d="M431 33l-404 188v28l404 188l13 -50l-326 -150v-3l326 -151z" unicode="&lt;"/>
<glyph glyph-name="equal" d="M440 121h-400l3 55h394zM437 293h-394l-3 55h400z" unicode="="/>
<glyph glyph-name="greater" d="M453 221l-404 -188l-13 50l326 151v3l-326 150l13 50l404 -188v-28z" unicode="&gt;"/>
<glyph glyph-name="question" horiz-adv-x="378" unicode="?" d="M229 50q0 -27 -18 -46.5t-46 -19.5q-27 0 -46 19.5t-19 46.5q0 26 19 44.5t46 18.5q28 0 46 -18.5t18 -44.5zM342 463q0 -60 -26 -86t-87 -50q-55 -21 -68 -35q-12 -13 -12 -31q0 -31 41 -74h-35q-69 48 -69 108q0 48 28.5 71.5t92.5 46.5q63 24 76 37q10 10 10 23 q0 30 -44.5 50t-107.5 20q-30 0 -72 -7q-17 15 -17 40q0 28 23.5 45.5t64.5 17.5q80 0 141 -53.5t61 -122.5z"/>
<glyph glyph-name="at" horiz-adv-x="853" unicode="@" d="M519 354q-12 22 -42 43.5t-57 21.5q-23 0 -35 -12q-24 -23 -48.5 -102t-24.5 -131q0 -27 15.5 -43t33.5 -16q31 0 139 181q5 9 12 32t7 26zM481 125q0 5 14 58t17 62h-13q-54 -96 -93.5 -145t-78.5 -49q-43 0 -75 31.5t-32 70.5q0 60 34 139.5t80 125.5q55 55 113 55 q71 0 93 -76h11l24 66h70l-59 -166l-26 -168q-1 -3 -1 -8q0 -18 15.5 -29t43.5 -11q64 0 108.5 59t49.5 151v18q0 130 -91.5 212.5t-231.5 85.5h-9q-140 0 -243 -101t-110 -242q0 -4 -0.5 -11.5t-0.5 -10.5q0 -148 95.5 -242t234.5 -94q56 0 125 19l11 -37q-70 -23 -139 -23 q-156 0 -264 106.5t-108 270.5v21q8 160 123.5 272t276.5 112h11q157 -4 261.5 -97t104.5 -239q0 -3 -0.5 -10t-0.5 -10q-6 -114 -73 -185t-156 -71q-61 0 -87 21.5t-26 52.5q0 6 2 16z"/>
<glyph glyph-name="A" horiz-adv-x="616" unicode="A" d="M364 262l-81 261h-7l-88 -261h176zM632 0h-288l3 38l43 7q16 3 23 9t7 18q0 20 -20 78l-21 67h-206l-18 -59q-20 -55 -20 -80q0 -28 27 -33l37 -7l3 -38h-220l3 38l26 7q24 6 37.5 18.5t31.5 51.5t50 127l117 324v39l106 39l190 -565q7 -25 40 -31l46 -10z"/>
<glyph glyph-name="B" horiz-adv-x="599" unicode="B" d="M420 459q0 58 -36.5 92t-108.5 34h-47v-245l60 1q65 1 98.5 35.5t33.5 82.5zM444 162q0 67 -47.5 102.5t-125.5 35.5h-43v-249l62 -12h17q58 2 97.5 34.5t39.5 88.5zM566 168q0 -81 -68 -124.5t-198 -43.5h-262l3 37l39 5q35 4 35 18v506q0 7 -7 10.5t-30 6.5l-37 5 l-3 37h270q235 0 235 -139q0 -61 -46.5 -104t-117.5 -54v-5q91 -9 139 -51t48 -104z"/>
<glyph glyph-name="C" horiz-adv-x="696" unicode="C" d="M633 199l-21 -199l-58 11q-76 -26 -158 -26q-155 0 -253.5 84.5t-98.5 235.5q0 152 100.5 243t254.5 91q80 0 144 -22l86 18v-213h-58l-34 136q-62 36 -137 36q-105 0 -167.5 -76.5t-62.5 -198.5q0 -133 62.5 -212t175.5 -79q66 0 117 28l47 143h61z"/>
<glyph glyph-name="D" horiz-adv-x="702" unicode="D" d="M535 303q0 130 -71 206t-205 76h-31v-530l72 -15q109 1 172 75t63 188zM658 328q0 -139 -99 -233.5t-277 -94.5h-244l3 37l39 5q35 4 35 18v506q0 7 -7 10.5t-30 6.5l-37 5l-3 37l246 3h8q166 0 266 -84t100 -216z"/>
<glyph glyph-name="E" horiz-adv-x="618" unicode="E" d="M573 189l-19 -189h-516l3 37l39 5q35 4 35 18v506q0 7 -7 10.5t-30 6.5l-37 5l-3 37h518v-196h-58l-23 90q-9 32 -25 44t-52.5 16t-128.5 4h-41v-245h26q52 0 70 5t25 22l23 67h46l-22 -228h-44l-9 63q-2 17 -18.5 23t-73.5 6h-23v-254h38q96 0 136 4.5t57 16.5t28 43 l23 83h63z"/>
<glyph glyph-name="F" horiz-adv-x="582" unicode="F" d="M543 429h-59l-21 90q-5 16 -9 25.5t-14.5 17.5t-21.5 11.5t-36 6t-51.5 3t-74.5 0.5h-28v-254h34q52 0 70 5t25 22l24 68h45l-23 -229h-43l-9 64q-2 17 -18.5 22.5t-73.5 5.5h-31v-228q0 -8 7.5 -11.5t28.5 -5.5l58 -5l3 -37h-287l3 37l39 5q35 4 35 18v506q0 7 -7 10.5 t-30 6.5l-37 5l-3 37h505v-196z"/>
<glyph glyph-name="G" horiz-adv-x="725" unicode="G" d="M698 280l-3 -37l-40 -5q-35 -4 -35 -18v-146l60 -7l3 -28q-142 -54 -289 -54q-155 0 -252.5 86.5t-97.5 233.5q0 152 104.5 243t256.5 91q81 0 142 -22l84 18v-212h-61l-33 136q-58 35 -136 35q-100 0 -165.5 -78t-65.5 -196q0 -135 60 -213.5t169 -78.5q60 0 110 24v169 q0 8 -7.5 11.5t-28.5 5.5l-46 5l-3 37h274z"/>
<glyph glyph-name="H" horiz-adv-x="746" unicode="H" d="M708 0h-266l3 37l38 5q35 3 35 18v237h-290v-238q0 -8 7.5 -11.5t28.5 -5.5l38 -5l3 -37h-267l3 37l39 5q35 4 35 18v506q0 7 -7 10.5t-30 6.5l-37 5l-3 37h267l-3 -37l-39 -5q-35 -4 -35 -18v-223h290v224q0 8 -7.5 11.5t-28.5 5.5l-37 5l-3 37h266l-3 -37l-39 -5 q-35 -4 -35 -18v-506q0 -7 7 -10.5t30 -6.5l37 -5z"/>
<glyph glyph-name="I" horiz-adv-x="367" unicode="I" d="M327 0h-287l3 37l49 5q35 4 35 18v506q0 7 -7 10.5t-30 6.5l-47 5l-3 37h287l-3 -37l-49 -5q-35 -4 -35 -18v-506q0 -8 7.5 -11.5t28.5 -5.5l48 -5z"/>
<glyph glyph-name="J" horiz-adv-x="423" unicode="J" d="M400 625l-3 -37l-45 -5q-35 -4 -35 -18v-294q0 -145 -52 -215.5t-149 -70.5q-49 0 -80.5 20.5t-31.5 51.5q0 23 15.5 37.5t39.5 14.5q30 0 54 -24q21 -21 30 -63h1q33 16 46.5 58.5t13.5 149.5v336q0 8 -7.5 11.5t-28.5 5.5l-58 5l-3 37h293z"/>
<glyph glyph-name="K" horiz-adv-x="659" unicode="K" d="M656 0h-254l3 37l29 7q8 3 8 11q0 9 -8 22l-147 223l-59 -57v-184q0 -8 7.5 -11.5t28.5 -5.5l38 -5l3 -37h-267l3 37l39 5q35 4 35 18v506q0 7 -7 10.5t-30 6.5l-37 5l-3 37h267l-3 -37l-39 -5q-35 -4 -35 -18v-262l176 175q56 56 56 82q0 17 -27 22l-38 6l-3 37h263 l-3 -37l-37 -7q-27 -5 -51.5 -21t-60.5 -51l-139 -137l198 -282q18 -25 30.5 -34.5t33.5 -13.5l27 -5z"/>
<glyph glyph-name="L" horiz-adv-x="577" unicode="L" d="M544 202l-21 -202h-485l3 37l39 6q35 3 35 18v505q0 7 -7.5 10.5t-29.5 5.5l-37 6l-3 37h273l-3 -37l-45 -6q-35 -3 -35 -18v-522h24q88 0 125 4.5t53 16.5t26 43l26 96h62z"/>
<glyph glyph-name="M" horiz-adv-x="875" unicode="M" d="M844 0h-279l3 37l54 7q22 3 22 106q0 17 -2 87l-11 324h-8l-187 -541h-68l-177 521h-12l-14 -300q-5 -110 -5 -139q0 -36 3.5 -46t14.5 -12l56 -7l3 -37h-218l3 37l54 7q12 2 18 12t12 53.5t11 131.5l13 258v11q0 58 -41 67l-56 10l-3 38h250l154 -454h7l152 454h244 l-3 -38l-66 -5q-23 -3 -23 -30l10 -315q2 -81 6 -122.5t10 -55t17 -15.5l53 -7z"/>
<glyph glyph-name="N" horiz-adv-x="742" unicode="N" d="M716 625l-3 -37l-47 -10q-19 -3 -27 -14.5t-12 -52.5t-4 -132v-387h-71l-377 517h-6v-263q0 -93 3.5 -132.5t11 -51.5t26.5 -15l51 -10l3 -37h-232l3 37l47 10q19 3 27 14.5t12 52.5t4 132v251q0 62 -40 80l-47 11l-3 37h194l343 -474h6v228q0 94 -3.5 133t-11 51 t-26.5 15l-51 10l-3 37h233z"/>
<glyph glyph-name="O" horiz-adv-x="753" unicode="O" d="M583 304q0 134 -60.5 213t-148.5 79t-146 -74t-58 -204q0 -134 60.5 -213t148.5 -79t146 73.5t58 204.5zM708 316q0 -140 -97 -236t-236 -96q-145 0 -238 89.5t-93 232.5q0 140 98 236t237 96q145 0 237 -89.5t92 -232.5z"/>
<glyph glyph-name="P" horiz-adv-x="587" unicode="P" d="M435 436q0 68 -37 108t-101 40h-69v-287q31 -7 70 -7q61 0 99 39.5t38 106.5zM558 455q0 -97 -73.5 -151.5t-181.5 -54.5q-27 0 -75 4v-194q0 -8 7.5 -11.5t28.5 -5.5l54 -5l3 -37h-283l3 37l39 5q35 4 35 18v506q0 7 -7 10.5t-30 6.5l-37 5l-3 37h269q120 0 185.5 -47.5 t65.5 -122.5z"/>
<glyph glyph-name="Q" horiz-adv-x="753" unicode="Q" d="M583 304q0 134 -60.5 213t-148.5 79t-146 -74t-58 -204q0 -134 60.5 -213t148.5 -79t146 73.5t58 204.5zM763 -159q-59 -22 -139 -22q-102 0 -163.5 38.5t-109.5 127.5q-136 7 -221.5 95.5t-85.5 225.5q0 140 98 236t237 96q145 0 237 -89.5t92 -232.5q0 -112 -63.5 -198 t-164.5 -118q74 -126 230 -126q32 0 49 2z"/>
<glyph glyph-name="R" horiz-adv-x="620" unicode="R" d="M425 449q0 65 -33 99.5t-96 34.5h-13l-55 -1v-263l66 -6q131 12 131 136zM406 298l129 -202q21 -29 32.5 -39t27.5 -13l29 -7l4 -37h-178l-39 74l-113 201l-70 -2v-214q0 -8 7.5 -11.5t28.5 -5.5l40 -5l3 -37h-269l3 37l39 5q35 4 35 18v506q0 7 -7 10.5t-30 6.5l-37 5 l-3 37h276q117 0 176 -41.5t59 -113.5q0 -61 -37.5 -104.5t-105.5 -67.5z"/>
<glyph glyph-name="S" horiz-adv-x="533" unicode="S" d="M489 177q0 -78 -65.5 -134.5t-174.5 -57.5h-8q-81 0 -179 29l-12 185h53l45 -142q59 -25 110 -25h4q61 0 94 31.5t33 74.5q0 30 -10.5 51.5t-35 37.5t-45.5 25t-61 23q-43 15 -71 28.5t-55.5 35t-41 51.5t-13.5 70q0 73 57 125.5t163 53.5q57 0 129 -13l52 14v-203h-52 l-36 133q-49 20 -104 20q-54 0 -83.5 -26.5t-29.5 -64.5q0 -22 8.5 -39.5t19 -29t33.5 -23.5t38 -18.5t46 -17.5q96 -34 144 -74.5t48 -119.5z"/>
<glyph glyph-name="T" horiz-adv-x="630" unicode="T" d="M599 422h-57l-22 90q-12 44 -38 57t-107 14h-3v-524q0 -8 7 -11.5t28 -5.5l55 -5l3 -37h-300l3 37l55 5q35 4 35 18v523h-3q-81 0 -108 -11.5t-40 -52.5l-26 -97h-61l18 203h561v-203z"/>
<glyph glyph-name="U" horiz-adv-x="712" unicode="U" d="M693 625l-3 -37l-47 -10q-19 -3 -27 -15t-12 -52t-4 -132v-172q0 -103 -66 -164t-179 -61q-115 0 -181 55.5t-66 162.5v366q0 7 -7 10.5t-29 6.5l-37 5l-3 37h266l-3 -37l-39 -5q-34 -4 -34 -18v-337q0 -94 44.5 -139.5t124.5 -45.5q78 0 121 45.5t43 131.5v159 q0 93 -3.5 132.5t-11 51.5t-26.5 15l-51 10l-3 37h233z"/>
<glyph glyph-name="V" horiz-adv-x="635" unicode="V" d="M655 625l-3 -38l-26 -7q-35 -8 -54.5 -39t-65.5 -159l-137 -383h-109l-190 547q-8 26 -36 31l-47 10l-3 38h285l-3 -38l-43 -7q-27 -4 -27 -23q0 -16 22 -82l127 -382h12l104 303q31 90 31 135q0 47 -42 53l-28 3l-3 38h236z"/>
<glyph glyph-name="W" horiz-adv-x="941" unicode="W" d="M961 625l-3 -38l-22 -7q-26 -8 -38.5 -20t-30 -50.5t-46.5 -127.5l-124 -383h-80l-132 409h-5l-143 -409h-82l-184 547q-8 26 -36 31l-48 10l-3 38h289l-3 -38l-46 -7q-25 -4 -25 -25q0 -13 20 -80l107 -347h6l124 348l-23 70q-8 26 -37 31l-46 10l-3 38h285l-3 -38 l-47 -7q-23 -4 -23 -26q0 -19 19 -79l105 -348l7 1l77 254q35 115 35 152q0 22 -9.5 31.5t-30.5 14.5l-37 7l-4 38h240z"/>
<glyph glyph-name="X" horiz-adv-x="633" unicode="X" d="M635 0h-278l3 37l37 7q23 4 23 20q0 19 -41 80l-83 127h-5l-96 -144q-27 -36 -27 -56q0 -22 29 -28l31 -6l3 -37h-230l3 37l38 9q21 6 39 22.5t44 50.5l141 187l-162 229q-26 37 -46 42l-44 11l-3 37h278l-3 -37l-36 -7q-24 -4 -24 -20q0 -20 41 -81l67 -103h5l85 127 q25 34 25 53t-27 25l-32 6l-3 37h224l-3 -37l-37 -9q-37 -9 -89 -79l-116 -157l178 -256q22 -32 44 -39l44 -11z"/>
<glyph glyph-name="Y" horiz-adv-x="604" unicode="Y" d="M612 625l-3 -38l-17 -5q-28 -8 -48.5 -25.5t-49.5 -64.5l-131 -222v-211q0 -8 7.5 -11.5t28.5 -5.5l55 -5l3 -37h-301l3 37l56 5q35 4 35 18v197l-176 285q-20 30 -50 37l-31 8l-3 38h270l-3 -38l-37 -6q-20 -3 -20 -22q0 -23 35 -84l94 -162h6l100 177q25 41 25 63 q0 23 -30 29l-26 5l-3 38h211z"/>
<glyph glyph-name="Z" horiz-adv-x="588" unicode="Z" d="M566 194l-21 -194h-507v41l385 537v5h-113q-73 -1 -107 -8t-47 -21.5t-24 -48.5l-20 -80h-55v200h498v-41l-387 -538l-1 -5l124 1q78 0 116.5 8t51 21t23.5 43l23 80h61z"/>
<glyph glyph-name="bracketleft" horiz-adv-x="368" unicode="[" d="M349 -216h-256v873h256v-45h-203v-782h203v-46z"/>
<glyph glyph-name="backslash" horiz-adv-x="279" unicode="\" d="M272 -203h-50l-215 877h50z"/>
<glyph glyph-name="bracketright" horiz-adv-x="368" unicode="]" d="M19 -216v46h203v782h-203v45h256v-873h-256z"/>
<glyph glyph-name="asciicircum" horiz-adv-x="400" unicode="^" d="M335 513h-32l-102 106h-2l-102 -106h-32l111 192h48z"/>
<glyph glyph-name="underscore" horiz-adv-x="470" unicode="_" d="M479 -53h-488l3 53h482z"/>
<glyph glyph-name="grave" horiz-adv-x="400" unicode="`" d="M256 513h-34l-173 184h113z"/>
<glyph glyph-name="a" horiz-adv-x="469" unicode="a" d="M282 97l4 143q-87 -22 -120.5 -50t-33.5 -63q0 -32 20.5 -51t48.5 -19q38 0 81 40zM469 56q-55 -73 -108 -73q-31 0 -51 20t-22 59h-5q-64 -77 -127 -77q-50 0 -86 33t-36 84q0 61 60.5 101t193.5 72v9q1 70 -24 99.5t-74 29.5q-24 0 -47.5 -7.5t-23.5 -13.5q0 -1 6 -8.5 t12 -19.5t6 -25q0 -19 -15.5 -34.5t-40.5 -15.5q-24 0 -40 14.5t-16 35.5q0 41 69 84t137 43q81 0 116.5 -39t35.5 -137q0 -4 -0.5 -12.5t-0.5 -13.5l-7 -167v-8q0 -33 23 -33q16 0 48 24z"/>
<glyph glyph-name="b" horiz-adv-x="534" unicode="b" d="M393 203q0 82 -33.5 130t-87.5 48q-58 0 -99 -48v-244q54 -61 108 -61q46 0 79 48.5t33 126.5zM501 243q0 -105 -66 -181.5t-176 -76.5q-57 0 -118 24h-1l-54 -30h-13v587q0 22 -14 29l-58 26l3 27l169 49v-313h5q65 75 143 75q81 0 130.5 -62t49.5 -154z"/>
<glyph glyph-name="c" horiz-adv-x="454" unicode="c" d="M430 110q-26 -60 -76 -92.5t-115 -32.5q-89 0 -147.5 64t-58.5 161q0 110 70.5 183t172.5 73q69 0 109 -29t40 -71q0 -30 -18 -43.5t-43 -13.5q-26 0 -43 22.5t-17 53.5q0 11 3 23v2q-19 13 -48 13q-52 0 -86.5 -44t-34.5 -122q0 -84 41.5 -138.5t105.5 -54.5 q75 0 124 58z"/>
<glyph glyph-name="d" horiz-adv-x="543" unicode="d" d="M360 99v254q-54 63 -108 63q-49 0 -80.5 -47t-31.5 -124q0 -84 35.5 -134t94.5 -50q49 0 90 38zM533 31l-3 -27l-170 -19v70h-3q-59 -69 -139 -69q-81 0 -133 63t-52 159q0 105 68.5 179t180.5 74q34 0 77 -12h1v145q0 22 -13 28l-66 22l4 26l175 24v-616q0 -25 14 -29z "/>
<glyph glyph-name="e" horiz-adv-x="472" unicode="e" d="M329 296v13q0 54 -21 85t-57 31q-41 0 -73 -34.5t-39 -95.5zM430 110q-26 -60 -76 -92.5t-116 -32.5q-89 0 -147 64t-58 161q0 110 68.5 183t169.5 73q73 0 118 -41.5t45 -111.5q0 -29 -6 -55l-291 4v-11q1 -84 42 -135.5t106 -51.5q75 0 124 58z"/>
<glyph glyph-name="f" horiz-adv-x="331" unicode="f" d="M410 626q0 -26 -15.5 -40t-38.5 -14q-25 0 -44 18.5t-28 55.5l-1 4l-29 2q-65 -40 -65 -167v-37h137l-7 -55h-130v-335q0 -16 38 -18l48 -3l3 -37h-251l3 37l26 3q34 3 34 19v330l-81 6l6 53h70l1 22q6 100 70.5 163.5t151.5 63.5q42 0 72 -20.5t30 -50.5z"/>
<glyph glyph-name="g" horiz-adv-x="482" unicode="g" d="M371 -116q0 75 -88 82q-11 1 -35 1q-11 0 -44 -0.5t-57 -0.5q-17 -7 -34 -29t-17 -51q0 -46 39 -74.5t102 -28.5q59 0 96.5 29t37.5 72zM308 300q0 73 -33 106q-24 22 -52 22q-39 0 -62.5 -31t-23.5 -85q0 -76 38 -114q22 -20 46 -20q35 0 57 20q30 28 30 102zM487 367 l-104 18v-5q23 -34 23 -72q0 -72 -53 -119.5t-134 -47.5q-29 0 -59 7q-12 -6 -24 -18.5t-12 -24.5q0 -20 17.5 -32.5t46.5 -12.5q22 0 63.5 1.5t57.5 1.5q62 0 104.5 -39.5t42.5 -97.5q0 -80 -74.5 -133t-191.5 -53q-82 0 -131.5 32t-49.5 85q0 76 97 114v4q-30 7 -49.5 30 t-19.5 50q0 30 24.5 57.5t61.5 41.5l3 5q-89 40 -89 139q0 71 51.5 119.5t135.5 48.5q62 0 123 -29h141z"/>
<glyph glyph-name="h" horiz-adv-x="547" unicode="h" d="M536 0h-226l3 37l22 3q34 2 34 19v202q0 71 -21.5 98.5t-67.5 27.5q-53 0 -100 -37v-292q0 -16 38 -18l31 -3l3 -37h-234l3 37l26 3q34 3 34 19v507q0 21 -14 29l-60 26l3 27l170 49v-304h5q90 73 162 73q51 0 84 -33q38 -39 38 -114v-260q0 -8 8 -12t33 -7l23 -3z"/>
<glyph glyph-name="i" horiz-adv-x="284" unicode="i" d="M258 0h-228l3 37l25 3q34 3 34 19v246q0 46 -7.5 60t-35.5 22l-21 5l1 29l163 45v-408q0 -16 38 -18l25 -3zM196 610q0 -28 -17 -47.5t-46 -19.5t-46 19.5t-17 47.5t17 47t46 19t46 -19t17 -47z"/>
<glyph glyph-name="j" horiz-adv-x="269" unicode="j" d="M188 -13q-7 -112 -62.5 -180t-118.5 -68q-36 0 -58 17t-22 48q0 22 17 37t38 15q51 0 74 -60q32 13 32 134v375q0 46 -7.5 60t-35.5 22l-21 5l1 29l163 45v-479zM192 610q0 -28 -17 -47.5t-46 -19.5t-46 19.5t-17 47.5t17 47t46 19t46 -19t17 -47z"/>
<glyph glyph-name="k" horiz-adv-x="511" unicode="k" d="M504 0h-156l-51 90l-78 125l-39 -36v-121q0 -8 7 -11.5t30 -6.5l22 -3l3 -37h-224l3 37l26 3q34 4 34 19v507q0 21 -14 29l-60 26l3 27l170 49v-465l55 50q27 25 36 33.5t25 25t21 26t5 17.5q0 22 -37 28l-13 2l-3 37h223l-3 -37l-18 -4q-27 -4 -56 -25t-86 -73l-39 -35 l132 -192q28 -41 52 -44l27 -4z"/>
<glyph glyph-name="l" horiz-adv-x="282" unicode="l" d="M257 0h-229l3 37l26 3q34 3 34 19v507q0 22 -14 29l-59 26l3 27l170 49v-639q0 -16 38 -18l25 -3z"/>
<glyph glyph-name="m" horiz-adv-x="832" unicode="m" d="M818 0h-227l3 37l23 3q34 2 34 19v202q0 126 -89 126q-46 0 -92 -40q1 -6 1 -28v-260q0 -8 8 -12t33 -7l22 -3l3 -37h-226l4 37l22 3q34 2 34 19v202q0 126 -89 126q-44 0 -91 -37v-292q0 -16 38 -18l28 -3l3 -37h-232l3 37l26 3q34 3 34 19v246q0 46 -8 60t-35 22l-22 5 l1 29l164 45v-73h3q86 73 155 73q51 0 84 -33q20 -21 28 -46h4q85 79 164 79q51 0 84 -33q38 -39 38 -114v-260q0 -8 8 -12t33 -7l23 -3z"/>
<glyph glyph-name="n" horiz-adv-x="560" unicode="n" d="M547 0h-227l3 37l22 3q34 2 34 19v202q0 71 -21.5 98.5t-67.5 27.5q-54 0 -99 -37v-292q0 -16 38 -18l30 -3l3 -37h-234l3 37l26 3q34 3 34 19v246q0 46 -8 60t-35 22l-22 5l1 29l164 45v-73h5q90 73 162 73q50 0 83 -33q38 -38 38 -114v-260q0 -8 8 -12t33 -7l24 -3z "/>
<glyph glyph-name="o" horiz-adv-x="534" unicode="o" d="M390 199q0 138 -50 189q-32 34 -77 34q-52 0 -86 -46.5t-34 -124.5q0 -137 50 -190q33 -33 78 -33q51 0 85 46.5t34 124.5zM501 236q0 -105 -70 -178t-174 -73q-102 0 -163 68t-61 170q0 101 70.5 172t173.5 71q100 0 162 -66t62 -164z"/>
<glyph glyph-name="p" horiz-adv-x="542" unicode="p" d="M402 203q0 82 -33.5 130t-87.5 48q-58 0 -99 -48v-244q54 -61 108 -61q46 0 79 48.5t33 126.5zM510 243q0 -105 -65.5 -181.5t-173.5 -76.5q-43 0 -88 13h-1v-186q0 -16 38 -18l36 -3l3 -37h-242l3 37l28 3q34 3 34 19v492q0 46 -7.5 60t-35.5 22l-22 5l1 29l164 45v-82 h5q65 75 142 75q81 0 131 -62t50 -154z"/>
<glyph glyph-name="q" horiz-adv-x="532" unicode="q" d="M360 99v254q-54 63 -108 63q-49 0 -80.5 -47t-31.5 -124q0 -84 35.5 -134t94.5 -50q49 0 90 38zM527 -246h-242l3 37l38 3q34 2 34 19v242h-3q-59 -69 -139 -69q-81 0 -133 63t-52 159q0 105 68.5 179t180.5 74q55 0 108 -23h1l57 28h12v-653q0 -8 7.5 -12t32.5 -7l24 -3 z"/>
<glyph glyph-name="r" horiz-adv-x="399" unicode="r" d="M396 402q0 -26 -14.5 -43t-40.5 -17q-35 0 -57 36q-59 -36 -93 -99v-221q0 -16 38 -18l36 -3l3 -37h-240l3 37l26 3q34 3 34 19v246q0 46 -8 60t-35 22l-22 5l1 29l164 45v-127h5q41 68 70.5 97.5t64.5 29.5q30 0 47.5 -17.5t17.5 -46.5z"/>
<glyph glyph-name="s" horiz-adv-x="419" unicode="s" d="M380 132q0 -62 -49.5 -104.5t-135.5 -42.5q-85 0 -145 23l-5 132h59l24 -89q38 -25 77 -25q35 0 62.5 21t27.5 54q0 11 -3.5 20.5t-13.5 18t-16 13t-24.5 12.5t-24.5 10.5t-29 10.5q-33 13 -52 22.5t-41 26t-32.5 40t-10.5 55.5q0 57 45.5 97t123.5 40q55 0 104 -17 l37 13l6 -146h-56l-24 86q-31 22 -73 22q-33 0 -55 -17.5t-22 -45.5q0 -22 14 -37.5t32 -24t60 -24.5q32 -12 52 -22t43 -26.5t34 -40.5t11 -55z"/>
<glyph glyph-name="t" horiz-adv-x="365" unicode="t" d="M349 54q-27 -31 -66.5 -50t-79.5 -19q-56 0 -89.5 34.5t-33.5 104.5v5l6 260l-79 6l1 33l136 118l40 -6l-1 -92h163l-7 -55h-156l-6 -236v-6q0 -93 84 -93q41 0 84 23z"/>
<glyph glyph-name="u" horiz-adv-x="544" unicode="u" d="M536 31l-3 -27l-169 -19v73h-5q-92 -73 -163 -73q-50 0 -83 33q-38 38 -38 114l2 260q0 10 -4.5 12.5t-24.5 4.5q-9 1 -14 2l-22 3l-3 37h172l-6 -262q-1 -70 21 -97.5t68 -27.5q51 0 100 36v293q0 8 -7.5 12t-30.5 6l-34 3l-4 37h175v-373q0 -25 14 -29z"/>
<glyph glyph-name="v" horiz-adv-x="478" unicode="v" d="M496 451l-3 -37l-27 -6q-20 -3 -31 -16.5t-26 -50.5l-135 -350h-65l-152 378q-8 19 -17.5 26t-30.5 10l-24 8l-4 38h238l-3 -37l-30 -7q-23 -3 -23 -22q0 -6 3 -15l104 -274l90 249q9 24 9 38q0 19 -25 23l-31 8l-3 37h186z"/>
<glyph glyph-name="w" horiz-adv-x="719" unicode="w" d="M735 451l-3 -37l-24 -6q-23 -4 -34 -16.5t-24 -50.5l-115 -350h-62l-110 291l-110 -291h-63l-135 378q-12 33 -44 38l-23 6l-3 38h228l-3 -37l-26 -7q-24 -3 -24 -24q0 -7 3 -14l89 -268l87 241l-9 27q-7 19 -17 26t-31 11l-24 8l-3 37h231l-3 -37l-26 -7q-24 -3 -24 -23 q0 -8 3 -15l92 -270l73 240q7 21 7 37q0 26 -32 32l-24 6l-3 37h186z"/>
<glyph glyph-name="x" horiz-adv-x="489" unicode="x" d="M493 0h-232l3 36l17 5q24 5 24 18t-19 38l-62 89h-2l-65 -87q-23 -29 -23 -42t24 -17l20 -4l3 -36h-188l3 36l29 7q20 4 35 16t43 44l95 114l-100 132q-23 30 -37 41.5t-33 15.5l-23 8l-3 37h234l-3 -37l-17 -5q-23 -5 -23 -16t21 -40l51 -75h2l56 74q22 30 22 42 q0 13 -23 16l-21 4l-3 37h190l-3 -37l-29 -7q-22 -4 -37 -15.5t-43 -44.5l-84 -100l109 -146q36 -49 70 -57l20 -7z"/>
<glyph glyph-name="y" horiz-adv-x="471" unicode="y" d="M495 451l-3 -37l-28 -6q-20 -3 -31 -16.5t-26 -50.5l-118 -311l-54 -161q-23 -68 -50 -99t-70 -31q-32 0 -52 16.5t-20 42.5q0 24 13.5 40t39.5 16q41 0 62 -37q19 10 41 69l34 97v4l-178 382q-9 19 -18 25.5t-30 10.5l-22 8l-4 38h234l-3 -37l-27 -7q-24 -2 -24 -20 q0 -5 5 -17l112 -257l82 232q8 24 8 34q0 23 -30 27l-30 8l-3 37h190z"/>
<glyph glyph-name="z" horiz-adv-x="476" unicode="z" d="M431 415l-282 -374h48q94 1 125 12.5t51 51.5l36 72h52l-42 -177h-390v36l282 374l-33 -1q-92 -1 -119.5 -12t-37.5 -51l-21 -72h-54v177h385v-36z"/>
<glyph glyph-name="braceleft" horiz-adv-x="343" unicode="{" d="M312 -229q-100 4 -152.5 44t-52.5 107q0 41 28 100.5t28 89.5q0 39 -33 56.5t-94 22.5l-11 30l11 30q127 9 127 78q0 29 -28 89t-28 102q0 67 52.5 107t152.5 44v-36q-57 -5 -87 -29.5t-30 -60.5q0 -31 28.5 -91t28.5 -104q0 -48 -42.5 -83.5t-98.5 -40.5v-11 q56 -5 98.5 -40.5t42.5 -83.5q0 -43 -28.5 -103t-28.5 -90q0 -36 30.5 -61.5t86.5 -30.5v-35z"/>
<glyph glyph-name="bar" horiz-adv-x="275" unicode="|" d="M114 -172v877h48v-877h-48z"/>
<glyph glyph-name="braceright" horiz-adv-x="343" unicode="}" d="M319 221l-11 -30q-127 -10 -127 -79q0 -30 28 -89.5t28 -100.5q0 -67 -52.5 -107t-152.5 -44v35q56 5 86.5 30.5t30.5 61.5q0 30 -28.5 90t-28.5 103q0 48 42.5 83.5t98.5 40.5v11q-56 5 -98.5 40.5t-42.5 83.5q0 44 28.5 104t28.5 91q0 36 -30 60.5t-87 29.5v36 q100 -4 152.5 -44t52.5 -107q0 -42 -28 -102t-28 -89q0 -69 127 -78z"/>
<glyph glyph-name="asciitilde" horiz-adv-x="400" unicode="~" d="M369 299q-18 -129 -101 -129q-34 0 -86.5 35.5t-67.5 35.5t-25 -13.5t-23 -49.5h-35q18 129 101 129q34 0 85.5 -36t67.5 -36q15 0 25.5 14t24.5 50h34z"/>
<glyph glyph-name="nbspace" horiz-adv-x="228" unicode=" "/>
<glyph glyph-name="exclamdown" horiz-adv-x="289" unicode="¡" d="M204 33q0 -1 0.5 -4t0.5 -4q0 -40 -58 -40h-2q-59 0 -59 40q0 1 0.5 4t0.5 4l47 392q2 7 12 7t11 -7zM210 574q0 -26 -18.5 -44.5t-45.5 -18.5q-28 0 -47 18.5t-19 44.5q0 27 19 46t47 19q27 0 45.5 -19t18.5 -46z"/>
<glyph glyph-name="cent" horiz-adv-x="453" unicode="¢" d="M215 88l84 323q-17 10 -40 10q-52 0 -86.5 -43.5t-34.5 -120.5q0 -119 77 -169zM231 -15l-40 -151h-43l42 158q-71 20 -114 82.5t-43 145.5q0 109 71 177.5t172 68.5q22 0 37 -4l46 173h43l-48 -182q34 -13 52.5 -36t18.5 -51q0 -24 -14.5 -38.5t-33.5 -14.5 q-35 0 -53 28l-71 -272q18 -5 38 -5q70 0 120 57l20 -11q-26 -58 -75.5 -91.5t-111.5 -33.5h-13z"/>
<glyph glyph-name="sterling" horiz-adv-x="502" unicode="£" d="M141 301q-3 47 -3 87q0 110 58.5 176t158.5 66q54 0 83.5 -22t29.5 -59q0 -24 -16.5 -40.5t-39.5 -16.5q-25 0 -41 18t-16 46q0 7 2 19q-18 12 -42 12q-78 0 -78 -154q0 -13 1.5 -58.5t2.5 -73.5h154l3 -44h-156v-12q0 -100 -36 -153v-5q3 0 59 -14t81 -14q44 0 64 20 q22 23 43 74l24 -6q1 -8 1 -22q0 -64 -32.5 -106.5t-95.5 -42.5q-27 0 -55.5 10.5t-42.5 20t-41 30.5t-30 24q-58 -67 -154 -88l-13 45q71 20 100.5 60.5t29.5 108.5q0 22 -2 70h-108l3 44h104z"/>
<glyph glyph-name="currency" horiz-adv-x="435" unicode="¤" d="M316 359q0 42 -27 71.5t-71 29.5q-45 0 -72 -29.5t-27 -71.5t27 -71.5t72 -29.5q44 0 71 29.5t27 71.5zM399 501l-56 -56q24 -44 24 -86q0 -43 -25 -86l62 -62l-38 -38l-61 61q-43 -26 -87 -26q-46 0 -87 25l-56 -56l-37 37l56 56q-26 42 -26 89q0 46 25 87l-58 58l38 38 l58 -58q43 26 87 26q45 0 89 -27l55 55z"/>
<glyph glyph-name="yen" horiz-adv-x="612" unicode="¥" d="M604 625l-3 -38l-15 -4q-30 -9 -50.5 -26t-46.5 -61l-109 -191h161l3 -44h-180v-79h177l3 -44h-179v-66q0 -20 23 -24l69 -11l3 -37h-296l3 37l69 11q23 4 23 24v66h-174l3 44h172v79h-175l3 44h153l-151 240q-17 27 -48 34l-34 8l-3 38h265l-3 -38l-37 -6 q-20 -3 -20 -22q0 -23 36 -83l88 -153h5l94 171q23 39 23 61t-29 28l-23 4l-3 38h203z"/>
<glyph glyph-name="brokenbar" horiz-adv-x="275" unicode="¦" d="M114 -139v335h48v-335h-48zM114 307v335h48v-335h-48z"/>
<glyph glyph-name="section" horiz-adv-x="436" unicode="§" d="M345 225q0 22 -15 42.5t-30 32t-48 33.5q-13 8 -41.5 24t-48.5 30t-35 29q-37 -25 -37 -60q0 -32 23 -55t70 -52q12 -8 41 -24.5t49.5 -30.5t35.5 -29q36 22 36 60zM410 269q0 -40 -23 -72.5t-59 -51.5q27 -37 27 -74q0 -53 -49.5 -94.5t-119.5 -41.5q-48 0 -84 20.5 t-36 56.5q0 24 15.5 39t37.5 15q28 0 47.5 -21.5t26.5 -59.5q18 -7 36 -7q27 0 42.5 17t15.5 47q0 17 -8.5 32t-30 31.5t-35.5 26t-47 28.5q-80 48 -104 72q-36 37 -36 81q0 39 23 71.5t59 50.5q-28 37 -28 75q0 48 48 88.5t114 40.5q48 0 82.5 -20.5t34.5 -56.5 q0 -24 -15.5 -39t-37.5 -15q-55 0 -69 81q-18 7 -33 7q-25 0 -40 -15.5t-15 -42.5q0 -21 19.5 -43t40.5 -36t61 -37q32 -19 41.5 -25t35 -24.5t35 -30.5t19 -32t9.5 -41z"/>
<glyph glyph-name="dieresis" horiz-adv-x="400" unicode="¨" d="M158 606q0 -27 -16.5 -46.5t-45.5 -19.5q-28 0 -45 19.5t-17 46.5q0 28 17 47.5t45 19.5q29 0 45.5 -19.5t16.5 -47.5zM366 606q0 -27 -17 -46.5t-45 -19.5t-45 19.5t-17 46.5q0 28 17 47.5t45 19.5t45 -19.5t17 -47.5z"/>
<glyph glyph-name="copyright" horiz-adv-x="751" unicode="©" d="M522 256l-11 -124l-34 7q-40 -16 -90 -16q-94 0 -144.5 52.5t-50.5 133.5q0 83 55 137t138 54q48 0 83 -13l49 13v-134h-35l-24 79q-28 20 -78 20t-82.5 -38t-32.5 -103q0 -74 34.5 -120.5t96.5 -46.5q36 0 55 15l35 84h36zM674 312q0 124 -87.5 213.5t-210.5 89.5 q-124 0 -211.5 -89.5t-87.5 -213.5t87.5 -213t211.5 -89q123 0 210.5 89t87.5 213zM713 312q0 -141 -98.5 -239.5t-238.5 -98.5q-141 0 -240 98.5t-99 239.5q0 140 99 239.5t240 99.5q140 0 238.5 -99.5t98.5 -239.5z"/>
<glyph glyph-name="ordfeminine" horiz-adv-x="360" unicode="ª" d="M216 370l3 93q-110 -20 -110 -70q0 -22 13 -36.5t34 -14.5q30 0 60 28zM361 326q-13 -17 -36 -29t-47 -12q-51 0 -59 56h-3q-56 -56 -104 -56q-33 0 -58.5 22.5t-25.5 58.5q0 89 192 123l1 26v7q0 33 -23 54.5t-55 21.5q-11 0 -21.5 -4t-16 -8t-5.5 -7q0 -1 3.5 -6 t7 -13.5t3.5 -15.5q0 -16 -11.5 -26.5t-30.5 -10.5t-31.5 11.5t-12.5 29.5q0 32 55.5 61.5t111.5 29.5q50 0 80 -29t28 -71l-6 -160q-1 -41 28 -41q17 0 33 10z"/>
<glyph glyph-name="guillemotleft" horiz-adv-x="495" unicode="«" d="M266 72l-10 -20l-223 143v52l223 143l10 -20l-141 -149zM467 62l-11 -21l-225 154v52l225 154l11 -21l-155 -159z"/>
<glyph glyph-name="logicalnot" d="M445 310v-213h-55v158h-355l3 55h407z" unicode="¬"/>
<glyph glyph-name="uni00AD" horiz-adv-x="331" unicode="­" d="M300 211h-267l3 57h261z"/>
<glyph glyph-name="registered" horiz-adv-x="751" unicode="®" d="M444 391q0 69 -80 69h-10h-24v-138l37 -5q77 5 77 74zM560 134h-105l-21 40l-69 111l-35 2v-101q0 -10 14 -13l30 -7l2 -32h-159l2 32l29 7q14 3 14 13v255q0 11 -14 15l-29 6l-2 32h165q68 0 102 -26.5t34 -65.5q0 -76 -87 -102l71 -105q12 -17 30 -24l26 -5zM674 313 q0 124 -87.5 213.5t-210.5 89.5t-211 -89.5t-88 -213.5q0 -125 87.5 -214t211.5 -89q123 0 210.5 89t87.5 214zM714 313q0 -141 -99 -240t-239 -99q-141 0 -240 99t-99 240q0 140 99 239t240 99q140 0 239 -99t99 -239z"/>
<glyph glyph-name="macron" horiz-adv-x="400" unicode="¯" d="M338 544h-274l4 49h265z"/>
<glyph glyph-name="degree" horiz-adv-x="410" unicode="°" d="M205 604q-53 0 -85 -35t-32 -87q0 -49 32 -84.5t85 -35.5t85 35.5t32 84.5q0 52 -32 87t-85 35zM371 482q0 -69 -45.5 -117t-120.5 -48q-74 0 -120 48t-46 117q0 70 45.5 118.5t120.5 48.5t120.5 -48t45.5 -119z"/>
<glyph glyph-name="plusminus" d="M449 237h-181v-164h-55v164h-182l3 55h179v162h55v-162h178zM448 4h-416l3 55h410z" unicode="±"/>
<glyph glyph-name="twosuperior" horiz-adv-x="330" unicode="²" d="M21 273l-5 37q17 16 54.5 50t52.5 49t36.5 39.5t29.5 44.5t8 41q0 29 -19.5 46t-50.5 17q-47 0 -98 -41l-9 15q25 38 63.5 63.5t84.5 25.5q56 0 89.5 -29t33.5 -76q0 -43 -38 -82.5t-132 -110.5q-21 -16 -32 -24v-4h45q87 0 106.5 2.5t27.5 15.5l15 26h29l-24 -105h-267z "/>
<glyph glyph-name="threesuperior" horiz-adv-x="330" unicode="³" d="M122 258q-45 0 -74.5 16.5t-29.5 43.5q0 16 12 27.5t28 11.5q26 0 39.5 -20.5t16.5 -47.5h16q32 0 54.5 23.5t22.5 58.5q0 33 -21 52t-50 19q-21 0 -45 -12l-13 21q7 4 31 18t32 20t22.5 17.5t19.5 21.5t5 22q0 23 -17.5 36t-45.5 13q-49 0 -95 -41l-14 18q65 84 159 84 q46 0 77.5 -22t31.5 -54q0 -19 -9.5 -35.5t-30.5 -30.5t-38 -23t-48 -23v-3q20 7 42 7q41 0 70 -23.5t29 -63.5q0 -52 -52 -91.5t-125 -39.5z"/>
<glyph glyph-name="acute" horiz-adv-x="400" unicode="´" d="M350 697l-173 -184h-34l92 184h115z"/>
<glyph glyph-name="mu" horiz-adv-x="544" unicode="µ" d="M536 31l-3 -27l-169 -19v68h-5q-27 -37 -48.5 -52.5t-52.5 -15.5q-21 0 -40 10t-27 18.5t-21 24.5h-5l8 -275l-113 -9l15 378l2 260q0 10 -4.5 12.5t-24.5 4.5q-9 1 -14 2l-22 3l-3 37h172l-7 -295q-1 -92 90 -92q56 0 100 44v285q0 8 -7.5 12t-30.5 6l-34 3l-4 37h175 v-373q0 -25 14 -29z"/>
<glyph glyph-name="mu" horiz-adv-x="544" unicode="μ" d="M536 31l-3 -27l-169 -19v68h-5q-27 -37 -48.5 -52.5t-52.5 -15.5q-21 0 -40 10t-27 18.5t-21 24.5h-5l8 -275l-113 -9l15 378l2 260q0 10 -4.5 12.5t-24.5 4.5q-9 1 -14 2l-22 3l-3 37h172l-7 -295q-1 -92 90 -92q56 0 100 44v285q0 8 -7.5 12t-30.5 6l-34 3l-4 37h175 v-373q0 -25 14 -29z"/>
<glyph glyph-name="paragraph" horiz-adv-x="495" unicode="¶" d="M413 -32h-57v293q-43 -11 -83 -11q-116 0 -177 52t-61 135q0 94 62 141t169 47h147v-657z"/>
<glyph glyph-name="periodcentered" horiz-adv-x="232" unicode="·" d="M189 234q0 -29 -20.5 -50.5t-51.5 -21.5q-30 0 -51.5 21.5t-21.5 50.5t21 50t52 21t51.5 -21t20.5 -50z"/>
<glyph glyph-name="cedilla" horiz-adv-x="400" unicode="¸" d="M319 -149q0 -52 -58 -85t-158 -39l-10 26q158 18 158 84q0 23 -22 37.5t-63 14.5q-35 0 -66 -7v22l112 117h48l-75 -77q62 -1 98 -25.5t36 -67.5z"/>
<glyph glyph-name="onesuperior" horiz-adv-x="330" unicode="¹" d="M49 273l2 31l61 8q15 3 15 14v263l-80 7l2 21l169 46v-337q0 -11 15 -14l48 -8l2 -31h-234z"/>
<glyph glyph-name="ordmasculine" horiz-adv-x="400" unicode="º" d="M284 442q0 102 -39 139q-21 21 -52 21q-35 0 -56.5 -33.5t-21.5 -87.5q0 -98 40 -140q20 -20 52 -20q34 0 55.5 33.5t21.5 87.5zM373 463q0 -76 -48.5 -127t-125.5 -51q-78 0 -125.5 50.5t-47.5 124.5q0 75 49.5 127t126.5 52t124 -51t47 -125z"/>
<glyph glyph-name="guillemotright" horiz-adv-x="495" unicode="»" d="M271 195l-226 -154l-11 21l155 159l-155 159l11 21l226 -154v-52zM468 195l-222 -143l-11 20l141 149l-141 149l11 20l222 -143v-52z"/>
<glyph glyph-name="onequarter" horiz-adv-x="715" unicode="¼" d="M49 273l2 31l61 8q15 3 15 14v263l-80 7l2 21l169 46v-337q0 -11 15 -14l48 -8l2 -31h-234zM82 -116l534 741h58l-534 -741h-58zM432 -2h132v165h-3zM564 -143v105h-167l-5 30l193 247h61v-241h64l-4 -36h-60v-105h-82z"/>
<glyph glyph-name="onehalf" horiz-adv-x="715" unicode="½" d="M406 -143l-5 37q17 16 54.5 50t52.5 49t36.5 39.5t29.5 44.5t8 41q0 29 -19.5 46t-50.5 17q-47 0 -98 -41l-9 15q25 38 63.5 63.5t84.5 25.5q56 0 89.5 -29t33.5 -76q0 -43 -38 -82.5t-132 -110.5q-21 -16 -32 -24v-4h45q87 0 106.5 2.5t27.5 15.5l15 26h29l-24 -105 h-267zM49 273l2 31l61 8q15 3 15 14v263l-80 7l2 21l169 46v-337q0 -11 15 -14l48 -8l2 -31h-234zM67 -116l534 741h58l-534 -741h-58z"/>
<glyph glyph-name="threequarters" horiz-adv-x="715" unicode="¾" d="M432 -2h132v165h-3zM82 -116l534 741h58l-534 -741h-58zM122 258q-45 0 -74.5 16.5t-29.5 43.5q0 16 12 27.5t28 11.5q26 0 39.5 -20.5t16.5 -47.5h16q32 0 54.5 23.5t22.5 58.5q0 33 -21 52t-50 19q-21 0 -45 -12l-13 21q7 4 31 18t32 20t22.5 17.5t19.5 21.5t5 22 q0 23 -17.5 36t-45.5 13q-49 0 -95 -41l-14 18q65 84 159 84q46 0 77.5 -22t31.5 -54q0 -19 -9.5 -35.5t-30.5 -30.5t-38 -23t-48 -23v-3q20 7 42 7q41 0 70 -23.5t29 -63.5q0 -52 -52 -91.5t-125 -39.5zM564 -143v105h-167l-5 30l193 247h61v-241h64l-4 -36h-60v-105h-82z "/>
<glyph glyph-name="questiondown" horiz-adv-x="378" unicode="¿" d="M328 48q0 -28 -23.5 -46t-64.5 -18q-80 0 -141 53.5t-61 123.5q0 60 25.5 86t86.5 49q3 1 10 4q24 10 36 15.5t23 18t11 28.5q0 31 -40 74h35q26 -18 47.5 -47t21.5 -61q0 -47 -29 -71t-92 -46q-25 -10 -33.5 -13.5t-25 -11.5t-22 -16.5t-5.5 -18.5q0 -30 44.5 -50.5 t107.5 -20.5q24 0 72 8q17 -17 17 -40zM280 574q0 -26 -19 -45t-46 -19q-28 0 -46.5 19t-18.5 45t18.5 45.5t46.5 19.5q27 0 46 -19t19 -46z"/>
<glyph glyph-name="Agrave" horiz-adv-x="616" unicode="À" d="M339 680h-34l-173 184h113zM364 262l-81 261h-7l-88 -261h176zM632 0h-288l3 38l43 7q16 3 23 9t7 18q0 20 -20 78l-21 67h-206l-18 -59q-20 -55 -20 -80q0 -28 27 -33l37 -7l3 -38h-220l3 38l26 7q24 6 37.5 18.5t31.5 51.5t50 127l117 324v39l106 39l190 -565 q7 -25 40 -31l46 -10z"/>
<glyph glyph-name="Aacute" horiz-adv-x="616" unicode="Á" d="M471 864l-173 -184h-34l92 184h115zM364 262l-81 261h-7l-88 -261h176zM632 0h-288l3 38l43 7q16 3 23 9t7 18q0 20 -20 78l-21 67h-206l-18 -59q-20 -55 -20 -80q0 -28 27 -33l37 -7l3 -38h-220l3 38l26 7q24 6 37.5 18.5t31.5 51.5t50 127l117 324v39l106 39l190 -565 q7 -25 40 -31l46 -10z"/>
<glyph glyph-name="Acircumflex" horiz-adv-x="616" unicode="Â" d="M443 680h-32l-102 106h-2l-102 -106h-32l111 192h48zM364 262l-81 261h-7l-88 -261h176zM632 0h-288l3 38l43 7q16 3 23 9t7 18q0 20 -20 78l-21 67h-206l-18 -59q-20 -55 -20 -80q0 -28 27 -33l37 -7l3 -38h-220l3 38l26 7q24 6 37.5 18.5t31.5 51.5t50 127l117 324v39 l106 39l190 -565q7 -25 40 -31l46 -10z"/>
<glyph glyph-name="Atilde" horiz-adv-x="616" unicode="Ã" d="M477 818q-18 -129 -101 -129q-34 0 -86.5 35.5t-67.5 35.5t-25 -13.5t-23 -49.5h-35q18 129 101 129q34 0 85.5 -36t67.5 -36q15 0 25.5 14t24.5 50h34zM364 262l-81 261h-7l-88 -261h176zM632 0h-288l3 38l43 7q16 3 23 9t7 18q0 20 -20 78l-21 67h-206l-18 -59 q-20 -55 -20 -80q0 -28 27 -33l37 -7l3 -38h-220l3 38l26 7q24 6 37.5 18.5t31.5 51.5t50 127l117 324v39l106 39l190 -565q7 -25 40 -31l46 -10z"/>
<glyph glyph-name="Adieresis" horiz-adv-x="616" unicode="Ä" d="M266 773q0 -27 -16.5 -46.5t-45.5 -19.5q-28 0 -45 19.5t-17 46.5q0 28 17 47.5t45 19.5q29 0 45.5 -19.5t16.5 -47.5zM474 773q0 -27 -17 -46.5t-45 -19.5t-45 19.5t-17 46.5q0 28 17 47.5t45 19.5t45 -19.5t17 -47.5zM364 262l-81 261h-7l-88 -261h176zM632 0h-288 l3 38l43 7q16 3 23 9t7 18q0 20 -20 78l-21 67h-206l-18 -59q-20 -55 -20 -80q0 -28 27 -33l37 -7l3 -38h-220l3 38l26 7q24 6 37.5 18.5t31.5 51.5t50 127l117 324v39l106 39l190 -565q7 -25 40 -31l46 -10z"/>
<glyph glyph-name="Aring" horiz-adv-x="616" unicode="Å" d="M369 690q0 27 -17 46.5t-45 19.5q-27 0 -44 -19.5t-17 -46.5t17 -46t44 -19q28 0 45 19t17 46zM364 261l-82 264h-6l-88 -264h176zM263 607q-49 24 -49 83q0 40 25.5 67.5t67.5 27.5t68 -27.5t26 -67.5q0 -51 -37 -77l179 -534q7 -25 40 -31l46 -10l3 -38h-288l3 38l43 7 q16 3 23 9t7 18q0 20 -20 78l-21 67h-206l-18 -59q-20 -55 -20 -80q0 -28 27 -33l37 -7l3 -38h-220l3 38l26 7q34 8 53.5 40t65.5 158z"/>
<glyph glyph-name="AE" horiz-adv-x="853" unicode="Æ" d="M379 267v313h-9l-159 -313h168zM817 189l-19 -189h-496l3 37l51 11q23 4 23 24v151h-190l-28 -53q-38 -76 -38 -102q0 -18 22 -23l37 -7l3 -38h-225l3 38l27 6q28 8 42 18t41 51t72 130l138 270q11 22 11 35q0 26 -38 34l-31 6l-3 37h577v-196h-55l-23 90q-8 32 -23.5 44 t-52 16t-130.5 4h-30v-245h16q54 0 71.5 4.5t24.5 22.5l23 67h44l-22 -228h-42l-9 63q-2 18 -18 23.5t-75 5.5h-13v-254h25q98 0 139 4.5t57.5 16.5t26.5 43l24 83h60z"/>
<glyph glyph-name="Ccedilla" horiz-adv-x="696" unicode="Ç" d="M369 -14q-144 7 -234.5 91t-90.5 228q0 152 100.5 243t254.5 91q80 0 144 -22l86 18v-213h-58l-34 136q-62 36 -137 36q-105 0 -167.5 -76.5t-62.5 -198.5q0 -133 62.5 -212t175.5 -79q66 0 117 28l47 143h61l-21 -199l-58 11q-62 -22 -138 -26l-40 -41q62 -1 98 -25.5 t36 -67.5q0 -52 -58 -85t-158 -39l-10 26q158 18 158 84q0 23 -22 37.5t-63 14.5q-35 0 -66 -7v22z"/>
<glyph glyph-name="Egrave" horiz-adv-x="618" unicode="È" d="M354 680h-34l-173 184h113zM573 189l-19 -189h-516l3 37l39 5q35 4 35 18v506q0 7 -7 10.5t-30 6.5l-37 5l-3 37h518v-196h-58l-23 90q-9 32 -25 44t-52.5 16t-128.5 4h-41v-245h26q52 0 70 5t25 22l23 67h46l-22 -228h-44l-9 63q-2 17 -18.5 23t-73.5 6h-23v-254h38 q96 0 136 4.5t57 16.5t28 43l23 83h63z"/>
<glyph glyph-name="Eacute" horiz-adv-x="618" unicode="É" d="M482 864l-173 -184h-34l92 184h115zM573 189l-19 -189h-516l3 37l39 5q35 4 35 18v506q0 7 -7 10.5t-30 6.5l-37 5l-3 37h518v-196h-58l-23 90q-9 32 -25 44t-52.5 16t-128.5 4h-41v-245h26q52 0 70 5t25 22l23 67h46l-22 -228h-44l-9 63q-2 17 -18.5 23t-73.5 6h-23 v-254h38q96 0 136 4.5t57 16.5t28 43l23 83h63z"/>
<glyph glyph-name="Ecircumflex" horiz-adv-x="618" unicode="Ê" d="M444 680h-32l-102 106h-2l-102 -106h-32l111 192h48zM573 189l-19 -189h-516l3 37l39 5q35 4 35 18v506q0 7 -7 10.5t-30 6.5l-37 5l-3 37h518v-196h-58l-23 90q-9 32 -25 44t-52.5 16t-128.5 4h-41v-245h26q52 0 70 5t25 22l23 67h46l-22 -228h-44l-9 63q-2 17 -18.5 23 t-73.5 6h-23v-254h38q96 0 136 4.5t57 16.5t28 43l23 83h63z"/>
<glyph glyph-name="Edieresis" horiz-adv-x="618" unicode="Ë" d="M267 773q0 -27 -16.5 -46.5t-45.5 -19.5q-28 0 -45 19.5t-17 46.5q0 28 17 47.5t45 19.5q29 0 45.5 -19.5t16.5 -47.5zM475 773q0 -27 -17 -46.5t-45 -19.5t-45 19.5t-17 46.5q0 28 17 47.5t45 19.5t45 -19.5t17 -47.5zM573 189l-19 -189h-516l3 37l39 5q35 4 35 18v506 q0 7 -7 10.5t-30 6.5l-37 5l-3 37h518v-196h-58l-23 90q-9 32 -25 44t-52.5 16t-128.5 4h-41v-245h26q52 0 70 5t25 22l23 67h46l-22 -228h-44l-9 63q-2 17 -18.5 23t-73.5 6h-23v-254h38q96 0 136 4.5t57 16.5t28 43l23 83h63z"/>
<glyph glyph-name="Igrave" horiz-adv-x="367" unicode="Ì" d="M209 680h-34l-173 184h113zM327 0h-287l3 37l49 5q35 4 35 18v506q0 7 -7 10.5t-30 6.5l-47 5l-3 37h287l-3 -37l-49 -5q-35 -4 -35 -18v-506q0 -8 7.5 -11.5t28.5 -5.5l48 -5z"/>
<glyph glyph-name="Iacute" horiz-adv-x="367" unicode="Í" d="M364 864l-173 -184h-34l92 184h115zM327 0h-287l3 37l49 5q35 4 35 18v506q0 7 -7 10.5t-30 6.5l-47 5l-3 37h287l-3 -37l-49 -5q-35 -4 -35 -18v-506q0 -8 7.5 -11.5t28.5 -5.5l48 -5z"/>
<glyph glyph-name="Icircumflex" horiz-adv-x="367" unicode="Î" d="M318 680h-32l-102 106h-2l-102 -106h-32l111 192h48zM327 0h-287l3 37l49 5q35 4 35 18v506q0 7 -7 10.5t-30 6.5l-47 5l-3 37h287l-3 -37l-49 -5q-35 -4 -35 -18v-506q0 -8 7.5 -11.5t28.5 -5.5l48 -5z"/>
<glyph glyph-name="Idieresis" horiz-adv-x="367" unicode="Ï" d="M141 773q0 -27 -16.5 -46.5t-45.5 -19.5q-28 0 -45 19.5t-17 46.5q0 28 17 47.5t45 19.5q29 0 45.5 -19.5t16.5 -47.5zM349 773q0 -27 -17 -46.5t-45 -19.5t-45 19.5t-17 46.5q0 28 17 47.5t45 19.5t45 -19.5t17 -47.5zM327 0h-287l3 37l49 5q35 4 35 18v506q0 7 -7 10.5 t-30 6.5l-47 5l-3 37h287l-3 -37l-49 -5q-35 -4 -35 -18v-506q0 -8 7.5 -11.5t28.5 -5.5l48 -5z"/>
<glyph glyph-name="Eth" horiz-adv-x="690" unicode="Ð" d="M223 339h116l3 -44h-119v-238l72 -15h11q105 0 167 73t62 184q0 132 -72.5 208.5t-208.5 76.5h-31v-245zM115 295h-82l3 44h79v214q0 19 -23 24l-51 11l-3 37l240 3h8q162 0 264 -84.5t102 -215.5q0 -147 -98 -237.5t-278 -90.5h-238l3 37l51 11q23 5 23 24v223z"/>
<glyph glyph-name="Ntilde" horiz-adv-x="742" unicode="Ñ" d="M540 818q-18 -129 -101 -129q-34 0 -86.5 35.5t-67.5 35.5t-25 -13.5t-23 -49.5h-35q18 129 101 129q34 0 85.5 -36t67.5 -36q15 0 25.5 14t24.5 50h34zM716 625l-3 -37l-47 -10q-19 -3 -27 -14.5t-12 -52.5t-4 -132v-387h-71l-377 517h-6v-263q0 -93 3.5 -132.5 t11 -51.5t26.5 -15l51 -10l3 -37h-232l3 37l47 10q19 3 27 14.5t12 52.5t4 132v251q0 62 -40 80l-47 11l-3 37h194l343 -474h6v228q0 94 -3.5 133t-11 51t-26.5 15l-51 10l-3 37h233z"/>
<glyph glyph-name="Ograve" horiz-adv-x="753" unicode="Ò" d="M432 680h-34l-173 184h113zM583 304q0 134 -60.5 213t-148.5 79t-146 -74t-58 -204q0 -134 60.5 -213t148.5 -79t146 73.5t58 204.5zM708 316q0 -140 -97 -236t-236 -96q-145 0 -238 89.5t-93 232.5q0 140 98 236t237 96q145 0 237 -89.5t92 -232.5z"/>
<glyph glyph-name="Oacute" horiz-adv-x="753" unicode="Ó" d="M534 864l-173 -184h-34l92 184h115zM583 304q0 134 -60.5 213t-148.5 79t-146 -74t-58 -204q0 -134 60.5 -213t148.5 -79t146 73.5t58 204.5zM708 316q0 -140 -97 -236t-236 -96q-145 0 -238 89.5t-93 232.5q0 140 98 236t237 96q145 0 237 -89.5t92 -232.5z"/>
<glyph glyph-name="Ocircumflex" horiz-adv-x="753" unicode="Ô" d="M511 680h-32l-102 106h-2l-102 -106h-32l111 192h48zM583 304q0 134 -60.5 213t-148.5 79t-146 -74t-58 -204q0 -134 60.5 -213t148.5 -79t146 73.5t58 204.5zM708 316q0 -140 -97 -236t-236 -96q-145 0 -238 89.5t-93 232.5q0 140 98 236t237 96q145 0 237 -89.5 t92 -232.5z"/>
<glyph glyph-name="Otilde" horiz-adv-x="753" unicode="Õ" d="M545 818q-18 -129 -101 -129q-34 0 -86.5 35.5t-67.5 35.5t-25 -13.5t-23 -49.5h-35q18 129 101 129q34 0 85.5 -36t67.5 -36q15 0 25.5 14t24.5 50h34zM583 304q0 134 -60.5 213t-148.5 79t-146 -74t-58 -204q0 -134 60.5 -213t148.5 -79t146 73.5t58 204.5zM708 316 q0 -140 -97 -236t-236 -96q-145 0 -238 89.5t-93 232.5q0 140 98 236t237 96q145 0 237 -89.5t92 -232.5z"/>
<glyph glyph-name="Odieresis" horiz-adv-x="753" unicode="Ö" d="M334 773q0 -27 -16.5 -46.5t-45.5 -19.5q-28 0 -45 19.5t-17 46.5q0 28 17 47.5t45 19.5q29 0 45.5 -19.5t16.5 -47.5zM542 773q0 -27 -17 -46.5t-45 -19.5t-45 19.5t-17 46.5q0 28 17 47.5t45 19.5t45 -19.5t17 -47.5zM583 304q0 134 -60.5 213t-148.5 79t-146 -74 t-58 -204q0 -134 60.5 -213t148.5 -79t146 73.5t58 204.5zM708 316q0 -140 -97 -236t-236 -96q-145 0 -238 89.5t-93 232.5q0 140 98 236t237 96q145 0 237 -89.5t92 -232.5z"/>
<glyph glyph-name="multiply" d="M446 402l-167 -167l167 -168l-38 -39l-168 168l-168 -168l-38 39l167 168l-167 167l38 39l168 -167l168 167z" unicode="×"/>
<glyph glyph-name="Oslash" horiz-adv-x="753" unicode="Ø" d="M576 299q0 130 -67 215l-255 -438q52 -44 119 -44q91 0 147 71t56 196zM479 547q-55 47 -122 47q-90 0 -146.5 -72t-56.5 -197q0 -133 70 -218zM690 318q0 -140 -91 -236.5t-235 -96.5q-81 0 -145 29l-52 -88h-48l62 108q-66 42 -103.5 112.5t-37.5 159.5q0 140 91 236.5 t235 96.5q80 0 148 -31l47 80h49l-59 -100q66 -42 102.5 -112t36.5 -158z"/>
<glyph glyph-name="Ugrave" horiz-adv-x="712" unicode="Ù" d="M412 680h-34l-173 184h113zM693 625l-3 -37l-47 -10q-19 -3 -27 -15t-12 -52t-4 -132v-172q0 -103 -66 -164t-179 -61q-115 0 -181 55.5t-66 162.5v366q0 7 -7 10.5t-29 6.5l-37 5l-3 37h266l-3 -37l-39 -5q-34 -4 -34 -18v-337q0 -94 44.5 -139.5t124.5 -45.5 q78 0 121 45.5t43 131.5v159q0 93 -3.5 132.5t-11 51.5t-26.5 15l-51 10l-3 37h233z"/>
<glyph glyph-name="Uacute" horiz-adv-x="712" unicode="Ú" d="M551 864l-173 -184h-34l92 184h115zM693 625l-3 -37l-47 -10q-19 -3 -27 -15t-12 -52t-4 -132v-172q0 -103 -66 -164t-179 -61q-115 0 -181 55.5t-66 162.5v366q0 7 -7 10.5t-29 6.5l-37 5l-3 37h266l-3 -37l-39 -5q-34 -4 -34 -18v-337q0 -94 44.5 -139.5t124.5 -45.5 q78 0 121 45.5t43 131.5v159q0 93 -3.5 132.5t-11 51.5t-26.5 15l-51 10l-3 37h233z"/>
<glyph glyph-name="Ucircumflex" horiz-adv-x="712" unicode="Û" d="M511 680h-32l-102 106h-2l-102 -106h-32l111 192h48zM693 625l-3 -37l-47 -10q-19 -3 -27 -15t-12 -52t-4 -132v-172q0 -103 -66 -164t-179 -61q-115 0 -181 55.5t-66 162.5v366q0 7 -7 10.5t-29 6.5l-37 5l-3 37h266l-3 -37l-39 -5q-34 -4 -34 -18v-337 q0 -94 44.5 -139.5t124.5 -45.5q78 0 121 45.5t43 131.5v159q0 93 -3.5 132.5t-11 51.5t-26.5 15l-51 10l-3 37h233z"/>
<glyph glyph-name="Udieresis" horiz-adv-x="712" unicode="Ü" d="M322 773q0 -27 -16.5 -46.5t-45.5 -19.5q-28 0 -45 19.5t-17 46.5q0 28 17 47.5t45 19.5q29 0 45.5 -19.5t16.5 -47.5zM530 773q0 -27 -17 -46.5t-45 -19.5t-45 19.5t-17 46.5q0 28 17 47.5t45 19.5t45 -19.5t17 -47.5zM693 625l-3 -37l-47 -10q-19 -3 -27 -15t-12 -52 t-4 -132v-172q0 -103 -66 -164t-179 -61q-115 0 -181 55.5t-66 162.5v366q0 7 -7 10.5t-29 6.5l-37 5l-3 37h266l-3 -37l-39 -5q-34 -4 -34 -18v-337q0 -94 44.5 -139.5t124.5 -45.5q78 0 121 45.5t43 131.5v159q0 93 -3.5 132.5t-11 51.5t-26.5 15l-51 10l-3 37h233z"/>
<glyph glyph-name="Yacute" horiz-adv-x="604" unicode="Ý" d="M452 864l-173 -184h-34l92 184h115zM612 625l-3 -38l-17 -5q-28 -8 -48.5 -25.5t-49.5 -64.5l-131 -222v-211q0 -8 7.5 -11.5t28.5 -5.5l55 -5l3 -37h-301l3 37l56 5q35 4 35 18v197l-176 285q-20 30 -50 37l-31 8l-3 38h270l-3 -38l-37 -6q-20 -3 -20 -22q0 -23 35 -84 l94 -162h6l100 177q25 41 25 63q0 23 -30 29l-26 5l-3 38h211z"/>
<glyph glyph-name="Thorn" horiz-adv-x="602" unicode="Þ" d="M435 311q0 71 -43 111.5t-121 40.5h-43v-286q40 -8 77 -8q60 0 95 38.5t35 103.5zM558 329q0 -94 -73.5 -147.5t-181.5 -53.5q-21 0 -75 4v-73q0 -8 7.5 -11.5t28.5 -5.5l54 -5l3 -37h-283l3 37l39 5q35 4 35 18v506q0 7 -7 10.5t-30 6.5l-37 5l-3 37h267l-3 -37l-39 -5 q-35 -4 -35 -18v-61h79q121 0 186 -48.5t65 -126.5z"/>
<glyph glyph-name="germandbls" horiz-adv-x="549" unicode="ß" d="M349 423q74 -40 127.5 -105.5t53.5 -141.5q0 -77 -51 -134.5t-120 -57.5q-53 0 -88.5 26.5t-35.5 65.5q0 29 18.5 48.5t46.5 19.5t43 -16t15 -40q0 -36 -26 -54q18 -9 31 -9q34 0 58.5 29t24.5 71q0 66 -48.5 134.5t-145.5 119.5v49q66 13 95.5 43.5t29.5 85.5 q0 40 -25.5 67t-63.5 27q-99 0 -99 -149v-502h-162l3 37l31 3q29 1 29 19v330l-81 6l6 53l70 2l1 15q10 112 65.5 171t147.5 59q79 0 126 -38.5t47 -103.5q0 -96 -123 -130z"/>
<glyph glyph-name="agrave" horiz-adv-x="469" unicode="à" d="M259 513h-34l-173 184h113zM282 97l4 143q-87 -22 -120.5 -50t-33.5 -63q0 -32 20.5 -51t48.5 -19q38 0 81 40zM469 56q-55 -73 -108 -73q-31 0 -51 20t-22 59h-5q-64 -77 -127 -77q-50 0 -86 33t-36 84q0 61 60.5 101t193.5 72v9q1 70 -24 99.5t-74 29.5 q-24 0 -47.5 -7.5t-23.5 -13.5q0 -1 6 -8.5t12 -19.5t6 -25q0 -19 -15.5 -34.5t-40.5 -15.5q-24 0 -40 14.5t-16 35.5q0 41 69 84t137 43q81 0 116.5 -39t35.5 -137q0 -4 -0.5 -12.5t-0.5 -13.5l-7 -167v-8q0 -33 23 -33q16 0 48 24z"/>
<glyph glyph-name="aacute" horiz-adv-x="469" unicode="á" d="M383 697l-173 -184h-34l92 184h115zM282 97l4 143q-87 -22 -120.5 -50t-33.5 -63q0 -32 20.5 -51t48.5 -19q38 0 81 40zM469 56q-55 -73 -108 -73q-31 0 -51 20t-22 59h-5q-64 -77 -127 -77q-50 0 -86 33t-36 84q0 61 60.5 101t193.5 72v9q1 70 -24 99.5t-74 29.5 q-24 0 -47.5 -7.5t-23.5 -13.5q0 -1 6 -8.5t12 -19.5t6 -25q0 -19 -15.5 -34.5t-40.5 -15.5q-24 0 -40 14.5t-16 35.5q0 41 69 84t137 43q81 0 116.5 -39t35.5 -137q0 -4 -0.5 -12.5t-0.5 -13.5l-7 -167v-8q0 -33 23 -33q16 0 48 24z"/>
<glyph glyph-name="acircumflex" horiz-adv-x="469" unicode="â" d="M350 513h-32l-102 106h-2l-102 -106h-32l111 192h48zM282 97l4 143q-87 -22 -120.5 -50t-33.5 -63q0 -32 20.5 -51t48.5 -19q38 0 81 40zM469 56q-55 -73 -108 -73q-31 0 -51 20t-22 59h-5q-64 -77 -127 -77q-50 0 -86 33t-36 84q0 61 60.5 101t193.5 72v9q1 70 -24 99.5 t-74 29.5q-24 0 -47.5 -7.5t-23.5 -13.5q0 -1 6 -8.5t12 -19.5t6 -25q0 -19 -15.5 -34.5t-40.5 -15.5q-24 0 -40 14.5t-16 35.5q0 41 69 84t137 43q81 0 116.5 -39t35.5 -137q0 -4 -0.5 -12.5t-0.5 -13.5l-7 -167v-8q0 -33 23 -33q16 0 48 24z"/>
<glyph glyph-name="atilde" horiz-adv-x="469" unicode="ã" d="M384 651q-18 -129 -101 -129q-34 0 -86.5 35.5t-67.5 35.5t-25 -13.5t-23 -49.5h-35q18 129 101 129q34 0 85.5 -36t67.5 -36q15 0 25.5 14t24.5 50h34zM282 97l4 143q-87 -22 -120.5 -50t-33.5 -63q0 -32 20.5 -51t48.5 -19q38 0 81 40zM469 56q-55 -73 -108 -73 q-31 0 -51 20t-22 59h-5q-64 -77 -127 -77q-50 0 -86 33t-36 84q0 61 60.5 101t193.5 72v9q1 70 -24 99.5t-74 29.5q-24 0 -47.5 -7.5t-23.5 -13.5q0 -1 6 -8.5t12 -19.5t6 -25q0 -19 -15.5 -34.5t-40.5 -15.5q-24 0 -40 14.5t-16 35.5q0 41 69 84t137 43q81 0 116.5 -39 t35.5 -137q0 -4 -0.5 -12.5t-0.5 -13.5l-7 -167v-8q0 -33 23 -33q16 0 48 24z"/>
<glyph glyph-name="adieresis" horiz-adv-x="469" unicode="ä" d="M181 606q0 -27 -16.5 -46.5t-45.5 -19.5q-28 0 -45 19.5t-17 46.5q0 28 17 47.5t45 19.5q29 0 45.5 -19.5t16.5 -47.5zM389 606q0 -27 -17 -46.5t-45 -19.5t-45 19.5t-17 46.5q0 28 17 47.5t45 19.5t45 -19.5t17 -47.5zM282 97l4 143q-87 -22 -120.5 -50t-33.5 -63 q0 -32 20.5 -51t48.5 -19q38 0 81 40zM469 56q-55 -73 -108 -73q-31 0 -51 20t-22 59h-5q-64 -77 -127 -77q-50 0 -86 33t-36 84q0 61 60.5 101t193.5 72v9q1 70 -24 99.5t-74 29.5q-24 0 -47.5 -7.5t-23.5 -13.5q0 -1 6 -8.5t12 -19.5t6 -25q0 -19 -15.5 -34.5t-40.5 -15.5 q-24 0 -40 14.5t-16 35.5q0 41 69 84t137 43q81 0 116.5 -39t35.5 -137q0 -4 -0.5 -12.5t-0.5 -13.5l-7 -167v-8q0 -33 23 -33q16 0 48 24z"/>
<glyph glyph-name="aring" horiz-adv-x="468" unicode="å" d="M282 97l4 143q-87 -22 -120.5 -50t-33.5 -63q0 -32 20.5 -51t48.5 -19q38 0 81 40zM287 610q0 27 -17 46t-45 19t-45 -19t-17 -46t17 -46t45 -19t45 19t17 46zM469 56q-55 -73 -108 -73q-31 0 -51 20t-22 59h-5q-64 -77 -127 -77q-50 0 -86 33t-36 84q0 61 60.5 101 t193.5 72v9q1 70 -24 99.5t-74 29.5q-24 0 -47.5 -7.5t-23.5 -13.5q0 -1 6 -8.5t12 -19.5t6 -25q0 -19 -15.5 -34.5t-40.5 -15.5q-24 0 -40 14.5t-16 35.5q0 41 69 84t137 43q81 0 116.5 -39t35.5 -137q0 -4 -0.5 -12.5t-0.5 -13.5l-7 -167v-8q0 -33 23 -33q16 0 48 24z M319 610q0 -40 -26 -67.5t-68 -27.5t-68 27.5t-26 67.5t26 67.5t68 27.5t68 -27.5t26 -67.5z"/>
<glyph glyph-name="ae" horiz-adv-x="723" unicode="æ" d="M286 239q-86 -22 -120 -49.5t-34 -62.5q0 -32 20 -51t52 -19q50 0 98 53q-18 45 -18 100q0 15 2 29zM580 296v16q0 53 -21 83t-57 30q-41 0 -73 -34.5t-39 -95.5zM315 86q-30 -44 -72 -72.5t-87 -28.5q-50 0 -86 33t-36 84q0 61 60.5 101t193.5 72l1 12q0 3 0.5 9t0.5 9 q0 54 -27.5 81t-72.5 27q-24 0 -47.5 -7.5t-23.5 -13.5q0 -1 6 -8.5t12 -19.5t6 -25q0 -19 -15.5 -34.5t-40.5 -15.5q-24 0 -40 14.5t-16 35.5q0 41 68.5 84t137.5 43q104 0 131 -60q66 60 154 60q73 0 118 -41.5t45 -111.5q0 -29 -6 -55l-291 4v-11q1 -84 42 -135.5 t106 -51.5q75 0 124 58l21 -12q-26 -60 -76 -92.5t-116 -32.5q-115 0 -174 101z"/>
<glyph glyph-name="ccedilla" horiz-adv-x="454" unicode="ç" d="M222 -14q-83 6 -136 68.5t-53 155.5q0 110 70.5 183t172.5 73q69 0 109 -29t40 -71q0 -30 -18 -43.5t-43 -13.5q-26 0 -43 22.5t-17 53.5q0 11 3 23v2q-19 13 -48 13q-52 0 -86.5 -44t-34.5 -122q0 -84 41.5 -138.5t105.5 -54.5q75 0 124 58l21 -12q-48 -108 -159 -123 l-42 -43q62 -1 98 -25.5t36 -67.5q0 -52 -58 -85t-158 -39l-10 26q158 18 158 84q0 23 -22 37.5t-63 14.5q-35 0 -66 -7v22z"/>
<glyph glyph-name="egrave" horiz-adv-x="472" unicode="è" d="M292 513h-34l-173 184h113zM329 296v13q0 54 -21 85t-57 31q-41 0 -73 -34.5t-39 -95.5zM430 110q-26 -60 -76 -92.5t-116 -32.5q-89 0 -147 64t-58 161q0 110 68.5 183t169.5 73q73 0 118 -41.5t45 -111.5q0 -29 -6 -55l-291 4v-11q1 -84 42 -135.5t106 -51.5 q75 0 124 58z"/>
<glyph glyph-name="eacute" horiz-adv-x="472" unicode="é" d="M391 697l-173 -184h-34l92 184h115zM329 296v13q0 54 -21 85t-57 31q-41 0 -73 -34.5t-39 -95.5zM430 110q-26 -60 -76 -92.5t-116 -32.5q-89 0 -147 64t-58 161q0 110 68.5 183t169.5 73q73 0 118 -41.5t45 -111.5q0 -29 -6 -55l-291 4v-11q1 -84 42 -135.5t106 -51.5 q75 0 124 58z"/>
<glyph glyph-name="ecircumflex" horiz-adv-x="472" unicode="ê" d="M371 513h-32l-102 106h-2l-102 -106h-32l111 192h48zM329 296v13q0 54 -21 85t-57 31q-41 0 -73 -34.5t-39 -95.5zM430 110q-26 -60 -76 -92.5t-116 -32.5q-89 0 -147 64t-58 161q0 110 68.5 183t169.5 73q73 0 118 -41.5t45 -111.5q0 -29 -6 -55l-291 4v-11 q1 -84 42 -135.5t106 -51.5q75 0 124 58z"/>
<glyph glyph-name="edieresis" horiz-adv-x="472" unicode="ë" d="M194 606q0 -27 -16.5 -46.5t-45.5 -19.5q-28 0 -45 19.5t-17 46.5q0 28 17 47.5t45 19.5q29 0 45.5 -19.5t16.5 -47.5zM402 606q0 -27 -17 -46.5t-45 -19.5t-45 19.5t-17 46.5q0 28 17 47.5t45 19.5t45 -19.5t17 -47.5zM329 296v13q0 54 -21 85t-57 31q-41 0 -73 -34.5 t-39 -95.5zM430 110q-26 -60 -76 -92.5t-116 -32.5q-89 0 -147 64t-58 161q0 110 68.5 183t169.5 73q73 0 118 -41.5t45 -111.5q0 -29 -6 -55l-291 4v-11q1 -84 42 -135.5t106 -51.5q75 0 124 58z"/>
<glyph glyph-name="igrave" horiz-adv-x="284" unicode="ì" d="M194 513h-34l-173 184h113zM258 0h-228l3 37l25 3q34 3 34 19v246q0 46 -7.5 60t-35.5 22l-21 5l1 29l163 45v-408q0 -16 38 -18l25 -3z"/>
<glyph glyph-name="iacute" horiz-adv-x="284" unicode="í" d="M292 697l-173 -184h-34l92 184h115zM258 0h-228l3 37l25 3q34 3 34 19v246q0 46 -7.5 60t-35.5 22l-21 5l1 29l163 45v-408q0 -16 38 -18l25 -3z"/>
<glyph glyph-name="icircumflex" horiz-adv-x="284" unicode="î" d="M277 513h-32l-102 106h-2l-102 -106h-32l111 192h48zM258 0h-228l3 37l25 3q34 3 34 19v246q0 46 -7.5 60t-35.5 22l-21 5l1 29l163 45v-408q0 -16 38 -18l25 -3z"/>
<glyph glyph-name="idieresis" horiz-adv-x="284" unicode="ï" d="M100 606q0 -27 -16.5 -46.5t-45.5 -19.5q-28 0 -45 19.5t-17 46.5q0 28 17 47.5t45 19.5q29 0 45.5 -19.5t16.5 -47.5zM308 606q0 -27 -17 -46.5t-45 -19.5t-45 19.5t-17 46.5q0 28 17 47.5t45 19.5t45 -19.5t17 -47.5zM258 0h-228l3 37l25 3q34 3 34 19v246 q0 46 -7.5 60t-35.5 22l-21 5l1 29l163 45v-408q0 -16 38 -18l25 -3z"/>
<glyph glyph-name="eth" horiz-adv-x="525" unicode="ð" d="M141 254q0 -131 58 -191q34 -32 76 -32q51 0 82.5 44t31.5 121q0 131 -57 190q-33 33 -77 33q-52 0 -83 -44t-31 -121zM277 560l-146 -48v46l103 34q-49 31 -105 46l14 33q83 -16 154 -58l125 42v-46l-80 -27q73 -56 113 -138t41 -180q0 -123 -65 -201t-167 -78 q-103 0 -167 69t-64 170q0 105 62.5 171.5t147.5 66.5q89 0 139 -79q-28 111 -105 177z"/>
<glyph glyph-name="ntilde" horiz-adv-x="560" unicode="ñ" d="M449 651q-18 -129 -101 -129q-34 0 -86.5 35.5t-67.5 35.5t-25 -13.5t-23 -49.5h-35q18 129 101 129q34 0 85.5 -36t67.5 -36q15 0 25.5 14t24.5 50h34zM547 0h-227l3 37l22 3q34 2 34 19v202q0 71 -21.5 98.5t-67.5 27.5q-54 0 -99 -37v-292q0 -16 38 -18l30 -3l3 -37 h-234l3 37l26 3q34 3 34 19v246q0 46 -8 60t-35 22l-22 5l1 29l164 45v-73h5q90 73 162 73q50 0 83 -33q38 -38 38 -114v-260q0 -8 8 -12t33 -7l24 -3z"/>
<glyph glyph-name="ograve" horiz-adv-x="532" unicode="ò" d="M403 199q0 138 -50 189q-32 34 -77 34q-52 0 -86 -46.5t-34 -124.5q0 -137 50 -190q33 -33 78 -33q51 0 85 46.5t34 124.5zM514 236q0 -105 -70 -178t-174 -73q-102 0 -163 68t-61 170q0 101 71 172t173 71q100 0 162 -66t62 -164zM293 513h-34l-173 184h113z"/>
<glyph glyph-name="oacute" horiz-adv-x="534" unicode="ó" d="M429 697l-173 -184h-34l92 184h115zM390 199q0 138 -50 189q-32 34 -77 34q-52 0 -86 -46.5t-34 -124.5q0 -137 50 -190q33 -33 78 -33q51 0 85 46.5t34 124.5zM501 236q0 -105 -70 -178t-174 -73q-102 0 -163 68t-61 170q0 101 70.5 172t173.5 71q100 0 162 -66t62 -164 z"/>
<glyph glyph-name="ocircumflex" horiz-adv-x="534" unicode="ô" d="M401 513h-32l-102 106h-2l-102 -106h-32l111 192h48zM390 199q0 138 -50 189q-32 34 -77 34q-52 0 -86 -46.5t-34 -124.5q0 -137 50 -190q33 -33 78 -33q51 0 85 46.5t34 124.5zM501 236q0 -105 -70 -178t-174 -73q-102 0 -163 68t-61 170q0 101 70.5 172t173.5 71 q100 0 162 -66t62 -164z"/>
<glyph glyph-name="otilde" horiz-adv-x="534" unicode="õ" d="M435 651q-18 -129 -101 -129q-34 0 -86.5 35.5t-67.5 35.5t-25 -13.5t-23 -49.5h-35q18 129 101 129q34 0 85.5 -36t67.5 -36q15 0 25.5 14t24.5 50h34zM390 199q0 138 -50 189q-32 34 -77 34q-52 0 -86 -46.5t-34 -124.5q0 -137 50 -190q33 -33 78 -33q51 0 85 46.5 t34 124.5zM501 236q0 -105 -70 -178t-174 -73q-102 0 -163 68t-61 170q0 101 70.5 172t173.5 71q100 0 162 -66t62 -164z"/>
<glyph glyph-name="odieresis" horiz-adv-x="534" unicode="ö" d="M224 606q0 -27 -16.5 -46.5t-45.5 -19.5q-28 0 -45 19.5t-17 46.5q0 28 17 47.5t45 19.5q29 0 45.5 -19.5t16.5 -47.5zM432 606q0 -27 -17 -46.5t-45 -19.5t-45 19.5t-17 46.5q0 28 17 47.5t45 19.5t45 -19.5t17 -47.5zM390 199q0 138 -50 189q-32 34 -77 34 q-52 0 -86 -46.5t-34 -124.5q0 -137 50 -190q33 -33 78 -33q51 0 85 46.5t34 124.5zM501 236q0 -105 -70 -178t-174 -73q-102 0 -163 68t-61 170q0 101 70.5 172t173.5 71q100 0 162 -66t62 -164z"/>
<glyph glyph-name="divide" d="M293 93q0 -22 -15 -37.5t-38 -15.5t-37.5 15.5t-14.5 37.5t14.5 37.5t37.5 15.5t38 -15.5t15 -37.5zM293 376q0 -22 -15 -37.5t-38 -15.5t-37.5 15.5t-14.5 37.5t14.5 37.5t37.5 15.5t38 -15.5t15 -37.5zM442 207h-405l3 55h399z" unicode="÷"/>
<glyph glyph-name="oslash" horiz-adv-x="532" unicode="ø" d="M393 196q0 91 -35 151l-163 -281q35 -35 85 -35q49 0 81 44t32 121zM334 383q-32 36 -85 36q-51 0 -82 -43.5t-31 -121.5q0 -93 36 -152zM499 592l-98 -168q44 -32 69 -84.5t25 -113.5q0 -102 -66 -171.5t-166 -69.5q-55 0 -102 22l-78 -136l-40 6l86 149q-44 33 -69 85 t-25 113q0 102 66.5 172t166.5 70q52 0 101 -23l90 155z"/>
<glyph glyph-name="ugrave" horiz-adv-x="544" unicode="ù" d="M306 513h-34l-173 184h113zM536 31l-3 -27l-169 -19v73h-5q-92 -73 -163 -73q-50 0 -83 33q-38 38 -38 114l2 260q0 10 -4.5 12.5t-24.5 4.5q-9 1 -14 2l-22 3l-3 37h172l-6 -262q-1 -70 21 -97.5t68 -27.5q51 0 100 36v293q0 8 -7.5 12t-30.5 6l-34 3l-4 37h175v-373 q0 -25 14 -29z"/>
<glyph glyph-name="uacute" horiz-adv-x="544" unicode="ú" d="M422 697l-173 -184h-34l92 184h115zM536 31l-3 -27l-169 -19v73h-5q-92 -73 -163 -73q-50 0 -83 33q-38 38 -38 114l2 260q0 10 -4.5 12.5t-24.5 4.5q-9 1 -14 2l-22 3l-3 37h172l-6 -262q-1 -70 21 -97.5t68 -27.5q51 0 100 36v293q0 8 -7.5 12t-30.5 6l-34 3l-4 37h175 v-373q0 -25 14 -29z"/>
<glyph glyph-name="ucircumflex" horiz-adv-x="544" unicode="û" d="M396 513h-32l-102 106h-2l-102 -106h-32l111 192h48zM536 31l-3 -27l-169 -19v73h-5q-92 -73 -163 -73q-50 0 -83 33q-38 38 -38 114l2 260q0 10 -4.5 12.5t-24.5 4.5q-9 1 -14 2l-22 3l-3 37h172l-6 -262q-1 -70 21 -97.5t68 -27.5q51 0 100 36v293q0 8 -7.5 12t-30.5 6 l-34 3l-4 37h175v-373q0 -25 14 -29z"/>
<glyph glyph-name="udieresis" horiz-adv-x="544" unicode="ü" d="M425 606q0 -27 -17 -46.5t-45 -19.5t-45 19.5t-17 46.5q0 28 17 47.5t45 19.5t45 -19.5t17 -47.5zM217 606q0 -27 -16.5 -46.5t-45.5 -19.5q-28 0 -45 19.5t-17 46.5q0 28 17 47.5t45 19.5q29 0 45.5 -19.5t16.5 -47.5zM536 31l-3 -27l-169 -19v73h-5q-92 -73 -163 -73 q-50 0 -83 33q-38 38 -38 114l2 260q0 10 -4.5 12.5t-24.5 4.5q-9 1 -14 2l-22 3l-3 37h172l-6 -262q-1 -70 21 -97.5t68 -27.5q51 0 100 36v293q0 8 -7.5 12t-30.5 6l-34 3l-4 37h175v-373q0 -25 14 -29z"/>
<glyph glyph-name="yacute" horiz-adv-x="471" unicode="ý" d="M385 697l-173 -184h-34l92 184h115zM495 451l-3 -37l-28 -6q-20 -3 -31 -16.5t-26 -50.5l-118 -311l-54 -161q-23 -68 -50 -99t-70 -31q-32 0 -52 16.5t-20 42.5q0 24 13.5 40t39.5 16q41 0 62 -37q19 10 41 69l34 97v4l-178 382q-9 19 -18 25.5t-30 10.5l-22 8l-4 38 h234l-3 -37l-27 -7q-24 -2 -24 -20q0 -5 5 -17l112 -257l82 232q8 24 8 34q0 23 -30 27l-30 8l-3 37h190z"/>
<glyph glyph-name="thorn" horiz-adv-x="533" unicode="þ" d="M393 203q0 82 -33.5 130t-87.5 48q-58 0 -99 -48v-244q54 -61 108 -61q46 0 79 48.5t33 126.5zM501 243q0 -105 -65 -181.5t-174 -76.5q-44 0 -87 13h-2v-186q0 -15 38 -18l37 -3l3 -37h-243l3 37l28 3q34 3 34 19v753q0 23 -14 29l-58 26l3 27l169 49v-313h5 q65 75 143 75q81 0 130.5 -62t49.5 -154z"/>
<glyph glyph-name="OE" horiz-adv-x="971" unicode="Œ" d="M474 43v528l-72 15q-114 0 -178.5 -74t-64.5 -188q0 -129 73.5 -205t210.5 -76h31zM927 188l-20 -188h-497q-163 0 -264 83.5t-101 215.5q0 139 99 233t277 94l488 -1v-195h-54l-23 91q-5 19 -11 29t-16 18t-35.5 10.5t-55.5 3.5t-89 1h-46v-245h33q55 0 72.5 4.5 t24.5 21.5l23 67h42l-21 -226h-41l-9 63q-2 17 -18 22.5t-75 5.5h-31v-254h41q99 0 140.5 4.5t57.5 16t26 41.5l24 84h59z"/>
<glyph glyph-name="oe" horiz-adv-x="829" unicode="œ" d="M389 196v7q0 134 -50 185q-29 34 -76 34q-53 0 -86 -44.5t-34 -123.5v-8q0 -132 50 -185q31 -33 77 -33q51 0 84.5 45.5t34.5 122.5zM686 296v13q0 54 -21 85t-57 31q-41 0 -74 -34.5t-40 -95.5zM436 65q-69 -80 -179 -80q-101 0 -162.5 66.5t-61.5 165.5v7 q2 102 71.5 172t172.5 70q112 0 173 -84q68 84 178 84q73 0 118 -41.5t45 -111.5q0 -29 -6 -55l-293 4v-11q0 -83 42.5 -135t107.5 -52q75 0 124 58l21 -12q-26 -60 -76 -92.5t-116 -32.5q-101 0 -159 80z"/>
<glyph glyph-name="Scaron" horiz-adv-x="533" unicode="Š" d="M401 872l-111 -192h-48l-111 192h32l102 -107h2l102 107h32zM489 177q0 -78 -65.5 -134.5t-174.5 -57.5h-8q-81 0 -179 29l-12 185h53l45 -142q59 -25 110 -25h4q61 0 94 31.5t33 74.5q0 30 -10.5 51.5t-35 37.5t-45.5 25t-61 23q-43 15 -71 28.5t-55.5 35t-41 51.5 t-13.5 70q0 73 57 125.5t163 53.5q57 0 129 -13l52 14v-203h-52l-36 133q-49 20 -104 20q-54 0 -83.5 -26.5t-29.5 -64.5q0 -22 8.5 -39.5t19 -29t33.5 -23.5t38 -18.5t46 -17.5q96 -34 144 -74.5t48 -119.5z"/>
<glyph glyph-name="scaron" horiz-adv-x="419" unicode="š" d="M344 705l-111 -192h-48l-111 192h32l102 -107h2l102 107h32zM380 132q0 -62 -49.5 -104.5t-135.5 -42.5q-85 0 -145 23l-5 132h59l24 -89q38 -25 77 -25q35 0 62.5 21t27.5 54q0 11 -3.5 20.5t-13.5 18t-16 13t-24.5 12.5t-24.5 10.5t-29 10.5q-33 13 -52 22.5t-41 26 t-32.5 40t-10.5 55.5q0 57 45.5 97t123.5 40q55 0 104 -17l37 13l6 -146h-56l-24 86q-31 22 -73 22q-33 0 -55 -17.5t-22 -45.5q0 -22 14 -37.5t32 -24t60 -24.5q32 -12 52 -22t43 -26.5t34 -40.5t11 -55z"/>
<glyph glyph-name="Ydieresis" horiz-adv-x="604" unicode="Ÿ" d="M278 773q0 -27 -16.5 -46.5t-45.5 -19.5q-28 0 -45 19.5t-17 46.5q0 28 17 47.5t45 19.5q29 0 45.5 -19.5t16.5 -47.5zM486 773q0 -27 -17 -46.5t-45 -19.5t-45 19.5t-17 46.5q0 28 17 47.5t45 19.5t45 -19.5t17 -47.5zM612 625l-3 -38l-17 -5q-28 -8 -48.5 -25.5 t-49.5 -64.5l-131 -222v-211q0 -8 7.5 -11.5t28.5 -5.5l55 -5l3 -37h-301l3 37l56 5q35 4 35 18v197l-176 285q-20 30 -50 37l-31 8l-3 38h270l-3 -38l-37 -6q-20 -3 -20 -22q0 -23 35 -84l94 -162h6l100 177q25 41 25 63q0 23 -30 29l-26 5l-3 38h211z"/>
<glyph glyph-name="circumflex" horiz-adv-x="400" unicode="ˆ" d="M335 513h-32l-102 106h-2l-102 -106h-32l111 192h48z"/>
<glyph glyph-name="tilde" horiz-adv-x="400" unicode="˜" d="M369 651q-18 -129 -101 -129q-34 0 -86.5 35.5t-67.5 35.5t-25 -13.5t-23 -49.5h-35q18 129 101 129q34 0 85.5 -36t67.5 -36q15 0 25.5 14t24.5 50h34z"/>
<glyph glyph-name="thinspace" horiz-adv-x="76" unicode=" "/>
<glyph glyph-name="endash" horiz-adv-x="470" unicode="–" d="M443 211h-414l3 57h408z"/>
<glyph glyph-name="emdash" horiz-adv-x="940" unicode="—" d="M913 211h-884l3 57h878z"/>
<glyph glyph-name="quoteleft" horiz-adv-x="237" unicode="‘" d="M202 428q0 -27 -20.5 -46.5t-53.5 -19.5q-37 0 -67.5 29.5t-30.5 71.5q0 100 150 205l27 -20q-89 -63 -89 -131q0 -27 21 -48t42 -31z"/>
<glyph glyph-name="quotesinglbase" horiz-adv-x="237" unicode="‚" d="M210 25q0 -101 -150 -206l-27 21q89 61 89 131q0 17 -8.5 32.5t-21 25t-25 16t-21 10t-8.5 4.5q0 27 20.5 47t53.5 20q37 0 67.5 -29.5t30.5 -71.5z"/>
<glyph glyph-name="quotedblleft" horiz-adv-x="446" unicode="“" d="M202 428q0 -27 -20.5 -46.5t-53.5 -19.5q-37 0 -67.5 29.5t-30.5 71.5q0 100 150 205l27 -20q-89 -63 -89 -131q0 -27 21 -48t42 -31zM422 428q0 -27 -20.5 -46.5t-53.5 -19.5q-38 0 -68 29.5t-30 71.5q0 100 149 205l28 -20q-89 -62 -89 -131q0 -27 21 -48t42 -31z"/>
<glyph glyph-name="quotedblright" horiz-adv-x="446" unicode="”" d="M210 558q0 -101 -150 -206l-27 21q89 61 89 131q0 17 -8.5 32.5t-21 25t-25 16t-21 10t-8.5 4.5q0 27 20.5 47t53.5 20q37 0 67.5 -29.5t30.5 -71.5zM430 558q0 -101 -149 -206l-28 21q89 60 89 131q0 17 -8.5 32.5t-21 25t-25 16t-21 10t-8.5 4.5q0 27 20.5 47t53.5 20 q38 0 68 -29.5t30 -71.5z"/>
<glyph glyph-name="dagger" horiz-adv-x="470" unicode="†" d="M441 433l-4 -43h-180v-546h-42v546h-179l-4 43h183v192h42v-192h184z"/>
<glyph glyph-name="daggerdbl" horiz-adv-x="470" unicode="‡" d="M441 21h-184v-177h-42v177h-183l4 43h179v341h-179l-4 43h183v177h42v-177h184l-4 -43h-180v-341h180z"/>
<glyph glyph-name="ellipsis" horiz-adv-x="696" unicode="…" d="M190 57q0 -29 -20.5 -50.5t-51.5 -21.5t-52 21.5t-21 50.5q0 30 21 50.5t52 20.5t51.5 -21t20.5 -50zM422 57q0 -29 -20.5 -50.5t-51.5 -21.5t-52 21.5t-21 50.5q0 30 21 50.5t52 20.5t51.5 -21t20.5 -50zM654 57q0 -29 -20.5 -50.5t-51.5 -21.5t-52 21.5t-21 50.5 q0 30 21 50.5t52 20.5t51.5 -21t20.5 -50z"/>
<glyph glyph-name="perthousand" horiz-adv-x="1126" unicode="‰" d="M680 142q0 49 -32 84.5t-85 35.5t-85 -35.5t-32 -84.5q0 -52 32 -87t85 -35t85 35t32 87zM1060 142q0 49 -32 84.5t-85 35.5t-85 -35.5t-32 -84.5q0 -52 32 -87t85 -35t85 35t32 87zM300 482q0 52 -32 87t-85 35t-85 -35t-32 -87q0 -49 32 -84.5t85 -35.5t85 35.5 t32 84.5zM729 142q0 -70 -45.5 -118.5t-120.5 -48.5t-120.5 48t-45.5 119q0 69 45.5 117t120.5 48q74 0 120 -48t46 -117zM1109 142q0 -70 -45.5 -118.5t-120.5 -48.5t-120.5 48t-45.5 119q0 69 45.5 117t120.5 48q74 0 120 -48t46 -117zM654 639l-507 -654h-54l507 654h54z M349 482q0 -69 -45.5 -117t-120.5 -48q-74 0 -120 48t-46 117q0 70 45.5 118.5t120.5 48.5t120.5 -48t45.5 -119z"/>
<glyph glyph-name="guilsinglleft" horiz-adv-x="310" unicode="‹" d="M272 62l-11 -21l-226 154v52l226 154l11 -21l-145 -159z"/>
<glyph glyph-name="guilsinglright" horiz-adv-x="310" unicode="›" d="M281 195l-226 -154l-11 21l145 159l-145 159l11 21l226 -154v-52z"/>
<glyph glyph-name="fraction" horiz-adv-x="525" unicode="⁄" d="M526 638l-467 -654h-60l468 654h59z"/>
<glyph glyph-name="Euro" horiz-adv-x="527" unicode="€" d="M509 113q-27 -59 -75.5 -93.5t-114.5 -34.5q-89 0 -150.5 62t-80.5 168h-66l3 44h57q-1 11 -1 35q0 14 2 44h-61l3 44h64q22 111 94 179t171 68q63 0 106 -24.5t43 -60.5q0 -23 -15 -38t-38 -15q-27 0 -45 23.5t-22 54.5q-21 14 -49 14q-62 0 -101.5 -54.5t-50.5 -146.5 h200l3 -44h-207v-21q0 -31 3 -58h201l3 -44h-196q18 -77 60.5 -117t103.5 -40q74 0 137 67z"/>
<glyph glyph-name="trademark" horiz-adv-x="927" unicode="™" d="M374 625v-140h-36l-5 19q-18 58 -34 74.5t-63 16.5h-1v-294q0 -11 12 -14l42 -6l1 -28h-184l2 28l41 6q13 3 13 14v294h-1q-40 0 -58 -18.5t-36 -72.5l-6 -19h-33l7 140h339zM906 253h-172l1 28l31 7q12 4 12 42v19l-4 232h-10l-102 -316h-60l-79 319h-10l-6 -195 q-2 -56 -2 -63q0 -23 2.5 -30.5t10.5 -9.5l32 -5l1 -28h-135l2 28l30 5q12 2 16.5 20t6.5 83l6 187q0 13 -12 15l-35 6l-2 28h158l61 -275h10l84 275h158l-2 -28l-33 -6q-14 -3 -14 -15l4 -227q1 -35 5.5 -46.5t14.5 -14.5l30 -7z"/>
<glyph glyph-name="minus" d="M442 207h-405l3 55h399z" unicode="−"/>
<glyph glyph-name="approxequal" d="M156 156q-15 0 -24 -2t-22 -15.5t-22 -40.5h-48q10 53 39.5 83t71.5 30q28 0 90.5 -33t82.5 -33q15 0 24 2t22 15.5t22 40.5h48q-10 -53 -39.5 -83t-71.5 -30q-34 0 -97 33t-76 33zM156 323q-15 0 -24 -2t-22 -15.5t-22 -40.5h-48q10 53 39.5 83t71.5 30q28 0 90.5 -33 t82.5 -33q15 0 24 2t22 15.5t22 40.5h48q-10 -53 -39.5 -83t-71.5 -30q-34 0 -97 33t-76 33z" unicode="≈"/>
<glyph glyph-name="notequal" d="M141 -23l41 144h-142l3 55h154l33 117h-187l-3 55h206l38 134h54l-38 -134h140l-3 -55h-153l-33 -117h186l3 -55h-204l-41 -144h-54z" unicode="≠"/>
<glyph glyph-name="lessequal" d="M448 4h-416l3 55h410zM130 270l308 -128l-11 -49l-395 166v32l395 166l11 -49l-308 -128v-10z" unicode="≤"/>
<glyph glyph-name="greaterequal" d="M448 4h-416l3 55h410zM42 142l308 128v10l-308 128l11 49l395 -166v-32l-395 -166z" unicode="≥"/>
</font>
</defs>
</svg>
